/* XPM */
static char *_186_7d2edb95637f6a99a6be65712ca4071d474f89411890468bd0b1e3d0da0f340d[] = {
/* columns rows colors chars-per-pixel */
"28 55 2 1 ",
"  c black",
". c None",
/* pixels */
"............................",
"....                    ....",
"...                      ...",
"..                        ..",
".                          .",
".                          .",
".                          .",
".                          .",
".                          .",
".                          .",
".                          .",
".          ......          .",
".          ......          .",
".          ......          .",
".          ......          .",
".          ......          .",
".          ......          .",
".          .................",
".          .................",
".          .................",
".          .................",
".          .................",
".          .................",
".          .................",
".          .................",
".          .................",
".          .................",
".          .................",
".          .................",
".          .................",
".          .................",
".          .................",
".          .................",
".          ......          .",
".          ......          .",
".          ......          .",
".          ......          .",
".          ......          .",
".          ......          .",
".           .....          .",
".            ....          .",
".             ...          .",
".              ..          .",
".                          .",
".                         ..",
"..                       ...",
"...                     ....",
"....                   .....",
".....                 ......",
"......               .......",
".......             ........",
"........           .........",
".........         ..........",
"..........       ...........",
"............................"
};
