/* XPM */
static char *a73cc12858c14a68c916622f4d58052f[] = {
/* columns rows colors chars-per-pixel */
"26 52 2 1 ",
"  c None",
". c black",
/* pixels */
".......................   ",
"........................  ",
"......................... ",
"..........................",
"..........................",
"..........................",
"..........................",
"..........................",
"..........................",
"..........................",
"..........      ..........",
"..........      ..........",
"..........      ..........",
"..........      ..........",
"..........      ..........",
"..........      ..........",
"..........      ..........",
"..........      ..........",
"..........      ..........",
"..........      ..........",
"..........      ..........",
"..........      ..........",
"..........      ..........",
"..........      ..........",
"..........      ..........",
"..........      ..........",
"..........      ..........",
"..........      ..........",
"..........      ..........",
"..........      ..........",
"..........      ..........",
"..........     ...........",
"..........   .............",
"..........  ..............",
"..........................",
"......................... ",
"........................  ",
"......................    ",
".....................     ",
"...................       ",
"..................        ",
"................          ",
"...............           ",
"..............            ",
"............              ",
"...........               ",
".........                 ",
"........                  ",
"......                    ",
".....                     ",
"...                       ",
"..                        "
};
