/* XPM */
static char *_d622dbca4b94f97b12d3b65ff17a8c8[] = {
/* columns rows colors chars-per-pixel */
"26 52 2 1 ",
"  c None",
". c black",
/* pixels */
"..........      ..........",
"..........      ..........",
"..........      ..........",
"..........      ..........",
"..........      ..........",
"..........      ..........",
"..........      ..........",
"..........      ..........",
"..........      ..........",
"..........      ..........",
"..........      ..........",
"..........      ..........",
"..........      ..........",
"..........      ..........",
"..........      ..........",
"..........      ..........",
"..........      ..........",
"..........      ..........",
"..........      ..........",
"..........................",
"..........................",
"..........................",
"..........................",
"..........................",
"..........................",
"..........................",
"..........................",
"..........................",
"..........................",
"..........................",
"..........................",
"..........      ..........",
"..........      ..........",
"..........      ..........",
"..........      ..........",
"..........      ..........",
"..........      ..........",
"..........      ..........",
"..........      ..........",
"..........      ..........",
"..........      ..........",
"..........      ..........",
"..........      ..........",
"..........      ..........",
"..........      ..........",
" .........      ......... ",
"   .......      .......   ",
"    ......      ......    ",
"     .....      .....     ",
"      ....      ...       ",
"        ..      ..        ",
"         .      .         "
};
