/* XPM */
static char *_941_c54e84161b29c909208f70bc2b9e72b98451e8cadd7aea0f60fc5624547a0edb[] = {
/* columns rows colors chars-per-pixel */
"11 63 2 1 ",
"  c black",
". c None",
/* pixels */
"...........",
"          .",
"          .",
"          .",
"          .",
"          .",
"          .",
"          .",
"          .",
"...........",
"...........",
"...........",
"          .",
"          .",
"          .",
"          .",
"          .",
"          .",
"          .",
"          .",
"          .",
"          .",
"          .",
"          .",
"          .",
"          .",
"          .",
"          .",
"          .",
"          .",
"          .",
"          .",
"          .",
"          .",
"          .",
"          .",
"          .",
"          .",
"          .",
"          .",
"          .",
"          .",
"          .",
"          .",
"          .",
"          .",
"          .",
"          .",
"          .",
"          .",
"          .",
"          .",
"          .",
"          .",
"          .",
"          .",
"         ..",
"        ...",
"       ....",
"      .....",
"     ......",
"    .......",
"   ........"
};
