/* XPM */
static char *f442f6b9a5d444f1ae23326417a6bf3b[] = {
/* columns rows colors chars-per-pixel */
"26 52 2 1 ",
"  c None",
". c black",
/* pixels */
"...........     ..........",
"...........     ..........",
"............    ..........",
"............    ..........",
"............    ..........",
".............   ..........",
".............   ..........",
".............   ..........",
"..............  ..........",
"..............  ..........",
"..............  ..........",
"............... ..........",
"............... ..........",
"............... ..........",
"..........................",
"..........................",
"..........................",
"..........................",
"..........................",
"..........................",
"..........................",
"..........................",
"..........................",
"..........................",
"..........................",
"..........................",
"..........................",
"..........................",
"..........................",
"..........................",
"..........................",
"..........................",
"..........................",
"..........................",
"..........................",
"........... ..............",
"........... ..............",
"........... ..............",
"........... ..............",
"...........  .............",
"...........  .............",
"...........  .............",
"...........   ............",
"...........   ............",
"...........   ............",
"  .........    .......... ",
"   ........    .........  ",
"    .......    ........   ",
"      .....    ......     ",
"       ....     ....      ",
"        ...     ...       ",
"          .     ..        "
};
