/* XPM */
static char *_0279_68e5e66b3bc19e06e343316e51bb9949c31c673c83c114b8200b9321f1c57d01[] = {
/* columns rows colors chars-per-pixel */
"26 52 2 1 ",
"  c black",
". c None",
/* pixels */
"...                    ...",
"..                      ..",
".                        .",
"                          ",
"                          ",
"                          ",
"                          ",
"                          ",
"                          ",
"                          ",
"          ......          ",
"          ......          ",
"          ......          ",
"          ......          ",
"          ......          ",
"          ......          ",
"          ......          ",
"          ......          ",
"          ......          ",
"          ......          ",
"          ......          ",
"          ......          ",
"          ......          ",
"          ......          ",
"          ......          ",
"                          ",
"                          ",
"                          ",
"                          ",
"                          ",
"                          ",
"                          ",
"                          ",
"                          ",
"                          ",
"          ......          ",
"          ......          ",
"          ......          ",
"          ......          ",
"          ......          ",
"          ......          ",
"          ......          ",
"          ......          ",
"          ......          ",
".         ......         .",
"..        ......        ..",
"...       ......       ...",
"....      ......      ....",
".....     ......     .....",
"......    ......    ......",
".......   ......   .......",
"........  ......  ........"
};
