/* XPM */
static char *_3598_04ea399b1e71cf27a21d07c6223b4832bd26f97a166d2ff673c0d393dc6bf400[] = {
/* columns rows colors chars-per-pixel */
"28 69 2 1 ",
"  c black",
". c None",
/* pixels */
"............................",
"..                     .....",
"..                      ....",
"..                       ...",
"..                        ..",
"..                         .",
"..                         .",
"..                         .",
"..                         .",
"..                         .",
"..                         .",
"..         .......         .",
"..         .......         .",
"..         .......         .",
"..         .......         .",
"..         .......         .",
"..         .......         .",
"..         .......         .",
"..         .......         .",
"..         .......         .",
"..         .......         .",
"..         .......         .",
"..         .......         .",
"..         .......         .",
"..         .......         .",
"..         .......         .",
"..         .......         .",
"..         .......         .",
"..         .......         .",
"..         .......         .",
"..         .......         .",
"..         .......         .",
"..         .......         .",
"..         .......         .",
"..         .......         .",
"..         .......         .",
"..         .......         .",
"..         .......         .",
"..         .......         .",
"..         .......         .",
"..         ......          .",
"..         .....           .",
"..         ....            .",
"..         ...             .",
"..         ..              .",
"..                         .",
"..                         .",
"..                         .",
"..                        ..",
"..                       ...",
"..                      ....",
"..                     .....",
"..                    ......",
"..                   .......",
"..                  ........",
"..                 .........",
"..                ..........",
"..               ...........",
"..              ............",
"..             .............",
"..           ...............",
"..          ................",
"..         .................",
"..        ..................",
"..       ...................",
"..      ....................",
"..     .....................",
"..    ......................",
"..   ......................."
};
