/* XPM */
static char *_6877_bd4bd8c2f34fb7888f56ed44b7eeb32009098361b77cbf13b1913d41260d59b6[] = {
/* columns rows colors chars-per-pixel */
"14 83 2 1 ",
"  c black",
". c None",
/* pixels */
"..............",
".            .",
"..          ..",
"..          ..",
"..          ..",
"..          ..",
"..          ..",
"..          ..",
"..          ..",
"..          ..",
"..          ..",
"..............",
"..          ..",
"..          ..",
"..          ..",
"..          ..",
"..          ..",
"..          ..",
"..          ..",
"..          ..",
"..          ..",
"..          ..",
"..          ..",
"..          ..",
"..          ..",
"..          ..",
"..          ..",
"..          ..",
"..          ..",
"..          ..",
"..          ..",
"..          ..",
"..          ..",
"..          ..",
"..          ..",
"..          ..",
"..          ..",
"..          ..",
"..          ..",
"..          ..",
"..          ..",
"..          ..",
"..          ..",
"..          ..",
"..          ..",
"..          ..",
"..          ..",
"..          ..",
"..          ..",
"..          ..",
"..          ..",
"..          ..",
"..          ..",
"..          ..",
"..          ..",
"..          ..",
"..          ..",
"..          ..",
"..          ..",
"..          ..",
"..          ..",
"..          ..",
"..          ..",
"..          ..",
"..          ..",
"..          ..",
"..          ..",
"..          ..",
"..          ..",
"..          ..",
"..          ..",
"..          ..",
"..          ..",
"..           .",
"..          ..",
"..         ...",
"..        ....",
"..       .....",
"..      ......",
"..     .......",
"..    ........",
"..   .........",
"..  .........."
};
