/* XPM */
static char *_9453_d12828975e25170ec4527f1de73402c5b67266cd9b972b92e3e00c7d43c7c84b[] = {
/* columns rows colors chars-per-pixel */
"27 55 2 1 ",
"  c black",
". c None",
/* pixels */
"...........................",
"          .................",
"          .................",
"          .................",
"          .................",
"          .................",
"          .................",
"          .................",
"          .................",
"          .................",
"          .................",
"          .................",
"          .................",
"          .................",
"          .................",
"          .................",
"          .................",
"          .................",
"          .................",
"          .................",
"          .................",
"          .................",
"          .................",
"          .................",
"          .................",
"          .................",
"          .................",
"          .................",
"          .................",
"          .................",
"          .................",
"          .................",
"          .................",
"          .....           .",
"          .....           .",
"          .....           .",
"          .....           .",
"          .....           .",
"           ....           .",
"            ...           .",
"             ..           .",
"              .           .",
"                          .",
"                         ..",
"                        ...",
".                      ....",
"..                    .....",
"...                  ......",
"....                .......",
".....              ........",
"......            .........",
".......          ..........",
"........        ...........",
".........      ............",
"..........    ............."
};
