/* XPM */
static char *_0848_25efdc3e15bd974a6405d5111cd97885fd7765de3775877df616ce0a48510ad3[] = {
/* columns rows colors chars-per-pixel */
"34 72 2 1 ",
"  c black",
". c None",
/* pixels */
"..................................",
".        .................        ",
"..        ...............        .",
"..         .............        ..",
"..          ...........         ..",
"..           .........          ..",
"..            .......           ..",
"..             .....            ..",
"..              ...             ..",
"..                              ..",
"..                              ..",
"..                              ..",
"..                              ..",
"..                              ..",
"..                              ..",
"..                              ..",
"..                              ..",
"..                              ..",
"..                              ..",
"..                              ..",
"..                              ..",
"..                              ..",
"..                              ..",
"..                              ..",
"..                              ..",
"..                              ..",
"..                              ..",
"..                              ..",
"..                              ..",
"..                              ..",
"..                              ..",
"..                              ..",
"..                              ..",
"..                              ..",
"..                              ..",
"..                              ..",
"..                              ..",
"..        .                     ..",
"..        .                     ..",
"..        ..          .         ..",
"..        ..          .         ..",
"..        ..         ..         ..",
"..        ..         ..         ..",
"..        ...        ..         ..",
"..        ...       ...         ..",
"..        ...       ...         ..",
"..        ...       ...         ..",
"...       ....     ....         ..",
"....      ....     ....         ..",
".....     ....     ....         ..",
"......    .....   .....         ..",
".......   .....   .....         ..",
"........  ...... ......         ..",
"......... ...... ......         ..",
".......................         ..",
".......................         ..",
".......................         ..",
".......................         ..",
".......................         ..",
".......................         ..",
".......................         ..",
"......................          ..",
".......................         ..",
"........................        ..",
".........................       ..",
"..........................      ..",
"...........................     ..",
"............................    ..",
".............................   ..",
"..............................  ..",
"............................... ..",
".................................."
};
