/* XPM */
static char *_6981_764f2de18336445e8bea4c307d803340195ea01c601b8e3d57cfd8d9e4fdab38[] = {
/* columns rows colors chars-per-pixel */
"27 68 2 1 ",
"  c black",
". c None",
/* pixels */
"...........................",
"....                   ....",
"...                     ...",
"..                       ..",
".                         .",
".                         .",
".                         .",
".                         .",
".                         .",
".                         .",
".         .......         .",
".         .......         .",
".         .......         .",
".         .......         .",
".         .......         .",
".         .......         .",
".         .......         .",
".         .......         .",
".         .......         .",
".         .......         .",
".         .......         .",
".         .......         .",
".         .......         .",
".         .......         .",
".         .......         .",
".         .......         .",
".         .......         .",
".         .......         .",
".         .......         .",
".         .......         .",
".         .......         .",
".         .......         .",
".         .......         .",
".         .......         .",
".         .......         .",
".         .......         .",
".         .......         .",
".         .......         .",
".         .......         .",
".         .......         .",
".         .......         .",
".         .......         .",
".         .......         .",
".         .......         .",
".         .......         .",
".         .......         .",
".         .......         .",
".         .......         .",
".         .......         .",
".         .......         .",
".          ......         .",
".           .....         .",
".            ...          .",
".             .           .",
".                         .",
".                         .",
".                        ..",
"..                      ...",
"...                    ....",
"....                  .....",
".....                ......",
"......              .......",
".......            ........",
"........          .........",
".........        ..........",
"..........      ...........",
"...........    ............",
"..........................."
};
