/* XPM */
static char *_2080_0b860adee5f259e4331ab161ca7c344efb3084f43121f34cfbfda14bda26105c[] = {
/* columns rows colors chars-per-pixel */
"26 51 2 1 ",
"  c black",
". c None",
/* pixels */
"...                    ...",
"..                      ..",
".                        .",
"                          ",
"                          ",
"                          ",
"                          ",
"                          ",
"                          ",
"          .......         ",
"          .......         ",
"          .......         ",
"          .......         ",
"          .......         ",
"          .......         ",
"          .......         ",
"          .......         ",
"          ......          ",
"          .....           ",
"          ....            ",
"          ...             ",
"          ..              ",
"          .               ",
"                         .",
"                        ..",
"                       ...",
"                      ....",
"                     .....",
"                    ......",
"                   .......",
"                  ........",
"                 .........",
"                ..........",
"               ...........",
"              ............",
"             .............",
"            ..............",
"           ...............",
"          ................",
"          ................",
"          ................",
"          ................",
"          ................",
"          ................",
".         ................",
"..        ................",
"...       ................",
"....      ................",
".....     ................",
"......    ................",
".......   ................"
};
