/* XPM */
static char *_557_ab6b7ef95b8732f88eb81174a7a1b0f6528ccb2c436905ed050693a3737abc17[] = {
/* columns rows colors chars-per-pixel */
"52 48 2 1 ",
"  c black",
". c None",
/* pixels */
"................................................... ",
"..................................................  ",
".................................................   ",
"................................................    ",
"...............................................     ",
"...............................................     ",
"..............................................      ",
".............................................       ",
"............................................        ",
"............................................        ",
"..........................................          ",
"                                                    ",
"                                                    ",
"                                                    ",
"                                                    ",
"                                                    ",
"                                                    ",
"                                                    ",
"                                                    ",
"                                                    ",
"                                                    ",
"            ..............................          ",
"            ...............................         ",
"            ...............................         ",
"            ...............................         ",
"            ...............................         ",
"              .............................         ",
"                                                    ",
"                                                    ",
"                                                    ",
"                                                    ",
"                                                    ",
".                                                   ",
"..                                                  ",
"...                                                 ",
".....                                               ",
"......                                              ",
"...........................................         ",
"............................................        ",
".............................................       ",
".............................................       ",
"..............................................      ",
"...............................................     ",
"................................................    ",
"................................................    ",
".................................................   ",
"..................................................  ",
"................................................... "
};
