/* XPM */
static char *_2360_2e4f021b582fadb28346a62e27c19505d6aaa3904e4edcd1ec00aa185f942fde[] = {
/* columns rows colors chars-per-pixel */
"52 48 2 1 ",
"  c black",
". c None",
/* pixels */
" ...................................................",
"  ..................................................",
"   .................................................",
"    ................................................",
"    ................................................",
"     ...............................................",
"      ..............................................",
"       .............................................",
"       .............................................",
"        ............................................",
"         ...........................................",
"                                              ......",
"                                               .....",
"                                                 ...",
"                                                  ..",
"                                                   .",
"                                                    ",
"                                                    ",
"                                                    ",
"                                                    ",
"                                                    ",
"         .............................              ",
"         ...............................            ",
"         ...............................            ",
"         ...............................            ",
"         ...............................            ",
"          ..............................            ",
"                                                    ",
"                                                    ",
"                                                    ",
"                                                    ",
"                                                    ",
"                                                    ",
"                                                    ",
"                                                    ",
"                                                    ",
"                                                    ",
"          ..........................................",
"        ............................................",
"        ............................................",
"       .............................................",
"      ..............................................",
"     ...............................................",
"     ...............................................",
"    ................................................",
"   .................................................",
"  ..................................................",
" ..................................................."
};
