/* XPM */
static char *_4094_691026851c811e385f2e16d1884299aac0ebbb6b98f7dadd8ceacb643081e466[] = {
/* columns rows colors chars-per-pixel */
"26 54 2 1 ",
"  c black",
". c None",
/* pixels */
"...                    ...",
"..                      ..",
".                        .",
"                          ",
"                          ",
"                          ",
"                          ",
"                          ",
"                          ",
"                          ",
"          ......          ",
"          ......          ",
"          ......          ",
"          ......          ",
"          ......          ",
"          ......          ",
"          ......          ",
"          ......          ",
"          ......          ",
"          ......          ",
"          ......          ",
"          ......          ",
"          ......          ",
"          ......          ",
"          ......          ",
"          ......          ",
"          ......          ",
"          ......          ",
"          ......          ",
"          ......          ",
"          ......          ",
"          ......          ",
"          ......          ",
"          ......          ",
"          ......          ",
"          ......          ",
"          .....           ",
"           ...            ",
"                          ",
"                          ",
"                          ",
"                          ",
"                          ",
"                          ",
".                        .",
"..                      ..",
"...                      .",
"....                     .",
".....                    .",
"......                  ..",
".......                ...",
"........              ....",
".........      ..    .....",
"..................  ......"
};
