/* XPM */
static char *_921_14029e5aac81ef9627da863742c0f5132e3be3174e7a0172c2fa72d4d19dcbdc[] = {
/* columns rows colors chars-per-pixel */
"26 52 2 1 ",
"  c black",
". c None",
/* pixels */
"                          ",
"                          ",
"                          ",
"                          ",
"                          ",
"                          ",
"                          ",
"                          ",
"                          ",
"                          ",
"                          ",
"                          ",
".......           ........",
".......           ........",
".......           ........",
".......           ........",
".......           ........",
".......           ........",
".......           ........",
".......           ........",
".......           ........",
".......           ........",
".......           ........",
".......           ........",
".......           ........",
".......           ........",
".......           ........",
".......           ........",
".......           ........",
".......           ........",
".......           ........",
".......           ........",
".......           ........",
".......           ........",
".......           ........",
".......           ........",
".......           ........",
".......           ........",
".......           ........",
".......           ........",
".......           ........",
".......           ........",
".......           ........",
".......          .........",
".......         ..........",
".......        ...........",
".......       ............",
".......      .............",
".......     ..............",
".......    ...............",
".......   ................",
".......  ................."
};
