/* XPM */
static char *_662_ee91eef000153e8ed371f50e1aabb9f6432874d38603e1d03612c08afae25553[] = {
/* columns rows colors chars-per-pixel */
"26 53 2 1 ",
"  c black",
". c None",
/* pixels */
"          ......          ",
"          ......          ",
"          ......          ",
"          ......          ",
"          ......          ",
"          ......          ",
"          ......          ",
"          ......          ",
"          ......          ",
"          ......          ",
"          ......          ",
"          ......          ",
"          ......          ",
"          ......          ",
"          ......          ",
"          ......          ",
"          ......          ",
"          ......          ",
"          ......          ",
"          ......          ",
"          ......          ",
"          ......          ",
"          ......          ",
"          ......          ",
"          ......          ",
"          ......          ",
"          ......          ",
"          ......          ",
"          ......          ",
"          ......          ",
"          ......          ",
"          ......          ",
"          ......          ",
"          ......          ",
"          ......          ",
"          ......          ",
"          ......          ",
"          ......          ",
"           .....          ",
"            ....          ",
"             ...          ",
"              ..          ",
"               .          ",
"                         .",
".                       ..",
"..                     ...",
"...                   ....",
"....                 .....",
".....               ......",
"......             .......",
".......           ........",
"........         .........",
".........       .........."
};
