/* XPM */
static char *d39258e55b24419f9eec4dba4a6ab9de[] = {
/* columns rows colors chars-per-pixel */
"100 102 53 1 ",
"  c None",
". c black",
"X c #070707",
"o c #0B0B0B",
"O c #170F07",
"+ c #1F170B",
"@ c #131313",
"# c #1B1B1B",
"$ c #2F1B0B",
"% c #2B230F",
"& c #232B0F",
"* c #372313",
"= c #332B13",
"- c #3F2F17",
"; c #3F2B1B",
": c #232323",
"> c #2F2F2F",
", c #373737",
"< c gray23",
"1 c #432F1B",
"2 c #43331B",
"3 c #4B371B",
"4 c #533F1F",
"5 c #4F3B23",
"6 c #5F4323",
"7 c #6B4727",
"8 c #774F2B",
"9 c #7F532F",
"0 c #434343",
"q c #4B4B4B",
"w c gray34",
"e c #5B5B5B",
"r c gray39",
"t c gray42",
"y c #777777",
"u c gray50",
"i c #875733",
"p c #8F5F37",
"a c #9B633B",
"s c #A36B3F",
"d c #AB6F43",
"f c #B37347",
"g c #BF7B4B",
"h c #CB7F4F",
"j c #CF8353",
"k c #D78B5B",
"l c #DF9363",
"z c #838383",
"x c #8B8B8B",
"c c #939393",
"v c #9F9F9F",
"b c #A7A7A7",
"n c gray70",
/* pixels */
"                                                           0>                                       ",
"                                                           0<                                       ",
"                                                          <q0                                       ",
"                                                          qq0                                       ",
"                                                     0yzq>0q<                                       ",
"                                                   :,wybu<0q,#:                                     ",
"                                                  ,><etcz,<<::>>                                    ",
"                                                 0<,0qqer<:#oo:<:                                   ",
"                                                 <0<,,qucx0>:##::                                   ",
"                                                ,<0:>qrzuyw<:##,:@                                  ",
"                                                ,,:><0wwtt0<:##:0:                                  ",
"                                                ,:<<<,#@:###@@@#>:@                                 ",
"                                               :,>q0>#><<,q<<<o@::#                                 ",
"                                               ::,0>#0qq<wyr,>,,:@@                                 ",
"                                               #>,:>qww<erzt>:>,,>:@                                ",
"                                               @,#>qww<werxu::>,<<,:#                               ",
"                                               o>#qqq<qweeuv<:>,,<,,>                               ",
"                                               ##,qqq>0qwwenw::>,<,,>:                              ",
"                                              @@@0qq,>0qqwwby::>,,,,,:                              ",
"                                              @o:q<<>><qqqq####>,,,,,>                              ",
"                                              @o>0,0>>,qqq>@@@@##,,,,>#                             ",
"                                             >oX:0<0,>,qqq>@@@@@##,,,>:                             ",
"                                            >q@#>0<<,>>qqq>@XXXX@:,,,,:#                            ",
"                                            0w@#>0<0,>>qqq>@:>>XX:,,,>##                            ",
"                                           >0e@#><00,>>qqqqqtb>:>:,,,>@:                            ",
"                                           *62@#><0q,>>0qqqqen,#:,,,,>@@:                           ",
"                                           6p6@#><0q,>>0qqqqwnq#:>,,,>X@@                           ",
"                                          $8p6@#:,,q,>><qqqqwbr#:>,,,,>X@:                          ",
"                                          6ip6@#:,,q,>><qqqqqxz@:>>,,,,>@@                          ",
"                                          89p6@#:>,q,>>,qqqqq######>,,,,:#                          ",
"                                         16896@#:,,q,>>>qqqq>@@@@@##,,,,>##                         ",
"                                         66361@#:,#q>>>>qqqq>@XXX@@##,,,>:#                         ",
"                                         733p7@#:,<q>>>>0qqq>@XXXXX#:>,,@:#                         ",
"                                         8*6p7@#:,w<>>>><qqq>@X:>>X@:>>,@@:2                        ",
"                                        %1*7p7@#::e,>>>>,qqq>:rx<#:>:>>,@@@:                        ",
"                                      388**7i8@##>w,>>>>>qqqqqwuq##:>>>>XX@@%                       ",
"                                     4asp4*6i8@#:>w,>>>>>qqqqqwtr##::>>>:X@@-%                      ",
"                                     pgfp3*663@#:>w,>>>>>qqqqqqtt:#:::>>>:@@#-                      ",
"                                     fgga3=346@#:>w,,>>>>0qqqqwtt:#:::>>>>::#2                      ",
"                                    iggfa4%-87@#:>w,,>>>>0qqqqwrt,#::::>>>,>#--                     ",
"                                    dggfp3%1i7@##>w,,>>>><qqqqqwtq#:::::>>,>:#*                     ",
"                                   7fggdp3%3i7@#:>q,,,>>>,qqqqqwre##::::>>>>:#%                     ",
"                                   pfgfdi3%587@@#>q,,,>>>>qqqqqq####:::::>>>>:-                     ",
"                                   sfffs82%313@@#:0,,,>>>>0qqq>#@@@@###:::>>>:3=                    ",
"                                  pdffda7;%*66@@#:0,,,>>>>0qqq>@@@@@@@#::::>>:#2%                   ",
"                                 8sffdsi6-%*76@@#:0,,,>>>>0qqq>@XXXX@@##::::>::2*                   ",
"                                 psffda84-%-76@@#:0,,,,>>><qqq>@XXXXXX###::::>:#-                   ",
"                                9sfffsp74=%-66@@#:0,,,,>>><qqq>@X:>::X@#::::@@:#-                   ",
"                               8sgfdds963*%-66@@#:0<,,,>>>,qqq>@>0q>>>>@#:::@@@#*%                  ",
"                              4sfgfddp862*$-36@@#:<<,,,>>>>qwq000qq,:#####::X@@@#%                  ",
"                              7fghfsai742%$**3%@#:,<,,,>>>>qwq0000q<:#####:::>X@:=                  ",
"                              igggfsp863=%++$1%@>::<<,,,>>>qeq00000<>:#####:::>X@#*                 ",
"                              shgfdai763=%++-5;@,::<<,,,>>>qeq00000<>:######:::>@#-                 ",
"                             4dhhfdai632*$O2632@,::<<,,,>>>0eqq00000>:#:#####:::>@-*                ",
"                             6fjjgda842-%$+-232@,::<<,,,>>>0wqq00000,>#::####::::>#%                ",
"                             8gjjgda742-%$+=231@:::<<<,,>>><eqq00000<>::::####::::#*                ",
"                             ighhgfp763-%+%=23-@:#:<<<,,>>>,ewq00000<,:#::####:::::2%               ",
"                            4shhgfdp863-%++=**$@:#:<<<,,,>><wqq00000<<>#:::####::::#-               ",
"                            6dhgdap97632=++*%3-@:#:<<<<,,>>>wwq0000>######::####:::#3               ",
"                            8fhfsap86432-%+%-6-@:#:<<<<,,>>>qeq00>##@@@@@@#::###:::##               ",
"                            ifhfdssa963--%+$36-@:#:<<<<,,>>>0r00>###@@@@#@#:::###:::#               ",
"                            aghfdssaa962-%++34-@:#:<<<<<,>>><r00>#@@@XXXX#@#:::#@@::#               ",
"                            aggfdsaap973-%++-3-@:#:<<<<<,,>>,tq0>#@XXXXXX#@##:::@@@@@:              ",
"                            agggfsaap8652*$+-21@:>:<<<<<,,>>>yq00#@X>0e0>>>#::::#oo@@@              ",
"                           8sgfffsapi7764=%$1;-@:>:<<<<<,,>>>tq00>>000tq#::::::::XXX@@:             ",
"                           pdffffsp987664=$%%%*@:>:<<<<<,,>>>rq0000000ry#::::::::#XXX@@             ",
"                          7afffdssp877643=$%+43@:>:<<<<<<,>>>eq00000000n<::::::::::>X@@             ",
"                          isffdsapp977663-%+$63@:>:<<<<<<,,>>wq00000000cr::::::::::#:>>X            ",
"                          adddsapi9987643-%+%63@:>:<<<<<<,,>>qw00000000yu#::::::::::#::>            ",
"                         8dddsaapi9887652-%+*53@:>:<<<<<<,,>>0e<000000<er>:::::::::::::##           ",
"                         pgdssaapi8887642-*+*54@:>:<<<<<<<,>><r<000000qqq0qq0<,>:::::::##           ",
"                        7sgfdssapi9887642-*+-33@:>:<<<<<<<,>:,t<0000qq,@@@o@:><qq0<,>:::#           ",
"                        iffffdsapi98866432*+-32@:>:<<<<<<<,,>>y,00qq>ooooooooooo@:,<<<<,:#          ",
"                       7sfffffsapi99764442=$-32@:>:<<<<<<<,,>>t0qq,ooooXooXXXXXXXooo@##>,>          ",
"                       adspadfdsapi8766432=%-23@:,:<<<<<<<<,><wq>@oooooXXXXXXXXXXXXXXoo@::          ",
"                      pap8658adsapi876644-=%=23@:,:<<<<<<<<,,q>@oo@@ooo@@@@@@@@XXXXXXXXo@##         ",
"                     7p963--37paapi876643-*$*22@#,:<<<<<<<<,q:oo@@@oo@@@@@@@@@@@@@@@XXXXX@#         ",
"                    4896662=-369ii9866443-%$%12@#,#,<<<<<<<0,o@@@@@o@@@##<<0<>>@@@@@@@XXX@##        ",
"                   47pssssp6--26887764333-%$+-2-#,#,<<<<<<0<o@@@@oo@@#>><wtq,>::::>>>@@XX@@#        ",
"                   6iadfffds9433676663222=$$+*;-#,#,<<<<<<qo@@@@o@#><<0<qryr>::::::::::>>:##        ",
"                   9i8899ppsdp633336643--%$++&%$#,@><<<<<q#@@@@o@#>00000weut>::::::::::::<>::       ",
"                 4786666689paap864223544-%$++::%#,#><<<<q>o@@@o#><000000qwyz>:::::::::::::<,,       ",
"               469pppapi99889ipp974-=-343*$$%>:%#,:>,<<0<o@@@#>q000000000qec,::::::::::::#>,,:      ",
"              47isfggggfsaa97669p974-=-34-%$%>>:#<#:,<0qo@@@#><e00000000qq0b,::::::::::::##:>:      ",
"             37ip97789passapp8656986-==-43%$+>>=@<#:><q#@@@#>>><q00000qqqq0b<::::::::::::###::      ",
"             6775*79as9656689i8522674-==24=$$:>:@<#:><>o@@#>,>>,e0000qqqwwqct>:::::::::::###::#     ",
"            462-8asfkkhffai866662--473=%%22%$:>:@<#:::o@@#>,<,#>e000qqqwwwqyx>:::::::::::##@#::     ",
"            637adfhjlllkkkhgfsi6--==26-*%=3*$#>:@<#:#@@@#>><<,#>tq0qqqwwwwwrx,:::::::::::##@@::#    ",
"            48afggjkllkkjjhggffa762*=23=%%2-$$::@,#:#@oo::><<,>:rw0qqqwwewwec,::::::::::###@@::#    ",
"            7afghjklllkkjjhhffgfa744%=-3*%=-%$%+@,##@@oo#:><<,>:ee0qqwweweeev,::::::::::##@@@:::    ",
"           6pdghjklllkkjjjhgggggfp632%=3-%%=%$$#@,@#@ooX##><<,>:qrqqwwweeerrv,:::::::::###@@@:>:    ",
"          7pfghkklllkkjjjhggfgggfs8522%-3*%%%$#:#>@@oo.Xo#><<,>#,rqwwweeerrrxw>::::::::###@@@:>:#   ",
"         7pdghjkllkkkkjjhhgggghhhfi6222*--%%%#>,#@@oo....#>,<,>::rwwweeerrrrry,:::::::###@@@@#::#   ",
"        8psgjklllkkkjjjhhhggghhjhs956553*-=%#>0ww<###@@..#>,<,>:#rwweeerrrtrey<:#::::###@@@@@#:::   ",
"       8psgjkllllkkkjjjhhgghhhjhgp647894==-#>0eeee>:::#@.#:,<,>::rweeerrrttrwy<:#::::###@@@@@#:::   ",
"      7psgjkkllllkkkkjhhgfghhjjhs8479993=*-@0weeew<>####@#:><,>:#reeerrrrttret<:##::###@@@@@@#:::#  ",
"     7psgjklllllkkkjjhhggfghjjhfa869ii72%%,>:wewqqq<#@@@@#:>,,>:#werrrrttttret<:##:###@@@@@@@#:>:#  ",
"    6psfjklllllkkjjjhhggfghhjjfap9iii84-%>q0o,wq0<0,:@oX.::>,,>:#qrtrrttq00>qe<:######@@@@@@@@:>:#  ",
"   7psfhkllllllkjjhhhggffghjjhsaiippi62*>qwq>@<<<,,>:#ooo::>,>>:#0rtttt0>:::::>:#####@@@@@@@@@:>:#  ",
"  7psfgjllllllkjjhhhggfffhjkhfapiaai73-@#:q0>o:,,>>>:#oo:#:>,>>:#,rtttt>::>>>::>#####@@@@@@@@@#::#  ",
" spsfgjllllllllkjhhggfffgjjjgspipsp852=X@#>:#@#>>>:#:#oo:#:>,>>::>etttt>::q0q>:>####@@@@@@@@@@#::#> ",
"gsdfhhklllllllljhhjhggfgjjjgfaapdsi73-*Xo#:#@@@::###:#o:#::>>>>::>wtttt#>:r>0>::###@@@@@@@@@@@#::##>"
};
