/* XPM */
static char *_02aae0647b0461be3d0f389a260c3e9[] = {
/* columns rows colors chars-per-pixel */
"91 119 55 1 ",
"  c None",
". c #070707",
"X c #0B0B0B",
"o c #170F07",
"O c #1F170B",
"+ c #131313",
"@ c #1B1B1B",
"# c #2F1B0B",
"$ c #2B230F",
"% c #232B0F",
"& c #372313",
"* c #332B13",
"= c #3F2F17",
"- c #3F2B1B",
"; c #232323",
": c #2F2F2F",
"> c #373737",
", c gray23",
"< c #432F1B",
"1 c #43331B",
"2 c #4B371B",
"3 c #533F1F",
"4 c #473323",
"5 c #4F3B23",
"6 c #5F4323",
"7 c #6B4727",
"8 c #774F2B",
"9 c #7F532F",
"0 c #434343",
"q c #4B4B4B",
"w c gray34",
"e c #5B5B5B",
"r c gray39",
"t c gray42",
"y c #777777",
"u c gray50",
"i c #875733",
"p c #8F5F37",
"a c #9B633B",
"s c #A36B3F",
"d c #AB6F43",
"f c #B37347",
"g c #BF7B4B",
"h c #CB7F4F",
"j c #CF8353",
"k c #D78B5B",
"l c #838383",
"z c #8B8B8B",
"x c #939393",
"c c #9F9F9F",
"v c #A7A7A7",
"b c gray67",
"n c gray70",
"m c gray75",
"M c gray78",
/* pixels */
"                                              +@+++++                                      ",
"                                          +@:>;;@+++@@++                                   ",
"                                        ++@:>0>:;+++@;@++                                  ",
"                                       @@;:>,q>:;+++@;;+++  @;:@                           ",
"                                      >:;;:>>q>:;@+++;;@++@::>>>                           ",
"                                     ;,>;;:>>q,:;@+++@;@++@>>>>:+                          ",
"                                     :,>;;:>>q,>;@+++@;@++@:>>:@+                          ",
"                                     ;,>;;:>,0,>;@+++@;;+++:>:@+                           ",
"                                     ;,>;;::::;@@+XXXX+@+++;;@                             ",
"                                    +;,,:@@@:>,>:;@+++@+XX+++                              ",
"                                    +@,,@+;:,00>:;@+++@;@XX+                               ",
"                      00,,,,,,      +@:@+;::,,q>:@+XX.+X+++X                               ",
"                    ,,uteq00,,,,,   ++;;:;;::@+XXX++@;;@+XXXX@                             ",
"                   ,0emxywqq0>:>,,   X+>>;:@;>@+@;;;;;:>>:;+XX                             ",
"                  ,0qtmcywqqq,;;:,,  +:0>;@+0e,+@@;;:::>>>:@>:                             ",
"                 ,0qqtmvyw0qq,;;;>0  +;0>;+,0w0++@;;;::::>:;>;:                            ",
"                ,0wqqtnnyw0qq,;;;:0;@+@,>o>00qq++@;;:::::>:;:@>                            ",
"                ,wrwqtvmyeqqq,;;;0q:;++;+;000qe++@;;;;:::::;:;;                            ",
"                ,wrwqrxcrq>>>>;;@00>;++X+>000qt++@@;;;;:::::;:@>                           ",
"                >0rw,,euewqqq>;@,q>>;+X.+:0000y+++@;;;;;::::;:+:                           ",
"                 0e,,evmutwweq,:,e,>;+++@:0000t;++@;;;;:::::;>+@                           ",
"                 >qrerxnyr0qq,:;:r>>:@+++:0000t:++@@;;;;:::::>@+>                          ",
"                 :trqezmytqqq,:;@t>>:@+++:,000r0+++@;;;;;;::::@+;                          ",
"                 ,eeqwzMltwqq0:;;t,,:@+++:,000eq+++>0qqqqq00>>>>:;                         ",
"                 0weqezMlteqq0>;;e0,:@+++:,000ee@+>y>:::;;;;;::>:;                         ",
"                 0weqwlMztwqwq,:;wq,>@+++;>000wr@+>y,:::;;;;;::>::+                        ",
"                 ,qeqqlMxtw0qq,:;0w,>@+++;>000qt@+:t0::::;;;;::>>:+                        ",
"                 ,0eqqlmxyw0qq,:;>e,>@+++@:0000y;+;rw::::;;;;::>>:@@                       ",
"                 >0eqquncywqqq,:;;r,>;@++@:0000y>+;we::::;;;;;:>>:@+                       ",
"                 >0eqqybcywqqq,:;;t,,;@+++:0000t0+@qr::::;;;;;:>>::+                       ",
"                 >0eqqyvvyeqqq,:;;t0,;@+++:0000rq@@0t:::;;;;;;:>>::@                       ",
"                 :0eqqtcvyeqqw,:;;eq,;@+++:,000ew@@,y:::;;;;;;:>>>:@@                      ",
"                  0ewqtxvyeqqq,:;;qw,>@+++:>,00wr@@>y:::;;;;;;:>>>:@+                      ",
"                   qwqtzcurwqw0:;;,e,>;@++;>,00qr;@:t>::;;;;;;:>>>:;+                      ",
"                   qwqtzxyewqw0>:;:r,>;@++@:,,0qt:@:r0:::;;;;;;:>>>:;                      ",
"                   qeqtlzteqqq0>;;;t,>;@++@:,,0qr;@;eq:::;;;;;;::;;;:                      ",
"                   0eqruzye00q0>;;;t,>;@+++:,,,0r:@;qe:::;;;;;;:;;;;>                      ",
"                   0eqetlte0,00>;;;r0,:@+++:>,,0r:@@0t::::;;;;;:>...:                      ",
"                   0wweryrw,,00>:;;q0,:@+++:>>,0r:@+,y::::;;;;;:>...:                      ",
"                   0qqwerwq>>>,>;;;r,,:@+++::>,0e>;@,y>:::;;;;;:>...;                      ",
"                   ,00qqq0,::>>:;;;;>,>@+++;:>>,w0;@>r,:::;;;;;;::::::;                    ",
"                   ,>00,,,>>>ttrq>@@>,>;@++;::>,qq:;@w,:::;;;;;;:>>:;;+                    ",
"                   ,:0>,rwq0,qq,:;++:>>;@++;::>,qq:;@,>:::;;;;;;:>>::;@                    ",
"                    >tewq,>>>qq,:;++:>>:@++@:::>0q:;:>::::;;;;;;:>>::;@+                   ",
"                   re0wq0,>>>0q,:;++:>>:;+++:::>,q>;,:::::;;;;;;:>>::;@+                   ",
"                  ;,,,qq0,>>>0q,:;++:>>:;@++:::>,0;q;:::::;;;;;;:>>::;@@                   ",
"                  ;:>,qq0,>>>0q,:;++:>>:;@++::::>,:,;:::::;;;;;;;:>::;@@                   ",
"                  ;:>,qq0,>>>00,:;++:>>:;@++:::::;r>;:::::;;;;;;;:>::;@@+                  ",
"                  ;:>,qq0,>>>00,:;++::>:;@++;::::>r,;:::::;;;;;;;:>>:;@@+                  ",
"                  ;:>,qq0,>>>00,:;++::>>:@++;::>;0rq;:::::;;;;;;;:>>:;@@@                  ",
"                  ;:>,qq0,>>>00,:;;++:>>:@++@::::,ew;:::::;;;;;;;:>>:;@@@                  ",
"                  ;:>,qq0,>>>00,:;;++:>>:;@+@::+;>we;:::::;;;;;;;;:>:;@+@+                 ",
"                  ;:>,qq0,>>>00>::;++:>>:;@++::+;>wr;:::::;;;;;;;;:>:;@@++                 ",
"                  ;:>,qq0,>>>00>::;++:>>:;@++:::;:qy;;:::;;;;;;;;;:>:;@@+@                 ",
"                  ;:>,qq0,>>>00>::;++:>>:;@++:::;:0y;;:::;;;;;;;;;:>:;;;@@                 ",
"                  ;:>,qq0,>>>,0>::;++:>>:;@++;::;:,u;;:::;;;;;;;;;:>:@@@;;                 ",
"                  ;::,qq0,>:>,,>::;++:>>:;@++;::;:>l;;:::;;;;;;;;;:>:@@@@;                 ",
"                  ;::,qq0,>:>,,>::;++:>>:;@++;;:@;>l;;:::;;;;;;;;;;::...@;                 ",
"                  ;::,0q0,>:>,,>::;++:>>:;@++@;:@;>u:;;::;;;;;;;;;;::...@@                 ",
"                  ;::,0q0,>:>,,$$**=232&;;@++@;:+;:y,;;::;;;;;;;;;;::;..@@                 ",
"                   ;:,0q0,>*12677888882$:;@@+@::+@:tq:;::;;;;;;;;;;:::..@@                 ",
"                   ;:,0q112678999999892$::@@++:::@:re:;::;;;;;;;;;;:::..@@                 ",
"                   ;:1126778899iiiii885$:>;@++:::@:er;;::;;;;;;;;;;:::::::;;               ",
"                   2356688889999iii9986$:>:$++;::@:wr;;::;;;;;;;;;;;::;@+++@+              ",
"                 2266678888888899ii9776$;>:$++;;:@;qt;;::;;;;;;;;;;;::;@++++@              ",
"               223667788888767889ip9777O;>:%++;;:@;0y;;::;;;;;;;;;;;:;;@++++@              ",
"              2257777888876525789ip9877O@,:;++@;:@;,u;;::;;;;;;;;;;;::;@++++@              ",
"             22378878888727862679ppi868O@,>;O+@;;+@>l;;;:;;;;;;;;;;;::;@++++@+             ",
"             32589878888<8p886=38ppi768#+4>;O+@;;+@:l:;;:;;;;;;;;;;;::;@@++++@             ",
"             126888788876aap86=O6ppi868#O>>:O++:;:+:u,;;:;;;;;;;;;;;;:;@@++++@             ",
"            $12589878887issa85=O58862=3OX:>:$++:;:+:y0;;:;;;;;;;;;;;;:;@@++++@             ",
"            $12598778887adda851O#266669&o@;:%++:;:+:tw:;:;;;;;;;;;;;;:;@@++++@@            ",
"            $12588778886ddda852OO8ppi78=o-:;+++;;:+;rw:;:;;;;;;;;;;;;:;@@+++++@            ",
"            $12589778879fdda852#O29i8672O:>>$++;;:+;ee:;:;;;;;;;;;;;;:;@@+++++;            ",
"            $-2589776<<afdsa752$O17i9675O;>>;++@;:+;qr:;:;;;;;;;;;;;;;:@@+++++@+           ",
"            $-25872<376dfdsp622$O&598676O$>>;$+@;;+;0t:;:;;;;;;;;;;;;;:@@+++++@@           ",
"            $=222266879ssssi622$O$288667OO:>:$+@;;+;,y:;:;;;;;;;;;;;;;:;@++++++@           ",
"            $*=&688782passa8522$OO188667OO:>:%++:;:;>u:;;;;;;;;;;;;;;;:;@++++++;           ",
"            $O&3887776aaasp8321&OO-78768OO:>:$++:;:@:l:;;;;;;;;;;;;;;;:;@++++++@+          ",
"            o$25897719aaasp8611$OO=68769#+:>:;++;;:@:l>;;@;;;;;;;;;;;;:;@++++++@@          ",
"           5$&1589763paaaap861=$OO<68869$+:>:;++;;:@;u>;;@@;;;;;;;;;;;;:@+++++++@          ",
"          57$$-589776ppaaai73<=$OO168868&O;>:;++;;:@;y,;;@@@;;;;;;;;;;;:@++@;;@@+          ",
"          8i$$=589779paaaa962<=$OO-68868=o;>:;++@;:@;rw:;@@@@;;;;;;;;;;:;++@;;@@@+         ",
"         7ai$$=58972iaaaap731=&$O#=37622<o$>:*O+@;;+@ee:;@@@@;;;;;;;;;;:;++@::;@@+         ",
"         9s7$$=58977asaaa9621=&#OO#&22256=O$:*O+@;;+@we:;@@@@@;;;;;;;;;:;@+@+++;@+         ",
"        6ad6&$*2792psaaaa8621=$OOO39ii876=;*@@O++:;:@we:;@@@@@@;;;;;;;;:;@+@...;@+         ",
"        9fd5$$&2727sssaaa832==$OO$1377666O@:>;+++:@:@qr:;@@@@@@;;;;;;;;;:@+@...:@@         ",
"       7sfa2$$&167sfddsap731==#OO$=267666OO:>;O++:@:@,e>;@@@@@@@;;;;;;;;:@+@....;@         ",
"       pffa<$$$128fggfsai631=*OOO$=267657OO:>;O++;@:@>w,;@@@@@@@@;;;;;;;:;+@....;@         ",
"       agfp=$$$17sggggsp8621=&OOO$=267657OO;>*O++;@:@;w0;@@@@@@@@@;;;;;;:;+@:...@@         ",
"      8dfsi1&$$7sgggggsi6621=$OOO$=237656$+;>:$++;;:@@q0;@@@@@@@@@;;;;;;:;+@@:;;;::        ",
"      pffsi32$28ggggggs96321=$OOO$=237636$O@>:$O+@;;+@q0;@@@@@@@@@@;;;;;;:@@@;@+++;@       ",
"     6sfdai6228sggggggs9632==#OOO$-226636$O$::$O+@;;+@q0;@@@@@@@@@@;;;;;;:@+@;@++++;       ",
"     9dfsa9667sgggghgfs9632=&OO#O$=226636*O$::%O++:@:@q0;@@@@@@@@@@@;;;;;:;+@;@++++;       ",
"     pffsp9667ggggghgfsi761=&OO$O$=126636=O+::%O++:@:@00;@@@@@@@@@@@;;;;;:;+@;@@+++;@      ",
"    6sfdap867sfghjhhgfs9751=$OO$O$=1266351OO;:;O++:@:@>q:@@@@@@@@@@@;;;;;:;++;;@+++@@      ",
"    7dfdap767agjjjjgfsa972=&OO#$O$=1266351OO$&;O++;@:@;0:;@@@@@@@@@@@;;;;:;@+;;@++++;      ",
"   6affsai669fgjkjhfda9861=&OO#$O$*====&&&$Oo$;O++;@;@@0>;@@@@@@@@@@@@;;;;:@+@;@++++;      ",
"   7sffda967sfgjkkgfa98761=*#O#$OOO&=12235=&OO+O++;@;+@0>;@@@@@@@@@@@@;;;;:@+@;@@+++;@     ",
"   7dfffa86pffhhkkgai8763==*OO#$O#16323323$OO$$+O+@;;+@0>;@@@@@@@@@@@@;;;;:;+@;@@+++@;     ",
"   8fffdp7idfghhhgsp86522==&OO#O&==1123322$oO%;$o+@;;+@,>;@@@@@@@@@@@@;;;;:;+@;;@@+++;     ",
"   9dffdi9sdfggggsai862*==*$OOOO$$=1226321$+O$;$O++;;:@>,;@@@@@@@@@@@@@;;;:;+@;;;@+++;     ",
"  2pfffsipddffffdapi873=***OOOOO$$*1123221$OO$;$O++:@:@:,;@@@@@@@@@@@@@;;;:;@+@;;@+++;@    ",
"  3afffspaddddssspp9762==*&#OOOO$$*<123222*OO$$@O++:@:@;,:;@@@@@@@@@@@@;;;;:@+@;;;@++@;    ",
"  3afffaasssdsaapii76321==*&OOOO$$*-123222=OO$$$O++;@;@@,:;@@@@@@@@@@@@;;;;:;+@;;::;@+;    ",
"  6affdaassaaaapii988761===*OOOO$$*=1232131O+$$$O++;@;@@>:;@@@@@@@@@@@@;;;;:;+@;;;+++@@    ",
" 28sffdsasaapppi999987621==&OO$O$$&=1232131$oOO+O++;@;++>:;@@@@@@@@@@@@@;;;:;+@;;@++++@    ",
" 39sffdsssappppi9998886211=&OO$O$$&=1222122$oOOOOO+@;@++::;@@@@@@@@@@@@@;;;:;@@@;...++@    ",
" 3iddddsssapppi98888876311=&OO$O$$&11122122$oOOOOO+@;@++;>;;@@@@@@@@@@@@;;;:;@+@;...++@    ",
" 6idddssaaapppi98888876311=&OO$O%$$=1122122$++OOOO+@;@@+:>;;@@@@@@@@@@@@;;;;:;+@;....+++   ",
" 6iddddsaaappi99888886321==&OO$#O$$=-122122$OoOO$O++:@;+::>;@@@@@@@@@@@@;;;;:;+@;;...+++   ",
" 6issdsssapppi99998876321==&#O$#O$$*=122112$OoOO$O++:@;++@;>;@@@@@@@@@@@@;;;:;+@;;...+++   ",
" 6iadssssapppi998888663111=&#O$#O$$$&&&&$$&OOoX+@O++;@@++++@:;@@@@@@@@@@@;;;;;@@;;@@;:++   ",
" 6iassssaappii98988765321<=&#O$#OOOO&<22222&OOOO+o++;@@++@@@@:;@@@@@@@@@@;;;;;@+;;;;@@;:   ",
" 7iasaasaappii988887633211=&OO$OOO=16333113&OOOOOO++;@@@+@@@@@:;@@@@@@@@@@;;;;;+@;;;@@@@;@ ",
" 8iaaaaaaapppi988876663221=&OO$OO&====111=3&#oOO$$O+@;@>;@@@@+@:;@@@@@@@@@;;;;;+@;;;;@@@@; ",
"28iaaaaaaapppi988876663211=&OO$OO$$**=111=3*$oO$;;O+@;@;>;@@@@+@:@@@@@@@@@;;;;;+@;;;;@@@@;+",
"38ipaaaaappppi98887663221=&$O##OO$$*==111=2*$oO$;;O+@;@;;>;@@+++@:;@@@@@@@;;;;;@@;;;;@@@@;@",
"68ipppaaapppii9987665322<=&#O##OO$$*==111=2=$+O$;;O++:@;;;>;@++++@:@@@@@@;;;;;;+@;;;;@@@+;@"
};
