/* XPM */
static char *_3143_2142fda7554a82fb2204e11d77772df9927397a4585291b9f27db296454008d1[] = {
/* columns rows colors chars-per-pixel */
"78 94 130 2 ",
"   c #0B0B0B",
".  c #170F07",
"X  c #0B1707",
"o  c #1F170B",
"O  c #131313",
"+  c #1B1B1B",
"@  c #2F1B0B",
"#  c #2B230F",
"$  c #372313",
"%  c #332B13",
"&  c #3F2F17",
"*  c #3F2B1B",
"=  c #232323",
"-  c #272727",
";  c #2F2F2F",
":  c #373737",
">  c gray23",
",  c #530707",
"<  c #5B0707",
"1  c #670000",
"2  c #6B0F0F",
"3  c #731313",
"4  c #771717",
"5  c #7F1B1B",
"6  c #432F1B",
"7  c #43331B",
"8  c #4B371B",
"9  c #533F1F",
"0  c #732B00",
"q  c #473323",
"w  c #4F3B23",
"e  c #4F3B2B",
"r  c #533F2F",
"t  c #5F4323",
"y  c #5B472B",
"u  c #574333",
"i  c #5F4B37",
"p  c #6B4727",
"a  c #774F2B",
"s  c #7F532F",
"d  c #67533F",
"f  c #775F3F",
"g  c #434343",
"h  c #4B4B4B",
"j  c gray31",
"k  c gray34",
"l  c #5B5B5B",
"z  c #6F5743",
"x  c #775F4B",
"c  c #7B634F",
"v  c gray39",
"b  c gray42",
"n  c #777777",
"m  c gray50",
"M  c #8B0000",
"N  c #831F1F",
"B  c #872300",
"V  c #932F00",
"C  c #9F3700",
"Z  c #A73F00",
"A  c #8B2323",
"S  c #8F2B2B",
"D  c #9B3333",
"F  c #A33B3B",
"G  c #A73F3F",
"H  c #9B5B13",
"J  c #AF4300",
"K  c #B74700",
"L  c #AF7B1F",
"P  c #875733",
"I  c #8F5F37",
"U  c #9B633B",
"Y  c #A36B3F",
"T  c #CB5707",
"R  c #D75F0B",
"E  c #DF670F",
"W  c #F37317",
"Q  c #B34F4F",
"!  c #836B4B",
"~  c #836B57",
"^  c #8F7753",
"/  c #8B735B",
"(  c #AB6F43",
")  c #B37347",
"_  c #BF7B4B",
"`  c #937B63",
"'  c #9B7F6B",
"]  c #A76B6B",
"[  c #CB7F4F",
"{  c #CB6B6B",
"}  c #DB7B7B",
"|  c #FF8F3B",
" . c #9F8363",
".. c #A78F77",
"X. c #AF977F",
"o. c #CF8353",
"O. c #D78B5B",
"+. c #FF9F43",
"@. c #FFA35B",
"#. c #DF9363",
"$. c #E79B6B",
"%. c #EFA373",
"&. c #F7AB7B",
"*. c #FFB37B",
"=. c #838383",
"-. c #939393",
";. c #B79F87",
":. c #BFA78F",
">. c #A7A7A7",
",. c gray67",
"<. c #B7B7B7",
"1. c gray75",
"2. c #DF8787",
"3. c #FFB383",
"4. c #FFBB93",
"5. c #F3A3A3",
"6. c #F7ABAB",
"7. c #FFC79B",
"8. c #FFC7A7",
"9. c #FFCFB3",
"0. c #FFD3BB",
"q. c #FFFFB3",
"w. c gray78",
"e. c #CBCBCB",
"r. c LightGray",
"t. c #FFDBC7",
"y. c #FFE3D3",
"u. c #FFEBDB",
"i. c #FFFFD7",
"p. c None",
/* pixels */
"p.p.p.p.p.p.p.p.p.p.p.p.p.p.p.p.p.p.p.p.p.p.p.p.p.p.p.p.p.p.p.p.p.p.p.p.p.p.p.p.p.p.p.p.p.M M p.p.p.p.p.p.p.p.p.p.p.p.p.p.p.p.p.p.p.p.p.p.p.p.p.p.p.p.p.p.p.",
"p.p.p.p.p.p.p.p.p.p.p.p.p.p.p.p.p.p.p.p.p.p.p.p.p.p.p.p.p.p.p.p.p.p.p.p.p.p.p.p.p.p.p.1 M V V M 1 p.p.p.p.p.p.p.p.p.p.p.p.p.p.p.p.p.p.p.p.p.p.p.p.p.p.p.p.p.",
"p.p.p.p.p.p.p.p.p.p.p.p.p.p.p.p.p.p.p.p.p.p.p.p.p.p.p.p.p.p.p.p.p.p.p.p.p.p.p.p.p.1 1 M V K K V M 1 1 p.p.p.p.p.p.p.p.p.p.p.p.p.p.p.p.p.p.p.p.p.p.p.p.p.p.p.",
"p.p.p.p.p.p.p.p.p.p.p.p.p.p.p.p.p.p.p.p.p.p.p.p.p.p.p.p.p.p.p.p.p.p.p.p.p.p.p.p.1 M M V Z K K Z V M M 1 p.p.p.p.p.p.p.p.p.p.p.p.p.p.p.p.p.p.p.p.p.p.p.p.p.p.",
"p.p.p.p.p.p.p.p.p.p.p.p.p.p.p.p.p.p.p.p.p.p.p.p.p.p.p.p.p.p.p.p.p.p.p.p.p.p.1 1 1 V V C J K K J C V V 1 1 1 p.p.p.p.p.p.p.p.p.p.p.p.p.p.p.p.p.p.p.p.p.p.p.p.",
"p.p.p.p.p.p.p.p.p.p.p.p.p.p.p.p.p.p.p.p.p.p.p.p.p.p.p.p.p.p.p.p.p.p.p.p.p.1 1 V V C J K T | | T K J C V V 1 1 p.p.p.p.p.p.p.p.p.p.p.p.p.p.p.p.p.p.p.p.p.p.p.",
"p.p.p.p.p.p.p.p.p.p.p.p.p.p.p.p.p.p.p.p.p.p.p.p.p.p.p.p.p.p.p.p.p.p.1 1 M M B V Z J T E | | | | E T J Z V B M M 1 1 p.p.p.p.p.p.p.p.p.p.p.p.p.p.p.p.p.p.p.p.",
"p.p.p.p.p.p.p.p.p.p.p.p.p.p.p.p.p.p.p.p.p.p.p.p.p.p.p.p.p.p.p.p.1 M M M B B V Z T T o.@.9.0.0.9.@.o.T T Z V B B M M M 1 p.p.p.p.p.p.p.p.p.p.p.p.p.p.p.p.p.p.",
"p.p.p.p.p.p.p.p.p.p.p.p.p.p.p.p.p.p.p.p.p.p.p.p.p.p.p.p.p.p.1 1 M M V V V V Z L O.$.&.9.0.i.i.0.9.&.$.O.L Z V V V V M M 1 1 p.p.p.p.p.p.p.p.p.p.p.p.p.p.p.p.",
"p.p.p.p.p.p.p.p.p.p.p.p.p.p.p.p.p.p.p.p.p.p.p.p.p.p.p.p.1 M M M V V C C C Z T [ $.&.8.0.i.i.i.i.0.8.&.$.[ T Z C C C V V M M M 1 p.p.p.p.p.p.p.p.p.p.p.p.p.p.",
"p.p.p.p.p.p.p.p.p.p.p.p.p.p.p.p.p.p.p.p.p.p.p.p.p.p.p.p.M M B B V Z C Z Z T E O.&.7.0.i.i.i.i.i.i.0.7.&.O.E T Z Z C Z V B B M M p.p.p.p.p.p.p.p.p.p.p.p.p.p.",
"p.p.p.p.p.p.p.p.p.p.p.p.p.p.p.p.p.p.p.p.p.p.p.p.p.p.p.1 M V C Z Z K J J T O.o.$.3.7.0.i.i.i.i.i.i.0.7.3.$.o.O.T J J K Z Z C V M 1 p.p.p.p.p.p.p.p.p.p.p.p.p.",
"p.p.p.p.p.p.p.p.p.p.p.p.p.p.p.p.p.p.p.p.p.p.p.p.p.p.p.1 N V C J K T K T R +.3.7.0.t.i.i.i.i.i.i.i.i.t.0.7.3.+.R T K T K J C V N 1 p.p.p.p.p.p.p.p.p.p.p.p.p.",
"p.p.p.p.p.p.p.p.p.p.p.p.p.p.p.p.p.p.p.p.p.p.p.p.p.1 M M B C Z K K T R R E %.8.0.i.i.i.i.i.i.i.i.i.i.i.i.0.8.%.E R R T K K Z C B M M 1 p.p.p.p.p.p.p.p.p.p.p.",
"p.p.p.p.p.p.p.p.p.p.p.p.p.p.p.p.p.p.p.p.p.p.p.p.1 M M B V K K K T E W | @.3.8.t.i.i.i.i.i.i.i.i.i.i.i.i.t.8.3.@.| W E T K K K V B M M 1 p.p.p.p.p.p.p.p.p.p.",
"p.p.p.p.p.p.p.p.p.p.p.p.p.p.p.p.p.p.p.p.p.p.p.p.M M V C Z T L R E W | @.&.4.0.i.i.i.i.i.i.i.i.i.i.i.i.i.i.0.4.&.@.| W E R L T Z C V M M p.p.p.p.p.p.p.p.p.p.",
"p.p.p.p.p.p.p.p.p.p.p.p.p.p.p.p.p.p.p.p.p.p.p.1 M V V C C K E | [ | $.*.4.8.t.u.i.i.i.i.i.i.i.i.i.i.i.i.u.t.8.4.*.$.| [ | E K C C V V M 1 p.p.p.p.p.p.p.p.p.",
"p.p.p.p.p.p.p.p.p.p.p.p.p.p.p.p.p.p.p.p.p.p.p.M M B C Z C K E #.@.@.3.4.9.t.i.i.i.i.i.i.i... .i.i.i.i.i.i.i.t.9.4.3.@.@.#.E K C Z C B M M p.p.p.p.p.p.p.p.p.",
"p.p.p.p.p.p.p.p.p.p.p.p.p.p.p.p.p.p.p.p.p.p.M 1 B V V C Z K E +.@.8.9.t.y.i.i.i.i.i.i.i.i.:.( i.i.i.i.i.i.i.i.y.t.9.8.@.+.E K Z C V V B 1 M p.p.p.p.p.p.p.p.",
"p.p.p.p.p.p.p.p.p.p.p.p.p.p.p.p.p.p.p.p.p.p.1 M B V C C Z T [ @.8.0.i.i.u.u.y.i.i.i.i.i.i.;.( i.i.i.i.i.i.y.u.u.i.i.0.8.@.[ T Z C C V B M 1 p.p.p.p.p.p.p.p.",
"p.p.p.p.p.p.p.p.p.p.p.p.p.p.p.p.p.p.p.p.p.M M M B C ( H T [ o.3.0.i.i.i.i.i.i.i.i.i.)  ._ #.( a P P i.i.i.i.i.i.i.i.i.0.3.o.[ T H ( C B M M M p.p.p.p.p.p.p.",
"p.p.p.p.p.p.p.p.p.p.p.p.p.p.p.p.p.p.p.p.p.1 M B V C J _ #.#.| 7.i.i.y.i.i.i.i.i.i.o.:.:.#.$.o.) ( ( P i.i.i.i.i.i.y.i.i.7.| #.#._ J C V B M 1 p.p.p.p.p.p.p.",
"p.p.p.p.p.p.p.p.p.p.p.p.p.p.p.p.p.p.p.p.1 M M V C Z K [ %.&.3.&.8.0.y.i.i.i.i.i. .:.5.%.$.#.O.[ [ [ U p i.i.i.i.i.y.0.8.&.3.&.%.[ K Z C V M M 1 p.p.p.p.p.p.",
"p.p.p.p.p.p.p.p.p.p.p.p.p.p.p.p.p.p.p.p.p.M B C K R | $.4.8.7.7.8.0.t.i.i.i.i.~ ;.6.#.#.O.O.o.[ [ o._ ( F i.i.i.i.t.0.8.7.7.8.4.$.| R K C B M p.p.p.p.p.p.p.",
"p.p.p.p.p.p.p.p.p.p.p.p.p.p.p.p.p.p.p.p.1 M C K R W | 3.0.0.t.t.t.i.u.i.i.i.i.Y O.[ :.%.%.#.O.O._ ) U U G i.i.i.i.u.i.t.t.t.0.0.3.| W R K C M 1 p.p.p.p.p.p.",
"p.p.p.p.p.p.p.p.p.p.p.p.p.p.p.p.p.p.p.1 M M Z T E W | 4.9.y.i.i.i.i.i.i.i.i.U _ _ #.9.2.%.#.O.O._ ) U D N 4 i.i.i.i.i.i.i.i.y.9.4.| W E T Z M M 1 p.p.p.p.p.",
"p.p.p.p.p.p.p.p.p.p.p.p.p.p.p.p.p.p.p.1 M M V C K T E @.4.0.i.i.i.i.i.i.i.i.Y O.[ :.w.2.$.#.o.O._ Y U p p N i.i.i.i.i.i.i.i.0.4.@.E T K C V M M 1 p.p.p.p.p.",
"p.p.p.p.p.p.p.p.p.p.p.p.p.p.p.p.p.p.p.1 M M B V C K R | #.&.7.0.i.i.i.i.i.D ] ( ..;.r...} O.[ _ ( U P 4 p p 3 i.i.i.i.i.0.7.&.#.| R K C V B M M 1 p.p.p.p.p.",
"p.p.p.p.p.p.p.p.p.p.p.p.p.p.p.p.p.p.p.1 M M B V C T R E +.&.3.7.t.i.i.i.4 ] ( ] X.s P ] ..o.{ ) Y S t 8 t t 4 < i.i.i.t.7.3.&.+.E R T C V B M M 1 p.p.p.p.p.",
"p.p.p.p.p.p.p.p.p.p.p.p.p.p.p.p.p.p.p.p.1 M V V K E R @.3.7.9.0.i.i.i.i.D Q P ' p ' e.` ] _ ) ( Y P t t , w 8 3 i.i.i.i.0.9.7.3.@.R E K V V M 1 p.p.p.p.p.p.",
"p.p.p.p.p.p.p.p.p.p.p.p.p.p.p.p.p.p.p.p.1 M V V K T | &.7.0.y.y.i.i.i.3 s P c u z ..<.~ / ] ] U P s u 6 q $ * 4 3 i.i.i.y.y.0.7.&.| T K V V M 1 p.p.p.p.p.p.",
"p.p.p.p.p.p.p.p.p.p.p.p.p.p.p.p.p.p.1 M M M B Z R [ | $.7.u.u.t.y.y.i.N a w i z = : ; ~ ~ ^ U P z ; : = * * $ , 4 i.y.y.t.u.u.7.$.| [ R Z B M M M 1 p.p.p.p.",
"p.p.p.p.p.p.p.p.p.p.p.p.p.p.p.p.p.p.p.1 M M V Z T E W o.&.9.i.u.t.t.t.p p $ i = + + + ~ ~ x ! z d +     = $ @ $ 3 t.t.t.u.i.9.&.o.W E T Z V M M 1 p.p.p.p.p.",
"p.p.p.p.p.p.p.p.p.p.p.p.p.p.p.p.p.p.p.p.p.1 B B V K T [ O.&.0.q.9.7.2 4 q : = + i ,.=.z z f x i i i r q   - + o * 4 7.9.q.0.&.O.[ T K V B B 1 p.p.p.p.p.p.p.",
"p.p.p.p.p.p.p.p.p.p.p.p.p.p.p.p.p.p.p.p.p.p.M M V V K R E [ $.4.%.&.2 6 * : + j g ,./ j d d i u u u e = - . = O $ 4 &.%.4.$.[ E R K V V M M p.p.p.p.p.p.p.p.",
"p.p.p.p.p.p.p.p.p.p.p.p.p.p.p.p.p.p.p.p.p.p.1 M M V Z H R E o.o.A N q r - : g > = > ; j j i > > : ; > - + = + O = * 0 0 o.o.E R H Z V M M 1 p.p.p.p.p.p.p.p.",
"p.p.p.p.p.p.p.p.p.p.p.p.p.p.p.p.p.p.p.p.p.p.M M M B V Z J Z R [ G s r * : > > = + + + h g > > : : +     = + + O O + $ , [ R Z J Z V B M M M p.p.p.p.p.p.p.p.",
"p.p.p.p.p.p.p.p.p.p.p.p.p.p.p.p.p.p.p.p.1 1 1 M M 5 M B C Z T A N 4 g - : > = + > =.l h g > : ; : : ; =   = + +   O o 6 2 T Z C B M 5 M M 1 1 1 p.p.p.p.p.p.",
"p.p.p.p.p.p.p.p.p.p.p.p.p.p.p.p.p.p.p.p.p.p.p.p.p.p.A A N J T D U 9 > ; > = + h : b k g g > : ; ; : ; + =   = + O O o $ , T J V M M p.p.p.p.p.p.p.p.p.p.p.p.",
"p.p.p.p.p.p.p.p.p.p.p.p.p.p.p.p.p.p.p.p.p.p.p.p.p.A D D D N J F s = + ; > g h : ; : ; g g > ; ; ; ; : ; + = = + O O O # , J C M p.p.p.p.p.p.p.p.p.p.p.p.p.p.",
"p.p.p.p.p.p.p.p.p.p.p.p.p.p.p.p.p.p.p.p.p.p.p.p.p.D U F D S N 8 6 ; = ; : > > = + + + g > : ; ; ; +     = + = + + O O @ @ , M M M p.p.p.p.p.p.p.p.p.p.p.p.p.",
"p.p.p.p.p.p.p.p.p.p.p.p.p.p.p.p.p.p.p.p.p.p.p.p.S F Y ( P p 8 9 8 : = ; : > = + > b g > > : ; ; ; : ; +   = + = + O O o # , 0 0 1 p.p.p.p.p.p.p.p.p.p.p.p.p.",
"p.p.p.p.p.p.p.p.p.p.p.p.p.p.p.p.p.p.p.p.p.p.p.p.s U Y Y I t $ 6 6 > = : > = + g h v g > : ; ; ; ; : : + +   = + + O O o # @ 8 0 N B p.p.p.p.p.p.p.p.p.p.p.p.",
"p.p.p.p.p.p.p.p.p.p.p.p.p.p.p.p.p.p.p.p.p.p.p.A p Y Y U a $ 6 $ + : = : = + h : h v > > ; ; ; ; ; : : + + = + = + O O O # o & p 0 0 p.p.p.p.p.p.p.p.p.p.p.p.",
"p.p.p.p.p.p.p.p.p.p.p.p.p.p.p.p.p.p.p.p.p.p.p.p P ( ( U p 7 9 t ; O = : + h : : h l g g g > > : : > g ; + = = + + O O O @ # & 9 p 6 2 p.p.p.p.p.p.p.p.p.p.p.",
"p.p.p.p.p.p.p.p.p.p.p.p.p.p.p.p.p.p.p.p.p.p.8 s ( _ Y P t 9 p q : + ; > g > : > l g = = = = = = = = = : g = = = + O O O o # # $ 9 p & p.p.p.p.p.p.p.p.p.p.p.",
"p.p.p.p.p.p.p.p.p.p.p.p.p.p.p.p.p.p.p.p.p.8 a ( _ ) U a $ 6 6 * > + : > : : > l ; = + + + + + + + + + = ; g = = = O   O o $ o # & & & & p.p.p.p.p.p.p.p.p.p.",
"p.p.p.p.p.p.p.p.p.p.p.p.p.p.p.p.p.p.p.p.8 p ( [ _ Y I t $ t t + O ; > > : > l = O O O O O O O O O O O O O ; : = = + O   O # # o $ & t 8 8 p.p.p.p.p.p.p.p.p.",
"p.p.p.p.p.p.p.p.p.p.p.p.p.p.p.p.p.p.p.& p ( [ [ Y U P w & t w = + : > : > l : O O + + + + + O O O + + = O O = : = + O   O o # o $ t U P 9 0 p.p.p.p.p.p.p.p.",
"p.p.p.p.p.p.p.p.p.p.p.p.p.p.p.p.p.p.% 9 ( o.o.I Y P p # 8 t 7 : = > : > h ; O O + = = = = = + O O O + + = O O = : = O   O o $ o $ $ a P P 8 p.p.p.p.p.p.p.p.",
"p.p.p.p.p.p.p.p.p.p.p.p.p.p.p.p.p.p.& I #.#.[ _ I a 9 $ $ 6 $ > = : > h = + O + = g h h g g g > > : : = + = O + = ; +   O o $ o $ $ 8 t P & p.p.p.p.p.p.p.p.",
"p.p.p.p.p.p.p.p.p.p.p.p.p.p.p.p.p.# a o.$.o.[ ( a p 8 $ w 8 + : ; > g ; + O + ; k m b l h h g g g g g > = + + O + = = O O O # o o # $ 7 t # p.p.p.p.p.p.p.p.",
"p.p.p.p.p.p.p.p.p.p.p.p.p.p.p.p.p.& a _ #.o.) Y I a o * w 7 = + : g = + O + = k -.=.l h g > > > > > > g > = + + O + = + O O o % o % $ $ $ # p.p.p.p.p.p.p.p.",
"p.p.p.p.p.p.p.p.p.p.p.p.p.p.p.p.p.& t U [ [ ) Y I p # 7 8 % : = g = + O + = =.n 1.n k g g > > > > > > > g ; = + + O + = + O o # # $ & t 8 # # p.p.p.p.p.p.p.",
"p.p.p.p.p.p.p.p.p.p.p.p.p.p.p.p.7 & t U [ _ ( U s t $ $ $ $ > = = + O + = =.v h r.v h g > > > > > > > > g : ; = + O O + = + o $ % $ & s p # % p.p.p.p.p.p.p.",
"p.p.p.p.p.p.p.p.p.p.p.p.p.p.p.p.& # w I ( ( U U p o % $ * + : O = O + = n k > > w.k h g > > > > > > > > > ; + ; = + O O + = O # % o $ t P & % p.p.p.p.p.p.p.",
"p.p.p.p.p.p.p.p.p.p.p.p.p.p.p.p.$ # t I U U U I t o * 6 * = ; + = O = k h > : > >.k h > > > > > > > > > g ; + + ; = + O O = O # % # $ & p 7 % p.p.p.p.p.p.p.",
"p.p.p.p.p.p.p.p.p.p.p.p.p.p.p.& # 7 a I I I U I 9 @ & * $ : ; = + O k h > > : g -.k g > > > > > > > : > g ; + + + ; = + O = + o # # $ $ & $ # p.p.p.p.p.p.p.",
"p.p.p.p.p.p.p.p.p.p.p.p.p.p.p.$ $ w a s P I U P # # $ $ # > = = + g g g > > : k m h g > > > > > > : : : g ; + + + = ; + O O + # o # o & # % p.p.p.p.p.p.p.p.",
"p.p.p.p.p.p.p.p.p.p.p.p.p.p.p.% 8 t a a s I U p # @ @ o + : = = g g > > > : : l n h > > > > > : : : : ; g ; + + + = = ; O O +   o o o & & # % p.p.p.p.p.p.p.",
"p.p.p.p.p.p.p.p.p.p.p.p.p.p.p.& 8 8 t t p p s t # @ o o = = + > g > > > > : : b b g > > > > : : : : ; : g ; + + + = = = ; O O O # o o & 9 % # p.p.p.p.p.p.p.",
"p.p.p.p.p.p.p.p.p.p.p.p.p.p.p.& 8 t a I I s s t @ @ o + + + ; > > > > > > : ; n v g > > > > : : : : ; ; g ; + + = = = = + ;   O   # o 9 t & # p.p.p.p.p.p.p.",
"p.p.p.p.p.p.p.p.p.p.p.p.p.p.$ 7 t s Y ( ( Y U P @ o o       : > g > ; g h v v m v > > > > : : : : ; ; ; g ; > h g > ; = = O     O o o & 9 & # p.p.p.p.p.p.p.",
"p.p.p.p.p.p.p.p.p.p.p.p.p.p.% t s Y ( ) ( U I a @ o o O + = : g g ; g h : : h =.v > > > : : : : ; ; ; = > : h : ; g > ; = O     O O . & 8 % # p.p.p.p.p.p.p.",
"p.p.p.p.p.p.p.p.p.p.p.p.p.p.w s U U P p p a p t @ o + ; : ; g h g ; h : m v : =.v > > > : : : : ; ; = = > : ; m v ; > = = +   + + O o . 7 # # p.p.p.p.p.p.p.",
"p.p.p.p.p.p.p.p.p.p.p.p.p.& a I s p a U ( Y I t o = > h h ; h g > + ; > g g > =.l > > > : : : ; ; = = = > : = > ; = = + = = O O = + O . & # p.p.p.p.p.p.p.p.",
"p.p.p.p.p.p.p.p.p.p.p.p.p.9 P p p s I Y Y I 9 $ # h v l g = g > > = + + + + + m l > > : : : ; ; = = = = : g O O O O + + = = + O = = + o % # p.p.p.p.p.p.p.p.",
"p.p.p.p.p.p.p.p.p.p.p.p.p.t p s s P I U I 8 # $ = v l h : = : > > > = = ; = = n k g > : : : ; = = = = = : g O O O + = = = = +   + ; = O $ # p.p.p.p.p.p.p.p.",
"p.p.p.p.p.p.p.p.p.p.p.p.8 t P p t p P I 8 + ; ; : k g > ; = : > > > : = = = : b k ; > ; : = = + = + + O : g O O + = = = = = =   + = ; O # # p.p.p.p.p.p.p.p.",
"p.p.p.p.p.p.p.p.p.p.p.& p a 9 9 t s P w = g g : ; > : ; + ; : > > > ; = = ; > v h ; : = ; = + + = + = = : g O + = + = = = = = O O + = O O p.p.p.p.p.p.p.p.p.",
"p.p.p.p.p.p.p.p.p.p.& t t % & t a a w q g v l > = ; = = + ; > > > : = = = ; > v h = = = ; + = O = O O O ; g = = + + = = = = = +   O + + = O p.p.p.p.p.p.p.p.",
"p.p.p.p.p.p.p.p.p.p.8 9 & % 8 p p t y i > h > ; + = + + = : > > > ; = = ; ; g v g > : ; = = = = = = = = = g = + + + = = ; = ; +   O O + ; = p.p.p.p.p.p.p.p.",
"p.p.p.p.p.p.p.p.p.% 7 & % 8 p s Y Y U I O + + + O + ; + ; : : > > = = ; ; ; l n > : : : ; ; ; = = = = = : = = + + + = = ; = = +   O O O ; = p.p.p.p.p.p.p.p.",
"p.p.p.p.p.p.p.p.p.7 % % w t P ( ) [ ) Y   O O O   + ; O ; : : > > ; = = ; n + + + + + + + + + + + + + +     = + + = = = ; = = +   + + O + O p.p.p.p.p.p.p.p.",
"p.p.p.p.p.p.p.p.p.$ $ 6 t P U U U U s p t         + : O ; : : > > : = = h + + ; = = = + + + + + + + + +       = = = = = ; = = +   + + O O p.p.p.p.p.p.p.p.p.",
"p.p.p.p.p.p.p.p.p.$ & t P U U s p 8 % $ % $ + = + + : + ; : : > > > : l + + = h > > > ; ; ; ; ; = = = = + +     = = = ; = = = + O +     O O p.p.p.p.p.p.p.p.",
"p.p.p.p.p.p.p.p.% 7 t P I P p 8 9 9 t t 9 = g > : + : + ; : > > > > h + + = ; > > > ; ; ; ; = = = = + + + + +     ; = ; = = = + O   O       O p.p.p.p.p.p.p.",
"p.p.p.p.p.p.p.% 7 t s s t 7 t p s I I t : k g : ; + : + ; : : : > g + + = ; > v l h h > > > ; ; = = = = = ; + +     ; = = = = + O   O       = + p.p.p.p.p.p.",
"p.p.p.p.p.p.p.% 8 p a 7 w t I ) O.[ Y O g b g : = = ; O ; : : : g + + = ; > v h : ; = = = = + + + + + + + = ; + +     = = + + + O           + ; O p.p.p.p.p.",
"p.p.p.p.p.p.p.& 9 p & t p Y O.$.#._ a = h v > : = = ; O = ; : g + + = ; > ; v h : ; = = = + + + + + + + + = = = + +     = + + + O   . + O   O : O p.p.p.p.p.",
"p.p.p.p.p.p.# & t & t P Y o.%.%.O.Y w ; b k > ; + = ; + O = : h + = = h ; : v h : = = = = + + + + + + + + = ; + ; + +   ; + + O ; =   + O     ; = p.p.p.p.p.",
"p.p.p.p.p.p.# 8 7 9 a ( [ $.&.$._ P O > n h : ; + = = = + + ; l = = h : ; : v h : = = = + + + + + + + + + = ; O = ; + + ; + + + : >   O +     O ; O p.p.p.p.",
"p.p.p.p.p.p.# & 8 p Y [ #.&.%.#.) p + g n > : ; O ; = = + + ; h = l : ; ; > l g : = = = + + + + + + + + + = ; O = = ; + = + + = : k   O + O     = + p.p.p.p.",
"p.p.p.p.p.p.% 8 t I ) O.%.&.$.O.Y q = h v : ; = O ; = + O + ; : g > : ; ; > l g ; = = + + + + + + + + + + = ; O = + + = O + + = > b =   + O     + = p.p.p.p.",
"p.p.p.p.p.p.% w s ( O.#.%.#.#._ P O ; k k : ; = O ; = + O = ; : > > : ; ; g l > ; = = + + + + + + + + + = = ; O + + + O O O + = h n h   O +     O = O p.p.p.",
"p.p.p.p.p.p.9 p U O.#.$.%.%.O.) r O : l g : ; + O ; + + O = : : > > : ; ; g k g ; = = + + + + + + + + + = = ; O + + + O O O + = h n k   O + O     = + p.p.p.",
"p.p.p.p.p.9 p P [ $.#.%.%.#.[ Y   + : l g : ; + O : + + O = : : > > : ; ; h k > ; = = + + + + + + + + = = = ; O + + O O O O O = g b v     + +     + = O p.p.",
"p.p.p.p.p.t s ) $.$.#.%.%.O.) a   + : l > ; ; + + ; + O O = ; : > : : ; ; h k > ; = = + + + + + + + = = = = ; O + + O O O O O + > l v O   O + .     = O p.p.",
"p.p.p.p.9 p U $.$.$.$.#.#.[ U q O = > l : ; = + + ; O O + ; : : > : : ; ; l n : : ; ; = = = = = = ; ; ; ; ; = O + + O O O O O + : l v =   O + O     + + p.p.",
"p.p.p.8 t s [ %.#.$.$.$.O.) s   + = g h : ; = O + = O O + ; ; : : : : ; n + + + + + + + + + + + + + + + +     = + + O X X O O + = l l =     + +     O = O p.",
"p.p.8 9 s ( %.%.#.$.$.#.o.( y   + ; h g : ; = O = ; O O = ; ; : > : ; h + + = = = = + + + + + + + + + + +       = +       O O O : k l =     O + O     + + p.",
"p.p.9 p Y o.&.#.#.$.#.o._ I 7 O + ; h > : ; + O = ; O O = ; ; : > : l + + = ; > > > ; ; ; ; ; ; ; = = = = + +     +       O O   = g l : O     + O     + + p.",
"p.8 t I o.%.$.$.#.#.O.[ Y p   + = ; h > ; ; + O = = O + ; ; : : > h + + = ; h > > ; ; ; ; ; ; ; = = = + + + + +     +           + > l : = O   + +     O + O ",
"8 t a Y #.$.$.#.#.#.O._ I 6 O + = : h > ; ; + + = + + + ; ; : : g + + = ; n v h h h h > > > > > ; ; ; ; ; ; ; + +     +         O ; v g : O   O + O     + + "
};
