/* XPM */
static char *b65fed09a71a4618f71b045853a51c99[] = {
/* columns rows colors chars-per-pixel */
"84 115 57 1 ",
"  c None",
". c #070707",
"X c #0B0B0B",
"o c #170F07",
"O c #1F170B",
"+ c #131313",
"@ c #1B1B1B",
"# c #2F1B0B",
"$ c #2B230F",
"% c #232B0F",
"& c #372313",
"* c #332B13",
"= c #3F2F17",
"- c #3F2B1B",
"; c #232323",
": c #272727",
"> c #2F2F2F",
", c #373737",
"< c gray23",
"1 c #432F1B",
"2 c #43331B",
"3 c #4B371B",
"4 c #533F1F",
"5 c #473323",
"6 c #4F3B23",
"7 c #4F3B2B",
"8 c #5F4323",
"9 c #6B4727",
"0 c #774F2B",
"q c #7F532F",
"w c #434343",
"e c #4B4B4B",
"r c gray34",
"t c #5B5B5B",
"y c gray39",
"u c gray42",
"i c #777777",
"p c gray50",
"a c #875733",
"s c #8F5F37",
"d c #9B633B",
"f c #A36B3F",
"g c #AB6F43",
"h c #B37347",
"j c #BF7B4B",
"k c #CB7F4F",
"l c #CF8353",
"z c #D78B5B",
"x c #838383",
"c c #8B8B8B",
"v c #939393",
"b c #9F9F9F",
"n c #A7A7A7",
"m c gray67",
"M c gray70",
"N c gray75",
"B c gray78",
/* pixels */
"                                               ++++++@++++                          ",
"                                             +++;>,,>;+++++                         ",
"                                            @@+;>,,<,>@@++@@+                       ",
"                                           ,,@@;,<<w,>;@++@;@+                      ",
"                                          ;,<>;;,,<w,>;@++@;@++  @@>@               ",
"                                          >,<>;;,,<w,>;@+++;;+++;>;>>               ",
"                                          ;,<>;>,,ww<>@++++;;+++;,,<<;              ",
"                                          @,<>;>,<ww<>@++++;;+++><<<,@              ",
"                                         +@,<>;>,,,>;;@++++;;@++;,<>@               ",
"                         <<<w<<<<<<      +@,<,@@@>,,>;@+XXX+@+++;,>                 ",
"                       <<<tutew<<<<<     +@,,@+;>,ww<,>@+++@+XX+@@                  ",
"                      <w<wrMcurww<<<<<   ++>@+;>><<r<,;@+++@;@XX+                   ",
"                     <w<weiBbireew,><<   XX@>,;;,,@;@@++XXX+X+++                    ",
"                    <w<weepBburwee,;;,<  ++;<,;>@;>+X++@@@;;+XXXX                   ",
"                    <<eterxBnuewee,;;><  ++,w,@@@er>+@;;;;>,,,;+X.                  ",
"                    <wyyerxNmurwee,;;;,<@++>w>@@<et,X@@;;>>>,,,;@@                  ",
"                    <wtyerxmvtwwww>;;>ew;@+;,;$<wer,X+@;;>>>,,,>;<>                 ",
"                    <<rtw,eiurw<<<>;@>ew>@++++,wwer<X+;;;>>>>,,>>>;                 ",
"                    <<re,wxMcytrrw>@>ww<>@+XX;<wwey<X@@;;;>>>>,;>;;                 ",
"                    <,wyttxNvurrtrw,,rw<>+XXX;<wweu<X+@;;;;>>>>>;>;,                ",
"                    ,>yuerpNxuewe<,;>tw<,@+++><wweu,++@;;;;;>>>>;>@>                ",
"                    ><rterxBcuree<,;+y<,,@++X><wweu<++@@;;;>>>>>;,+;                ",
"                    wwrtetcBxuteew,>;u<<,@+++><wweyw++@@;;;;>>>>><@+,               ",
"                    <wrtetcBxuteew,>;tw<>@+++><wwete++X@>;;;;;>>>,@+,               ",
"                    <<etervBcyrere,>;tw<,@+++><wwwtr++;eweeeeww<,,;@;               ",
"                    ,<etwrvNcurwee,>;er<,++++;<wwwtt++wpw>>>;>>,>,<<>               ",
"                    ,<etwtvMcurwew,>;wr<>++++;<wwwrt+@wiw>>>;;;;;>,,>               ",
"                    ,<rrwtvMvyreew,>@<t,>@+++;<wwwry++wyw>>>>;;;;,,,,>              ",
"                    ,<rrwtvMvyreew,>@wt,,@+++;<wwwty@+<yw>>>>;;;>,,,,;              ",
"                     <rrwtcmcyrerw,;@rt<>@++X@<wwwty;+<yw>>>>;;;;>,,,;@             ",
"                     <rtetcmcyrerw,;@erw>@+++;<<wwtt>+,yw>>>>;;;;;,,,;+             ",
"                     <ereyxncyreew,;@wtw,@+++;<<wwrt>+>uw>>>;;;;;>,,,,@             ",
"                     <ereyxbxytete,;;,tw<;+++;,<wwry>+>i,>>>;;;;;>,,,,;             ",
"                     weteuxcitrerw,>;>t<<;@++@,<wwey>@>i,>>>;;;;;>,,,,@@            ",
"                     wwteyxcitweew,;;;u<<;@++@,<<weu,@>y,>>>;;;;;>,,,,@+            ",
"                     wwtetixutw<ew,;;;u<,;@++@,<<wey>@>y,>>>;;;;;>,,,,;+            ",
"                     wwtttupyr<<ww,;;>u<,;@+++,<<<ey;@;t,>>>;;;;;;>,,,>             ",
"                     <weetyute,<ww,>;>rw<>+++@,,<<et>@;r,>>>;;;;;;>>;;;             ",
"                     <<wwerrw<,,,<>;@<t<<>+++@>,<<et;+@r,>>>>;;;;;>;;;>             ",
"                     <,<ww<<<,><w<>;;;<<<>+++@>,<<er;+@r,>>>>;;;;;,>..+             ",
"                      ,<<,etew,ruutw>@><<>@++@>,,<er>@;r,>>>>;;;;>,;..+             ",
"                     yetyrreww<wee,>@+;<<>@++@>>,<wr<@;e,>>>>;;;;;,;..+             ",
"                    ;eywrrw<,,,wee,>+X;,<>@++@>>,,we<>+w>>>>>;;;;;>,,>>,>           ",
"                    ;,<<eew<,,,wew,;++>,<,;+++>>>,we,;@,>>>>;;;;;;>,,,;;@           ",
"                    ;>,<eew<,,,we<,;++>,<,;+++>>>,<e<;r,>>>>;;;;;;>,,,>;@           ",
"                   ;;>,<eew<,,,we<,;++>,,,;@++>>>,<e;e,>>>>>;;;;;;>,,,,;@           ",
"                   ;;,<<eew<,,,ww<>;++><,>;@++>>>,<w;e;>>>>>;;;;;;>,,,,;@           ",
"                   ;;,<<eew<,,<ww<>;++,,,>;@++>>>>,>e,;>>>>>;;;;;;>,,,>;@+          ",
"                   ;;,<<eew<,,<ww<>@+@,,<,;@++;>>>;,y,;>>>>;;;;;;;;>,,>;@+          ",
"                   ;;,<weew<,,<ww,>;@+;,<,>+++;>>;>ey,;>>>>;;;;;;;;>,,>;@@          ",
"                   ;;,<wee<<,,<ww,>;@X@,<,>@++;>>;>eyw;>>>>;;;;;;;;>,,>;@@          ",
"                   ;>,<wee<<,,<w<,>>@X@,<,>;++;>;@>wyw;>>>>;;;;;;;;>,,>@@@          ",
"                   ;>,<wew<<,,<w<,,>@X;,<,>@++;>@+>eyw;>>>>;;;;;;;;>,,>@@@          ",
"                   ;>,<wew<<<,<w<,,>@X;,<,>@+X;>>;>wuw;>>>>;;;;;;;;>,,>@+@+         ",
"                   ;>>,eew<<,,<w<,,>+X;,<,;@+X;>>;><iw@>>>>;;;;;;;;>,,>@@++         ",
"                   ;>><eew<<>,<<<,,;++>,<,;@++@>>;>,i<@>>>;;;;;;;;;>,,;@@++         ",
"                   ;>><wew<,>,<<<,,;++>,<,;@++;>>;>,p,;>>>;;;;;;;;;>>,;;;@@         ",
"                   ;>><wew<,><<<,>>;++>,,,;@++;;>@;,x>;>>>;;;;;;;;;>>,@@@;@         ",
"                   ;;,<wew<,><<<,>>;++,<,>;@++@;>@;<x;;>>>;;;;;;;;;>>,@@@@;         ",
"                   ;;,<wew<,,<<<,>>;++,<,>;@++@;>+;<p>;>>>;;;;;;;;;>>>XXX@          ",
"                   ;;,<wew<,,<<<,>>@X@,<,>;@@+;>>X;<i<;>>>;;;;;;;;;>>>...@          ",
"                   ;;,<<ww<,,<<<,>>;@+;,,>;;@+@>>;@wuw>>>>;;;;;;;;;>>>@.X@          ",
"                   ;>,<<ww<,,<<<,,>;@X@,,>;;++@>>>@wue;>>>;;;;;;;;;;>>;.X@          ",
"                   ;>,<ww<<,,<<<,,>>@X;,,>;;++@>>;@wye@>>>;;;;;;;;;;>>@.X@          ",
"                   ;>,<ww<<,,<<<<,,>@X;,,>;@++@;>;@<yw@>>>;;;;;;;;;;>>@;>>;;        ",
"                   ;>,<ww<<,,<<<<,,>+X;,,;;@++@;>;@,uw@>>>;;;;;;;;;;>>@;;;@@@       ",
"                   ;>,<ww<<>,<<<<,,;++>,,;;@++@;>;@,i<@>>;;;;;;;;;;;>>@@+++++       ",
"                   ;>,<ww<<>,<<,<,,;++>,,;;@++@;>@@>p,;>>;;;;;;;;;;;>;;@++++@       ",
"                  ;;>,<ww<,>,<<,,>>;++>,,>;@++@;;+@>x,;>>;;;;;;;;;;;>>;@++++@       ",
"                  ;;,<<ww<,><<<,,>>;++,<>,;@+++>;++>x,;>>;;;;;;;;;;;;>;@++++@       ",
"                  ;;,<<ww<,><<<,,>>;@+;,>>;@+++>;++,p<;>>;;;;;;;;;;;;>;@@+++@       ",
"                  ;;,<<ww<,,<<<,,>>>;++,>>;;@+@>;>+<iw;>>;;;;;;;;;;;;>;@@++++       ",
"                  ;;,<<ww<,<<<<,,>,>@+@,>>;;@++;;>+<ue;>;;;;;;;;;;;;;>;@@++++       ",
"                  ;;,<<<w<,,<<<,,>,>@X@,>;;;@+@;>;+,ye;>;;;;;;;;;;;;;>;@@++++@      ",
"                  ;>,<<ww<,<<<,,>>,>@X@,>;;;+++@>;+<ye;>;;;;;;;;;;;;;>@@@++++@      ",
"                  ;>,,<w<<<<,>,,*$$*$&27>;;;+++@;@+,te;>;;;;;;;;;;;;;>@@++++++      ",
"                  ;>,,<<<,55234899999998*$$;@++;;+@,ye;>;;;;;;;;;;;;;>;@+++++@@     ",
"                  ;>>,52564490qqaqqqqqa8&>>$O++;;+;>ie;>;;;;;;;;;;;;;>;@+++++@+     ",
"                  5554684900qqqqaaaaa0q6$>,;$++>;>;;pw;;;;;;;;;;;;;;;>;@++++++@     ",
"                3444888900qqqqqqqaaaaqq8$><>$++;;>@;p<;;;;;;;;;;;;;;;>;@++++++@     ",
"              333388899000qq0900qqaaq008$>,,$++;;>@;x<;@@;;;;;;;;;;;;>;@++++++;     ",
"             333480999q00q0884800assq998O;,>$++;;>@;p,;@@@;;;;;;;;;;;>;@++++++@     ",
"             44380q09q0009488369qassq098+;<>%++@;>@>i<;@@@@;;;;;;;;;;;>@++++++@     ",
"             2338qq09q0q939q08389adsa098+;<>@++@;++>yr;@@@@@;;;;;;;;;;>@+++@+++     ",
"            $*338qq09qq088ddq04=8adsq898+;<,@O+@;@X>yr;@@@@@;;;;;;;;;;>@++@;;@@     ",
"            $*339qq90qq09sfds93O&qdsa908o;7>$O+@>;@,ye;@@@@@@;;;;;;;;;>@++;>;@@@    ",
"            $=339q990qq9afgfs82#&9q08383o;<,;O+;>;;,ye;@@@@@@;;;;;;;;;>@++@>>@@@    ",
"            $-369q9900q8sggfa83$O=884381o@,,*OX;;+;>te;@@@@@@@;;;;;;;;>@+++XX@;+    ",
"            $-369a090q90fggfa83$o8ssa9q6o+;>>@+;@>;>re;@@@@@@@;;;;;;;;>;+@+..@;+    ",
"            $-360q8882-ahggfq63&O=qsa904O&,>+++@@>@;re;@@@@@@@@;;;;;;;>;+@X..@;@    ",
"            $-338832498fhgfd963$O-9aq896O:,<$++;;>;@ee;@@@@@@@@@;;;;;;>;+@X...@@    ",
"           $$=2=3488q9qffffs833$O&6aq898O;,<;++@;>@+ww;@@@@@@@@@;;;;;;>;+@@...@@    ",
"           $$O&39q0903ddffdq633$O$3q0888O$,,;$+@;;+@ew;@@@@@@@@@;;;;;;>;+@>+XX@@    ",
"           Oo$38q09989fddfs9632$OO3q0888OO,,>$++>@;@ew;@@@@@@@@@@;;;;;;>@@@,;;;>,   ",
"          62O=38qq983sdddfa9421&OO300888o$,,>O++>@>;e<;@@@@@@@@@@;;;;;;>@+@;@+++;   ",
"         684%&28q0869ddddds062=OOO390899o$,,:O+@>@>;w<;@@@@@@@@@@@;;;;;>@+@;@++++   ",
"        90a8O&29q0980ddddda932*OO$39q999O@,,>@+@;@>@<w;@@@@@@@@@@@;;;;;>@+@;@++++   ",
"        0sd4O*29q080sdddds0831*OO$69q908O@,,>@+@;@;@>w;@@@@@@@@@@@;;;;;>@+@;@++++;  ",
"       8qfs=%*29q049ddddda8321*OO$60q908O@>,>@+@;@;+,w;@@@@@@@@@@@@;;;;>@+@;;@+++@  ",
"       8sh0=$*28a89sfddds9422&&OO&390884O+,,>@+@;@;+,w;@@@@@@@@@@@@;;;;>;+@;;@+++@  ",
"      9agh9&$&2893afddddq8322&#OO##23224$O>,*O+@;;@+,<;@@@@@@@@@@@@;;;;>;++;;@+++@  ",
"     s0fhf4$$&2840fffdddq8322$OOO20q09883$#>*O++@;;@,<;@@@@@@@@@@@@;;;;>;++;@@+++@@ ",
"     ddhhd1$$$249gjggfdd042=2$OO$2800998=;*@@O++>@>@,<;@@@@@@@@@@@@;;;;>;+@;@@+++@; ",
"    0dfjga=$$$24sjjjhfds842==#OO$=389888O@><;+++>@>@><;@@@@@@@@@@@@@;;;>;+@;;@@+++; ",
"    sshhdq=&$$8sjjjjjfs0832=&OOO$2389888OO,,;O++>@>@;<>;@@@@@@@@@@@@;;;>;+@;;;@+++; ",
"   8afhgd03=$2sjjjjjjdq8822=$OOO$2389868OO,,;O++;@;@@<>;@@@@@@@@@@@@;;;;>@+@;;@+++; ",
"   0ahhfsq4230fkjjjjjd08432=OOOO&2389868O@>,$O++;@;+@<>;@@@@@@@@@@@@;;;;>@+@;;;@++@ ",
"   adhgds988qgjjjjjjhd94322=OOOO*2389844O+>,:O++;;@X@<>;@@@@@@@@@@@@;;;;>@+@;;,>;++ ",
"  8aghgda988djjjjjkjgs9432=&OOOO&2368883OO;<:O++@;@+@,>@@@@@@@@@@@@@@;;;>@+@;;@+++@ ",
"  8shhfda88agjjjjkjjgd0832=#O#OO*2348883OO*,:O++;;@+@,,;@@@@@@@@@@@@@;;;>@+@;;@+++@ ",
" 8qfhgdd088shjlllkjhgs0832=OO$OO=2268483OO:,*OO+;;@+;<>;@@@@@@@@@@@@@;;;>@@@;@..X++ ",
" 8dhhgds880fjlzlljhfds062=$OO$OO=2288483#+;,;O++>;;@;>,>@@@@@@@@@@@@;;;;>;++;+..X+@ ",
" 8fhhhda88dhjlzzkhgdaq832&OO#$OO=2388866OO@>:O++;@;+++@,>@@@@@@@@@@@;;;;;;++;+..X+++",
"00hhhhd08shhjlzzjgdqq982=*#O#$O$*2223111OO%&;O++;@@++++@>;@@@@@@@@@@@;;;;;++;;X..X++",
"qahhhgs9sghjlkllhda09842=*#O#$OOO&=22===*Oo$;O++;@@++@@@@>;@@@@@@@@@@;;;;;+@;;X..X++"
};
