/* XPM */
static char *_3354_19fa0f6bd92e10fa0c0daf4a5a41f895836cb6a277bf71189dbfdd11be27431b[] = {
/* columns rows colors chars-per-pixel */
"78 85 111 2 ",
"   c #0B0B0B",
".  c #170F07",
"X  c #0B1707",
"o  c #1F170B",
"O  c #131313",
"+  c #1B1B1B",
"@  c #2F1B0B",
"#  c #2B230F",
"$  c #372313",
"%  c #332B13",
"&  c #3F2F17",
"*  c #3F2B1B",
"=  c #232323",
"-  c #272727",
";  c #2F2F2F",
":  c #373737",
">  c gray23",
",  c #430000",
"<  c #530707",
"1  c #670000",
"2  c #6B0F0F",
"3  c #771717",
"4  c #432F1B",
"5  c #43331B",
"6  c #4B371B",
"7  c #533F1F",
"8  c #732B00",
"9  c #473323",
"0  c #4F3B23",
"q  c #4F3B2B",
"w  c #533F2F",
"e  c #5F4323",
"r  c #5B472B",
"t  c #574333",
"y  c #5F4B37",
"u  c #6B4727",
"i  c #774F2B",
"p  c #7F532F",
"a  c #67533F",
"s  c #434343",
"d  c #4B4B4B",
"f  c gray31",
"g  c gray34",
"h  c #5B5B5B",
"j  c #6F5743",
"k  c #775F4B",
"l  c #7B634F",
"z  c gray39",
"x  c gray42",
"c  c #777777",
"v  c gray50",
"b  c #8B0000",
"n  c #9B0000",
"m  c #831F1F",
"M  c #872300",
"N  c #932F00",
"B  c #9F3700",
"V  c #A73F00",
"C  c #AF4300",
"Z  c #B74700",
"A  c #875733",
"S  c #8F5F37",
"D  c #9B633B",
"F  c #A36B3F",
"G  c #CB5707",
"H  c #D75F0B",
"J  c #DF670F",
"K  c #F37317",
"L  c #836B4B",
"P  c #836B57",
"I  c #8F7753",
"U  c #8B735B",
"Y  c #AB6F43",
"T  c #B37347",
"R  c #BF7B4B",
"E  c #937B63",
"W  c #9B7F6B",
"Q  c #A76B6B",
"!  c #CB7F4F",
"~  c #FF8F3B",
"^  c #9F8363",
"/  c #9F876F",
"(  c #A78F77",
")  c #AF977F",
"_  c #CF8353",
"`  c #D78B5B",
"'  c #FF9F43",
"]  c #FFA35B",
"[  c #DF9363",
"{  c #E79B6B",
"}  c #EFA373",
"|  c #F7AB7B",
" . c #FFB37B",
".. c #838383",
"X. c #8B8B8B",
"o. c #939393",
"O. c #BFA78F",
"+. c #A7A7A7",
"@. c gray67",
"#. c #B7B7B7",
"$. c gray75",
"%. c #FFB383",
"&. c #FFC79B",
"*. c #FFC7A7",
"=. c #FFCFB3",
"-. c #FFD3BB",
";. c gray78",
":. c #CBCBCB",
">. c LightGray",
",. c #FFDBC7",
"<. c None",
/* pixels */
"<.<.<.<.<.<.<.<.<.<.<.<.<.<.<.<.<.<.<.<.<.<.<.<.<.<.<.<.<.<.<.<.<.<.<.<.<.<.<.<.<.<.<.<.1 1 1 1 <.<.<.<.<.<.<.<.<.<.<.<.<.<.<.<.<.<.<.<.<.<.<.<.<.<.<.<.<.<.",
"<.<.<.<.<.<.<.<.<.<.<.<.<.<.<.<.<.<.<.<.<.<.<.<.<.<.<.<.<.<.<.<.<.<.<.<.<.<.<.<.<.<.1 1 b b b b 1 1 <.<.<.<.<.<.<.<.<.<.<.<.<.<.<.<.<.<.<.<.<.<.<.<.<.<.<.<.",
"<.<.<.<.<.<.<.<.<.<.<.<.<.<.<.<.<.<.<.<.<.<.<.<.<.<.<.<.<.<.<.<.<.<.<.<.<.<.<.<.1 1 b b N N N N b b 1 1 <.<.<.<.<.<.<.<.<.<.<.<.<.<.<.<.<.<.<.<.<.<.<.<.<.<.",
"<.<.<.<.<.<.<.<.<.<.<.<.<.<.<.<.<.<.<.<.<.<.<.<.<.<.<.<.<.<.<.<.<.<.<.<.<.<.1 b b b b N B Z Z B N b b b b 1 <.<.<.<.<.<.<.<.<.<.<.<.<.<.<.<.<.<.<.<.<.<.<.<.",
"<.<.<.<.<.<.<.<.<.<.<.<.<.<.<.<.<.<.<.<.<.<.<.<.<.<.<.<.<.<.<.<.<.<.<.<.<.1 b V N B V Z C ~ ~ C Z V B N V b 1 <.<.<.<.<.<.<.<.<.<.<.<.<.<.<.<.<.<.<.<.<.<.<.",
"<.<.<.<.<.<.<.<.<.<.<.<.<.<.<.<.<.<.<.<.<.<.<.<.<.<.<.<.<.<.<.<.<.<.<.<.1 b N G G H H J J [ [ J J H H G G N b 1 <.<.<.<.<.<.<.<.<.<.<.<.<.<.<.<.<.<.<.<.<.<.",
"<.<.<.<.<.<.<.<.<.<.<.<.<.<.<.<.<.<.<.<.<.<.<.<.<.<.<.<.<.<.<.<.<.<.<.1 b M N J [ ~ ~ K ~ ~ ~ ~ K ~ ~ [ J N M b 1 <.<.<.<.<.<.<.<.<.<.<.<.<.<.<.<.<.<.<.<.<.",
"<.<.<.<.<.<.<.<.<.<.<.<.<.<.<.<.<.<.<.<.<.<.<.<.<.<.<.<.<.<.<.<.<.1 b b M N N G { ] ] ] ] ' ' ] ] ] ] { G N N M b b 1 <.<.<.<.<.<.<.<.<.<.<.<.<.<.<.<.<.<.<.",
"<.<.<.<.<.<.<.<.<.<.<.<.<.<.<.<.<.<.<.<.<.<.<.<.<.<.<.<.<.<.<.<.<.b b N B V V J ] %.&.&.%.Q I %.&.&.%.] J V V B N b b <.<.<.<.<.<.<.<.<.<.<.<.<.<.<.<.<.<.<.",
"<.<.<.<.<.<.<.<.<.<.<.<.<.<.<.<.<.<.<.<.<.<.<.<.<.<.<.<.<.<.<.<.1 b N V Z Z G ~ ] &.&.&.*.O._ *.&.&.&.] ~ G Z Z V N b 1 <.<.<.<.<.<.<.<.<.<.<.<.<.<.<.<.<.<.",
"<.<.<.<.<.<.<.<.<.<.<.<.<.<.<.<.<.<.<.<.<.<.<.<.<.<.<.<.<.<.<.1 b M Z G G J ! ] | %.*.=.-.} ! -.=.*.%.| ] ! J G G Z M b 1 <.<.<.<.<.<.<.<.<.<.<.<.<.<.<.<.<.",
"<.<.<.<.<.<.<.<.<.<.<.<.<.<.<.<.<.<.<.<.<.<.<.<.<.<.<.<.<.<.<.1 b B H H J ~ ]  . .&.I ` ` [ Y Y T T &. . .] ~ J H H B b 1 <.<.<.<.<.<.<.<.<.<.<.<.<.<.<.<.<.",
"<.<.<.<.<.<.<.<.<.<.<.<.<.<.<.<.<.<.<.<.<.<.<.<.<.<.<.<.<.<.1 b N Z H ~ ~ ] *.*.*.^ O.O.` [ ! Y T Y F *.*.*.] ~ ~ H Z N b 1 <.<.<.<.<.<.<.<.<.<.<.<.<.<.<.<.",
"<.<.<.<.<.<.<.<.<.<.<.<.<.<.<.<.<.<.<.<.<.<.<.<.<.<.<.<.<.1 b b B J ! ~ | &.*.*.P O.O.) _ R R Y F F D D *.*.&.| ~ ! J B b b 1 <.<.<.<.<.<.<.<.<.<.<.<.<.<.<.",
"<.<.<.<.<.<.<.<.<.<.<.<.<.<.<.<.<.<.<.<.<.<.<.<.<.<.<.<.<.b n V C G ` ] %.&.*.l Q O.T T T Y F D D A A A p *.&.%.] ` G C V n b <.<.<.<.<.<.<.<.<.<.<.<.<.<.<.",
"<.<.<.<.<.<.<.<.<.<.<.<.<.<.<.<.<.<.<.<.<.<.<.<.<.<.<.<.1 b B G R ! ]  .&.*.*.j A p O.) ) T Y T S e * q u *.*.&. .] ! R G B b 1 <.<.<.<.<.<.<.<.<.<.<.<.<.<.",
"<.<.<.<.<.<.<.<.<.<.<.<.<.<.<.<.<.<.<.<.<.<.<.<.<.<.<.<.b M V J ! [  .&.*.=.k y e Q $.) / I F Q S u 0 9 * 3 =.*.&. .[ ! J V M b <.<.<.<.<.<.<.<.<.<.<.<.<.<.",
"<.<.<.<.<.<.<.<.<.<.<.<.<.<.<.<.<.<.<.<.<.<.<.<.<.<.<.<.b B Z G ! ` | &.=.,.y l k ( #.W E P L I L y w * * 4 ,.=.&.| ` ! G Z B b <.<.<.<.<.<.<.<.<.<.<.<.<.<.",
"<.<.<.<.<.<.<.<.<.<.<.<.<.<.<.<.<.<.<.<.<.<.<.<.<.<.<.<.b b B V Z K %.&.-.y l t P X.:.U P k j j a y w $ : * < -.&.%.K Z V B b b <.<.<.<.<.<.<.<.<.<.<.<.<.<.",
"<.<.<.<.<.<.<.<.<.<.<.<.<.<.<.<.<.<.<.<.<.<.<.<.<.<.<.<.1 b N B C ~ ] | 4 k f f c ; ; P P j j a t + + O = - $ , | ] ~ C B N b 1 <.<.<.<.<.<.<.<.<.<.<.<.<.<.",
"<.<.<.<.<.<.<.<.<.<.<.<.<.<.<.<.<.<.<.<.<.<.<.<.<.<.<.<.<.1 b N B G ' } w f ; x ; x $.z z a a t s ; = = O = + $ } ' G B N b 1 <.<.<.<.<.<.<.<.<.<.<.<.<.<.<.",
"<.<.<.<.<.<.<.<.<.<.<.<.<.<.<.<.<.<.<.<.<.<.<.<.<.<.<.<.<.<.b M V Z H < s : d ; d ..@.g h f f s > : ; + = O O = $ H Z V M b <.<.<.<.<.<.<.<.<.<.<.<.<.<.<.<.",
"<.<.<.<.<.<.<.<.<.<.<.<.<.<.<.<.<.<.<.<.<.<.<.<.<.<.<.<.<.<.b N B V Z 9 : = > d = : ; g g d s > > ; : = + = O O * Z V B N b <.<.<.<.<.<.<.<.<.<.<.<.<.<.<.<.",
"<.<.<.<.<.<.<.<.<.<.<.<.<.<.<.<.<.<.<.<.<.<.<.<.<.<.<.<.<.1 b M B B V 9 ; + s = + + + g g s s > > +     = + O O $ V B B M b 1 <.<.<.<.<.<.<.<.<.<.<.<.<.<.<.",
"<.<.<.<.<.<.<.<.<.<.<.<.<.<.<.<.<.<.<.<.<.<.<.<.<.<.<.<.<.1 b b b M $ - = ; = + > +.c d d s s > > > ; =   = + O $ 2 M b b b 1 <.<.<.<.<.<.<.<.<.<.<.<.<.<.<.",
"<.<.<.<.<.<.<.<.<.<.<.<.<.<.<.<.<.<.<.<.<.<.<.<.<.<.<.<.<.<.1 b N B @ + = : + d : +.x d d s > > > > ; + =   = O $ m B N b 1 <.<.<.<.<.<.<.<.<.<.<.<.<.<.<.<.",
"<.<.<.<.<.<.<.<.<.<.<.<.<.<.<.<.<.<.<.<.<.<.<.<.<.<.<.<.<.<.<.1 m 8 - ; = : s > = : ; d d s > > : ; : = + = + O - 9 4 4 1 <.<.<.<.<.<.<.<.<.<.<.<.<.<.<.<.<.",
"<.<.<.<.<.<.<.<.<.<.<.<.<.<.<.<.<.<.<.<.<.<.<.<.<.<.<.<.<.<.<.<.A u ; = : > > = + + + d s > > : : +     = + + O O + $ < <.<.<.<.<.<.<.<.<.<.<.<.<.<.<.<.<.<.",
"<.<.<.<.<.<.<.<.<.<.<.<.<.<.<.<.<.<.<.<.<.<.<.<.<.<.<.<.<.<.<.m e 4 : = : > = + > ..h d s > : ; : : ; =   = + +   O @ & @ <.<.<.<.<.<.<.<.<.<.<.<.<.<.<.<.<.",
"<.<.<.<.<.<.<.<.<.<.<.<.<.<.<.<.<.<.<.<.<.<.<.<.<.<.m 3 3 <.<.i S 7 > ; > = + d : x g s s > : ; ; : ; + =   = + O O o $ @ <.<.<.<.<.<.<.<.<.<.<.<.<.<.<.<.<.",
"<.<.<.<.<.<.<.<.<.<.<.<.<.<.<.<.<.<.<.<.<.<.<.<.<.3 p p i 4 <.A i = + ; > s d : ; : ; s s > ; ; ; ; : ; + = = + O O O $ @ <.<.<.<.<.<.<.<.<.<.<.<.<.<.<.<.<.",
"<.<.<.<.<.<.<.<.<.<.<.<.<.<.<.<.<.<.<.<.<.<.<.<.<.i D p u 6 4 4 4 ; = ; : > > = + + + s > : ; ; ; +     = + = + + O O @ @ @ <.<.<.<.<.<.<.<.<.<.<.<.<.<.<.<.",
"<.<.<.<.<.<.<.<.<.<.<.<.<.<.<.<.<.<.<.<.<.<.<.<.e A F D i 6 4 7 6 : = ; : > = + > x s > > : ; ; ; : ; +   = + = + O O o # o $ 4 <.<.<.<.<.<.<.<.<.<.<.<.<.<.",
"<.<.<.<.<.<.<.<.<.<.<.<.<.<.<.<.<.<.<.<.<.<.<.<.u S D D A 6 $ 4 4 > = : > = + s d z s > : ; ; ; ; : : + +   = + + O O o # o & 6 6 & <.<.<.<.<.<.<.<.<.<.<.<.",
"<.<.<.<.<.<.<.<.<.<.<.<.<.<.<.<.<.<.<.<.<.<.<.7 e D F D i $ 4 $ + : = : = + d : d z > > ; ; ; ; ; : : + + = + = + O O O # o & e 6 & <.<.<.<.<.<.<.<.<.<.<.<.",
"<.<.<.<.<.<.<.<.<.<.<.<.<.<.<.<.<.<.<.<.<.<.<.e A Y Y D u 5 7 e ; O = : + d : : d h s s s > > : : > s ; + = = + + O O O @ # & 7 u & $ <.<.<.<.<.<.<.<.<.<.<.",
"<.<.<.<.<.<.<.<.<.<.<.<.<.<.<.<.<.<.<.<.<.<.6 p Y R F A e 7 u 9 : + ; > s > : > h s = = = = = = = = = : s = = = + O O O o # # $ 7 u $ <.<.<.<.<.<.<.<.<.<.<.",
"<.<.<.<.<.<.<.<.<.<.<.<.<.<.<.<.<.<.<.<.<.6 i Y R T D i $ 4 4 * > + : > : : > h ; = + + + + + + + + + = ; s = = = O   O o $ o # & & & # <.<.<.<.<.<.<.<.<.<.",
"<.<.<.<.<.<.<.<.<.<.<.<.<.<.<.<.<.<.<.<.6 u Y ! R F S e $ e e + O ; > > : > h = O O O O O O O O O O O O O ; : = = + O   O # # o $ & e 5 % <.<.<.<.<.<.<.<.<.",
"<.<.<.<.<.<.<.<.<.<.<.<.<.<.<.<.<.<.<.& u Y ! ! F D A 0 & e 0 = + : > : > h : O O + + + + + O O O + + = O O = : = + O   O o # o $ e D A 6 # <.<.<.<.<.<.<.<.",
"<.<.<.<.<.<.<.<.<.<.<.<.<.<.<.<.<.<.% 7 Y _ _ S F A u # 6 e 5 : = > : > d ; O O + = = = = = + O O O + + = O O = : = O   O o $ o $ $ i A A % <.<.<.<.<.<.<.<.",
"<.<.<.<.<.<.<.<.<.<.<.<.<.<.<.<.<.<.& S [ [ ! R S i 7 $ $ 4 $ > = : > d = + O + = s d d s s s > > : : = + = O + = ; +   O o $ o $ $ 6 e A % <.<.<.<.<.<.<.<.",
"<.<.<.<.<.<.<.<.<.<.<.<.<.<.<.<.<.# i _ { _ ! Y i u 6 $ 0 6 + : ; > s ; + O + ; g v x h d d s s s s s > = + + O + = = O O O # o o # $ 5 e # <.<.<.<.<.<.<.<.",
"<.<.<.<.<.<.<.<.<.<.<.<.<.<.<.<.<.& i R [ _ T F S i o * 0 5 = + : s = + O + = g o...h d s > > > > > > s > = + + O + = + O O o % o % $ $ $ # <.<.<.<.<.<.<.<.",
"<.<.<.<.<.<.<.<.<.<.<.<.<.<.<.<.<.& e D ! ! T F S u # 5 6 % : = s = + O + = ..c $.c g s s > > > > > > > s ; = + + O + = + O o # # $ & e 6 # # <.<.<.<.<.<.<.",
"<.<.<.<.<.<.<.<.<.<.<.<.<.<.<.<.5 & e D ! R Y D p e $ $ $ $ > = = + O + = ..z d >.z d s > > > > > > > > s : ; = + O O + = + o $ % $ & p u # % <.<.<.<.<.<.<.",
"<.<.<.<.<.<.<.<.<.<.<.<.<.<.<.<.& # 0 S Y Y D D u o % $ * + : O = O + = c g > > ;.g d s > > > > > > > > > ; + ; = + O O + = O # % o $ e A & % <.<.<.<.<.<.<.",
"<.<.<.<.<.<.<.<.<.<.<.<.<.<.<.<.$ # e S D D D S e o * 4 * = ; + = O = g d > : > +.g d > > > > > > > > > s ; + + ; = + O O = O # % # $ & u 5 % <.<.<.<.<.<.<.",
"<.<.<.<.<.<.<.<.<.<.<.<.<.<.<.& # 5 i S S S D S 7 @ & * $ : ; = + O g d > > : s o.g s > > > > > > > : > s ; + + + ; = + O = + o # # $ $ & $ # <.<.<.<.<.<.<.",
"<.<.<.<.<.<.<.<.<.<.<.<.<.<.<.$ $ 0 i p A S D A # # $ $ # > = = + s s s > > : g v d s > > > > > > : : : s ; + + + = ; + O O + # o # o & # % <.<.<.<.<.<.<.<.",
"<.<.<.<.<.<.<.<.<.<.<.<.<.<.<.% 6 e i i p S D u # @ @ o + : = = s s > > > : : h c d > > > > > : : : : ; s ; + + + = = ; O O +   o o o & & # % <.<.<.<.<.<.<.",
"<.<.<.<.<.<.<.<.<.<.<.<.<.<.<.& 6 6 e e u u p e # @ o o = = + > s > > > > : : x x s > > > > : : : : ; : s ; + + + = = = ; O O O # o o & 7 % # <.<.<.<.<.<.<.",
"<.<.<.<.<.<.<.<.<.<.<.<.<.<.<.& 6 e i S S p p e @ @ o + + + ; > > > > > > : ; c z s > > > > : : : : ; ; s ; + + = = = = + ;   O   # o 7 e & # <.<.<.<.<.<.<.",
"<.<.<.<.<.<.<.<.<.<.<.<.<.<.$ 5 e p F Y Y F D A @ o o       : > s > ; s d z z v z > > > > : : : : ; ; ; s ; > d s > ; = = O     O o o & 7 & # <.<.<.<.<.<.<.",
"<.<.<.<.<.<.<.<.<.<.<.<.<.<.% e p F Y T Y D S i @ o o O + = : s s ; s d : : d ..z > > > : : : : ; ; ; = > : d : ; s > ; = O     O O . & 6 % # <.<.<.<.<.<.<.",
"<.<.<.<.<.<.<.<.<.<.<.<.<.<.0 p D D A u u i u e @ o + ; : ; s d s ; d : v z : ..z > > > : : : : ; ; = = > : ; v z ; > = = +   + + O o . 5 # # <.<.<.<.<.<.<.",
"<.<.<.<.<.<.<.<.<.<.<.<.<.& i S p u i D Y F S e o = > d d ; d s > + ; > s s > ..h > > > : : : ; ; = = = > : = > ; = = + = = O O = + O . & # <.<.<.<.<.<.<.<.",
"<.<.<.<.<.<.<.<.<.<.<.<.<.7 A u u p S F F S 7 $ # d z h s = s > > = + + + + + v h > > : : : ; ; = = = = : s O O O O + + = = + O = = + o % # <.<.<.<.<.<.<.<.",
"<.<.<.<.<.<.<.<.<.<.<.<.<.e u p p A S D S 6 # $ = z h d : = : > > > = = ; = = c g s > : : : ; = = = = = : s O O O + = = = = +   + ; = O $ # <.<.<.<.<.<.<.<.",
"<.<.<.<.<.<.<.<.<.<.<.<.6 e A u e u A S 6 + ; ; : g s > ; = : > > > : = = = : x g ; > ; : = = + = + + O : s O O + = = = = = =   + = ; O # # <.<.<.<.<.<.<.<.",
"<.<.<.<.<.<.<.<.<.<.<.& u i 7 7 e p A 0 = s s : ; > : ; + ; : > > > ; = = ; > z d ; : = ; = + + = + = = : s O + = + = = = = = O O + = O O <.<.<.<.<.<.<.<.<.",
"<.<.<.<.<.<.<.<.<.<.& e e % & e i i 0 9 s z h > = ; = = + ; > > > : = = = ; > z d = = = ; + = O = O O O ; s = = + + = = = = = +   O + + = O <.<.<.<.<.<.<.<.",
"<.<.<.<.<.<.<.<.<.<.6 7 & % 6 u u e r y > d > ; + = + + = : > > > ; = = ; ; s z s > : ; = = = = = = = = = s = + + + = = ; = ; +   O O + ; = <.<.<.<.<.<.<.<.",
"<.<.<.<.<.<.<.<.<.% 5 & % 6 u p F F D S O + + + O + ; + ; : : > > = = ; ; ; h c > : : : ; ; ; = = = = = : = = + + + = = ; = = +   O O O ; = <.<.<.<.<.<.<.<.",
"<.<.<.<.<.<.<.<.<.5 % % 0 e A Y T ! T F   O O O   + ; O ; : : > > ; = = ; c + + + + + + + + + + + + + +     = + + = = = ; = = +   + + O + O <.<.<.<.<.<.<.<.",
"<.<.<.<.<.<.<.<.<.$ $ 4 e A D D D D p u e         + : O ; : : > > : = = d + + ; = = = + + + + + + + + +       = = = = = ; = = +   + + O O <.<.<.<.<.<.<.<.<.",
"<.<.<.<.<.<.<.<.<.$ & e A D D p u 6 % $ % $ + = + + : + ; : : > > > : h + + = d > > > ; ; ; ; ; = = = = + +     = = = ; = = = + O +     O O <.<.<.<.<.<.<.<.",
"<.<.<.<.<.<.<.<.% 5 e A S A u 6 7 7 e e 7 = s > : + : + ; : > > > > d + + = ; > > > ; ; ; ; = = = = + + + + +     ; = ; = = = + O   O       O <.<.<.<.<.<.<.",
"<.<.<.<.<.<.<.% 5 e p p e 5 e u p S S e : g s : ; + : + ; : : : > s + + = ; > z h d d > > > ; ; = = = = = ; + +     ; = = = = + O   O       = + <.<.<.<.<.<.",
"<.<.<.<.<.<.<.% 6 u i 5 0 e S T ` ! F O s x s : = = ; O ; : : : s + + = ; > z d : ; = = = = + + + + + + + = ; + +     = = + + + O           + ; O <.<.<.<.<.",
"<.<.<.<.<.<.<.& 7 u & e u F ` { [ R i = d z > : = = ; O = ; : s + + = ; > ; z d : ; = = = + + + + + + + + = = = + +     = + + + O   . + O   O : O <.<.<.<.<.",
"<.<.<.<.<.<.# & e & e A F _ } } ` F 0 ; x g > ; + = ; + O = : d + = = d ; : z d : = = = = + + + + + + + + = ; + ; + +   ; + + O ; =   + O     ; = <.<.<.<.<.",
"<.<.<.<.<.<.# 6 5 7 i Y ! { | { R A O > c d : ; + = = = + + ; h = = d : ; : z d : = = = + + + + + + + + + = ; O = ; + + ; + + + : >   O +     O ; O <.<.<.<.",
"<.<.<.<.<.<.# & 6 u F ! [ | } [ T u + s c > : ; O ; = = + + ; d = h : ; ; > h s : = = = + + + + + + + + + = ; O = = ; + = + + = : g   O + O     = + <.<.<.<.",
"<.<.<.<.<.<.% 6 e S T ` } | { ` F 9 = d z : ; = O ; = + O + ; : s > : ; ; > h s ; = = + + + + + + + + + + = ; O = + + = O + + = > x =   + O     + = <.<.<.<.",
"<.<.<.<.<.<.% 0 p Y ` [ } [ [ R A O ; g g : ; = O ; = + O = ; : > > : ; ; s h > ; = = + + + + + + + + + = = ; O + + + O O O + = d c d   O +     O = O <.<.<.",
"<.<.<.<.<.<.7 u D ` [ { } } ` T w O : h s : ; + O ; + + O = : : > > : ; ; s g s ; = = + + + + + + + + + = = ; O + + + O O O + = d c g   O + O     = + <.<.<.",
"<.<.<.<.<.7 u A ! { [ } } [ ! F   + : h s : ; + O : + + O = : : > > : ; ; d g > ; = = + + + + + + + + = = = ; O + + O O O O O = s x z     + +     + = O <.<.",
"<.<.<.<.<.e p T { { [ } } ` T i   + : h > ; ; + + ; + O O = ; : > : : ; ; d g > ; = = + + + + + + + = = = = ; O + + O O O O O + > h z O   O + .     = O <.<.",
"<.<.<.<.7 u D { { { { [ [ ! D 9 O = > h : ; = + + ; O O + ; : : > : : ; ; h c : : ; ; = = = = = = ; ; ; ; ; = O + + O O O O O + : h z =   O + O     + + <.<.",
"<.<.<.6 e p ! } [ { { { ` T p   + = s d : ; = O + = O O + ; ; : : : : ; c + + + + + + + + + + + + + + + +     = + + O X X O O + = h h =     + +     O = O <.",
"<.<.6 7 p Y } } [ { { [ _ Y r   + ; d s : ; = O = ; O O = ; ; : > : ; d + + = = = = + + + + + + + + + + +       = +       O O O : g h =     O + O     + + <.",
"<.<.7 u F _ | [ [ { [ _ R S 5 O + ; d > : ; + O = ; O O = ; ; : > : h + + = ; > > > ; ; ; ; ; ; ; = = = = + +     +       O O   = s h : O     + O     + + <.",
"<.6 e S _ } { { [ [ ` ! F u   + = ; d > ; ; + O = = O + ; ; : : > d + + = ; d > > ; ; ; ; ; ; ; = = = + + + + +     +           + > h : = O   + +     O + O ",
"6 e i F [ { { [ [ [ ` R S 4 O + = : d > ; ; + + = + + + ; ; : : s + + = ; c z d d d d > > > > > ; ; ; ; ; ; ; + +     +         O ; z s : O   O + O     + + "
};
