/* XPM */
static char *_2c11691a6da4e0ed48f2bb9c5b4220e[] = {
/* columns rows colors chars-per-pixel */
"102 119 59 1 ",
"  c None",
". c #070707",
"X c #0B0B0B",
"o c #170F07",
"O c #0B1707",
"+ c #1F170B",
"@ c #131313",
"# c #1B1B1B",
"$ c #2F1B0B",
"% c #2B230F",
"& c #232B0F",
"* c #372313",
"= c #332B13",
"- c #3F2F17",
"; c #3F2B1B",
": c #232323",
"> c #2F2F2F",
", c #373737",
"< c gray23",
"1 c #432F1B",
"2 c #43331B",
"3 c #4B371B",
"4 c #533F1F",
"5 c #473323",
"6 c #4F3B23",
"7 c #5F4323",
"8 c #5B472B",
"9 c #6B4727",
"0 c #774F2B",
"q c #7F532F",
"w c #675333",
"e c #434343",
"r c #4B4B4B",
"t c gray34",
"y c #5B5B5B",
"u c gray39",
"i c gray42",
"p c #777777",
"a c gray50",
"s c #875733",
"d c #8F5F37",
"f c #9B633B",
"g c #A36B3F",
"h c #AB6F43",
"j c #B37347",
"k c #BF7B4B",
"l c #CB7F4F",
"z c #CF8353",
"x c #D78B5B",
"c c #838383",
"v c #8B8B8B",
"b c #939393",
"n c #9F9F9F",
"m c #A7A7A7",
"M c gray67",
"N c gray70",
"B c gray78",
"V c #CBCBCB",
"C c LightGray",
/* pixels */
"                                                        @:@                                           ",
"                                             >,>>:##@ @,,>@                                           ",
"                                          #:re<<,>:##@>,>:@                                           ",
"                                         #>yvyee,>####:>:@                                            ",
"                                        #>rycire<>:####:@@                                            ",
"                                       ##,rypvyre,:##:##@                                             ",
"                                       >#>ryupy,::#@@@X@@                                             ",
"                                      #,:>ee,tyrre,:##@X@                                             ",
"                                      :<::>,taaitr,:##@@@#                                            ",
"                                      :,:#>ryupie<:###@@@>                                            ",
"                                     @><##,etr<>##@@XXXXX#                                            ",
"                                     @>>>:><e>#,tye,>#@XXX>                                           ",
"                                     @:><:>,:@riiutr<@#:>@:<                                          ",
"                                     @@<e>:@#ruute::,,,<>>,,                                          ",
"                                     @@re@X>eryrree,::>,>:>>@                                         ",
"                                     X@eeX:rrrrrai::##:,>::::@                                        ",
"                                     X@<<Xrrer<eib>:##:>,:####                                        ",
"                                 <<<<@@>:otre,,>rN<:###>,>####@                                       ",
"                              e<eeree@@#@#ey,,,><Br::##:>>##@@#                                       ",
"                            eybuttute@@@X:<ue<,>,nu::#######@@#                                       ",
"                           >rpVcytyr@@@@@:>ire,>>ia::##:@@@@#@#@                                      ",
"                          >,yvVvytyr#@@X@::uee,>>en,:##:@@@..#@#                                      ",
"                          ,euvCvytyr:,@X#::t,r,>>,Ne::#:@..@.###                                      ",
"                         <,eucCvuttt#,@X#::e:t,,>>bt::##:...@#@@#                                     ",
"                         e,eucVvutrr#:XX#::>#y,,>>ii::##:...@#.@#                                     ",
"                         e,eycBvt<et>:X@#::#@y<,>>rb>:######@#.@.@                                    ",
"                        <e<,tpmuyuiir#@@##:#:r<,,><n<#:###::#@.@..                                    ",
"                        ,e<,rtabcutut#@@##:##ee,,>,cr#:####::@@@@.                                    ",
"                        ,e<,,yMmpytyt#@@##:##<r<,,>yu::####::#@@@..                                   ",
"                        >ee:epnMatrr<##@##:##>r<,,>ra>:####::#@@@@@                                   ",
"                        >e,<tinNatr,<##@##::#:t<,,,ec,::####::@@@@.@                                  ",
"                        :<ee<ivvpt,><>#@@#::#@y<,,,<pe::####::#@@@@.                                  ",
"                        :>e<<ypvpt,><>##@#::#@t<<,,,yy::####:::@@@@#                                  ",
"                         :e,<ruvpt,><>##@##:#@re<<,,ra::####:::@@@@##                                 ",
"                         ,<,<euvpt,><>##@##:##ye<,,,ec>::####>>#@@@@#                                 ",
"                         ,<,<euapt,>r<>#@##:#ete<<,,ei<::##:@@@@#@@@##                                ",
"                         ,,>,etapt,>r<>#@##:>yee<<,,ett::##:@@@@@#@@.#                                ",
"                         >,>,etapt,>r<>#@##:rtee<<<<<ti::##:@...@.#@@.                                ",
"                         >,>,<rppt,>r<>#@##,yeee<<<<<rp>:###>....@.#@..                               ",
"                         >,>,<rppt,>r<>#@@#rteeee<<<<eu<#:##:.....@#@..                               ",
"                         >,>,<rupt,>r<>##@>yeeeee<<<<<tt#:###::::#@..@@                               ",
"                         >,>,<rtpt,2;@;>#@:teeeee<<<<<ri:#####::::@.#@@.                              ",
"                         >,>,,rrp;706o;%#@:teeeeee<<<<ru>#:####:::@@@@@.                              ",
"                         >,>,,r5900q7@>>#@#rreeeee<<<<et<#:####:::@@@@@..                             ",
"                         >,>,,3900q09+>>#@@rreeeee<<<<ert#:####:>:#@@@@@.                             ",
"                         >,>,6990qqq7+:>#@#ereeeeee<<<<ry#:####:>::@@@@@#                             ",
"                         >,>67990qqq9+:,:@@<t<eeeee<<<<ey:#:####>>:#@@@@@#                            ",
"                         >,6999900q09%>,:#@>y<eeeeee<<<er<#:####>>:#@@@@@#                            ",
"                         >39699990q09%:,>#@:y<eeeeee<<<err#:####:>>>#@@@@@>                           ",
"                         496799990q00*:,>#@#teeeeeee<<<<ey:####:@@@@>#@@@@:                           ",
"                         077777799000*&,>#@#er<eeeeee<<<ey>#:##:@@@@@>#.@@#                           ",
"                        0779q07379974$@:,#@#er<eeeeee<<<et<#:##:@@@@@@>#.@#>                          ",
"                       77799ff0*%73373%::#@@<r<eeeeeee<<err#:##:@....@..#@#:                          ",
"                       07779ggd1*%37q7+>>#@@<r<<eeeeee<<<et::###:.....@.#@@@>                         ",
"                      97772djjf71*+7q9+=,#@@,r<<eeeeee<<<et>:###>......@.@@.@                         ",
"                      37777gjkg01*%7qq+%>#@@>r<<eeeeeee<<er<::####::::#.@@@..@                        ",
"                     %=2679hjhf03*%+0s$%>>@@:r<<<eeeeee<<eee::##:::>>>:@..@#@@                        ",
"                     *=-240gjhf04%%+0s*&>>#@#r<<<eeeeeee<eet::##:::>>>:#@@@##.                        ",
"                     =--26sghgd04-*+9s=%>:#@#re<<<eeeeeeeeet>:##:::>>>>:@@@##@.                       ",
"                     ==-27dghgd07-%+7s1%>>#@#<r<<<eeeeeeeeer,:###::>>>>:@@@###.                       ",
"                     ==-%9dfgfd07-%+79*@#>#@@<r<<<eeeeeeeeer<::##:::>>>>#@@###@.                      ",
"                     ==%3qffffd04=++-36+:@#@@<e,<<<eeeeeeeeer::##:::>>>>:@@####.                      ",
"                    2=*+8dffdds04-$%-97+>:#@@,e,<<<eeeeeeeeet::##:::>>>::#@#####.                     ",
"                    3=+%0gfddds03=+*477+=>#@@>r,,<<<eeeeeeeer>:##:::>>>:>#@######                     ",
"                   24%+2dgfffdd04*+-377+%>#@@:r,,<<<eeeeeeeer<::#:::>>>:>:###:###@                    ",
"                   37++7ghgfffdq4*+%247+%:#@@#r,,<<<<eeeeeeeer::#:::>>>:>>:#::####                    ",
"                  147%2shhgggfdq3%%%147++:%@@#r<,,<<<eeeeeeeet::#::::><<<<<:#::###@                   ",
"                  273%9hjjhgffs0-%$*234%+:%@@@ee,,,<<eeeeeeeet>:#:::####@@@<:#:####                   ",
"                  362%fjkjhgfds9-++*234%+%%@@@<e>,,,<<eeeeeeer<:#:::#@@@@@@@@##:###                   ",
"                 13320jkkjhgfd07-++*234%+%%@@@<e>,,,,<eeeeeeert:::::>@@@@..@@@#:###@                  ",
"                 3426hlkjjhffs94=++*233%+%%#@@<<>,,,,<<eeeeeeeu::::::@......@@@::#@@                  ",
"                 376dklkjhgfds96*++*12*+o++#@#,<>>,,,<<eeeeeeey>:::>>>.......@.@:#@@.                 ",
"                 47fzzlkjhgfdq96*$+%*$-1+%+#@#><>>,,,,<eeeeeeete:::>>::::::r<#.@::#@@                 ",
"                37dxxllkjhgfd073-$++$232+%%#@@:e>>>,,,<<eeeeeeru:::>>>>>>>:rr###>::@@.                ",
"                37hlllkjjhggs072*+@$2223+%%#@:#<,>>>,,,<eeeeeerp::>>>>>>>>:et##>>::#@.                ",
"                3sjklkkjhhgfs94-*++*-232+%%+@##e<>>>,,,<eeeeeeei,:>>>>>>>>:,u:#:>>::@@@               ",
"                4djkkjjhgggfq93*%+%%=232+%%+@@@e<>>>>,,<eeeeeeeir#>>>>>>>>>:i<##>>::@@@               ",
"                4dhjjjjgfffsq72=%+%$=232%+%+@@@e<>>>>,,,<eeeeeeiu::>>>>>>>>:yt:#:>>:#@.               ",
"                7fhjjjhgfssq94-*$+%$*-22%+%+@@@<<>>>>>,,<eeeeeeua::>>>>>>>>:eu>#:>:::##.              ",
"                9ghjjhgfdsqq93-*+++$%-22%+++@##><>>>>>,,,eeeeeetp,:>>>>>>>>:>p,:#>>::##@              ",
"                0fhjjggdssqq93-*+++$%=22+o++@#>:<>>>>>>,,<eeeeerir:>>>>>>>:#:ut,::>>::##@             ",
"               3qfhhhgfsssqq06-*%++%%*-*%+++@#::<,>>>>>,,<<eeeeeyu:::>>>>><rr<er>::::::#@             ",
"               3sfhhhgfsqqqq072*%$++$++-2+++@#:#,,>>>>>,,,<eeeeeru:>>>>,<<>#@@#:<,:::::##@            ",
"               4sghhhgfqq000093-*%++++-2-+%%@###,,>>>>>,,,<eeeeery<e<,>#@@X......:<>::::#@            ",
"               4dgggggdqq000094-*%$++%---+%%@@##>,>>>>>>,,<<eeeert>#@@XXXX........X,>:::###           ",
"               4dfgggfdqq090097-*%+++%*--+%%+@##>,>:>>>>,,,<<eerr<#X@@@@X...........#>:::##           ",
"               4dfgggfdq0000097-*$$$+%%==++%+@#,:>>:>>>>,,,<<rr#@##@@XXX..............:>:::           ",
"               4dfggffsq00000971*$+$++%*=++++@#>:>>:>>>,>,,er>X@@@@X.......XX@@@X......#:::>          ",
"               7dfggffdsq0000973*%$$++%%=$+%+@#>:>>:>>>>,<r<#@@@@XX....X@@####@@@@X..X...@#:          ",
"               7dfggffdsq0900973*$++++%%*%+&+@#:#:::>>><<e:@@@XX.X..X@######@@@###@XX..X..X@#         ",
"               7dfggffdsq0009773*$++$++%*+X++@#:@#:::><e,@@@@X...X@X:>>>>>:::>>><r<:#XX..X..X         ",
"               0dfgggfdsqq009763*+++$$+$+++%+@##,@:>,<e:@@@@@.X@@#>>ee########::>,e,>:#X.....         ",
"               qdggggfdssq009743*+++$$++%*+%%@##,#@:>,@@@@@@.X##>>eeee########:::,e>:>,>>@...         ",
"               ddggggfddsq097731*+++$$++-%+:%@#@<##@#@X@@@XX@##>eeeeae########:::><,#:>,,,:#@         ",
"              7dfhhhgfddsq09773-*+++$$++%%+::@@#,:@.@@X@X.X@X#<eetttvu#########::><<#@#:>>>>:#        ",
"              9flxxljgfdsq99763-%+++$$++%%+::%@#>:@...@X.O@##<rtttttpc#########::>,<:@###:>>>:#       ",
"              7dghklkgfds009762-%+++$$+++%+%>:@#>:@@@....@@:>tyyyuuuib:#######:::>,<:@####:::>:#      ",
"              7qssdgjhgfs000732-%+++$$+++%+%>:@#:>@@##@...X#<yyyuuuuiM,#######:::>,<:@@####:::::      ",
"              7qssssfggfd099731*%+++$$+++%+#::@#:>#@###@...#<uyuuuuuaMe#######:::>>,>#@######::::     ",
"              70qsddsdgfd07333-*$++$$$++&%+o%#@##,#@#::#@@X#<yuuuuuupmy#######::::>>,#@########::     ",
"             49qqqsddddffs762-2-+++$$$++++++>:###,#@@###@@X#>uuuuuuuini:######::::>>,:@#########::    ",
"            49sddsqsffssddq73--3*++$$+++++-%><<>#>:..@###@XX>uuuuuuuinv:#####:::::>>,:@##########:    ",
"            9sfggffssddssddq73--*++$$++++->,rytr<::#@..@#@@X#yuuuuuuubn:#####:::::>>,>@@##########    ",
"           9dfghhhgfdsddsssq041*$$+$$+++@@>rytttr,::#@@..@@X#euuuuuuucn>#####:::::>>,>#@###########   ",
"           dghjjjjjhgddsss00093-%$+$$+@@@@#,rtttre>::##@@..X#eyuuuuuuib,#####::::>>>,,:@##########@   ",
"           dghjhgjjjhgfdss097993-$+$+@@,<,:#,rtrrr<>::##@@@X#eyyuuuuuiv<#####::::>>>>,:@#########@@   ",
"           dggfqqsfhjhgfdsq933773*+++@,ettr,#,rrree>::::##@X#eyyyuuuupv<####:::::>>>>,:@#########@@@  ",
"           dffq7779dgghgfds073277-+++#@#>rtr>:<reee>>>::::#@#<yyyyuuuiv<####::::>>>>>,>@@########@@@  ",
"           qddsw74470dfffds073227-++#@@@@,tt<#>ee<<,>:>>::#@#<tyyyyuuuat:###::::>>>>>,>@@########@@@  ",
"          4700qs974-27qddds9722-33$+#..@@:rte@:<<<<>>:::>>:@#>tttyyyyuuu:##:::::>>>>>,>#@#######@@@@  ",
"         7qq0990073==-39ddd072---6-+#@.X@@er<@:,<,,>::##::#X#>rtttyyyyui:##::::>>>>>>,>#@#######@@@@  ",
"        40ffs097907-===-4qsq73=**-3+::@@@#,<,@#>>>>>::###@@X#>rrttttyyui:##::::>>>>>>,,#@#######@@@@@ ",
"        9qfjfdq779072===-30s07-%%$1=.:::::>>:@:>>>::::#@@@XX#<rrrrtttyii::#::::>>>>>>>,:@#######@@@@@ ",
"      3470shjgd0747974323370q93%$+$-+#::#@::#@:>:##::##@@XXX>errrrrtttui::::::>>>>>>>>,:@######@@@@@@ ",
"     70q00qdhjgdq74790099777907=+++*=.@@@@X@@#>::#@#:@@@@XX#>eeerrrrrtyi>:::::>>>>>>>>,:@######@@@@@@ ",
"   4qghggfffdfhhhf07644443777993%+++-......@@#::#@@@@:@@XX#><eeeeeerrrty,#::::>>>>>>>>,:@@#####@@@@@@ ",
"  7qfhhhhhhgffffhjhd97432-133797%+++*@..@@@#####@..@@:XXX#><eeeeeeeerrty>#:::>>>>>>>>>,:@@####@@@@@@@ ",
" 70qqq00qq0qssdddhhgd92-****=-77-+++@....@##:#@@...@@:XX#><eeeeeeeeeeery>#:::>>>>,,,,>,:#@####@@@@@@@@",
"997442-==33447777qfffs73-%$$$*374%++.@@...@###@....@#:XX#>eeeeeeeeeeeeet>#:::>>>,#::::::#@###@@@@@@@@@"
};
