/* XPM */
static char *_8960_bbb92a46c7f1628feb43eba952b6e9d7356df67f4717c8cc67c15b92795ef494[] = {
/* columns rows colors chars-per-pixel */
"24 16 46 1 ",
"  c #070700",
". c #0B0B00",
"X c #0F1300",
"o c #171700",
"O c #1B1F00",
"+ c #1F2307",
"@ c #272B07",
"# c #2B2F07",
"$ c #2F330B",
"% c #333B0F",
"& c #3B3F13",
"* c gray23",
"= c #571700",
"- c #672300",
"; c #772F00",
": c #433F3F",
"> c #3F4717",
", c #434B1B",
"< c #47531F",
"1 c #4B5723",
"2 c #535F2B",
"3 c #57632F",
"4 c #636F3F",
"5 c gray28",
"6 c gray31",
"7 c gray34",
"8 c #5F5F5F",
"9 c #677743",
"0 c #6B7B4B",
"q c #6F6F6F",
"w c #7B7B7B",
"e c #873F00",
"r c #975300",
"t c #A76700",
"y c #B77F00",
"u c #738353",
"i c #77875B",
"p c #7F8F67",
"a c #C79700",
"s c #D7B300",
"d c #E7D300",
"f c #83936B",
"g c #838383",
"h c #8B8B8B",
"j c #939393",
"k c None",
/* pixels */
"kkk,<<<1<<11111111223kkk",
"kkk&>>>>>>>,>>,,,,,,2kkk",
"kkk&>>>>>>>>>>>>>>,,1kkk",
"kkk%&&&&&>>>>>>>>>>,<kkk",
"kkk$%%%&&&&&&&>>>>>>,kkk",
"kkk@######$#$$$$$$%%&kkk",
"kk3++++++OOOOoooooooXpkk",
"k4>#;+r+;Oeoeo-o-o=o=.pk",
"4,>atsyaysadasysyatyr. i",
"99990000u0uuuuuiiiiiippf",
"$#%>%$&>%,&%&<&,>&&,,&&&",
"#$1j2%2j&j2$2j>j3%3jj3&&",
"@$j*j>j5j6j&h:j5j,j&>j>%",
"@$qww%w&%>g%g,&>g,g,&g&$",
"+#7#q%8$@$q%q%#%1>2qq2%$",
"++#+#+#++@$@$@#@$#$&&$##"
};
