/* XPM */
static char *_4651_bfec5f7e57121a20a05458a2307fa4463316dc069347b1b0420b0d37a9e83ef3[] = {
/* columns rows colors chars-per-pixel */
"22 29 21 1 ",
"  c black",
". c #272727",
"X c #2F2F2F",
"o c #373737",
"O c gray23",
"+ c #730000",
"@ c gray31",
"# c gray34",
"$ c #5B5B5B",
"% c gray39",
"& c gray42",
"* c #6F6F6F",
"= c #8B0000",
"- c #9B0000",
"; c #8B8B8B",
": c #939393",
"> c #979797",
", c #9F9F9F",
"< c #A7A7A7",
"1 c LightGray",
"2 c None",
/* pixels */
"222@@222222222222@@222",
"22.@@.2222222222.@@.22",
"22....2222222222....22",
"2*.@@.;;:,<<,:;:.@@.@2",
".*:<<:;;,,++,,;::<<:@.",
".O:,,,,,,,==,,,,,,,;O.",
".X*::;;;+=--=+;;;::;X.",
"..*;;;&&+=-==+&&;;;;..",
"@ *;;&..&,==,&..&;;;.@",
"@$*;;&11&,++,&11&;;,.@",
"@$*;;&11&,,,,&11&,,;.@",
"@$@@oo11oo@@oo11oo@@.@",
"@$@@&o>>o&&&&o>>o&@@.@",
"@$@&&&>>@&&&&&>>@&&@.@",
"@$@&@@oo@&&&@@oo@&&@.@",
"@$@&&&>>@&&&&&>>@&&@.@",
"@$@@@@@@@@@@&@@@@@@@.@",
"@%;::::::;oo;::::::;.@",
"@%&;;;;;;&oo&;;;;;:&.@",
"@%@&&11&&@oo@&&1>&&@.@",
"@%@##>>##@oo@##>>##@.@",
"@%@&&$$&&@oo@&&$$&&@.@",
"@%@%%%%%%@oo@%%%%%%@.@",
"@%.@$$$$@.oo.@$$$$@.$@",
"@%%......o%%o......$$@",
"@$$######$$$$######$$o",
"@$$$$$$$$$$$$$$$$$$$$o",
"oo@@@@@@@@@@@@@@@@@@oo",
"2oooooooooooooooooooo2"
};
