/* XPM */
static char *_3109_5c13d938643db1ab0e7dfd1b9097782ca524f3046d50fe0a52752c756f3b7713[] = {
/* columns rows colors chars-per-pixel */
"14 15 107 2 ",
"   c gray11",
".  c #182112",
"X  c #1D2815",
"o  c #1E2915",
"O  c #1E2916",
"+  c #31360A",
"@  c #36360C",
"#  c #3C300D",
"$  c #202C17",
"%  c #212F17",
"&  c #20221E",
"*  c #232C1C",
"=  c #24311A",
"-  c #25331A",
";  c #25341B",
":  c #29391E",
">  c #202120",
",  c gray13",
"<  c gray15",
"1  c #2C3D20",
"2  c #2E3F21",
"3  c #2E3F22",
"4  c gray23",
"5  c #730000",
"6  c #41300E",
"7  c #31431F",
"8  c #324420",
"9  c #344721",
"0  c #344622",
"q  c #354723",
"w  c #324425",
"e  c #354822",
"r  c #364824",
"t  c #374B24",
"y  c #394B27",
"u  c #384C24",
"i  c #3B4F27",
"p  c #3A4C28",
"a  c #3C4F29",
"s  c #3D4E2A",
"d  c #3E522A",
"f  c #3F532B",
"g  c #3F572E",
"h  c #5D4517",
"j  c #41542C",
"k  c #455931",
"l  c #4B5F37",
"z  c #4E6239",
"x  c #51653B",
"c  c #53663E",
"v  c #53673F",
"b  c #54673F",
"n  c #54683E",
"m  c #55693F",
"M  c gray37",
"N  c #566A40",
"B  c #576A42",
"V  c #586C42",
"C  c #667852",
"Z  c #626262",
"A  c DimGray",
"S  c #6A6A6A",
"D  c gray42",
"F  c #6D6D6D",
"G  c #6F6F6F",
"H  c #70736D",
"J  c #717171",
"K  c gray45",
"L  c #727470",
"P  c #777777",
"I  c #7B7B7B",
"U  c #7C7C7C",
"Y  c gray49",
"T  c #7E7E7E",
"R  c #9A0000",
"E  c #9B0000",
"W  c #9B0303",
"Q  c #9C0202",
"!  c #A10101",
"~  c #A50101",
"^  c #AA0101",
"/  c #B10000",
"(  c #B20000",
")  c #B60000",
"_  c #BE0000",
"`  c #BF0000",
"'  c #CA0000",
"]  c #D50000",
"[  c #D70000",
"{  c #6E805A",
"}  c #73855F",
"|  c #808080",
" . c gray51",
".. c #838383",
"X. c #848484",
"o. c gray52",
"O. c #868686",
"+. c #888888",
"@. c #898989",
"#. c gray54",
"$. c #8B8B8B",
"%. c #8D8D8D",
"&. c #8E8E8E",
"*. c gray57",
"=. c gray59",
"-. c #B8A483",
";. c None",
/* pixels */
";.;.r r q 0 7 7 7 7 7 7 ;.;.",
";.z v c l k j f d i u e t ;.",
"g p s a y 0 0 9 0 0 8 7 8 g ",
"g } { C V N N m n x b B N ; ",
"4 w 1 1 1 1 w 1 1 1 1 1 w . ",
"* < 1 1 ; 6 -.# ; ; ; 1 < X ",
"* 1 < $ $ @ h + $ $ ; < 1 X ",
"* 3 1 < < $ $ $ $ < < 1 3 X ",
"= w 2 *.#.Y ] [ H X.*.2 w X ",
"= w w O.I G ' ' J K %.1 w X ",
"O 3 3 O.^ ) _ _ ` Q &.: 3 X ",
"O : : | ! / ( ( W ~ ..- : X ",
"* ; ; +.P D E R A F o.% ; . ",
"* $ o L S M 5 5 Z S ..o $ . ",
"  , &  .@.X.U T $.%.=.> ,   "
};
