/* XPM */
static char *_4520_6191347fdf7160474de17b46e97979b41df9400251aac1b1d61d6650bd36b21e[] = {
/* columns rows colors chars-per-pixel */
"45 30 256 2 ",
"   c #001000",
".  c #001000",
"X  c #0C180C",
"o  c #142414",
"O  c #1C2C1C",
"+  c #243024",
"@  c #303C2C",
"#  c #384434",
"$  c #404C3C",
"%  c #4C5444",
"&  c #545C50",
"*  c #5C6454",
"=  c #646C60",
"-  c #707468",
";  c #747C70",
":  c #808478",
">  c #84887C",
",  c #8C9084",
"<  c #90988C",
"1  c #949C90",
"2  c #98A494",
"3  c #A0A89C",
"4  c #A8B0A0",
"5  c #ACB4A8",
"6  c #B0B8AC",
"7  c #B8C0B4",
"8  c #BCC8BC",
"9  c #C4CCC0",
"0  c #C4D4C4",
"q  c #CCD8CC",
"w  c #D4E0D4",
"e  c #DCECDC",
"r  c #001000",
"t  c #001000",
"y  c #081000",
"u  c #141800",
"i  c #1C1C04",
"p  c #202008",
"a  c #28280C",
"s  c #342C10",
"d  c #382C14",
"f  c #403414",
"g  c #483818",
"h  c #543C1C",
"j  c #58441C",
"k  c #604820",
"l  c #684824",
"z  c #705028",
"x  c #785830",
"c  c #7C6034",
"v  c #846438",
"b  c #8C6C3C",
"n  c #907444",
"m  c #947C4C",
"M  c #988054",
"N  c #A08C58",
"B  c #A49460",
"V  c #A89C68",
"C  c #B0A470",
"Z  c #B8A878",
"A  c #BCB080",
"S  c #C0B888",
"D  c #C4C090",
"F  c #CCCC98",
"G  c #446480",
"H  c #486884",
"J  c #50708C",
"K  c #547890",
"L  c #588094",
"P  c #60849C",
"I  c #688CA4",
"U  c #6C94A8",
"Y  c #709CB0",
"T  c #78A4B4",
"R  c #80A8BC",
"E  c #88B0C0",
"W  c #8CB8C4",
"Q  c #94C0CC",
"!  c #9CC8D4",
"~  c #A4D0DC",
"^  c #001000",
"/  c #001000",
"(  c #00140C",
")  c #081814",
"_  c #0C201C",
"`  c #102424",
"'  c #142C2C",
"]  c #1C3038",
"[  c #1C343C",
"{  c #203C44",
"}  c #244050",
"|  c #2C4854",
" . c #30485C",
".. c #345068",
"X. c #385470",
"o. c #3C5C78",
"O. c #001000",
"+. c #001000",
"@. c #081804",
"#. c #142008",
"$. c #1C2C0C",
"%. c #203014",
"&. c #283818",
"*. c #34401C",
"=. c #384820",
"-. c #405024",
";. c #48582C",
":. c #546030",
">. c #586438",
",. c #606C38",
"<. c #68743C",
"1. c #708044",
"2. c #788448",
"3. c #809048",
"4. c #84984C",
"5. c #889C50",
"6. c #8CA454",
"7. c #8CA854",
"8. c #90B054",
"9. c #94B858",
"0. c #94BC58",
"q. c #94C45C",
"w. c #98CC5C",
"e. c #98D060",
"r. c #98D460",
"t. c #98DC64",
"y. c #98E464",
"u. c #98EC68",
"i. c #001000",
"p. c #081000",
"a. c #141000",
"s. c #201000",
"d. c #2C1400",
"f. c #381800",
"g. c #481C00",
"h. c #542000",
"j. c #602404",
"k. c #702804",
"l. c #782C08",
"z. c #882C08",
"x. c #943008",
"c. c #A0340C",
"v. c #AC380C",
"b. c #BC3C10",
"n. c #544814",
"m. c #585400",
"M. c #645C00",
"N. c #706400",
"B. c #786C04",
"V. c #807804",
"C. c #8C8004",
"Z. c #948804",
"A. c #98900C",
"S. c #A49C0C",
"D. c #ACA40C",
"F. c #B8AC10",
"G. c #BCB810",
"H. c #C4BC10",
"J. c #D0CC10",
"K. c #DCD414",
"L. c #001000",
"P. c #001000",
"I. c #041400",
"U. c #0C1804",
"Y. c #101C0C",
"T. c #182010",
"R. c #1C2814",
"E. c #202C18",
"W. c #282C1C",
"Q. c #2C3420",
"!. c #343824",
"~. c #383C28",
"^. c #3C442C",
"/. c #404830",
"(. c #484838",
"). c #505038",
"_. c #545840",
"`. c #5C6044",
"'. c #68644C",
"]. c #706C54",
"[. c #787458",
"{. c #807C60",
"}. c #888068",
"|. c #90886C",
" X c #949070",
".X c #9C9878",
"XX c #A89C80",
"oX c #ACA488",
"OX c #B8A88C",
"+X c #BCB094",
"@X c #C4B898",
"#X c #CCC0A0",
"$X c #2C2800",
"%X c #383000",
"&X c #4C3800",
"*X c #5C4000",
"=X c #704800",
"-X c #7C4C00",
";X c #8C5400",
":X c #9C5800",
">X c #AC6000",
",X c #B06814",
"<X c #B87428",
"1X c #BC8038",
"2X c #C08C4C",
"3X c #C49C60",
"4X c #CCA474",
"5X c #D4B88C",
"6X c #BC4814",
"7X c #BC5018",
"8X c #C06020",
"9X c #C46828",
"0X c #C47830",
"qX c #C88038",
"wX c #CC8C3C",
"eX c #D09C44",
"rX c #D0A450",
"tX c #D0B054",
"yX c #D4B864",
"uX c #D4C46C",
"iX c #D8CC78",
"pX c #D8D480",
"aX c #D8D88C",
"sX c #DCE094",
"dX c #041C2C",
"fX c #041438",
"gX c #101440",
"hX c #18144C",
"jX c #281450",
"kX c #381C54",
"lX c #482058",
"zX c #582460",
"xX c #6C2468",
"cX c #742C64",
"vX c #842C5C",
"bX c #8C2454",
"nX c #983040",
"mX c #A43430",
"MX c #B03814",
"NX c #BC3C10",
"BX c #384800",
"VX c #8C9C00",
"CX c #DCEC00",
"ZX c #381038",
"AX c #8C108C",
"SX c #DC10DC",
"DX c #4C1000",
"FX c #941000",
"GX c #DC1000",
"HX c #004800",
"JX c #009C00",
"KX c #00EC00",
"LX c #001038",
"PX c #00108C",
"IX c #0010DC",
"UX c #001000",
/* pixels */
"k.l.l.k.l.l.l.l.l.k.l.k.k.k.l.l.l.l.k.k.l.l.k.l.l.z.UXUXUXUXUXUXUXUXUXUXUXUXUXUXUXUXUXUXUX",
"h.j.j.k.j.k.j.k.j.j.k.j.j.k.k.j.k.k.k.j.j.k.j.j.k.j.UXUXUXUXUXUXUXUXUXUXUXUXUXUXUXUXUXUXUX",
"UXh.h.h.h.h.h.h.h.h.h.h.h.h.h.h.h.h.h.h.h.h.h.h.h.UXUXUXUXUXUXUXUXUXUXUXUXUXUXUXUXUXUXUXUX",
"UXE.E.E.E.E.E.E.E.E.E.E.E.E.E.E.E.E.E.E.E.E.E.E.E.UXUXUXUXUXUXUXUXUXUXUXUXUXUXUXUXUXUXUXUX",
"UXUXE.E.E.E.E.E.E.E.E.E.E.E.E.E.E.E.E.E.E.E.E.W.UXUXUXUXUXUXUXUXUXUXUXUXUXUXUXUXUXUXUXUXUX",
"UXUXW.W.W.W.W.W.W.W.W.W.W.W.W.W.W.W.W.W.W.W.W.Q.UXUXUXUXUXUXUXUXUXUXUXUXUXUXUXUXUXUXUXUXUX",
"UXUXW.W.+ Q.+ + Q.+ Q.Q.+ Q.+ Q.Q.+ Q.Q.+ + Q.+ UXUXUXUXUXUXUXUXUXUXUXUXUXUXUXUXUXUXUXUXUX",
"UXUXUX+ + + Q.Q.+ Q.+ Q.Q.+ Q.Q.+ Q.+ + Q.Q.+ UXUXUXUXUXUXUXUXUXUXUXUXUXUXUXUXUXUXUXUXUXUX",
"UXUXUXQ.+ Q.Q.+ + + Q.+ Q.+ Q.+ Q.+ Q.Q.Q.+ Q.UXUXUXUXUXUXUXUXUXUXUXUXUXUXUXUXUXUXUXUXUXUX",
"UXUXUX!.!.!.!.!.!.!.!.!.!.!.!.!.!.!.!.!.!.!.!.UXUXUXUXUXUXUXUXUXUXUXUXUXUXUXUXUXUXUXUXUXUX",
"UXUXQ.~.g n.n.f.g.f.g.g.f.g.f.f.g.g.f.f.f.d.~.Q.UXUXUXUXUXUXUXUXUXUXUXUXUXUXUXUXUXUXUXUXUX",
"UXUX~.W.d f f s.s.s.s.s.s.s.s.s.s.s.s.s.s.s.W.~.UXg.j.l.c.l.UXUXUXUXUXUXUXUXUXUXUXUXUXUXUX",
"UXQ.~.f.g.h.g.h.h.g.h.h.g.h.g.h.g.h.h.g.M.M.m.~.Q.f.h.k.x.k.UXUXUXUXUXUXUXUXUXUXUXUXUXUXUX",
"UX~.W.d.f.f.f.f.f.f.f.f.f.f.f.f.f.f.f.f.g g h W.~.f.h.k.c.l.UXUXg.j.l.c.l.UXUXUXUXUXUXUXUX",
"Q.~.M.N.B.j.k.k.k.k.k.k.l.k.k.k.l.l.l.k.l.k.j.g.~.Q.h.k.x.l.UXUXf.h.k.x.k.UXUXUXUXUXUXUXUX",
"~.W.m.n.n.h.h.h.h.h.h.h.h.h.h.h.h.h.h.h.h.h.h.g.W.~.h.k.c.k.UXUXf.h.k.c.l.UXUXUXUXUXUXUXUX",
"k.l.z.l.z.l.l.z.z.x.x.z.z.z.x.z.z.x.x.z.x.k.h.z.x.z.h.k.x.k.UXUXf.h.k.x.l.UXUXUXUXUXUXUXUX",
"h.j.f.j.j.j.j.j.j.j.h.h.j.j.k.l.z.l.l.l.l.k.j.z.z.z.h.k.c.l.UXUXf.h.k.c.k.UXUXUXUXUXUXUXUX",
"h.f.f.g.j.f.f.a.f.a.f.f.j.a.g.s.a.f.a.f.l.g.f.g.j.l.h.k.c.k.UXUXf.h.k.x.k.UXUXUXUXUXUXUXUX",
"h.k.j.k.l.k.l.k.l.l.l.k.l.z.l.l.l.l.l.l.l.l.k.l.z.z.h.k.x.l.UXUXf.h.k.c.l.UXUXUXUXUXUXUXUX",
"h.j.a.g.s.a.f.a.d.k.j.d.g.h.l.s.a.f.a.d.z.l.k.z.l.z.h.k.x.k.UXUXf.h.k.c.k.UXUXUXUXUXUXUXUX",
"h.j.k.k.l.l.k.k.l.l.l.l.l.l.k.l.l.l.l.l.l.l.k.l.l.z.h.k.c.k.UXUXf.h.k.x.l.UXUXUXUXUXUXUXUX",
"%.&.*.&.&.&.*.*.&.&.*.&.&.&.*.&.&.&.*.&.&.&.%.*.&.=.h.k.c.l.UXUXf.h.k.x.k.UXUXUXUXUXUXUXUX",
"%.&.&.> ; % *.&.*.*.&.*.*.&.*.*.&.*.&.*.*.&.%.&.*.=.h.k.x.k.UXUXf.h.k.c.k.UXUXUXUXUXUXUXB.",
"%.&.*.; % ; *.*.*.*.*.= *.*.*.*.*.> *.*.*.*.*.*.&.=.h.k.j.j.j.j.f.h.k.c.l.k.k.l.k.l.N.M.Z.",
"%.&.&.> > = , > ; > ; < > , : ; ; > - ; - < > *.*.=.n.m.h.k.k.j.f.h.k.x.k.z.x.z.x.l.B.M.B.",
"%.&.*.; $ > > ; > & > < > ; - , & > & > ; > - &.*.=.m.n.g.g.g.g.f.h.k.x.l.j.j.j.j.j.M.n.M.",
"%.&.&.*.*.&.*.&.*.*.&.*.&.*.& ; &.*.*.&.*.*.&.*.&.=.n.g f.f.f.f.f m.N.N.M.f.f.f.f.f.g f j ",
"%.%.&.*.&.&.&.&.*.&.&.&.*.&.&.&.*.&.&.&.&.*.&.&.&.=.UXUXd.d.d.d.g n.M.V.B.d.d.d.d.d.f f g ",
"%.%.%.%.%.%.%.%.%.%.%.%.%.%.%.%.%.%.%.%.%.%.%.%.%.%.UXUXUXUXUXg n.M.B.C.Z.B.UXUXUXUXUXUXf "
};
