/* XPM */
static char *_1745_f99a424d8619978ff1095b6057459d0c4f4fcc4698dc0657510502a70dd28add[] = {
/* columns rows colors chars-per-pixel */
"83 86 256 2 ",
"   c #001000",
".  c #001000",
"X  c #0C180C",
"o  c #142414",
"O  c #1C2C1C",
"+  c #243024",
"@  c #303C2C",
"#  c #384434",
"$  c #404C3C",
"%  c #4C5444",
"&  c #545C50",
"*  c #5C6454",
"=  c #646C60",
"-  c #707468",
";  c #747C70",
":  c #808478",
">  c #84887C",
",  c #8C9084",
"<  c #90988C",
"1  c #949C90",
"2  c #98A494",
"3  c #A0A89C",
"4  c #A8B0A0",
"5  c #ACB4A8",
"6  c #B0B8AC",
"7  c #B8C0B4",
"8  c #BCC8BC",
"9  c #C4CCC0",
"0  c #C4D4C4",
"q  c #CCD8CC",
"w  c #D4E0D4",
"e  c #DCECDC",
"r  c #001000",
"t  c #001000",
"y  c #081000",
"u  c #141800",
"i  c #1C1C04",
"p  c #202008",
"a  c #28280C",
"s  c #342C10",
"d  c #382C14",
"f  c #403414",
"g  c #483818",
"h  c #543C1C",
"j  c #58441C",
"k  c #604820",
"l  c #684824",
"z  c #705028",
"x  c #785830",
"c  c #7C6034",
"v  c #846438",
"b  c #8C6C3C",
"n  c #907444",
"m  c #947C4C",
"M  c #988054",
"N  c #A08C58",
"B  c #A49460",
"V  c #A89C68",
"C  c #B0A470",
"Z  c #B8A878",
"A  c #BCB080",
"S  c #C0B888",
"D  c #C4C090",
"F  c #CCCC98",
"G  c #446480",
"H  c #486884",
"J  c #50708C",
"K  c #547890",
"L  c #588094",
"P  c #60849C",
"I  c #688CA4",
"U  c #6C94A8",
"Y  c #709CB0",
"T  c #78A4B4",
"R  c #80A8BC",
"E  c #88B0C0",
"W  c #8CB8C4",
"Q  c #94C0CC",
"!  c #9CC8D4",
"~  c #A4D0DC",
"^  c #001000",
"/  c #001000",
"(  c #00140C",
")  c #081814",
"_  c #0C201C",
"`  c #102424",
"'  c #142C2C",
"]  c #1C3038",
"[  c #1C343C",
"{  c #203C44",
"}  c #244050",
"|  c #2C4854",
" . c #30485C",
".. c #345068",
"X. c #385470",
"o. c #3C5C78",
"O. c #001000",
"+. c #001000",
"@. c #081804",
"#. c #142008",
"$. c #1C2C0C",
"%. c #203014",
"&. c #283818",
"*. c #34401C",
"=. c #384820",
"-. c #405024",
";. c #48582C",
":. c #546030",
">. c #586438",
",. c #606C38",
"<. c #68743C",
"1. c #708044",
"2. c #788448",
"3. c #809048",
"4. c #84984C",
"5. c #889C50",
"6. c #8CA454",
"7. c #8CA854",
"8. c #90B054",
"9. c #94B858",
"0. c #94BC58",
"q. c #94C45C",
"w. c #98CC5C",
"e. c #98D060",
"r. c #98D460",
"t. c #98DC64",
"y. c #98E464",
"u. c #98EC68",
"i. c #001000",
"p. c #081000",
"a. c #141000",
"s. c #201000",
"d. c #2C1400",
"f. c #381800",
"g. c #481C00",
"h. c #542000",
"j. c #602404",
"k. c #702804",
"l. c #782C08",
"z. c #882C08",
"x. c #943008",
"c. c #A0340C",
"v. c #AC380C",
"b. c #BC3C10",
"n. c #544814",
"m. c #585400",
"M. c #645C00",
"N. c #706400",
"B. c #786C04",
"V. c #807804",
"C. c #8C8004",
"Z. c #948804",
"A. c #98900C",
"S. c #A49C0C",
"D. c #ACA40C",
"F. c #B8AC10",
"G. c #BCB810",
"H. c #C4BC10",
"J. c #D0CC10",
"K. c #DCD414",
"L. c #001000",
"P. c #001000",
"I. c #041400",
"U. c #0C1804",
"Y. c #101C0C",
"T. c #182010",
"R. c #1C2814",
"E. c #202C18",
"W. c #282C1C",
"Q. c #2C3420",
"!. c #343824",
"~. c #383C28",
"^. c #3C442C",
"/. c #404830",
"(. c #484838",
"). c #505038",
"_. c #545840",
"`. c #5C6044",
"'. c #68644C",
"]. c #706C54",
"[. c #787458",
"{. c #807C60",
"}. c #888068",
"|. c #90886C",
" X c #949070",
".X c #9C9878",
"XX c #A89C80",
"oX c #ACA488",
"OX c #B8A88C",
"+X c #BCB094",
"@X c #C4B898",
"#X c #CCC0A0",
"$X c #2C2800",
"%X c #383000",
"&X c #4C3800",
"*X c #5C4000",
"=X c #704800",
"-X c #7C4C00",
";X c #8C5400",
":X c #9C5800",
">X c #AC6000",
",X c #B06814",
"<X c #B87428",
"1X c #BC8038",
"2X c #C08C4C",
"3X c #C49C60",
"4X c #CCA474",
"5X c #D4B88C",
"6X c #BC4814",
"7X c #BC5018",
"8X c #C06020",
"9X c #C46828",
"0X c #C47830",
"qX c #C88038",
"wX c #CC8C3C",
"eX c #D09C44",
"rX c #D0A450",
"tX c #D0B054",
"yX c #D4B864",
"uX c #D4C46C",
"iX c #D8CC78",
"pX c #D8D480",
"aX c #D8D88C",
"sX c #DCE094",
"dX c #041C2C",
"fX c #041438",
"gX c #101440",
"hX c #18144C",
"jX c #281450",
"kX c #381C54",
"lX c #482058",
"zX c #582460",
"xX c #6C2468",
"cX c #742C64",
"vX c #842C5C",
"bX c #8C2454",
"nX c #983040",
"mX c #A43430",
"MX c #B03814",
"NX c #BC3C10",
"BX c #384800",
"VX c #8C9C00",
"CX c #DCEC00",
"ZX c #381038",
"AX c #8C108C",
"SX c #DC10DC",
"DX c #4C1000",
"FX c #941000",
"GX c #DC1000",
"HX c #004800",
"JX c #009C00",
"KX c #00EC00",
"LX c #001038",
"PX c #00108C",
"IX c #0010DC",
"UX c #001000",
/* pixels */
"UXUXUXUXUXUXUXUXUXUXUXUXUXUXUXUXUXUXUXUXUXUXUX~.+ @ # # # # # % UXUXUXUXUXUXUXUXUXUXUXUXUXUXUXUXUXUXUXUXUX# @ # # # # # $ UXUXUXUXUXUXUXUXUXUXUXUXUXUXUXUXUXUXUXUXUXUX",
"UXUXUXUXUXUXUXUXUXUXUXUXUXUXUXUXUXUXUXUXUXO @ $ 2 8 q w w 9 2 & $ UXUXUXUXUXUXUXUXUXUXUXUXUXUXUXUXUXUX+ # - 6 0 w w w 7 ; & # UXUXUXUXUXUXUXUXUXUXUXUXUXUXUXUXUXUXUXUX",
"UXUXUXUXUXUXUXUXUXUXUXUXUXUXUXUXUXUXUXUX@ $ 2 0 w e e e e e e e 1 * $ UXUXUXUXUXUXUXUXUXUXUXUXUXUX+ # - 8 e e e e e e e e q : & & UXUXUXUXUXUXUXUXUXUXUXUXUXUXUXUXUXUX",
"UXUXUXUXUXUXUXUXUXUXUXUXUXUXUXUXUXUXUX@ % 7 w e e e e e e e e e e w = & UXUXUXUXUXUXUXUXUXUXUXUX(.# 2 w e e e e e e e e e e e 2 * UXUXUXUXUXUXUXUXUXUXUXUXUXUXUXUXUXUX",
"UXUXUXUXUXUXUXUXUXUXUXUXUXUXUXUXUXUXO $ 6 q e e e e e e e e e e e e 9 = UXUXUXUXUXUXUXUXUXUXUXUX# - w e e e e e e e e e e e e e > = UXUXUXUXUXUXUXUXUXUXUXUXUXUXUXUXUX",
"UXUXUXUXUXUXUXUXUXUXUXUXUXUXUXUXUX(.# 2 q e e e e e e e e e e e e e e 3 = UXUXUXUXUXUXUXUXUXUXO & q e e e e e e e e e e e e e e e = $ UXUXUXUXUXUXUXUXUXUXUXUXUXUXUXUX",
"UXUXUXUXUXUXUXUXUXUXUXUXUXUXUXUXUXY.$ 7 q e e e e e e e e e e e e e e w = UXUXUXUXUXUXUXUXUXUX# : w e e e e e e e e e e e e e e e 1 & UXUXUXUXUXUXUXUXUXUXUXUXUXUXUXUX",
"UXUXUXUXUXUXUXUXUXUXUXUXUXUXUXUXUXO * 9 q e e e e e e e e e e e e e e e = UXUXUXUXUXUXUXUXUXUX$ 2 w e e e e e e e e e e e e e e e 8 = UXUXUXUXUXUXUXUXUXUXUXUXUXUXUXUX",
"UXUXUXUXUXUXUXUXUXUXUXUXUXUXUXUXUX@ - q q e e e e e e e e e e e e e e e = UXUXUXUXUXUXUXUXUXUX$ 6 w e e e e e e e e e e e e e e e w = UXUXUXUXUXUXUXUXUXUXUXUXUXUXUXUX",
"UXUXUXUXUXUXUXUXUXUXUXUXUXUXUXUXUXY.& 7 q e e e e e e e e e e e e e e e = UXUXUXUXUXUXUXUXUXUX# 2 w e e e e e e e e e e e e e e e 2 & UXUXUXUXUXUXUXUXUXUXUXUXUXUXUXUX",
"UXUXUXUXUXUXUXUXUXUXUXUXUXUXUXUXUX@.# 4 q w e e e e e e e e e e e e e 0 & UXUXUXUXUXUXUXUXUXUX@ - q e e e e e e e e e e e e e e e 2 % UXUXUXUXUXUXUXUXUXUXUXUXUXUXUXUX",
"UXUXUXUXUXUXUXUXUXUXUXUXUXUXUXUXUXUX# ; 9 q w e e e e e e e e e e e e ; + @.@.@.X X Y.o o o Y.Y.$ 7 q e e e e e e e e e e e e e w & @ UXUXUXUXUXUXUXUXUXUXUXUXUXUXUXUX",
"UXUXUXUXUXUXUXUXUXUXUXUXUXUXUXUXUXUXO # 2 7 q w e e e e e e e e e e , @.@.@.X Y.Y.o o O + + + + O % 7 q e e e e e e e e e e e w & # UXUXUXUXUXUXUXUXUXUXUXUXUXUXUXUXUX",
"UXUXUXUXUXUXUXUXUXUXUXUXUXUXUXUXUXUXUXo # 1 7 q q w e e e e e e e ; @.Y.Y.o O O + + @ @ @ # # # # + % 7 q w e e e e e e e e q = @ UXUXUXUXUXUXUXUXUXUXUXUXUXUXUXUXUXUX",
"UXUXUXUXUXUXUXUXUXUXUXUXUXUXUXUXUXUXUXUXO @ * 3 7 7 0 q q w 0 2 @ @.Y.o o + @ @ o @ # $ $ $ + # $ $ @ @ : 6 7 0 q w w q 8 , # + UXUXUXUXUXUXUXUXUXUXUXUXUXUXUXUXUXUXUX",
"UXUXUXUXUXUXUXUXUXUXUXUXUXUXUXUXUXUXUXUXUXUXo + $ * - - - * % Y.@.Y.O @ 4 + # O 4 + + & & % 4 + $ & $ @ O # & - - - - & @ O (.UXUXUXUXUXUXUXUXUXUXUXUXUXUXUXUXUXUXUXUX",
"UXUXUXUXUXUXUXUXUXUXUXUXUXUXUXUXUXUXUXUXUXUXUXUX@.Y.o o o Y.@.@.Y.O @ + # $ - ; O + @ q w - * & & = & $ @ + Y.o o o Y.Y.(.UXUXUXUXUXUXUXUXUXUXUXUXUXUXUXUXUXUXUXUXUXUX",
"UXUXUXUXUXUXUXUXUXUXUXUXUXUXUXUXUXUXUXUXUXUXUXUXUXUXUXUXUXUX@.@.o + # # $ - 4 9 8 5 e e e e ; = = = & & # UXUXUXUXUXUXUXUXUXUXUXUXUXUXUXUXUXUXUXUXUXUXUXUXUXUXUXUXUXUX",
"UXUXUXUXUXUXUXUXUXUXUXUXUXUXUXUXUXUXUXUXUXUXUXUXUXUXUXUXUXUX@.@.O @ # $ % 3 7 q e e e e e e q = = = = & $ O UXUXUXUXUXUXUXUXUXUXUXUXUXUXUXUXUXUXUXUXUXUXUXUXUXUXUXUXUX",
"UXUXUXUXUXUXUXUXUXUXUXUXUXUXUXUXUXUXUXUXUXUXUXUXUXUXUXUXUXUX@.Y.O # # $ & 1 7 q w e e e e e e = = = = & $ + UXUXUXUXUXUXUXUXUXUXUXUXUXUXUXUXUXUXUXUXUXUXUXUXUXUXUXUXUX",
"UXUXUXUXUXUXUXUXUXUXUX@ $ $ $ % $ # @ UXUXUXUXUXUXUXUXUXUXUX@.Y.O @ # # # % 6 7 q q e e e w & = = = & & $ @ UXUXUXUXUXUXUXUXUXUXUXUXUXUXUXUXUXUXUXUXUXUXUXUXUXUXUXUXUX",
"UXUXUXUXUXUXUXUXUX$ % % % * = = = = * $ # @ # UXUXUXUXUXUXUX@.@.O @ # # # # & 4 6 6 8 0 q & # & & & & % # + UXUXUXUXUXUXUXUXT.o @ # $ % $ $ $ @ UXUXUXUXUXUXUXUXUXUXUX",
"UXUXUXUXUXUXUX# $ % % % & = = = & & * = * * & $ # UXUXUXUXUX@.@.Y.+ @ # # $ # * % % % = & & % & & % $ $ # O UXUXUXUXUX(.O # % & * = = = = * % % % $ UXUXUXUXUXUXUXUXUX",
"UXUXUXUXUXUX@ # # % & % @ @ + O O + + & * * = = * & $ UXUXUX@.@.@.o O + @ @ ; 6 3 > > : : 7 # $ $ $ # # + UXUXUXUX!.+ $ * = = = * & & = = = & % % % $ # UXUXUXUXUXUXUX",
"UXUXUXUXUX$ $ # # @ = @ @ X I.I.I.I.@.O @ # % * = = = & UXUXUX@.@.Y.o O O + ; 7 9 q e e e > @ @ @ @ @ @ O UXUXUXO # * = * & $ # + + O O + @ @ % & % # # @ UXUXUXUXUXUX",
"UXUXUXUXe e e e e @ @ o X UXUXUXUXUX(.X @.Y.+ # % * = - * & UXUX@.@.@.Y.Y.o * ; 1 3 1 , ; % O + + + + O UXUXUX@ % = * & # + o @.@.I.I.I.I.X @ @ = @ # # $ $ UXUXUXUXUX",
"UXUXUXe e e e e e e o o UXUXUXUXUXUXUXUXUXUX@.Y.+ $ * = - = % UXI.@.@.@.@.@.@.$ = - - : % Y.o O O O o UXUX(.# & = * $ + o X ~.UXUXUXUXUXUXUXX o @ @ e e e e e UXUXUXUX",
"UXUX7 7 8 8 8 8 8 e e UXUXUXUXUXUXUXUXUXUXUXUX(.@.O # & = - = UXUXI.I.I.@.@.@.@.@.@.@.@.@.@.X Y.o o UXUXUX# & * & # O Y.UXUXUXUXUXUXUXUXUXUXUXo o e e e e e e e UXUXUX",
"UX7 8 8 q e e e e w q 5 UXUXUXUXUXUXUXUXUXUXUXUXUX@.O # & = - & UXUXO I.I.I.I.@.I.I.@.I.I.@.@.@.@.UXUXUX@ & * & @ O ~.UXUXUXUXUXUXUXUXUXUXUXUXUXe e 8 8 8 8 8 7 7 UXUX",
"0 8 q q e e e e w q 9 9 UXUXUXUXUXUXUXUXUXUXUXUXUXUX@.+ $ * = - $ + @.o O + @ # # $ $ $ $ $ $ $ # + UXO % * & # + UXUXUXUXUXUXUXUXUXUXUXUXUXUX5 q w e e e e q 8 8 7 UX",
"w q e e e e e e w 4 0 8 3 UXUXUXUXUXUXUXUXUXUXUXUXUXUXY.# % * $ @.Y.O @ # # $ $ % & & & & & & & & % # @ * & $ + UXUXUXUXUXUXUXUXUXUXUXUXUXUXUX9 9 q w e e e e q q 8 0 ",
"w e e e e e w q 4 > 5 7 3 UXUXUXUXUXUXUXUXUXUXUXUXUXUXO + $ # @.o + @ # # % : 7 w w w w 8 : = = = & & $ @ $ @ % UXUXUXUXUXUXUXUXUXUXUXUXUXUX3 8 0 4 w e e e e e e q w ",
"8 q e w w 0 7 4 4 * ; 4 3 UXUXUXUXUXUXUXUXUXUXUXUXUXUXUXo # @.Y.+ # # $ & 4 0 w e e e e e e 6 = = = * & # @ @ UXUXUXUXUXUXUXUXUXUXUXUXUXUXUX3 7 5 > 4 q w e e e e e w ",
"1 5 7 7 6 3 2 2 3 * * 7 UXUXUXUXUXUXUXUXUXUXUXUXUXUXUXUX@.@.Y.O @ # $ - 4 0 w e e e e e e e e w ; = = = % # UXUXUXUXUXUXUXUXUXUXUXUXUXUXUXUX3 4 ; * 4 4 7 0 w w e q 8 ",
"UX- - - ; < > > : * & UXUXUXUXUXUXUXUXUXUXUXUXUXUXUXUXUXO @.O @ # $ * 4 7 q e e e e e e e e e e e = = = & % + UXUXUXUXUXUXUXUXUXUXUXUXUXUXUXUX7 * * 3 2 2 3 6 7 7 5 1 ",
"UXUX- - - - - = = * UXUXUXUXUXUXUXUXUXUXUXUXUXUXUXUXUXUX@.o + # # $ - 7 9 w e e e e e e e e e e e 5 = = = & $ UXUXUXUXUXUXUXUXUXUXUXUXUXUXUXUXUX& * : > > < ; - - - UX",
"UXUXUXUXUXUXUXUXUXUXUXUXUXUXUXUXUXUXUXUXUXUXUXUXUXUXUXUX@.O @ # $ = 4 7 q w e e e e e e e e e e e e = = = & % + UXUXUXUXUXUXUXUXUXUXUXUXUXUXUXUXUX* = = - - - - - UXUX",
"UXUXUXUXUXUXUXUXUXUXUXUXUXUXUXUXUXUXUXUXUXUXUXUXUXUXUXO Y.O @ # $ - 6 9 q w e e e e e e e e e e e e 0 = = & % @ UXUXUXUXUXUXUXUXUXUXUXUXUXUXUXUXUXUXUXUXUXUXUXUXUXUXUX",
"UXUXUXUXUXUXUXUXUXUXUXUXUXUXUXUXUXUXUXUXUXUXUXUXUXUXUX@.Y.O @ # $ 1 6 9 q q e e e e e e e e e e e e w = = & % # UXUXUXUXUXUXUXUXUXUXUXUXUXUXUXUXUXUXUXUXUXUXUXUXUXUXUX",
"UXUXUXUXUXUXUXUXUXUXUXUXUXUXUXUXUXUXUXUXUXUXUXUXUXUXUX@.o + @ # & 1 6 7 q q w e e e e e e e e e e e w * & & % $ UXUXUXUXUXUXUXUXUXUXUXUXUXUXUXUXUXUXUXUXUXUXUXUXUXUXUX",
"UXUXUXUXUXUXUXUXUXUXUXUXUXUXUXUXUXUXUXUXUXUXUXUXUXUXUX@.o + @ # = 1 6 7 9 q yXuXuXuXuXuXpXe e e e e w = & & % $ R.UXUXUXUXUXUXUXUXUXUXUXUXUXUXUXUXUXUXUXUXUXUXUXUXUXUX",
"UXUXUXUXUXUXUXUXUXUXUXUXUXUXUXUXUXUXUXUXUXUXUXUXUXUXUX@.o + b.b.b.b.2X1X1XyXaXaXaXaXaXuXuXuXl.z.c.c.v.= & & % $ + UXUXUXUXUXUXUXUXUXUXUXUXUXUXUXUXUXUXUXUXUXUXUXUXUXUX",
"UXUXUXUXUXUXUXUXUXUXUXUXUXUXUXUXUXUXUXUXUXUXUXUXUXUXv.x.v.v.b.b.9X9X9X1X2XuXaXaXsXsXaXuXuXuXuXk.c.v.v.v.b.b.b.b.b.b.UXUXUXUXUXUXUXUXUXUXUXUXUXUXUXUXUXUXUXUXUXUXUXUXUX",
"UXUXUXUXUXUXUXUXUXUXUXUXUXUXUXUXUXUXUXUXUXUXUXl.l.z.x.x.x.v.b.b.b.9X9X9XyXaXaXsXaXaXpXiXuXuXuXk.z.c.v.v.v.v.b.b.b.b.b.b.b.UXUXUXUXUXUXUXUXUXUXUXUXUXUXUXUXUXUXUXUXUXUX",
"UXUXUXUXUXUXUXUXUXUXUXUXUXUXUXUXUXUXUXUXUXUXh.l.l.l.z.x.x.x.v.v.b.b.b.b.yXuXuXiXpXiXiXiXiXyXuXk.x.c.v.v.v.b.b.b.b.b.b.b.b.UXUXUXUXUXUXUXUXUXUXUXUXUXUXUXUXUXUXUXUXUXUX",
"UXUXUXUXUXUXUXUXUXUXUXUXUXUXUXUXUXUXUXUXUXUXh.l.l.l.z.z.x.x.x.b.v.v.b.b.z.tXuXiXiXiXiXiXyXyXyXl.z.c.v.b.b.b.b.b.b.b.b.b.v.UXUXUXUXUXUXUXUXUXUXUXUXUXUXUXUXUXUXUXUXUXUX",
"UXUXUXUXUXUXUXUXUXUXUXUXUXUXUXUXUXUXUXUXUXUXh.h.l.l.l.z.z.x.x.x.x.x.x.v.l.tXyXyXyXyXyXyXyXyXd.z.l.x.b.b.b.b.b.b.b.b.b.b.c.UXUXUXUXUXUXUXUXUXUXUXUXUXUXUXUXUXUXUXUXUXUX",
"UXUXUXUXUXUXUXUXUXUXUXUXUXUXUXUXUXUXUXUXUXUXUXh.h.l.l.l.z.z.z.x.x.x.x.x.x.k.tXtXtXtXtXtXtXd.j.z.z.x.b.b.b.b.b.b.b.b.b.v.v.UXUXUXUXUXUXUXUXUXUXUXUXUXUXUXUXUXUXUXUXUXUX",
"UXUXUXUXUXUXUXUXUXUXUXUXUXUXUXUXUXUXUXUXUXUXUXh.h.h.l.l.l.l.z.z.z.z.x.x.x.x.h.g.f.d.s.d.d.j.l.x.x.x.x.x.v.v.v.v.v.v.v.x.UXUXUXUXUXUXUXUXUXUXUXUXUXUXUXUXUXUXUXUXUXUXUX",
"UXUXUXUXUXUXUXUXUXUXUXUXUXUXUXUXUXUXUXUXUXUXUXh.h.h.h.h.h.l.l.l.l.z.z.z.z.z.z.z.l.l.l.l.l.k.z.z.z.x.x.x.x.x.x.x.x.x.x.z.UXUXUXUXUXUXUXUXUXUXUXUXUXUXUXUXUXUXUXUXUXUXUX",
"UXUXUXUXUXUXUXUXUXUXUXUXUXUXUXUXUXUXUXUXUXUXUXUXf.h.h.h.h.h.h.l.l.l.l.l.l.l.l.l.l.l.l.l.l.l.l.l.l.l.l.l.z.x.x.x.x.z.l.UXUXUXUXUXUXUXUXUXUXUXUXUXUXUXUXUXUXUXUXUXUXUXUX",
"UXUXUXUXUXUXUXUXUXUXUXUXUXUXUXUXUXUXUXUXUXUXUXUXUXd.g.h.h.h.h.h.h.l.l.l.l.l.l.l.l.l.l.l.l.l.l.k.k.k.k.l.l.l.l.l.l.l.j.UXUXUXUXUXUXUXUXUXUXUXUXUXUXUXUXUXUXUXUXUXUXUXUX",
"UXUXUXUXUXUXUXUXUXUXUXUXUXUXUXUXUXUXUXUXUXUXUXUXUXd.d.f.g.g.h.h.h.h.h.h.h.h.h.h.h.h.h.h.h.h.h.h.h.h.h.k.k.l.l.l.h.h.UXUXUXUXUXUXUXUXUXUXUXUXUXUXUXUXUXUXUXUXUXUXUXUXUX",
"UXUXUXUXUXUXUXUXUXUXUXUXUXUXUXUXUXUXUXUXUXUXUXUXUXUXd.s.d.d.f.f.f.f.g.g.h.h.h.h.h.h.h.g.g.g.g.g.g.h.h.h.h.h.h.h.g.* & UXUXUXUXUXUXUXUXUXUXUXUXUXUXUXUXUXUXUXUXUXUXUXUX",
"UXUXUXUXUXUXUXUXUXUXUXUXUXUXUXUXUXUXUXUXUXUXUXUXUXUX+ d.s.s.s.d.d.d.d.d.d.d.d.d.d.d.d.d.s.s.s.d.d.f.f.f.g.d.d.d.* = - = & UXUXUXUXUXUXUXUXUXUXUXUXUXUXUXUXUXUXUXUXUXUX",
"UXUXUXUXUXUXUXUXUXUXUXUXUXUXUXUXUXUXUXUXUXUXUXUX# $ & * $ i.d.d.s.s.s.d.d.d.d.d.d.d.s.s.a.p.p.a.d.s.s.s.s.d.a.O @ # & * - = & UXUXUXUXUXUXUXUXUXUXUXUXUXUXUXUXUXUXUXUX",
"UXUXUXUXUXUXUXUXUXUXUXUXUXUXUXUXUXUXUXUXUXUX+ # & * & $ # + i.a.a.a.a.a.a.a.a.a.a.a.a.a.a.p.a.p.a.a.a.a.a.a.I.I.@.Y.+ # & * - = % UXUXUXUXUXUXUXUXUXUXUXUXUXUXUXUXUXUX",
"UXUXUXUXUXUXUXUXUXUXUXUXUXUXUXUXUXUXUXUXUXO $ & & $ @ o @.I.X !.+ a.a.a.a.a.a.a.a.a.a.a.a.p.p.p.p.a.a.UXUXUXUXUXUXO I.Y.+ # & = = & UXUXUXUXUXUXUXUXUXUXUXUXUXUXUXUXUX",
"UXUXUXUXUXUXUXUXUXUXUXUXUXUXUXUXUXUXUXUX+ % & % # O X I.UXUXUXUXUXUXUXa.a.a.a.a.a.a.a.a.a.a.a.a.UXUXUXUXUXUXUXUXUXUXUXT.@.O # % * = & UXUXUXUXUXUXUXUXUXUXUXUXUXUXUXUX",
"UXUXUXUXUXUXUXUXUXUXUXUXUXUXUXUXUXUXUX+ % & % @ O X (.UXUXUXUXUXUXUXUXUXUXUXUXUXUXUXUXUXUXUXUXUXUXUXUXUXUXUXUXUXUXUXUXUXUX@.O # % * = % UXUXUXUXUXUXUXUXUXUXUXUXUXUXUX",
"UXUXUXUXUXUXUXUXUXUXUXUXUXUXUXUXUXUXO $ & $ @ O Y.UXUXUXUXUXUXUXUXUXUXUXUXUXUXUXUXUXUXUXUXUXUXUXUXUXUXUXUXUXUXUXUXUXUXUXUXUX@.O # % * = UXUXUXUXUXUXUXUXUXUXUXUXUXUXUX",
"UXUXUXUXUXUXUXUXUXUXUXUXUXUXUXUXUX+ # % % # + o UXUXUXUXUXUXUXUXUXUXUXUXUXUXUXUXUXUXUXUXUXUXUXUXUXUXUXUXUXUXUXUXUXUXUXUXUXUXUXY.+ # & * & UXUXUXUXUXUXUXUXUXUXUXUXUXUX",
"UXUXUXUXUXUXUXUXUXUXUXUXUXUXUXUXUX+ $ % # @ O UXUXUXUXUXUXUXUXUXUXUXUXUXUXUXUXUXUXUXUXUXUXUXUXUXUXUXUXUXUXUXUXUXUXUXUXUXUXUXUXUXo # $ & & % UXUXUXUXUXUXUXUXUXUXUXUXUX",
"UXUXUXUXUXUXUXUXUXUXUXUXUXUXUXUXR.# % $ # @ UXUXUXUXUXUXUXUXUXUXUXUXUXUXUXUXUXUXUXUXUXUXUXUXUXUXUXUXUXUXUXUXUXUXUXUXUXUXUXUXUXUX@.+ # % & % UXUXUXUXUXUXUXUXUXUXUXUXUX",
"UXUXUXUXUXUXUXUXUXUXUXUXUXUXUXUXO $ % $ # # UXUXUXUXUXUXUXUXUXUXUXUXUXUXUXUXUXUXUXUXUXUXUXUXUXUXUXUXUXUXUXUXUXUXUXUXUXUXUXUXUXUXUXO # $ & & UXUXUXUXUXUXUXUXUXUXUXUXUX",
"UXUXUXUXUXUXUXUXUXUXUXUXUXUXUXUX@ $ $ $ # UXUXUXUXUXUXUXUXUXUXUXUXUXUXUXUXUXUXUXUXUXUXUXUXUXUXUXUXUXUXUXUXUXUXUXUXUXUXUXUXUXUXUXUXo # $ % & $ UXUXUXUXUXUXUXUXUXUXUXUX",
"UXUXUXUXUXUXUXUXUXUXUXUXUXUXUX@.# $ $ $ # UXUXUXUXUXUXUXUXUXUXUXUXUXUXUXUXUXUXUXUXUXUXUXUXUXUXUXUXUXUXUXUXUXUXUXUXUXUXUXUXUXUXUXUXT.# $ % $ # UXUXUXUXUXUXUXUXUXUXUXUX",
"UXUXUXUXUXUXUXUXUXUXUXUXUXUXUXY.# $ % & T.UXUXUXUXUXUXUXUXUXUXUXUXUXUXUXUXUXUXUXUXUXUXUXUXUXUXUXUXUXUXUXUXUXUXUXUXUXUXUXUXUXUXUXUXT.# $ $ $ # UXUXUXUXUXUXUXUXUXUXUXUX",
"UXUXUXUXUXUXUXUXUXUXUXUXUXUXUXY.# $ % & T.UXUXUXUXUXUXUXUXUXUXUXUXUXUXUXUXUXUXUXUXUXUXUXUXUXUXUXUXUXUXUXUXUXUXUXUXUXUXUXUXUXUXUXUXT.# $ $ $ # UXUXUXUXUXUXUXUXUXUXUXUX",
"UXUXUXUXUXUXUXUXUXUXUXUXUXUXUXY.@ $ & & T.UXUXUXUXUXUXUXUXUXUXUXUXUXUXUXUXUXUXUXUXUXUXUXUXUXUXUXUXUXUXUXUXUXUXUXUXUXUXUXUXUXUXUXUXT.# % $ # @ UXUXUXUXUXUXUXUXUXUXUXUX",
"UXUXUXUXUXUXUXUXUXUXUXUXUXUXUX@.@ # & & T.UXUXUXUXUXUXUXUXUXUXUXUXUXUXUXUXUXUXUXUXUXUXUXUXUXUXUXUXUXUXUXUXUXUXUXUXUXUXUXUXUXUXUXUXO $ % # # + UXUXUXUXUXUXUXUXUXUXUXUX",
"UXUXUXUXUXUXUXUXUXUXUXUXUXUXUX# @ # % % @ T.UXUXUXUXUXUXUXUXUXUXUXUXUXUXUXUXUXUXUXUXUXUXUXUXUXUXUXUXUXUXUXUXUXUXUXUXUXUXUXUXUXUXT.@ % % # @ # UXUXUXUXUXUXUXUXUXUXUXUX",
"UXUXUXUXUXUXUXUXUXUXUXUXUXUXUXUX+ @ $ & * $ T.UXUXUXUXUXUXUXUXUXUXUXUXUXUXUXUXUXUXUXUXUXUXUXUXUXUXUXUXUXUXUXUXUXUXUXUXUXUXUXUXT.$ * & $ @ + UXUXUXUXUXUXUXUXUXUXUXUXUX",
"UXUXUXUXUXUXUXUXUXUXUXUXUXUXUXUX+ + O $ * : : 9 7 q UXUXUXUXUXUXUXUXUXUXUXUXUXUXUXUXUXUXUXUXUXUXUXUXUXUXUXUXUXUXUXUXUXUXq 7 9 : : * $ O + + UXUXUXUXUXUXUXUXUXUXUXUXUX",
"UXUXUXUXUXUXUXUXUXUXUXUXUXUXUXUXUXO O : 0 0 q e 8 3 4 UXUXUXUXUXUXUXUXUXUXUXUXUXUXUXUXUXUXUXUXUXUXUXUXUXUXUXUXUXUXUXUX4 3 8 e q 0 0 : O O UXUXUXUXUXUXUXUXUXUXUXUXUXUX",
"UXUXUXUXUXUXUXUXUXUXUXUXUXUXUXUXUX: 7 7 e e 8 1 , $ UXUXUXUXUXUXUXUXUXUXUXUXUXUXUXUXUXUXUXUXUXUXUXUXUXUXUXUXUXUXUXUXUXUX$ , 1 8 e e 7 7 : UXUXUXUXUXUXUXUXUXUXUXUXUXUX",
"UXUXUXUXUXUXUXUXUXUXUXUXUXUXUX7 5 7 e 8 > 1 : O + - UXUXUXUXUXUXUXUXUXUXUXUXUXUXUXUXUXUXUXUXUXUXUXUXUXUXUXUXUXUXUXUXUXUX- + O : 1 > 8 e 7 5 7 UXUXUXUXUXUXUXUXUXUXUXUX",
"UXUXUXUXUXUXUXUXUXUXUXUXUXUXUXq 7 8 : & = * @ - > 4 e q q UXUXUXUXUXUXUXUXUXUXUXUXUXUXUXUXUXUXUXUXUXUXUXUXUXUXUXUXq q e 4 > - @ * = & : 8 7 q UXUXUXUXUXUXUXUXUXUXUXUX",
"UXUXUXUXUXUXUXUXUXUXUXUXUXUXUXUX& % I.# = > , 3 e e e e w 5 UXUXUXUXUXUXUXUXUXUXUXUXUXUXUXUXUXUXUXUXUXUXUXUXUXUX5 w e e e e 3 , > = # I.% & UXUXUXUXUXUXUXUXUXUXUXUXUX",
"UXUXUXUXUXUXUXUXUXUXUXUXUXUXUXUXUXUX< < 1 2 0 8 e e e e ; ; UXUXUXUXUXUXUXUXUXUXUXUXUXUXUXUXUXUXUXUXUXUXUXUXUXUX; ; e e e e 8 0 2 1 < < UXUXUXUXUXUXUXUXUXUXUXUXUXUXUX",
"UXUXUXUXUXUXUXUXUXUXUXUXUXUXUXUXw 0 6 7 6 6 7 w e 2 > - & @ UXUXUXUXUXUXUXUXUXUXUXUXUXUXUXUXUXUXUXUXUXUXUXUXUXUX@ & - > 2 e w 7 6 6 7 6 0 w UXUXUXUXUXUXUXUXUXUXUXUXUX",
"UXUXUXUXUXUXUXUXUXUXUXUXUXUXUX8 q w 3 5 3 4 5 1 = $ & % @ UXUXUXUXUXUXUXUXUXUXUXUXUXUXUXUXUXUXUXUXUXUXUXUXUXUXUXUX@ % & $ = 1 5 4 3 5 3 w q 8 UXUXUXUXUXUXUXUXUXUXUXUX",
"UXUXUXUXUXUXUXUXUXUXUXUXUXUXUX9 7 7 > 1 > , 2 % % $ @ O UXUXUXUXUXUXUXUXUXUXUXUXUXUXUXUXUXUXUXUXUXUXUXUXUXUXUXUXUXUXO @ $ % % 2 , > 1 > 7 7 9 UXUXUXUXUXUXUXUXUXUXUXUX",
"UXUXUXUXUXUXUXUXUXUXUXUXUXUXUX1 ; > ; ; & % % $ @ + UXUXUXUXUXUXUXUXUXUXUXUXUXUXUXUXUXUXUXUXUXUXUXUXUXUXUXUXUXUXUXUXUXUX+ @ $ % % & ; ; > ; 1 UXUXUXUXUXUXUXUXUXUXUXUX",
"UXUXUXUXUXUXUXUXUXUXUXUXUXUXUXUX% = = - & & @ T.T.UXUXUXUXUXUXUXUXUXUXUXUXUXUXUXUXUXUXUXUXUXUXUXUXUXUXUXUXUXUXUXUXUXUXUXUXT.T.@ & & - = = % UXUXUXUXUXUXUXUXUXUXUXUXUX",
"UXUXUXUXUXUXUXUXUXUXUXUXUXUXUXUXUXI.I.I.I.I.T.UXUXUXUXUXUXUXUXUXUXUXUXUXUXUXUXUXUXUXUXUXUXUXUXUXUXUXUXUXUXUXUXUXUXUXUXUXUXUXUXT.I.I.I.I.I.UXUXUXUXUXUXUXUXUXUXUXUXUXUX"
};
