/* XPM */
static char *_1573_1e18db71f1c3c11fc88daf7c5735359c0e80d0248d345833683bf40f5cf00358[] = {
/* columns rows colors chars-per-pixel */
"76 90 256 2 ",
"   c #001000",
".  c #001000",
"X  c #0C180C",
"o  c #142414",
"O  c #1C2C1C",
"+  c #243024",
"@  c #303C2C",
"#  c #384434",
"$  c #404C3C",
"%  c #4C5444",
"&  c #545C50",
"*  c #5C6454",
"=  c #646C60",
"-  c #707468",
";  c #747C70",
":  c #808478",
">  c #84887C",
",  c #8C9084",
"<  c #90988C",
"1  c #949C90",
"2  c #98A494",
"3  c #A0A89C",
"4  c #A8B0A0",
"5  c #ACB4A8",
"6  c #B0B8AC",
"7  c #B8C0B4",
"8  c #BCC8BC",
"9  c #C4CCC0",
"0  c #C4D4C4",
"q  c #CCD8CC",
"w  c #D4E0D4",
"e  c #DCECDC",
"r  c #001000",
"t  c #001000",
"y  c #081000",
"u  c #141800",
"i  c #1C1C04",
"p  c #202008",
"a  c #28280C",
"s  c #342C10",
"d  c #382C14",
"f  c #403414",
"g  c #483818",
"h  c #543C1C",
"j  c #58441C",
"k  c #604820",
"l  c #684824",
"z  c #705028",
"x  c #785830",
"c  c #7C6034",
"v  c #846438",
"b  c #8C6C3C",
"n  c #907444",
"m  c #947C4C",
"M  c #988054",
"N  c #A08C58",
"B  c #A49460",
"V  c #A89C68",
"C  c #B0A470",
"Z  c #B8A878",
"A  c #BCB080",
"S  c #C0B888",
"D  c #C4C090",
"F  c #CCCC98",
"G  c #446480",
"H  c #486884",
"J  c #50708C",
"K  c #547890",
"L  c #588094",
"P  c #60849C",
"I  c #688CA4",
"U  c #6C94A8",
"Y  c #709CB0",
"T  c #78A4B4",
"R  c #80A8BC",
"E  c #88B0C0",
"W  c #8CB8C4",
"Q  c #94C0CC",
"!  c #9CC8D4",
"~  c #A4D0DC",
"^  c #001000",
"/  c #001000",
"(  c #00140C",
")  c #081814",
"_  c #0C201C",
"`  c #102424",
"'  c #142C2C",
"]  c #1C3038",
"[  c #1C343C",
"{  c #203C44",
"}  c #244050",
"|  c #2C4854",
" . c #30485C",
".. c #345068",
"X. c #385470",
"o. c #3C5C78",
"O. c #001000",
"+. c #001000",
"@. c #081804",
"#. c #142008",
"$. c #1C2C0C",
"%. c #203014",
"&. c #283818",
"*. c #34401C",
"=. c #384820",
"-. c #405024",
";. c #48582C",
":. c #546030",
">. c #586438",
",. c #606C38",
"<. c #68743C",
"1. c #708044",
"2. c #788448",
"3. c #809048",
"4. c #84984C",
"5. c #889C50",
"6. c #8CA454",
"7. c #8CA854",
"8. c #90B054",
"9. c #94B858",
"0. c #94BC58",
"q. c #94C45C",
"w. c #98CC5C",
"e. c #98D060",
"r. c #98D460",
"t. c #98DC64",
"y. c #98E464",
"u. c #98EC68",
"i. c #001000",
"p. c #081000",
"a. c #141000",
"s. c #201000",
"d. c #2C1400",
"f. c #381800",
"g. c #481C00",
"h. c #542000",
"j. c #602404",
"k. c #702804",
"l. c #782C08",
"z. c #882C08",
"x. c #943008",
"c. c #A0340C",
"v. c #AC380C",
"b. c #BC3C10",
"n. c #544814",
"m. c #585400",
"M. c #645C00",
"N. c #706400",
"B. c #786C04",
"V. c #807804",
"C. c #8C8004",
"Z. c #948804",
"A. c #98900C",
"S. c #A49C0C",
"D. c #ACA40C",
"F. c #B8AC10",
"G. c #BCB810",
"H. c #C4BC10",
"J. c #D0CC10",
"K. c #DCD414",
"L. c #001000",
"P. c #001000",
"I. c #041400",
"U. c #0C1804",
"Y. c #101C0C",
"T. c #182010",
"R. c #1C2814",
"E. c #202C18",
"W. c #282C1C",
"Q. c #2C3420",
"!. c #343824",
"~. c #383C28",
"^. c #3C442C",
"/. c #404830",
"(. c #484838",
"). c #505038",
"_. c #545840",
"`. c #5C6044",
"'. c #68644C",
"]. c #706C54",
"[. c #787458",
"{. c #807C60",
"}. c #888068",
"|. c #90886C",
" X c #949070",
".X c #9C9878",
"XX c #A89C80",
"oX c #ACA488",
"OX c #B8A88C",
"+X c #BCB094",
"@X c #C4B898",
"#X c #CCC0A0",
"$X c #2C2800",
"%X c #383000",
"&X c #4C3800",
"*X c #5C4000",
"=X c #704800",
"-X c #7C4C00",
";X c #8C5400",
":X c #9C5800",
">X c #AC6000",
",X c #B06814",
"<X c #B87428",
"1X c #BC8038",
"2X c #C08C4C",
"3X c #C49C60",
"4X c #CCA474",
"5X c #D4B88C",
"6X c #BC4814",
"7X c #BC5018",
"8X c #C06020",
"9X c #C46828",
"0X c #C47830",
"qX c #C88038",
"wX c #CC8C3C",
"eX c #D09C44",
"rX c #D0A450",
"tX c #D0B054",
"yX c #D4B864",
"uX c #D4C46C",
"iX c #D8CC78",
"pX c #D8D480",
"aX c #D8D88C",
"sX c #DCE094",
"dX c #041C2C",
"fX c #041438",
"gX c #101440",
"hX c #18144C",
"jX c #281450",
"kX c #381C54",
"lX c #482058",
"zX c #582460",
"xX c #6C2468",
"cX c #742C64",
"vX c #842C5C",
"bX c #8C2454",
"nX c #983040",
"mX c #A43430",
"MX c #B03814",
"NX c #BC3C10",
"BX c #384800",
"VX c #8C9C00",
"CX c #DCEC00",
"ZX c #381038",
"AX c #8C108C",
"SX c #DC10DC",
"DX c #4C1000",
"FX c #941000",
"GX c #DC1000",
"HX c #004800",
"JX c #009C00",
"KX c #00EC00",
"LX c #001038",
"PX c #00108C",
"IX c #0010DC",
"UX c #001000",
/* pixels */
"UXUXUXUXUXUXUXUXUXUXUXUXUXUXUXUXUXUXUX~.+ @ # # # # # % UXUXUXUXUXUXUXUXUXUXUXUXUXUXUXUXUXUXUXUXUX# @ # # # # # $ UXUXUXUXUXUXUXUXUXUXUXUXUXUXUXUXUXUXUX",
"UXUXUXUXUXUXUXUXUXUXUXUXUXUXUXUXUXO @ $ 2 8 q w w 9 2 & $ UXUXUXUXUXUXUXUXUXUXUXUXUXUXUXUXUXUX+ # - 6 0 w w w 7 ; & # UXUXUXUXUXUXUXUXUXUXUXUXUXUXUXUXUX",
"UXUXUXUXUXUXUXUXUXUXUXUXUXUXUXUX@ $ 2 0 w e e e e e e e 1 * $ UXUXUXUXUXUXUXUXUXUXUXUXUXUX+ # - 8 e e e e e e e e q : & & UXUXUXUXUXUXUXUXUXUXUXUXUXUXUX",
"UXUXUXUXUXUXUXUXUXUXUXUXUXUXUX@ % 7 w e e e e e e e e e e w = & UXUXUXUXUXUXUXUXUXUXUXUX(.# 2 w e e e e e e e e e e e 2 * UXUXUXUXUXUXUXUXUXUXUXUXUXUXUX",
"UXUXUXUXUXUXUXUXUXUXUXUXUXUXO $ 6 q e e e e e e e e e e e e 9 = UXUXUXUXUXUXUXUXUXUXUXUX# - w e e e e e e e e e e e e e > = UXUXUXUXUXUXUXUXUXUXUXUXUXUX",
"UXUXUXUXUXUXUXUXUXUXUXUXUX(.# 2 q e e e e e e e e e e e e e e 3 = UXUXUXUXUXUXUXUXUXUXO & q e e e e e e e e e e e e e e e = $ UXUXUXUXUXUXUXUXUXUXUXUXUX",
"UXUXUXUXUXUXUXUXUXUXUXUXUXY.$ 7 q e e e e e e e e e e e e e e w = UXUXUXUXUXUXUXUXUXUX# : w e e e e e e e e e e e e e e e 1 & UXUXUXUXUXUXUXUXUXUXUXUXUX",
"UXUXUXUXUXUXUXUXUXUXUXUXUXO * 9 q e e e e e e e e e e e e e e e = UXUXUXUXUXUXUXUXUXUX$ 2 w e e e e e e e e e e e e e e e 8 = UXUXUXUXUXUXUXUXUXUXUXUXUX",
"UXUXUXUXUXUXUXUXUXUXUXUXUX@ - q q e e e e e e e e e e e e e e e = UXUXUXUXUXUXUXUXUXUX$ 6 w e e e e e e e e e e e e e e e w = UXUXUXUXUXUXUXUXUXUXUXUXUX",
"UXUXUXUXUXUXUXUXUXUXUXUXUXY.& 7 q e e e e e e e e e e e e e e e = UXUXUXUXUXUXUXUXUXUX# 2 w e e e e e e e e e e e e e e e 2 & UXUXUXUXUXUXUXUXUXUXUXUXUX",
"UXUXUXUXUXUXUXUXUXUXUXUXUX@.# 4 q w e e e e e e e e e e e e e 0 & UXUXUXUXUXUXUXUXUXUX@ - q e e e e e e e e e e e e e e e 2 % UXUXUXUXUXUXUXUXUXUXUXUXUX",
"UXUXUXUXUXUXUXUXUXUXUXUXUXUX# ; 9 q w e e e e e e e e e e e e ; + @.@.@.X X Y.o o o Y.Y.$ 7 q e e e e e e e e e e e e e w & @ UXUXUXUXUXUXUXUXUXUXUXUXUX",
"UXUXUXUXUXUXUXUXUXUXUXUXUXUXO # 2 7 q w e e e e e e e e e e , @.@.@.X Y.Y.o o O + + + + O % 7 q e e e e e e e e e e e w & # UXUXUXUXUXUXUXUXUXUXUXUXUXUX",
"UXUXUXUXUXUXUXUXUXUXUXUXUXUXUXo # 1 7 q q w e e e e e e e ; @.Y.Y.o O O + + @ @ @ # # # # + % 7 q w e e e e e e e e q = @ UXUXUXUXUXUXUXUXUXUXUXUXUXUXUX",
"UXUXUXUXUXUXUXUXUXUXUXUXUXUXUXUXO @ * 3 7 7 0 q q w 0 2 @ @.Y.o o + @ @ o @ # $ $ $ + # $ $ @ @ : 6 7 0 q w w q 8 , # + UXUXUXUXUXUXUXUXUXUXUXUXUXUXUXUX",
"UXUXUXUXUXUXUXUXUXUXUXUXUXUXUXUXUXUXo + $ * - - - * % Y.@.Y.O @ 4 + # O 4 + + & & % 4 + $ & $ @ O # & - - - - & @ O (.UXUXUXUXUXUXUXUXUXUXUXUXUXUXUXUXUX",
"UXUXUXUXUXUXUXUXUXUXUXUXUXUXUXUXUXUXUXUX@.Y.o o o Y.@.@.Y.O @ + # $ - ; O + @ q w - * & & = & $ @ + Y.o o o Y.Y.(.UXUXUXUXUXUXUXUXUXUXUXUXUXUXUXUXUXUXUX",
"UXUXUXUXUXUXUXUXUXUXUXUXUXUXUXUXUXUXUXUXUXUXUXUXUXUX@.@.o + # # $ - 4 9 8 5 e e e e ; = = = & & # UXUXUXUXUXUXUXUXUXUXUXUXUXUXUXUXUXUXUXUXUXUXUXUXUXUXUX",
"UXUXUXUXUXUXUXUXUXUXUXUXUXUXUXUXUXUXUXUXUXUXUXUXUXUX@.@.O @ # $ % 3 7 q e e e e e e q = = = = & $ O UXUXUXUXUXUXUXUXUXUXUXUXUXUXUXUXUXUXUXUXUXUXUXUXUXUX",
"UXUXUXUXUXUXUXUXUXUXUXUXUXUXUXUXUXUXUXUXUXUXUXUXUXUX@.Y.O # # $ & 1 7 q w e e e e e e = = = = & $ + UXUXUXUXUXUXUXUXUXUXUXUXUXUXUXUXUXUXUXUXUXUXUXUXUXUX",
"UXUXUXUXUXUXUXUXUXUXUXUXUXUXUXUXUXUXUXUXUXUXUXUXUXUX@.Y.O @ # # # % 6 7 q q e e e w & = = = & & $ @ UXUXUXUXUXUXUXUXUXUXUXUXUXUXUXUXUXUXUXUXUXUXUXUXUXUX",
"UXUXUXUXUXUXUXUXUXUXUXUXUXUXUXUXUXUXUXUXUXUXUXUXUXUX@.@.O @ # # # # & 4 6 6 8 0 q & # & & & & % # + UXUXUXUXUXUXUXUXUXUXUXUXUXUXUXUXUXUXUXUXUXUXUXUXUXUX",
"UXUXUXUXUXUXUXUXUXUXUXUXUXUXUXUXUXUXUXUXUXUXUXUXUXUX@.@.Y.+ @ # # $ # * % % % = & & % & & % $ $ # O UXUXUXUXUXUXUXUXUXUXUXUXUXUXUXUXUXUXUXUXUXUXUXUXUXUX",
"UXUXUXUXUXUXUXUXUXUXUXUXUXUXUXUXUXUXUXUXUXUXUXUXUXUX@.@.@.o O + @ @ ; 6 3 > > : : 7 # $ $ $ # # + UXUXUXUXUXUXUXUXUXUXUXUXUXUXUXUXUXUXUXUXUXUXUXUXUXUXUX",
"UXUXUXUXUXUXUXUXUXUXUXUXUXUXUXUXUXUXUXUXUXUXUXUXUXUXUX@.@.Y.o O O + ; 7 9 q e e e > @ @ @ @ @ @ O UXUXUXUXUXUXUXUXUXUXUXUXUXUXUXUXUXUXUXUXUXUXUXUXUXUXUX",
"UXUXUXUXUXUXUXUXUXUXUXUXUXUXUXUXUXUXUXUXUXUXUXUXUXUXUXUX@.@.@.Y.Y.o * ; 1 3 1 , ; % O + + + + O UXUXUXUXUXUXUXUXUXUXUXUXUXUXUXUXUXUXUXUXUXUXUXUXUXUXUXUX",
"UXUXUXUXUXUXUXUXUXUXUXUXUXUXUXUXUXUXUXUXUXUXUXUXUXUXUXUXI.@.@.@.@.@.@.$ = - - : % Y.o O O O o UXUXUXUXUXUXUXUXUXUXUXUXUXUXUXUXUXUXUXUXUXUXUXUXUXUXUXUXUX",
"UXUXUXUXUXUXUXUXUXUXUXUXUXUXUXUXUXUXUXUXUXUXUXUXUXUXUXUXUXI.I.I.@.@.@.@.@.@.@.@.@.@.X Y.o o UXUXUXUXUXUXUXUXUXUXUXUXUXUXUXUXUXUXUXUXUXUXUXUXUXUXUXUXUXUX",
"UXUXUXUXUXUXUXUXUXUXUXUXUXUXUXUXUX& & % # @ # @ + UXUXUXUXUXO I.I.I.I.@.I.I.@.I.I.@.@.@.@.UXUXUXUX& % $ (.@ @ @ @ + UXUXUXUXUXUXUXUXUXUXUXUXUXUXUXUXUXUX",
"UXUXUXUXUXUXUXUXUXUXUXUXUX- = @ $ & & & & & & & $ # @ @ @ + @.o O + @ # # $ $ $ $ $ $ $ # + + + @ $ $ % & % $ $ $ # @ @ + UXUXUXUXUXUXUXUXUXUXUXUXUXUXUX",
"UXUXUXUXUXUXUXUXUXUXUX- % % = - - = = * & & & & & & & & @.Y.O @ # # $ $ % & & & & & & & & % # @ O & & % % % $ % % % $ $ $ # @ $ UXUXUXUXUXUXUXUXUXUXUXUX",
"UXUXUXUXUXUXUXUXUXUX# & - ; - * & % # # # # # # $ % & @.o + @ # # % : 7 w w w w 8 : = = = & & $ O O O o o o O + @ # # $ $ $ $ $ # # UXUXUXUXUXUXUXUXUXUX",
"UXUXUXUXUXUXUXUX* $ - ; - & $ @ O Y.@.@.@.@.@.Y.o $ @.Y.+ # # $ & 4 0 w e e e e e e 6 = = = * & # @ I.I.I.I.I.I.@.Y.O @ # # $ $ $ $ @ UXUXUXUXUXUXUXUXUX",
"UXUXUXUXUXUXUX& & ; - * $ + o @.I.I.+ UXUXUXUXUXo @.Y.O @ # $ - 4 0 w e e e e e e e e w ; = = = % # UXUXUXUXUXUXUXUXI.Y.O @ # # # $ $ # UXUXUXUXUXUXUXUX",
"UXUXUXUXUXUX& & ; - & @ o X I.O UXUXUXUXUXUXUXUXUX@.O @ # $ * 4 7 q e e e e e e e e e e e = = = & % + UXUXUXUXUXUXUXUXUXUXo @ # $ # # $ # UXUXUXUXUXUXUX",
"UXUXUXUXUX& & ; - & @ o X + UXUXUXUXUXUXUXUXUXUX@.o + # # $ - 7 9 w e e e e e e e e e e e 5 = = = & $ UXUXUXUXUXUXUXUXUXUXUXT.@ $ $ # # # @ UXUXUXUXUXUX",
"UXUXUXUXe e e e e @ O o UXUXUXUXUXUXUXUXUXUXUXUX@.O @ # $ = 4 7 q w e e e e e e e e e e e e = = = & % + UXUXUXUXUXUXUXUXUXUXUXX o @ @ # # $ $ UXUXUXUXUX",
"UXUXUXe e e e e e e o UXUXUXUXUXUXUXUXUXUXUXUXO Y.O @ # $ - 6 9 q w e e e e e e e e e e e e 0 = = & % @ UXUXUXUXUXUXUXUXUXUXUXUXo O @ e e e e e UXUXUXUX",
"UXUX7 7 8 8 8 8 8 e e UXUXUXUXUXUXUXUXUXUXUXUX@.Y.O @ # $ 1 6 9 q q e e e e e e e e e e e e w = = & % # UXUXUXUXUXUXUXUXUXUXUXUXUXo e e e e e e e UXUXUX",
"UX7 8 8 q e e e e w q 5 UXUXUXUXUXUXUXUXUXUXUX@.o + @ # & 1 6 7 q q w e e e e e e e e e e e w * & & % $ UXUXUXUXUXUXUXUXUXUXUXUXUXe e 8 8 8 8 8 7 7 UXUX",
"0 8 q q e e e e w q 9 9 UXUXUXUXUXUXUXUXUXUXUX@.o + @ # = 1 6 7 9 q yXuXuXuXuXuXpXe e e e e w = & & % $ R.UXUXUXUXUXUXUXUXUXUXUX5 q w e e e e q 8 8 7 UX",
"w q e e e e e e w 4 0 8 3 UXUXUXUXUXUXUXUXUXUX@.o + b.b.b.b.2X1X1XyXaXaXaXaXaXuXuXuXl.z.c.c.v.= & & % $ + UXUXUXUXUXUXUXUXUXUXUX9 9 q w e e e e q q 8 0 ",
"w e e e e e w q 4 > 5 7 3 UXUXUXUXUXUXUXUXUXv.x.v.v.b.b.9X9X9X1X2XuXaXaXsXsXaXuXuXuXuXk.c.v.v.v.b.b.b.b.b.b.UXUXUXUXUXUXUXUXUX3 8 0 4 w e e e e e e q w ",
"8 q e w w 0 7 4 4 * ; 4 3 UXUXUXUXUXUXl.l.z.x.x.x.v.b.b.b.9X9X9XyXaXaXsXaXaXpXiXuXuXuXk.z.c.v.v.v.v.b.b.b.b.b.b.b.UXUXUXUXUXUX3 7 5 > 4 q w e e e e e w ",
"1 5 7 7 6 3 2 2 3 * * 7 UXUXUXUXUXUXh.l.l.l.z.x.x.x.v.v.b.b.b.b.yXuXuXiXpXiXiXiXiXyXuXk.x.c.v.v.v.b.b.b.b.b.b.b.b.UXUXUXUXUXUX3 4 ; * 4 4 7 0 w w e q 8 ",
"UX- - - ; < > > : * & UXUXUXUXUXUXUXh.l.l.l.z.z.x.x.x.b.v.v.b.b.z.tXuXiXiXiXiXiXyXyXyXl.z.c.v.b.b.b.b.b.b.b.b.b.v.UXUXUXUXUXUXUX7 * * 3 2 2 3 6 7 7 5 1 ",
"UXUX- - - - - = = * UXUXUXUXUXUXUXUXh.h.l.l.l.z.z.x.x.x.x.x.x.v.l.tXyXyXyXyXyXyXyXyXd.z.l.x.b.b.b.b.b.b.b.b.b.b.c.UXUXUXUXUXUXUXUX& * : > > < ; - - - UX",
"UXUXUXUXUXUXUXUXUXUXUXUXUXUXUXUXUXUXUXh.h.l.l.l.z.z.z.x.x.x.x.x.x.k.tXtXtXtXtXtXtXd.j.z.z.x.b.b.b.b.b.b.b.b.b.v.v.UXUXUXUXUXUXUXUXUX* = = - - - - - UXUX",
"UXUXUXUXUXUXUXUXUXUXUXUXUXUXUXUXUXUXUXh.h.h.l.l.l.l.z.z.z.z.x.x.x.x.h.g.f.d.s.d.d.j.l.x.x.x.x.x.v.v.v.v.v.v.v.x.UXUXUXUXUXUXUXUXUXUXUXUXUXUXUXUXUXUXUXUX",
"UXUXUXUXUXUXUXUXUXUXUXUXUXUXUXUXUXUXUXh.h.h.h.h.h.l.l.l.l.z.z.z.z.z.z.z.l.l.l.l.l.k.z.z.z.x.x.x.x.x.x.x.x.x.x.z.UXUXUXUXUXUXUXUXUXUXUXUXUXUXUXUXUXUXUXUX",
"UXUXUXUXUXUXUXUXUXUXUXUXUXUXUXUXUXUXUXUXf.h.h.h.h.h.h.l.l.l.l.l.l.l.l.l.l.l.l.l.l.l.l.l.l.l.l.l.z.x.x.x.x.z.l.UXUXUXUXUXUXUXUXUXUXUXUXUXUXUXUXUXUXUXUXUX",
"UXUXUXUXUXUXUXUXUXUXUXUXUXUXUXUXUXUXUXUXUXd.g.h.h.h.h.h.h.l.l.l.l.l.l.l.l.l.l.l.l.l.l.k.k.k.k.l.l.l.l.l.l.l.j.UXUXUXUXUXUXUXUXUXUXUXUXUXUXUXUXUXUXUXUXUX",
"UXUXUXUXUXUXUXUXUXUXUXUXUXUXUXUXUXUXUXUXUXd.d.f.g.g.h.h.h.h.h.h.h.h.h.h.h.h.h.h.h.h.h.h.h.h.h.k.k.l.l.l.h.h.UXUXUXUXUXUXUXUXUXUXUXUXUXUXUXUXUXUXUXUXUXUX",
"UXUXUXUXUXUXUXUXUXUXUXUXUXUXUXUXUXUXUXUXUXUXd.s.d.d.f.f.f.f.g.g.h.h.h.h.h.h.h.g.g.g.g.g.g.h.h.h.h.h.h.h.g.UXUXUXUXUXUXUXUXUXUXUXUXUXUXUXUXUXUXUXUXUXUXUX",
"UXUXUXUXUXUXUXUXUXUXUXUXUXUXUXUXUXUXUXUXUXUXUXd.s.s.s.d.d.d.d.d.d.d.d.d.d.d.d.d.s.s.s.d.d.f.f.f.g.d.d.d.UXUXUXUXUXUXUXUXUXUXUXUXUXUXUXUXUXUXUXUXUXUXUXUX",
"UXUXUXUXUXUXUXUXUXUXUXUXUXUXUXUXUXUXUXUXUXUXUXUXUXi.d.d.s.s.s.d.d.d.d.d.d.d.s.s.a.p.p.a.d.s.s.s.s.d.UXUXUXUXUXUXUXUXUXUXUXUXUXUXUXUXUXUXUXUXUXUXUXUXUXUX",
"UXUXUXUXUXUXUXUXUXUXUXUXUXUXUXUXUXUXUXUXUXUXUXUXUXO i.a.a.a.a.a.a.a.a.a.a.a.a.a.a.p.a.p.a.a.a.a.a.UXUXUXUXUXUXUXUXUXUXUXUXUXUXUXUXUXUXUXUXUXUXUXUXUXUXUX",
"UXUXUXUXUXUXUXUXUXUXUXUXUXUXUXUXUXUXUXUXUXUXUXUXUXO # O O a.a.a.a.a.a.a.a.a.a.a.a.p.p.p.p.a.a.O O UXUXUXUXUXUXUXUXUXUXUXUXUXUXUXUXUXUXUXUXUXUXUXUXUXUXUX",
"UXUXUXUXUXUXUXUXUXUXUXUXUXUXUXUXUXUXUXUXUXUXUXUXUXO % = % + O a.a.a.a.a.a.a.a.a.a.a.a.a.O O + O O UXUXUXUXUXUXUXUXUXUXUXUXUXUXUXUXUXUXUXUXUXUXUXUXUXUXUX",
"UXUXUXUXUXUXUXUXUXUXUXUXUXUXUXUXUXUXUXUXUXUXUXUXUXO & * $ + O UXUXUXUXUXUXUXUXUXUXUXUXO O # + @ O UXUXUXUXUXUXUXUXUXUXUXUXUXUXUXUXUXUXUXUXUXUXUXUXUXUXUX",
"UXUXUXUXUXUXUXUXUXUXUXUXUXUXUXUXUXUXUXUXUXUXUXUXUX# & * # + + UXUXUXUXUXUXUXUXUXUXUXUX$ & # + @ O UXUXUXUXUXUXUXUXUXUXUXUXUXUXUXUXUXUXUXUXUXUXUXUXUXUXUX",
"UXUXUXUXUXUXUXUXUXUXUXUXUXUXUXUXUXUXUXUXUXUXUXUXUX@ * * # + + UXUXUXUXUXUXUXUXUXUXUXUX# & $ @ @ O UXUXUXUXUXUXUXUXUXUXUXUXUXUXUXUXUXUXUXUXUXUXUXUXUXUXUX",
"UXUXUXUXUXUXUXUXUXUXUXUXUXUXUXUXUXUXUXUXUXUXUXUXUX# * & @ + + UXUXUXUXUXUXUXUXUXUXUXUX@ * % @ + O UXUXUXUXUXUXUXUXUXUXUXUXUXUXUXUXUXUXUXUXUXUXUXUXUXUXUX",
"UXUXUXUXUXUXUXUXUXUXUXUXUXUXUXUXUXUXUXUXUXUXUXUXUX+ * & @ + O UXUXUXUXUXUXUXUXUXUXUXUX+ & % @ + O UXUXUXUXUXUXUXUXUXUXUXUXUXUXUXUXUXUXUXUXUXUXUXUXUXUXUX",
"UXUXUXUXUXUXUXUXUXUXUXUXUXUXUXUXUXUXUXUXUXUXUXUXUX@ * % @ + O UXUXUXUXUXUXUXUXUXUXUXUX# & % @ + + UXUXUXUXUXUXUXUXUXUXUXUXUXUXUXUXUXUXUXUXUXUXUXUXUXUXUX",
"UXUXUXUXUXUXUXUXUXUXUXUXUXUXUXUXUXUXUXUXUXUXUXUXUX# * % @ + O UXUXUXUXUXUXUXUXUXUXUXUX@ & & @ + + UXUXUXUXUXUXUXUXUXUXUXUXUXUXUXUXUXUXUXUXUXUXUXUXUXUXUX",
"UXUXUXUXUXUXUXUXUXUXUXUXUXUXUXUXUXUXUXUXUXUXUXUXUX# * $ @ + O UXUXUXUXUXUXUXUXUXUXUXUX@ & & @ + + UXUXUXUXUXUXUXUXUXUXUXUXUXUXUXUXUXUXUXUXUXUXUXUXUXUXUX",
"UXUXUXUXUXUXUXUXUXUXUXUXUXUXUXUXUXUXUXUXUXUXUXUXUX# * $ + + O UXUXUXUXUXUXUXUXUXUXUXUX@ & & @ + + UXUXUXUXUXUXUXUXUXUXUXUXUXUXUXUXUXUXUXUXUXUXUXUXUXUXUX",
"UXUXUXUXUXUXUXUXUXUXUXUXUXUXUXUXUXUXUXUXUXUXUXUXUX# & $ + + O UXUXUXUXUXUXUXUXUXUXUXUX@ & & @ + + UXUXUXUXUXUXUXUXUXUXUXUXUXUXUXUXUXUXUXUXUXUXUXUXUXUXUX",
"UXUXUXUXUXUXUXUXUXUXUXUXUXUXUXUXUXUXUXUXUXUXUXUXUX# & $ @ + O UXUXUXUXUXUXUXUXUXUXUXUX@ & & @ + + UXUXUXUXUXUXUXUXUXUXUXUXUXUXUXUXUXUXUXUXUXUXUXUXUXUXUX",
"UXUXUXUXUXUXUXUXUXUXUXUXUXUXUXUXUXUXUXUXUXUXUXUXUX# & $ @ + O UXUXUXUXUXUXUXUXUXUXUXUX@ & & @ + O UXUXUXUXUXUXUXUXUXUXUXUXUXUXUXUXUXUXUXUXUXUXUXUXUXUXUX",
"UXUXUXUXUXUXUXUXUXUXUXUXUXUXUXUXUXUXUXUXUXUXUXUXUX# & $ @ + O UXUXUXUXUXUXUXUXUXUXUXUX@ * & @ + O UXUXUXUXUXUXUXUXUXUXUXUXUXUXUXUXUXUXUXUXUXUXUXUXUXUXUX",
"UXUXUXUXUXUXUXUXUXUXUXUXUXUXUXUXUXUXUXUXUXUXUXUXUX@ & $ @ + O UXUXUXUXUXUXUXUXUXUXUXUX@ * & @ O O UXUXUXUXUXUXUXUXUXUXUXUXUXUXUXUXUXUXUXUXUXUXUXUXUXUXUX",
"UXUXUXUXUXUXUXUXUXUXUXUXUXUXUXUXUXUXUXUXUXUXUXUXUX+ & $ @ + O UXUXUXUXUXUXUXUXUXUXUXUX(.* & @ O o UXUXUXUXUXUXUXUXUXUXUXUXUXUXUXUXUXUXUXUXUXUXUXUXUXUXUX",
"UXUXUXUXUXUXUXUXUXUXUXUXUXUXUXUXUXUXUXUXUXUXUXUXUXO % $ @ + + UXUXUXUXUXUXUXUXUXUXUXUX@ * % + O o UXUXUXUXUXUXUXUXUXUXUXUXUXUXUXUXUXUXUXUXUXUXUXUXUXUXUX",
"UXUXUXUXUXUXUXUXUXUXUXUXUXUXUXUXUXUXUXUXUXUXUXUXUX@ % % @ + + UXUXUXUXUXUXUXUXUXUXUXUX# * $ + O Y.UXUXUXUXUXUXUXUXUXUXUXUXUXUXUXUXUXUXUXUXUXUXUXUXUXUXUX",
"UXUXUXUXUXUXUXUXUXUXUXUXUXUXUXUXUXUXUXUXUXUXUXUXUX# % % @ + + UXUXUXUXUXUXUXUXUXUXUXUX$ * $ O O O UXUXUXUXUXUXUXUXUXUXUXUXUXUXUXUXUXUXUXUXUXUXUXUXUXUXUX",
"UXUXUXUXUXUXUXUXUXUXUXUXUXUXUXUXUXUXUXUXUXUXUXUXUX% * # O O O UXUXUXUXUXUXUXUXUXUXUXUX% * # O O O UXUXUXUXUXUXUXUXUXUXUXUXUXUXUXUXUXUXUXUXUXUXUXUXUXUXUX",
"UXUXUXUXUXUXUXUXUXUXUXUXUXUXUXUXUXUXUXUXUXUX7 9 q q 0 0 7 7 7 5 7 UXUXUXUXUXUXUX7 9 q q 0 0 7 7 7 5 7 UXUXUXUXUXUXUXUXUXUXUXUXUXUXUXUXUXUXUXUXUXUXUXUXUX",
"UXUXUXUXUXUXUXUXUXUXUXUXUXUXUXUXUXUXUXUXUXq e e e e e e e e 7 7 7 q UXUXUXUXUXq e e e e e e e e 7 7 7 q UXUXUXUXUXUXUXUXUXUXUXUXUXUXUXUXUXUXUXUXUXUXUXUX",
"UXUXUXUXUXUXUXUXUXUXUXUXUXUXUXUXUXUXUXUXUX7 8 8 6 4 1 > = & & % & UXUXUXUXUXUX7 8 8 6 4 1 > = & & % & UXUXUXUXUXUXUXUXUXUXUXUXUXUXUXUXUXUXUXUXUXUXUXUXUX",
"UXUXUXUXUXUXUXUXUXUXUXUXUXUXUXUXUXUXUXUXUXUX$ + O @.@ * = # I.I.UXUXUXUXUXUXUXUX$ + O @.@ * = # I.I.UXUXUXUXUXUXUXUXUXUXUXUXUXUXUXUXUXUXUXUXUXUXUXUXUXUX",
"UXUXUXUXUXUXUXUXUXUXUXUXUXUXUXUXUXUXUXUXUXUX5 0 w q q 0 0 8 8 w 0 w UXUXUXUXUXUX5 0 w q q 0 0 8 8 w 0 w UXUXUXUXUXUXUXUXUXUXUXUXUXUXUXUXUXUXUXUXUXUXUXUX",
"UXUXUXUXUXUXUXUXUXUXUXUXUXUXUXUXUXUXUXUXUXq e e e 0 0 0 8 8 7 6 w q 8 9 UXUXUXq e e e 0 0 0 8 8 7 6 w q 8 9 UXUXUXUXUXUXUXUXUXUXUXUXUXUXUXUXUXUXUXUXUXUX",
"UXUXUXUXUXUXUXUXUXUXUXUXUXUXUXUXUXUXUXUXq e e e e e 8 7 6 6 5 3 3 7 7 9 UXUXq e e e e e 8 7 6 6 5 3 3 7 7 9 UXUXUXUXUXUXUXUXUXUXUXUXUXUXUXUXUXUXUXUXUXUX",
"UXUXUXUXUXUXUXUXUXUXUXUXUXUXUXUXUXUXUXOXw e e e e e w 5 4 3 3 1 > > ; 1 UXUXw e e e e e w 5 4 3 3 1 > > ; 1 UXUXUXUXUXUXUXUXUXUXUXUXUXUXUXUXUXUXUXUXUXUX",
"UXUXUXUXUXUXUXUXUXUXUXUXUXUXUXUXUXUXUXUX4 5 5 4 2 1 1 2 2 , > ; ; ; = % UXUX4 5 5 4 2 1 1 2 2 , > ; ; ; = % UXUXUXUXUXUXUXUXUXUXUXUXUXUXUXUXUXUXUXUXUXUX",
"UXUXUXUXUXUXUXUXUXUXUXUXUXUXUXUXUXUXUXUXUX= = * $ % % % % % & = - = I.UXUXUXUX= = * $ % % % % % & = - = I.UXUXUXUXUXUXUXUXUXUXUXUXUXUXUXUXUXUXUXUXUXUXUX",
"UXUXUXUXUXUXUXUXUXUXUXUXUXUXUXUXUXUXUXUXUXUX@ O $ $ $ $ $ & & I.I.I.UXUXUXUXUXUX@ O $ $ $ $ $ & & I.I.I.UXUXUXUXUXUXUXUXUXUXUXUXUXUXUXUXUXUXUXUXUXUXUXUX",
"UXUXUXUXUXUXUXUXUXUXUXUXUXUXUXUXUXUXUXUXUXUXUXUXUX+ T.T.T.T.O UXUXUXUXUXUXUXUXUXUXUXUX+ T.T.T.T.O UXUXUXUXUXUXUXUXUXUXUXUXUXUXUXUXUXUXUXUXUXUXUXUXUXUXUX"
};
