/* XPM */
static char *_480_485fb18bfb4f5c86f7b5b171ccd5ce433422567edc33120743b7591060f90321[] = {
/* columns rows colors chars-per-pixel */
"121 105 16 1 ",
"  c #824100",
". c #924900",
"X c #A65100",
"o c #B65504",
"O c #CB5D04",
"+ c #E77938",
"@ c #EB8641",
"# c #EF9249",
"$ c #F3A251",
"% c #F3AE5D",
"& c #F3BA65",
"* c #F7C775",
"= c #F7D37D",
"- c #FBDB8E",
"; c #FBE396",
": c None",
/* pixels */
":::::::::::::::::::::::::::::::::::::::::::::::::::::::::X:::::::::::::::::::::::::::::::::::::::::::::::::::::::::::::::",
":::::::::::::::::::::::::::::::::::::::::::::::::::::::::::::::::::::::::::::::::::::::::::::::::::::::::::::::::::::::::",
":::::::::::::::::::::::::::::::::::::::::::::...:::::::::::::::::::::::::::::::::::::::::::::::::::::::::::::::::::::::::",
":::::::::::::::::::::::::::::::::::::::::::.XoOoX.:::::::::::::::::::::::::::::::::::::::::::::::::::::::::::::::::::::::",
":::::::::::::::::::::::::::::::::::::::::.oo@%%%@o..:::::::::::::::::::::::::::::::::::::::::::::::::::::::::::::::::::::",
"::::::::::::::::::::::::::::::::::::::: .oo@%*==&%@o..  ::  :::::::::::::::::::::::::::::::::::::::::::::::::::::::::::::",
":::::::::::::::::::::::::::::::::::::: .Xo@*=*=---=$o.   ::::::::::::::::::::::::::::::::::::::::::::::::::::::::::::::::",
":::::::::::::::::::::::::::::::::::::: .oO#*=-----=&+. ::::::::::::::::::::::::::::::::::::::::::::::::::::::::::::::::::",
":::::::::::::::::::::::::::::::::::::  XOO+$&=--=-=%+X ::::::::::::::::::::::::::::::::::::::::::::::::::::::::::::::::::",
"::::::::::::::::::::::::::::::::::::  .OOO+@%&===--=&+.  ::::::::::::::::::::::::::::::::::::::::::::::::::::::::::::::::",
":::::::::::::::::::::::::::::::::::: XO++@###$*===--=$o    :::::::       ::::::::::::::::::::::::::::::::::::::::::::::::",
"::::::::::::::::::::::::::::::::::: o+#$%%%%$%&*=*=**#O.   :: o@OXXOoO@@O+OOO :::::::::::::::::::::::::::::::::::::::::::",
":::::::::::::::::::::::::::::::::: o#%==---=******&##@OX... .+&******===&%%$$#o::::::::::::::::::::::::::::::::::::::::::",
"::::::::::::::::::::::::::::::::: O$*--====--==***%%$@+oooooO%&**********&%%&%&#o::::::::::::::::::::::::::::::::::::::::",
":::::::::::::::::::::::::::::::::o@%=--===--=-==*%#++@+O+$#%**&***&****&&**&&&%&#o:::::::::::::::::::::::::::::::::::::::",
":::::::::::::::::::::::::::::::: O@*=-==-========#@@@@@%&&***=****&&*&*&&%&&%*&%%#O :::::::::::::::::::::::::::::::::::::",
"::::::::::::::::::::::::::::::::O+&==*=-=====**==*#@##%&*===*******&*&&**&&%%%*&%%#O ::::::::::::::::::::::::::::::::::::",
":::::::::::::::::::::::::::::::.o#****==--===*===&##%%=--====******==*****&%%%**%%%$#o:::::::::::::::::::::::::::::::::::",
":::::::::::::::::::::::::::::::.o+&***===-=====**$$&=--**=---==*&&**-==*==*%$##&&%&&%%+ :::::::::::::::::::::::::::::::::",
":::::::::::::::::::::::::::::: X+#&***=========*$$%*--=*----*=--=****===*&%%%%$%*%&**&$O:::::::::::::::::::::::::::::::::",
"::::::::::::::::::::::::::::::oOO+$%**===-----=%%%*--=*====**==*=-=**===%#%&%%+%*%%%%$$O:::::::::::::::::::::::::::::::::",
"::::::::::::::::::::::::::::::.o+%&&&**---==--=%&&--=**======****=-====*%$%**==%&%%**%#@ ::::::::::::::::::::::::::::::::",
"::::::::::::::::::::::::::::: X+@$**=**=--===*%***--***==******&*---===**&&*****&&****%@o :::::::::::::::::::::::::::::::",
"::::::::::::::::::::::::$.:::.O#%*****======*%***=-***----=******=--===**%*=*****&&**&&%#O.::::::::::::::::::::::::::::::",
":::::::::::::::::::::::::::::o#=***&*=--===*%&**=-==*==--==-;---**=======*&***-==**%&**%%$+.:::::::::::::::::::::::::::::",
"::::::::::::::::::::::::::::.$****&**=--=****=**==*===-=***--=-***==*=*==****&===*&****&%%#O.::::::::::::::::::::::::::::",
"::::::::::::::::::::::::::::X%==*&%*&%*-=*****===*%*===&&***==**==*****=*=****===*=***&**&%#+o :::::::::::::: :::::::::::",
"::::::::::::::::::::::::::::.%=*&%***&*********=**%***&*=**====**==***==******=*****&&&*&&%%$@.  ::::::::::::::::::::::::",
":::::::::::::::::::::::::::::o$&%%&*&%&%&&***==**&%&=*%=-==-=====-=*********==******&$%%%**&%#oX  :::::::::::::::::::::::",
"::::::::::::::::::::::::::::: oO@#&&%**&*****=*&%%%%=$%*&*===*==-==*&****&***=*&&&%&&%%%&****&%+o. ::::::::::::::::::::::",
"::::::::::::::::::::::::::::: Xo+@%%%%*%%%%&*==***%%*#%%%%*==**=---=*&*&****&*=*&%%%%$%$#&*&*&*&%oX :::::::::::::::::::::",
":::::::::::::::::::::::::::::  +##&&%&**&%***==*%%%%**%%$%=--**==--=****%%&*=*==*%$&%$&$%&*&&%*&&%$@ ::::::::::::::::::::",
"::::::::::::::::::::::::::::: .o+%%***==******=&%&%%%&**$**==-=----=*=*&%%%****=**&&%$&%%%%&&****&&$+OoX:::::::::::::::::",
":::::::::::::::::::::::::::: .Xo@%%%**=********=**&**&***&**==**=--****&%%%*******&%%%%*&&&*%%***&&&%%%%+::::::::::::::::",
":::::::::::::::::::::::::::: .o+%**%&*******====*****&*==*******=*=***&&*&&==***==*%$%%%%%**&%&*&&&**&%%&o:::::::::::::::",
"::::::::::::::::::::::::::::.oO$**%&***&*****====******=**==***=*=**=*%&*%&*=***===**&&&%&*==*%&&%&&*&%%$ :::::::::::::::",
"::::::::::::::::::::::::::: .o@&*%%*********==-===-=*=*****===**===**&$%%%%%**&%$**=%%%%%%***=$%**&***&$%O:::::::::::::::",
"::::::::::::::::::::::::::: XO@%*********=====-=---*=**=***==**&******%%&*%*=-=*$%**==*$%%****%&*&&*=**&%% ::::::::::::::",
"::::::::::::::::::::::::::: o+@%&*===******===-=******-==****&$%******$%&==*--=**&&====%%****=&*&%&&&&*&%%.::::::::::::::",
":::::::::::::::::::::::::: XO@#%&**==***=-====-******=****==*&%$%==*=*====*%&=*****====*&**&%*%%&%&&%%%%$$ :o#+::::::::::",
":::::::::::::::::::::::::  XO@$%&**=*=*-*=====*********&*****&%%$**=****=***&*%%***======*%=&*&*%&&&**%&%O  .Oo::::::::::",
":::::::::::::::::::::::::  o+#%*&***&%&-*==***====*&*********%%%#&********=*===*&=*==*****%&***&%%%*%&%*@oX.. :::::::::::",
"::::::::::::::::::::::::: XO#%%&**&&%$$***&$&==*==*&*******%*&%%%*==*&&%*%***===***==**%*==*&&**%&%*&%%%@Oo.o#o::::::::::",
"::::::::::::::::::::::::: X@#$%**&&%%##%**$%**&*&=***=&&%%*&*%&*******%*&*$%*=**==*==***===*%&=*%%***&**%@Oo+&%o:::::::::",
"::::::::::::::::::::::::  o+$$&&*%&&%%%%**%&*&%*-;;=***$$*$#$$%&***&&*&$%&$$*****-===*====**&***%%**====&%+O#*&$ ::::::::",
":::::::::::::::::::::::..O+$&%%*&%*&%$%&**&&&&%---;=*=%$&%&%%#%%%****&*%&&%%****=======*==**&**&%&=**==****+@*=*$::::::::",
":::::::::::::::::::::: oo#**%%**%&*%%%%**&*%&&&-=-;*=****%$&$@##*=*&%*=*%&*$%*&**=====-*==&****&$&==*=***&**%==*# :::::::",
"::::::::::::::::::::::.O&***%%&*%&%%$****%&&&&===--==****%*=&##$=**&&&*%%&&%&%**&**==*====*&%%&*%%==*****%$@%==*#.:::::::",
"::::::::::::::::::::::X#*=**$%&&&%*&#***&&&&**------******%&*$@%**&%%%*&*%%%&*&&**==***====*%&*=*%==**=**%@#&=*%+ :::::::",
":::::::::::::::::::::o@**==*%%&*****%**=&&&&**----=-*===**&=*%$#%$%%&&***%%%&***&&==****&**=*%&**$*====**%#@%=*+.::::::::",
"::::::::::::::::::::X&&%%**=&$&****&&%*******=----=--=*=**%%%#$++@#&*******&*******=***&***=***=*%%=*=***&@@#%%$X::::::::",
"::::::::::::::::::  .O*=%%==*&*****&&%&******-==-======**&$#O@#%+#%=****==-=*&*%*%&*&&**#%*******&%==**&&%@@+O$O ::::::::",
":::::::::::::::::: .Xo$%+%=*%**=*&&%&&*****==-=*--==**=***%#@##%%%=&*&***=--=&*=*%%&%&*%%%%***==*%&**=*&%*#+$@X. ::::::::",
"::::::::::::::::  .oooO++%%%&***%*&%%&&*==&*=-=*=-==**===*$&%%&%&****&**==*&****&&*&%%*&%%&*&*===**=*=***%&@##. :::::::::",
"::::::::::::::: .oo#**#@$%%%%***%**&&%%*=**==--=----===**%%*%&*%*-*&%***=**%&**&*%*%****%&***====*&&&**&%&*%&%.::::::::::",
"::::::::::::::: XO@*==%&==%&%*=*&&*&%%%*=***==----===*****%%$%%&=--****=*%%%&%&**%*%*****%&**====**&%*=*&**%+o ::::::::::",
"::::::::::::::: XO#*===*==&**&*=%%*%#$**=*==**==*-=--*-*&*&$$%%****&*%&=&$%&$$*%*&*&=*=*=***=====**&%==*&**%+O.::::::::::",
"::::::::::::::::.O+&====-=%&&*%*&&*%$%**=*==**=&&***=*==&%#%$&*****%&&&*%%%%%%%%%**&***=*****=****&&&-=**&*%+OX :::: ::::",
"::::::::::::::::.O@*=--***%*&*%*&&%%$&*********====*--=**%%%$%*&*&%*%%**%%%$%%%%%********&*====**&&&=-==*&*$+oo..  X ::::",
"::::::::::::::.. o+$=-=&**&&**&&&%*&$**=&**==*==*====****%%$%$*%&%%*%%**%%%%%*****=**&%%*%*=====**&&====**%@OOoo.XoX.::::",
":::::::       .oooO#&=**&&&****&&&*%%&=&*&****=***===*%%%$##%%%$#@$%%%%&%%&&*&***%*=*&%%%&*====*=**&=-==**%+OOoooOoX ::::",
":::::::: XXXXXOOOOO@&---*&&***&****&&*=*****%*=*&%&*==**%%+#%%$@O+##%%%&&%%%&&&&&&***&%&%%&*==***=*&******%+++OOO+Oo ::::",
":::::::: oOOoOOOO++@&-===***=*&*&**&*******=***&*&&%&&**&%+#%$%O++@#%%%&%%%%$&*%$%***%%%**%&*==**=*&*&*&*%#@@+$+++Oo ::::",
":::::::: XO++++++#%&$====*=***=********=**%&*&%$&%&&%&**&@$%&%@@+OO$$&&%%%%%%%*%*#&**&***%%*&**=******%&&%####+#$@+o ::::",
":::::::: oO+@###%%===*==********%**=%**==*%&&%%#*&%%&&**&+##+#@Ooo@##$%%&&%%%&*%%%***&**&*****%*==*&&&%**$$$*##%&%%@X::::",
"::::::::.oO+@#%*=====*****&&****&&*=*&*==*&%%%%$%%#%$%*$%@@++#@#@O@%$%&&&$&$**&*&&*%*&&*-===***&==*&%%&***&%$#$#$%&&#X:::",
"::::::::.o++@#&=======*********==***=&*===$%%#%#&%#$$%#$#O+oO$##++%%%&%*%$%%****%%%**&&*===***%%****$%****%$#$%&**&**+X::",
"::::::: XO+##%%======--*****======&&==*&==%##%$$%&%%$$#%@+++$@##@+#%&%%*%$%&&&*=&****&**===***%$%&*&&*****%$$#$******%%X:",
":::::::.oO@%==***======***========&*===&***##%%#$%%&$%$%$O++@@%#@+##%&$%&%%%*%**=***%***=*****&%%&*&%*****&%$$$%*====**@ ",
"::::::: oO@*=========**&&**========**====*$#+###$%%%%$%#$OX#%@$%%%$%###%*&%%%&*&*=*=&&&*=*****&%&**%%******$$%%&**===**# ",
":::::  XoO#*==&*===*=*&*%&**=====---==*--*%$@#$#$$+#&###%$%%&%&%&*%**%%%**&&&&**=*=%%&%****&***$%**&****==*&%%%&****==*%X",
"::: .XooO+%*=*%**=**********=====-=--=*=*%%$#%$%&%@++#$+@#&&****&&&#%&%&*&%%&&*&=**&&$#$*******%****=*=**=*&%%&**=*===*# ",
"  ..XooOO@&==**&**=*==*********=------=**%%###$&&%#+@$%##%%&******%%&**&*=*&&****-**%##$&&***&&%*======****&%%%&&**=*&#o:",
"  XXXoOO+@&*=*****====**=******=-----====%%##%$$%$#@O++@%%%%%****&%&*******%&*&*&****%@#%***%%#$**=====****%%$###*%%#O.::",
" .XXooOOO+%*==*****==**&**=***==----====**$+#%$#&##++O+*&%#$&****&********%*&%&&%&***&%#%&**%$@#&**=*=****=%##$##++Oo :::",
"  .XXoOOO+@*==**********&&**====---=--==*=*%$%#@*%##+o&%%&*&***&**%*****&*&%%+&%&****&%$$**%%++$***=*******%%#$@+OOX.::::",
": ..oooOOO+$***&**&&****&&****===---=-==***&#$@&%%@#+o+#@#*****=&%%&******%$%%%%%*&&*%%##**&%#%*******&**=***$#@+Oo. ::::",
":: .XoOOOOO@%%&*&&*%&&**&*****==---==--***&&&&$%%&%+Oo++@+&**********==***&##&&%%%#%%%@%&***%#%***%***&*****%#@++Oo :::::",
":: ..XoOOOO++%%%%%%******=***========-=****&**&%*%%$++Oo$$%$$*&%%****===*&%%%%*%%##@$$#%*&*&$$&***&&&&*****&$@@+Ooo :::::",
"::: .XXoOOOO+$%%%$%&*******===**===--=*&&%%***&#***%##%$%$+$$&%&%*&**==****%***&$+#%&@+*%&&&$%****&*&%*&**&%##++Oo.::::::",
":::   .XooooO$%%%%%&*&=***====*&*======*&%#%&*#%&&&%%$%%#$$$$&%%%***&****=*****%%#%%%O+%%&&%$%**==*&*%%**&%##@+OOo.::::::",
":::::   .XXoO#%#$%%%***&**==*=*&=====**&%%$$%*%%%***%*&%%%@##%*%$*****%%****=*&%*&%@+O%%&*&%****==*&&&%&*%$#@+O+oX ::::::",
"::::::    .Xo+%#$%#%***&******%#&*===***&$+$@%$*%&&*====&%$#+##%%%*&%#*&**********&&#%*%%&*=======*&&%%%*&&$++OO%o:::::::",
"::::::::  ..X#%+#%%#$%*&*&***%#$#%===***%%#%$$$%&&&*=-=****%$+#*&#&%%&%%%%**=****&%&%%*===**======*=**%%%&*#+OOoo+:::::::",
":::::::::   .++@$$$$%%%%$&$&&&$+@%**=*=**%%#$%$&**&======&%&@#%&%#%%&*&*%$*******&&&%%=====*==*===***==***#++OOo ::::::::",
"::::::::     O#$%$#$$%%&@#%&&&%%&&**=*==*%%#$%***&*=**==***&*&**%%%%&&%*******&**&%%%&==****=***=*****=*%$@+OOOX ::::::::",
"::::::::::: :.+@#%$$#%%&%%%&&***********&%$%##%**&****=*&%%%******&%%*&********&*&%$$****&**=****=***==*%#@++Oo :::::::::",
"::::::::::::: .#@#+$%&%%%%%%%***********%%$+##$%&%*******%$%%$&****%%&&&*******&*%%%%***&&&**&******&*=&$#@@+O. :::::::::",
":::::::::::::: O#+$%%&%$%$%%%&%%%&******%*$#+@#@$#%%&******$$%&**************&***%%****&&%$&**%%**&*&%&&$#@@+o.::::::::::",
"::::::::::::::: +++$%%$##%%%&$@$%%*&&**&***%OO++O#$%%*&%&**%$$%*****=********&&&**&**&*%&%$###%**&*%#$$$##@+OO. :::::::::",
"::::::::::::::::: .o$%$$%%%%%%%%&&%%$%%&****#OO+++$%$%%$%*&%##$&**&%***&**%&*&&&*&&***$&&*$#@##**$########+++O. :::::::::",
":::::::::::::::::::  o#%%&%%%%%&&**%$#%&*&*&***@@+#%%$&&$#%%%%%&&&%%&*&*&&%$%%%*&&%**%#%*&#@@@####@@@@@@@@++Oo.::::::::::",
":::::::::::::::::::::  XOO%%%&&&%&&&$#%%%&%%%****&%%$$%%$$%$%&&&&&&*&%*=%&*&$%#$$%%&&&#&*#++++$@#@@@@++@+++OOX ::::::::::",
"::::::::::::::::::::::::: O$$$%%%&&&$##%%&&&******&&&%&%$#$#%%%%**=*%&&*****&%%%&%%%%$##@@+++@#%@+++++OOOOooX. ::::::::::",
"::::::::::::::::::::::::::.++OO@#@%$@$%%&&*&&*****&%&&&%$@+@#%********%****&*****&$%%$##@@++++@&$+OOOOooX.   ::::::::::::",
"::::::::::::::::::::::::::::    .XooO@++%%%%%%****&%%$&&%%%&*&&****&&&**=*=******%$@##&#@@@++O++@OoXX.. :::::::::::::::::",
"::::::::::::::::::::::::::::::::  ....Xo+%%&&&&&&&&&%%%%$%%&&&&%****%*********%%$##@@@#$#++++OOOOoX. ::::::::::::::::::::",
":::::::::::::::::::::::::::::::::::     o@%%&%%%%%%%%&&%$$$%%%$%&&%**&****&%&%$+%*&%@@@###++OOoooX. :::::::::::::::::::::",
"::::::::::::::::::::::::::::::::::::::::: O+%O+#@#@#%%%&%$$%$###%*%*%&***&%$%%%+++#*#@@+@++OOoXo. :::::::::::::::::::::::",
":::::::::::::::::::::::::::::::::::::::::: .XoOo++O+@@##%%%%%%%%%%$%%%%&%$#%$&$O+++++++++++Ooo.  ::::::::::::::::::::::::",
":::::::::::::::::::::::::::::::::::::::::::.XoOo+OOOOOO+#%%%%%%%%%$%%%%%%##%%$+OOOO+##+++OOOoX ::::::::::::::::::::::::::",
"::::::::::::::::::::::::::::::::::::::::::::::oo:ooooOOO@@@@@#$%$%%%#%$$#@%$@#OoooOOO@@OOOooX.:::::::::::::::::::::::::::",
":::::::::::::::::::::::::::::::::::::::::::::::::::oX..o++@+@+####$$##$#@####@OoX.ooOOOOooo.:::::::::::::::::::::::::::::",
"::::::::::::::::::::::::::::::::::::::::::::::::::::::  XXoOOOOOOO++@@+OOO+++OOO...XoOOooX.::::::::::::::::::::::::::::::",
":::::::::::::::::::::::::::::::::::::::::::::::::::::::::: .XoooooooOoOOOooXooo.:::..oX..::::::::::::::::::::::::::::::::"
};
