/* XPM */
static char *_0023_5e02c6f39fc7f8cb8461fb923c841fae54e2b1819006deafb45ea7166cc8afae[] = {
/* columns rows colors chars-per-pixel */
"112 112 17 1 ",
"  c #593000",
". c #6D3800",
"X c #824100",
"o c #924900",
"O c #A65100",
"+ c #B65504",
"@ c #CB5D04",
"# c #E77938",
"$ c #EB8641",
"% c #EF9249",
"& c #F3A251",
"* c #F3AE5D",
"= c #F3BA65",
"- c #F7C775",
"; c #F7D37D",
": c #FBDB8E",
"> c None",
/* pixels */
">>>>>>>>>>>>>>>>>>>>>>>>>>>>>>>>>>>>>ooo>>>>>>>>>>>>>>>>>>>>>>>>>>>>>>>>>>>>>>>>>>>>>>>>>>>>>>>>>>>>>>>>>>>>>>>>",
">>>>>>>>>>>>>>>>>>>>>>>>>>>>>>>>>>>oO+@+Oo>>>>>>>>>>>>>>>>>>>>>>>>>>>>>>>>>>>>>>>>>>>>>>>>>>>>>>>>>>>>>>>>>>>>>>",
">>>>>>>>>>>>>>>>>>>>>>>>>>>>>>>>>o++$***$+oo>>>>>>>>>>>>>>>>>>>>>>>>>>>>>>>>>>>>>>>>>>>>>>>>>>>>>>>>>>>>>>>>>>>>",
">>>>>>>>>>>>>>>>>>>>>>>>>>>>>>>Xo++$*-;;=*$+ooXX>>>>>>>>>>>>>>>>>>>>>>>>>>>>>>>>>>>>>>>>>>>>>>>>>>>>>>>>>>>>>>>>",
">>>>>>>>>>>>>>>>>>>>>>>>>>>>>>XoO+$-;-;:::;&+oXXX>>>>>>>>>>>>>>>>>>>>>>>>>>>>>>>>>>>>>>>>>>>>>>>>>>>>>>>>>>>>>>>",
">>>>>>>>>>>>>>>>>>>>>>>>>>>>>>Xo+@%-;:::::;=#oX>>>>>>>>>>>>>>>>>>>>>>>>>>>>>>>>>>>>>>>>>>>>>>>>>>>>>>>>>>>>>>>>>",
">>>>>>>>>>>>>>>>>>>>>>>>>>>>>XXO@@#&=;::;:;*#OXO+OoXoXXXO@@@oXXXooo+$#@@#$#+>>>>>>>>>>>>>>>>>>>>>>>>>>>>>>>>>>>>",
">>>>>>>>>>>>>>>>>>>>>>>>>>>>XXo@@@#$*=;;;::;=#oXXOoooXXO%&*=*%$*=&$&=*&%%%%$o>>>>>>>>>>>>>>>>>>>>>>>>>>>>>>>>>>>",
">>>>>>>>>>>>>>>>>>>>>>>>>>>..oO@@$%&***-;---;::;$+ooXoo@*=====---;---===-*==%%@>>>>>>>>>>>>>>>>>>>>>>>>>>>>>>>>>",
">>>>>>>>>>>>>>>>>>>>>>>>>>>.X+#=-;;;-;-==-**=;::&+OoO++&=-----=-=;;;;-=*&%****&@>>>>>>>>>>>>>>>>>>>>>>>>>>>>>>>>",
">>>>>>>>>>>>>>>>>>>>>>>>>>.X+#-;;:;:;:;-*&%%&%**$$$@$---=---=-*---;;;--=***=****$>>>>>>>>>>>>>>>>>>>>>>>>>>>>>>>",
">>>>>>>>>>>>>>>>>>>>>>>>>.X+&;;:;;;:;;:;:;*%%##$&***-----;;;-------------*==---*%#>>>>>>>>>>>>>>>>>>>>>>>>>>>>>>",
">>>>>>>>>>>>>>>>>>>>>>..XX+*-;;;--;--=;;#@#-;*******--=;:;;;----;;;;;;;--*=---=-==&+>>>>>>>>>>>>>>>>>>>>>>>>>>>>",
">>>>>>>>>>>>>>>>>>>>>...Xo#-;::;;:;-*==%%*%&=***********---*=--;;;;;;----&$%--;--=*$>>>>>>>>>>>>>>>>>>>>>>>>>>>>",
">>>>>>>>>>>>>>>>>>>>>XXXO#=;;-;;::;-**--*==***==-**=----=-*&*=--;:;;;;;;*%#%$=;;-=*&+>>>>>>>>>>>>>>>>>>>>>>>>>>>",
">>>>>>>>>>>>>>>>>>>>>XXo#----;;;::-=*-;--=**&*=*=---=***=;-=***=;;;;-;;******%*--*=*@>>>>>>>>>>>>>>>>>>>>>>>>>>>",
">>>>>>>>>>>>>>>>>>>>.+++*-;;-;;--;-%%*=---%**=--;;;-=--*=**&**&*-;---;-*=---*%*-&#&&@>>>>>>>>>>>>>>>>>>>>>>>>>>>",
">>>>>>>>>>>>>>>>>>>>O#@#=--*=;;;;;-%$*---***--------=-**&&*=***=--;;-;-*-=***&*-*&@+#X>>>>>>>>>>>>>>>>>>>>>>>>>>",
">>>>>>>>>>>>>>>>>>> O##*--=*=-::;-=***---*&=;::;--==-**%*=*=--;---;;;;-----**-=%#%#@%#+>>>>>>>>>>>>>>>>>>>>>>>>>",
">>>>>>>>>>>>>>>>>>..@%*-;-=--;;-----==--&&-;:::-;--==***&**--==--**;;;;;;--=*-*%$$$#&%#@>>>>>>>>>>>>>>>>>>>>>>>>",
">>>>>>>>>>>>>>>>>>o+%*----======-------*%=;:::-;:-==-**&%&*=--==***=;-------=-=&***%#*&#+>>>>>>>>>>>>>>>>>>>>>>>",
">>>>>>>>>>>>>>>>>o@O#=--==*%&*=**------**-;:::::::;-;--=&*=---=-==*=-----;-=*---***%#&*%@X>>>>>>>>>>>>>>>>>>>>>>",
">>>>>>>>>>>>>>>>>OO%%*--==&%&*=------;-*--:::;;:::;;;---=--=---==*=*=---;-*%*----=%&%%**#>>>>>>>>>>>>>>>>>>>>>>>",
">>>>>>>>>>>>>>>>>X#&*==---=-==---;;;;;--;;:;;;:;;:::;-;-----*-*&**=**==-;**%&---;-=%$%%%%X>>>>>>>>>>>>>>>>>>>>>>",
">>>>>>>>>>>>>>>>>+$$=*--;--=---;;;;;---;;;:-;;-;;;---:-*---*---***-*&=*---=%*-;;;--*%&%##o>>>>>>>>>>>>>>>>>>>>>>",
">>>>>>>>>>>>>>>>>+@&=-=*=**=---;----:-;;;::--;=--:;:-------;;-=**&**&*%&*--------*=-*%#$&%@>>>>>>>>>>>>>>>>>>>>>",
">>>>>>>>>>>>>>>>.+@&-;=--=**----=--;;--;-:;;;-=;;----::;-----;-*=-%%***$**-----=**-=-*&&&&$+>>>>>>>>>>>>>>>>>>>>",
">>>>>>>>>>>>>>>>o@$**&-*=**===----;;-;;;:;::;-;;::-;--;-=-------*-$%=-*&**------**----=*&&#@>>>>>>>>>>>>>>>>>>>>",
">>>>>>>>>>>>>>>.OO%&$%*&&*--------;;-;--;::;;:;-;;;;;===%*=---==-=**=--*=**--;-=*&*--***%%%$#O>>>>>>>>>>>>>>>>>>",
">>>>>>>>>>>>>>>.O@&%#$***=----;-;;;--;=-;-;;;;-*-;;:;-=*&&*=*---==-*---***&=;;--**=;-%%*%%%%%#X>>>>>>>>>>>>>>>>>",
">>>>>>>>>>>>>>>Xo$&##$%==-;;;-;;-------;-----;=*--;;---=-=&==-----=&=-=**&&*;---==;:*%%&&%*&*%+>>>>>>>>>>>>>>>>>",
">>>>>>>>>>>>>>>Xo#%##$**------;;;---;**-==--;-***==-=-;--=*=***%=-==*=***=*-;----;;-***%#%**&%X>>>>>>>>>>>>>>>>>",
">>>>>>>>>>>>>>>>o+@@$$*=-------;;;-*--==-**=-&&-;-*=--*=-;*==%%$%&=-=*-**=*=:;;--;--**$%$%***&@++O>>>>>>>>>>>>>>",
">>>>>>>>>>>>>>>>oO##@%*=------;;:;--=*%--&%*-%*;;;-=-=-*-;-==%$%$$&****%****-;;--**&*%#&#%****%*&&#>>>>>>>>>>>>>",
">>>>>>>>>>>>>>>>o+##$&**-----;;;;;-==%*=*%-***=----*=----=-=&&*%%%$&%&-=--**-;;;-*$%$@@$%*********$#>>>>>>>>>>>>",
">>>>>>>>>>>>>>>>X++#&***-*----;;;;-******%*%#%*-*=**=--*=-==*%*&$%@$**&%%=-==;;-*%%*&$@%$***=***&=*$@>>>>>>>>>>>",
">>>>>>>>>>>>>>>> .+$%**=-=--=-;;;:;*&==*****%-***&*&-=*&*=-*=%%&$##==$$**--*&----&*%$**&%=***%&&*=-*&#o>>>>>>>>>",
">>>>>>>>>>>>>>>>>.@@%***==---*-;;::=---;---=%==*%$&*==*&***=*$$$$#-*&*==-==*&*-;-*&#@@%*#%***%*%**-=*&#>>>>>>>>>",
">>>>>>>>>>>>>>>> .o@$&=**----=-;;:;;--;-;-=**=-===&**--=-;---*#**&-****&%%=**&;;;=$$@##@#%%*&%$&***==*$+>>>>>>>>",
">>>>>>>>>>>>>>>> .X@%*====-=----;;;-;;;--=*=*=**==***--------=#*----*%%*@@#%*%-;;-%%%@$##&&&*%%&***==*%#>>>>>>>>",
">>>>>>>>>>>>>>>> .X@$*=--=-=*=--;;-;;;--=****==*=-==**-==----*%%----$##%#@@$**-;;;*$#$##%=&-=%%%******&#>>>>>>>>",
">>>>>>>>>>>>>>>  .O##%=--=====-;:;--;-*&%%&*=&**-=--=***==----==--===##%%%%=**-;;:-%%&#&*---**&%**&****#X>>>>>>>",
">>>>>>>>>>>>>>> .Xo@$**&-------;;;;--**&&*&*===-=-**=******=-----=***%%%-----=--;;;*%%#&*==-%%***=***&*$o>>>>>>>",
">>>>>>>>>>>>>>> .o+@&**---*=**-;;;;-=-=-*&=-==--==%**&*=**==----=**=-%&=-----==---;-%##*&==-&%%&=&%*=*&$@>>>>>>>",
">>>>>>>>>>>>>>> Xo##%**=--===*-;;;;---;-=-*-**--=*%******&&**=-=----*---=*--====-=--&%$==-==*%#%******&$@>>>>>>>",
">>>>>>>>>>>>>>> XO@%&*=-=---&**-;;;;;-----=-**-=&&%%**%**&$$*--=*--=----==-;=*%=-=--=*%*%**=*#&%*$*=*&%%#>>>>>>>",
">>>>>>>>>>>>>>>.o+@&*=------*=--;;;;=---;;--*=*&&%%%*&$*=*&&$==&=-==*=--==---&#&===-=*%%%**%$#%#*$&**%&%#>>>>>>>",
">>>>>>>>>>>>>>>XO@%*=--==*----;-;;;-=--------=%%#%&*&%$&**&&*****-****===-=---&&%&=--===*=*%##$##&*&%%$#+..X.>>>",
">>>>>>>>>>>>>>>.O@%&*-----**-**=;;--*-=*--=-*%&&****&%#&&&**=*-=**%&**-*==*=--=*&%--;-****%=*%%@@$*&&%#+..+*@>>>",
">>>>>>>>>>>>>>>.O#&%*==&***&%%*=;-;------=;--*&$***=%%#$@%*%-&****&&*&=**==----&&*;;-**&%%%**$##@%**&%$X..#**-X>",
">>>>>>>>>>>>>>X$+$%%=%*%%#%@%&%&***=**=--;=--&&%*&%%@@###@+@%**&&%&&&*****=----=*--;;-*%##%$&####==*%*#+.. O%+ >",
">>>>>>>>>>>>>>>.@%$**=@#@+@@#%#&*%%=**=-;;--*%%%$##@+#@#OOX@%**&**$@%==***-----=*---=-=*$$%-*%$#-==&%&%+X..#*o>>",
">>>>>>>>>>>>>>>X+#$*&*%*@##@##$=*&%%%*-;;-;**&#*$@#O+@@##@$&&=&%*&*%%*&***---=--**--=--&%$$**&%====&$&*$+.X&=& >",
">>>>>>>>>>>>>>o@#%%&*%*%%#@%%$%*%#$&&=;;-=--*$&*@#@Xo+%%@#*%==%*$$*#&=%&*=-=*==---=*=--&###**&---==**%=%+X@*=& >",
">>>>>>>>>>>>>>o$**%*&*=*%#+@%+#&%%$$&*;;-=--&%&*%@#+XO@%&&%*&*%&*%#**=*%**--=*=--==*---*#%%=&*----=*&%*%++@==% >",
">>>>>>>>>>>>>.$*&%%&***&$@OO@###*$#$&*--*==**%&*&#o#@O@$#&*%#+$&&*-**&*$&&-***=--*-=--*&&&*=%-----=****%+oo%-& >",
">>>>>>>>>>>>>@&%$$%%**=*%##@#$#@*@%#&---&%=-&****$#$#@@%#%**#+%%*=**#%*#%*-*&%*=-=**--=%=-*=*=-;---*&*&%#oo*-* >",
">>>>>>>>>>>>.%$%%$%%***&#$#@@#$@&%%%#*--&%=-***&*##$$$+%%$#%+@$%**$*$$&%*%****&*-*%&-=*=--*=*=----=*&%$#+X@*&&.>",
">>>>>>>>>>>>.O++#$%&**=*&&&%%$###%**%%**=*&*&&&%%%$=*&@#*%@++#&%$%#%%%%&&%*%&&&*=*$%****=-=&*&=;--=*&%#@o..@O+>>",
">>>>>>>>>>>>%-$@@#%%&*=***-&&##&*#&%**--=*-****==&*%%@@@#$#@#&%%%%%$%$%$$&%%*&**=*%#&*=*-=**&#*---=*%%#+X.>> >>>",
">>>>>>>>>>>+*&####%&$***-*-&&$#%=*=&==***%%==***&=**@+@+o$%&*=%$%&##%%*$%&%***%&--*@&-**==*%$#*---=*%#+oX >>>>>>",
">>>>>>>>>>>>o@#+@$%#%%==**%%&#@#%***=-&*=%&%==&****&@o+@@@&$*$#*$%%##%%$%##*&=*&=-&%&***=*&%#$&=;-=%#@+o.>>>>>>>",
">>>>>>>>>>>@==%O+@&@%&***%&&&$#%****--=*=**&*==*&**&#O+%%$$#%%&&%$&##&%%%#%&*&%&*=%$@#%=&*&$$&#%--*%#@+X.>>>>>>>",
">>>>>>>>>>@%*=*@@#*#@&=*%%#&&#@%&=*=---**==****%&==*@o@%&$%&*=**%%&@&*&%$$$$#&*&%&&&@+%***%#@#$*--&$#@o+ >>>>>>>",
">>>>>>>>>>@--=*##%*%@&**%&%#%&@&&***---=---*&%%%&*&%@O@*&**&*&*&*%%%&%&$&$%*%%*%%*%*%$=*=*%@+@%#=*%$@+o. >>>>>>>",
">>>>>>>>>X*=*&*=-&&%$%%#&%&*%&#*****--==---**%*&**%%&@@&=*%***%%&*%#%&$%*%%%***&%&&=&*==***%@++#*%$@+OX.>>>>>>>>",
">>>>>>>>.o$---=*****&%%#%@%&$%#%*%***=-=---=**%&*=*&&$#***&=*%%%%%$$%*%#$*=*$%&&$$**&*=-=*%##@##%###+o. >>>>>>>>",
">>>>>>>.X@&;;;-==****&#%$##*&$#$*&*&%*===*;-=-%$-*%&%#%&******&&%#&&$$#O#&%%%$*%%*%$&&*=**&%%@&%#@+@@X..>>>>>>>>",
">>>>>>>.o#-------*****%&$&@%%##&*%&*&*&&*;--*--*-$#&#%%=%**=*&&%##%&&$@#&#$#%%#%*#%%&&&==*&*$#%*#@@@%X..>>>>>>>>",
">>>>>>>.o%-;;---*%&***=%$$@#%##&**&%****=&:***&*%##$$%&&**%&*&&%@@##@@##%&$&%%%**%$%*%=-=*&*&@%&%#@#@X. >>>>>>>>",
">>>>>  .o%**=-==*%&&**==%&@#%#@%**&#&*-*-&=-*%%&*#@$%#%**&&&&&%%@@%&$%&*****%$%$%&#%*%%--=&&*##$&&#+#X   .o#X>>>",
">>>>>...X@#$$%%%&%&***=--%#@#*&%$%*&****%***==*%&%@##@#%%%@$&&%##$#&&%$*%%**%&$@%%#*%%%---&%=&##&%+++....#**O >>",
">>>> ...o@#%&%%&******=---%#$*;=%&&%*%&%*&**&&%#%%$@@++@@$+#@&#%$#%%%%%%#*$&*&$&%#%%%%%--=*$$*%####@o.. .%o&@X>>",
">>>>  XO#%&%%*&*******=----%*;;-*%*%%&%#%@@#$%@#%$&##Oo+@#@#$#@$$%*$%%%#%&&&%%%*%+###@&-=**%@%*%@##+... @o#&#*@>",
">>>>  X$%******=***=-=-----;-;--*&-****@+@@$$#@$#&$@@++o+@#@###%$$%*&#@#%&$$$%*%##$+++#==&%=#**#@@@XoXX.XX#*$%#>",
">>  ..+&#%*****==*==**-=*=-;--------*$+@@+@###@++#++@###@@+#@&&%&=&%&@$$$%$*%&****$@O@%***&=#**&@@+OoXoXO.@@#o.>",
"> .X@&=*%$%**===*%*==****--===-----;;*&#+#$%@%+O++#@#@@+@#@#%*&=***%*&*&%%&*##%**=*&++#*%*=%@*=%*#+OOOOoXX+++X##",
"> .o*=**&****=*-%&%&*$-*====-------;;-*%&$&*%@#o+#$%&*%#%%&%==**&=&%$%*#$%%%@@&****&#o$%&***%%*$%#@ooooooooXXO##",
">   $&&****=***%**&&%%***=**-==----;;-=**&-=*$X+#&%%&&=#%****--====%%%%&*$##+@****$&#@##=--*&**%#@+OOOO+OOOoXX  ",
"   .o$*&%****=****%#%%&&-&&*=**=---;;--*%%***%#*#%%&**$#&&**----***&%%%**%%#+#****&&#@##==&==*&%#@++OO+OOooXoo >",
">   .X#**%*=*&&&*%*%$$%%&&&****-=--;;--*******$++&%%&#%&=***--==*****&*=&#$$##%*=*%%$%#%**%*&%$$@++OOOOOoXXX#o  ",
">>  .@+#%==***==**&&&&%&%*&&*&*-**-;;-=&*****%$@@%%*%&*=*=*=---=***-=%==*#$%#@#&=&*%*&&%**&#$#$#@++OOOOOooXoo.. ",
">>>  X.O@**=*&****&**&*=%&&%$&*===--;-=***&**%*#$%*-****=------***---&*=%##@$*&%=*$%&%&%$%#@%%#@@+OOooOooXX%-+. ",
">>>  .%@&&$$%&&***&%&*==*&%%=--=*=-;--***$@%=**%&**=**&*=-----=***----=*&&##=-*&*%%**&%$#$%&&$$++Ooo+%$oX.X... >",
">>>>  .o+@@@$%%%%&%%%%*-*&**====-;----*%$@@%==*****=*****-----=**-;---=*&%&*=-*%%%&&*&***&$%**#@+oXXoooX.....  >",
">>>>    X@O+##%%%%%#@$&%*******----****%#O#%**=**&%=**=**=---=**&=-;----%&*==**$###$&*=%%&%%**%@+oXXXoXX....  >>",
">>>>>   .#XX+@%&**%###%******&**=---=&**=##%&***&&%*-=%****-==*=*&-----=&*=*&**$#@@@#$*%#%%#$$$+XooXXoXX...  >>>",
">>>>>    .. X@#%$&&%##%*****%%&*=-==-*-==%##%&&%&%$****&&**===-=**==--=****&=*&%@@@@@@@@@@#$#@+OooooooX....   >>",
">>>>>>>>  .. XO+#%$%%##%%&%*%%%****=**--*%###*%%%$$**&&&%*=**=--==*==--**%*==*$#@@@+++O+O@$%##@++OOoOXXX..   >>>",
">>>>>>>>>>    Xo##$$%$###%#%%%%*&***==-=*$%##*%###%&&*&%&***==-=*=&***=*&****$##@@@@+++O@#*-=-#@+OOOXXX....  >>>",
">>>>>>>>>>> >  Xo+##%#@##$#%###%*****==*&$%##*&%%%#*********=====*%*&*==***&&####@@@+OOO@%*-==*#@++OoXX...  >>>>",
">>>>>>>>>>>>>  %#++@@@@@++@+++@%&&*&****%$$#**&%%%$************====%*==*&***%####@@@++O+@$-%*--*@@@+oXXX..  >>>>",
">>>>>>>>>>>>>> @X   .+@OXXO++++#%#%&**&&%##&*%*%&%******-*****===-&*=**&***&&@@@@@+++O+O+#&%%&$%##@+oXX...  >>>>",
">>>>>>>>>>>>>>>>>>>>     ..X+@#%%&%%%%%$@+#&&%*&%&==*=******==*==-**%**%***%*@@++++++OOOO@@#*$#=%%*@OXX.   >>>>>",
">>>>>>>>>>>>>>>>>>>>>      .X+O+@#@#$@@+O+#*&%%*%*==********=*****=*%%*%***&%+++OOoOOOOoo+@@%&*--==#OX..  >>>>>>",
">>>>>>>>>>>>>>>>>>>>>>>>     ..X++++@@+XXo+%&%&*&&*=**=*&***==****=*&%&$$&&%@+OOoooXoOOOoO+@$&*=--*#+X..  >>>>>>",
">>>>>>>>>>>>>>>>>>>>>>>>>>>> .. oOooXX...X+%%&&***&***=*****=*&*****&%&##%##+OOOoXoooOOOoO+@#&*=---%@O.  >>>>>>>",
">>>>>>>>>>>>>>>>>>>>>>>>>>>>>  ........ ..@@@%$%*******=**&**&&%&&**$&%%$###+OOooXoXoooOoo+@*%-====*@OXX >>>>>>>",
">>>>>>>>>>>>>>>>>>>>>>>>>>>>>>>   . ..   .+@+@@$&***=**&&*%%&%%%&%%***$@@+#$#OOoXXXoXoooOXO#=**$#%@@OX..>>>>>>>>",
">>>>>>>>>>>>>>>>>>>>>>>>>>>>>>>          .O+O+##%*&***&$*=&%&%%%##&**&#@@@+#=$OoXXXooXXoooO+&@@$*%@OXX. >>>>>>>>",
">>>>>>>>>>>>>>>>>>>>>>>>>>>>>>>>>>   >>>> .ooo@@#%*%%#$%***%%#%###%**&#@@+++@=$+XXXXXX..XXooOOOO+++OX.  >>>>>>>>",
">>>>>>>>>>>>>>>>>>>>>>>>>>>>>>>>>>>>>>>>>> .oO+@@#%%*&&$$%*%&#####%**%@@@++++$%+oOoXXX.....XXXX.XoXX.   >>>>>>>>",
">>>>>>>>>>>>>>>>>>>>>>>>>>>>>>>>>>>>>>>>>>>...X+@#%$&%&%$$*&####@#&*&$@@@+++++OooOoXX.......X........  >>>>>>>>>",
">>>>>>>>>>>>>>>>>>>>>>>>>>>>>>>>>>>>>>>>>>>>>..O+@#$#%&&%##%@#%@#&**$@+++@@@+++ooXX......   . . >  . >>>>>>>>>>>",
">>>>>>>>>>>>>>>>>>>>>>>>>>>>>>>>>>>>>>>>>>>>>>>XoO+@@#$$$##***&*-*&$@++++@@@+++OoXX......        >>>>>>>>>>>>>>>",
">>>>>>>>>>>>>>>>>>>>>>>>>>>>>>>>>>>>>>>>>>>>>>>>>Xo+++@$*&&=***=-*%++O++O++++OOOooX.... .O >>>>>>>>>>>>>>>>>>>>>",
">>>>>>>>>>>>>>>>>>>>>>>>>>>>>>>>>>>>>>>>>>>>>>>>>>o>o+@#$$$%**==&%$@OOOOOOOOOoOooXX..    >>>>>>>>>>>>>>>>>>>>>>>",
">>>>>>>>>>>>>>>>>>>>>>>>>>>>>>>>>>>>>>>>>>>>>>>>>>>>>o+@@@++@$%$#@++OOooXXoOooOooX...X >>>>>>>>>>>>>>>>>>>>>>>>>",
">>>>>>>>>>>>>>>>>>>>>>>>>>>>>>>>>>>>>>>>>>>>>>>>>>>>>>XooooOO++++OOoXX>>>>XooXoXXX... >>>>>>>>>>>>>>>>>>>>>>>>>>",
">>>>>>>>>>>>>>>>>>>>>>>>>>>>>>>>>>>>>>>>>>>>>>>>>>>>>>>>>>>>>>>>>>>>>>>>>>>XoXXXX.... >>>>>>>>>>>>>>>>>>>>>>>>>>",
">>>>>>>>>>>>>>>>>>>>>>>>>>>>>>>>>>>>>>>>>>>>>>>>>>>>>>>>>>>>>>>>>>>>>>>>>>>>>XXXX... >>>>>>>>>>>>>>>>>>>>>>>>>>>",
">>>>>>>>>>>>>>>>>>>>>>>>>>>>>>>>>>>>>>>>>>>>>>>>>>>>>>>>>>>>>>>>>>>>>>>>>>>>>>oX..XXo>>>>>>>>>>>>>>>>>>>>>>>>>>>"
};
