/* XPM */
static char *_1823_0f7a4c8ae70c7a9c8ad922195d5e8a849713ee455f2618d63f8c02e0fcb8fe92[] = {
/* columns rows colors chars-per-pixel */
"109 105 18 1 ",
"  c #452800",
". c #593000",
"X c #6D3800",
"o c #824100",
"O c #924900",
"+ c #A65100",
"@ c #B65504",
"# c #CB5D04",
"$ c #E77938",
"% c #EB8641",
"& c #EF9249",
"* c #F3A251",
"= c #F3AE5D",
"- c #F3BA65",
"; c #F7C775",
": c #F7D37D",
"> c #FBDB8E",
", c None",
/* pixels */
",,,,,,,,,,,,,,,,,,,,,,,,,,,,,,,,OOO,,,,,,,,,,,,,,,,,,,,,,,,,,,,,,,,,,,,,,,,,,,,,,,,,,,,,,,,,,,,,,,,,,,,,,,,,,",
",,,,,,,,,,,,,,,,,,,,,,,,,,,O@@@%===%@OO,,,,,,,,,,,,,,,,,,,,,,,,,,,,,,,,,,,,,,,,,,,,,,,,,,,,,,,,,,,,,,,,,,,,,,",
",,,,,,,,,,,,,,,,,,,,,,,,,oO@@@%=;::-=%@OOooo,,oo,,,,,,,,,,,,,,,,,,,,,,,,,,,,,,,,,,,,,,,,,,,,,,,,,,,,,,,,,,,,,",
",,,,,,,,,,,,,,,,,,,,,,,,oO+@$$=:;:>>>:*@Ooooo,,,,,,,,,,,,,,,,,,,,,,,,,,,,,,,,,,,,,,,,,,,,,,,,,,,,,,,,,,,,,,,,",
",,,,,,,,,,,,,,,,,,,,,,,,oO@#$&-:>>>>>:-$Oo,,,,,,,,,,,,,,,,,,,,,,,,,,,,,,,,,,,,,,,,,,,,,,,,,,,,,,,,,,,,,,,,,,,",
",,,,,,,,,,,,,,,,,,,,,,,oo+#$%&=-:>>:>:=$#@++@+OoOooOo+###OOoooOOO@%$##$%#@O,,,,,,,,,,,,,,,,,,,,,,,,,,,,,,,,,,",
",,,,,,,,,,,,,,,,,,,,,,ooO#%&*==-;:::>::-$$@@#+OOOO+@@&*=-==&%=-*%*-=*&&&&%#O,,,,,,,,,,,,,,,,,,,,,,,,,,,,,,,,,",
",,,,,,,,,,,,,,,,,,,,,Xo@$*=--;:;:;---==-:>>>%#@@@#@$*-;;;;;;-;-::::;-=*&&==**$@,,,,,,,,,,,,,,,,,,,,,,,,,,,,,,",
",,,,,,,,,,,,,,,,,,,,Xo@$=-;:::>:>:;=*&&*&===%%%#%;;;;-;;;--;=;;;:::;;-====-===&#,,,,,,,,,,,,,,,,,,,,,,,,,,,,,",
",,,,,,,,,,,,,,,,,,,Xo@*::>::::>::>:>:=&&$$%%*===;;;;;;:::;;;;;;;;;;;;;;==--;;;=&#,,,,,,,,,,,,,,,,,,,,,,,,,,,,",
",,,,,,,,,,,,,,,,XXoo@=;:::;;::;;-::$#$;:========;;--:>:::;;;;;:::::::;;==-;;;-;-=$O,,,,,,,,,,,,,,,,,,,,,,,,,,",
",,,,,,,,,,,,,,XXXXoO$;:>>::>::;=--&&=&*-=============;;;=--;;::::::;;;;**%&;;:;;-*%,,,,,,,,,,,,,,,,,,,,,,,,,,",
",,,,,,,,,,,,,,oooo+$-::;::>>::;==;;=--===---;==-;;;;;-;=*==-;;:>::::::=&&$&%-::;-=*@,,,,,,,,,,,,,,,,,,,,,,,,,",
",,,,,,,,,,,,,XOO+@$&&==;::::;--;;;=;-==;;-*--;;-;;=*=*===-;::::::::>;-;;;-*&&*=====%o.,,,,,,,,,,,,,,,,,,,,,,,",
",,,,,,,,,,,,.ooO+#&==-;;>:::;-=;:;**&&=-;;-=-;==--&%****==--;:::::::;;::;;-=-==*&&&$o.,,,,,,,,,,,,,,,,,,,,,,,",
",,,,,,,,,,,XO+++@$=-==-;;::;;-=;;-&&&==-=-===*===*$$&*&&-;;-=;;-::::;;;::;;--==&&&&%#O.,,,,,,,,,,,,,,,,,,,,,,",
",,,,,,,,,,.+#@##$%===*=;:;;;;;;-;*$&%==;;;;;===-=**$&*&*-;;;-;==-;::;;;::;;;;-*&&*&%$#@.,,,,,,,,,,,,,,,,,,,,,",
",,,,,,,,,,.O#$&&&%===*=;::::::;;&&%*=-;;;;;;==*=****=%&%=-;-===*==::::::;-;;;--===&&$$#.,,,,,,,,,,,,,,,,,,,,,",
",,,,,,,,,,.O#%**=&&*==-;;:::::;-$&==;;;;:::;;-=-&%*==&*-==;;;-==;==;:;;;=;;-;;;;;-&$&%$#o,,,,,,,,,,,,,,,,,,,,",
",,,,,,,,,,X@$$&-;====-=;:::::;:%$*==:>>>::;:;;==$*=&&$&==-;;;;;;;-=;;:;;;;;;-;;;;;=$&=-&#.,,,,,,,,,,,,,,,,,,,",
",,,,,,,,,,o#$%*==*=-;--;:;;;:;=%%=-;>>>>>::;:-=-*&===&&--*;-;==&*=*;;;:::;;-;;;;;;;***-*#o,,,,,,,,,,,,,,,,,,,",
",,,,,,,,,.+#$&$*===;-=-;::;;;:=#&=;:>>>;;;::::;-*%&*&==-=**==&&*-=====-:;;;=;;;;--;-&&*=#o,,,,,,,,,,,,,,,,,,,",
",,,,,,,,,.@$&*&$=*-;-;;:;::;;;&$==;:;;-==-;;:>:-*%&*==-====-=&&&&=-&=&;:;---;:;-;;-=$$&*$@.,,,,,,,,,,,,,,,,,,",
",,,,,,,,,X@$$&$&--;;:;::-;-;:;%*==:;-::**=;;;::;;:;=**&=**=-==&&=*&$**-:;;--;;=*-;-=$%&*&#o,,,,,,,,,,,,,,,,,,",
",,,,,,,,,X@$&==-;=-;;:;;---;:*&=;::;=:===%==;;:;;;=%&**&*%$=====&====&&-:--=;;;;----=%&&%#o.,,,,,,,,,,,,,,,,,",
",,,,,,,,,O#&&&=-;;;;::;;==;::-*=-;:;=:;=%%;-::-;;:=**=-&%&==&%&$$*=*=%&&=;;;::=***===*&&=%@.,,,,,,,,,,,,,,,,,",
",,,,,,,,,o#*===-;;::;;;:-;:;:-*;;;:;;-==&*==;;;--;--===-**==$&=&$$*==&#&&;;;:;=*==-;=-=&=&#.,,,,,,,,,,,,,,,,,",
",,,,,,,,o@%*-;=-;;:::;;:::;::---;::;-=-;*%;:>:>-*=--=========%*=&$$===$&&=;::;====;;;;=$$*&#.,,,,,,,,,,,,,,,,",
",,,,,,,,O@%*&*=-;;;;::::::;:-=-;:;:;;;:;;;;:::;;;===*****%*==&&*%$%=;=%**=;::;;;;--=&&$@@&=&@.,,,,,,,,,,,,,,,",
",,,,,,,,O#%&&&=-;;;;::::::;;;;;;;-;:::;;-*&;:;:>:;==*&&===-=&=*%$$&=;*$=*=;;;;=--;-**=&##==&%O,,,,,,,,,,,,,,,",
",,,,,,,,O@%&&&=-;:;;;:::::;;;=*;-=;:;::;=%$=:::::;--=**==-==---&=&&-;-=**&-:;;;;;;=*&*-&$*=*%#.,,,,,,,,,,,,,,",
",,,,,,,,O@$&$&&=;;;;;;::::;;;==-;;;;;-;;=%$*-;;:-;;;-;&&=-;=&**=&&*-;-&=&%=:::;::-&$&&&=%&&&&#$#O.,,,,,,,,,,,",
",,,,,,,,o@#%$%&;;;;;;;;:::;;;===--*-=%;;*&$=-=*-;;:;-;=====-&%&$%%*==&$$&=*:>>::;=&*$$#$**%=&&&&&#.,,,,,,,,,,",
",,,,,,,,.@#%$&=--;;:;;;::>:;-=&*-==*#$-*&&&*&&*;-;-==:=&==$$$$$$$$&*&*%&*$=:;:::;&*&$$##==&=*&&*&$O,,,,,,,,,,",
",,,,,,,,,X+%$==---;:;;;;:::;=*&$=*%###=&&&;:;*&-:;;=;:;%=-*$$$$$&$&$$*&&*&*;;::;==&$+$@@=*&=$*==&%#.,,,,,,,,,",
",,,,,,,,,,+#$==-=-;;-;:::::;***$&==*$$&***;::-=-;;;;;:;&=*&$$%$%%$&%*=%*-&*;;:;-=%@@@&#*;==&%*%$=*$oX,,,,,,,,",
",,,,,,,,,,X##*===-;;-;;;:::;==&$*=-&--&=*=;-=--=;;;;;:;====$#%$$%&$*==*-===;;:-==&##$&&&==-*#$%&==$#@o,,,,,,,",
",,,,,,,,,,X@$&*=&=;--=;::::;*=&%=-*&$$&&*-====**=-===*=*&&=*$$#%%$&===&-:;=;::=&*=$#$#&=*$*&%&$**=&$#o,,,,,,,",
",,,,,,,,,,o@#%&===-;===;:::;***;;;=***==--===*&;;-=*&&&&*=&%&$&$#%*$$$&&=;==;:-==*$&$@%==$=&&&%*&***%#.,,,,,,",
",,,,,,,,,,O@#$*=-=-**--;::;;-=-:::;;====;-=====-;=--*%%$*=&$*#@$&;=*=*-=**&&-:;=&#@@$####%=#%$%*&&&&&%@,,,,,,",
",,,,,,,,,,oO@#&=;-===-;-:::-;;::;;--==;-=*-===-;;---;=*%&-%$*&#==*%-==&=-=&$=;:-&@@$#O@#@&=$$$%&%$%&&&#.,,,,,",
",,,,,,,,,,XO+#&=;;;==-;;;::;;;:;;-;*====**;;;;;;;--=--;=;;&$=-=-==&*-=&&&*&%*;:;&$@#@#&*#&&%$$&=%&#&*$@.,,,,,",
",,,,,,,,,,.X+#&==;-==-;;;::;;;:-=&%***===-;;-;;=;-====-;;;=&-;;-=*&$*&#@@$&%$-;;=%#$&%-===*%%$&*&&%&&#O,,,,,,",
",,,,,,,,,,.o+#&=-;;==-;;:::;;;-=&&&&=;;=-;;---*--===-===-;;=-;;-=;=##@@O@#==&;::-$#$&*==--=&%%$&%*&&$#.,,,,,,",
",,,,,,,,,.Xo@#&*-;;=--=;:;;;;;-=*=-;;;-=;-=*==*=;==***===;;-;--;;-&%%$$#@$==-;::;&$#$&==--*=*$%%#&&&%@.,,,,,,",
",,,,,,,,,.Xo@#&==;;-==&=;:;;;;===;:;;;;--==&&&=======*$*-;=--=-;;%%*-*=&==-=-;;::*$%$&*=&==*%&=&@%####o,,,,,,",
",,,,,,,,,.Xo+$&=;;==-=*==;;:;;==;;;;;;;-==*&&**%*&*=&=%$&==*&;:;;;**-===-===---;;=$*&*$===*&#&=##&$$$#+,,,,,,",
",,,,,,,,,.XO#%==-=*=;;-==-::;;;;;;;;;;;;==$=&=*%$&%*&$$$&&==%-;;;===-;-====&*=;=-=&*-=%%%&*$+%&#$&&&#@O,,,,,,",
",,,,,,,,,.o@$&======;-;==-;::;--=;;--;;;*&*&=%$&&&$*=*$#$$&%&;;=-===--=====;====-;**===*&*%@#$&$#%&%$@o,,,,,,",
",,,,,,,,,XO@$&====*=;--=-;::;;=-=;;=-;;=&&&&=#$%=&$===$=&&&&==*=*=*=--==========-;&&&$$$$###@###$&$$@+..,,,,,",
",,,,,,,,.XO#$*=-=*==---*-;::;;-*-;;=-;--*%$&&$*=&$#-=*&-;&&*&&&&&&&&=*%=-----===-;=$#O@#&#@#%@#$%*$#oXXOX,,,,",
",,,,,,,,.X+#$*==*=-=-=%&*-;;-;=*;--=-=--*$$$$$=*%$##&==*=&=-&%$#$&%$*&&=;;;-=====;=$##@&=&&##+$&=*$#o.X@@O,,,",
",,,,,,,,,X@$%&=&&=*-=&%%*==-;;-*=-;=====&$$@$$*&#@##$*#%==*=&%$##$&$&**-;;;;-&&-;:=$@#$$==%@+o$*==$#OX,,,o*+,",
",,,,,,,,XX+%&%=&=*#*$$%&&*-;;-=&=----=;=%%#$#$&@@@#@@+O&&===&&$%%#&%&==--=;-=**;;:;=$#@#*%$#O#%===%$@X.,,,@;@",
",,,,,,,,.X+$&$=&&$#&@@$&&=**&&&&=*--;;==&$@##$@OO@#o+@@$$##**&&&$$#&*=&====-;*=;-;;-%#@#==&$$%==**%%$oX,,,,O.",
",,,,,,,,,X@$$$&&&&&#@#@#==**%&%$=&=;-;-*%#@#@@.Oo@+#%$@$%$*=**&%&*%*%&&=*=-;;-===--=$#$&&==&&;;==*&%%+oXXX,,,",
",,,,,,,,,o+#@$$&*&%$$@@#%==&$%%*=&=--=;=#$=$$oX.o@@O$#$$&%$%&**%%&%&$%&-==&====*&&==&#=*--=*-;-===*%%+@$,,$.,",
",,,,,,,,.@#$@#&&%$$&#@+$$%*%$%$&-=&*==-&#&*%O@...###&#%$%@@&&&$&%%*%%$&;;-&-======-;;=-=;;--;;;-===&#Oo.,.O,,",
",,,,,,,,.@##$#&&&&%=$+o$#%=$-&#&&*&&&*==%%*$@O@oo@#$$$%$O@$%%$$*%&$%#$&=--======&=--==-==-=;;;--==*&#@o.,##,,",
",,,,,,,,+O@#$$&$*&&=&@O+o@*%$%%&%&&%&*&&#&=#@O@$@##$$%$$O#$*&=&%%*%@%$&=*-=====&==-;=*=**%=;;;;-=*&$@o.,.&$,,",
",,,,,,,,.O@@$&$#*=%&%###OO$&$$$$&*=%%%&%$%=$#@@#$@$&%$%@###&=**&$#&@#%*=&&===&$$*====*=&$$$*;;;=&%$#@#X,o&X,,",
",,,,,,,X++@#$&#$&=&*$##$@+@&+$&$&==&$%%@#%&$@@##%$$$%$$$##%%&&$&=%$@$&&=$%&*-%&*=&&=-*&%#$#$---=&$#o..,,,X,,,",
",,,,,,,X@@@@#$$#$&&=%&&&$++$@$&#%***==$@#&##$$%$#####&&$###&*%&&&$@#%&*&%$$*&$@-*=---=&$@#$$-==*%#OX.,,,,,,,,",
",,,,,,, O##+@$&&#%=%&&-&#@+#$&$*&$&&*-%&$$=$%**$#O$$*$%=&%$*&&$$@#@#*$%%****;*#$&;-==&%$#+@#;**$#oXX,,,,,,,,,",
",,,,,,oO#$#+O#&%#$&*%&=&$O+#$&%&==&*%&&=&&%&*%&$oO#%&$$=*&$&#@$#@##&%$%&%%%&=&##&;-=*&$$#O#$=%$@+oX.,,,,,,,,,",
",,,,,XOO@*%@O#&&$#%=$%$&##o@$&&*=====&$#%&*&%$%#.o$&&$$*&##$&&&&#&&%$$%$&&$&*$&#&;-=&%##@@#&%%#oOoX,,,,,,,,,,",
",,,,,,.+#*%@@@$*$##%%$&$#&@O$&*====*==-=&*=*$#$@oo$%&$#%=&%$&&$@#%$$$#$%$%$%*$=*;;;-=$#@+#&&%&@OoX.,,,,,,,,,,",
",,,,,,.#$&&#@$$&$$$&$*$&%#%#$&&==;=*===**=-%%#%#@O$=$##$%**$%&$$$&%%#$%&*%@$&%==--;-*$#@@#*&$$#oX.,,,,,,,,,,,",
",,,,,,,O&**=%#%%&$$%%&@#&&$$@===*==-=&*===;=$$*%$#$=$+$%#%$&%&#*%$#$#@#@$$%#%&*-=*--*%#@OO$%%&Oo..,,,,,,,,,,,",
",,,,,,.@====*=%%&=&$$#@#&&#@@*&*&=--=&=====&&&*$&&$=***%%*&$$@$$$$##%&&@#$$$&%-&*&====$@$$$$#@o@.,,,,,,,,,,,,",
",,,,,,O&-==**&&%$&**%%##=&#@+$&&%&=*-*-=;;=&=-%%$#*&$=&%$$&#@o+&$#O#@&##@$$&&$&==&====*@%$##@@.@.,,,,,,,,,,,,",
",,,,,.@@=*&#$$&&%*==*&$##$#@##*&**&=-;=&$&=**=%#$&$&&**$%%$#@$&$&%&$&$@+$@$===&$&&=====#@$@O..O+.,,,,,,,,,,,,",
",,,,...o@@@##$&$$*=**=-%@@##@&$&$$&=;;====&*#%##@#$###$%$$$#&*&*$$%$&$##$$%==-=&%=-==*-%@$$OOo@@.,,,,,,,,,,,,",
",,,,.+@+@@@#&&==**-=*-;=#@$*%$$&*%%;;=$#&&&###$$###$@#+@@#&**$%###$#&%#$$$$&&-=*&*=***=*@$$@@ooo,,,,,,,,,,,,,",
",,,,.+@$#@@$%&=========&=&=-*****%$&=$$#*$%$#$$#@##@o$#$%=;;=*%$$&$$#$%$$$$$&==$##&&&%&=#%$#Oo.,,,,,,,,,,,,,,",
",,,,.o@$#&#%*&====-=-=*%===*=-=&===&$@+@*-=**=&$%*==*&*;;::;;;*$&&&%$$$#$$@##$&#@#%**$$=&#$%o...,,,,,,,,,,,,,",
",,,,.o@#&&$%&*=--&&*=*&&*-=&==*=---;=&##%=========---;;;;:;;;;-&$%$%#######$++###$&=&$$&&@o#....,,,,,,,,,,,,,",
",,,.o.+##$$&==-&-=*%&*****%&&**=;--;-%%*===&========--;;;;;;;;;;--&@@##%#&&###$%$$$%%$$#$$..XXXX..,,,,,,,,,,,",
",,,@@@@##$%&=*#$$*=%&===&$%&$**=--;;===&&-=&==*======-;;;;;;;;;;-*$@$$$%$%&%%&#$%&$###@##@O#.XXOX...,,,,,,,,,",
",X@@@@#$$#$=&$#$$%%$&==*$$$#$&*=--=--=*=&**&===;;===*===;;;;;;;;-=&&%&$&$&=%&&#@$$$###+@++@#.X.X.X...,,,,,,,,",
".#+#@@$$$##%$@$###@#*==&$$$$#&=====--==**=*=====-===**===-;;;;;;--===&*$&%&$&&&##%$#@o@+ooo@X.XXXX..X....,,,,",
"X.+@+@@$%$#$###$$#$$%*$$$$%$$*=-===-;-*=**==--=*===*&&&==--;;;-;----;===%&$$**%&###+#$+@ooooXXXXXXXXXXX...,,,",
",,,.X@#$%*#@@@$*%$O$###&%#$#$=-;=*;--===***---======&**&=--;;;;;-----==*=*$%&&%#@O@##$@@oXXXXXXXXoXXX+*+..,,,",
",,,,Xo+=$&#+@#$$$#@#$###&##%$==-=--==*====&=-==;=-===*&*=--;;---==-===&&&&$@%*$@#@&$#@@oXXXXXXXooooXo*-@X,,,,",
",,,,,.,o*$#o@#$@#@@@#$$O@$#$$&*=**==**====&*===-=--==&%&=-;;;-========*$##@+@$####@+oOoXXXXXXXooXoXXX+#X.,,,,",
",,,,,,o.O..o@@O@+@@@#$$$#$$$$%&&=====*==**&*===;;--;-&&&==;;;==-===*==*$#@@@+OOOOoXoXXXXXXXXXXXXoXXXXX..,,,,,",
",,,,,,,,,,....+@Oo#@#@@#$$$$$$&***&&*==&&*%&=*==---;;=&&==--===--=====&##@@@++ooXXXXoXXXXXXXXXXXXXXXXX..,,,,,",
",,,,,,,,,,,,,....oOoooO@####$$%&&&&&&=*%$$$&==*==;;;;-========&======*%##@@+OOoooXXX#OXXXXXXXXXXXXXX...,,,,,,",
",,,,,,,,,,,,,,.......ooO+@@@#%%$$%%&**%$$%%*==*===--;;--;=========-==&$##@+++OooXXX#&@ooXXXoXX.XXX$@.,,,,,,,,",
",,,,,,,,,,,,,,.,....oooooooO@#$$$$$&&$$##&%&&&***==-;;;--;-===*=**===&%##@@++OooXoX@#$%oooooooXXXX.X.,,,,,,,,",
",,,,,,,,,,,,,,,,,...X......o@#@###$%$##@@$&**&&&&*==;;-;----=*&&*&*&*%$@#@+OOOoXXXXXO#$@oOOooooXXX...,,,,,,,,",
",,,,,,,,,,,,,,,,,,,,,,,,...XoO+@@####@@O@$&**&*&&&=--;;;--==*&*&*&%%&$@@@@OOoOoXXXXo+@O$++++OOooXXX.,,,,,,,,,",
",,,,,,,,,,,,,,,,,,,,,,,,,,..X.XoO+@@#+ooo##&&*=*&&*===----==&&%**&$$$#+OOOOoooooXXXoo@@**$#+@+ooXXX..,,,,,,,,",
",,,,,,,,,,,,,,,,,,,,,,,,,,,,.XXoOOO++oXXXo@$&%&*&**&=======&%$%**%@##@OOoooXoXoXXXXXoO@*;;=%#@OoXX...,,,,,,,,",
",,,,,,,,,,,,,,,,,,,,,,,,,,,,,.XoXXXX.X.XXX+$$$%&**%*=====&&%$#%*&$+@@@+ooXXXXooXXXXooO+#*-;-=$+ooX..,,,,,,,,,",
",,,,,,,,,,,,,,,,,,,,,,,,,,,,,,,.XX.......XO@$$%%&&&=====%&%###%%%#++++OooXXXXXooXXXO$@+@#&--==#OoX..,,,,,,,,,",
",,,,,,,,,,,,,,,,,,,,,,,,,,,,,,,,,,.......XX+#$%&&&&==**=%&#####$$#OOOOooXXXXXXXXXXo@=;**%&==--*@oX.,,,,,,,,,,",
",,,,,,,,,,,,,,,,,,,,,,,,,,,,,,,,,,,,,,,,,.Xo@#$%&%&&&&&=%$#@#++#$@OooooXXXXXXXXXXXX+=*=-;----=&$oX.,,,,,,,,,,",
",,,,,,,,,,,,,,,,,,,,,,,,,,,,,,,,,,,,,,,,,,.Xo+#%$$$&&%$$&$##+,++@+OoooXXXXXXXXXXXoXX#=&&&%==&$#=&O.,,,,,,,,,,",
",,,,,,,,,,,,,,,,,,,,,,,,,,,,,,,,,,,,,,,,,,,.XX+#$%$&$$$&$#++,,,++OOoooXXXXX.XXXXXXXXXO#O+%@$@+@&*o.,,,,,,,,,,",
",,,,,,,,,,,,,,,,,,,,,,,,,,,,,,,,,,,,,,,,,,,.Xoo+$$$$%%$##+,,,,,,+ooooooXXXXXXX...XXXXXXoo@$=@oo@oX,,,,,,,,,,,",
",,,,,,,,,,,,,,,,,,,,,,,,,,,,,,,,,,,,,,,,,,,,,XXo@#$$$##@+,,,,,,,,OooooooXXX..XX...XXXX.XXo@*OooX..,,,,,,,,,,,",
",,,,,,,,,,,,,,,,,,,,,,,,,,,,,,,,,,,,,,,,,,,,,,XXoO++OOO,,,,,,,,,,,OooooXXXX,,,,,,,..X.....XoXXX...,,,,,,,,,,,",
",,,,,,,,,,,,,,,,,,,,,,,,,,,,,,,,,,,,,,,,,,,,,,,,,,,,,,,,,,,,,,,,,,,oooooo,,,,,,,,,,,........X..,,,,,,,,,,,,,,",
",,,,,,,,,,,,,,,,,,,,,,,,,,,,,,,,,,,,,,,,,,,,,,,,,,,,,,,,,,,,,,,,,,,,,,,,,,,,,,,,,,,,,.X..,,,...,,,,,,,,,,,,,,"
};
