/* XPM */
static char *_6830_93a2307aa3c0c5937710ea54ffbba39b491d9b4ab97bfbf24a8366cc746ee2ea[] = {
/* columns rows colors chars-per-pixel */
"77 74 14 1 ",
"  c #A65100",
". c #B65504",
"X c #CB5D04",
"o c #E77938",
"O c #EB8641",
"+ c #EF9249",
"@ c #F3A251",
"# c #F3AE5D",
"$ c #F3BA65",
"% c #F7C775",
"& c #F7D37D",
"* c #FBDB8E",
"= c #FBE396",
"- c None",
/* pixels */
"---------------------------.-------------------------------------------------",
"---------------------------+-------------------------------------------------",
"------------------------.oo#o------------------------------------------------",
"------------------------+#####o----------------------------------------------",
"-----------------------.$$%%%%$X---------------------------------------------",
"-----------------------.#%%%%&%#.-----------------------------------------o--",
"-----------------------.%%%%&&%%o  -        .      ----------------------#@--",
"-----------------------o%%%%&%%%+X ...X...XX.XXX....   ------------------oo--",
"-----------------------+$%%%&&%%#o.XXXoOOo+$$%$@XXXXX..  --------------------",
"-----------------------X#$%&&&&%$@XoO#%&*%&&&*&&#OooXXX..  ------------------",
"----------------------- @%&&&&&&%#o+%************&#OooXX... -----------------",
"-----------------------X%&&&&&&&%#@&==***=*********%+ooXXX.  ----------------",
"---------------------- +&&&&&&&&$#%*==*=******=====*%@ooXXX.   --------------",
"----------------------.+&&&&&&&&%%*=======****======*$@oooXX.. --------------",
"----------------------.@&&&&&**&%**==*=**=****======**#+OooXX.. -------------",
"--------------------- o%&&&&&&&&&=*====***=***=======**$$@oXX..  ------------",
"---------------------.#%%&&&***&*=====***=****=======**&%%%+oX.. ---- -------",
"--------------------- #%%&&****=====*********=*======*=*&&&$oXX..  -- -------",
"---------------------.@$&&&&**=====*&&&*******=========**&&%+XX..  - --------",
"---------------------X%%%*&&&*=****%%%&&********==*=====**&&#oXX.. - --------",
"--------------------- +%&&%%******%$#$%%&&********======**&&%OoXXO#X.--------",
"-------------------  X%%%##%&&&**&&#+@#$%%&&&******=====***&%%%#O$%%o -------",
"-------------.----..X#&&%$$$%%&&&%%@++@###%&&*****==*===***&&&&%#%%%$+-------",
"-------------@o - oXX$&&&%%$$$%%&&%#+++@##$%%&***=======***&&&&%#%%%%%+------",
"------------ @@O XO+O$**&%%$%%%%%&*%#+++++@#%&&***======****&&&%%%%%%%$X-----",
"--------- ---+@++%%%$&***%##%&&**&%$@++@+oO#%&*=====*********&&&%%%%%%%#-----",
"----------X--O##$%&&==***&#%%&***&$@+++++++#&&*====*==*******&&&&%%%%%%$X----",
"----------Xo-o@#%&**===**&$&&&&*&%@OoO++O+##%**====*==********&&&&%%%%%@ ----",
"---------o+@oX@#%****==**%#%$$%%$@@ooOOOOO%$%&*=====**********&&&&&%%%$O-----",
"---------O@#@+#%%****=**&$##+O##@+OooOO++@$%%&%*===***********&*&&&%%%$+-----",
"---------o$###%%&***=***%###+ooOoOoooo+++##%%%%&*******===***&*&&&&%%%$X-----",
"---------X$%%$%&*==**=**%$$@OooXXXoOo+++@@#$%%&&&&**==*====***&&&&&&%%+ -----",
"---------.$%%%%&********%%#+OXXXXXXO+++@###$$%*&&&****====***&&*&&&&%%+.-----",
"----- XoX.#%%%&&********&$+OXX.XXXXX+@##$##$%%&&%&&&*******=*&&*&&&&&%$$OX+O-",
"-----O+#@++%&&&&**&*&***%@oXXXXXXoXoo###$%%%$%%%%%%&**===*=**&&*&&&&%%$$$@%+-",
"---- o#$%##$&&&&****=***#OXXoo+@+OXo+##$%%&%%&%%%%*****==****&&*&&&&%%%%$%$+-",
"-----+#%%%%%&&&&*******$Ooo@##**%#O++##%&&&&&%%#$%&****====**&***&&&&%%%%%$O-",
"---.-+$%%%%%&&&*****&*$@O+#%&&**%#+O@#$&&&**&&%##%&******=**&&&*&&&&&%%%%%$@-",
"----o+%%%%&&&&&*******###%%&***$##@@#$%&*****&%%$#&*======***&***&&&&&%%%$$#X",
"----X@%%%&&&&&&**=****%#%*****&$###O@%&&*====**&%$%*==***=*******&&&&&%%%###X",
"---- @$%%%&&&&&*******&%&***&&&%**%@#%&&*====***&%%&****===***&&&&&&&&%%%##@ ",
"----.@%%%%&&&&&**=************%&***#%$&**==**==**&%%&*****==**&&&&&&&%%%$###.",
"--X .O%%%%&&&&&************$&&&**&*$@#&&*=**=====*%%&****=**=**&&&&&&%%%$###.",
"-- o.o$%&%&&&&&&*********%%#&&%&**%##%%%*=*=======*&**********&&&&&&&%%%###+ ",
"---XoX#%&&&&&&&&*******&*%%#%*&**%##%*%%&*=========***********&&&&&&&&%%##@X-",
" #OO#$#%&&&&&&&&****=*****&%&&%&*#@$**%%&***===*=*=******&***&&&&&&&&%%%@O.--",
".##$#%%%%&&&&&*&&&&*=*******&%%&%#+#&*%&*&********==******&**&&&%&&%%%%%#X---",
"-@##%%%%%&&&&&*&&******=*****%%*#oO#%*&$%%*******===**********%%%%&&%%%%$o---",
"-.#$%%%%%&&&&&&&&&***********%#+oXo++&&#%%&******==***********%%%%%%%%%$#o---",
"--o#%%%%%&&&&&&*&*************$+oooXO@##$%%&***==***&***&&&*&%%%%%%%%%%$#X---",
"---+%%%%%&&&&&&&&*************%#OooXooO#&*&&******&%%&&&&%&&%$$%%%%%%%%$.----",
"---X#%%%%&&&&&&&*&************%$@+ooooo#%&&*&&**&%%%%%%%%%%%$$#%%%%%%%$+ ----",
"---.#%%%%%&&&&&&&*************%%#@@+oo@&%%&&%%&&%$##$%%$#$%$##$%%%%%%%$#-----",
"---.#%%%%%%&&&&&&&&&**********&&%#O+++%&$#%%%%&%&#+@$%%%$###@+$$$%%%%$$+-----",
"---X@$%%%%%%&&&&&%$%&***********&$@+$#$%#@#$%&**&$@$%%%$#+++Xo$%%$%$$#@X-----",
"----+$%%%%%%&&&&&%+#%************%##@####$&&&****%%%%%%%$++oXo$$%%$$#@-------",
"----.$$%%%%%%%%&&&#+%************&%$$$$$$%&&&****&**&%%%#O+o.o$%%$##+ -------",
"-----+$$$$%%%%%%&%@+#&*****&*******&%%%%&%&&*******&&$##$+Oo.o$%%##o---------",
"------##$$$$%%%%%&%+@$&**&*&*******&%%&&&&******&&&%%$##%%$+O$%%#+X----------",
"-------@##$$$%$%%%%+@#%*&*&%&&&&**&&%%&**&****&&&&&%$##%&%$#&%%$+.-----------",
"--------@@@@$%%#$%$+$#$%***%%&&%&**&&*&*****&&%%%$$%O+$&&%%&&%#+X------------",
"--------.XXo$%%##$%#%%%&&**&&&&%&&*&&**&&&**&%%%###%##&**&&&%$+X ------------",
"------------O$%$#$$%%&&&&***&&%%&&&****&**%$&%&%#OoO#%****&%%@X--------------",
"-------------+#%#%&&%$%&***&***&&********&&$%&&&%$#+%&&***&$#X---------------",
"--------------o$$$%&&%%%&&&********&&&*&*&&%#*&&&%*%%&&*&&&#o.---------------",
"---------------.+%%%&&%%%%%&&&***&&&*&*&&&%&%@@&&%++%&&&&&&#X ---------------",
"---------------- o@#$%&&%%&*&****&&&&&&&&%%%&#+#@O@&&&&&&&$+.----------------",
"------------------Xo#%%&&&**&&***&&&&*&&%%%%&&%#+oO%&&&&&%@X ----------------",
"-------------------X+#$%&&*&&&&**&&&&&&&&&%%%&&&#%&&%&&&%#o -----------------",
"--------------------XO@#%&&&*****&&%&&&&%%&%%&&&&&&%&&&%#o.------------------",
"---------------------.o@%&&&&&**&*&&&&$%%&%%%%&&&&&*&%$#O.-------------------",
"----------------------.X@$%&&&&&&%%$##+O+##$$$%&%%%%#+OX---------------------",
"----------------------- XoO@##$$$##+oX--XoO+++Ooo+@+OX-----------------------",
"----------------------------.XO+Oo.--------.ooX-- . -------------------------"
};
