/* XPM */
static char *_9952_cee3baec123a9a8330f478de31f4d563042e573ee4eb90a7c3209e57481feb5d[] = {
/* columns rows colors chars-per-pixel */
"111 90 19 1 ",
"  c #341C00",
". c #452800",
"X c #593000",
"o c #6D3800",
"O c #824100",
"+ c #924900",
"@ c #A65100",
"# c #B65504",
"$ c #CB5D04",
"% c #E77938",
"& c #EB8641",
"* c #EF9249",
"= c #F3A251",
"- c #F3AE5D",
"; c #F3BA65",
": c #F7C775",
"> c #F7D37D",
", c #FBDB8E",
"< c None",
/* pixels */
"<<<<<<<<<<<<<<<<<<<<<<<<<<<<<<<<<<<<<<<<<<<<<@$$$++OOO+++#&%$$%&&%#<<<<<<<<<<<<<<<<<<<<<<<<<<<<<<<<<<<<<<<<<<<<",
"<<<<<<<<<<<<<<<<<<<<<<<<<<<<<<<<<<<<<<<<<<OO@*=-;--*&-;=&=;-=*****&+<<<<<<<<<<<<<<<<<<<<<<<<<<<<<<<<<<<<<<<<<<<",
"<<<<<<<<<<<<<<<<<<<<<<<<<<<<<<<OOOO@$&&$$###=;::::::;:;>>>>:;-=**----=$&<<<<<<<<<<<<<<<<<<<<<<<<<<<<<<<<<<<<<<<",
"<<<<<<<<<<<<<<<<<<<<<<<<<O@@@%%====%@@O$%%**::>>>::::::::::::::--;;:::-*%<<<<<<<<<<<<<<<<<<<<<<<<<<<<<<<<<<<<<<",
"<<<<<<<<<<<<<<<<<<<<<ooO@$**;::>>>>>>:-*%$#$=;>>>:::::>>>>>>:;---;:::;:;;=#<<<<<<<<<<<<<<<<<<<<<<<<<<<<<<<<<<<<",
"<<<<<<<<<<<<<<<<<<<oooO#$#%%*--::>>:>>:=%$@+$&-:-;;;;;::>:;--==*&&**->::;-&<<<<<<<<<<<<<<<<<<<<<<<<<<<<<<<<<<<<",
"<<<<<<<<<<<<<<<<<<<oooO#$#%%*--::>>:>>:=%$@++#$%%*-=-=----**&-=*&%%&*&=*&*%$$$#$$%%$@@@<<<<<<<<<<<<<<<<<<<<<<<<",
"<<<<<<<<<<<<<<<<<<ooO+%=&%&$%==--:::>>>:-%$@o#$$%&*=*---=*&=---===;===-*****;==&&&&&%%%O<<<<<<<<<<<<<<<<<<<<<<<",
"<<<<<<<<<<<<<<<Xo@&*%-:>>:::>::::>:>::=&&%%$$%%*&*=-----;;;;;;;;;;;;;;;;;;;;;;-====----;;;=&<<<<<<<<<<<<<<<<<<<",
"<<<<<<<<<<<<<<<Xo@&*%-:>>:::>::::>:::;=&&%%$%%%*===;;;;;;;;;;;;;;;;;;;;;;;;;;;;;-==----;;;=&$$<<<<<<<<<<<<<<<<<",
"<<<<<<<<<<<XXooo@=;;-;;:;;::;=;;;;;;;-=-:==========;;;;--:>;;;:;;;;;;:::::::;;;;===-;;;;;-;---*@@<<<<<<<<<<<<<<",
"<<<<<<<<ooooo++$-::;:::::>:>-;;;;;;=**-====----;==-;;;;;;;-;==*==;-;;::::::::::-&&*$&&&%-::;--=**@<<<<<<<<<<<<<",
"<<<<<<<XOOO+@$$&&==;::::::::;:;;;;-&&%==-;-------;-;;;;=*=*====--;::::::::::>>;-;-**;**&&*=======%o<<<<<<<<<<<<",
"<<<<<<<XOOO+@$$&&==;:::;;:---;;;;;-&=-&=-;;*------;;=;;=*=*====-;=-;::::::::>-;:;;;;;-&&&*=======%o.<<<<<<<<<<<",
"<<<<<XO++++@$==-==-;;;:;:;-;;;;;;*%%&-&=----======*-=**$$&*&&&-;-=;;;=;:-:::;;;:;>;;;;;-*==&&&&&&%#O.<<<<<<<<<<",
"<<<<XX@$%#$#$%%*=-;;::::;:=:::--%%*&==;-==;-=&&*==-=***&$#%&==--;;;;;=&==&:>>>>>:::;;-;;---===*&&$$%#.<<<<<<<<<",
"<<<<XX@$%#$#$%%*=-;;:::::;:::;=%$%*&==;-==;-=&&*=*=*&%$&#&&&==-;;;;-;=====:>>>>>:>;;;;;;;;-===*&&$$%#.<<<<<<<<<",
"<<<<OO+#$&&%$&&=-;;-;;;:;;:::=$$&&&-;;;;-==-;===*&&&%$%&&%&&*=-;;;;-------;;::>>>::;;;-;;--=---=&%$#O..<<<<<<<<",
"<<<.++#$&=&**==-=-::::;:;;=;=&%$$=&---;;;==;;;-=*&&&%%$#$$*%*=------;----;;;;;:>>:;-=;=-;-==--=*&$$##%%o<<<<<<<",
"<<.o@$&====---;;;;::::;>;=%%=*=-;;;;;--;;&-;;=****&&%#$%%$&&**==*&--&-:---;;;;:::::;;-;;--====-=&$#&%%#.<<<<<<<",
"<<.o@$&====----;;;;:::;:>>;=%%*==;--=;-&=*-;-=****&%$*$#$@&&&&*&=*=-*-;;-;;=;::::>::-;--=====--=&$#&%%#.<<<<<<<",
"<.o@@%===*=-;;;;:>>::;-;:;;=$%*&=;;;-==*:=;;-=*&&=&#@#@o@$#$$&&=;*=**=-;;;;--:>:>:>::;--=======&&*$$&$$.<<<<<<<",
".o++#*-----;;;::::;-;:>:;-%&$*==---=*=--=$%--**$&=&$$%&$o..o@$&&==%&%*=;;;;;;--:>>:::;;::;=--*&=%##$=$@o<<<<<<<",
"XO+@*-----;;:::>::;:>>>::;*%&-;-;-***&=;;**;;-*&=*%%$&$#O#OO#%=---=%%&=-::>>::;>,,,,>::;----=**==%#%&$%+<<<<<<<",
"<X@#=----;;::>>>>;;:>>:::;*%--;:;*=*=*==-**-;;---%$###+XXO##$$&-;;-%$==--==-;::>,,,,,>;-=*%&*-=&*$#%=%%%O<<<<<<",
"<X@$*=---;;;:>>>>--::>;:;:*%==-:-***=*-;=**=$$%-%$#OO#$#%$%$#%$%-;-%*=;-*-&%;:-:>>>,>>:--*&*-;=%$#+@+O+#+X<<<<<",
"<X#$&==--;;::::>:--;::::;*%%**&*%%=**--*&=--*%O@#$#O#@@%$#+##@@$--:-=&%$%*=$$*---->>>>::;-**---%$$$#@O##OX<<<<<",
"<X@$&&*---;::::::-;::;---%%--&&%$%%%==***=%&%@O$*%OO##$#$O#@#OO$%=;:=$##%*-*%&--*$->>>:--;-;::;*%$$+O$*$#X<<<<<",
"<<+#%%$*--;:::::::::;*-=*%%=***%%*---**=*&$#+#XO$&$#O+#$$+++++#$*=--*$@O#%$**=--;*%;>>:;-;;:::;-*$$#%**%#O<<<<<",
"<<o+##$*=-;;:::::::>;=--&$%***=--=--==*-**&$##X#$%%#XXOO@@$@O++$--*%%*##$$#&&=:*;;&-:>:;;::::-;;-**%**&%$+<<<<<",
"<<oO+@$&--;:::>>>>>::-**$$**=*%***----;-=-&&$@XO%%##O+XX+@#$##$%-=--&*$OOO$$%*-*&;-;>>:;---;;;:;-**%%*&%$+<<<<<",
"<<XOO@#&--;;;::::::::-%$@$*&*&%%&=-===%=====*&#@@#@+XXOXO@%##%#*=*%%*-*OX$$$%=-*-&*->>::---;---:--*$#%&%$O<<<<<",
"<<<o+#$%*=-;;::::;;::-*#O%*&=--%*-**%#%#$@%=$$##$##$+XXXXO+@OO+%*-%$$%&#O#&$#*&%=%%:>:::-;:----;;-*%&=*&#X<<<<<",
"<<<oO@$%*----;::;;::::*#+$%*;:=&--*$+#%#@#$*$$%%%$$+OXOO#OO#$#$$%&=&%**$+#@#@%%#%#@&::::;;:;-*-::;*%*-**$O<<<<<",
"<<<Xo+#$*---=;;::;::::=#@@%-;-$%***&$####+#@$$#$%&$$##OO$$$#O##%**&$#$&$OXXO#%$@$%*&::;:;::-=--;;-=%*--*%@<<<<<",
"<<<<oO#$*=--*-:::;:::;%@OO$--*#&*%*%%##+#@O+#$#@%%%$#++#O@####%&%%$$%$O#OOO@#%%@$&$%=;-::::-;*-;:-=*--*&$O<<<<<",
"<<<<<O@$&*==*;::::;;;-$@++$-;-$%=%*$#OO+@@+X@%$$$%*#+O+@#$OO+$$$$$###$$+O+++$&%+#%#%-;:::::;-=*=*-=*--=*%OX<<<<",
"<<<<<o@$%**=--::::::--%##$*;--**%%%##OX+$&$+#%%$%%*$OOXOXO$$@$#%%%##+OO###O+#&=+@+#%*:>>::::--*=&$%=--**%@X<<<<",
"<<<<<X+$%*==*-;:::::;*%%#$*;-=%$*&$$$@O$$&#$*%$##%&$+XXOXO**$%#%#@+$#O@O$%#+$%%O$&+$%:>>::--;**&*%$*=-*=%#OX<<<",
"<<<<<<o#$****=:::;:--%%%$#&-;*%*-%@&+OO+$%%%*=-$$%=%+XOO##*=%#@$$#+$$O@@#$O$%%$@**@##->>:;=&***%%$%%*=*%%$+X@o<",
"<<<<<<X+$$&%&*--;::*=%%&&%%=--%#*%+$O##O%%*=*&***%*$%%#$##&&%%$$%#$$#+O@#&$#&%$$*&$#$%::;;*#$*$+O#%%&=*&%$####X",
"<<<<<<<+$$$%%*--::-***$%%%$*=&#$&$#%#++X%&**-*=&$$*%%&-%#O##$$#$$$$$$%#$#%*+%&%+$##%$*::=-%#@$$O+$$*%*&%%%$#+Oo",
"<<<<<<<o$&&=*%=-::*&==$%%$#%*$$$%$#$O+#O%*&$%**&%&$$**:-%$%@@$-$O#$@#%+O+*$O$%*#$%$$$->:-*&#++$$#%%&%*&$%%$$+oX",
"<<<<<<<O@%&=*%*-;::---**%%$#&$$%=*#%$OO#$&*%%%=---$XO$::*#%@O*-%##$##+$X+#$%$%#$#@$&$->:-=&$#$*=*%&$$*$$%%$$@X<",
"<<<<<<<O+%%**%&-;;;:=--%%&$*%#+@$$#$&#O$$$$%***=-*%$++->:*&#+=*$#OOO#+%+O$##%$@##O#@O$:;**%#@+@%*=*%%+%#**%%#oX",
"<<<<<<oO@$%&**&&*--;:---%@$*=%##++##*#$$##%&%&=&&%$$@O@&%$$%%%%%%$+#$##$%%#O+%$@OX#OX+-:=%%$@OO+$%$$#%%%*%$$#O<",
"<<<<<<oo+#$&**-%=--;:---*$$&%=&#+@@O#$$$O$%%%$%&%####O#%%$%%+$&%%#+#+%+#@&OOO##X&#@XXO*:*%$##$@@OXO+X@$%*&$##o<",
"<<<<<<Xo+@$%%**%&-----*=-=&*%=-$#$#+@##%$$%#@##%**%$##$%%*$$@O$#$+X$@@O+%&#@O#%+*#OXX#&-*%$##@+O+XXX+#O$$$%$#X<",
"<<<<<<<XoO#$%&%&*-;--------&%$%%$$#O+O@$$##*-;*-=-;*=-;;&=*$@@OX@#OX##++@O$#+#%#%@XX+%=-=%$@$#@OXO#X@XO+OO$$+o<",
"<<<<<<<XoO#$%%&*$=-==------%%$@##+$$$$+@$+#*=----;;-----%&-$*@XXO$+###$OOXOXX%*&#XOX#$=-*%##&%#OXXX@OXX##X$#@X<",
"<<<<<<<<XX##%&**&%-=-----=*$$%$+#%&**$@%-=;:----;;;--;;;=%#%-&###*+O@#%@O#$OX$%$XXXX#%***$@+$%$+XO#OXO#++@%#OX<",
"<<<<<<<<XX@#%%%=-$%--*-;-**$#$%%+%*=*%%-*--:-----;;-;-;--%$%*=%#+#+OO@##+@+OO$+XXXXXO##*%##$$$$##$O+O@X@+#%#oo<",
"<<<<<<<<<o+#%&**=*$&*=---=&=%%*=$#**%%&-**;-;-%&*=-;-----=%#$*$##XXOO$@###%##OOXXX+O##$*%+#$%$@%&OOXXXX@O%%#oX<",
"<<<<<<<<<XO#$%&&--$$&-=-*=****-=%#=*=-=-%*--=*$$%%**-&=;--%+$*$$%#OO+$&+#@O@##@%XXOO##&&%OXO$##*$XOX+@#X+%$+oX<",
"<<<<<<<<<XO#$$***-&$%*----&%&%*--%*&*---&*;--%-;==**%%--=-*$%*%%#@X#&*=*++O+OO##XXX#*-=*$+XOO+@$OXOXXO#X#&#+X<<",
"<<<<<<<<<<X#$#%*%%*%$&*=**%%%*===-*&--;;-*=--*==-**&%=--*=*$%-*%%#O$%*&%++++OO+XXX$$**&%%$OXXXOOOX@XXX@+$$#oX<<",
"<<<<<<<<<<X+#$$*=**&%*=*=&$%&*=-=*%$--=-%====&$&*&&=**-**-*%%*%$%$O%=*-*&&$#+X+XX+%%%%%*%$$+XXX@#OOXXXOO#$@o<<<",
"<<<<<<<<<<X##+$&==**%*===-*%%**--&%%*-&%$*==-$$%%*&=*%=%%$&&&=-**$#*=&*-=&$XOXXXO@#%=-*=%#$+OXOO#OOXXX X$#OX<<<",
"<<<<<<<<<<<+##$$=*&&&*-:;-;-;---==%*--%%%-=-&$$#$%%-&&=%@#=*%--*-*%=%&=-%$#+XXOXO##O---*&%$@$##+@+@XXOXX$#oX<<<",
"<<<<<<<<<<<+$#&%=-%&%*-;:::::::;==%-;%#&&*=-*#$$&**-**-$#%&&*-==*==*-*==%+XOXXXXXOO#---=*$#$%#+X#XOX+@X@$#X<<<<",
"<<<<<<<<<<<O#+$$&=%%%*=:::::;:;;-=%*-%+$$*&&#&$$$*$*%==##%%&$&=-=***=%%%#XXXOXOX##O$=-==%$#%%#XXOOXO+#O##OX<<<<",
"<<<<<<<<<<<X@X$#%=;*$*---:::-------;-**$%%*&+##*$$%*#%&%O#+O%$$=--=-=*%&@O+#OXXXOO#%*==&#%%=%OXXOXOOO%###o<<<<<",
"<<<<<<<<<<<<oX+#$%=-%&-=----==-;;=-;;--%#$%*OO$$%$#O#%$$@XO@##%**%==*&&%#$*%$OXXXX#$**--*==&#XOX@$#X%%##OX<<<<<",
"<<<<<<<<<<<<XO#@$%*-&%===-=-==;;:*---=*$##*$@O&%$@OXX#$#+XXX$$##&*%*-%&$$***%+X$XX#%***%**&%+XXX#+O@*%@Oo<<<<<<",
"<<<<<<<<<<<<<O@O+$%*=%*=*&**&=;;;==-**##%*=%O###@XXX+##@@@XXO+$&%%*%*&%$$&*&&%#$#+$%%****=%#XXO@##X#&$#o<<<<<<<",
"<<<<<<<<<<<<<X#+X+#%&&$***=%%=;;;--=%#O%*%*%OOOXXXoXXX$#+O+O+##@###$*$@$$%*%*&%&%%$%&&*==**$#++$#OX%%#+X<<<<<<<",
"<<<<<<<<<<<<<XOXXO##%&$&%&=%$*-:;;;*%#%&$$$#XXXOXXX#$%%%@$$$+OOOO%#+#O@@##%&*%%%$%*&%%%*&=*%%++$%O#%%OX<<<<<<<<",
"<<<<<<<<<<<<<<X#XXOO#$$$$$%$$&;;-;-*&#&%$##+oXOOO+##%*********#XO$$OXXO#$%&&%%%#+#*%###%%=***&*$%$#$#o<<<<<<<<<",
"<<<<<<<<<<<<<<<XX XoO@##@#$$$%===-;*%#@$#@OoXoOOO+#$%**********#OXXooO%$%&%%$$%$%=&%#++%==%%$%$$$#++o<<<<<<<<<<",
"<<<<<<<<<<<<<<<XOXXXXOO@OO@@$%%**=*%$$###OoXXOO+O@#$%***********+XXX#+%#O#%$$@$%*%%%$#O%%*%%#&%#+++o<<<<<<<<<<<",
"<<<<<<<<<<<<<<<<XXOXoXoO+@O####$*=%%$##+XXXXXXOOO@#$%&**&&******&#XXXXO$@$%$@@$%####@#O#$*$@+$#OooX<<<<<<<<<<<<",
"<<<<<<<<<<<<<<<<<XXXOXO+OOO+@OO#$%$#++#@OX<<XXXO+@#$%*&&&********%$@oXXX#%&$#+O++#+@#+@O#$+%$#Ooo<<<<<<<<<<<<<<",
"<<<<<<<<<<<<<<<<<XXOO@+OXoooXOO+#@+#@#@+O<<<XXoOOO#$%&&*&********%$#@XX@#%%&#@++++++O@+XOOO$OXoX<<<<<<<<<<<<<<<",
"<<<<<<<<<<<<<<<<<<XoOOXXXXooXXooXoXXX<<XX<<<XooXoO+$%&&&********&$$####@#####++OO++@+OOXO@@XX<<<<<<<<<<<<<<<<<<",
"<<<<<<<<<<<<<<<<<<<XoX<XXX<XXXXXXX<<<<<XX<<<XXoXO++#%%%&&&******&$##@@#@+++@+OOoXooooXXXXX<X<<<<<<<<<<<<<<<<<<<",
"<<<<<<<<<<<<<<<<<<<<<<<<<<<<<<<<X<<<<<<XX<<<XXooO++#%%%%%***&&*&&$@#@@##+OoOOXooXXX<<<XXX<<<<<<<<<<<<<<<<<<<<<<",
"<<<<<<<<<<<<<<<<<<<<<<<<<<<<<<<<<<<<<<<<<X<<<XooOoo#$%$%%%&&&*&&&#@+O+O#OoXXOXoooX<<<<<<<<<<<<<<<<<<<<<<<<<<<<<",
"<<<<<<<<<<<<<<<<<<<<<<<<<<<<<<<<<<<<<<<<<X<<XXooooO#$$$$%&&&*&&&%#+O@XoOOoXoooXXX<<<<<<<<<<<<<<<<<<<<<<<<<<<<<<",
"<<<<<<<<<<<<<<<<<<<<<<<<<<<<<<<<<<<<<<<<<X<XXXXXooO#$$$$%%&&&&&&$++O+oXooXXXXX<<<<<<<<<<<<<<<<<<<<<<<<<<<<<<<<<",
"<<<<<<<<<<<<<<<<<<<<<<<<<<<<<<<<<<<<<<<<<<<<XXXXooo@#$$$%%%%&&%%#OOOOOooooX<<<<<<<<<<<<<<<<<<<<<<<<<<<<<<<<<<<<",
"<<<<<<<<<<<<<<<<<<<<<<<<<<<<<<<<<<<<<<<<X<<<XXXoooo@$#$$$%%%%%%$OoooX+oooX<<<<<<<<<<<<<<<<<<<<<<<<<<<<<<<<<<<<<",
"<<<<<<<<<<<<<<<<<<<<<<<<<<<<<<<<<<<<<<<<<<<<XXoXooo+$#$#$$$$$%%$ooooXooXX<<<<<<<<<<<<<<<<<<<<<<<<<<<<<<<<<<<<<<",
"<<<<<<<<<<<<<<<<<<<<<<<<<<<<<<<<<<<<<<<<<<<<XXXXXoOO##$##$$$#OOooooXoXo<<<<<<<<<<<<<<<<<<<<<<<<<<<<<<<<<<<<<<<<",
"<<<<<<<<<<<<<<<<<<<<<<<<<<<<<<<<<<<<<<<<<<<<<<<XXoOOO#$$#$#OoXXoXoXXXXoX<<<<<<<<<<<<<<<<<<<<<<<<<<<<<<<<<<<<<<<",
"<<<<<<<<<<<<<<<<<<<<<<<<<<<<<<<<<<<<<<<<<<<<<<XX<XOOO+###@OooXXXXXXXXXXo<<<<<<<<<<<<<<<<<<<<<<<<<<<<<<<<<<<<<<<",
"<<<<<<<<<<<<<<<<<<<<<<<<<<<<<<<<<<<<<<<<<<<<<<X<<XoOO+@++Oo<<<XXXXXX<<<o<<<<<<<<<<<<<<<<<<<<<<<<<<<<<<<<<<<<<<<",
"<<<<<<<<<<<<<<<<<<<<<<<<<<<<<<<<<<<<<<<<<<<<<<<<<oOOo+OoOO<<<<<<XXX<<<<<<<<<<<<<<<<<<<<<<<<<<<<<<<<<<<<<<<<<<<<",
"<<<<<<<<<<<<<<<<<<<<<<<<<<<<<<<<<<<<<<<<<<<<<<<<<oO+Oo<<<<<<<<<<XXX<<<<<<<<<<<<<<<<<<<<<<<<<<<<<<<<<<<<<<<<<<<<",
"<<<<<<<<<<<<<<<<<<<<<<<<<<<<<<<<<<<<<<<<<<<<<<<<<o+Oo<<<<<<<<<<<<+X<<<<<<<<<<<<<<<<<<<<<<<<<<<<<<<<<<<<<<<<<<<<",
"<<<<<<<<<<<<<<<<<<<<<<<<<<<<<<<<<<<<<<<<<<<<<<<<<Xoo<<<<<<<<<<<<<<X<<<<<<<<<<<<<<<<<<<<<<<<<<<<<<<<<<<<<<<<<<<<"
};
