/* XPM */
static char *_6719_f28209fb214b8603d5c82d2dbb1784f771a57b59e58b456db8890ff0ae9426c3[] = {
/* columns rows colors chars-per-pixel */
"121 63 16 1 ",
"  c black",
". c #341C00",
"X c #452800",
"o c #593000",
"O c #6D3800",
"+ c #824100",
"@ c #924900",
"# c #A65100",
"$ c #B65504",
"% c #CB5D04",
"& c #E77938",
"* c #EB8641",
"= c #EF9249",
"- c #F3A251",
"; c #F3AE5D",
": c None",
/* pixels */
":::::::::::::::::::::::::::::::::::::::::::::::::::#%%%%@@++++@+@@$*&%%%%*&%#+:::::::::::::::::::::::::::::::::::::::::::",
":::::::::::::::::::::::::::::::::::::::::::::::++##=--;;--*&&--*%%*;-=-**%&*%$o::::::::::::::::::::::::::::::::::::::::::",
":::::::::::::::::::::::::::::::::::::XXXX:::::$@@=-;;-=====**=*=-====---&$$%=%&==-%::::::::::::::::::::::::::::::::::::::",
"::::::::::::::::::::::::::::::XO@@@##&&&&#OOXX;=*=-*=*==&*=&&===;;--==-==**-&*&%**=&:::::::::::::::::::::::::::::::::::::",
"::::::::::::::::::::::::::::.X+@#$%&-;;;;;;;-&$++%=**=----;-;;;=---==-==-*=-;--=%&%#@@:::::::::::::::::::::::::::::::::::",
"::::::::::::::::::::::::::XXo@#$#%&*=--;;-;;-&@oo+#%-**=*-===***&=*==-==*%%**=-*&&&=**%@:::::::::::::::::::::::::::::::::",
":::::::::::::::::::::::::.XXo@#$$%&**--;;-;;-&@ooo+$&%XO++@O@@@#@++%%%%&%%%%%#&**&&$#@#O@++@@@##@OOO:::::::::::::::::::::",
":::::::::::::::::::::::..o+$+$%%%&*****---;;;-*@@@+#$$##$$###$#$$#@%%&&&&&&&%#&&*&&%%$%&&%%$$$$$$###O::::::::::::::::::::",
":::::::::::::::::::::.OOo+#$$%&&&*==---;%*%%%%%@@@@###%%&&&&&&&&&=&&&*=================**=====&&****====&$@@:::::::::::::",
"::::::::::::::::::::X.O+O#%%%&&&*==----;%%%%%%%$@@@###%&&&&&===========-=========-==========*&&&****====&$@@:::::::::::::",
":::::::::::::::::....o@$%*=&&**%*==-=*&&%%%%%&&&&&&&&&&&&&&&====***-=====*======*-=---==---=*&%%%&=====*=***%OO::::::::::",
":::::::::::::::..oo@@$%&&*-=======-%$#+$%%%%&&&&&*&***=&&&&&&*==************====-=--;-;-=---*&%%%%%%&*=-==**&%%OO::::::::",
"::::::::::::::...oo@$%&**=------=-=%$##$%%&&&&&&******=&&&&&&*==&&*&&&*******=====----;-----&$%%%%%%&***=***&%%OO::::::::",
"::::::::::::XXXoO@@$%&&*==-----=*&$@@$%%%&&*&&***=&&&&*==**$$%%&$@#$%&&&&*=**=*&*=--------=-=&&&&%%&***&**&&&&&##.:::::::",
":::::::::::ooooO@$%%&&**=====-==*#+#$%&&&&****&==*&&&&&%$#$$#++O+$%%@@$$***=*&***=------;=-====*&&&*****&&&%%$$##+:::::::",
":::::::::XoooooO#$%&&&*======-==*#+#$%&&&&***=&&**&&*$&%$#$$#++OOO+$$$*@#*=&**=***--;--------====********&%%%$$##+X::::::",
":::::::::O@@#+@#$$%&&*===-----=-&@@#%&&&&***=*=&=&===$%&%##$@@o+@#+o@%+$#+$&&&****=-=--;;;;;---;=====****&%%%%$@@@+X:::::",
"::::::::Xo++@$##$$%%&&**=====-=*$##%&**&&*==&=*&&&**&&&&*&%$@o@###+@#@@@@@+$*******==&--;;;;;---======***&%%&&$##@XX:::::",
":::::::XXo++@$$@#$%%%&&&*====-=*$#$&****&*===*&&&&&&&&&*$*%$@o@###+@#O+@@@+$*&*****&&&*--;;;----=====*&=*&*&&&%$#@XXX::::",
":::::::oo+@@$&$$@#%%&&-*---==-*$@#%&****&&*==&&&&&%%%%%$$%%#....+OOO+o#@@#$&*&*&******=------=--===-**===&**&&%$#@+#X.:::",
"::::::.O@%&&&&&%*==-=;;;---===&@#$%&*****==**=$$=$$%%%%$%%%$+.oOX+oXX+###$%%$&%&*==***&-===;;---====*==**&&&&&&@@+##+X.::",
":::::..@%%&&&&=&=*==-;;;---===&@#%%&*****==*==*&*-&%%%%%$%%%+.oOX+oXX+###%%%%%%&*==***&&---=--;;-======**&&&&%$@@+##+..::",
"::::.O#$%%&**&*;=-==;-;;--=**%###$%&&***==&**&&&&-&%%%$##$$#OXX...o..OOO##%%$%&%&*==****&==-----=====*=*&&%%%%$%%@$@@X.::",
":::.+#%%%&&*=;--=;;;;--=*=-;;&@##$%&&****&&&&&&&&*&%%#Xo+@#+XX@o.X....Xo##$%$###$&*===&&=&*=------======&*&#$%#+++&@O.:::",
":::.+#$%%&**=----;;;=;-=*=-;;&@##$&&&&***&&&&%%%&&&%*#XoO+#+XX@o.X....Xo##$%$$##$&&======*=-------======&*&#$&#+++&@O.:::",
":::.O$%%%&&&*&==---;;-=*=---=%#$@@$&*&&&%%%%%%%%%%%%&$O@OO+X.......X...o@####@@@#$&==-*=-**=*---;-=======*$+$%%@@O#+@X.::",
"::XO#%%%&&====-====---=--===%@+@@@$%%%%%$#$$$$#$#%$@++++oo..o....o....XO@+@#@@##+@@&*%*==*==*==----======&&$%#$&@++OO.X::",
":OO@$%&&%=***=--========*&%%$O+#@@#$$##@@@@@#$#@$@+O++++XX.XX........OXXXoOO+####@+@$#$#&&&==*=-=---======&&@@$@@+O+++.::",
".XO@$%&&&*&&*=--=======*&$$@@ooOOO@$$#OOo##@#$$+$$OO+#@Oo...OO........oX@+@@@@@@++@+$#%&%&&=====----=====&%$#@%##@O@++.O:",
".o+@$%&&&&%%&**====**==&*%@+OX+o+++#@#O+@@@$@$$@++oo+O++o+.X++X.......XOo+@@+###@@#@@##%*===--=-----=====&%$+#&%%#.++O.:.",
":O+@#%%%%%%%%&*&%&===&&&&%+oXX+o##+##+X%@o##+#$$@++oOOOXXXOXXo...........ooO##++++@###@$*=======---=====*&%@+@&$@+.++@O..",
":O+@#$%%%%$%%%&&&*&==*==&%#XXX++++$$oOO#%@@+$+X@+OXXX.....o.....o.......o...++@@@+@#@##&**========-=====&&&#++$#@OX+@+oX:",
"::O+#$$%&&&%&&&&%&%*&===*%$oooO#$@OOXoO+@+OO$+O#$@+oX...................OX...OOO++##+O+%%&=========-===**#@#@@##$+XO@@OX:",
":oOO#$$%%&&%&%%$%&**&===-*$#+X.o##+.XO+@@+@+o.o..@+X....................ooX..o+@@##@##@#$=;;;-==*==*===&#@##@#$==$#+O@o.:",
":oOOO+#$%%%$$%$&%&&$%&==-=#@...O@@o..++o+O......O...oo..............X...@#+Oo+@@##@##$$$%*=;;=**==&*&&&&#@#$$#@&=$@+oOo::",
"::O+O++#$$$$$$$##$$$%&==-*%@.........oo...................X............XO@..O@#@@#@##$$%&&*--*&*=&&*&&%&$#$&%$@#%@++Oo.::",
"::XoOOO@$%%$$%$$$$$&&*=&=**%o........o...o..........................O.....o.@##@##$$#&=&**==--=&**==*&%&&&$&$$@@$@oOO.X::",
"::::XOO@#&$$$$$$&%$$$*=*&$$#O....oooOo...o.....oOXX..........................+##$*&$*==&&*=--=&&*==-=&&*&$#$$#+%#oO@@@o.:",
":::::.+@#$#%%@$&&&$$$%&&%#+Oo....o@@@@#@Oo.....X.Xo..........................o.+$&*&--=%&==-==&&&&=-==*=&#+@$@ooOo+@@@@o.",
":::::.o@###$$$$&*&&%%&$$&&@oo.....OOo+#@+o.....+O........... .......XooOOX.o+#@#%**===&$$%====&&$&======&$@O@@.oOoo@@@@o.",
":::::oo+@##$&$#$*=*$%&%$$$@........o..o@#O....o@O.oOoX.o.........O@+X+@#OOoo#$&****&*=&$$&&==**&$%=**=*&%$#o.OooooooO@Oo.",
"::::::oO@@#$$$$&%&*%&&&$#$@.......................O....oXXX....oOO@@@+%&$%@#$%&**&&***&&#$**=*&$$&&%&&&&%%#o.oOoooooo+o.:",
"::::::oO+@##$$%$%*&&$&*$#$%@O......oo.o.o........o@.XXX.XX.XX.XXOo+##$&$$&#O@&%*&$=*=**==$***&%%&&%$$$$$$@o.ooooOooooO..:",
"::::::XoO@@##$%%&&&&%&&$$$&%#o......ooOoo....  .....o.XXXX.XXXXXX.o@$&*&&*=&*$&&&%===$=-=&**&*&&&&&$###@@+o.ooo++oXXX..::",
":::::::XO+@##$$&%%&&&&%##$&&#+O..o.....o.........XXX.X.X.XXXXXXXX.XO#&**&***$$#$$&*&&$@*==*&&%%$&*$#@O.....oO.O@+oXXXX:::",
":::::::.o+@#@##$$%&&&*&$@$&$$o..................ooXX.....XXXXX.XXXXoo@%&$%=&&%#%@*&&$@O%==&%$$$$&&##O.....@Ooo@@oXX..::::",
":::::::.XO++####$&&&&*&&$#$$#oo...............XoXXX.......XXXXX.XXXo.o@&%*&**%$#&&&&%.o$&&$$###%#$#@..O++@@Oo+++oX..:::::",
"::::::::XXO+@@###&&&**&&%$#$%O...............oOXXXX.........XX.XXXX.X.X#%%&%&==*=*====@@$%$@###$#@oo.o#@@@+++@+oo..::::::",
"::::::::.XO+@##@#$%%**&$$#@#$@..... ..........XXXXX.........XXXXXXX.ooo.@$$#*=---=====&$$$#@+@@#@o..O@#@+@@@@@@o...::::::",
":::::::::XoO+@@@@@##&=&$#@@@#@..  .............XXX........XX...X.XX..o+OoO@$$*====**=&%$%$#+ooO+o..o#@@@@@@@@@+o.X.::::::",
":::::::::..oO+@@@@#$&&$#@@+OOo........@.........XX............XoXoX.Xo@#@@++#%&&&&&&&$%%$#@oo...o.O###@@@@++@+Oo...::::::",
":::::::::.XX.oo@@##$%&#$@+oo..oO+.......::::.....XX........X.oo+ooXXX@@###oo+###$#@#@@@##@o....o######@+@@+OOOo...:::::::",
"::::::::::.X...o+@#$$$#$@O....o.........::...::.............oOOOOOoXoo@##@oo+@##@O.o.o+@+X..oo..o@@##@++++O+oooX.::::::::",
":::::::::::.:.XXo+@@##+@+o...X.......::::::.:::....:::::....oo++OOOo.o@#@@.o+@@#@Oo...oOo...O+@@@O+O@O++OOOOoo..:::::::::",
"::::::::::::::..Xo+###OOoo.X......:::::::::::::....::::::::.X.++O++Oo.+#@o..ooO@###$#@##@@....o.oO+ooOooOooooX..:::::::::",
":::::::::::::::...oO@o........o...::::::::::::::..::::::::::.XOO+@OoOo+@XX....oO+@@#$$$##O........oooooooXoXXX.::::::::::",
"::::::::::::::::.X.o@@......ooo...::::::::::::::..::::::::::..oo+@oX+@@o:..::.o+@@@#####+o.........X....X.....:::::::::::",
":::::::::::::::::..oOo...:.......:::::::::::::::.:::::::::::X..XoooXXoO::::::.oo@@@@###@+o................:::::::::::::::",
":::::::::::::::::::XoO..:::....::::::::::::::::::::::::::::::...XOoo..::::::::..X.oO@#@+.................::::::::::::::::",
":::::::::::::::::::::::::::.:::::::::::::::::::::::::::::::::..::Xoo.::::::::::::..o+@+..:.............::::::::::::::::::",
":::::::::::::::::::::::::::.:::::::::::::::::::::::::::::::::..::.o.:::::::::::::...+@o.:::......::..::::::::::::::::::::",
"::::::::::::::::::::::::::::::::::::::::::::::::::::::::::::::.::.o::::::::::::::::.oO..::::........:::::::::::::::::::::",
"::::::::::::::::::::::::::::::::::::::::::::::::::::::::::::::.:::X.::::::::::::::::oo.::::::::.::.::::::::::::::::::::::"
};
