/* XPM */
static char *_6975_c8f872e1c8373e15713b1ace562bf0532200b0d286acec22114c196b3ab78253[] = {
/* columns rows colors chars-per-pixel */
"117 77 19 1 ",
"  c black",
". c #341C00",
"X c #452800",
"o c #593000",
"O c #6D3800",
"+ c #824100",
"@ c #924900",
"# c #A65100",
"$ c #B65504",
"% c #CB5D04",
"& c #E77938",
"* c #EB8641",
"= c #EF9249",
"- c #F3A251",
"; c #F3AE5D",
": c #F3BA65",
"> c #F7C775",
", c #F7D37D",
"< c None",
/* pixels */
"<<<<<<<<<<<<<<<<<<<<<<<<<<<<<<<<<<<<<<<<<<<<<<<<<<#%%%%@@++++@@@@$*&%%%&***&$<<<<<<<<<<<<<<<<<<<<<<<<<<<<<<<<<<<<<<<<",
"<<<<<<<<<<<<<<<<<<<<<<<<<<<<<<<<<<<<<<<<<<<<<<++##=-;::;=***==***=;---======*@<<<<<<<<<<<<<<<<<<<<<<<<<<<<<<<<<<<<<<<",
"<<<<<<<<<<<<<<<<<<<<<<<<<<<<<<<<OOOOO#%%**%*&$$$*=;:::::::::>;;;::::::;-===;;;;;-%*<<<<<<<<<<<<<<<<<<<<<<<<<<<<<<<<<<",
"<<<<<<<<<<<<<<<<<<<<<<<<<<<<O@@$$%===*&*=&&%&*->>>>,,,,>>>>>>>>>>>>>>>>>;;;::>>>>;=&&<<<<<<<<<<<<<<<<<<<<<<<<<<<<<<<<",
"<<<<<<<<<<<<<<<<<<<<<<<<ooO@@#%&&=;>>>>>>;*%$$%=,,,,,,,>>>>>>,,,:>>>,::;;-;:>>>>:::::-$<<<<<<<<<<<<<<<<<<<<<<<<<<<<<<",
"<<<<<<<<<<<<<<<<<<<<<<<oo+$$&&&*-;;;-:>:>:=%#@$$*;::>:;::>:>,>>;====---=*****===-=*;:;*<<<<<<<<<<<<<<<<<<<<<<<<<<<<<<",
"<<<<<<<<<<<<<<<<<<<<<<ooo+$&&&=-;;-::>>>>:=$@@#$%*:---*====-;-=*&=&===&*&&&&&=&&&=*;-=*=&&%$@@@<<<<<<<<<<<<<<<<<<<<<<",
"<<<<<<<<<<<<<<<<<<<<oo+@$&==--;;--;-:::>::;=$###$%&%&&&***&==&**&=*==**&**&*&*&==&=;;-=***&&%%$@<<<<<<<<<<<<<<<<<<<<<",
"<<<<<<<<<<<<<<<<<<X+@%%&*;>::::>::::>::::=&%$$$$$%%%&**===------;;;-;-----=-;=;-;;;;;;-----------=&$<<<<<<<<<<<<<<<<<",
"<<<<<<<<<<<<<<<<<XX+@%&*-:>::::>::::>::;;=&%$%%%%%%&**==-;;;;::::::;;;;;;;;;;;::;;;;;:--&**------=&$#@<<<<<<<<<<<<<<<",
"<<<<<<<<<<<<<<XXooo@&&=;::::;;::;;;--:;&$#$=-=&=&=&*===-;;;;:::::::;----;;;:::::::::::--****---;;;;==*%@+<<<<<<<<<<<<",
"<<<<<<<<<<<<oooo++$&*=;:::::>>::;====-=&&&-=========--=-;;;;--;;;;--===--;;;:::::::::::;*&&&*==---;;==*%$++<<<<<<<<<<",
"<<<<<<<<<<<OO+@$$$&&=-;:::::::;--;--**%&*===----===--;;-;***;=*=*=====--;::::::::::>>:;-=-***====-;-=*&&%%%o<<<<<<<<<",
"<<<<<<<<<XOOO+@$%$&&==;:::::::;--;--**%&*===--;-=*===;;-=****=*=*=====-;:::;:::::::>>:;-;;;**-===*===*&&%%%o.<<<<<<<<",
"<<<<<<<XO++++@$%&&-==-;;;;;::;;-==&$$$$&&&=------***=---***&&%$&*&&&&-;;::;;;::::::::::;;::;;;;--==&*&&%$%%#O.<<<<<<<",
"<<<<<<X@$%#$#$%&**==-;;::::::;::-&%%$$*&==-------=***==-***&&&$#%&===-=-;;-;;;;--:>>>>>::>>:;;;-;;-=**&%%$$$%#.<<<<<<",
"<<<<<XX@$%%%%%%&**==-;;::::::;::-*%@@$*&==;;-----=***==*=****&$#%&=====-;;-------:>>>>>::>>:;;;-;;-==*&%%$$$%#.<<<<<<",
"<<<<XOO+$%&&%%&&==--;;-;;;;:;;:-=*&%#&&-;;;;;-;=-;====-=**=&&&$%*&&&&**=-;-------;::>:>>:::;;;;;;;-=-=*&%%%$#++.<<<<<",
"<<<..++$%&**&*=;;;-;;;:::;;:;-=*&&*%%$&=--;;-===;;;;-&**&%#%%##%&&$%%&*=----------;;;::>>::-===---==--*&%$$$$#%%o<<<<",
"<<.oo@#%&*===-=;--;::::::;;:;-&%%$%&&*-;;-;;-&=--=--*&-=&%%$##$$$%$%%&&=----;;;----=-;:>::;-;;;-;--===-&%$$$$%%#.<<<<",
"<<.oo@$%&*===-::;;:::>:::;;;-=&%#$%&==;;--;-&-------*&-=%%%*$##$$%&&&&&=;;--;;;---===;::::::::;-;--===-&%%$$%%%#.<<<<",
"<.o+@$%&*==*-;:::::>>>::;-;;=*&$@$%&=;;--==*=-===--=&&-=##@@oo@$@#$$$&&=;;=*=-;-=;;--::::::>:;;--======&%%%%%%%$.<<<<",
"<.o#$%&=----;;::::>>>:::;---=&%$#%&*-=---=**==*$%*=*&&=&$$%&$$o..o@@$%%*=$&%&=-;;;;;-;-::>>::;-;=----&&=%$##%%$@o<<<<",
"<.o#$%&=----;::::::>>:::;;-=&@#@#%&*-==--*&&==&$%$=*&&=&$$%&$$o..o@@$%%*=$&%&=-;;;:;;-;::>>::;;;-=-=**&=%###$$$@o<<<<",
"..O@%&*==-=;:::::::>>:::;-=*@@@@%%&=-==&%&&*-=$&&&&&%*&$$#%#@@o@oo@@$*%&&&$$%&=;;;;;;-;::>>>:;:;==;=&&&**$$@$$#@O<<<<",
"..+@&*===-;:::::;;::::;;-=&%+@$%%&*==&%&*=--===-&$%##%@O@$%%##oXo.@&%&#$%$$&$$$=-*-;--;::>>>>::;;;;====&&=$#$##@.<<<<",
"oO#%*=---;;::>>;::;::-;-*&&#@#$$%**&*%%#%*&&***%$#$$$%#@++OXXXXXX$$$$$$%%$&&&%$%**=----:::>>>>::::;:---;*%%$+#$$$O<<<",
"oO#%*----;;;:::::::::--*&%$+##$%%**&%$%*&%**%$**$$$*%$+O#$@OOO..O#%$$&%&%%%%$$%$**=----;::>>>,>>>;:-=*=--&&%@#%$$O<<<",
"o+$%*-----=;::::::;::-;=&%#+$$%%%***%%-=&*%**%$%%$%#$%++$$$#@XXXO#$%##$%%$**%%*%%&%-:::::>>>>>>>>::-=*%*-==&#O$$#OX<<",
"o+#%&=-=*==-:::::>:-----%@++$%%&*-*%#--%*=%**=%%*%$#$$#++####O.XXO%#+##@#*&$$$%*&&%;:;-;:::>:>:>:;;-=%$%-*%$OX$$%#O<<",
"X@@%&*=-=&*-:::::::;::--&++#$%%%=-*%$&=&%%*%$=*$$$$$&$#OO####XXX@OOO$%+OO$$%%$%&%&*::;;-:>-;:>>:::---*$$*&%#O+$%$@+X<",
"<o#$&*==---::::::::>::;-%##$$%&*&&$##$%$##*%*--&%%&%=*#XO+OO+XXXXXOO#*&@OO##$$**$#%-;-:;:;;:::>::;;==*%%&&*$++#%%#+X<",
"<o+#$&**---;;::::::>:::=$##$%$$&%$#O$*#%##%-==**&****&#XXOXXOXXXXXXO$%*$X#%&&%$*$+#=---;;:=-:>::;--***-&%%##$+OO$%#X<",
"<<+#$%&=-;;:>:>>:::>>>>*$#%%$@$&=&%#+&$%%%%***==%%*$#&&@+oo+oo++ooo$%*&%$@$%%$$$++$=;;;:;;::::>:;;-*&->;*%o+$@@o&*%+<",
"<<O@#%&&=-;;;:>>:>:>>>>*%$%%$#$&&=%&%$@#%+&*&%%%$$$%%%&$o+ooo@$@oooo$%=&&%++$#+++oo%;;*;--::::>:;;:;::>:*$o$&$@$=&%@<",
"<<o+#$%&*-;;;:::::::;::=%$#$%&$&*=@@$+$%$o#$=&&@@+o+&%#o++oooo@$$#oo#$%%&@++ooo++oo#;-&&$=;;:::::;;;::;=$+o&%%#&=*%+<",
"<<<O+#$%&=-;;:::;::>::>=$@+$%%%%*$oo%%%%$++$$&%$%+o$$ooooooXoo@%+#@$%$$%%%%%%oo+##&@=:;&$$-;::::;;;;::-%++@%%&%=*&$o<",
"<<<O+@#$%&=;::::;;;>;:>;%+#%%@$%%@oo+$%$%+ooo@#++ooo$$$o+o..O+$@#&#%$$+%++%&%o$o#%%o&*=;;&&;:;;::;;;;=%%$@+%%&&=&$+<<",
"<<<<++@$%&*;;::::;:>-;;*%#$$%@#&$@o+$%$$%@ooooo$=&$$$%$@ooo.X+@$o#$#o#+oo%;&%++++%$$%%%=:-%;:;:;:;;;;::-%@#$%==*%$o<<",
"<<<<O+@$%&*-;;::;>>>:;;&#o@##$@%$@+@$%%%@$+$o++%%$++%$++@$%+oOo@+#$+o+++%$&$+@&#o%%$#+$--*&;:::::;;--::;=%%%&===%#o<<",
"<<<<oO+#$%===-;;;;;;:::;$o+$+$$&%%&%&%$$@+++$%%$+@++$+o&&=&&+oo@+@$#o@%%$*%+$&&oo$&$$+$&-;;;::::;;===;:;;=&&---*$o<<<",
"<<<<<OO@$%=*&==--;;;:::*++o++#@%&$%%&&%@oooo$%&#@+#++o%-;==-&oooo$+@$$oooo%%$%+ooo@@%%$%--;-=:;::-=;==;;;-&-==*&$O<<<",
"<<<<<<O@#$==&&&=-;;;;;;%@oo+$%$%&#+%&%@+oooo%$$$%$$$%@%==**-;$oo$$@%*&$oo##$@o+ooO$@#$&==;;;:;;;-=&=&%&===&*-==*$@o<<",
"<<<<<<O+@$%&%%&=;;;-;;;%+ooo%%$%%#++$$$oo+@+o+$&&%&=***%===&*%oo%%%#+@++%*$@ooooo#%+o$&&=-*;;;;;-=&&&%&&-=*====&$@o<<",
"<<<<<<<O@$%&&%%*=====-;=$@o+o%&&%+$%##++@$$++++%%%=&**=%$*-&%$ooo+$&%@oo+%$%+oOoo+#+o#%%$==--;:;=*=&%%%%==&=-=&%$#Oo<",
"<<<<<<<<O#%%%&%%=;====;;%o++o$*%$o#%$#o+$$+@o$@$%&&-&&*&%&&%%@@oo+%$@ooooo@++oo.oo$@o#%$%=--=;;;&&*=%$@$&=&==*&&%$+OO",
"<<<<<<<<O@%%%%$$&=&==*=;=o+&oo%=%o+$$+oo+$oo$&$+@$&--=--%$#+$@+ooo%&+ooO#+o$=#o..o$#o#@o%*-=&&-;%%=*&%$%&=&&&&&%$$$+o",
"<<<<<<<<O#$%$%&%&*=-;=&==$o$o+#**$##$$@ooooo+#@ooo#&;&=&%$@$$+++o$%%*o.o+@$%=%oo+$&+o$#o@%%-;=&*$$%%%#@$%*&%&&&%$$$@+",
"<<<<<<<<O+##@%&&&&*;&%%===$%++$&&@oo++%+ooo%@o$$&&%$$&$%&%##+++oo#&%$+$oo#@$*$oo@-&ooooo+$$=-%$%#+@$@@@$&=&&&&&&%$#@O",
"<<<<<<<<Oo+++$%%%=&=%%%*&%$&$++%%*&ooo+#+oo+@@$%&&&$++$$%@+$o++oo+$@ooo.oo+%%oo+$**oo$oo+o$&&$$@o+o+$++$&=&%%%&&%$@+o",
"<<<<<<<<<ooo++$$$&=&==&&#+%@+o$#%=-%ooO@o+#+$o$%&&=--*@o@$$+o+@o.o$$ooo@##+@@%+$*-#o+#+o+@$%$+@@oo++oo+#%&%%%%&&%$@o<",
"<<<<<<<<+OoOO+$#+%=-=&***+%#++@%#&=%ooo+oo++o@o+%=;;;=;$#+%$@oo..oOoooo@ooo@%&o$=&#o+ooooo+%%+++oo+++oo@%$$%%&=&%#@o<",
"<<<<<<<<<OoOo@&&%%&===&&*%+#@@+o+%=%oooooooo++++%-=&&-=*$o+++ooo.o.X.ooooo++oo@&%$*++oooooo#$@ooo++oooo&%#%$&&&&$#+<<",
"<<<<<<<<<<<oo+$*=%%===&&&&@++o+@o@%*@oo@ooooo+@%--%#%=-==-=$ooo..ooooo+oo$o#+O+$+$$%oo.oooo%$@o+++@oooo&%$$&&&&%$#O<<",
"<<<<<<<<<<<oO+$%%$%==;&%=-&%+oo+$%&&&==&@o$$$o&-;=$$&%*&*=**%ooo..oooO$$%@$$$$o+o+@oooooooo$$+ooooooo+++&%&&*&&%$#O<<",
"<<<<<<<<<<<<o+@$%$&&=-*&==%*$oo+##@$&=-&$o$%%#*=-=&%%$%==&&$%%$&o..oooooooo@X.ooo@ooo.o.Xo@%%+oooo.oo$+o+@$&*&%$#+<<<",
"<<<<<<<<<<<<oo++##&====&==&**%#o$$$$%*-&$@$&@$%&*%%$%$#&==&&%$&&%o.o.o.oo..o.oooo..ooX..Xo##$@o.....o+ooooo%&%$$+o<<<",
"<<<<<<<<<<<<<+o@#$%&*=*-=&&&*$&=$+$$%&-=%&&&%&%%%$$$%#$$&%&&&$%&%%+o.oo..o+oooooo..oo.oooo$%@oo... .o..#ooo#%$$Oo<<<<",
"<<<<<<<<<<<<<o+@@#%$&*&&*=%$%&==%o#%&==*%@%**&%$+++$+@#$$#%&&%$%$$oo+$+o...oo#o..X.. .Xoo@%@+oooo  .oo.o$oo$%$+o<<<<<",
"<<<<<<<<<<<<<o+##@$$%&*&=&%@%=&%$$$&==*&$$$&&&$#@+oO++$%%&&&&#++#$$+$$+o...Ooo..    .ooOooo+@oooo..oooo++oo##@O<<<<<<",
"<<<<<<<<<<<<<oo@@++$%%&&%&=&$%&%%+@&=-&&%%%$%%%%@+OO+@$$%&&&&&&$@%&+$%%$+ooo.o.   ..oo.oooo@++ooo..oooo+ooo+OO<<<<<<<",
"<<<<<<<<<<<<<<o+@+++$%%$$$%$+#%*$oo$=*%%$%$@@$$$@ooO+@#$$%&&&&%$#+o+#%@++@oooo.X. ...ooo.o+@+oooo.Oooo+oooOOo<<<<<<<<",
"<<<<<<<<<<<<<<<o+@o+$$$@##$$++$&%oo+%&%$$##$#@++oOoo+###$%%&&&%#$#+oooo+oo.....   ..oooo++oooo++o.o+++++ooOO<<<<<<<<<",
"<<<<<<<<<<<<<<<o++o+ooo+#%$$$o+$#$o#&%$##$@$@+oooooO@@@##%%%%&%$###$$#++oo...oo....o$%&$oooooo+ooooo++ooooO<<<<<<<<<<",
"<<<<<<<<<<<<<<<<o@+o@$++$$@#$$o@#$%%$$##@#@oOooooooO@@###$%%&%$##@#$%%$$+o.ooo..o+@@$%+o+o+oooo+oo$+@oooOo<<<<<<<<<<<",
"<<<<<<<<<<<<<<<<<o+o@@@+$$$$$++oOo#$$####@OOooXXoooO+@@#$$$$$#@@@@##$#@+@+o++@+@+oo++##@++oo+oo+o$%$o.ooo<<<<<<<<<<<<",
"<<<<<<<<<<<<<<<<<<ooo+oo+++$@oo+OO@$#@+@+OOoo<<<<<oO@++$$@@##@+++@@#@+O+++ooOOo@+oo++@#@oo++++++++$#+..<<<<<<<<<<<<<<",
"<<<<<<<<<<<<<<<<<<<oooooo+o++oooOOO@+OO++OOo<<<<<<oO++@##@+@++++++@@@++O+ooooo+####@+o++o++oo++++@@+o.<<<<<<<<<<<<<<<",
"<<<<<<<<<<<<<<<<<<<<<<<<<<<<<<<<ooO++OOOOOO<<<<<<<o++O@@+++++++OO+@@@+Oo+ooooo#$@@@o@@++o++#$@@+++oOo<<<<<<<<<<<<<<<<",
"<<<<<<<<<<<<<<<<<<<<<<<<<<<<<<<<<<ooooOoooo<<<<<<<O+++#+o+O+++OOO+++++OooooXXo@++@$%++@$oo+$#+OOoOo<<<<<<<<<<<<<<<<<<",
"<<<<<<<<<<<<<<<<<<<<<<<<<<<<<<<<<<<ooooooOo<<<<<<oO++++OOOOOOOOOOOO+O+++ooo..ooOoo+#+oo+ooo+#@#@oo<<<<<<<<<<<<<<<<<<<",
"<<<<<<<<<<<<<<<<<<<<<<<<<<<<<<<<<<<<oooooo<<<<<<<oOOOOoooOOO<<OOooOOOO+@+oX..ooooooo++OOooooOO@o<<<<<<<<<<<<<<<<<<<<<",
"<<<<<<<<<<<<<<<<<<<<<<<<<<<<<<<<<<<<<<<<<<<<<<<<<o<<ooooo<<<<<<oooO+OooooX.Xoo..oooo<<<<<<<<<<<<<<<<<<<<<<<<<<<<<<<<<",
"<<<<<<<<<<<<<<<<<<<<<<<<<<<<<<<<<<<<<<<<<<<<<<<<o<<<<<<<<<<<<<<<oooooooOoooo....oo<<<<<<<<<<<<<<<<<<<<<<<<<<<<<<<<<<<",
"<<<<<<<<<<<<<<<<<<<<<<<<<<<<<<<<<<<<<<<<<<<<<<<<<<<<<<<<<<<<<<<<<<oooo<oooo+oo<o<<<<<<<<<<<<<<<<<<<<<<<<<<<<<<<<<<<<<",
"<<<<<<<<<<<<<<<<<<<<<<<<<<<<<<<<<<<<<<<<<<<<<<<<<<<<<<<<<<<<<<<<<<<<<o<<<<<@+o<<<<<<<<<<<<<<<<<<<<<<<<<<<<<<<<<<<<<<<",
"<<<<<<<<<<<<<<<<<<<<<<<<<<<<<<<<<<<<<<<<<<<<<<<<<<<<<<<<<<<<<<<<<<<<<<<<<<<oo<<<<<<<<<<<<<<<<<<<<<<<<<<<<<<<<<<<<<<<<"
};
