/* XPM */
static char *_9026_380a60f0057fb593aa9b38066e4d58189c976e8fd4cd4f6c274aed6897af1dd1[] = {
/* columns rows colors chars-per-pixel */
"105 95 19 1 ",
"  c #452800",
". c #593000",
"X c #6D3800",
"o c #824100",
"O c #924900",
"+ c #A65100",
"@ c #B65504",
"# c #CB5D04",
"$ c #E77938",
"% c #EB8641",
"& c #EF9249",
"* c #F3A251",
"= c #F3AE5D",
"- c #F3BA65",
"; c #F7C775",
": c #F7D37D",
"> c #FBDB8E",
", c #FBE396",
"< c None",
/* pixels */
"<<<<<<<<<<<<<<<<<<<<<<<<<<<<<<<<<<<<<<<<+###OOoooOOO@%$##$%%$@<<<<<<<<<<<<<<<<<<<<<<<<<<<<<<<<<<<<<<<<<<<",
"<<<<<<<<<<<<<<<<<<<<<<<<<<<OOOO<<<<<<oo@&*=-==&%=-*%*-=*&&&&&%O<<<<<<<<<<<<<<<<<<<<<<<<<<<<<<<<<<<<<<<<<<",
"<<<<<<<<<<<<<<<<<<<<<<O@@@%=*==$@+OO@@@$*-;;;;;-;-::::;-=*&&====*#<<<<<<<<<<<<<<<<<<<<<<<<<<<<<<<<<<<<<<<",
"<<<<<<<<<<<<<<<<<o+OO@#*&;:>-:;:-*&&$##$&-;---;-;;;:::;;-====-====%<<<<<<<<<<<<<<<<<<<<<<<<<<<<<<<<<<<<<<",
"<<<<<<<<<<<<<<<<oo#@##$===-;;;:;:-=&$$$$&&*==-;;;;;;;;;;==***=====&$<<<<<<<<<<<<<<<<<<<<<<<<<<<<<<<<<<<<<",
"<<<<<<<<<<<<<<<<o#%$*&%**::>,>>:>>;-*=&%%$$&&*=----=&&*==*****===&##@####$%%$@@@<<<<<<<<<<<<<<<<<<<<<<<<<",
"<<<<<<<<<<<<<<<oo#%&-:;;;-:;;:::>>>:--=%$##$%%&****%%**======*=--*%**-=*&&&&&%%%O<<<<<<<<<<<<<<<<<<<<<<<<",
"<<<<<<<<<<<<<<Xo@%==;;::::;::::::;===*$%$##$%$&&*=**=-;;;;;;;-;--:::::;-=*&&======*#<<<<<<<<<<<<<<<<<<<<<",
"<<<<<<<<<<<<Xo@*:::>>::::>:::>:>::=$%##$%%&&&*=;;;;;;;:::;;;;;;;;;;;;;;;;>-===--;;;=&$<<<<<<<<<<<<<<<<<<<",
"<<<<<<<<<XXoo@=;:::::;;::;;--:>--%$##$========;;;;--:>:::;--;;;:;;>:;:::;;==-::;---;--*OO<<<<<<<<<<<<<<<<",
"<<<<<<<oooo+$-::;::::>>::;===;;=&$%%**=---;==-;;;;;;;;:---=*--=;;>;:;>:=;;;&&*;;*-;---=%@@<<<<<<<<<<<<<<<",
"<<<<<<ooooo+$-:>;::::>>::;===;;%&&&====---;==-;;;;;;;-:-=----;=;:>:::-:,>==;&*-;&-;====&$@<<<<<<<<<<<<<<<",
"<<<<<XOOO+@$&&-=;::::::;--;;;;&&%-==;;;-*--;;-;;;;=*=*=----:>:::;;::::>:-;;:-***&&*======%o.<<<<<<<<<<<<<",
"<<<XO++++@$=--:;:;;;::;;-=;;;-$&&&==-==-===*===***$$&*&&-;;;-=;;;-:::::;--::;;;;--==&&&&&%#O.<<<<<<<<<<<<",
"<<XX@$%#$#$%*=;:::::::;::::-%**&==;-=;;;=&*==-=***&$#%&===-;;=-;;=&=:>>>>:>>:;;;-;;-==*&&$$%#.<<<<<<<<<<<",
"<<OO+#$&&%$*-;::-;;;:;;:::*%$&&-;;;;-==-;==-===*===$%*&&*===;==--====;:>>>::;;;;;;;-=--=&%$#O..<<<<<<<<<<",
"<.++#$&-&=--;:;;>::;::;;=**&$$&=--;;;==;;;-&$*$$##%#%&$#%===-=---==---;:>>:;-===---==-=*&$$##%+o<<<<<<<<<",
".o@$*==--->;;;;;:::;;:>>;&&===-;;-;;-&-;=-*&-=&%**$#$$%&&=;;==*&;:---==;:::::;;;-;--==-=&$#&%%#.<<<<<<<<<",
"o@#&===*=---;:>>::;-;:;;=$$&=;;;-==*==;:;-&&-=#@#@o@$@#$&&=;-=**-:;=;;-:>:::>:;;--=====&&*$$&$$.<<<<<<<<<",
"o#$&==-=-;;;:::>>>;-;;;-&$%=-;;--======-===&&%#+@O#%$#%**==-=*=;;--;::;;:>>>>:-=-*&==&$$&&#$&&%#.<<<<<<<<",
".#%*=---=;;;;;:::;=;;;;=&&&==--&*=-=;*==%#$&$#$$###&*$#$#$&&====%*-=&-==-:>>:;;==*&&==&&&$$&**&%O<<<<<<<<",
"o#%*--;;-;;;;:::;;=;:;=&$*=-*-==---=*==*$#$*=$O#@@@o+#%%+$$=-;=%#*==%=;==*::::;--===-=*=&%$#==&@.<<<<<<<<",
".@$*===--;;;;;;;;;-;-==$$*-;====;;;-=***%#O#$%Oo@$%#O@$$##=;;-*$#&&$**;==&$=:::-===-;-&==$#&==&@.<<<<<<<<",
"X@#%$&==;;:;;;;;;;;;;=$#&=;-*=-;;;:;;;=*&%@#$%+O#@$$#$&$##$;;&&%%$#@==-=;-*=:::;;;-;;;=-=$$&==&#o<<<<<<<<",
"o@%&&*===;;;-;;:::::;$#$&===&=;;;;-==;;;;*%#@.O+$@@##%$$##&=;;-*@@#&==-=*&=*;:;;;;-;;;=-=%$#$&%$@.<<<<<<<",
"X+$$#&&==;;;;;:::;;;;$$&%===&=;;&%&%$$=;-&&$#o+@@++oO#$#oO$=&&&$#$@&=**$&&$*;;;;-;--;;===*&##&$$#.<<<<<<<",
"XO@@$&*---;==-;;:;=;*#@#%==&*-;;==$#@@$==***%@+#@.oOo#%#OO%*=&&--$++#*=%$&#*;;;;;;;-;-===-=%$&&$@.<<<<<<<",
"<o@#$&*---;=;;;;;-=;*#+@&==%&-==&=#%&$%$$%&&&#$$O+O+&-$%##%&%*%&*$O.@&=$#%%$=-;;-;;-;-*-;=*&%&*&$.<<<<<<<",
"<X@##$*---;;;:::;;-=&#@#=;=&=&&=;&%&$@$$%&=*%*=$%OO+$$#$#$#@$==$$$###$&&$$&$*;:;;;-;;===;-=&$&&%$+<<<<<<<",
"<X+##$&==-;;-::;:;-=###$-;-=*@$;&$@$$@@$%%$$&**$#+.oo#$$#$#$##$%&&+$#%&&$&$$*;;;;;;;;-**-==&&&&$$@.<<<<<<",
"<.O#$&&--=;;-::;:;-&&#$%-;==*=$&%####%**&%$$$&%%#o+o@@$#$#$%##$$#&&#@$&&$=%#%;::;;;;-====*&$%&&%$@.<<<<<<",
"<<o#%&*--=-;;::;;;:=&$$&-;=&%&O###@@#$$%-=%$*==&@o@#+@@@##&=%$##@&##@&&&$&#@$&;::;;--=-=*#$@#&*&$#X<<<<<<",
"<<o$&**--==;;::;;;;%&*&&;;-&$#@&##%%$$&=*=;==&&&$#&%O#+#@$=&&%*$$$$@@$=&#&#+@$;::;;=&$&=*&@##&*&%#O.<<<<<",
"<.+$&&*=-==-;;:;;=-&&*%*--=*&%@%O@##%*#$==;=%&&=;==*#O@@#**%$#*&&&#OO@*=$%#@$$;::;;-=$$**$@+#$&%&#@oX<<<<",
"<o@%*%*=====;;;;;==&&%$**&=&&##@oo@#&*#@&;;-&&#$;:-&##+$*-*#@#%%&&#@@#$&#&#@##;>:;=*&$@#*%O@$&&$$$@X..<<<",
"<O#&&$&*====-;;;=*=-&&%&&#%#$###$#@%$&&&&===&&$@$;>=%$@@&-&$$$$#$$#O###=$%##$@=::;*&$#@$&&#$$$&&$%$+Xo.<<",
"<O@$&%%=**===;;;-==;=$$%%@$&$$#%%$&$$#&=*===&=&%##*;*&$$%=&%#%%%$&#+#$#&$@@@$@$;::;=&$#@$%==&$@&$&$$$#o<<",
"<o+@%&%&&&*&-;-;;;=;-%$&&%$%@##&$$&@@##$%%%*&&&$$#&*%##$&*&&%$##$$##&@#&&$#@#@$=::;==&@O$#&==%##$&&$##@.<",
"< O#$&$$&*%%-==;;:-;;-%%%&*%&##%%$*#@#$$@@$&%$$$#$%&&&$$&**$@$#$$%#$%@#&&$#$$#$=:;=&%$#O##%$@@#&%%&&#@o.<",
"<<X@#@#$&*=**==-;;-;;;=&#%&%#@@##$%$#&&#oO##$$$$&=&*=&&#&$&*$&&&$@++o+#%&$&#@+$&;;=$$$O@$&$O.o#$#$%&$#+.<",
"<<.OO+#$$&=&===-;;;;;;-$##&%##%%$$#$#$%$#O@$$&%*====-=&$$##%$$#@#+@++@##&*&#OO$=;;*$$#Ooo$$+O@o+O#@#$$o.<",
"<<<XoO@#%*=&*====-;;;;-$#@#$@#$$##$$#$&%&&$$%&%=======&=@@$$@@$O+#o+#@$@*&$@@@$=;-=$$@OO$$#O@$#+o$@o$#X<<",
"<<<.XO+#%&=*=&==--;;;;=$@@@&&#%&#@#%%**%==$%&*=--=====#=&#$$$##+O@$@@$%##@@oo+#&===%#@o#%%$@@##@O@#@#+X<<",
"<<<<.O@@$&=*&%&=-=;;;-=$#%@##%%%$@$=;-&$&-=;==;-;;*&*=%=&%$$@#@oOo@#@$$#@O@o.@&&=-=%#ooO*$$@$$$@@@@O#@X<<",
"<<<<.oO@$%&=&%*&=-;=;-=&$=$@#&=*$#*;=-----=;;=;;-=&&&&$&=&%%@O+o@$$o#*%$$#@+o#&&&-=$@oO$&$O$$#@+++#@#OX..",
"<<<<<.o@$&&==$%&=-;====*&&&#$;-***-=*=-;===------;=&%$@#***%%@o+%=###&#$##+@+#&&-;*$@.$$$##%&oo@#OoO@oXX.",
"<<<<<XO@$&===#$&==--==&&=&=&=-=*-;;=*;;;*&&*&=-==-=*$@O@&&&%@+O&*=*%#+@#$%$##*=---&@O.o#&$$@...Oo@.@@OXX.",
"<<<<<Xo#$$&==$$&==-;&*&&*=&&;==*-;-=&*--&***=&=&=-=*$$##==%%$+O&=*&#Oo$$$#$@$&=;=$#oO..o@#@#$#ooo#O@@+X.<",
"<<<<<Xo@#$&=-&$&===-=&&&==&==&*=-;--**=;=&&==*%&==&==*@+==%&&@$=--=&##&@@##%#$&=%#@@$@oooo++#@#oo##.#OX.<",
"<<<<<.X@@$==-=%&===;=*&%&&==&#*=;;--==;;-=*&&==$==*&=&$#=-$&*$#&*==*=$$@$$@$###**$#&&$##ooo+.O@.O$..@+X.<",
"<<<<<<.O##&*=-*%=-;;;=&%*=-==&===*=-===-===&%&&&-=%&&$$#%&&&*&$%==***$@o$@O@+@$*;;&%&$##O@o#o+#+@+.o@oX<<",
"<<<<<<.+$#$*==*$*=;;;;*&==-**&-;===;=--&*&&=#=&**=&%##$&&===$=%$=***%#@o@oo..#$=-==$%#$$$#$##@@@O+o$@o.<<",
"<<<<<<.@$#%===*&==-;;;-=-==&&&=****====%%%$%&=&=-=*$##$==&=-==****=&$@@@.ooo.+$*=;*%$###$$$$O+@O+.#$+o.<<",
"<<<<<<.o#@#===&&====--==--=&*;=&&==-==&*$#$&=&$=-=$#@+$&=&=====&**=&&@O.OO@..o#$=-%$$@+@#%$#OoO@oO#$@o.<<",
"<<<<<<.o#$#==-*&*=&=;-=--;;=*=-=-=*===%%&#%%&%&=-*$#@++$&&%=**&&*==*&$..@$@..o#&-=$&@ooo#$#o.o@@o$#$@o<<<",
"<<<<<<..#@#&*-=&=-=;;=----;*==-=*===**&*%&&$#$%**&$@oO+%&&&===*&*&===#O*&*#o.o#&*$%&#O%$$#o.Oo$o.$$#OX<<<",
"<<<<<<.X@##=*==&==-;;;;-=;-*==*&%&&*=*####%%@@&*&%$@+..@%$&&==&&==%%*%*=**$$O##$%$&-==-*%#o.o@#Oo%$#o.<<<",
"<<<<<<<.@##&&&=&**=--;-==-==*&#&=&&&&*$$$$&%O#$%&###@.o@+$$$&==%&=%&*&&====*%&$#$$====*%#O.oo##o#$#@X<<<<",
"<<<<<<<.@$@$&&&&*====**=;;;-==&=*&&**&&$$&$#.@@$#@$$#%@&$%$$$%&#&***%%**&&*&&&#&$&**%$$#OoOO@#O.&%#OX.<<<",
"<<<<<<<X@$@#%&%%&&*&#$&=;;;;*&&&$%&=&&&%$#$#@@@+OO#$$##%$$$$%#$#@&*%%%*&&&*=&@@$=&%$#&%=$@O#+#+#&$@X<<<<<",
"<<<<<<<X@$+@#&&&$**&#$&=;;;-&$*$$$%&&$#o.+OOo+OooO@@+###$%$$$$##$$+@$%***=*&%$$&==&#$===$@$##O#$%$+X<<<<<",
"<<<<<<<.O$@+@%&$#&**$$&=--;;&$&%&=$$$$@@.oO@o..oo@#Oo@@O@$&&@oo@$&+O$&&*&&$$&&===*&$$&*=*$%$#@#@&$+.<<<<<",
"<<<<<<<<.@@o+#%$$$&%@#&======&*%*$%*$@@Oo..X....OO@#ooo@+%%&o#@@%#o+*&$&&%$&%&==*&&##$&==##$##$$$@.<<<<<<",
"<<<<<<<<.+ooo@$@@O@+@@#&--;==*%$%$&&&$@........oOoO@o.O+@$$##$$%@@#$&#&&&&&%%%*&=&$@+@***$@$$@@##@.<<<<<<",
"<<<<<<<..o@oo+@#oO@$@+@=---*=&$@$%=*=*%%O#o...ooOO#$O@#+##@Oo@@@+oO$$$&&%&$#$&&=*&#@+@#*$#&%#*##@o<<<<<<<",
"<<<<<<<<..o@OoO@#+o#@@O$=-=*&&=%$%$%$$$#+@#@$#O@oo@$##$o#$@o.+@$.@=O##&&&%$###&*&&#@@O$%$#%$#$@@o.<<<<<<<",
"<<<<<<<<.X.++oO@##@@o#O@#$&&*==*#@##$$#oooO@+o#+oo#####@#@@###o.+@%@%###*%#@#*==&&$#@O#$$$#@@@+X.<<<<<<<<",
"<<<<<<<<<..o@+.O@@@#O#@+#$#$$&$$@@+#$#$+@##$#@#@@@#+@###$##&@#o@oo@@%$@$=$#*&=*&&%###oo#$#oo@+X.<<<<<<<<<",
"<<<<<<<<<<<XO@####@@#@+O@@@o@$%#+++#&&&&++###@@@####$%%&=%#oOOOOOo@@#@%&*$*%&**&&$#@#.o@+O.+O.<<<<<<<<<<<",
"<<<<<<<<<<<.o@@$#@@@+@+@@@##@oOoOo+#*$&#o@###$$$$$%%&****&%$@@@O@o...@$$&%$$*&&%$$#+Oo.oo.XX.<<<<<<<<<<<<",
"<<<<<<<<<<..XO##@@+oo+@#@@@#+&@+@@o#@$$$O@@@#$$$$&***==**&&%%$$%O..o@@#&$##%&$%##@ooo@#o..X.<<<<<<<<<<<<<",
"<<<<<<<<<<<.XX+#@+oo..+@@@+@@#$%$#$#%%@oO+@+O#$$$&*****&&&&&%$$#$Oo@@@@#$$$$#$#@@@OOoo@o.<.<<<<<<<<<<<<<<",
"<<<<<<<<<<<<..@@#OooXXX.o@ooo.+@$#@OOO+ooO@@+@$%$&*&*&&&&&&&&$$###$#@#$@@@@@@O++O..oo...<<<<<<<<<<<<<<<<<",
"<<<<<<<<<<<<.O@o..o.......o.....+..o.oo@oO+@O@$$%&&&&&&&&&&&&$$####$###@@@OOOoooXXXo...<<<<<<<<<<<<<<<<<<",
"<<<<<<<<<<<<.ooo.............<.o@....o+ooo+@O#$$$%&&&&&&&&&&&$####@@#@#@+ooo......X.<<<<<<<<<<<<<<<<<<<<<",
"<<<<<<<<<<<<<......<<<.......<<...<.X.oooo+@##$$$%&&&%&&&&&&&$#####@#@OoXXXX.X.<...<<<<<<<<<<<<<<<<<<<<<<",
"<<<<<<<<<<<<<<<<<<<<<<<<<<...........X.ooO+@###$%$&%&%&&&&&&&$@@@@+++OooX.XooX.<<<.<<<<<<<<<<<<<<<<<<<<<<",
"<<<<<<<<<<<<<<<<<<<<<<<<<<<...<.oo.+..oooO+@@##$$%%%%%%&&&&&&$++++OOOooXXXXXo...<.X<<<<<<<<<<<<<<<<<<<<<<",
"<<<<<<<<<<<<<<<<<<<<<<<<<<<<<....oo#..oXoo+@@@#$$$%%%%&&&&&&&%@@+OoooXXXX...X.<<.<<<<<<<<<<<<<<<<<<<<<<<<",
"<<<<<<<<<<<<<<<<<<<<<<<<<<<<<<........X.XOOO+@#$$$%%$&&&&&&&&%@O@OoooXXX......X..<<<<<<<<<<<<<<<<<<<<<<<<",
"<<<<<<<<<<<<<<<<<<<<<<<<<<<<<<<..@....X.XoOOOO@#$$%$#%&&&&&&&$OOO+ooXXXX..<<<..X.<<<<<<<<<<<<<<<<<<<<<<<<",
"<<<<<<<<<<<<<<<<<<<<<<<<<<<<<<..O&o....XXoooOO@#$$$$$%%%&%&&%$OoooOXoXX..<<<<<..<<<<<<<<<<<<<<<<<<<<<<<<<",
"<<<<<<<<<<<<<<<<<<<<<<<<<<<<<<<.&&.....XXXXooo+#$$$$#%%%%%%%%#oooXo.XX...<<<<<<<<<<<<<<<<<<<<<<<<<<<<<<<<",
"<<<<<<<<<<<<<<<<<<<<<<<<<<<<<<<<<<......XXXXXXO##$$$#$$%%%%%%@ooXXXX.....<<<<<<<<<<<<<<<<<<<<<<<<<<<<<<<<",
"<<<<<<<<<<<<<<<<<<<<<<<<<<<<<<<<<<<.........XXO@#$$#$$$$%%$%$OoXXX....<<<<<<<<<<<<<<<<<<<<<<<<<<<<<<<<<<<",
"<<<<<<<<<<<<<<<<<<<<<<<<<<<<<<<<<<<<<<<.....XXo@#$$#$$$$$$$$#oXXXX....<<<<<<<<<<<<<<<<<<<<<<<<<<<<<<<<<<<",
"<<<<<<<<<<<<<<<<<<<<<<<<<<<<<<<<<<<<<<<...<.XXoO@####$$$$$$$XXXXXX...<<<<<<<<<<<<<<<<<<<<<<<<<<<<<<<<<<<<",
"<<<<<<<<<<<<<<<<<<<<<<<<<<<<<<<<<<<<<<<.<.<...Xo@#@#######@XXoXXX.....<<<<<<<<<<<<<<<<<<<<<<<<<<<<<<<<<<<",
"<<<<<<<<<<<<<<<<<<<<<<<<<<<<<<<<<<<<<<<<<<<...XoO@@##@@OoXX..XO.X...<<<<<<<<<<<<<<<<<<<<<<<<<<<<<<<<<<<<<",
"<<<<<<<<<<<<<<<<<<<<<<<<<<<<<<<<<<<<<<<<<<<<<.XooO+@@++XXoX...X...<<<<<<<<<<<<<<<<<<<<<<<<<<<<<<<<<<<<<<<",
"<<<<<<<<<<<<<<<<<<<<<<<<<<<<<<<<<<<<<<<<<<<<<<XOooooOooXX<<.<<<<<<<<<<<<<<<<<<<<<<<<<<<<<<<<<<<<<<<<<<<<<",
"<<<<<<<<<<<<<<<<<<<<<<<<<<<<<<<<<<<<<<<<<<<<<<XoOoXXXo<<<<<<<<<<<<<<<<<<<<<<<<<<<<<<<<<<<<<<<<<<<<<<<<<<<",
"<<<<<<<<<<<<<<<<<<<<<<<<<<<<<<<<<<<<<<<<<<<<<<XOOX.X<<<<<<<<<<<<<<<<<<<<<<<<<<<<<<<<<<<<<<<<<<<<<<<<<<<<<",
"<<<<<<<<<<<<<<<<<<<<<<<<<<<<<<<<<<<<<<<<<<<<<<.oX.<<<<<<<<<<<<<<<<<<<<<<<<<<<<<<<<<<<<<<<<<<<<<<<<<<<<<<<",
"<<<<<<<<<<<<<<<<<<<<<<<<<<<<<<<<<<<<<<<<<<<<<<<<.<<<<<<<<<<<<<<<<<<<<<<<<<<<<<<<<<<<<<<<<<<<<<<<<<<<<<<<<"
};
