/* XPM */
static char *_0187_296543e7083528827fb166e198e8d4338bf2282d6f21023dccc868e3e12a136b[] = {
/* columns rows colors chars-per-pixel */
"114 81 19 1 ",
"  c #341C00",
". c #452800",
"X c #593000",
"o c #6D3800",
"O c #824100",
"+ c #924900",
"@ c #A65100",
"# c #B65504",
"$ c #CB5D04",
"% c #E77938",
"& c #EB8641",
"* c #EF9249",
"= c #F3A251",
"- c #F3AE5D",
"; c #F3BA65",
": c #F7C775",
"> c #F7D37D",
", c #FBDB8E",
"< c None",
/* pixels */
"<<<<<<<<<<<<<<<<<<<<<<<<<<<<<<<<<<<<<<<<<<<<<@$$$$++OOOO++++#&%$$$%&&&%#<<<<<<<<<<<<<<<<<<<<<<<<<<<<<<<<<<<<<<<<<<",
"<<<<<<<<<<<<<<<<<<<<<<<<<<<<<<<<<OOOO<<<<OO@@*=-;;--*&&-;=&&=;-==******&+<<<<<<<<<<<<<<<<<<<<<<<<<<<<<<<<<<<<<<<<<",
"<<<<<<<<<<<<<<<<<<<<<<<<<<<O@@@%%====%@@OO##$;:::::::;;:;>>>>>:;;-=***-----=$<<<<<<<<<<<<<<<<<<<<<<<<<<<<<<<<<<<<<",
"<<<<<<<<<<<<<<<<<<<<<<<ooO@#&&;::;>>>>-*&%$#$%*::;-;:--:::>>>>:::;-----;-----&<<<<<<<<<<<<<<<<<<<<<<<<<<<<<<<<<<<<",
"<<<<<<<<<<<<<<<<<<<<<<ooO@%*=*=-;;:>>>>;-%$#@#$>>-*-;;;::::;::::----=-;;:-**-*%%<<<<<<<<<<<<<<<<<<<<<<<<<<<<<<<<<<",
"<<<<<<<<<<<<<<<<<<<<<oooO@%*=*=--;:>>:>>;*%#@+@&---=---;;;;-=%*=*&====&%&*&&%%*%%$##$$%%$@@@<<<<<<<<<<<<<<<<<<<<<<",
"<<<<<<<<<<<<<<<<<<<o@oO#$*&&&%%-;;;:>>>:;=$##$@$%%*===------==*::;;=;&%=*******==***&&&&&%%%O<<<<<<<<<<<<<<<<<<<<<",
"<<<<<<<<<<<<<<<<<o@#$#*==;;;&:::;;:::>::-&%%$$%%$$%==*;-;;-:;:;;;;;;---;;;;;;;;;;;----==----;;;=&$$<<<<<<<<<<<<<<<",
"<<<<<<<<<<<<<<<<Xo@$%&=*===;;:>::::>:>;:&$$$%&**=%*===;;;;;;;;;:;;;;;;;;;;;;;;;;;;;;;;==----;;;=&$$<<<<<<<<<<<<<<<",
"<<<<<<<<<<<<XXooo@%&*==--::==:>:;--::-*&#&&%*==-======;;;;-;;;;;;;;;;;;;;::::::::::;;;==-;;;;;-;---*@@<<<<<<<<<<<<",
"<<<<<<<<<<oooo++$&&=-;;:::>>=;>====;;-=*&*===----;--=-;;;;;;;;;==*==:=-;;::>:::::::;;=&&*&&&%-::;--=**@@<<<<<<<<<<",
"<<<<<<<<<OOO+@$$%&=-;;;::::;--;;;;;-=--===------;;---;;;-=*==*===--;;;::::::::::>>;;-;;-****&&*=======%%o<<<<<<<<<",
"<<<<<<<<XOOO+@$$&*-;;:;::;--;;;;;;-=--===-;;-;*--;==**=-**=======;---::::;::::::>>:;;-;;-***&&*=======%%o.<<<<<<<<",
"<<<<<<<O++++@$%&=-;;;;:::::;;:;;;-=&&=&&=-;===-===*&*=**&%%%&*&&=&-;;;==;;;-;;:::;::;:;;;;;;--==&&&&&&%%#O.<<<<<<<",
"<<<<<<X@$##$#%&=-;;;;;;::;;:;:=::;%***&==;-;;;;=&&&&=*-=*%%$$%&=====-;;==-;=&;;::>>>>>;::>:;-;;-===*&&$$$%#.<<<<<<",
"<<<<<XX@#$$$%%*=-;;:::::;::::-:::--%%%**&==;=;;&=&***-=***%$$%&=====-;;=-;;=&=::>>>>>:>:>;;;;;;-===*&%$$$%#.<<<<<<",
"<<<<<OO+$$%%%&*-;----::;;::;::;:-&&&&&-;-=-;;;=;===-=*=*==$%%%&&&&*===;==--====;::>>>>:::;>;;;;-=---=%$$$#O..<<<<<",
"<<<..++#$%&&&**-;;-;:;;:;;:;;;;;=%$&&=-;;;;;;-=;;;-&&*%$%=%%%%%%&&*==--=---==---;;::>>:;;;-;---==--=*%$$$$#%%o<<<<",
"<<.oo@#$%&*&===;;;;;:>::;;;::-*&*&==-;;-;;;;-=-=-&*=-##$$$&%%%$%****=-*&=-;;=--==;;::::::;;;-;--===-=%$$$$%%#.<<<<",
"<<.oo@$%*=====-;;;-;-::::;;;;-%$&$*=;;;-=---=;--*&=%$#$$$$$$$&&=&***=:&*=-;;===;;;::::::;;;;-;--===-=&%$$$%$#.<<<<",
"<.o@@$%*==;==-;;;;;:;:::-;;:;;$$-&*-;-*&--==;--;-&&=-$$$$@o@$#$$&%&==;=**=-;;=;;;;:>:::>>:;;;--=====&&%$$$$$$.<<<<",
"<o#$%**=-;;--;:::::;;:::>:;-%&=--====-*==-=$$%--**$&=&$$%&$o..o@@$%&==%&%&=-;;;;;;;:>>>,>>;::;----*&=%$$$$$$@o<<<<",
".o#%&*=-;;;;::::>::;:::::;=&%$&=-=--&&&%*--&&&--=&%*&$$#%#@o@oo@@$*===*$$%&=;;::;;;::>>>>:;>;;;-=*&&**$$$$$#@O<<<<",
"+@$%&*-;;;;;>::>:>::::>:-&$$%%*==--*&*=-;;---;*%$$$&#+#%&&$OoOX#**=*-=&%*%%%-;=;:::::>,>::>>;>:;----**-%$%$$#X<<<<",
"O#$%&*-;;;::::::>>>>::::-%$#&*-;;:-**=-;--&&;;*%$%**$$#**&$OXXX#%***%%%%*%&*-**-:::::>>>,,::;:::-**&*&*%#%%@@X<<<<",
"o+#$%&=;;;::::::>>>>:::;=$%%*-=-;**&*%$&*-%$=-;-*=-*$+#$#$+XXXO$%*$*&$#$%&*=-=----;::>,>:>>;-:-*==%%%&%$@%%##+X<<<",
"oO+#$%=-;::::;:;:>:-::::-%%%*----*#$&&%&--=-----&&$##X@#@OOX+XX##$*;-%+@%&%%===*;-;:::>>>>>:=*&%%==*%&$#O++#$@o<<<",
"X+@#$&=--;;;;;;-:>::;::;-*%***---%#$$&%%%%=--*&=&%$%*OXXXXOO+$+#+@$-=%+$%$$#&&#%--;>:::>>>>>:;-&$&==*&#++XXX##X<<<",
"<o@$%*---;::-;;:::::;::=-%$&$#%*-&%$%%&&$%=*&%%$##$$%+X+@oO@#%$#O##$-=%$$#$#$*$@%==-::::>>:::::;-==--%#XOXXX$$O<<<",
"<o+#$*=-;:::;--:::;;;::-=%$%%#%&&#%#*%=&+%%%&%%OX#*$$+ #+@XO#%#OXO$#%-=&#@$@#%$+@&-*&%-::::;;::-=-;;=$+#$+XO$$@X<<",
"<XO#$%*--::::::::::*=;:-*$$$$#%$##$&%**$#$*$%*%+O#%#O.+$O+XX@#+#OO$%**-%#+###%%$@%*-=$$-;:::::;--::;*$$$%$#%%$@X<<",
"<<O+#$&=--::::::::;*=;-=*#%%%%*$@#$$$%*$$#$####OOO@$$XXXXOXX#O+OO#*=*%*%+OX@$%*$#$%=-%$*::;-;:;-;::-%#$$#%%**$@X<<",
"<<oO@#&*=-::>::::::=-;-$%$=&#%$#%$%*&%&&%#$OO+#$O#%$&#OXXXXOO%#O#%*%&%$+&&OO@#$$#*=*==&%::;-;:;-;;:-&%$#$*=*%#O<<<",
"<<Xo+#$%*-::::::::::**=$@$%$$$$#&$%%&&*%&%$+@$$$O#$%%#XXX X@#$#@O$%%$#$$**%O##$*%*$#*=*=::;:::;---:;-*%$#%**&#o<<<",
"<<<oO@#$&=;;::;--;::-=&$+@#*%=&#$*&%**&%%*%$&%+XXO&*#+XXXXXX+@##$$%%O##*&####+X#%*=%$*=;:::::;-----:;-=%$***&$X<<<",
"<<<XO+#$%*--;;;-:::::-%#@#%%$*-$%%**%%OO#$@%%$$#O+##XO$%$$+XOXOO#@$$%#$&$$O#@O+##$*=&%--:>:::------;;-***=*%%#X<<<",
"<<<<o+#$%*=------:::::&#OO%&%=-*$%*%%#X+$@X@#$#$+#$++%*---%OXXX@#@%*=%O+$@XO##O#%##%=%%:>:::;;-=---:;-=*=--*&$X<<<",
"<<<<oO@#$%***--=-:::::%+XO%&%*=%%*&%$+#$%OO+@##$$$%##=;;-=%=#XX+##$$%%#+@@XOXOX+$%$#&#$*::;;;;-===--;-*&=--*%OX<<<",
"<<<<<O+#$%**=-=*-:::::&#XO$%**%+%%&*%#%$++##O+$&%%*##*--==$&#XXO@#%$%##$&#XOOOO@$%#O$$%=-;--;:-==*%&&=*&---*$OX<<<",
"<<<<<oO@#$%&*=--=---;;&##XO%==$+%*%%+#&#%@+$#@#$&*$+O$***-=&+XO++@*&#X#OOOO+XXX+$%#O&#%=;--:::-&**%*&&*&*==*$@oX<<",
"<<<<<<o+#$$$%*-----;;-=+OOX#*-%#$*%%OO#O+O#@@+O##%$$O$%%%**=$@$+#*#+#$O#OOXXXXX+%@+##O$%--::::-%&*%%$%=**--=%#OXXo",
"<<<<<<XO@$&%%%=---=----#OOO$==&%$%%%#@#XO+%$OX#O@%=$$O#%%$%*$$%%@#%%+XXXX#++OXXO#@O#++$%=-:::;=%$%&&$%**&***%##oX<",
"<<<<<<<o+#%%$$&=-==**=%%+O#%=**$#&*%$O#XXX#$+X#$%#%%+X%%$$*%#$$X@%&$#@X.O+##$XXO#$XO#+$$%-::*%%%$$*%$%&*%&%&%$@Oo<",
"<<<<<<<XO@$%%$%=--=%%&$$+X+#*=-%++%%#@XXXX@#&%*=%$$=%$#XX#%#$$++@#$$+OXX@O#%XX+%#%X$%+@$%-;-%##$+#%$$$%-%$$%%$##+<",
"<<<<<<<<O+#$*=*-;-&%%*$$%#+#%&--$O#@+##@@X@$*%***$+$--&%%@$+%$@OO$$$$OXXO$@++OO=%#O$$OOO#--*$#@#X+#$#%%*%$$%%%%$+X",
"<<<<<<<Xo+##&**=;;-&&=$$%#O#%=--$+#$#$$@+X#%=-*%%$$$%%--%#O+##@OX#$+OO$%#X#%$X%%%%$$@O++O%=%$#O@O+$##&#$$$$$%$##OX",
"<<<<<<<<XO@#$%*==--;-**@$#$+@%-&+OO$@#$X#OO$**%%%$#OO$%*%$$+O@+XX#OXXXX+#O@&#X%%$O$%@#XOO&-*$+X#++##$######%%$$#@X",
"<<<<<<<<<OO@$&&%=-;-;=*$#@$$++%&+O##$O##+OO%*%%&**$#OXX$$$$$#XX@XXXXXXX#XO#%$%$%$X@O+@XX+&**%+XO$%$#$OX%#@#%%%$#+<",
"<<<<<<<<<o++$*&$*-----=*$@@@$%&&+OOOXO#&#++O#%%%-;--%@XO%;*$#$$$#XXXXO#OO+&%%$@#X#@+++#X#&*%$$+O#%*%#XX%$@%%&%$#OX",
"<<<<<<<<<XO#$*%***-**--=*$@##&=**#OOOOO#%#@O@$%=----%#$O*:;#O+OOO%OXoX@#@##@$OXOXOX+XX+X#=*%$#XX++$$O@O##%&**%#@o<",
"<<<<<<<<<XXO$&$&**=&&=--=&$O#%%**-=#OOO@##O@@@%-------&+$;;$X+XO#+#OXX+O$$X#OXXOXXXX+XXXO$*%#+OX+XXOX@%@O#%**$##o<",
"<<<<<<<<<<XO#%$$&==-;--*&$$%#%$**--%OO#%#OO#X$-=*==*----;-%$+XXXX XXOOOX#X@XXXO#X#X@XXXX@$%%$$#XXXXoXX#X@O@*&%#@o<",
"<<<<<<<<<<Xo+##%**=---**&%&=**%&&*-%++$*$O**=;-*&%%*------;%@OXXXXOXXXXO@##XXOX@X##X  oX#$%$$%$X XXXXXXXO@X#%%#+X<",
"<<<<<<<<<<XX@##$**=---*%%---*%$%&==&%$*-$$%*=--=*$%$*=-----%$$%XXX##X+O@XOXOXO$#@XX XXOO#$$###$XXXXX  oOX@X#$$@o<<",
"<<<<<<<<<<XO+$$%&&*==--%&*-*$@@$$%=*$***&*%&=--=*%##$***=**&&%%%XX#XXOOXXO  X@#OX   XX@@$#####$#O+XX X+X#XO$$#oX<<",
"<<<<<<<<<<<X++#%&%&*-=**%&=%$#$%$%--$%=*==*%***=&%$+$=&$%***=&=*#OXX+#@+OXXOO+OX   .X+X@###@+##@XOXX XXX#XO%#+oX<<",
"<<<<<<<<<<<XO##%%%%&=%$$%&**$#$&%%--%$&****%&==&%&&*&**&&-=&**=&$#XXX$$@O#OX+XOX o XXOOXOXOXO@+OX#XX XXXOX%$#OX<<<",
"<<<<<<<<<<<XO@+##%##%**#%&==%%$$&=--*&$*-**%$**=%$%$%&=&%*%&=*%%%#XO#$&#XXXOOX$OXX XXXXXOOXXXO+XoXXX o+XXX$#Oo<<<<",
"<<<<<<<<<<<<X#@#+$##$%%%$%=-%%+$*-=*=**%==$#@$**%#@*=&-%&%$#*-&%%$O#%%%**##XXXXXX  XX$O+$#XXXOOOXOX  X+XOO$Oo<<<<<",
"<<<<<<<<<<<<o@#@O#$%%%%%##$**$+$==**&$*&%*$O#$$$%#&##%%%%#O$*%%*%%$$&**%&%#XXXXXX XXO**&%###XO#XXXX  X+XX+@o<<<<<<",
"<<<<<<<<<<<<<O##@+$*$#$$$$$%%*%===***$%$#&%++###++#X@$$$#X@%%#&&=-%%%**%$#OXXX oO+#++*&%$#%$+@OXO+XXXXXXX+OX<<<<<<",
"<<<<<<<<<<<<<X++#$#%%$$$$$@O%;;-**&--&#$&$$OXOOXoOXXXOOOO@@#@O$%=*&$*&$$@X+XXXXXOXXX$&&%$$*+XXXOOXXXO+XXX+O<<<<<<<",
"<<<<<<<<<<<<<<OXO#@#&&$#$%*%*---*=----%$**&OO@XoO+##$$@OO@+XX+%*&#$*%$#XXOXXXXXXOXXO%*=***%OXXOXX+@O+#OXOOX<<<<<<<",
"<<<<<<<<<<<<<<XXX###@%=%#%**=--**----*%$%%$#@XXoOO@##$%&*&%*%$#$$$%%@$#$$OXXXXXXXX@$%****%#OXXOXXXO$%%XXOo<<<<<<<<",
"<<<<<<<<<<<<<<<XX+O##$&%#%%&*=-***-**-*###+XXXXOOO@##%$%&******%XX@@###$##$XXO+XO#%$%&&&&#OXXXX#O+O#%#OoX<<<<<<<<<",
"<<<<<<<<<<<<<<<<XXXOO$$$##$$%***%*=&%&%#@OXXXXooXX+@#$$%&&*******#XXX@O$#@##O#$+O#$$&%%%$#++XOO+#O@$$@XX<<<<<<<<<<",
"<<<<<<<<<<<<<<<<<XXOXX@#@++#$&*&%*&$$$##++XXXoXXXXO@##$%%&&&***&&%#X+X+O#$+##$$##+#O#$$$%%%OOXO+XO@##XX<<<<<<<<<<<",
"<<<<<<<<<<<<<<<<<XOXXXXOOXO@#$&$$$$$#++OOOXXXXXXXXO+##$%%%%&&&&&%$##OXO@+#O+OOO##OOXOO#%%%++#$@OO+#+oX<<<<<<<<<<<<",
"<<<<<<<<<<<<<<<<<<X<<<<X<XoO@###@+@#++OOooXX<X<<XXO+@#$$$$%%%&%%%###$##@+++X+#$$#OXXXO@####$$$#OOOoooX<<<<<<<<<<<<",
"<<<<<<<<<<<<<<<<<<<<<<<<<XXXOXOoOO++OoooXXXX<<<<<XO+@+$$$$%%%%%%#@####$@OOOOO+##OOOOXO@OO+O+XXXooXX<<<<<<<<<<<<<<<",
"<<<<<<<<<<<<<<<<<<<<<<<<ooXXXoooooOOoXXXXX<<<<<<XXO+@+#$$$$%$$%$@+##@##$OoOoO+@#+OXXXOXXXXXXXooo<<<<<<<<<<<<<<<<<<",
"<<<<<<<<<<<<<<<<<<<<<<<<<XX<<<<XoXXoX<<<<<<<<<<<XoO+@+#$$#$%$@@O+++@O+O+OooXXXXOOXXXXXOXXXXXXX<<<<<<<<<<<<<<<<<<<<",
"<<<<<<<<<<<<<<<<<<<<<<<<<<<<<<<<<<<<<<<<<<<<<<<<XoO+++@$##$$#oOOOOO+XOOXoXXXXXXXXXXXXXXXoX<<<<<<<<<<<<<<<<<<<<<<<<",
"<<<<<<<<<<<<<<<<<<<<<<<<<<<<<<<<<<<<<<<<<<<<<<<<XooOOO+$##$$@ooOOOOOXOXoo<XX<<XX<<<<<<<<<<<<<<<<<<<<<<<<<<<<<<<<<<",
"<<<<<<<<<<<<<<<<<<<<<<<<<<<<<<<<<<<<<<<<<<<<<<<<XXooooO##@#@+ooooOOOoooXX<<<<<<<<<<<<<<<<<<<<<<<<<<<<<<<<<<<<<<<<<",
"<<<<<<<<<<<<<<<<<<<<<<<<<<<<<<<<<<<<<<<<<<<<<<<<<XooooO+##+oooXooooXooooX<<<<<<<<<<<<<<<<<<<<<<<<<<<<<<<<<<<<<<<<<",
"<<<<<<<<<<<<<<<<<<<<<<<<<<<<<<<<<<<<<<<<<<<<<<<<<Xoooo++ooooo<<XXXoooooX<<<<<<<<<<<<<<<<<<<<<<<<<<<<<<<<<<<<<<<<<<",
"<<<<<<<<<<<<<<<<<<<<<<<<<<<<<<<<<<<<<<<<<<<<<<<<<XoOoO+oooo<<<<<XXX<<<<X<<<<<<<<<<<<<<<<<<<<<<<<<<<<<<<<<<<<<<<<<<",
"<<<<<<<<<<<<<<<<<<<<<<<<<<<<<<<<<<<<<<<<<<<<<<<<<<o+O+oXX<<<<<<<<<<<<<<<<<<<<<<<<<<<<<<<<<<<<<<<<<<<<<<<<<<<<<<<<<",
"<<<<<<<<<<<<<<<<<<<<<<<<<<<<<<<<<<<<<<<<<<<<<<<<<<oOOoX<<<<<<<<<<<<<<<<<<<<<<<<<<<<<<<<<<<<<<<<<<<<<<<<<<<<<<<<<<<",
"<<<<<<<<<<<<<<<<<<<<<<<<<<<<<<<<<<<<<<<<<<<<<<<<<<XXXX<<<<<<<<<<<<<<<<<<<<<<<<<<<<<<<<<<<<<<<<<<<<<<<<<<<<<<<<<<<<"
};
