/* XPM */
static char *f239d1c8551345f0ee6c4d153319e7ed[] = {
/* columns rows colors chars-per-pixel */
"107 28 5 1 ",
"  c None",
". c #341C00",
"X c #452800",
"o c #593000",
"O c #6D3800",
/* pixels */
"                             oX.X.                                                                         ",
"                         ....Xo..ooo.                                                                      ",
"                     ........                                 ......  ....    ...                          ",
"                    .ooooooX.                  .....XXXXXXXXXooooXXXXXXXXXXXXXXXXXXXXX......XXXX.          ",
"                 .XXooXooX     ..    Xo.............XXXX...oOooooXXXXXXXoooooooooooXXX...XXXXXX.X...       ",
"                .XooooOo.    ..XX.............X.....XXXXXXXX.X.. ....XXXooOooooooooo..       ..ooX...      ",
"               .Xooooo.    .XXXX.X....XXXX. ...XXXX.XXXX.. . ......XoooooooooooOOXX.XXXX.       .......    ",
"              ..XXXX..    .XXXX................   ...           .XXX..XXXX.ooooooXXXXXooXXXX.....          ",
"             ..XXoo.   ..Xooo...X...X..XXXX.   ......         .....XX...XX. .oOOOOOOooOOoXXX.XXX....       ",
"           ...XX.X.  ..XXoooo.....XXXX.....X......... ....       ...X.........XooOOOOOooXXXXXXXX......     ",
"     .   .......X    .X. .XXX.......XXX...XXXX.                  ..............XXooOOOoX.............      ",
"  ......XXXooOoX.   ..OXXX.......XX.XX.  .. ..    ..             .XX..   Xo.......XooooooXXX.XX.......     ",
" .... ..XXXXXoo.      .... ....XXX...    .oX..    ..              .X..   .oX.XX..oXoooooOoXX.........      ",
".....XXooXoOOOo  . ...    ........ ...    .       .               ..     ..XXXXX...XoooOooXXoooX...  .    .",
".  ...X XXooOoX    .. .    .....     .                           ...      .XXooXX..oOOOOooXX......         ",
"..XXXX...X.oooX.   .         ..                                   .        .. .XXXXoXooooOooXoooX....  .   ",
"...... . .XXXXX                                                                 ...X.XoXoOooXXXXXX....     ",
" ...     .XXX..                                                               XX ..XXXooXoooXXXXX.   ..    ",
"         ... XX..               .                                              .XXXXooXX.XooXXXXX.    .    ",
"           .. ..                                                                XXXXXXXXXXoXXXXX..    .    ",
"              XX                                                               . .XXXXXXXX..XXXX...        ",
"            ...                                                                 ..XXXXXX.XX..XX..          ",
"               ...                                                                X.XX..XX......           ",
"            ...  .                                                         .   ..X.X.X...  ..    .         ",
"              .                                                                .X..... . ..                ",
"             .                                                                ....X.X.          .          ",
"                   .                                                     ..                                ",
"                                                                       .                                   "
};
