/* XPM */
static char *_2906_329769a40704cfb3d113c5a3f9da70dcf40bb6d348b0815e9ed746a093a085f8[] = {
/* columns rows colors chars-per-pixel */
"117 89 16 1 ",
"  c #A65100",
". c #B65504",
"X c #CB5D04",
"o c #E77938",
"O c #EB8641",
"+ c #EF9249",
"@ c #F3A251",
"# c #F3AE5D",
"$ c #F3BA65",
"% c #F7C775",
"& c #F7D37D",
"* c #FBDB8E",
"= c #FBE396",
"- c #FBEBA6",
"; c #FFF3AE",
": c None",
/* pixels */
"::::::::::::::::::::::::::::::::::::::::::::::: ::::::::::::::::::   ::::::::::::::::::::::::::::::::::::::::::::::::",
":::::::::::::::::::::::::::::::::::::::::::    X  ::::::::::::    XXX  ::::::::::::::::::::::::::::::::::::::::::::::",
"::::::::::::::::::::::::::::::::::::::::   XXXoOOX :::::::::  Xoo++OooX :::::::::::::::::::::::::::::::::::::::::::::",
"::::::::::::::::::::::::::::::::::::::: Xo+@##$##+X ::::    XXo++@+++OoX ::::::::::::::::::::::::::::::::::::::::::::",
":::::::::::::::::::::::::::::::::::::  Xo+$%%&%%%#O ::  XXXooO@####@@++o   :::::::::::::::::::::::::  :::::::::::::::",
":::::::::::::::::::::::::::::::::::  XXo+%%****&&%#X  XXXoooO+@######@@oXXX ::::::::::::::::::::::: #% ::::::::::::::",
":::::::::::::::::::::::::::::::::: X XX@%&******&&&+XXoooO+++@#####@###+ooXX :::::::::::::::::::::: +$ ::::::::::::::",
"::::::::::::::::::::::::::::::: : XXXXO%********&&&#oooOO+++@#%&=-=*$##+oooXX ::::::::::::::::::::: o :::::::::::::::",
":::::::::::::::::::::::::::::: X XXXXo+&**=***=***&#ooO+++++#%**=**===%@O+oooX  :::::::::::::::::::: ::::::::::::::::",
"::::::::::::::::::::::::::::::: XXXXo+$&*==-===*&&%+OO++@@$==****&&**==*#@+oooXX   ::::::::::::::::::::::::::::::::::",
"::::::::::::::::::::::::::::   XXoXoO$&*=----===&%$+++@&=**=***=*&&&&====*@+oooXXXX     :::::::::::::::::::::::::::::",
"::::::::::::::::::::::::::: XXXXXooo@%*=-----==**&##@@&==**&**=**&%%&*****%@+++ooXXXXXXX   ::::::::::::::::::::::::::",
"::::::::::::::::::::::::::: XXXXXooo#&=------==**&%$$&=**==**==-==&&*==***=*##@OoooooO+oXXX  :::   ::::::::::::::::::",
"::::::::::::::::::::::::::  XXXXoooo#&=------===**&*--=*&*==---====*===*****=&#@++@@###+OXXXX   XXX :::::::::::::::::",
"::::::::::::::::::::::::: X XXXooooO$*=-------==***-=-==**==----===*======*===*$$$$$&%$#@+oXXXXXXXXX ::::::::::::::::",
"::::::::::::::::::::::::: XXXXXoooo@%*=-------===*=-=======-----=*=***=========&*&*=--*%#@oooXXXXooX ::::::::::::::::",
":::::::::::::::::::::::: XXXXXooooO#%=-----------*----======-=======&*&*=======------==&%@+OooXXoooX ::::::::::::::::",
"::::::::::::::::::::::: : XXXooooO@$%*-----------------===--===**********======--------=&$#+OooooooXX :::::::::::::::",
":::::::::::::::::::::: X XXXooooo+$%&*-===------------=**=-=====**====*****=--=----------*##+OoooooXX :::::::::::::::",
":::::::::::::::::::::: XXXXXXoooo#$%&=-==*---------===*&%*======**-==*===**==-------------&#@+OoO+OoXX ::::::::::::::",
":::::::::::::::::::::  XXXXXoXooO#%*=--=**---------=-&%%%%%*=--=---=*=--======-------------&$+OoO+OoXXX  ::::::::::::",
":::::::::::::::::::: X XXXXXoooo+$&----=*&--------=-*&%$$$$%*=====---==----====-------------&#++++OooXXXX :::::::::::",
":::::::::::::::::::: XXXXXXooooO@%=----===---------=&&&%$##$&%*===------=-====*=-------------&#@++OooXXXX :::::::::::",
":::::::::::::::::::: X XXoooooo+#&-----------------=&&*&%###$%=----===----=======------------=%#@@ooooXXXX ::::::::::",
":::::::::::::::::::: XXXXXXoooO+$*==------==-=-----=*&&*%###$&=----===-----=*====-**=------=--*$@+OoooooXXX :::::::::",
":::::::::::::::::::  XXXXoooOoO@$=-==-----==------===**&%##$%*=----====----======--===---------%#+OOoooooXXX ::::::::",
":::::::::::::::::: XXXXXooooOO+#*--=----------------===*%#%*------===-----=======--==-=--------=$@+OOoooXXX X  ::::::",
":::::::::::::::::: XXXXXXoooOO+%=---==---------------===*%%---=-=--*=-----======-=-===---------=%$#+OOooooXXXXX :::::",
"::::::::::::::::: X XXXXooooO+#*--------------------===-=&&=-=-----===---=========-=------------&&%#OOooooXXXX ::::::",
":::::::::::::::: : XXXXoooo#@@$*-------------------===-=***-=-------==---=--==--==--------------=&&$@+OOooooXX  :::::",
"::::::::::::::: X  XXXXoooO$%%%=-------------=-=--==---=*&&----==----=-----===--==---------------**&#@+OooooXXXX ::::",
"::::::::::::::::  XXXooO+oO#&&*=-----------====-===---=*&%&=---------=-----=*=--=-----------------=*%#@OOOooooXX ::::",
":::::::::::::::: XXXXXXo@@+$&*----------===*=**====--*&%&&&=---------=---========------------------=&%#+OooooXXXX :::",
":::::::::::::::: XXXXXoo@#@%*----=------==****=-=****&&%&&&*-------;-=--========--------------------=%#@+OoooooXXX ::",
":::::::::::::::: XXXXoo+@%%%*---===----===***-=-=*&&&&%%%&&&=-----------==--===---------------------=&$@+OoooooXXXX :",
":::::::::::::::: XXXXXo#$%&*----*=-----==***=-=-=&%&%&%&&&*&&****==----==---------------------------=&$@+OOooooXXX  :",
"::::::::::::::: XXXXXXO$&&&=---===--=========---*%%%%%%%&&**********---==---=------------------------*%@+OOooooXXXXX ",
":::::::::::::::: XXXooO%&**=--=*=--=-=*-----**=-&%###$%%&**=**********--=-=-=------------------------=%$@++OooooXXX :",
"::::::::::::::: XXXoooO%**=---**=--=-*=----=&%&=%####$%&&=---=*=****==*=====--------------------------*&#++oooooXXXX ",
":::::::::::::: XXXXoOO+%==----==-==*=*==--==%$#%#@@#$%&===-----=====--=&%%==-=------------------------=&#@+OooooXXX :",
":::::::::::::: XXXo@@+@*=-----=--==*==**-=&&$%###@@#%&=-=-------==**=--=%&-=---------------------------*$#+OoOoXXXXX ",
":::::::::::::: XXo+#%$$*---------*&*--&&&$##$=##$#@#%*------------=*=*===*-===-------------------------*%#+OooooXXXX ",
"::::::::::::: XXXo#$%&&*=------==&&==%#$$@#+$*=**&$#&*=-------------===*==-====------------------------*%#+OOooXXXX :",
"::::::::::::: XXXo@%&&&==------==**&%##@#+#@*=-=**&#%*-----------=-=--==-*-==-=------------------------&%#+oooooXXXX ",
":::::::::::: X XXo#&&&*=-------=*==*%@++@+#%*&**&%*$%*-----------==---===*&--=====---------;;---------=&%$+oOoooXXXX ",
":::::::::::: XXXo+%&&&*==-----===**&$@++O#%*&%&****%&=---------------===-%&-=*==----------------------=&&%+OooooXXX :",
"::::::::::::: XXo+%&***==-----==***%#++O+#==&%&**=*&*----;-----------====%%%*=====--------------------=&&%+oooooXXX :",
":::::::::::: XXXo+%&***==-----==*=*%@++++%=*%&&*%*=**-;--;------------=-=%%%==-===-------------------=**&$+ooooXXXX :",
":::::::::::: XXXo+%&**===---=-*=*=&%#@+@#%=&&%*=%%*&=-------------;;;-=-*&%$%=-====-------------------***%@oooooXXX :",
"::::::::::: XXoXo+%***==-----==&&**&*##$&==*&%*%%%*==-----------------=-==&$%%*==-=------------------=***&$OoooXXXX :",
"::::::::::  Xoooo@%*=====-----=*&***&=%&=-*&&&*%%*-==-----------------=*=-=&%**--=------------------==**&&#ooooXXXXX ",
"::::::::: XXXX++O@%*=====------=&**=&*&===&&*&&&=&*==-----------------&*=--*%===--------------------==*&&%@oooXXXXX :",
":::::::: XXXXoo@##%====---------**&==%&===&&&*&&*==*=----;-----------***--==*%=-=-------------------=*&&%%@oooXXXX ::",
": ::::::  Xo@@++%%&==-----------==*=-**===**&&=**==*=----;;----------*==*=---&==----=--------------===&&$+ooooXXXX ::",
" X :::: XXX+$%%%%&*==----------==-==--==-=*&&&***=*&*------------------=*==--=----------------------=**&#oooooXXXX ::",
": : ::: XXX@%&&*=*==-----------------==-=&=****&&=*==*=--------------====*=-------------------------=**&#ooooXXXX :::",
":: X : XXXX+%&*=====-------------------=&$=***&&&**%%%&-------;-------=&====--------=--------------==*&&$oOoooXXX :::",
"::: :: XXXoo$&*====-------=-------=----==%*=**&&*###%&*-=---------==-=**=====-------=-=------------==&%%#oooXoXX ::::",
"::::: XXXXoo@&*==----------------==----===-=****&@@$#&====----------===*======------=--------------=*&&#OoooXXXX ::::",
"::::: XoXooo+%*==------==---------==---------**=*@@@#*--===-------==-=*&====*=-==-------------=-=--=*%$OoooXXXXX ::::",
"::::: XXoooOO#&=-=----------=----=-=----=----**=%@@@#%--=*=-=---------===&*&*=---------------==----=**#ooooXXXX :::::",
"::::: XXoOoO+#*----------=-------===--------=-==*#+##%=-==*=-====------=*=**=---------------=--=---=**%OoooXXXXX ::::",
":::: XXXoo+o+#*=----=---------==----=-=---=---===%#@$%=-=%&=====-------==**=-------------==--=----==**%@ooXXXX  :::::",
"::::: XXooo++$*=--------------------------=--=%===%##**=-==*%&==-=---==*=-===----------=-=--------=**&#+ooXXXX ::::::",
":::: XXXooO+#%*=-------------=----------------*==-=&##%*==-%$&======----=-=-=-------==*=-==-------=*&%@oooXXXXX :::::",
":::: XXoooO+@%=--------=-----------------------===-=%##-====%%*****=-------===------==-=-=--------=**%+ooXXXXX ::::::",
"::: XXXoooO+#%===------------=-=--=-=---------====-&-%@#==*===*%&*=-----==-=---------=--==-------==*&#ooXXXXX :::::::",
":::: XXoooO+@%=----------=-----==-=-----=------===-*-*#+#%==**===*=-=*--==----------------------===&#ooooXX  ::::::::",
":::: XXXoooO@$=----------==---------====-----=---=====$##%&=*===-----=====-------------------=====*%+oooXXXX ::::::::",
"::::: XXoooO+#*=------=--------=-==-=***=-=====--====&$%&=*=--=*=-=-====-------------------=======&#ooXXXXX :::::::::",
"::::: XXXooo+@&==-------====-----==*==*&========--==%$***-----**&*=-====--------------------=*&&&%@ooXXXXX ::::::::::",
"::::: XXXoooO+$*===------===-----==*=-=====-=====--=====*--===*%%*------=-=------=--=-==--==*&$##@ooXXXXX :::::::::::",
":::::: XXXoooO+%===---==--=---====-=&=--==*-=======--====---=-=&&*------=====---===**=*--==*%#OoooXXXXX  ::::::::::::",
"::::::: XXoXoO++%=======-===-=====-=&==---===*====------------=-=====---**==*======&%&---=&#@OoXXXXXXXX :::::::::::::",
"::::::::  XXoooO@%======-====-======%*==---=====***=-----=--=-=-======--*&=**=---===*=-==&$+oOoXXXXXX X :::::::::::::",
"::::::::: XXXoooO+&==========-======***===--==***&**===---=-====------=*&*=*=-=----===*&%$OoooXXXXX  : ::::::::::::::",
":::::::::: XXXXXoo+%$#%*&*===-=-=====-=======***=*****=------*-==----===%=---===-===*%#+OoXoXXXXX  ::::::::::::::::::",
":::::::::::  XXXXooooo+@@$%*==-=======-=========*****=============****&%%&==-=======%#OooooXXXX X :::::::::::::::::::",
":::::::::::::  XXXXoooooo+$%*=-===*-========--==****===-=====***====&&&&%&*-=====--=%+ooXXXXX X  ::::::::::::::::::::",
":::::::::::::::  XXXXXXX+o+#%*=========-=======-=----==-=**=&&*&==&=*%&&&*&*&*====-&#OoXXXX  : ::::::::::::::::::::::",
":::::::::::::::::  XXXXXoXoO@$%&*======*==*==----=-=====***&&%%%%****&%&*&**&*=-=&%#OoXoXXX :::::::::::::::::::::::::",
":::::::::::::::::::    XXXXXo+@#$%%*===&&*====----======****&&%$%%==%**=**=&&==-=%#OooXXX  ::::::::::::::::::::::::::",
":::::::::::::::::::::::  oXXXooO+@###$%%%%&&==-========***&&*%&%%%%&&&=**&**===*%#+ooXXX ::::::::::::::::::::::::::::",
":::::::::::::::::::::::: o  XXoooooooO+#$%%&&========--==***&&&&%****&**&====**%#OooX   :::::::::::::::::::::::::::::",
"::::::::::::::::::::::::::::  XXXXXXXXXo+#$%&&**=*===**&%%%%%%%%%%&&&%%%%**=*&&#OooX  :::::::::::::::::::::::::::::::",
":::::::::::::::::::::::::::::: XXX XXXXoO+++@$$$%%$%%%$$$%%%%%%%%%%%%%&&%%%%@+++OoXX:::::::::::::::::::::::::::::::::",
"::::::::::::::::::::::::::::::::::::::..XXXXo++OOo@#@@++###$$$$%$###@++Oo+@+ooXX.::::::::::::::::::::::::::::::::::::",
"::::::::::::::::::::::::::::::::::::::::: .XXXXXXXXXXOO++##@O+++++@+@@OooXXXX::::::::::::::::::::::::::::::::::::::::",
":::::::::::::::::::::::::::::::::::::::::::::::::::::.XXXXXXXXXXXXXXX.:::::::::::::::::::::::::::::::::::::::::::::::"
};
