/* XPM */
static char *_5183_95b50b61c5ab964dd2cf6d673bf5f5f24068745486186cd14ecab8a50692162a[] = {
/* columns rows colors chars-per-pixel */
"117 97 15 1 ",
"  c #A65100",
". c #B65504",
"X c #CB5D04",
"o c #E77938",
"O c #EB8641",
"+ c #EF9249",
"@ c #F3A251",
"# c #F3AE5D",
"$ c #F3BA65",
"% c #F7C775",
"& c #F7D37D",
"* c #FBDB8E",
"= c #FBE396",
"- c #FBEBA6",
"; c None",
/* pixels */
";;;;;;;;;;;;;;;;;;;;;;;;;;;;;;;;;;;;;;;; .X.. ;;;;;;;;;;;;;;;;;;;;;;;;;;;;;;;;;;;;;;;;;;;;;;;;;;;;;;;;;;;;;;;;;;;;;;;",
";;;;;;;;;;;;;;;;;;;;;;;;;;;;;;;;;;;;;;;.XoooXX. ;;;;;;;;;;;;;;;;;;;;;;;;;;;;;;;;;;;;;;;;;;;;;;;;;;;;;;;;;;;;;;;;;;;;;",
";;;;;;;;;;;;;;;;;;;;;;;;;;;;;;;;;;;;;;.Xo+++OoXX ;;;;;;;;;;;;;;;;;;;;;;;;;;;;;;;;;;;;;;;;;;;;;;;;;;;;;;;;;;;;;;;;;;;;",
";;;;;;;;;;;;;;;;;;;;;;;;;;;;;;;;;;;;;.Xo+@###+OoX ;;;;;;;;;;;;;;; ;;;;;;;;;;;;;;;;;;;;;;;;;;;;;;;;;;;;;;;;;;;;;;;;;;;",
";;;;;;;;;;;;;;;;;;;;;;;;;;;;;;;;;;; .Xo+@###$$#+o.;;;;;;;;;;;;;    ;;;;;;;;;;;;;;;;;;;;;;;;;;;;;;;;;;;;;;;;;;;;;;;;;;",
";;;;;;;;;;;;;;;;;;;;;;;;;;;;;;;;; .XXO++###$%%$#+o ;;;X.;;;;;  ....  ;;;;;;;;;;;;;;;;;;;;;;;;;;;;;;;;;;;;;;;;;;;;;;;;",
";;;;;;;;;;;;;;;;;;;;;;;;;;;;;;;; XXo++####$$$%%##+X;;;+X ; ;  ......  ;;;;;;;;;;;;;;;;;;;;;;;;;;;;;;;;;;;;;;;;;;;;;;;",
";;;;;;;;;;;;;;;;;;;;;;;;;;;;;;; XXo+@#$$$%$$%%$##@o.   .......XXXXXX.. ;;;;;;;;;;;;;;;;;;;;;;;;;;;;;;;;;;;;;;;;;;;;;;",
";;;;;;;;;;;;;;;;;;;;;;;;;;;;;;;XXo+##%%%%%%&**%#@@+XXXXXX...XXXXoOXXX.. ;;;;;;;;;;;;;;;;;;;;;;;;;;;;;;;;;;;;;;;;;;;;;",
";;;;;;;;;;;;;;;;;;;;;;;;;;;;;; Xo+@#%%&*=====**$@@@OoOOooXXX+@@#$%%#OXX. ;;;;;;;;;;;;;;;;;;;;;;;;;;;;;;;;;;;;;;;;;;;;",
";;;;;;;;;;;;;;;;;;;;;;;;;;;;;;.oO+$%%&=====*===%#@@++++++o+%&&*&**&%&&%OX ;;;;;;;;;;;;;;;;;;;;;;;;;;;;;;;;;;;;;;;;;;;",
";;;;;;;;;;;;;;;;;;;;;;;;;;;;; Xo+@$%%*========*%##+@#####&****&*****&%$%%%O.  ;;;;;;;;;;;;;;;;;;;;;;;;;;;;;;;;;;;;;;;",
";;;;;;;;;;;;;;;;;;;;;;;;;;;;;.Xo+#%&&=========&%#@@####%%%**&**&&&&&&&%&&%%#o.. ;;;;;;;;;;;;;;;;;;;;;;;;;;;;;;;;;;;;;",
";;;;;;;;;;;;;;;;;;;;;;;;;;;; .o+@%*==========*%%#@##$%%&******&%%%&&&*&&&$$%%+X.. ;;;;;;;;;;;;;;;;;;;;;;;;;;;;;;;;;;;",
";;;;;;;;;;;;;;;;;;;;;;;;;;;; .o+#***========*&%$###%%&&%&&&&***&%%%%&&&&%&%%%#oX.. ;;;; ;;;;;;;;;;;;;;;;;;;;;;;;;;;;;",
";;;;;;;;;;;;;;;;;;;;;;;;;;; ..o+#&==========&&%$##%%&&****&&&&&&****&&&&&%%%%%$+oXX....... ;;;;;;;;;;;;;;;;;;;;;;;;;;",
";;;;;;;;;;;;;;;;;;;;;;;;;; .XXX+#%&*=====-==*%%$$$%**====*&&&&&&&%%%%$%%$%&&%%%%#ooXXXXXX.. ;;;;;;;;;;;;;;;;;;;;;;;;;",
";;;;;;;;;;;;;;;;;;;;;;;;;; XXXo+#%*=========*&%#%&&*===-===**%%%%%&&$%$%&&*&%&%&%@OooXoooXX..;;;;;;;;;;;;;;;;;;;;;;;;",
";;;;;;;;;;;;;;;;;;;;;;;;; .XX+o+#%*=========*%$%*&*--======***&&%&*&&*&%%&**&&&%%$##+OOOOoXX. ;;;;;;;;;;;;;;;;;;;;;;;",
";;;;;;;;;;;;;;;;;;;;;;;;  XXX+++##&*========**&&&*========*%&*===*&*==**&*=*&%*&*&%$##@++OooX.;;;;;;;;;;;;;;;;;;;;;;;",
";;;;;;;;;;;;;;;;;;;;;;;;;.XXooO+@#&=*=======***=*=-===--=*%%**====*===&*****&&&&&&&%&&&#@+OoXo.;;;;;;;;;;;;;;;;;;;;;;",
";;;;;;;;;;;;;;;;;;;;;;;;;.XXoo++@#%**=*===****=======-=-==*%%========&&&&****&&&*&&&**&%#@+OooX  ;;;;;;;;;;;;;;;;;;;;",
";;;;;;;;;;;;;;;;;;;;;;;; .XXoO++@#&****==*&***======------&%%*==**====&%&*&*&&&&***&*==*$%%#OoX..;;;;;;;;;;;;;;;;;;;;",
";;;;;;;;;;;;;;;;;;;;;;;; .XXoO+@#%&**&&==*&&&==*====--=**&%&*====*=====&&*&=*&&&*&&****=**=&@OoXX ;;;;;;;;;;;;;;;;;;;",
";;;;;;;;;;;;;;;;;;;;;;;; .XXoO+@$*&**&&*==*&&==*=====-==*&&*=-====*==*====*=%&&&&%%%****==**%$+oo.;;;;;;;;;;;;;;;;;;;",
";;;;;;;;;;;;;;;;;;;;;;;;.XXooO+#%**&&%%&**=&*==*=====---=========*==*=======&&&&&*&%&****==*=*&#OX ;;;;;;;;;;;;;;;;;;",
";;;;;;;;;;;;;;;;;;;;;;; .XooO+@#**&**%&&&&*&&=&*=====----==-=========*=***===*%%&*&&&*&&**=***&%#X.  ;;;;;;;;;;;;;;;;",
";;;;;;;;;;;;;;;;;;;;;;; .XXOO+#%&&&%$%&****&*=*==-=------========*===******=*=&&&*&&%***=*=*=**&&O.. ;;;;;;;;;;;;;;;;",
";;;;;;;;;;;;;;;;;;;;;; .XXoo++#%***&&&***&*&***==-=----==============**=======**&**&%*&***===&%&&+XXX;;;;;;;;;;;;;;;;",
";;;;;;;;;;;;;;;;;;;;;; XXXoO+@$&**&&&&&**=**=*====-----------======*=*****====****%&&*****==**&%%Oo%&X;;;;;;;;;;;;;;;",
";;;;;;;;;;;;;;;;;;;;;; XXoo++#%*=*%%&&***======*===---------===***===**=*======&*&&&&**&**===**%#@O%@. ;;;;;;;;;;;;;;",
";;;;;;;;;;;;;;;;;;;;; .XooO+#$**=*&&*=**======*======-=-----====***==*==**=*&&*&**&%&*&&&******&$%#@OX. ;;;;;;;;;;;;;",
";;;;;;;;;;;;;;;;;;;;; .XoO+@$%***%&*===--============-==----====**=======*==*&**&**&%**%&**=====***#++o. ;;;;;;;;;;;;",
";;;;;;;;;;;;;;;;;;;; .XoO++#&**=&&*====-====--========------==*=*=**========*&==*&*&%=**&*=*======*%#@@o ;;;;;;;;;;;;",
";;;;;;;;;;;;;;;;;    .X+@@#$%*&&&**========-=---=====---------=*=*====--=====****&*&%****&*========*##@O. ;;;;;;;;;;;",
";;;;;;;;;;;;;;;;; ...Xo+#$%&**&&**======-=====----=**=--------=*====-=--==-==%*==*=*%&===&=========*%##+X.;;;;;;;;;;;",
";;;;;;;;;;;;;;;;;;.X.XO+#%&==%*&&=====--========*=====--------====*=-==-=-==*%*=*=*&%%==*=**=======*&##@oX  ;;;;;;;;;",
";;;;;;;;;;;;;;;;  XXXX+##%===**&*======-======-=***------------====--====--*&&*===%&%%*==***======***%##+X.;;;;;;;;;;",
";;;;;;;;;;;;;;;; XXooo@#%*=-=****==============*&*=-----=-----==============***&*=*&*&*==***========*%#@@o. ;;;;;;;;;",
";;;;;;;;;;;;;;;; ooo++@$%=====&**========*====*&&&*-------=---=====&&%%%==*&*=&%*===*&*=============*%$#+oX. ;;;;;;;;",
";;;;;;;;;;;;;;;;.o++@#@$&====**%*============*%&%&&*----------==-==&%%**==*&&*&&&==**&**=============*%#@oX. ..;;;;;;",
";;;;;;;;;;;;;;; .O@@###$%===***%*==-=====**===%%%%%*===----=--=--*&%%**====&**&&=====***==============&$@OX.XO.;;;;;;",
";;;;;;;;;;;;;;; .o@##$$%%*=*&&&**========*==&%%$%%&&=-====-=*-====&===***==*&&*&=====*=***=============&#+oXOo ;;;;;;",
";;;;;;;;;;;;..  .O#$%%&&&*=&*&&==*===*====*==&$$%%&====******-====**&&=**=*==****--==*=**===-==========*$+OOOo ;;;;;;",
";;;;;;;;;;;;XOX.X+#%**=*===***&====**===***==*$$%&*=*=**&&&**=====*&%%&&&*=====*=-*======----=--=======*%@+++o ;;;;;;",
";;;;;;;;;; .X++oo@$&*======**&&=*==***===&*=*$#$&*==&==*&&&&&*==***&%%&***==*=&&==========---=-========*%###+o ;;;;;;",
";;;;;;;;;;;XO+@@+@&&&**====**&&*====*==*=****%#%=======&&%%&&&=&**&&%&&&%&*&**&&*==*===---=---=========*%$##+X.;;;;;;",
";;;;;;;;;;;X+#####%&%*=*==**=&&*======&**&**=*&&====--=&%%%&&%%****&&**%%**&&**&&*========--=--========*%%$@+o. ;;;;;",
";;;;;;;;;;;X+#$#$%&%%======**&&*=====*%*=*&%=*&%===*===%$%&&%%%*=**&&*&&*%**&*&&***===--======--==**==*&%%$#+OX. ;;;;",
";;;;;;;;; .X+#%%%%%%&====-==*&%&====*%&***=*=**&--=&***$%%&%%%*=***=*&*=****&=**&&&===-=====-----=**==*&&%$#@oX. ;;;;",
";;;;;;;;;.Xo+#%&%%%&*=======**&&*===*%$&=&&==%%=*===*=*&%%$%%%*=**&%*&&***&**==**&**===-==**-----=*=====*%%$#OX.;;;;;",
";;;;;;;; .o+@#%&&&&&=========*&*==**=%$%&$$&*%%*==****%%$#@##&&*****&%**&*&*===&***&===-=====---=========*%$#@o. ;;;;",
";;;;;;;; .o+##%&&&&&=======*=*&*=*%$$$&=%$%&%%%*==***&$$%#$%%%$%%*=*&%&&*=**===%&&*%==-==-====--=========*%%#+o. ;;;;",
";;;;;;;; Xo@#%%&&***=====-===*===&$@#$==%%$%$$&*=====*%%&%%%%%$#$**=*%**======*%*=*===-=======-==-=-==*===&%%#o. ;;;;",
";;;;;;;  oO@$%%&*=======-========*%@@$**%%%&&%%&====*&%%%&&%%%%$$&=*=*&&=========*======--=======-=======*&%%#+X. ;;;",
";;;;;  ..o+#%&&*=================*%@#*=%%%%*==*&*=*&*&&&**&%#%%%$#**==**====*%*=**=======-======-========*&*%$@o.  ;;",
";;;;;;.XXo@$%&&*==================*%%=*%%%%&===&*&%&&&***&%%#%$%%#$****&===*%#&=====-=---================***%$#O.  ;;",
";;;; ..o@#$%&***=========-=========&&=&%%%%%==&&**%%&*=*=&&&%%##%%%%&*%&**==*#**=====---=====-===========*=&%$#OX  ;;",
";;.XoO+#$%*==============-==========*=&%%%%%&=**&*%%&*****%$%$#%&%%&#$%&=*=*=%*======---====-==--==-=====*&&%#@o.  ;;",
";;Xo@#$%%&==============--============&%%%%%%**&&*&&%=**=**$@%%$&$$#%%&%%***======*===-====-===----=======*%$#OX.  ;;",
"; X+#$%%&==============---======*===*=*&%%%$#%&*&**&%**===&%@$&%*%&$%*&***&**===*=*=*&==-===-==-=--========%#+oX.  ;;",
";.o+#$%%&========**=====--==========*=&%%&%$#%&%%&**&&=====%$%%%&&%&**&==*&*&*=*====&*=-==---==----==-====*%#oXX.. ; ",
";;X+#$%%=======**=======----======*===&&%%#%%%%%%***&&**==**&%&&*&&======**&&*=*==&%%*============-==-====*%+oX..  ;;",
";;X+#$$%%===*========*===============**&&%%%%&&%%%*&&&**=====%&&%**=====**&&&*%*==**&&*=========**-========$+XX... ;;",
";; o@##$%**&*==***==*===============****&%%%&%$%$%$%*&&*====*&*&%*=====&*&%&&&#&==**%%===========*=========%OXX.. ;;;",
";; X+##$$%&&&=&&*&=*================****&%&&&%%$%%**=*=*===*=*&&%======*&&&&&$+%*=**%&****=====-===========$OX...  ;;",
";;;X+###$%&&&&****==================*&*****&&&%%&&&&&***======**&&*===&&***&%#$%**&&%%&&***===============&@oX..   ;;",
";; XO@##$&&&&*==&&*===============*==&*=&&***&%%*&&*****======*==******&**=&%$%%*%%%%%%&&&&===========*==&#OXX..  ;;;",
";;;Xo+##$*&&&&**=**===============*==*&**&%&**&**#&****&&*===*&*&&&****&*%*%%%%***%&=*&&&&*****======*=**%@oX.... ;;;",
";; Xo+@#%**&***=====*=====--======**=**&&*&%&*=*+o%&&**=**======****=**&&**&%**=*&%&=&&&*******======*=*=%@oX... ;;;;",
";;.XoO+#&&&&*===================*=***&*&&***&**$@OO+%***&**=*&=&%%&====&**&&***==**&&*&&&&**===========**%+oX.    ;;;",
";; Xoo+#**&&*=======*=====-=======***%**********@O+#%*****==***&&***==*&*&&&======*&&*&&&**=-============*@XX.    ;;;",
" ; .Xo+@&&&*&======================&&&**&*=***&%##$**=***===*&&&*****===****=======*&&**&**===-======**==%+XX.  ;;;;;",
";;..XoO@%&&**=====================******==****=*===****==*====***=&****==***==========****=-========**&&%#OX.   ;;;;;",
";; XXoO@%*&****===================*&&**&%****=*======***==*=**&&&*&*=&*===&&===========**=*=========***%%#OX.  ;;;;;;",
";;;.ooO+$&***&*====*==============*&&%&&&&&**&&*======*=********&*****==**&**=*========****=--=====****%%#+.  ;;;;;;;",
";;; XoO+#&&********==========**====*&%&*&%&&*&&&*=**=-=***&&&**=*&***=*=*=**=*&*==========*========**&&%#@+. ;;;;;;;;",
";;;;.Xo+@***======**=======****===***&%&*&%$%%&&***=======&&*=====*===*======***==================*&&&%$@o.  ;;;;;;;;",
";;;; XXO@&**======***====**&&**&==*=*=%%&&&*%%&***&**=====*=====*=*=*==*=====*=****=============**&&&%$#OX  ;;;;;;;;;",
";;;; .Xo+%&*====***==*==**&&%&&*=====*=&&&&&&**&********&&*&**=*&**=**==*==*=*===*=========***==*&%$$$+oX.; ;;;;;;;;;",
";;;;;..Xo+%**====***==*&&**%&&&*======***%&&%&*&&&***=**%%*%&***===******=****===========*******%$#++oX.  ;;;;;;;;;;;",
";;;;; .XXo+%***==**=====&&&&%&%*****===***&&*&&&**&&*****%&&*==****&****===**=*========**&&&&&%%#@OXX.  ;;;;;;;;;;;;;",
";;;;;; .Xoo+&****=========*&%&&&**&*****&%&%%%&*%%%%&%&&&*&&*****&*&*=**==*&**========*&=&&&%%##+oX.; ;;;;;;;;;;;;;;;",
";;;;;;; .XXo+$&***=========*&&&&*=********&%%&&*&&%&&&&&*&&*%%***&****=***&&&*========&&*&%%%#+OX  ;;;;;;;;;;;;;;;;;;",
";;;;;;;; .XXoO+@##$%&*&===**&*%&*************&%&&&&%&*&&%$&&**=&***===**&&&%&*=*******&&%%%#@OoX  ;;;;;;;;;;;;;;;;;;;",
";;;;;;;;;; XXoOOO+++@##&*%$%%&&*=*&********=**&&&&&*=*&%%%&&&&&&&%&&&&&&%%&%&==**&&&&&&%%$@+oX. ;;;;;;;;;;;;;;;;;;;;;",
";;;;;;;;;;;; ..XXXXoO+#####$#$$&*********=**=*==**&==**&&%%&&&&&&%&&&&%&&%%&&=**&&%%%%$#+oX...;;;;;;;;;;;;;;;;;;;;;;;",
";;;;;;;;;;;;;;; ...XXo+@########***&&*&**&*==*====*===&&&&&%%%&%%%&&&&%%%&%%**&%%%%%%#@oX  ;;;;;;;;;;;;;;;;;;;;;;;;;;",
";;;;;;;;;;;;;;;; ;; .XoO+@@@@@@@#%***==%%%%=****=&*&**&&%&%%&%%%%%&%%%%$%%$$**$#%%%%$#OX.;;;;;;;;;;;;;;;;;;;;;;;;;;;;",
";;;;;;;;;;;;;;;;;;;;; .XooOO+++++@####$$%$&===***%%*&%&%%%%%%$$%%%%%%%#%%$%**&###%%$#+o.;;;;;;;;;;;;;;;;;;;;;;;;;;;;;",
";;;;;;;;;;;;;;;;;;;;;;;..XXooO++++@+@####$&==***&%&****&&%%%&&%$%%&%%%%%%%***&#@##$#+o.;;;;;;;;;;;;;;;;;;;;;;;;;;;;;;",
";;;;;;;;;;;;;;;;;;;;;;;;;..XXXoo++++@@#@##&=**%&*%&*=*&&%%%%%%%%&&&%%%%%%*%%&%#+@##+o ;;;;;;;;;;;;;;;;;;;;;;;;;;;;;;;",
";;;;;;;;;;;;;;;;;;;;;;;;;     XXXXXXXXXo+#$%&&**=*===**&%%&%%%%%%%&&&%%%%**=*&&#OooX  ;;;;;;;;;;;;;;;;;;;;;;;;;;;;;;;",
";;;;;;;;;;;;;;;;;;;;;;;;;;;;;; XXX XXXXoO+++@$$$%%$%%%$$$%%%%%%%%%%%%%&&%%%%@+++OoXX;;;;;;;;;;;;;;;;;;;;;;;;;;;;;;;;;",
";;;;;;;;;;;;;;;;;;;;;;;;;;;;;;;;;;;;;;..XXXXo++OOo@#@@++###$$$$%$###@++Oo+@+ooXX.;;;;;;;;;;;;;;;;;;;;;;;;;;;;;;;;;;;;",
";;;;;;;;;;;;;;;;;;;;;;;;;;;;;;;;;;;;;;;;; .XXXXXXXXXXOO++##@O+++++@+@@OooXXXX;;;;;;;;;;;;;;;;;;;;;;;;;;;;;;;;;;;;;;;;",
";;;;;;;;;;;;;;;;;;;;;;;;;;;;;;;;;;;;;;;;;;;;;;;;;;;;;.XXXXXXXXXXXXXXX.;;;;;;;;;;;;;;;;;;;;;;;;;;;;;;;;;;;;;;;;;;;;;;;"
};
