/* XPM */
static char *_4678_615b2483591319c833c27d03417d14f71cac8cadf54580b32163a531cbeaae69[] = {
/* columns rows colors chars-per-pixel */
"117 56 11 1 ",
"  c #341C00",
". c #452800",
"X c #593000",
"o c #6D3800",
"O c #824100",
"+ c #924900",
"@ c #A65100",
"# c #B65504",
"$ c #CB5D04",
"% c #E77938",
"& c None",
/* pixels */
"&&&&&&&&&&&&&&&&&&&&&&&&&&&&&&&&&&&&&&&&&&&&&&&&&&&&&            X O X.   .XXX. &&&&&&&&&&&&&&&&&&&&&&&&&&&&&&&&&&&&&",
"&&&&&&&&&&&&&&&&&&&&&&&&&&&&&&&&&&&&&&&&&&&&&&&&&    oO+@@++oXXO+O+O++OOOooooooX &&&&&&&&&&&&&&&&&&&&&&&&&&&&&&&&&&&&",
"&&&&&&&&&&&&&&&&&&&&&&&&&&&&&&   XX++++X  &&&&&&   OO+@@#####@@@@@@@@@@@@+Oooo+++++O &&&&&&&&&&&&&&&&&&&&&&&&&&&&&&&&",
"&&&&&&&&&&&&&&&&&&&&&&&&&&&& Ooo#$#$$$$$###@. XX#####@#####@#++##########@+++++@+++++X&&&&&&&&&&&&&&&&&&&&&&&&&&&&&&&",
"&&&&&&&&&&&&&&&&&&&&&&&&&&& oOOO##$$$%%%$$$+.  #################@#+#+@#####+++@@#@+++o..&&&&&&&&&&&&&&&&&&&&&&&&&&&&&",
"&&&&&&&&&&&&&&&&&&&&&&&&&&& oOO#@###$%%%%$$+.  ##@@#############+OoO++@####+++@#@+++Oo   ...    &&&&&&&&&&&&&&&&&&&&&",
"&&&&&&&&&&&&&&&&&&&&&&&&&..XO+@$@###$$$$$$$$@.Xo++++@####@@@####+oO+@@@@+OO++@@OO+@+++OOOOoooXX. &&&&&&&&&&&&&&&&&&&&",
"&&&&&&&&&&&&&&&&&&&&&&&..XoO@@###$$$$$$$$#+ooXXoO+O+++@@@@######@@@###############$###@####o#@@@@@@@+o.&&&&&&&&&&&&&&",
"&&&&&&&&&&&&&&&&&&&&& ...o+@#####$$$######+oo.XO++++++++@############$###########%%########+@+@@@@@@+o. &&&&&&&&&&&&&",
"&&&&&&&&&&&&&&&&&&&& .X+@@##$######@++@    #$+OO++++++++@####################$$$$$%$$$$$##+#+#+####@#@++o  &&&&&&&&&&",
"&&&&&&&&&&&&&&&&& ..OO+@###$$###@++O.X.XoO@+++++++++++++###+@@@@#@#@+O@+@####$$%$$$$$#$$$+Ooo+OOO@@$$#@+OoX &&&&&&&&&",
"&&&&&&&&&&&&&&& ..ooO+@##$$$###@+ooXoX.++@++@+++++@@@####@+O+oOO+O++++@@####$$$$$$$$####%$###OOOoooO+++++++XX&&&&&&&&",
"&&&&&&&&&&&&&&  ..ooO+@#$$$$##@+oooXoX.++@@+@++#@+@@####@@@ +oOO+O++++@@####$$$+$$$$%$#%$$$###@@oooO+++++++XX&&&&&&&&",
"&&&&&&&&&&&&   .++ooO+##$#$$#@OXoooO+X.oo###+@@@#++@#@OO@@O .   XOooo@##+Oo@@###@$$$$$##$$$#$@###@@++OOOoooXX &&&&&&&",
"&&&&&&&&&&.X . .XXoO+####$$$#+oXoO++o+Oo++#+##@+#Xo@#O+++.+.     .o++++OooXO+#@@+%@#$%%%$$$$$#$##@##@+++Ooo... &&&&&&",
"&&&&&&&&&..X . ..@O+@+$$$$##@OoO.o+O#OOo++o+@##X#oO+++++@++++#X  .o++++OooXO+#@+##$@+$%%%%$%%$#%$##@##++Ooo... &&&&&&",
"&&&&&&&&   .ooOX+@@+#@#$$##@+o.XO@@++#+@###+@OO##oOO@+@ ++.      ..X.XX..o.XO@+++++$#%%$%%%%$$#%####@@@+@+oXX..&&&&&&",
"&&&&&&&  ..o+o+Oo+@$++#$$##+OooX###OooO+@@#O++OO+o+@+ooX  +           X  . o@#@@@@@#$$$%#$$$$#+###@+@@++@Oo... X&&&&&",
"&&&&&&   ..o+oOO++##$+#$$##+OooX###OooO+@@#O++OOoo+#@ooX              X  . o@@#@#@@@@#$#$$$$$#o#+++++@+++Oo... X&&&&&",
"&&&&&& .O++++O+@#$$$$$$$$##.OOO#+#+++++O+@@.Oo.OXX+@OoX               X.. .XOo#@@#@++$++#$###O++#@@++O++@+o.. XX &&&&",
"&&&&   o++++@+##$$$$$$$$#@X XOO+XoOOX+@.oOO.oo   o+@ooX                 .XXoOO@$@+##@@$#$$$@###@oO++O+@+@ooOO.o..&&&&",
"&&& XXO+@@++@$#$$$$$$$$#$#X ..Xo+@+O..OO.XXX     oXO.o.     ..         .X ..Xo++#####@@#$$$$%$$##+O+OO++o+X   +. &&&&",
"&&& ooO+++#O###$$$$$$$#$$o .Xo..o++Xo..o..         X.oX              .XXX. ..Xo+##$$##@@$$%%%$$#@#@@@++ooOO.. X .&&&&",
"&& ..oO@##@@+$####$$$#$$#X   ...oXXoX. oo.Xo                        .. .. .oo...+@O@#@+##$%%%%$##$$$#++++oo+.    &&&&",
"& .XXo+@##@@#$$#######@+ .   X...o..o.. .oXXX                             XXXX. .ooOO+++#$$$%%$$######+++@o..     &&&",
"& .XXO++@++@###$######+o     ....ooX. .oX.oo.                            ....  . ooO+O++###$$$$$#####+OoO++XX. .  & &",
"  .XXXo++OO###@#$#@@##@O   & ....ooo..+OXo.oo. ..                         ooo..o..XX@####$$#$$$$#####+Oo.o+OOX    &&&",
"  .XooXXOOO+#@###$##++++  &&..XXo+o. ++.oO.ooO..o.                       oX    .oXX.@########$$#####@+O. .+o.    . &&",
"  .XXXX..oo+@#++$$##@@+X&&&&  ..O+o. XOX..o. Oo                            ... .X.Xo##@######$$##@+@OO+o  oX.      &&",
"    .XoXXXoOOoo####$$+$@o  &    .XX.   +X X XX   &&  &&&          &   o.Xo.o  X..oOO+$$##$#$%%$$+OOO+@Oo XXX   . X.&&",
"     XXX. XOoXoO@O+O$$++X &&&     Xoo   .        &  &&   &        &   Xo  O X.XoOO###$#$@#$$$$$#+OOOO++o X.. .oo .  &",
"      .Xo XooXoOO@o@#$++oO. &    & ooX Xo    &&&&&            &&&&&   X@X XXXooOO+$$##+#@$$$$$#@@##+OOo  oX. oOX .  &",
"     ..XXoX.XXooOOoO@#$O@O.&  &&&&& &&XXX &&&&&&&&     &&   & &&&&&   XOo   +oO+@#$#@oO##$$$$##@##$@+OX XOX XXO     &",
"&     .XooooXXXoO+o+@@$+@O+  &&&&&&&&&   &&& &&&&&&     &&&&&&&&&&&&&&.oXX  o+@++@#@OXO##$$$@@@+@@##@@OOOooXo X. . &&",
"&&&&   .XoXooXXoOOOO@@@$#@Xo  &&&&&&&&&&&&&&&&&&&&    && &&&&&&&&&&&&&& X X.ooOOO@@Ooo+#$$#$#@++@##@@@OOOOOX ..     &",
"&&&&     XXXXXXOoXXo+####@@O. &&&&&&&& X & &&&&&&&&& && &&&&&&& & &Xo&& oooXXooXoXooo@##$$$##@+O+@@@@@OoOOXX. o    &&",
"&&&&&      X.XOOOoXXO@OO+@+o &&&&&&&&&& &&&&&&&&& &&&&  &&&&&&&&&.oO+X&&&&&&  Xooooo@###$$#@@+OOO@@@++OOoOX        &&",
"&&&&&&   .  .XooOOoO+OOo++Oo &&&&&&&&&&&&&&&&&&&& && &&&&&&&&&&&&&  oOX &&&&.XXO+OO@@@$$##@@+OOOO+O+OooooO          &",
"&&&&&&    . .XOOOOOO++OOoOOX &&&&&&&&&&&&&&&&&&&&&&& &&&&&&&&&&&&&&& XOoo.oXoX+@@+@@@#$$##@+OOOOOOOOoXXooo           ",
"&&&&&     ..X.ooOO+@@++OooOX &&&&&&&&&&&&&&&&&&&&&&&&&&&&&&&&&&&&&&&&  XXXOOO+@@@#@@#@$$@@O+OoXXoX.Xo..XX          & ",
"&&&&&&    ...XXXXo+#@+@+oOoXoX&&&&&&&&&&&&&&&&&&&&&&&&&&&&&&&&&&&&&&&&&.X.XoXoO++@@O+O@@@OooOo.                    &&",
"&&&&&&   ....XoXXO@#@+O++OXoXX. .X&&&&&&&&&&&&&&&&&&&&&&&&&&&&&&&&&&&&&&&    XoOOOXoooOOOoXoX    &&                &&",
"&&&&&&    ...XooXo++OO+@OOoooooo.X &&&&&&&&&&&&&&&&&&&&&&&&&&&&&&&& o&&&& &  XXXXX XooooXXXX.                    &&&&",
"&&&&&&&&   ..XXX.XooOO+@OoXX.XXX.&&&&&&&&&&&&&&&&&&&&&&&&&&&&&&&&&&&&&&&&& X. XX X XoXX   .     .o .             &&&&",
"&&&&&&&&    .....ooooO@OOoXX. ..  &&&&&&&&&&&&&&&&&&&&&&&&&&&&&&&&&&&&&&&&&&      XXX.         XOoX              &&&&",
"&&&&&&&&&   ... .XXXXoXOooXX    &&&&&&&&&&&&&&&&&&&&&&&&&&&&&&&&&&&&&&&&&&&&& &   .XX     XXXoXoXX             &&&&&&",
"&&&&&&&&&       ..oooooOoX.  & &&&&&&&&&&&&&&&&&&&&&&&&&&&&&  &&&&&&&&&&&&&&&&      .  &&& .XXXX.         &  &&&&&&&&",
"&&&&&&&&&&      .ooXooOOX    &&&&&&&&&&&&&&&&&&&&&&&&&&&&&&&& &&&&&&&&&&&&&&&&      . &&&&&   ..         & &&&&&&&&&&",
"&&&&&&&&&&     XoOoXXXooX & &&&&&&&&&&&&&&&&&&&&&&&&&&&&&&&&&&&&&&&&&&&&&&&&&&&&&   . &&&&&&&&          & &&&&&&&&&&&",
"&&&&&&&&&&&    Xooo  .o+X &&&&&&&&&&&&&&&&&&&&&&&&&&&&&&&&&&&&&&&&&&&&&&&&&&&&&     & &&&&&&&&&&&&&&  &  &&&&&&&&&&&&",
"&&&&&&&&&&&      .    oOo &&&&&&&&&&&&&&&&&&&&&&&&&&&&&&&&&&&&&&&&&&&&&&&&&&&&&&&   &&&&&&&&&&&&  &  & &&&&&&&&&&&&&&",
"&&&&&&&&&&&&&    &&&&&Xoo &&&&&&&&&&&&&&&&&&&&&&&&&&&&&&&&&&&&&&&&&&&&&&&&&&&&&&&  &&&&&&&&&&&&&&&&&&&& &&&&&&&&&&&&&",
"&&&&&&&&&&&&&&&&&&&&&& ooX&&&&&&&&&&&&&&&&&&&&&&&&&&&&&&&&&&&&&&&&&&& &&&&&&&&&&&&&&&&&&&&&&&&&&&&&&&&&&&&&&&&&&&&&&&",
"&&&&&&&&&&&&&&&&&&&&&&&XX &&&&&&&&&&&&&&&&&&&&&&&&&&&&&&&&&&&&&&&&&&&&&&&&&&&&&&&& &&&&&&&&&&& &&&&&&&&&&&&&&&&&&&&&&",
"&&&&&&&&&&&&&&&&&&&&&&&  &&&&&&&&&&&&&&&&&&&&&&&&&&&&&&&&&&&&&&&&&&&&&&&&&&&&&&&&&&&&&&&&&&&&&&&&&&&&&&&&&&&&&&&&&&&&",
"&&&&&&&&&&&&&&&&&&&&&&&&&&&&&&&&&&&&&&&&&&&&&&&&&&&&&&&&&&&&&&&&&&&&&&&&&&&&&&&&&&&&&&&&&&&&&&& &&&&&&&&&&&&&&&&&&&&&"
};
