/* XPM */
static char *_8930_855e1f0eaac5ddd6a264293dac8df727ad5e49991c468ae5f8f2554684ec184f[] = {
/* columns rows colors chars-per-pixel */
"100 102 17 1 ",
"  c #593000",
". c #6D3800",
"X c #824100",
"o c #924900",
"O c #A65100",
"+ c #B65504",
"@ c #CB5D04",
"# c #E77938",
"$ c #EB8641",
"% c #EF9249",
"& c #F3A251",
"* c #F3AE5D",
"= c #F3BA65",
"- c #F7C775",
"; c #F7D37D",
": c #FBDB8E",
"> c None",
/* pixels */
">>>>>>>>>>>>>>>>>>>>>>>>oooo>>>>>>>>>>>>>>>>>>>>>>>>>>>>>>>>>>>>>>>>>>>>>>>>>>>>>>>>>>>>>>>>>>>>>>>>",
">>>>>>>>>>>>>>>>>>>o+++$****$+oo>>>>>O@@@ooXXXooo+$#@@#$$#+>>>>>>>>>>>>>>>>>>>>>>>>>>>>>>>>>>>>>>>>>",
">>>>>>>>>>>>>>>>>Xo+++$*--;;=*$+ooooo@##@@@$$*=&$&=*&%%%%%$o>>>>>>>>>>>>>>>>>>>>>>>>>>>>>>>>>>>>>>>>",
">>>>>>>>>>>>>>>XXo+@%%-;::::::;=#ooO+#######$%***;;-=*&%%****&@>>>>>>>>>>>>>>>>>>>>>>>>>>>>>>>>>>>>>",
">>>>>>>>>>>>>>XXXO@@#&*=;;::;:;*#O++@##++@@@#$%%%*=**&%%&&**&##$#@@#$$#++>>>>>>>>>>>>>>>>>>>>>>>>>>>",
">>>>>>>>>>>>>XXoo@@#%&*=-=;;;::;=#$#@@@++OO+@###$&*=***%**=&&&&=*&%%%%%$$o>>>>>>>>>>>>>>>>>>>>>>>>>>",
">>>>>>>>>>>>.X+##=-***=-;;-==-**=;;:&%#@@@@##%%%=-------=-=;;;;;-=*&%%*****&@>>>>>>>>>>>>>>>>>>>>>>>",
">>>>>>>>>>>.X+#--;;-;;:;::;-*&%%&%%***$$##$-----=---===-*---;;;;--=****==****$>>>>>>>>>>>>>>>>>>>>>>",
">>>>>>>>>>.X+&;;;:;;;;:;;;:;:;*%%###$$&***-------;;;----------------**===---*%#>>>>>>>>>>>>>>>>>>>>>",
">>>>>>>..XX+*-;;;;--;;--==;;#@#-;*********---==;:;;;------;;;;;;;;--**=----=-==&++>>>>>>>>>>>>>>>>>>",
">>>>XXXXXO#=;;-;;;::;;-***--*==****===-**=------=-*&***=--;:;;;;;;;*%%#%%$=;;-=*&&+>>>>>>>>>>>>>>>>>",
">>>.oooO+#%%**-;;;;;-==----*-=**---=&==--=---*&*&***==-;;;;;;;;;:-=---=&&%%&******$X >>>>>>>>>>>>>>>",
">> XXooO@%**=--::;;;-=*-;;-&&%%*=---=*=-**===%$&&&&***==-;;;;;;;;--;;--==*=**&%%%%#X >>>>>>>>>>>>>>>",
">.oOOOO+#*=**=---;;--=*---=%%%**=**=***&***&&##%&%%=---=*--=;;;;;---;;---==**%%%%%$@o >>>>>>>>>>>>>>",
">.+#$@#@#$&*=--;;;;-;;;;=$&&%*-=*---*%&**=*&&%#@$%***=--*=-*%*;::::;::;--=--=**&%%##$@ >>>>>>>>>>>>>",
">oO@#%%$#%*=--=--;--;;;;*$%%=---=**=-**=***&**#$&%%&***-**=****-;:::;;------=*==*%$#@o >>>>>>>>>>>>>",
" O@#%*%&&**=*=;;-;;--*--&##%*=---**---=%#&##@$@$%#@$***=*==**===-;::;-=**===**=*&%##@@$X>>>>>>>>>>>>",
" O+##$**&*--=-;;;:;;-==%&&%*==-----*--=*$&$#%##*&#*=*%&**=-;-=-=*-;;--=-**===***&%%$##$# >>>>>>>>>>>",
">.+@#%%&**----;;;;;-==&#&**--;:;;-***&#%%@+#$%@##@*$#%=-***=*&=**-;------====***&&%**%$# >>>>>>>>>>>",
"> @##%%*==-*=-;;-----=#@&=-=-;;--=***&@@%&@@@#&$@#&%%&=*=*#***=**=---;---**--=*==%#&=&%# >>>>>>>>>>>",
">.+#%$**---=*-;;-----&@%$--=*;;;;-----=%#@@####%%%&%%&*-**%&#%=--*&%-:;------=***##$&&%@ >>>>>>>>>>>",
" X@@#$%=----------;-=$%%*=-=*-;-&%*---*==#%&$#$@#%&&&%%=*%@#&*-===&$=;;-----=--*&%###*%#O>>>>>>>>>>>",
".O+@###*---;-=-;--;-*$@$*-=*---*%%@#----=%#%$@@++**#@#%&%%#%$#*-&=*#*-;----=*--=*&%$@**#+ >>>>>>>>>>",
".O+@@#%=-----=-*=-;-*@+%**&**--=#&$$#&-;-*&##++@*-*%%%&**==$@@%-=$%%*-;-----*----=&%#*%$@ >>>>>>>>>>",
".++@$%=-----;==--;-*###&==**%--%#&##*------&$%$#%*%$##%$**%&%%%**#%%&=;---------=*&#$%%%@ >>>>>>>>>>",
".O@$&&*-----;-*----*&##&=--&$$**#-=***&*==-=%#+@#%&#%#%&&***%#$%&%*%#%=-----**=****%&%&&#O>>>>>>>>>>",
">o+%**---;-;;==;;--=*#$=---*#-=**&*%--**%*%$$$@#%%%%%@*%%%#&%#@&&$*%#@*-;---*==*==-=&%**%# >>>>>>>>>",
">X@%**------;--;---**%*---=*$*---*@%*#===*&&*##+#####$*%%*%*%@@@-%&%##%-;;-**=---*--%@$&&%+ >>>>>>>>",
">o@%&**-;;--;;;;---**%=---=*-*#**-%+$*----*=-;-%@+%#$&**%#$*%#+#&&%%##$=;;-----%&**#oo@&*%@ >>>>>>>>",
">o@#%*=--;--;;;;---=&%*=&--=-*@#*-*@#--;==**--:-%+#**$&%*&*&%@@#$*&%@##-;;;-==**#%**@o+%*&@X>>>>>>>>",
">XO#$&=------;;;-====&*=*-=*-%##*&**=--;--=&$%*%%$&**&%%&*$%&@##$&%&#%$&;:--=*&%#%*&#@@%*&@+X.+ >>>>",
">Xo@$&=----=---;-*--*&*===#*&#@%*&+$%*---;;*&***%%%&*&$#$%#*&#@@@%*###%%-;----*%$&=*%@#%%%##@@@ >>>>",
">.o+%*=----=--;;---;*&&=*##$$##%*%@#*%&*=--*$%&**#@%=*#@@&##%$$@#%=&$%$$-;;;;=*%&%#&*%%$%%%%$#@o>>>>",
">>X+%**=--==--;;;---*%$=*$@%#@#%$###$&$&&=&%&*==*&#$&-*#$%#@+@+##*-%#$%@=;;;;-$@%%$@**&##$#$$#@+ >>>",
">>X+#***=-==---;;--;-&$*&%%#@@@%%&%##$#%*&*-==-;;-&##%&$@@++@@@+$*-*$%#+*-;;-&%@#@o@&*%@%%#&&%++ >>>",
"> XO#%&**-**=---;;---%#%*&&##++##%&#@&**%%--;-----%%##%$%$@+#+@#@*&%%@+@%-;--&$%#@+X+%$@#$##%%%#o>>>",
">..O@$%*===**----;--=#%$**&#%#+@%%&$+&*&%*---=**--=%*%@$@##+o+@@#%#$+@@+%-;-*&*@+@XX@%#+#$@#+$%$X>>>",
">>X@@#%*===*==---;;--$$@#&*&$%O#*&###%%#$&=-==&=--=**&#@@@@O@@@@%#$$##+#&=;-=*#@O@++#&&#$$##@+%#X>>>",
">>.o+@%**=****-;-;--*%&#@@%*%@O$=-*@@*&%$%&--==---%=&%*#@@O+@##@##$@$#@#**-==*@@#+@@&*@&&%$#@#$@. >>",
">>>.O@#%****&*=--;-***&%@@%**%%%*=***=-*&%*--*==*;&*%&&##@o@@#++###%&*%%---=-*$@Oo@%&#@*@O+###$@ Oo ",
">> .O+%****$***--;=**&*&#&--%%*&****==--==*--*&%%=%%==*#@#o$$#+#$$#%%***=---=*#@OX$*&@+@#O+#%+%@O++X",
">>.Xo+$**=*$&*=--;-**&&$&---*%****--=--------=&##*@#**%%@@@%&#$###&$%%*&&--=%%++XX@%*%%##@o+#+#@oO+X",
">>.XO+#&***#&==----**&%*---**&*-*=-*--=-=----****%+@%&$##@%%%*&%##&*$$%$$*=*%#+XX  +@#$##+++#@@#o++.",
">>.Xo+#%***%&=*=---***=--=%%*--**&*==****-**==*==&@#%-%=$@@$%*#%&&%#%#%##%-*%@O+@++XO@##@@++#@X+oXo ",
">> XXO#$**=&%&==-;-&*==-=*%%=-==*&=-******&==****&@#*-$%-&%$*===%$#@$##$@$==-#+@##%@o@@@@X++$@X+OX >",
">>> .o#$&==*%*=--;;**=--*%*%*----*=-=*&%***=**%*&%%%*=*&*=*-=--=%##+@@#++#*--#O@*&&%@$@#@@##&+OOoX.>",
">>> .+$%&**=&*=------=-=*$**---=*=-==&&#*&****&&#$$%*&%&-----**%%%+o+#+@@#=-=&@#*%$%%&$#%#%@#++Oo+.>",
">>>.X+#%*=****==------==&*--***----**&%%&%-**&&%&+$&*=&$*==-*&*###+oXO@#@@*-=*@@$##%#$%##@@#OX@#Oo >",
">> ..o#%**=****$*==-----&*-*=-====**&&*&%%-=*%%#&@##*%**-=-*=*=%@#@XX+#$@#*==-####@#@#$@@@##Xo%@+X.>",
">> ..O#&*-=***&*-***---**=*----====*%%%*%&**&%%#@O@#&&%=*=***--***@##$%$#$&**=#%#oo++@@+@%%@X@@O@X >",
">> .X+#%**&%*=--=&**=--**=-*==**=-*&&&%%##%&$#$$#+#@@#%&****===***%*%**&%%$%*%#@#@#@+#@oo@%+X##+@X>>",
">>>.X@#&%**%&=----**=--********=--*##%%#@*&%$%%%#@+++###%=***==*****&=*%&*#$*%@+##%$%%+ O@#+o$$@@.>>",
">> .X##%&%*%&**=--=----*&**=**&*=*%@#%#$@%%%$%%%#%%@@#&$***%$=***=*%*==%**@#%$@@+%**#@XXX@$#+%#+X >>",
">> .+#@$&%%%**=-=**=---=%***%*&&=-*@%@%$@@#%#%%&*&*=%&*-*&$$@&*$*=%$==*&*%##*%##%=-*#+O++#%+@%#O..>>",
">>>.O#+&**%&&***%&*-;;-=#=*%%***&*%%@+%@@@#%@@@%%*&**&%$*$+##&%#%%$-***&****=%#+#=*%@#@+o@#O%%#o.>>>",
">>>.+%+%*&#$*=*$#%%*---*%***%*&$%&%@@+@O+#+OoX@%$$$%*%&#$$+oO@@@#&&*&***&*=-**#@@%%#&#@ OO@@&%#O.>>>",
">>>.+%@#%*$%*%%@#%%&**=*&%***%#*&$@+O@++o+XX+@++O@%#%$#$&+oXO##+$*==%***%&*==--$##@**#O+$@#$&%#+.>>>",
">>> +##@$*#%%%#@+$%&%***&$******&##@@oOOX  XXOXoO@@+@%%%&+@++@##%%**$&**%%*==--*%*#==&&#%#%*&%#+ >>>",
">>>.O@@+$#@###@o+#%****&*#***&&*%$#++XX     oO@@+++#@&&&$#%@O@#@%@$*%**&*&$*&-=*%%%*=&$%*%**&&$@ >>>",
">>>.X+@+@@@###+OO+#**%*$&#&&&%%%%%+X+@X    XXX@$+@+Oo#%%#++@%%@O$@*%%*&**%$%*=**&##&**%#%***&%#+  >>",
">>> X+@@+@#@@#++++#%%%*$%%&%%**&**$O+#     XO+@@#o+O++$@#@###$##@#&%$&*&&@#@***&%#@#*&%%%%*%%%#o  >>",
">>> Xo+#@##@++@$@+#$****###$#&**&*%##+X   Xo+@@@#OXX#$&$#+##+@%$@#&&%&*&%@@%=*&%$#@@&%%%$%%###@ >>>>",
">>>>XX@#@@##@++@+o+@****%#@#%&%&*$@+#@+  OoO++@@@O@@+%%*&@$%@+#@##&%#&*%$%#***&%#@++##*##&#@@@X >>>>",
">>>> .+#%@@+%##@@@+o+@%*$#++#$&%#@o+@##@ oo@++++%@@#@%*&$@##$@+%+#&$%%%@##&*=&%%#++o+@#@#@@++o >>>>>",
">>>>  X@$%#+@&$@+@@@XX#@@@@#@%%%#@##&@+@@+Oo+OO+@#@#@@###%##%#+%@@%%$&%#@$&*=*&%#@+XX+#$@O@o. >>>>>>",
">>>X> .O@$####@++@%$@oX@#o@@$%%%%@+@@#X@@@+Xo+###&@$+###%%&@+@++@#@#@&%#@@%==*%#@+@X@Xo@oX+ >>>>>>>>",
">>>....X@#%%#@##%@##$o +oo@+##&%$##@#@@#+OO X+#$@$#@@#%$&%#o+@#+o@@O#&###@**==&#@+@#+Xoo  X>>>>>>>>>",
">> +XO..O#%&&%@#$#@#@+@@+@@@%##%%*&#%#$%oX+XX@$@@@@@###+++OX+++o@oX#%&$%$%*&=**#@o++@X+o >>>>>>>>>>>",
">o@.@oX.X@%%&%+@%@+@+#@OO+@@#*#&&%*&%%$%+oX+@##++@###%@@+Oo+##+@@+X+#%%&**%%**&#+OXO+X@X>>>>>>>>>>>>",
">>>@O+@ Xo##$$+++#@o++@$#@@#$%**%%$%$##@@##@#%$+Xo+#@#%#@@#@##OXOO o##$%*&$%**%#+X+@@@O   >>>>>>>>>>",
">>> o@#OXo+@@@##++@++@+o++@@$@#*%#@#@%@O@@@+@#++#%@#$#++#@@@@@+ +#+X@##&%%$%&%#++###++X >>>>>>>>>>>>",
">>>OX+@@#@@##@@#$#oO+o%+#@#$%#+@$$+@@@+@$@OoO+@###%%$###@@+@#$+#@#@%%#%%$%$#%%$+@#@oo   >>>>>>>>>>>>",
">>>>.+o#$@O@++@$%#@++O++++&#$#%###@$##$%%#@@@@$*=*&*&%$#@+##@@@@@#@&&#%####@#$$@@#+O   >>>>>>>>>>>>>",
">>>>   XXXO+#%%@@++@%#@@#@+@@@#$&$@@#==*&%%#$$%&*=-=*&%##@#@@@#+@#%*&$#$#@+@###OX++X >>>>>>>>>>>>>>>",
">>>    Xoo+@#$#$#+O#&%@#%%$@@+#**%%%*==***&&&*=*==-==-=**%%*###+@&%$%%###@o@@@#@ O+X >>>>>>>>>>>>>>>",
">      XXoo@@###@@@##+#$#@$@o@*&&**********&&=======----*&$&&$$+@+@@#@+@#OXXXO@+ X   >>>>>>>>>>>>>>>",
">  X   XXX$%%%$%#@@@O@%%@@+@+%*&&*&&&**&&****===**====--=****&&#@++@+@+++XX. XXXX  .>>>>>>>>>>>>>>>>",
">>  XXX X+@%&%$%#@O+##$##+@+#-=&%%%%%&&%%&%%*=*=*==*====***&&%%#$++O++OXXX  XX  X  >>>>>>>>>>>>>>>>>",
">>>    oX+@$#%#@OoX#$$#@OXX+&-*%%$$%$%%%%&&&********=**=***&%$%$#++OOOXX...XXo .  X>>>>>>>>>>>>>>>>>",
">>       ++###++X O$%%#OoX+@#=%%####$%%#$%*&&****=**==****&%%$%#@++OOOX.X....X  .o >>>>>>>>>>>>>>>>>",
"         X+   XO+ o##@@+o@+++@##@@@@$%$##%%%%&******=*****&$#$%#@++OOoXX.X. ..  > .>>>>>>>>>>>>>>>>>",
">.O >          X  O@++++O@+@+O@#+++@###@@$%%%%&*********&&%###$#OoooXXX...   .  .. >>>>>>>>>>>>>>>>>",
">X.>>             X+OX OooX++X@#+O+##@@@@@%%%%%&*******&&%%$@@#$OoXXXX....  >> ...>>>>>>>>>>>>>>>>>>",
">>>X>>>           XoX o#O X++o XX+@@@@+++@#$#%%%&****&%%$%%#@@##+XXXX...   >>>>>>>>>>>>>>>>>>>>>>>>>",
">>>>>>>>>         X  X++X  o@+O+O++++++++@@##%%%&&&*&%#@%%%$@@#+oXXX...    >>>>>>>>>>>>>>>>>>>>>>>>>",
">>>>>>>>>>>>>>>>      X  XXo@+++++O++OoO+@@@#$%%%%&%%%@#&&%#@+@OoXXX.... >>>>>>>>>>>>>>>>>>>>>>>>>>>",
">>>>>>>>>>>>>>>>>>       ..o++++OoOooXXo+@@@##$%%%%%%$@%&&%#++OooX.X..    >>>>>>>>>>>>>>>>>>>>>>>>>>",
">>>>>>>>>>>>>>>>>>>>> >>   .OOXXXoXX..XXo+@###$$%%%%$##&&&%+oOoooX....  >>>>>>>>>>>>>>>>>>>>>>>>>>>>",
">>>>>>>>>>>>>>>>>>>>>>>>>>   XX..XX. .XoXX+#@#%$%%%%##$%%&%+oooXXX....  >>>>>>>>>>>>>>>>>>>>>>>>>>>>",
">>>>>>>>>>>>>>>>>>>>>>>>>>>  ......  .XoX.O@@@%$$$%%##%%%%#XXXXX.X....  >>>>>>>>>>>>>>>>>>>>>>>>>>>>",
">>>>>>>>>>>>>>>>>>>>>>>>>>   .. ..    .X..Xo@@%$$#$$$#%%%%+.X......  . >>>>>>>>>>>>>>>>>>>>>>>>>>>>>",
">>>>>>>>>>>>>>>>>>>>>>>>>>>>>     >    ....X+#$###$%#$$%%$X.....     >>>>>>>>>>>>>>>>>>>>>>>>>>>>>>>",
">>>>>>>>>>>>>>>>>>>>>>>>>>>>>>  >>>> >  ...X+###@#$&##$%$@.....      >>>>>>>>>>>>>>>>>>>>>>>>>>>>>>>",
">>>>>>>>>>>>>>>>>>>>>>>>>>>>>>>>>>>>>> >  .XO@##@$%%#@#$@.  ...  > >>>>>>>>>>>>>>>>>>>>>>>>>>>>>>>>>",
">>>>>>>>>>>>>>>>>>>>>>>>>>>>>>>>>>>>>>>>>> XO+@@##%$@o++..  .    >>>>>>>>>>>>>>>>>>>>>>>>>>>>>>>>>>>",
">>>>>>>>>>>>>>>>>>>>>>>>>>>>>>>>>>>>>>>>>>>.o+@@#@##@OX...        >>>>>>>>>>>>>>>>>>>>>>>>>>>>>>>>>>",
">>>>>>>>>>>>>>>>>>>>>>>>>>>>>>>>>>>>>>>>>>> +@@@+oOO+oX..         >>>>>>>>>>>>>>>>>>>>>>>>>>>>>>>>>>",
">>>>>>>>>>>>>>>>>>>>>>>>>>>>>>>>>>>>>>>>>>>>o@++O>>>>X..          >>>>>>>>>>>>>>>>>>>>>>>>>>>>>>>>>>",
">>>>>>>>>>>>>>>>>>>>>>>>>>>>>>>>>>>>>>>>>>>>>oOO>>>>>>..         >>>>>>>>>>>>>>>>>>>>>>>>>>>>>>>>>>>",
">>>>>>>>>>>>>>>>>>>>>>>>>>>>>>>>>>>>>>>>>>>>>>>>>>>>>>..       >>>>>>>>>>>>>>>>>>>>>>>>>>>>>>>>>>>>>",
">>>>>>>>>>>>>>>>>>>>>>>>>>>>>>>>>>>>>>>>>>>>>>>>>>>>>>>>>      >>>>>>>>>>>>>>>>>>>>>>>>>>>>>>>>>>>>>",
">>>>>>>>>>>>>>>>>>>>>>>>>>>>>>>>>>>>>>>>>>>>>>>>>>>>>>>>>>>   >>>>>>>>>>>>>>>>>>>>>>>>>>>>>>>>>>>>>>"
};
