/* XPM */
static char *_9519_d648b60a774af17ed68431983cae215bd396f4f5c602bdfdbfd2f17e4b81d427[] = {
/* columns rows colors chars-per-pixel */
"121 67 18 1 ",
"  c black",
". c #341C00",
"X c #452800",
"o c #593000",
"O c #6D3800",
"+ c #824100",
"@ c #924900",
"# c #A65100",
"$ c #B65504",
"% c #CB5D04",
"& c #E77938",
"* c #EB8641",
"= c #EF9249",
"- c #F3A251",
"; c #F3AE5D",
": c #F3BA65",
"> c #F7C775",
", c None",
/* pixels */
",,,,,,,,,,,,,,,,,,,,,,,,,,,,,,,,,,,,,,,,,,,,,,,,,,,,#%%%%@@++++@@@@$*&%%%&***&$,,,,,,,,,,,,,,,,,,,,,,,,,,,,,,,,,,,,,,,,,,",
",,,,,,,,,,,,,,,,,,,,,,,,,,,,,,,,,,,,,,,,,,,,,,,,++##=-=--*****==***=----======*@,,,,,,,,,,,,,,,,,,,,,,,,,,,,,,,,,,,,,,,,,",
",,,,,,,,,,,,,,,,,,,,,,,,,,,,,,,,,,,,,oooo,,,,,,$$$--;;::;;::;;;;;;;;:;;;;--==-=;;;-%,,,,,,,,,,,,,,,,,,,,,,,,,,,,,,,,,,,,,",
",,,,,,,,,,,,,,,,,,,,,,,,,,,,,,o++++$$%$$%$+oo$$%&=;;::::::::::::::::::;;----==----*&*,,,,,,,,,,,,,,,,,,,,,,,,,,,,,,,,,,,,",
",,,,,,,,,,,,,,,,,,,,,,,,,XXXo+@%%$***===****&%$$&*=;;::::::::::::::;;;--****&==-*&&&&&&,,,,,,,,,,,,,,,,,,,,,,,,,,,,,,,,,,",
",,,,,,,,,,,,,,,,,,,,,,,XXXXX+$%%%$&==;=::;:;*%$$$%%&*=;;----;;;;;;-=--==*&&&&***&&&%%%%#@@@##$$#+++,,,,,,,,,,,,,,,,,,,,,,",
",,,,,,,,,,,,,,,,,,,,,XXXO+##%&&&&*&*=;;:;;--=&$###$%%&*==***=*========*=*&&&&***-=---&&&&&%%%%%%$$$,,,,,,,,,,,,,,,,,,,,,,",
",,,,,,,,,,,,,,,,,,,.X+$%$%&*--;;*;---=;-=*&$#######$%%&*****==*=---=-========-----;----------**====---*%#@,,,,,,,,,,,,,,,",
",,,,,,,,,,,,,,,,,,..X+$%%&**=-==;-;;--;*&%%$###$$$%%%&*****--------==***=-----------;;-------**====---*%#@,,,,,,,,,,,,,,,",
",,,,,,,,,,,,,,,.XXXX+$%%&*;;-;-;-;---*&&%$$$%%%&&&&*****======----=-&&&&*=-----;;;;;;-;-;;;--**=-----=-==*%++,,,,,,,,,,,,",
",,,,,,,,,,,,,XXXOO##&&&&*:;;:;;;;;-=&%%%$$%&&&&**====----=&%%%%*&*&&%$$&*=-----;::;;;;;;;;;**%%#%%%%==;;==*&%++,,,,,,,,,,",
",,,,,,,,,,,,XXXXOO#%%&*=;;;;::;;;--*&%$#$%%&*****====----=-%%%o+@*&&$$$&*=-----;::;;;;;;;;;---%#&%%%%==;-=*&%++,,,,,,,,,,",
",,,,,,,,,,..ooo+##%%%&=-;;;;;;;--=*&%$$$%%&**==--====-&$**&#++@@&%&O@%%*==----;::;;;;;::-;=--;;---&&%%&=;-=**$$X.,,,,,,,,",
",,,,,,,,.oOOOOO#$%&&&*=-;---;;--=*&%$@$%&&***=-**=&==**$$=*%$#@OoO$@$$&*====--;:;=;;;;;;--=--;-----==**%***%&%$@o.,,,,,,,",
",,,,,,,..oOOOOO#%%&-&=----;-;;--=*&%$#%%&*&=*=*---***&*$$=*%$#@@oO$@#$&*==-*=--;;=;;;:::-----;;----==**%%*%%%%%$o.,,,,,,,",
",,,,,,...+##$@##%&-=&--;;;;;;;-=*&%@@$%&&*=-==-*-==%%*%#%%&&&%$@.+#@O$&&&*--*==--===*;;;:;;--::;------=****%%&&#@@.,,,,,,",
",,,,,..ooO@@#%%$%&&*=-----;-;--=&%$$%%&**=---=*-=-***$#@O$++OO@O.X#oXo+#%&=-***==***=;::::-:-;;-------=*===%*%$%#$..,,,,,",
",,,,,..oO+@#$%%%%&*==-------;-=*&%%%%&***=----====-**$#@O$++OO@O.X#oXo+#%&=-*******=*-;;:::::;;---=---=*===*%$$##o...,,,,",
",,,,,..O@#$%%%%&&*=-;;;--;--;;*&%%%&&&*&**=---=**-=*&%###$$O@@ooXOX@+%$+&&*=*=*****===--;;:::::;--=*-=**==*&&%##@@$$X,,,,",
",,,,.XX+$%%&&&&**=;;;;-----;-=&%$%&&&&**=--==**%=-=*&%%%%$$#@O.OOoOO@+#%*&&***&&***===***--;;:::;--;-==***=*&%#@%$$@.X,,,",
",,,,.XO@%&&&%&*==-:;:::;----=*&%%%&*&&**---=*&&&===*&&%ooo++@...OOO@oX++%&=**&&&*&*--===*----::;;;-;==-***=*&%#@%$$@.X,,,",
",,,.X+@#%&&&*------;:;;;--==&&%%#%&*=&*---*=*&%&****&%%$$@.+@O@+...XX+$+#%$=**&&&*=---===-;:;;;;;---=-*=***%%%%##%##..,,,",
",,.X@$$%%&&*-*-;;;;:::-:-;-&%%%$$%&**&*-=*==&%%&&=&&&&&&%##$@@OOX+XOX$O$%%$$%$$%**=---===-;::::-----=--==&%*$@@@#%#+X.,,,",
",,.X@$%%%&****--;::::;;=-;-&%$$$$%&***======&#&%%&&&&&&&$##$$O@OX+XX@X%%%%$$%$$%**=----===;::::;;-;-**===&%*$@@@#%#+X.,,,",
",..X+%$%&*=*=-=--;;:;-=-;;-&%%#%$$&&****%&====%%%%&&&$$$+o+#$.@@X.X.O+#$%%%%###$%*--;;--==;:::::;--=****&%%&&##+#$@#oX,,,",
",.X+#$%%&----=;---;-;-;;;-=%##@#$$%&&=*$%&==&***%%%*@$$$@+OOo......+OOO$$$#$#%%###*=&==---;::::::;;;;;-****%%%#@#@++.o,,,",
"oOO$&$%%*----;;;-;;;;;=-*&&$#@#%%%$&&%&$@%$%&&&&$#@#$###Oo@#+ooo....@O@#%$$#%%%%$#$&&&&*==;;;:::>::;;;;;===-&$$#O@###o,,,",
"o.@$&=&&*-==-;;;;;;;;;==&%#@+@@$$$$&&%$#%%%%%%#&&##$$$#$OO###@+.....+#o+$$#$$$$##$#&%&&*--;;:::::::::;;=*&*==%%$+@$##o@.,",
"oo#$&=**==**=;;;;;--;;=-&@@+O##$$$$&&&$%&&%%%%$#$$#$#@@O+OO@@@@o....OXooo@%#%%%$$%$$%%&-;;;::;;::::;;;;=*&$&=*%%@o##@o.o,",
"XO#$%**===**=;;;-;;;===**+oOO#$$%%&=&$$%&&&%%&*$$&$#O@+oOoo@@@@...+...o...#%%####$%%%$*-;;;;;;;;::;;;;-=*$#$=&$#o.##$@oo,",
".o+$%&*==*&&=-;;;;;;-;;*=#oOO#$$$$*=&$#$%%$&$#%#+##@O+o+@.oOooO.......@+..X##$$$#$%$%&&*=;;;;;;;::;;;;===&##&%$@oO#$#+O.,",
"XX+#%&**====-;;;;;;;;;;-*$++o#$%&&%%#@@@##@&##+#@$++o@OOo..o..o.......@#O.+o@@@##%%#@$$%*-;;;;;-;:;;;--**&$$%%$#OO@$$@O..",
",XO@#%&&====---;;;;;;;;-*$@+o+@#%%$#@o#$.#@#@+++###+O......oo@O........X.#$@@@+@##%#O@$%*=;;;;==;;;--==&&&%%$$@@#Ooo#$@..",
",Xo@@@$%&*==---;;;;;;;;-&@O+oo@O##$%%&#OX@+@@+#@@##@#OOO.XXXOXXXXXXXXXXXXO$%@++@O#%##$%=-;*;;;;;-;;----=*%@%*&$#@@+##$#@.",
",,oO@@#%&&=*=----;;;;;;-*%OOooo+$%$$%&&*#@+O@@@####$$....XOO++oo...X...o%@+$%@@XO$$#O$&-*=-;;;;;;;:;;---=&$&&*%%#$#$$%%$X",
",,oo+++$$&&%&===--;;;;-=&$OOoXo+$%%%*=&#O@@OO++$$%$$$@...oOO++oo...X...o%@++oo$&%$$#+%=&*&=;;;;;;;;;;;;*&*=&%$o%$+$&&&%$o",
",,,,O+@$%%&*&&====-;;;-=&$o++ooo@&&%*=&++#$$o++$%+#$$#o@oooooo.X...oooXo+&%@oo%&%*&%$%=&&%=;;;;;;;;;;;-==-=&%%+#$@%&&%%@o",
",,,,,+@#%&*=&*=;===-;-;-=&oooooo#%%$$$$$+@+@%&%+$%####o+ooo.....Xooooooo$-*$@o$*&*-$%**&&;;;;;;;---;;;;;;-=&$@+#$$%%%%$@o",
",,,,,O+#%&*=&&=-=====-;;-*$oo+oo+@##@#$@@+o.o%*%$$@@+++o.oo....ooo...oo$&;;;$+==--=$=*&%=;;;;;;;==-;;;;;-&=&%$@$#$$$@$$+,",
",,,,,O+@$%==*=-;;====-;;;=&oo++o+$@@$#oo++ooXo$$#@@oXoooOXo...oooooooo@%=;;;*@$=;;=@&=&$&;;;;;;;==;;;;=*&%&&#@##@#@@+++o,",
",,,,,oO@#$&*&*=-;;*==--;;=&oo++oo@@$$$oo..oooo++ooooooooo+oo.oooo#+@+&;;;;;;;=&;;*%o#&&$$*;;;;;-=*-=;=&%%%%%++$@@@+@++O,,",
",,,,,,O+$$%&&&*-;;&&===--*%+o++oo+$$$$oo.oooooo+Ooo$oo#$$#@Ooooooo@&=-;;;;;;;;;;-&$%%&%%%%&;;;-=&&==;=$$%$++o#$+@@++++o,,",
",,,,,,,+#$%%%%&=;;*&&**==&%+oooooo+@$o@oooo.....o+%&&$$+##@Oooooo+%;;;;;;;;;;;;;;-==&%$=$+$=;--===*&--&$$@oo#$$$%$+OOo,,,",
",,,,,,,O@$%%%%%&-;;&*&&*=&%@+o+$&$oo++oo+ooo....o$%&$@@#@##Oo++oo+&;;;;;;;;;---;;;;-$@%=&oo&-----=&*--*&+oo@$$$$%$+O,,,,,",
",,,,,,,,+$%$$%%%*;-&-&&&=&$@Ooo&%%#ooooo+#o.Xo.ooooooo@@#+oo.oooo++%-;==;;;;;;=;;;;&$&;;;*%=====;*&%***%#+%%$%%%%$@O,,,,,",
",,,,,,,,O$&%$$$%==-==*&&*&%#OX.o+$$oooooo+o.oo.@ooooo++@#@@@+o+Oooo+%**;-;;;;&%=;;;;&=;;;=&&&&&&*=&$$$+#&#%%%%%%%$#+,,,,,",
",,,,,,,,o@%%%$%%&*=;=&*&&&&%o...o#@o+@o.oooo...oooooo+++@+@++@#@@+ooo&*=%&=-=$@*;;;;;=*;;;-&&%%%%&&$$@o%=%%%%$%%$#@@o,,,,",
",,,,,,,,,+$%%%%%&===%%&&&==&%oooooo++ooo....oXXoooooOOOO++@@@@@@@@@oo+&$#%*==&;;;;;;;--:;;-&%%$$$%%#+oo%&&%%$%$%$#@@+o,,,",
",,,,,,,,,O@$%&%%&&*=%$$$%&=$@o+ooo#oo@@o.....ooooooOOOOOO+##@##+@@$#+ooo&%+%&-;&*;;;;-&;;;=&%$#@@###ooo%*%%$$%$%$#@+oo,,,",
",,,,,,,,,,+$$%%%&*&*$++@$%&%oooo%&&&$#+oo....o++#@+OOOOOO+@++$$##@@@$%+oO++$==*$&%;-;=%====*$#+++###@@$&&&%%%%#%$#+oo,,,,",
",,,,,,,,,,o$$$%*&%%%$%@+@$%&%$ooo@&$+oo+++oo+@++@+oOOoOOoo+@$$%$%$#$%%%+..$%&***$$*;;;&&&==&%+oo+o@$$@#%&%$%%$#$#@+o,,,,,",
",,,,,,,,,,,+#$%&*%#+$%+ooo@$$%@oooooooo+ooo$$#++OOOOoooOOOO+$$%%&&%%%&&%o..oo+%%$$=:;=*-&*&*#oooo@&@o@&%%%$$%$$$@@o,,,,,,",
",,,,,,,,,,,o+#%&&$$#$$oooo+o+@$+ooooo.ooooo$#@+OOOOOOooooOOO#$$%&&&*&&%$+o..Oo.oo@&*&&&%%&&$oXoo+%&%+%&$$$$$$$$##+O,,,,,,",
",,,,,,,,,,,,o+$%&@+#$#oo++#oo$%ooooooo..oo+##+OOOOOOOOooOOO@#$%%&%&&&&$#@ooooo..Xoooo$+++@oX..o+$&&%**&$##@$#$#@+O,,,,,,,",
",,,,,,,,,,,,,o+@++oo$$++++$$@+++oooooo+ooooOoOOOOOoOOOOooO+@$$%&&%&&&$##$@oO++o..... .o..Xooo..O$%%$&%$@@+@@@@++O,,,,,,,,",
",,,,,,,,,,,,,,oOoo++#%$$@$$$#+oooooooo@+oo..oooOOOoooooooo@$$$$%%&&&$@O#$$+oooo+$o.X...oo+++@ooO@o@+$$#@+++@++Oo,,,,,,,,,",
",,,,,,,,,,,,,,,ooo+oo$$$$%#@##+o+oooo+++oooXoooOOooooXooooo##+#$#%%$$#O+#OOoooo+%$##$$%&$+o+#ooo+o++o++@+++oOo,,,,,,,,,,,",
",,,,,,,,,,,,,,,,,oooo+++@$++#@+++ooooooooXoooooOOooooXooooo@#++@+##+O@oOOOOo.oo#%&&&&&**%ooooooo.o+oooo++ooo.,,,,,,,,,,,,",
",,,,,,,,,,,,,,,,,,,,,oooo++oo+oooo,,,,,,,,,,oooOooo,,,,o,oO+@@++@@+ooooOOOOo,,o#$%&&%&==&+ooo++o,,ooooooOo,,,,,,,,,,,,,,,",
",,,,,,,,,,,,,,,,,,,ooooooooooo+oo,,,,,,,,,,,,ooooo,,,,o,,,ooo++oo+Oooo,oOOOoo++@%%&&&&&*&$++oooo,,ooooo+oo,,,,,,,,,,,,,,,",
",,,,,,,,,,,,,,,,,,,ooo+ooooooooo,,,,,,,,,,,,oooooo,,,,,,,ooooo++Ooo,,,o,oooOOo+%%%%%&%%%$#@+@+o,,,o,,ooo,,,,,,,,,,,,,,,,,",
",,,,,,,,,,,,,,,,,,,,,ooooo,,,,,,,,,,,,,,,,,,,,ooo,,,,,,,,,oo,,ooooOo,,,,o+ooooo$$$$$$$$##++##@o+,,,,oooo,,,,,,,,,,,,,,,,,",
",,,,,,,,,,,,,,,,,,,,,,,oooo,,,,,,,,,,,,,,,,,,,o,o,,,,,,,,,,o,,,,ooo,,,,,o++o,,oo+++++@$#+o++o+++o,,ooo,,,,,,,,,,,,,,,,,,,",
",,,,,,,,,,,,,,,,,,,,,,,,,,,,,,,,,,,,,,,,,,,,,,,,,,,,,,,,,,,,,,,,,,,,,,,,,ooo,,ooooo,oO#$+ooOOOooo,,o,,,,,,,,,,,,,,,,,,,,,",
",,,,,,,,,,,,,,,,,,,,,,,,,,,,,,,,,,,,,,,,,,,,,,,,,,,,,,,,,,,,,,,,,,,,,,,,,ooo,,,,,,,,,,oOo,,,,o,,,o,,,,,,,,,,,,,,,,,,,,,,,",
",,,,,,,,,,,,,,,,,,,,,,,,,,,,,,,,,,,,,,,,,,,,,,,,,,,,,,,,,,,,,,,,,,,,,,,,,,Oo,,,,,,,,,,,,,,,,,,,,,,,,,,,,,,,,,,,,,,,,,,,,,",
",,,,,,,,,,,,,,,,,,,,,,,,,,,,,,,,,,,,,,,,,,,,,,,,,,,,,,,,,,,,,,,,,,,,,,,,,,oo,,,,,,,,,,,,,,,,,,,,,,,,,,,,,,,,,,,,,,,,,,,,,"
};
