/* XPM */
static char *_526_e512b67e7fd12febcac55412c583cd274ca44c8e02adc3d63bef3ef344934916[] = {
/* columns rows colors chars-per-pixel */
"117 106 17 1 ",
"  c #6D3800",
". c #824100",
"X c #924900",
"o c #A65100",
"O c #B65504",
"+ c #CB5D04",
"@ c #E77938",
"# c #EB8641",
"$ c #EF9249",
"% c #F3A251",
"& c #F3AE5D",
"* c #F3BA65",
"= c #F7C775",
"- c #F7D37D",
"; c #FBDB8E",
": c #FBE396",
"> c None",
/* pixels */
">>>>>>>>>>>>>>>>>>>>>>>>>>>>>>>>>>>>>>>XXX>>>>>>>>>>>>>>>>>>>>>>>>>>>>>>>>>>>>>>>>>>>>>>>>>>>>>>>>>>>>>>>>>>>>>>>>>>>",
">>>>>>>>>>>>>>>>>>>>>>>>>>>>>>>>>>>>>XoO+OoX>>>>>>>>>>>>>>>>>>>>>>>>>>>>>>>>>>>>>>>>>>>>>>>>>>>>>>>>>>>>>>>>>>>>>>>>>",
">>>>>>>>>>>>>>>>>>>>>>>>>>>>>>>>>>>XOO#&&&#OXX>>>>>>>>>>>>>>>>>>>>>>>>>>>>>>>>>>>>>>>>>>>>>>>>>>>>>>>>>>>>>>>>>>>>>>>",
">>>>>>>>>>>>>>>>>>>>>>>>>>>>>>>>>.XOO#&=--*&#OXX..>>..>>>>>>>>>>>>>>>>>>>>>>>>>>>>>>>>>>>>>>>>>>>>>>>>>>>>>>>>>>>>>>>",
">>>>>>>>>>>>>>>>>>>>>>>>>>>>>>>>.XoO#=-=-;;;-%OX...>>>>>>>>>>>>>>>>>>>>>>>>>>>>>>>>>>>>>>>>>>>>>>>>>>>>>>>>>>>>>>>>>>",
">>>>>>>>>>>>>>>>>>>>>>>>>>>>>>>>.XO+$=-;;;;;-*@X.>>>>>>>>>>>>>>>>>>>>>>>>>>>>>>>>>>>>>>>>>>>>>>>>>>>>>>>>>>>>>>>>>>>>",
">>>>>>>>>>>>>>>>>>>>>>>>>>>>>>>..o++@%*-;;-;-&@o.oOoX.X..o+++X...XXXO#@++@#@O>>>>>>>>>>>>>>>>>>>>>>>>>>>>>>>>>>>>>>>>",
">>>>>>>>>>>>>>>>>>>>>>>>>>>>>>..X+++@#&*---;;-*@X..oXXX.o$%&*&$#&*%#%*&%$$$$#X>>>>>>>>>>>>>>>>>>>>>>>>>>>>>>>>>>>>>>>",
">>>>>>>>>>>>>>>>>>>>>>>>>>>>>  Xo++#$%&&&=-===-;;-#OXX.X+&*****===-===***=&**$$+>>>>>>>>>>>>>>>>>>>>>>>>>>>>>>>>>>>>>",
">>>>>>>>>>>>>>>>>>>>>>>>>>>>> .O@*=---=-=**=&&*-;;%OoXoO%*=====*=*----=*&%$&&&&%+>>>>>>>>>>>>>>>>>>>>>>>>>>>>>>>>>>>>",
">>>>>>>>>>>>>>>>>>>>>>>>>>>> .O@=--;-;-;-=&%$$%$&&###+#==*===*=&===---==*&&&*&&&&#>>>>>>>>>>>>>>>>>>>>>>>>>>>>>>>>>>>",
">>>>>>>>>>>>>>>>>>>>>>>>>>> .O%--;---;--;-;-&$$@@#%&&&====---=============&**===&$@>>>>>>>>>>>>>>>>>>>>>>>>>>>>>>>>>>",
">>>>>>>>>>>>>>>>>>>>>>>>>>>.o@=--;------=-==*#@#@$&*===**&=====-==-========&&====*$O>>>>>>>>>>>>>>>>>>>>>>>>>>>>>>>>>",
">>>>>>>>>>>>>>>>>>>>>>>>>> X+$-;--;-;;-*&=&$$$&&&&*====--=*==&====-=--===&#$#&===&%@>>>>>>>>>>>>>>>>>>>>>>>>>>>>>>>>>",
">>>>>>>>>>>>>>>>>>>>>>>>>>.O#-------;-*%$$%$%&&&*=---;;-===*=*&=*=----==*%&&%%=-&$&$+>>>>>>>>>>>>>>>>>>>>>>>>>>>>>>>>",
">>>>>>>>>>>>>>>>>>>>>>>>>XO@=---==--==*&&$$%=**---;;;;;;-====&&*=-=-;-===&&%#@&*$$$%$o>>>>>>>>>>>>>>>>>>>>>>>>>>>>>>>",
">>>>>>>>>>>>>>>>>>>>>>>>>o+*---&**=====;*#$&&*=-;;;;;;--=====-==----;;=*===*$#&&&&&$&$+.>>>>>>>>>>>>>>>>>>>>>>>>>>>>>",
">>>>>>>>>>>>>>>>>>>>>>>>o@$*---&&*==**=-&&*=*=-;;;;---;---=*=--=====;-*==--=*&&*&&&$&&#+>>>>>>>>>>>>>>>>>>>>>>>>>>>>>",
">>>>>>>>>>>>>>>>>>>>>>>>+$&=-=*&&&***&&=====---;;;--;::;;;-=--;;-===--***=-=**==&&%%%%&@>>>>>>>>>>>>>>>>>>>>>>>>>>>>>",
">>>>>>>>>>>>>>>>>>>>>>>X@$&=--*&***&%%&=====-;;--=-;;---------;;-======--=%&&===*&**&&&@>>>>>>>>>>>>>>>>>>>>>>>>>>>>>",
">>>>>>>>>>>>>>>>>>>>>>>+@*==-=&*=**-&&**===-;;---=-;;--=--==--;;-==*&==-=*&&&===****%&$#.>>>>>>>>>>>>>>>>>>>>>>>>>>>>",
">>>>>>>>>>>>>>>>>>>>>> +%===--**===*&***==-;;-=;;;;--;-=-----==-----===*============%%%$+X>>>>>>>>>>>>>>>>>>>>>>>>>>>",
">>>>>>>>>>>>>>>>>>>>>>.#&=====*==-========----;-;;;;;;;-;;=***&=--=&===&==*&&==--===*&&&%@O>>>>>>>>>>>>>>>>>>>>>>>>>>",
">>>>>>>>>>>>>>>>># >>>%-===&%*=--*&*==--===---;-=;;;;;;;--*===*=====--=*==&$*--==*&==*==&%#.>>>>>>>>>>>>>>>>>>>>>>>>>",
">>>>>>>>>>>>>>>>>>>>> @--*&$$&&&*&**&*=-=--;===---;=---===*%%===--==*-=*&&&=*=====&===**&&$@+.>>>>>>>>>>>>>>>>>>>>>>>",
">>>>>>>>>>>>>>>>>>>>> O*=&&%%$&$%&*=======;-=====;==&==*====**==-=====-==*==-=*======&**&%$#@+>>>>>>>>>>>>>>>>>>>>>>>",
">>>>>>>>>>>>>>>>>>>>>>O&**$&&&&&$$==========&&====&==**=&&*==*&====*====*=*=====*=-=**==*&&&&@.  >>>>>>>>>>>>>>>>>>>>",
">>>>>>>>>>>>>>>>>>>>> $*%$#%&***&&--*=--===&=&=&&*%---===**=-&%*=&*&&*=*=*&====-==&%%&&*&&&*&$o. >>>>>>>>>>>>>>>>>>>>",
">>>>>>>>>>>>>>>>>>>>>>X$%@+$&*==&&*=&*--==*&&&*==$*-==-*=*=-=&$&*&%%&=***=*&---=-*&$%&%$%&***&%X.  >>>>>>>>>>>>>>>>>>",
">>>>>>>>>>>>>>>>>>>>>>>.++&*&*=-*=*=&*=-=&&&&&*=$$&&**===-&=-*%%**&&**&$$&=*=-====&%&&&&*&==*&&&@@+>>>>>>>>>>>>>>>>>>",
">>>>>>>>>>>>>>>>>>>>>>> o@%%&====*=====-=&&*=&&=$&%$$$&====*==&*&%&%==&&&&==*---**&&*%%$%&*&*&&&&&$+>>>>>>>>>>>>>>>>>",
">>>>>>>>>>>>>>>>>>>>>>  X%@&&*==-;-====--=*&=*&*$==%#$&*======&=%&$&=&&*======--=&&&$$%@&&&&*&&&&*&$+.>>>>>>>>>>>>>>>",
">>>>>>>>>>>>>>>>>>>>>>  X@+&=*===-=====-;;=*-==%&==*&=========*=&&*==&%%@&%*=&=-=&*&%#@$&%&%=&&&***&&%@>>>>>>>>>>>>>>",
">>>>>>>>>>>>>>>>>>>>>>  .O#&&=========-;;;===-==**&*==----=-=*=**&===*$$$%%**&---=&%%%$&$$%&=&&**%**=&$@.>>>>>>>>>>>>",
">>>>>>>>>>>>>>>>>>>>>> .o@&*==*=======-;---;=-===**&=====-*%*&=*&*-==*%&&%&&*&==--*&&&&$$$***&&$*%*==&&$O>>>>>>>>>>>>",
">>>>>>>>>>>>>>>>>>>>>> XO$&=*&===**==--;---===*==*=&*===-=*&==--=====&%$&&=====---=*&%$#$&==*$*=&&***&*&@>>>>>>>>>>>>",
">>>>>>>>>>>>>>>>>>>>>  X+$*=&&===*===-----=*=====*=====*====-=----==*$&&%&=-====-;-=*&$@&&*==&%&&**&***&@>>>>>>>>>>>>",
">>>>>>>>>>>>>>>>>>>>> .O$&&&*==-***==----==-;-=-====-=&===*=&-=-=====&%&%&--===%=*=-==%$%%&=*=$%*&&**=&&$X>>>>>>>>>>>",
">>>>>>>>>>>>>>>>>>>>> XO#%&*=====*===-----;--;=&*&=-=**==*&*=&&======*&*===-==$@&===-&$==&&*&=$%&%%*==*&$O>>>>>>>>>>>",
">>>>>>>>>>>>>>>>>>>>> O+@%&&=-==-=&==----=*=*==&=*-===*-=&%*&&&*====*======-==-$*&==-=*&&*&%&&#&&%&*===$$O>>>>>>>>>>>",
">>>>>>>>>>>>>>>>>>>> .O@#$&*====-==------===*&&&&&&**&**=&$**&$&==***===-==*===-&%*=-===&&%*&&&=%&&&&&*#%+>>>>>>>>>>>",
">>>>>>>>>>>>>>>>>>>> .O@$&&=======&&=-;--=====*&&*&&&&&&&&$&&#%*=**==*==*==*==*==&-=---=*&&$*&&&$%&**&&#+X$*%%+>>>>>>",
">>>>>>>>>>>>>>>>>>>> o+$%&===&&&%*&=*;==----=*==*&&&&%*=&%$%%$&***===&&=*=======**=----=====&&$%%%&=&*&$OO$%=&X>>>>>>",
">>>>>>>>>>>>>>>>>>> .O$$$&&%$%%$$&&*%$*=&*==-====&&&**&&#$#$@$%&****&%&=**=====-&*=----====*&*$#&&*=*&&@OoX@**+>>>>>>",
">>>>>>>>>>>>>>>>>>> .O##&**$#@+###&&+$=&%&&=-;-*&&&&$$&#$%#$@#%&&==&$%=*=***=====&-===--=&=&&=&&%=====*%@Oo@=-&.>>>>>",
">>>>>>>>>>>>>>>>>>> .O@$&*&$$$@#@#%&@$#$&$&---;=&*%$@&@+@@@#@#$&&=*$&&&=*=*&=*=-==-=-=--==&&&=&&&-=&==*&$+O$==*o>>>>>",
">>>>>>>>>>>>>>>>>> +@@&%&&&%$&#@@#&&$&$$$%--=*--***%@$$@O+&%&&&&**&&&&*====*==*=---*==--==&&&=&&=--====*&$$@*-=$>>>>>",
">>>>>>>>>>>>>>>>> .@%=*$&&*$$&@$@$&&%%$%$%--&=-;=&%&$#$$@+O&&*=*&%$&&*=*****==&*=-==----==&&&&%&=--====*&=%$=-*%>>>>>",
">>>>>>>>>>>>>>>>> O$=*%$&&&$%$#+#&%%&#@$#%-=*=-==-&&=&$*%++&**=&@$#%*=%======&=====-=--=-==&&*&&---===**&&&$=-=@>>>>>",
">>>>>>>>>>>>>>>> O&=*&$&***&$&&$#&&%&$$*&&-**=-===&&&%&&*$+%&%&$+@$&&&&*&&$&&&&=*===*=--===**==&---==*%&$@@@&==+ >>>>",
">>>>>>>>>>>>>>>> +&*%&$&&&=*=&=$&*%$&%$%***===&=*&&&&%&==%+$*%+++$&*&&$&&&&&&&&&===*&*=-=*-=*==$=--==*%%$@+%-*&O>>>>>",
">>>>>>>>>>>>>>> %@$*$&&$%*=**===&*%%&&%%&=====*==&&*==&*&%@@*%@+*&&&&#@&&$$&&$&*&*-=&&&*====*==%&===*&%&$%+OO$$.>>>>>",
">>>>>>>>>>>>>>>O&=%&&*%%%*=*====&&&$&&&&*=--=======&==&&&&$++++@&$%&%@$%%$#%#&*=*&==*&*=*===&==%=====*$$#+@+oXO >>>>>",
">>>>>>>>>>>>>>>.$==$$&&$&==**&&*&%&$&*=&=---===*=-=**=&$&@#@+$$$&$@&&@%&%@$@%&&%&&==**%%&**=*&&$=====&%$@O@O  .>>>>>>",
">>>>>>>>>>>>>>  o+%$@%=$*===&&=&&&$%***=------==&*===**$@X@@*$&$&*$@@#@@*&%$&%$$%&&*&&&@$&*=*&&%*====&%%@Oo.  >>>>>>>",
">>>>>>>>>>>>  oO##++@$%@&**=*&&&*&&*&==*=----=*&&&&**&=%@#$&=**$&==$%#@$===&&&***%&&&&$@+$===&%$&=--=&$%@+@o >>>>>>>>",
">>>>>>>>>>> .X#=--$@$*$#&**&**&&&&&=**===-;--;=&&*%***&%&&%&**&$$**&#@$&*%$**$#%&**%$==@@&==&&&$@&=-=&$%$+OX>>>>>>>>>",
">>>>>>>>>> .o+&--=&=-*$&&*&&&=&&&&&==*=&=-;;-==*=*=**=%&&&=&*=$+&*=***==&&$&=&&&%&*====%&===**&%$@&--*%$$OX >>>>>>>>>",
">>>>>>>>>>..o@===*====$&&&&&&&*&%%%=&&**==----=-=&%*&&$$#&**&&#$&&=*%*%$&$@%&&&%***&&==&*=====&$#@&--*&#$OX >>>>>>>>>",
">>>>>>>>>> XO+%-----==&&&%&&%$&&$$*=*&*&===-----=&%*=&*@$%*&&&$*==**&%%&%%@#$&%&&*&*==%&*===&=&$@*--==$@@Oo >>>>>>>>>",
">>>>>>>>>> .O@&----==**&&$&&&$&%$@=&=&&*===--=*-=*&&&&&$@&$&&$&=***%%&@@#@&#$%&*%&&*=*&&&=====*%$*=*&=&#+oX >>>>>>>>>",
">>>>>>>>>>..+$=----=&&***&%%&%$%$#&*=&&*====-=-=*=&*$&@$@$&&%&&=&**%#$$%+$%%&&%=&=&&**%&&*&*==*&$&=*&$&$+o. > >>>> >>",
">>>>>>>>>.Xo+$--;--=&&**==&%&$&$%%&==*%&*&&=-====&&%@$#+%$%&&$@&==*&%@%&$$$+*%&*&****&&&%&&&===&$#=&&$##Oo.  .     >>",
">>>>>>>> oOOO+$=---=&***===&&$$&%&%*=*===*%%&*=&=&$&$%@O+@$$$%@$&=*&&$$&=**%&$&&**=&&$*%&=&==*&*$$$&&$$@OXX......  >>",
">>>  > .XO+O+@%&----=***===&*%&*=*&&*&&===&&&&&&*&@&**&@@+#+$@+#$*&*&%$&%%&&&*&&=*&**&&$**&==*&$&%$%%%$+OXO+$+@+X. >>",
">>> ....oO+++$&*&&*=&&***===*&&=**&&*$*&**&$*#%&&&$$%&%@@++@&@o+@$$&%##%&=*&&$&&*&&&$&*#$%$==*&%*%%#%&#+OO++++&&O. >>",
">>>>..ooOO@&&****&*&&&*======%*==*&&=&&%&&%$&&&&&%#$&&@O++#O%$+O@#@%#@%*&%=&$$&&&&=*=*&#$#@&=&%&$$$$@&%+OOOo+$&&&&.>>",
">>>  .oO++&=**=====*&**====--&&&===%===%%@$#%&%#%%&%%%@@++#@OO#+++@*&%$&%%&&$&%&$&=%&$$%&@+%=&%$$+&$%%$O+OOO@$$+@@.>>",
">>> ..O++#=================---=&===&==-%#$@$@%$#$$$&%$@+$@+#++@+O+#*%#&&&&*&&%&&%&**====&+@&=&$#@@*&%&$@@@++$@$%+#X >",
">>> .XO+%*&&&======&&**===-----==--=**=$#$$+#$$#@O@$$+o@o@@$$$+&$%&*&$&&&=&*&&$&&**=*&*=&@+#&$$#&@&*%%#@+@@@+#$&&**@ ",
">>> .o+&=&=*=**====*&%&=**=-----=---=**&%$@+@$##@%@$$$OX@+O##@O@%*&*=&&&*%*&&&**&&&=&&*=%@+++&$$$&*&%%%@@@@@@@$&**%@X",
">>> .o@*==========&&&&%&==*==-==----;-=*#$+#&#@@@@@+O@+++$%%#&&%$$$&&&&&$%&&==*%&$#&*&&*&@@$#**$$==&&%$#@@$@+#+$&*&# ",
">>> ..O+%=*=*===&*&$&**&*&&*====----;-=*%%$%$$%++@+@+O@&&%***&*==**&%&&%&&&*=*&%%@+@=&&&$@+&&&=#===&&%$#@@$*&=&#$&$&+",
">>> ..o@*=&=====*&*&**&*=&&*====-;;;;--&$&&&&&&+Xo@#@$%&*==-===-=**&&&&&$$&**&%$@+++*&&%&#$&*===-==&%%#$#$&#++@&&%O. ",
">>  .XO+&*&=*=====&*&**==&***====-;;;;-&%&%&&=&+Ooo+@@%%&=======*=====%$%%%&&&&&%$+$**&$&@$$&=--==**&$&=#@$@+OO&==%.>",
">> ..Xo#&&*&**&*===*&**==&&&*&==-;-;;--=&&&$*&*@oOXOX#&*=&**===*=====-&$@$&&&%%$%&$@==*&%@@$&===*&&%$##@++@&@OO+=#o >",
" > ...X#**==&&&&&*****&==&*==&===-;;;-===*$&=&*%O..XX$&=*%&&*==*=*====*#$#%$$@#$&%+@&==*&%&&&*==&&&%%##@+O+OOooXO. >>",
"   ...Xo@*&&&&&&&&*&&%$&&&&*=*==--;---=**==*&&*%@+X.&***&#$&&*&*=*=*&*=$%*&#$@$$%@+#%=*&$&&&&&**&&&%%&#@++OOooX.. >>>",
">  .....+&=&%&&&***&&%$&&&**=====--;--=&&%%&&*&&@+o@&&=%$#@$%%&&&==&*=*&&*=&@$%$@##%*&&*%*&&&&&&&&&&&%#@++OOoXX.  >>>",
">>>  ...X+*&%&&&*&*&&&&&&=*====&==---=&&%#&&&*&*%@@##&*%$$#%%&&&&=&#&**==*=&&$$+O@%**&$%&&=*=&&%%&&&&%$$++OOoX.. >>>>",
">>  .   ..o++$%&&&=*=*====*===*===---=&%##$$&&***&&%$%%#O#&%%$&&&&$%**&====*&$#@#@&&&&&$&%&===*%%%&*&%#@++OOXX.  >>>>",
">>  .......oO@$$&*=***&======*&=-==--=&%$+@#$***&*&%&**###&%%#$=-=&$%&%=====&#$$&&$%&$===&=====*%$&&&$+++OOoXX. >>>>>",
">>>    ....o@+$$&%**&@$&***==&&====--=*&$+@#&**=*====&&%$@$%%**=====&&&===*&@@@$%*&&*===*&==***&*$&&%#+++OOoX.  >>>>>",
">>>>     . .+#+@$&*&$$#&&%&**&&*====--=*%$#$%&======***$$$&====*=========**&$@$&$&=*====*&&&&&&&=&&*&$@++OOoX.. >>>>>",
">>>>>>>     o@+@$$&*%&$%$&&*&%$%**====-=&%$$$&&*=**&**=$@$&==*===========&$##@$%&**&&&**&$@$#%&*=-=&&#@+OOoX..  >>>>>",
">>>>>>>>>   .O+O#$&&&&&%&&&%$$@$$&======&$@@$%%&&&&&&&==$&&**======*======%$$$$**=&&%&&&$@@#&&$&====*$@++Oo..  >>>>>>",
">>>>>>>>>     .O+@$$$$$#$$%%$#$#&&**===**&@#@###$$&**&&=%&*&&***&&*&*&**&=*%%$$**&&$%$&%$#$%#%%===-==$@+OOX..  >>>>>>",
">>>>>>>>>>>   > XO+$@#$%%&$$%$#$&&**==*%&@+@+O+#%&&&$&&&%%*%&&&%&****&&&%&&&%$$=*&#$$$#@@@&&$#@%*=*=&#@+Oo..  >> >>>>",
">>>>>>>>>>>>>    .o#$%&&&%$+@$&&&**&**&$#$@+OO+#%&&%$$&$#@#$&%&&&==&&*&$$%&%%&&*&%@##@@@+$&#@+@%%==%&&$@+XX  >>> +>>>",
">>>>>>>>>>>>>>>    >oO@@$%$#%$&&&&&&&$$$%&%&&&=*&%&$$#$%##@%&&======&**%$%%#%&&*&$%$@@++++++++@#$&*====%@O. >>>>>>>>>",
">>>>>>>>>>>>>>>>>>>    .o+$###$%&&&&%$##$&&&*====&==$%@@%#%&*=========*&%&$%$&&&&$=&@++OO++++@@#=*%*===%@O. >>>>>>>>>",
">>>>>>>>>>>>>>>>>>>>>    >.O####$$#$#@@@$***===*=*=&#%#%&$&**====*======&&%$@$&&%#&$&+OOO+++++++@%&=&&#@+O. >>>>>>>>>",
">>>>>>>>>>>>>>>>>>>>>     >>.XOOO#$@@O+++&***=**=**&#@&&&&========*=====*&$#$$&$&#@++OOOO+O+++++$==&$#@+Oo. >>>>>>>>>",
">>>>>>>>>>>>>>>>>>>>>    >>>>>  X+++XXXXX$&*&***=&*%#&%*&&*==*&**=*======&%&%%%#%@+++OOOOOOO+OO++@@@@@++o.. >>>>>>>>>",
">>>>>>>>>>>>>>>>>>>>>>>>>>>>    >    .. .@&*&&&&***&#&**&%&=*&&&&&*&==&&**&%%%$#&*@++OOOOOO+oOOOOOOoO+OOX. >>>>>>>>>>",
">>>>>>>>>>>>>>>>>>>>>>>>       >   >    .+*&&&$%%&%$@%&==*&*=&&%*&&&**&&&&%$$$@++#%++OOOOOO+XXooOXoX.XoX.  >>>>>>>>>>",
">>>>>>>>>>>>>>>>>>>>>>>>      .        > +&%$$$#@%$@#$&*==%&*&&&&$$&**&&&$%###@++@#$++OooOooOX...X....  .  >>>>>>>>>>",
">>>>>>>>>>>>>>>>>>>>>>>>>>>          >>>> ++#@@@+$#$$#%&**%&&%%%&&&&*&&&%%$#@$@+++@##OOoXoXoOoX. .    >>>>>>>>>>>>>>>",
">>>>>>>>>>>>>>>>>>>>>>>>>>>>> >  > >>>>>>> ..O+++#@$%$@&&&%%&%%%&$%%&&$&&%#++@@+++++++OoXXoXXXo >>>>>>>>>>>>>>>>>>>>>",
">>>>>>>>>>>>>>>>>>>>>>>>>>>>>>>>>>>>>>>>>>>>.XXoO+@@$$@$$$%$@$#&&%%&&$$*&$@++++++++++O+oXX. .. >>>>>>>>>>>>>>>>>>>>>>",
">>>>>>>>>>>>>>>>>>>>>>>>>>>>>>>>>>>>>>>>>>>>>>>XooO+$$$@#$$$%%%$&%&%$&&&&#++++OO+++++O+o...  >  >>>>>>>>>>>>>>>>>>>>>",
">>>>>>>>>>>>>>>>>>>>>>>>>>>>>>>>>>>>>>>>>>>>>>>>>XoO+@#@@$$@@$&##&$$%&&$#+OOOoXoOO+OOOoXX.  >>>>>>>>>>>>>>>>>>>>>>>>>",
">>>>>>>>>>>>>>>>>>>>>>>>>>>>>>>>>>>>>>>>>>>>>>>>>>>>>O++@$%&*&&&&%%%%%$#++OooXXXoOOOOooXX  >>>>>>>>>>>>>>>>>>>>>>>>>>",
">>>>>>>>>>>>>>>>>>>>>>>>>>>>>>>>>>>>>>>>>>>>>>>>>>>>>>>>+##$$##$%%%$%$@++OX>>>>.oOOOOooX.  >>>>>>>>>>>>>>>>>>>>>>>>>>",
">>>>>>>>>>>>>>>>>>>>>>>>>>>>>>>>>>>>>>>>>>>>>>>>>>>>>>>>>++++OOOO##@@++oX.>>>>>>>XooXX.   >>>>>>>>>>>>>>>>>>>>>>>>>>>",
">>>>>>>>>>>>>>>>>>>>>>>>>>>>>>>>>>>>>>>>>>>>>>>>>>>>>>>>>>oXXXXXoOOoooX >>>>>>>>>>XX>>>>>>>>>>>>>>>>>>>>>>>>>>>>>>>>>"
};
