/* XPM */
static char *_2752_66ffa497f274000529feb8f441248aafcdf790d46407b2265eee794b9b328aae[] = {
/* columns rows colors chars-per-pixel */
"55 50 14 1 ",
"  c #593000",
". c #6D3800",
"X c #824100",
"o c #924900",
"O c #A65100",
"+ c #B65504",
"@ c #CB5D04",
"# c #E77938",
"$ c #EB8641",
"% c #EF9249",
"& c #F3A251",
"* c #F3AE5D",
"= c #F3BA65",
"- c None",
/* pixels */
"------------------ - ----------------------------------",
"------------------ - ----------------------------------",
"-----------------..   ---------------------------------",
"-----------------..   ---------------------------------",
"-----------------..    --------------------------------",
"----------------- XXXXoX-------------------------------",
"-----------------.oooOO+.------------------------------",
"-------------   .XoOO+++X..----------------------------",
"---------- XoooXXoOOO+@+XX. ---------------------------",
"----------o++OOoo+O+++@+OO. ---------------------------",
"----------o++++OO+OO+@@@++.-----   --------------------",
"---------.o+@@@@+@++@@@@#+X ----. .   -----------------",
"--------.oO+@@@@@@@+@@##$#X ----XoX   --  -------------",
"---- .  Xo++@@@#@@@+@@##%#.-----XOX   --.   -----------",
"-----XoXXoO+@@@@@#@+@@+@$o----  XO.   --     ----------",
"-----XooXoO+@@#####+OO.. -----.X++X..    ..  ----------",
"---- XooOOO+@####$#+X.------- .o@@o...   ... ----------",
"-- - XooO++@@@@#$$@o. -------- X+@+XX.  .X...  --------",
"--XXXXXOO++@@@@#%#+O.-----.---- o++X..  .XX...  -------",
"-- ooooOO+@@@@#$$#@+.-----X --- X++X... ..X.X..   -----",
"---XoOooO+@@###$$$#@ -- oXo.--- .O+X...   ..o..-  -----",
"----oOooO+@@###$%%%@XoX@%#+X -- XoOX..    ..oX -  -- --",
"-. -XOOXXO+@@##$%%%%@#$%*%@o.--.O@+oX.  .-.XX.-- .    -",
"- X  O+++O+@@##$%%&*%$%%*%@O.  .@$@X..   - .X -     ..-",
"--.XXXO++@@@@##%%%**&%%%*&#+.   O#+..  - --   - --- X.-",
"---ooXO@@@@@@##%%&**&%#@*&@o  .  Oo..      ..   ---.oX-",
"---XO++@@@@###$%&***%%$@$#X. .X.-...       ... . - .oo.",
"-- Xo+@@@@@###$%&***&%&#+X...Xo.--- . ... ......  .OoX ",
" -.Xo+@@@@@#$$%%&***%%%*@ X+OX+X - ..XX....XX...  XoX--",
"- .Xo++@@@@#$%%%****%$$&#Xo##@@oX .o++OoX.XXX.X.. X.---",
"--.Xo+O+@@@@$%%%&***%$#%&@#%%#@oo.o@#@+oXXooXXXXXX ----",
"--.XoOO+@@@@$%%%&***%$##%#@%##OX+@#%%#+OXXoOOoooXo-----",
"--.XOO++@@@@#%%%&***%$##$##@@+XX+%*&$#@+ooO+++OOo.-----",
"-- oOO+@@+@@#$$$%****%#@#%%#@OXO@***%$@++O@@@@+O.------",
"---.OO+@@@@@@###%*****$##%%%%@+#%*=*&%@#@@###@@X-------",
"----Xo+@@@@@@##$$%&****%%&&**%%&*==*&%##@#%$#+o -------",
"-----XO@##@#####%%%&&*****&*****===*&%$##%%$#+X--------",
"------o@#$$#%%$##%%&&**=***&***=****&%#$#%%$#O---------",
"------.@$%%%%&%%%%%&***=********=***&&%%%%%#@X---------",
"-------X#%%%%&***&&************=****&&&%%%%#+----------",
"--------X+#$%&*****************==******&%%$@.----------",
"--------- @$%&&*******=***=******=**&**&%%$+ ----------",
"----------.+%%&&*****=***=*====****&&**&&%#o-----------",
"----------X@$%%&*************==***&&***&%#O -----------",
"-----------X@#%%&*********===****&%%**&%#O ------------",
"------------.@$%&************=********&$+ -------------",
"------------- o#%&&*******************%@X--------------",
"---------------.O#%%&*****************$o---------------",
"---------------- .o#%&#%%&&%$%***%O+%&+.---------------",
"-------------------   .......XOOo..    ----------------"
};
