/* XPM */
static char *_553f4fb53b14af7ada2c72dd96bb3db[] = {
/* columns rows colors chars-per-pixel */
"85 24 3 1 ",
"  c None",
". c #341C00",
"X c #452800",
/* pixels */
"                      .. .                                                           ",
"                      ..  ..                                                         ",
"                                                                                     ",
"               ......                      ...............................      ...  ",
"           .....X       ..                 ....... .       ....X........          ...",
"          ......     .... .   ....    .... ....          ...........XX. ....         ",
"          ....      ....                               ...  ... ................     ",
"         ....     ....   .  .  ....                      ..  ..   .XXXXX..XX.... ..  ",
"        .. .     .....     ...     .                      .        ...XXXX.........  ",
"          .     .  ...      ...   ....                              ...XXX..         ",
"   ....X..      X..       . ..                          ..    ..      .......... .   ",
"   ......               ...       ..                     .     .. ..  ......X...     ",
"......XX.                                                       .....  ....X.......  ",
" . ...X..                                                       ...... .XXXX....     ",
"     ....                                                              . ....X.......",
"     ..                                                            ..  ............. ",
"       ..                                                            ....... ....... ",
"                                                                     ..............  ",
"        ..                                                            ........  ...  ",
"                                                                      ...... ..  .   ",
"                                                                      . ..  ..       ",
"                                                                       . .           ",
"                                                                     .               ",
"                                                                      . .            "
};
