/* XPM */
static char *_6513_bc96fefb136b7c09e75abd6d7fa4ba1b451996722a6e85d1733bf65ed23101bb[] = {
/* columns rows colors chars-per-pixel */
"49 17 167 2 ",
"   c black",
".  c #010101",
"X  c #020200",
"o  c #020202",
"O  c gray1",
"+  c #040400",
"@  c #040402",
"#  c #060602",
"$  c #040404",
"%  c gray2",
"&  c #060606",
"*  c #070707",
"=  c #080800",
"-  c #080802",
";  c #090903",
":  c #090905",
">  c #0A0A04",
",  c #0B0B05",
"<  c #0C0C06",
"1  c gray3",
"2  c #090909",
"3  c gray4",
"4  c #0B0B0B",
"5  c #0F0F09",
"6  c #0C0C0C",
"7  c gray5",
"8  c #0E0E0E",
"9  c gray6",
"0  c #0F1002",
"q  c #111101",
"w  c #131303",
"e  c #121206",
"r  c #141404",
"t  c #151505",
"y  c #181903",
"u  c #1B1B07",
"i  c #1D1D05",
"p  c #161608",
"a  c #171709",
"s  c #11110D",
"d  c #10100E",
"f  c #191909",
"g  c #1B1C0A",
"h  c #1E1F09",
"j  c #1D1D0D",
"k  c #1E1E0C",
"l  c #101010",
"z  c #111111",
"x  c #131311",
"c  c gray7",
"v  c #131313",
"b  c gray8",
"n  c #161616",
"m  c gray9",
"M  c #1B1B13",
"N  c #181818",
"B  c #191919",
"V  c gray10",
"C  c #1B1B1B",
"Z  c gray11",
"A  c #1E1E1C",
"S  c #1E1E1E",
"D  c gray12",
"F  c #1F200A",
"G  c #22220E",
"H  c #24240E",
"J  c #25250F",
"K  c #26260E",
"L  c #252511",
"P  c #262610",
"I  c #282913",
"U  c #2A2B13",
"Y  c #2F2F13",
"T  c #2B2B15",
"R  c #2B2B17",
"E  c #2D2D15",
"W  c #2E2E14",
"Q  c #2F3014",
"!  c #303012",
"~  c #313115",
"^  c #303117",
"/  c #323216",
"(  c #313119",
")  c #32331B",
"_  c #343418",
"`  c #363618",
"'  c #36361A",
"]  c #3A3A1E",
"[  c #3D3E1E",
"{  c #202020",
"}  c gray13",
"|  c #222222",
" . c #232323",
".. c #252521",
"X. c gray14",
"o. c #252525",
"O. c gray15",
"+. c #272727",
"@. c #282828",
"#. c gray16",
"$. c #2A2A2A",
"%. c gray17",
"&. c #2D2D2D",
"*. c gray18",
"=. c #3E3E20",
"-. c #3F3F21",
";. c #32322A",
":. c gray19",
">. c #313131",
",. c #343434",
"<. c #353535",
"1. c gray21",
"2. c #373737",
"3. c #383933",
"4. c #3C3C32",
"5. c gray23",
"6. c #3D3D3B",
"7. c #3C3C3C",
"8. c gray24",
"9. c #444422",
"0. c #434426",
"q. c #454525",
"w. c #474725",
"e. c #464727",
"r. c #474828",
"t. c #4D4D29",
"y. c #4A4A2E",
"u. c #4F4F2D",
"i. c #4E4E2E",
"p. c #51512F",
"a. c #494A32",
"s. c #4F4F31",
"d. c #454539",
"f. c #515230",
"g. c #515133",
"h. c #5B5C36",
"j. c #595939",
"k. c #5B5B3B",
"l. c #5F5F3D",
"z. c gray25",
"x. c #414141",
"c. c gray26",
"v. c #434343",
"b. c #494949",
"n. c #4B4B4B",
"m. c gray30",
"M. c #4E4E4E",
"N. c gray31",
"B. c #515147",
"V. c gray32",
"C. c #555555",
"Z. c gray34",
"A. c #585858",
"S. c #5A5A5A",
"D. c #5D5D5B",
"F. c #6D6D47",
"G. c #797A5A",
"H. c #7C7C58",
"J. c #7E7E5C",
"K. c #626262",
"L. c gray39",
"P. c #656565",
"I. c gray47",
"U. c #278600",
"Y. c #2B9200",
"T. c #818181",
"R. c None",
/* pixels */
"R.R.R.R.R.R.R.R.R.R.R.R.R.R.R.R.R.R.R.R.R.R.2.R.R.R.R.R.R.R.R.R.R.R.R.R.R.R.R.R.R.R.R.R.R.R.R.R.R.",
"R.R.R.R.R.R.R.R.R.R.R.R.R.R.R.R.R.R.R.R.R.2.Y.R.R.R.R.R.R.R.R.R.R.R.R.R.R.R.R.R.R.R.R.R.R.R.R.R.R.",
"R.R.R.R.R.R.R.R.R.R.R.R.R.R.R.R.R.#.<.v.b.M.U.R.R.R.R.R.R.R.R.R.R.R.R.R.R.R.R.R.R.R.R.R.R.R.R.R.R.",
"R.R.R.R.R.R.R.R.R.R.R.R.R.R.R.R.R.7 7 7 6 8 8 2.R.R.R.R.R.R.R.R.R.R.R.R.R.R.R.R.R.R.R.R.R.R.R.R.R.",
"R.R.R.R.R.R.R.R.R.R.R.3   z.  *.  o.  X.  z.  8.  8.  |   X.  &.  +.  1.  V.R.R.R.R.R.R.R.R.R.R.R.",
"R.R.R.R.R.1 s d b x x x [ ] [ ~ U T E j < , : < R q._ Y ! W Q / 9.` =.' 0.w.@.2.5.v.R.R.R.R.R.R.R.",
"5.9 7 $ $ 1 & o 4 7 n N F.H.J.l.i.u.r.5 z.L.L.m.M G.j.f.h.p.e.y.F.k.s.-.t.u 2 4 2 3 R.R.R.R.R.R.R.",
"D.A @.3.4.B.a.d.N.6.;...w.g.) ( I L g # D C { >.> [ ^ X.Z b 7 6 7 v m V } = @.2.5.v.x.n.C.P.I.T.T.",
"7.o O O o 8 1 o 6 8 v l e r F h f f k p - @ @ ; a G q Z. .A. .S.| K.X.V.S i 2 4 2 3 4 7 9 n Z | | ",
"7.1 1 * o   & o 2 R.R.O O & & z z l l n J H H J J P y O.& %.& *.* %.1 *.2 K R.R.R.R.R.R.R.R.R.R.R.",
"5.& 4 O o R.R.R.R.R.R.R.& D & z R.O R.z t = w + 0 X R.3   2 . 2 . 2   6 o R.R.R.R.R.R.R.R.R.R.R.R.",
"5.& 4 O o R.R.R.R.R.R.2 c.C & z z N z R.R.:.{ ,.{ V.R.R.R.R.R.R.R.R.R.R.R.R.R.R.R.R.R.R.R.R.R.R.R.",
"5.& 4 O R.R.R.R.R.R.Z O.2.c & R.R.R.R.R.R.7.{ 7.{ V.R.R.R.R.R.R.R.R.R.R.R.R.R.R.R.R.R.R.R.R.R.R.R.",
"R.O O R.R.R.R.R.R.R.2 8.b & 2 R.R.R.R.R.R.7.{ 7.{ V.R.R.R.R.R.R.R.R.R.R.R.R.R.R.R.R.R.R.R.R.R.R.R.",
"R.R.R.R.R.R.R.R.R.R.% B l & R.R.R.R.R.R.R.8.{ 7.{ v.R.R.R.R.R.R.R.R.R.R.R.R.R.R.R.R.R.R.R.R.R.R.R.",
"R.R.R.R.R.R.R.R.R.R.R.& & & R.R.R.R.R.R.R.$.{ #.{ #.R.R.R.R.R.R.R.R.R.R.R.R.R.R.R.R.R.R.R.R.R.R.R.",
"R.R.R.R.R.R.R.R.R.R.R.R.R.R.R.R.R.R.R.R.R.N { N { N R.R.R.R.R.R.R.R.R.R.R.R.R.R.R.R.R.R.R.R.R.R.R."
};
