/* XPM */
static char *_8b830758cb54c3ef754fbefec762ecd[] = {
/* columns rows colors chars-per-pixel */
"82 70 256 2 ",
"   c #001000",
".  c #001000",
"X  c #0C180C",
"o  c #142414",
"O  c #1C2C1C",
"+  c #243024",
"@  c #303C2C",
"#  c #384434",
"$  c #404C3C",
"%  c #4C5444",
"&  c #545C50",
"*  c #5C6454",
"=  c #646C60",
"-  c #707468",
";  c #747C70",
":  c #808478",
">  c #84887C",
",  c #8C9084",
"<  c #90988C",
"1  c #949C90",
"2  c #98A494",
"3  c #A0A89C",
"4  c #A8B0A0",
"5  c #ACB4A8",
"6  c #B0B8AC",
"7  c #B8C0B4",
"8  c #BCC8BC",
"9  c #C4CCC0",
"0  c #C4D4C4",
"q  c #CCD8CC",
"w  c #D4E0D4",
"e  c #DCECDC",
"r  c #001000",
"t  c #001000",
"y  c #081000",
"u  c #141800",
"i  c #1C1C04",
"p  c #202008",
"a  c #28280C",
"s  c #342C10",
"d  c #382C14",
"f  c #403414",
"g  c #483818",
"h  c #543C1C",
"j  c #58441C",
"k  c #604820",
"l  c #684824",
"z  c #705028",
"x  c #785830",
"c  c #7C6034",
"v  c #846438",
"b  c #8C6C3C",
"n  c #907444",
"m  c #947C4C",
"M  c #988054",
"N  c #A08C58",
"B  c #A49460",
"V  c #A89C68",
"C  c #B0A470",
"Z  c #B8A878",
"A  c #BCB080",
"S  c #C0B888",
"D  c #C4C090",
"F  c #CCCC98",
"G  c #446480",
"H  c #486884",
"J  c #50708C",
"K  c #547890",
"L  c #588094",
"P  c #60849C",
"I  c #688CA4",
"U  c #6C94A8",
"Y  c #709CB0",
"T  c #78A4B4",
"R  c #80A8BC",
"E  c #88B0C0",
"W  c #8CB8C4",
"Q  c #94C0CC",
"!  c #9CC8D4",
"~  c #A4D0DC",
"^  c #001000",
"/  c #001000",
"(  c #00140C",
")  c #081814",
"_  c #0C201C",
"`  c #102424",
"'  c #142C2C",
"]  c #1C3038",
"[  c #1C343C",
"{  c #203C44",
"}  c #244050",
"|  c #2C4854",
" . c #30485C",
".. c #345068",
"X. c #385470",
"o. c #3C5C78",
"O. c #001000",
"+. c #001000",
"@. c #081804",
"#. c #142008",
"$. c #1C2C0C",
"%. c #203014",
"&. c #283818",
"*. c #34401C",
"=. c #384820",
"-. c #405024",
";. c #48582C",
":. c #546030",
">. c #586438",
",. c #606C38",
"<. c #68743C",
"1. c #708044",
"2. c #788448",
"3. c #809048",
"4. c #84984C",
"5. c #889C50",
"6. c #8CA454",
"7. c #8CA854",
"8. c #90B054",
"9. c #94B858",
"0. c #94BC58",
"q. c #94C45C",
"w. c #98CC5C",
"e. c #98D060",
"r. c #98D460",
"t. c #98DC64",
"y. c #98E464",
"u. c #98EC68",
"i. c #001000",
"p. c #081000",
"a. c #141000",
"s. c #201000",
"d. c #2C1400",
"f. c #381800",
"g. c #481C00",
"h. c #542000",
"j. c #602404",
"k. c #702804",
"l. c #782C08",
"z. c #882C08",
"x. c #943008",
"c. c #A0340C",
"v. c #AC380C",
"b. c #BC3C10",
"n. c #544814",
"m. c #585400",
"M. c #645C00",
"N. c #706400",
"B. c #786C04",
"V. c #807804",
"C. c #8C8004",
"Z. c #948804",
"A. c #98900C",
"S. c #A49C0C",
"D. c #ACA40C",
"F. c #B8AC10",
"G. c #BCB810",
"H. c #C4BC10",
"J. c #D0CC10",
"K. c #DCD414",
"L. c #001000",
"P. c #001000",
"I. c #041400",
"U. c #0C1804",
"Y. c #101C0C",
"T. c #182010",
"R. c #1C2814",
"E. c #202C18",
"W. c #282C1C",
"Q. c #2C3420",
"!. c #343824",
"~. c #383C28",
"^. c #3C442C",
"/. c #404830",
"(. c #484838",
"). c #505038",
"_. c #545840",
"`. c #5C6044",
"'. c #68644C",
"]. c #706C54",
"[. c #787458",
"{. c #807C60",
"}. c #888068",
"|. c #90886C",
" X c #949070",
".X c #9C9878",
"XX c #A89C80",
"oX c #ACA488",
"OX c #B8A88C",
"+X c #BCB094",
"@X c #C4B898",
"#X c #CCC0A0",
"$X c #2C2800",
"%X c #383000",
"&X c #4C3800",
"*X c #5C4000",
"=X c #704800",
"-X c #7C4C00",
";X c #8C5400",
":X c #9C5800",
">X c #AC6000",
",X c #B06814",
"<X c #B87428",
"1X c #BC8038",
"2X c #C08C4C",
"3X c #C49C60",
"4X c #CCA474",
"5X c #D4B88C",
"6X c #BC4814",
"7X c #BC5018",
"8X c #C06020",
"9X c #C46828",
"0X c #C47830",
"qX c #C88038",
"wX c #CC8C3C",
"eX c #D09C44",
"rX c #D0A450",
"tX c #D0B054",
"yX c #D4B864",
"uX c #D4C46C",
"iX c #D8CC78",
"pX c #D8D480",
"aX c #D8D88C",
"sX c #DCE094",
"dX c #041C2C",
"fX c #041438",
"gX c #101440",
"hX c #18144C",
"jX c #281450",
"kX c #381C54",
"lX c #482058",
"zX c #582460",
"xX c #6C2468",
"cX c #742C64",
"vX c #842C5C",
"bX c #8C2454",
"nX c #983040",
"mX c #A43430",
"MX c #B03814",
"NX c #BC3C10",
"BX c #384800",
"VX c #8C9C00",
"CX c #DCEC00",
"ZX c #381038",
"AX c #8C108C",
"SX c #DC10DC",
"DX c #4C1000",
"FX c #941000",
"GX c #DC1000",
"HX c #004800",
"JX c #009C00",
"KX c #00EC00",
"LX c #001038",
"PX c #00108C",
"IX c #0010DC",
"UX c #001000",
/* pixels */
"UXUXUXUXUXUXUXUXUXUXUXUXUXUXUXUXUXUXUXUXUXUXUXUXUXUXUXUXUXUX=XUXUXUXUXUXUXUXUXUXUXUXUXUXUXUXUXUXUXUXUXUXUXUXUXUXUXUXUXUXUXUXUXUXUXUXUXUXUXUXUXUXUXUXUXUXUXUXUXUXUXUX",
"UXUXUXUXUXUXUXUXUXUXUXUXUXUXUXUXUXUXUXUXUXUXUXUXUXUXUXUXUX;X>XUXUXUXUXUXUXUXUXUXUXUXUXUXUXUXUXUXUXUXUXUXUXUXUXUXUXUXUXUXUXUXUXUXUXUXUXUXUXUXUXUXUXUXUXUXUXUXUXUXUXUX",
"UXUXUXUXUXUXUXUXUXUXUXUXUXUXUXUXUXUXUXUXUXUXUXUXUXUXUXUX;XwXwXwXUXUXUXUXUXUXUXUXUXUXUXUXUXUXUXUXUXUXUXUXUXUXUXUXUXUXUXUXUXUXUXUXUXUXUXUXUX9X:XUXUXUXUXUXUXUXUXUXUXUX",
"UXUXUXUXUXUXUXUXUXUXUXUXUXUXUXUXUXUXUXUXUXUXUXUXUXUXUXUXUXUXUX:XUXUXUXUXUXUXUXUXUXUXUXUXUXUXUXUXUXUXUXUXUXUXUXUXUXUXUXUXUXUXUXUXUXUXUX9XqXwXwXUXUXUXUXUXUXUXUXUXUXUX",
"UXUXUXUXUXUXUXUXUXUXUXUXUXUXUXUX;X;XUXUXUXUXUXUXUXUXUXUXUXUXUXUXUXUXUXUXUXUXUXUXUXUXUXUXUXUXUXUXUXUXUXUXUXUXUXUXUXUXUXUXUXUXUXUXUX:XwXwXeX0X;XUXUXUXUXUXUXUXUXUXUXUX",
"UXUXUXUXUXUXUXUXUXUXUXUXUXUXUXUXqXqXUXUXUXUXUXUXUXUXUXUXUXUXUXUXUXUXUXUXUXUXUXUXUXUXUXwXrX>XUX=XUXUXUXUXUXUXUXUXUXUXUXUX-XUXUXUXUXqXrXwXrXwXqX;XUXUXUXUXUXUXUXUXUXUX",
"UXUXUXUXUXUXUXUXUXUXUXUXUXUXUXUX>X=X>X-XUX=XUXUXUXUXUXUXUXUXUXUXUXUXUXUXUXUXUXUXUXUXUXqX-XUX>XUXUXUXUXUXUXUXUXUXUXUXUXUX:X-X-XUX=X-XwXrXeXeX>XUXUXUXUXUXUXUXUXUXUXUX",
"UXUXUXUXUXUXUXUXUXUXUXUXUXUXUXUXUXUX0X0X;X>XUXUXUX;XqX=XUXUXUXUXUXUXUXUXUXUXUXUXUXUXUX:X;X>XUXUXUXUXUXUXUXUXUXUXUXUXUXUXUXUX>X0X0X=X9XrXrXeXUX-XUXUXUXUXUXUXUXUXUXUX",
"UXUXUXUXUXUXUXUXUXUXUXUXUXUXUXUXUXUXeXqX;X-XUXUXUX=X>XUXUXUXUXUXUXUXUXUXUXUXUXUXUXUXUX=X-XUXUXUXUXUXUXUXUXUXUXUXUXUXUXUX-XUX:X0X0X-XeXrXeXeXeX-XUXUXUXUXUXUXUXUXUXUX",
"UXUXUXUXUXUXUXUXUXUXUXUXUXUXUXUXUXUXUXUX;XUXUXUXUXUXUXUXUXUXUXUXUXUXUXUXUXUXUXUXUXUXUXUXUXUXUXUXUXUXUXUXUXUXUXUXUXUX0XqXUX-X;X-X:XqXrXrXrXrXeXUX-XUXUXUXUXUXUXUXUXUX",
"UXUXUXUXUXUXUXUXUXUXUXUXUXUXUXUXUXUXUXUX-XUXUXUXUXUXUXUXUX-X-X-XUXUXUXUXUXUXUXUXUXUXUXUXUXUXUXUXUX>XqXrXrXtXyXtXwX:XUXUXUXUXUXUX0XwXrX-X>X:X-X-X-X-XUXUXUXUXUXUXUXUX",
"UXUXUXUXUXUXUXUXUXUXUXUXUXUXUXUXUXUXUXUXUXUXUXUXUXUXUXUXUX:X;X-XUXUXUXUXUXUXUXUXUXUXUXUXUXUXUXUX-XrXrXtXtXtXyXyXrXrXeXwX-XUX>X=X:XwXrX0XwX>X=X>X=XUXUXUXUXUXUXUXUXUX",
"UXUXUXUXUXUXUXUXUXUXUXUXUXUXUXUXUXUXUXUXUXUXUXUX=X,X>X;X;X;X;X-XUX=XUXUXUXUXUXUXUXUXUXUXUXUXUX:XeXrXtXrX0XwXtXtXuXtXrXtXeXrXqXUXUXUX;X>X;X;X>X-X=XUXUXUXUXUXUXUXUXUX",
"UXUXUXUXUXUXUXUXUXUXUXUXUXUXUXUXUXUXUXUXUXUXUXUX>X,X;X>X;X;X>X0X;XUXUXUXUXUXUXUXUXUXUXUXUXUXUX;XrXrXwX-X-XeXtXtXyXyXtXtXyXyXeX;XUXUX;X;X0X:X:X:X:XUXUXUXUXUXUXUXUXUX",
"UXUXUXUXUXUXUXUXUXUXUXUXUXUXUXUXUXUXUXUXUXUXUXUX;X-X=X;X-X=X-X-X=XqX-XUXUXUXUXUXUXUXUXUXUXUXUXUXUXUXUX>X>XrXtXrXrXeXeXrX0XwXwX;X=XUX=XUX=XUXUX;XUXUXUXUXUXUXUXUXUXUX",
"UXUXUXUXUXUXUXUXUXUXUXUXUXUXUXUXUXUXUXUXUXUXUX;X;XwX>X-X;XUX>X:XrXqXeX=XUXUXUXUXUXUXUXUXUXUXUXUXUXUX-X0X0XqXrXrX0X>X>XwX0XqXqXwX>X>X=XUXUXUXUX;X-X-XUXUXUXUXUXUXUXUX",
"UXUXUXUXUXUXUXUXUXUXUXUXUXUXUXUXUXUXUXUXUXUXUXwXrXtXrXrXtXrXrXrXtXtXrXeX=XUXUXUXUXUXUXwX0X=X-X;X-XUX>XeXrXeX0XeX;XUX:X:XqXqXtXtXeXUXUXUX-XUXUXUXUXUXUXUXUXUXUXUXUXUX",
"UXUXUXUXUXUXUXUXUXUXUXUXUXUXUXUXUXUXUXUX:XyXtXtXtXtXtXyXyXuXiXtXtXrXyXtX;X=XUXUXUXUXUXUXUXrXwXqX0XwXeXrXrXtX=XUX0XqXwX>XUXUXUXUXUX:X-XUXUXUXUXUXUXUXUXUXUXUXUXUXUXUX",
"UXUXUXUXUXUXUXUXUXUXUXUXUXUXUXUXUXUXUXUXtXuXtXtXyXyXyXuXuXiXuXiXrXrXtXuXwX>X=XUXUXUXUXUXUXrXeX0X>XwXwX0XrXwXUXUX>XeX0X>X;X-XUXUXUXUXUXUXUXUXUXUXUXUXUXUXUXUXUXUXUXUX",
"UXUXUXUXUXUXUXUXUXUXUXUXUXUXUXUXUXUXUX-XiXuXyXuXiXiXuXyXuXtXtXpXtXtXtXuXuXyXeX0XUXUXUXUX=X>XwX-X:XqXwXrXtXqX>X>X=XUX>X0XwXqX;X-X=XUXUXUXUXUXUXUXUXUXUXUXUXUXUXUXUXUX",
"UXUXUXUXUXUXUXUXUXUXUXUXUXUXUXUXUXUXUX0XuXyXiXuXiXiXuXiXiXtXtXuXtXtXyXyXiXpXuXyX:X=XUXUXUX=X;X;X;X-X:XrXtX:XwXwX>XUX>XwXeXwX-XUX=XUXUXUXUXUXUXUXUXUXUXUXUXUXUXUXUXUX",
"UXUXUXUXUXUXUXUXUXUXUXUXUXUXUXUXUX;X>XrXtXrXuXiXuXyXyXyXiXuXiXpXtXtXuXpXuXuXtXyXyXwXeXrXrXwX=XUX;X>XqX0XrXrX0XqXwXeXtXtXtXtXrX-X>X>XwXUXUXUXUXUXUXUXUXUXUXUXUXUXUXUX",
"UXUXUXUXUXUXUXUXUXUXUXUXUXUXUXUXUX=XwXtXtXtXuXiXuXuXuXyXiXiXuXpXiXyXiXpXiXuXtXtXpXiXwXrXrX:XUXUXUXUX=XwXeXrXeXrXeXrXtXyXtXtXtX:XrXtXqXUXUXUXUXUXUXUXUXUXUXUXUXUXUXUX",
"UXUXUXUXUXUXUXUXUXUXUXUXUXUXUXUX0X;X-XwXrXtXiXiXuXiXiXiXuXuXiXpXpXpXpXpXyXyXiXiXyXyXiXuXuXrXrXqXeXwXwXrXqXtXtXrXyXiXiXiXtXtXtXqXyXUXUXUXUXUXUXUXUXUXUXUXUXUXUXUXUXUX",
"UXUXUXUXUXUXUXUXUXUXUXUXUX;X;X>XwX>XrXyXrXtXaXpXpXpXpXiXiXpXiXaXpXpXiXiXiXuXiXiXuXuXuXuXuXtXyXyXyXtXtXrXwXwXwXrXuXuXtXuXrXwXyXtXeXUX;XUXUX-XUXUXUXUXUXUXUXUXUXUXUXUX",
"UXUXUXUXUXUXUXUXUXUXUXUXUXUX-X;XrXiXaXpXpXiXpXaXaXpXpXaXaXpXpXpXaXpXuXpXiXiXiXuXuXuXiXuXuXyXuXuXtXrXrXrXwXeXqXrXuXuXtXuXtXeXyXyXrXrXtX-XUXUXUXUXUXUXUXUXUXUXUXUXUXUX",
"UXUXUXUXUXUXUXUXUXUXUXUXUXUXUXUX0X>XtXwXtXwXtXaXaXpXaXpXuXpXpXaXaXuXtXuXuXuXyXuXtXtXyXuXuXyXtXeXrXtXtXrXrXrXtXuXuXuXtXtXtXtXtXyXrXqX<X,XqXUXUXUXUXUXUXUXUXUXUXUXUXUX",
"UXUXUXUXUXUXUXUXUXUXUXUXUXUXUXUX;X-XyXqX;X;XtXaXpXaXpXpXuXaXpXpXiXaXwXuXyXyXtXyXyXtXuXuXyXtXrXtXtXrXrXrXeXrXiXyXyXyXtXrXrXtXrXyXrX1XqXUXUXUXUXUXUXUXUXUXUXUXUXUXUXUX",
"UXUXUXUXUXUXUXUXUXUXUXUXUXUXUXUXUXUX:X>XyXuXpXpXpXpXaXsXpXsXaXuXyX>XwXtX>X0XwXeXeXrXrXtXtXyXtXtXyXrXeXrXtXtXtXyXrXtXrXrXuXiXyXrXwXUXUXUXUXUXUXUXUXUXUXUXUXUXUXUXUXUX",
"UXUXUXUXUXUXUXUXUXUXUXUXUXUXUXUXUXUXUXrXtXiXaXpXaXpXaXaXpXsXaXiXeX-XqXwX;X;XwXwXqXqXrXeXwXtXtXrXuXrXrXtXtXtXuXuXrXtXrXtXiXiXyXwXUXUXUXUXUXUXUXUXUXUXUXUXUXUXUXUXUXUX",
"UXUXUXUXUXUXUXUXUXUXUXUXUXUXUXUXUXUXUXUX>X;XuXaXaXaXaXiXiXpXaXiXrX0X;X;X0X0X-X:XeXwX-X;X:XrXrXyXyXtXtXtXtXtXtXtXtXyXyXyXpXpXtX,XUXUXUXUXUXUXUXUXUXUXUXUXUXUXUXUXUXUX",
"UXUXUXUXUXUXUXUXUXUXUXUXUXUXUXUXUXUXUXUX;X;XtXaXaXaXsXpXaXaXaXiXrXrX;X;X0XwX:X;X>X:X=X:XwXtXtXtXuXtXtXtXtXtXtXrXuXuXuXuXpXiXrX:XUXUXUXUXUXUXUXUXUXUXUXUXUXUXUXUXUXUX",
"UXUXUXUXUXUXUXUXUXUXUXUXUXUXUXUXUXUXUXUXUXUXtXiXpXsXsXaXpXaXaXpXpXyX0X:X:X:X;X;X:X:X;X:X0XeXrXtXtXtXuXyXuXuXyXiXuXiXuXuXpXpXeX-XUXUXUXUXUXUXUXUXUXUXUXUXUXUXUXUXUXUX",
"UXUXUXUXUXUXUXUXUXUXUXUXUXUXUXUXUXUXUXUXUXUX;X0XtXaXsXpXaXaXpXtXuXiXrXqXwXeXwXwXqXqXwXwXwXwXeXtXtXyXyXuXuXuXiXiXiXpXiXiXpXiXrX;XUXUXUXUXUXUXUXUXUXUXUXUXUXUXUXUXUXUX",
"UXUXUXUXUXUXUXu p s d d d f s a a s d d f f f p a a f d d s a p i a p p i i p s p p p p s p p s s d a f d g s d d d f l j k g f f d d s s a a p p i p UXUXUXUXUXUXUX",
"UXUXUXUXUXUXu a a s s s f f d f g j j j h s d s s d f j s a a a h f x g d a d f g f g g g g h g g f j g l k l f j k c n n z j k j h j h h f d s s a a p UXUXUXUXUXUX",
"UXUXUXUXUXUXUXUXi p p a a a a a a a s s a u p s d i s a a i f a p d p p p p p u a i u i i u i y i i u i i u u i u u u i u u u u u i u y y y y y u u UXUXUXUXUXUXUXUX",
"UXUXUXUXUXUXUXUXUXUXy p p p a p i i p p a i a a i d a p i a a i s f p p p i p p i i u p i u i i u i y u u   u u i u u   .         y u y y y y UXUXUXUXUXUXUXUXUXUXUX",
"UXUXUXUXUXUXUXUXUXUXUXUXy p p a a a f s a a a s d d s i s s f d g a d p p p p i p u p i i u u u u u y u y                     y y y y y y t UXUXUXUXUXUXUXUXUXUXUXUX",
"UXUXUXUXUXUXUXUXUXUXUXUXUXu p a d s a p p s d d f s a a s s d d a a a p p i i i u u i u u y y                 y u u p a s d d d d d d s p UXUXUXUXUXUXUXUXUXUXUXUXUX",
"UXUXUXUXUXUXUXUXUXUXUXUXi i i i i i i p i u i i u i u y u u u . p y i y y u y . .   . y u i a f f k k l z k j k z x z k h g g f g f g f d f a UXUXUXUXUXUXUXUXUXUXUX",
"UXUXUXUXUXUXUXUXUXy u   . i i p i y i i u u i u u u   i u   y y u y y i p a f f f f f s f d h h z f j j j j j h j j h j g g h g g g f d f d s s s y UXUXUXUXUXUXUXUX",
"UXUXUXUXUXUXUXu u i i u u i p u i i i i i u i u u u   i p a s f s a d f d p f s f f f d f j k l g f j j j l l l g k g j j j j j g g f f f d d d d s s u UXUXUXUXUXUX",
"UXUXUXUXUXu p p p p i i i a i i i i u i u i p p a a a s a a s s f d d d d s s i f f d d g h h j j j k k c z h g g z l d l z x l h h j h g g g d d s s d s UXUXUXUXUX",
"UXUXUX. p p p p p p u p i p i p p p p p a a s s a a s s f a a s j g a s g a g a d f z g f j l l d p i z k j m x h x z d v c v j z k k j j g g g f f d s s d a UXUXUX",
"UXUXUXp p p p p p p u p i a p p p a a p p a s s a a p d s f s a d s a s f j d d s l s j l j c j z f j f p x c c d g v g B n b x c k l j j j h g g f g g d s s a UXUX",
"UXUXp p p p p a a p u p s s a a a p p p p a s s s s s a d a a a s s a s j s a f s f f g a d d z f f g s d f d a j z z n v v c l z h z k h k f f j f h f f d d d i UX",
"UXi a a a a a a a a u a a p p a s a a a a s d f s d d d d s a a s s d a a s s a s h k p i d f k g d s u k z g j j j l z l z z c l f g f g j h h g j f f d d d s d UX",
"UXp a a a a a s s s u a s f s s s d s d s g h f a g d s h p a p a d p s p s s a a s i d p s f s p d g k f f s g h j k z z j k k j g f h g h g f k f g d f s s s s i ",
". a a a a a s d s d f a f s d f f d f d g g f d a p a a s p p a s a s p s s s a p a a f p f a a j p p s p d d g g h h j j s s a s j h f g f d z k f d g d d s f d a ",
"y a a a a s s d d s f d s d f f d s s a d f d d s s a p a a a s d d p s p p a i i u p s p a s s a p p p s a a p a f g g f f k h c k f f f d f j d d s d s a f s s p ",
"y a a a s s s d s g f d d f g g d d d s s f f f f a d s a p p s p s p p a p p p p s i p i s i a d f p p f p u k h s a a s s s s s s a s d d d d s s s s s d s s s s ",
"UXp a a a s d d f f f f f d f d a f d f d g f s g p a p d a a p p p i p i i p p d p i u i p a p p d p p h u f g l p u   a d s s s s i a s s s s a a a s a a a a a i ",
"UXu a a a s s d s s d f f d f d f g d a h h g d s d a a p d i p p i a i p s p p p p u p i a i i p s p p i i s i h j s j f y a u i p p a a a a p d f s s s a a a a UX",
"UXUXa a s a a s s a s d f f g g g g d d s f f d p p a d p p d a i p p i i d s i s s f i i p i s p s p u u u p y p u i p a d   p s s p i a d d i a a a a a a a a p UX",
"UXUXu a a a s s a d f d g f f d f d a d d d s f i a d p a a f a u i i p u u u d u u u u g u i i a i a p p u p i a p   y u i a d . p i p i i i a a a a a a p p p . UX",
"UXUXUXi a a a a s s s d d s s s s g s d s f f p f d s u d a p i a u d u y s p p u u i u u u i a p p u u i u y u u p p a     u   p i p a a a p p p p p p p u p u UXUX",
"UXUXUXUXp a a a s s s s d a s f s f g f g a s p d d s p a i a s i i u p p . s i u u u     u p a i u u i u i y u u i p . p   u u p u i i i i i i i i i u p u y UXUXUX",
"UXUXUXUXUXp a a a a a a a s s s d a d f f d a p f f p d d a p p p i i i i u i i u a u y i y u u u   u i u u y     u p   u a u s y .     i     i u u u i i y UXUXUXUX",
"UXUXUXUXUXUXu a a a a a a s s s a d s s s a s u d d i f a p i a a p i u a a u u i u y u u u u y y u u u u u u .     u y     u u i a     u u   i u u u u UXUXUXUXUXUX",
"UXUXUXUXUXUXUXUXa a a a a a a a a s s s a d u s d a p a i p p i i u d p i u i i u u u i   u u . y   u u u y   y y y y u u p y u y y u i p i u y u u y UXUXUXUXUXUXUX",
"UXUXUXUXUXUXUXUXUXp a a a a a a s a a a a a a a f a i s a i p i u s u p i u p u i i   u   u y y   u   y . u .   . y u y i   y p   u y y y y y y y UXUXUXUXUXUXUXUXUX",
"UXUXUXUXUXUXUXUXUXUXy a a a a a a a a a a a p a a u a p p a a u i a i p i i i i y i u u i u y u y u u u   u u y     y y y y u   i   u y y y y y UXUXUXUXUXUXUXUXUXUX",
"UXUXUXUXUXUXUXUXUXUXUXUXi p a a a a a a a a p a a a i a p p i a p i p i i i i i u u u y u u   u i   i u       y y y     . y . .   u y y y y UXUXUXUXUXUXUXUXUXUXUXUX",
"UXUXUXUXUXUXUXUXUXUXUXUXUXUXp p a a a a a a p a p a p u i p a a i i i i i u u u u u u i y y u a   i   u   . y y y y y . y y y y y y y . y UXUXUXUXUXUXUXUXUXUXUXUXUX",
"UXUXUXUXUXUXUXUXUXUXUXUXUXUXUXu a a a a a p a p a a p p p s a i u p u i u i u u i u u y u u y y i . u   y . y y y y y y y y y y y y y y UXUXUXUXUXUXUXUXUXUXUXUXUXUX",
"UXUXUXUXUXUXUXUXUXUXUXUXUXUXUXUXp a s a s d s d s d s d p s p d p a i p i i s i i u u u u   i u u y y . y y y y y y y y y y y y i u y UXUXUXUXUXUXUXUXUXUXUXUXUXUXUX",
"UXUXUXUXUXUXUXUXUXUXUXUXs.s.y u p a a a s d f f d f d g f f f f s a . a p p a   p y u . u u y u y y y y y . y i p s d f f g f h f s a p p a u UXUXUXUXUXUXUXUXUXUXUX",
"UXUXUXUXUXUXUXUXUXUXi a p p i i i i i i u u u u   u y y u u   y u u u u   y u y u y u y u u u i p a d g g h h h j j j j j j h h g g h h h h f f y UXUXUXUXUXUXUXUXUX",
"UXUXUXUXUXUXUXUXUXUXUXUXUXs.u i a s d d d d d a d a p s i a a i u u u i a s f f f g g h h k f h k z z x b c b c x x z k g f f d d a p u y UXUXUXUXUXUXUXUXUXUXUXUXUX"
};
