/* XPM */
static char *_5245_2a790f128622b871eff538fec792deaddace6d15ffadbb6b1031642a50fe605a[] = {
/* columns rows colors chars-per-pixel */
"64 74 113 2 ",
"   c black",
".  c #040400",
"X  c #040404",
"o  c #0C0000",
"O  c #0C0404",
"+  c #0C0C08",
"@  c #180400",
"#  c #180C04",
"$  c #18140C",
"%  c #040810",
"&  c #0C0C18",
"*  c #100C10",
"=  c #141010",
"-  c #1C1414",
";  c #181818",
":  c #340804",
">  c #201008",
",  c #28140C",
"<  c #201C18",
"1  c #301C10",
"2  c #202010",
"3  c #28201C",
"4  c #282818",
"5  c #3C2014",
"6  c #30301C",
"7  c #101420",
"8  c #14182C",
"9  c #182034",
"0  c #242020",
"q  c #2C282C",
"w  c #302420",
"e  c #342C28",
"r  c #3C3824",
"t  c #3C302C",
"y  c #383434",
"u  c #450C04",
"i  c #551004",
"p  c #611404",
"a  c #711808",
"s  c #452418",
"d  c #4D2C18",
"f  c #55301C",
"g  c #413430",
"h  c #493C34",
"j  c #413C3C",
"k  c #613420",
"l  c #693C24",
"z  c #695104",
"x  c #755904",
"c  c #654518",
"v  c #454128",
"b  c #4D4D2C",
"n  c #4D4138",
"m  c #555534",
"M  c #714128",
"N  c #79452C",
"B  c #615D38",
"V  c #202841",
"C  c #242C49",
"Z  c #283451",
"A  c #2C385D",
"S  c #344165",
"D  c #38456D",
"F  c #3C4D79",
"G  c #4D4949",
"H  c #554541",
"J  c #595151",
"K  c #65554D",
"L  c #6D5D51",
"P  c #61595D",
"I  c #696541",
"U  c #716D45",
"Y  c #797549",
"T  c #6D6165",
"R  c #756D71",
"E  c #821C08",
"W  c #8E200C",
"Q  c #8E6D08",
"!  c #864D30",
"~  c #8E5538",
"^  c #925D3C",
"/  c #9A6545",
"(  c #A26D49",
")  c #AA7551",
"_  c #AE7D59",
"`  c #827579",
"'  c #967D71",
"]  c #A28208",
"[  c #AE8E08",
"{  c #B29610",
"}  c #BEA210",
"|  c #CBAE10",
" . c #D7B614",
".. c #DBC314",
"X. c #E7CB14",
"o. c #F3DB14",
"O. c #FFE318",
"+. c #868251",
"@. c #8E8A55",
"#. c #969655",
"$. c #B28661",
"%. c #BE9A71",
"&. c #AABA65",
"*. c #EB8641",
"=. c #C7A279",
"-. c #415182",
";. c #49598E",
":. c #8A7D82",
">. c #9A8E92",
",. c #AE9686",
"<. c #AA9EA2",
"1. c #BAB2B6",
"2. c None",
/* pixels */
"2.2.2.2.2.2.2.2.2.2.2.2.> > > # > > > # > 2.2.2.2.2.2.2.2.2.2.2.2.2.2.2.2.2.2.2.2.2.2.2.2.2.2.2.2.2.2.2.2.2.2.2.2.2.2.2.2.2.2.2.",
"2.2.2.2.2.2.2.2.2.2.2.> > # # # > # # # # , , 2.2.2.2.2.2.2.2.2.2.2.2.2.2.2.2.2.2.2.2.2.2.2.2.2.2.2.2.2.2.2.2.2.2.2.2.2.2.2.2.2.",
"2.2.2.2.2.2.2.2.2.2.2.2.5 > > # , > > # > > , # 2.2.2.2.2.2.2.2.2.2.2.2.2.2.2.2.2.2.2.2.2.2.2.2.2.2.2.2.2.2.2.2.2.2.2.2.2.2.2.2.",
"2.2.2.2.2.2.2.2.2.2.2.2.2.l k , , # > > # , > > + 2.2.2.2.2.2.2.2.2.2.2.2.2.2.2.2.2.2.2.2.2.2.2.2.2.2.2.2.2.2.2.2.2.2.2.2.2.2.2.",
"2.2.2.2.2.2.2.2.2.2.2.2.2.k l k > # > > > , > # # > 2.2.2.2.2.2.2.2.2.2.2.2.2.2.2.2.2.2.2.2.2.2.2.2.2.2.2.2.2.2.2.2.2.2.2.2.2.2.",
"2.2.2.2.2.2.2.2.2.2.2.2.2.2.f l # # , > , , > > > , # 2.2.2.2.2.2.2.2.2.2.2.2.2.2.2.2.2.2.2.2.2.2.2.2.2.2.2.2.2.2.2.2.2.2.2.2.2.",
"2.2.2.2.2.2.2.2.2.2.2.2.2.2.5 1 , > > > > , , , , # > @ 2.2.2.2.2.2.2.2.2.2.2.2.2.2.2.2.2.2.2.2.2.2.2.2.2.2.2.2.2.2.2.2.2.2.2.2.",
"2.2.2.2.2.2.2.2.2.2.2.2.2.1 5 s d s s 5 1 , , , > # , # + 2.2.2.2.2.2.2.2.2.2.2.2.2.2.2.2.2.2.2.2.2.2.2.2.2.2.2.2.2.2.2.2.2.2.2.",
"2.2.2.2.2.2.2.2.2.2.5 5 s d s f k d s d 5 1 > > , 9 V 9 7 8 2.2.2.2.2.2.2.2.2.2.2.2.2.2.2.2.2.2.2.2.2.2.2.2.2.2.2.2.2.2.2.2.2.2.",
"2.2.2.2.2.2.2.2.2.2.s 1 # , s l k d s s 5 5 , 0 V 9 9 8 ; 9 8 & 2.2.2.2.2.2.2.2.2.2.2.2.2.2.2.2.2.2.2.2.2.2.2.2.2.2.2.2.2.2.2.2.",
"2.2.2.2.2.2.2.2.2.2.1 s 1 s d d f k t w - 9 9 4 6 V 9 9 8 ; 9 8 & 2.2.2.2.2.2.2.2.2.2.2.2.2.2.2.2.2.2.2.2.2.2.2.2.2.2.2.2.2.2.2.",
"2.2.2.2.2.2.2.2.2.2., 5 d d s 1 w q & 7 & & 9 9 4 6 6 6 4 4 ; < 8 7 2.2.2.2.2.2.2.2.2.2.2.2.2.2.2.2.2.2.2.2.2.2.2.2.2.2.2.2.2.2.",
"2.2.2.2.2.2.2.2.2.2.2.1 1 - - - 9 9 9 V G b b m m b b b b b b j C q 0 0 < 8 & * 8 2.2.2.2.2.2.2.2.2.2.2.2.2.2.2.2.2.2.2.2.2.2.2.",
"2.2.2.2.2.2.2.2.2.2.- * X 1 - - 9 8 9 9 6 b H H b b b v v r r y q 9 9 9 9 9 9 7 8 7 9 2.2.2.2.2.2.2.2.2.2.2.2.2.2.2.2.2.2.2.2.2.",
"2.2.2.2.2.2.1 5 < > * + & X V 9 & + 7 7 7 9 Z 6 9 9 9 9 8 8 8 8 8 8 8 9 8 8 9 9 q 5 5 p , 2.2.2.2.2.2.2.2.2.2.2.2.2.2.2.2.2.2.2.",
"2.2.2.2.2.5 s 1 , & > * V C C A C 7 & 9 9 9 9 9 9 9 9 9 9 9 9 8 9 8 8 8 8 9 9 9 7 i i p E : o 2.2.2.2.2.2.2.2.2.2.2.2.2.2.2.2.2.",
"2.2.2.2.s k d 1 1 , & V C j j h j y 8 9 9 9 9 9 9 V 9 9 8 7 8 8 9 9 C C C 8 1 5 k x ^ W E 5 % & 2.2.2.2.2.2.2.2.2.2.2.2.2.2.2.2.",
"2.2.2.2.k f d d   $ 0 y j j j g g g 7 9 9 C B C V 9 9 8 m ] U 8 9 7 #.X...} 8 , ^ =.%.$.k 9 V 3 7 % 2.2.2.2.2.2.2.2.2.2.2.2.2.2.",
"2.2.2.2.2.k f - q C e r j j g g h g 7 V 8 +.o.V 9 V C 8 @.O.} 9 8 7 x | c | x 8 M _ E ( Q 8 C V V 9 & 2.2.2.2.2.2.2.2.2.2.2.2.2.",
"2.2.2.2.2.G V V e C j j j h h j h g X 9 8 Y X.Z 9 V Z 8 @.X.| m 8 9 6 } 5 / ( i W *.l B { 9 V C A Z V 9 % 2.2.2.2.2.2.2.2.2.2.2.",
"2.2.2.2.2.j C C e g G G G j j j j j & 8 9 Z o.U 9 Z Z 9 #...| | 8 7 V | } o.I : p } I 8  .6 8 V Z A Z C 9 8 2.2.2.2.2.2.2.2.2.2.",
"2.2.2.2.9 A S A g g G J J G S S S A 7 7 V Z o.@.Z S F Z #.O.X.X.b B r { Y } [ Q m I | } X.b 7 C C Z A C C 9 7 2.2.2.2.2.2.2.2.2.",
"2.2.2.9 V A S A A D F F F G S S S S e 7 9 C X.O.O.....} ..o.b o.#.{ U I Y m ] +.B b } | U 8 & C Z Z A Z C V 8 % 2.2.2.2.2.2.2.2.",
"2.2.V Z C A S S S S S F S S S S S S A 7 9 8 I &.&.} +.Y m b V r c 6 r 9 9 8 8 8 8 8 8 8 8 8 & V A A A A A V 9 * % 2.2.2.2.2.2.2.",
"2.Z C A Z A S S D D S S S S F F F -.J e 8 V C V V Z A A A Z Z 9 9 V 9 9 9 9 9 9 9 9 9 9 9 8 8 V A S S Z C V 9 9 7 % 2.2.2.2.2.2.",
"2.C Z A S S S S D F F A A S S D F G G y 7 C Z Z A S S A A A A Z Z C V 9 9 9 9 9 9 8 8 9 9 8 9 C A S C C A A Z C C V 9 2.2.2.2.2.",
"8 V A S D D F F F S A A C S S G J J J j 9 9 Z Z Z Z Z Z A Z Z Z Z C V V 9 9 9 9 9 8 9 9 9 7 9 V C C C D D D D Z Z C V 8 2.2.2.2.",
"= 9 V A S S S F F j S S A g n B K K T F V 8 Z Z Z A A A A Z Z Z Z C V V 9 9 9 8 8 8 9 9 9 7 9 V 9 V A F S C 9 q q 7 O % 7 2.2.2.",
"> 7 - V C S F F -.S S C V g G B B T ;.F A 7 V Z Z A A Z Z Z Z Z Z C C V V 9 8 8 8 8 8 9 8 X 9 9 9 V A C 9 e K ^ ( f , . & 2.2.2.",
"2.7 - - 9 C A -.F S S V 4 h G K L T P G y < 8 Z C Z Z Z Z Z Z Z Z Z V V 9 9 8 9 9 9 8 9 8 + & 8 9 V 9 9 ~ ( _ ) ) ~ d , & 2.2.2.",
"2.7 7 - 9 q A G S S A V 4 j m K B B J J j e 7 V C Z Z Z Z Z g e d f f f s q q 9 8 9 9 9 7 + & 8 9 8 7 ! ( ( ( ( ) ) l s > 2.2.2.",
"2.  X * 0 q C S S A A C 6 v m B P -.G G S y 9 7 Z Z Z e k p a p p a p i i i i u 9 9 9 8 7 & & 8 7 - d ! ^ ( ) ) _ ) ^ f 5 2.2.2.",
"2.. O & - q e g S A A V 4 v b m G G G G G y e 7 9 Z t p i i i i i s f i i s u 0 9 9 9 8 % & 7 7 * s k l ~ ( ( ) _ ( ( l d 1 2.2.",
"2.X % & 7 0 e g g A A V $ r j j S G G G G A e q % s p p i i u 5 p s s p w f u u 9 9 9 & O % 7 & , 5 d k l ! ^ ( ) ) / ! k s 2.2.",
"2.@ & & & - q e e C C V 8 4 y y y j S G S S C y 3 , i p q i f f i q s u 9 9 V u < 7 7 * O   % - 1 1 5 d d l ! ^ ( ^ ~ ! M k , 2.",
"2.2.7 q V V V V V V V 9 9 8 < q C y j S S S A V C , , , 7 5 9 5 9 8 < , 7 7 7 7 & & * 7 O     # 1 1 1 s d d l ! ^ ~ ^ ^ ! M 5 2.",
"2.2.% 9 C A j j j S A Z V 9 8 7 q C y S S S S Z V V 0 9 7 & X           X % & 8 8 8 8 & X + X + , , 1 1 d d s f N ! ~ ^ ^ N d > ",
"2.2.2.7 9 q e y y A Z C V 9 8 O 9 V C A S S S V V 9 8 8 %   O O O X X O X X   X X & % % X 7 4 4 3 , , 1 s k s s l ! ! ! ~ ~ f , ",
"2.2.2.2.$ - 9 q C V V V 9 7 O o 7 9 V C A D 9 . $ $ O     % & & & & + X X X X X X & X   X - $ - , - # , 1 s k 1 k N l N ~ ! k 1 ",
"2.2.2.2.2.2 , - w t s s w # O O + 8 8 V 9 8 X + + # 7 7 8 8 7 7 7 7 7 %           X %   @ > w 1 , @ # s , - 1 d ! ! l l ! ! l 5 ",
"2.2.2.2.2., 1 , s k k d w 1 w # O X & & X O X % & & 8 8 9 9 9 9 8 9 8 7 7 7 7 % 7 7 7 7 & % - 1 , , 1 4 - 1 # s N N l l ! N l 1 ",
"2.2.2.2.2.2., w d k f d w , s 1 , O . O X X $ q 7 7 8 8 8 8 8 9 9 V V 9 8 8 8 7 9 9 7 7 7 & % o # s n H < s 1 , k N l k N N k , ",
"2.2.2.2.2.2.1 1 d l l k 1 # s w 1 1 , # O X r 9 7 7 7 8 8 7 9 9 V C C C 9 8 9 8 8 9 8 7 7 7 &   , k l _ H , s 1 w k k k f s 1 2.",
"2.2.2.2.2.2.2.5 k l l k 1 # s d s s s 1 , & 6 7 7 7 7 7 7 8 V C C A A C V 9 9 8 8 9 8 7 7 7 &   1 l k ( ' , d 1 1 d d f s 5 , 2.",
"2.2.2.2.2.2.2.2.s f l N d d k k d s s s , & r 9 7 7 7 7 8 9 V Z A A A Z V 9 % 7 V 9 8 8 8 7 % * k k l ~ %.w s d s d s 5 1 , 2.2.",
"2.2.2.2.2.2.2.2.2.1 d k l k k k d d s 5 & - 4 7 7 7 7 8 8 9 C A Z A C C V 9 X 8 9 9 9 7 7 7 % X f l l N ,.J , d d s 5 1 2.2.2.2.",
"2.2.2.2.2.2.2.2.2.2., 1 2 2 w 6 s s 5 2.O 6 8 7 7 7 7 7 8 9 V C C C C V 9 % X 9 8 7 7 7 7 7 % , s l l H ` ` , 1 $ , > 2.2.2.2.2.",
"2.2.2.2.2.2.2.2.2.2.2.2.2.2.2.2.2.2.2.2.* b 8 7 7 7 7 7 8 9 V V V V V 9 %   % 7 7 8 7 7 7 & % 1 t g j G T <.4 2.2.2.2.2.2.2.2.2.",
"2.2.2.2.2.2.2.2.2.2.2.2.2.2.2.2.2.2.2.2.; z 8 7 7 8 8 7 8 8 9 9 9 9 8 %     & 7 7 7 7 7 7 % % + < e y y J :.T 2.2.2.2.2.2.2.2.2.",
"2.2.2.2.2.2.2.2.2.2.2.2.2.2.2.2.2.2.2.2.2 x 8 7 8 8 8 8 7 8 8 7 8 7 & X     X % 7 7 7 7 & % + 7 4 y j R <.<.P 2.2.2.2.2.2.2.2.2.",
"2.2.2.2.2.2.2.2.2.2.2.2.2.2.2.2.2.2.2.2.2 z 7 7 8 7 8 8 8 7 7 7 7 & %           % % & & % X O ; 0 q e T 1.>.` 2.2.2.2.2.2.2.2.2.",
"2.2.2.2.2.2.2.2.2.2.2.2.2.2.2.2.2.2.2.2.; v 7 7 8 9 8 8 7 7 7 7 & % X         X o     o % X 2.2.2.2.2.2.2.2.2.2.2.2.2.2.2.2.2.2.",
"2.2.2.2.2.2.2.2.2.2.2.2.2.2.2.2.2.2.2.2.$ c 8 7 7 8 8 8 8 7 7 & % X       o o X % X X . X 2.2.2.2.2.2.2.2.2.2.2.2.2.2.2.2.2.2.2.",
"2.2.2.2.2.2.2.2.2.2.2.2.2.2.2.2.2.2.2.2., c 7 7 8 7 8 7 7 7 & % X       %         X 2.2.2.2.2.2.2.2.2.2.2.2.2.2.2.2.2.2.2.2.2.2.",
"2.2.2.2.2.2.2.2.2.2.2.2.2.2.2.2.2.2.2.2.O r 7 7 7 7 7 7 0 s X . . o       o 2.2.2.2.2.2.2.2.2.2.2.2.2.2.2.2.2.2.2.2.2.2.2.2.2.2.",
"2.2.2.2.2.2.2.2.2.2.2.2.2.2.2.2.2.2.2.2.& c q 7 7 7 0 l 5 #       .   o   o 2.2.2.2.2.2.2.2.2.2.2.2.2.2.2.2.2.2.2.2.2.2.2.2.2.2.",
"2.2.2.2.2.2.2.2.2.2.2.2.2.2.2.2.2.2.2.2.% 4 g 7 7 f N ,   . .   . o   o o   2.2.2.2.2.2.2.2.2.2.2.2.2.2.2.2.2.2.2.2.2.2.2.2.2.2.",
"2.2.2.2.2.2.2.2.2.2.2.2.2.2.2.2.2.2.2.2.X 7 z 9 l ~ ,   . . . . o o . o . .   @ 2.2.2.2.2.2.2.2.2.2.2.2.2.2.2.2.2.2.2.2.2.2.2.2.",
"2.2.2.2.2.2.2.2.2.2.2.2.2.2.2.2.2.2.2.2.2.X c s ! l o .   . . o . . . . . o o   . 2.2.2.2.2.2.2.2.2.2.2.2.2.2.2.2.2.2.2.2.2.2.2.",
"2.2.2.2.2.2.2.2.2.2.2.2.2.2.2.2.2.2.2.2.2.$ r d k 1 . . . .   o . . . o .   o . o . . .   o 2.2.2.2.2.2.2.2.2.2.2.2.2.2.2.2.2.2.",
"2.2.2.2.2.2.2.2.2.2.2.2.2.2.2.2.2.2.2.2.2.4 & s s + o . + .   o .   .   o . . . o . . O . . . 2.2.2.2.2.2.2.2.2.2.2.2.2.2.2.2.2.",
"2.2.2.2.2.2.2.2.2.2.2.2.2.2.2.2.2.2.2.2.2.7 , , O .   . o . . O o . O . . o . o . . .   . O . 2.2.2.2.2.2.2.2.2.2.2.2.2.2.2.2.2.",
"2.2.2.2.2.2.2.2.2.2.2.2.2.2.2.2.2.2.2.2.2.@ 7 * . . .   o . o o . . O     .   . . . o   . O   2.2.2.2.2.2.2.2.2.2.2.2.2.2.2.2.2.",
"2.2.2.2.2.2.2.2.2.2.2.2.2.2.2.2.2.2.2.2.2.7 & . O . O   o . . . . . .           + . . . o . o 2.2.2.2.2.2.2.2.2.2.2.2.2.2.2.2.2.",
"2.2.2.2.2.2.2.2.2.2.2.2.2.2.2.2.2.2.2.2.2.= % . . . .   . . . . o o o         o O . . . O   2.2.2.2.2.2.2.2.2.2.2.2.2.2.2.2.2.2.",
"2.2.2.2.2.2.2.2.2.2.2.2.2.2.2.2.2.2.2.2.2.7   2.X @ @ O . @ o   . o .       . . .   . . o   2.2.2.2.2.2.2.2.2.2.2.2.2.2.2.2.2.2.",
"2.2.2.2.2.2.2.2.2.2.2.2.2.2.2.2.2.2.2.2.2.7 2.2.2.2.2.2.2.2.                o . . .   O   2.2.2.2.2.2.2.2.2.2.2.2.2.2.2.2.2.2.2.",
"2.2.2.2.2.2.2.2.2.2.2.2.2.2.2.2.2.2.2.2.9 2.2.2.2.2.2.2.2.  o   .           . o o .   O . 2.2.2.2.2.2.2.2.2.2.2.2.2.2.2.2.2.2.2.",
"2.2.2.2.2.2.2.2.2.2.2.2.2.2.2.2.2.2.2.2.2.2.2.2.2.2.2.2.. . .   . .         . O o     . o 2.2.2.2.2.2.2.2.2.2.2.2.2.2.2.2.2.2.2.",
"2.2.2.2.2.2.2.2.2.2.2.2.2.2.2.2.2.2.2.2.2.2.2.2.2.2.2.. O o     o         . O . . . o . o 2.2.2.2.2.2.2.2.2.2.2.2.2.2.2.2.2.2.2.",
"2.2.2.2.2.2.2.2.2.2.2.2.2.2.2.2.2.2.2.2.2.2.2.2.2.2.. o o   o o .         . . . . . . .   2.2.2.2.2.2.2.2.2.2.2.2.2.2.2.2.2.2.2.",
"2.2.2.2.2.2.2.2.2.2.2.2.2.2.2.2.2.2.2.2.2.2.2.2.2.  . o . o         o . . . . . . . o .   2.2.2.2.2.2.2.2.2.2.2.2.2.2.2.2.2.2.2.",
"2.2.2.2.2.2.2.2.2.2.2.2.2.2.2.2.2.2.2.2.2.2.2.2.2.  . o               . o o o o o o     2.2.2.2.2.2.2.2.2.2.2.2.2.2.2.2.2.2.2.2.",
"2.2.2.2.2.2.2.2.2.2.2.2.2.2.2.2.2.2.2.2.2.2.2.2.2.              2.2.o o               2.2.2.2.2.2.2.2.2.2.2.2.2.2.2.2.2.2.2.2.2."
};
