/* XPM */
static char *_3255_465d7b989bf98cb351de0c1ee369021201703098019a26a186e042416656785d[] = {
/* columns rows colors chars-per-pixel */
"53 83 98 2 ",
"   c black",
".  c #040400",
"X  c #040404",
"o  c #0C0000",
"O  c #0C0404",
"+  c #0C0C08",
"@  c #180400",
"#  c #180C04",
"$  c #18140C",
"%  c #040810",
"&  c #0C0C18",
"*  c #100C10",
"=  c #141010",
"-  c #1C1414",
";  c #181818",
":  c #280400",
">  c #340804",
",  c #201008",
"<  c #28140C",
"1  c #201C18",
"2  c #301C10",
"3  c #282818",
"4  c #3C2014",
"5  c #30301C",
"6  c #101420",
"7  c #14182C",
"8  c #182034",
"9  c #242020",
"0  c #2C282C",
"q  c #302420",
"w  c #342C28",
"e  c #3C3824",
"r  c #3C302C",
"t  c #383434",
"y  c #450C04",
"u  c #551004",
"i  c #611404",
"p  c #711808",
"a  c #452418",
"s  c #4D2C18",
"d  c #55301C",
"f  c #413430",
"g  c #493C34",
"h  c #413C3C",
"j  c #613420",
"k  c #693C24",
"l  c #695104",
"z  c #654518",
"x  c #454128",
"c  c #4D4D2C",
"v  c #4D4138",
"b  c #555534",
"n  c #714128",
"m  c #79452C",
"M  c #615D38",
"N  c #202841",
"B  c #242C49",
"V  c #283451",
"C  c #2C385D",
"Z  c #344165",
"A  c #38456D",
"S  c #3C4D79",
"D  c #4D4949",
"F  c #5D4D45",
"G  c #595151",
"H  c #65554D",
"J  c #6D5D51",
"K  c #61595D",
"L  c #696541",
"P  c #716D45",
"I  c #797549",
"U  c #6D6165",
"Y  c #826504",
"T  c #8E6D08",
"R  c #967908",
"E  c #864D30",
"W  c #8E5538",
"Q  c #925D3C",
"!  c #9A6545",
"~  c #A26D49",
"^  c #AA7551",
"/  c #AE7D59",
"(  c #A28208",
")  c #AE8E08",
"_  c #B29610",
"`  c #BEA210",
"'  c #CBAE10",
"]  c #DBC314",
"[  c #868251",
"{  c #8E8A55",
"}  c #969655",
"|  c #B28661",
" . c #BE9A71",
".. c #C7A279",
"X. c #415182",
"o. c #49598E",
"O. c #516196",
"+. c None",
/* pixels */
"+.+.+.+.+.+.+.+.+.+.+.+.+.+.+.+.+.+.+.+.+.+.+.+., , , , +.+.+.+.+.+.+.+.+.+.+.+.+.+.+.+.+.+.+.+.+.+.+.+.+.",
"+.+.+.+.+.+.+.+.+.+.+.+.+.+.+.+.+.+.+.+.+.+.+.+., < < < +.+.+.+.+.+.+.+.+.+.+.+.+.+.+.+.+.+.+.+.+.+.+.+.+.",
"+.+.+.+.+.+.+.+.+.+.+.+.+.+.+.+.+.+.+.+.+.+.+.+., < < a +.+.+.+.+.+.+.+.+.+.+.+.+.+.+.+.+.+.+.+.+.+.+.+.+.",
"+.+.+.+.+.+.+.+.+.+.+.+.+.+.+.+.+.+.+.+.+.+.+., < < 4 @ +.+.+.+.+.+.+.+.+.+.+.+.+.+.+.+.+.+.+.+.+.+.+.+.+.",
"+.+.+.+.+.+.+.+.+.+.+.+.+.+.+.+.+.+.+.+.+.+.+., < , # @ +.+.+.n a +.+.+.+.+.+.+.+.+.+.+.+.+.+.+.+.+.+.+.+.",
"+.+.+.+.+.+.+.+.+.+.+.+.+.+.+.+.d k +.+.+.+.+.< < , @ O +.+.n W a +.+.+.+.+.+.+.+.+.+.+.+.+.+.+.+.+.+.+.+.",
"+.+.+.+.+.+.+.+.+.+.+.+.+.+.+.+.4 E j +.+.+.+.# , , O   +.a d m 2 +.+.+.+.+.+.+.+.+.+.+.+.+.+.+.+.+.+.+.+.",
"+.+.+.+.+.+.+.+.+.+.+.+.+.+.+.+.+.d m s +.+., < a ,   +.+.a j s +.+.+.+.+.+.+.+.+.+.+.+.+.+.+.+.+.+.+.+.+.",
"+.+.+.+.+.+.+.+.+.+.+.+.+.+.+.+.+.a d k a +., $ < #   +.a s 2 4 +.+.+.+.+.+.+.+.+.+.+.+.+.+.+.+.+.+.+.+.+.",
"+.+.+.+.+.+.+.+.+.+.+.+.+.+.+.+.+.+.4 d s 4 , , , O # j d k j a +.+.+.+.+.+.+.+.+.+.+.+.+.+.+.+.+.+.+.+.+.",
"+.+.+.+.+.+.+.+.+.+.+.+.+.+.+.+.+.+.4 s j k 4 @ @ O 4 m k E E d a +.+.+.+.+.+.+.+.+.+.+.+.+.+.+.+.+.+.+.+.",
"+.+.+.+.+.+.+.+.+.+.+.+.+.+.+.+.+.4 j n E n j < < , 4 E E W E d s +.+.+.+.+.+.+.+.+.+.+.+.+.+.+.+.+.+.+.+.",
"+.+.+.+.+.+.+.+.+.+.+.+.+.+.+.+.2 a s k n n k a a # a Q m W W k s a +.+.+.+.+.+.+.+.+.+.+.+.+.+.+.+.+.+.+.",
"+.+.+.+.+.+.+.+.+.+.+.+.+.+.+.+.4 q w r j n k a a 2 n E E Q W k d a +.+.+.+.+.+.+.+.+.+.+.+.+.+.+.+.+.+.+.",
"+.+.+.+.+.+.+.+.+.+.+.+.+.+.+.+.< B C C C C r a a a n W Q Q W k d a +.+.+.+.+.+.+.+.+.+.+.+.+.+.+.+.+.+.+.",
"+.+.+.+.+.+.+.+.+.+.+.+.+.+.+.7 N 8 8 B B B B B r a k W E k d a 3 +.+.+.+.+.+.+.+.+.+.+.+.+.+.+.+.+.+.+.+.",
"+.+.+.+.+.+.+.+.+.+.+.+.+.+.+.6 5 5 8 N 9 w w r 0 N 8 N 8 8 N 9 q 8 +.+.+.+.+.+.+.+.+.+.+.+.+.+.+.+.+.+.+.",
"+.+.+.+.+.+.+.+.+.+.+.+.+.+.7 3 h w w w w r w 0 ; 7 6 6 N B B r 0 9 1 0 h $ +.+.+.+.+.+.+.+.+.+.+.+.+.+.+.",
"+.+.+.+.+.+.+.+.+.+.+.+.+.8 B t N N 0 w w w 8 6 7 6 8 B C C C C B N 6 %   o X X * +.+.+.+.+.+.+.+.+.+.+.+.",
"+.+.+.+.+.+.+.+.+.+.q 5 5 5 e t N N 0 N 0 8 < - & 6 g D D Z Z Z Z Z B 8 8 N 8 7 O . +.+.+.+.+.+.+.+.+.+.+.",
"+.+.+.+.+.+.+.+.+.1 3 5 e e 5 N N 8 8 2 4 u i > $ D H M K X.S Z Z Z C C C C C B 8 6 6 +.+.+.+.+.+.+.+.+.+.",
"+.+.+.+.+.+.+.7 6 1 1 8 8 7 7 7 7 7 8 i a u i u 4 H L M U K S A A C C Z Z Z C B B B 0 & +.+.+.+.+.+.+.+.+.",
"+.+.+.+.+.+.6 6 7 7 7 7 7 7 7 7 8 8 - u i i i u u F L U O.X.S A A C C Z S S S C C C B 8 6 +.+.+.+.+.+.+.+.",
"+.+.+.+.8 7 7 7 7 7 7 7 7 6 6 6 2 u Y ) Q p 1 6 - b P U o.X.A Z C C C Z S S Z Z C C B B 8 & +.+.+.+.+.+.+.",
"+.+.+.6 7 7 6 7 6 6 7 7 7 z P b 7 q | .. .Y 7 6 6 b I P K D h B N B B Z S X.S Z C C C B N 7 +.+.+.+.+.+.+.",
"+.+.7 6 6 6 7 7 5 e 7 6 z ` ` ' e 4 Q u ( ` 7 6 8 L I P G D t 0 6 8 C Z S X.X.S C B N N N 8 & +.+.+.+.+.+.",
"+.7 7 8 7 7 7 7 ) ` 8 6 e R d ( k p | 2 [ ` 8 6 3 P I J G h w 0 6 8 B Z S S S Z C B N 7 7 8 7 +.+.+.+.+.+.",
"+.6 5 P 7 7 7 3 ) R 7 6 z ( T _ j p ' b I ` 8 7 5 L P M D t w 1 6 N V C A Z C B B B N 7 7 7 & +.+.+.+.+.+.",
"+.7 5 Y 7 7 6 b I } c % e ' ' } l c ] ` ' ` N 7 3 M M b D w w 1 7 8 N B B C C N B B N 7 & & . +.+.+.+.+.+.",
"+.8 5 R 7 7 % M ` ' b 8 L ) I ` { [ L ` [ b B 7 N L L b D x 3 - 6 8 N B C C C Z Z C C N 7 & X & +.+.+.+.+.",
"+.7 e R 6 7 % z ` ` R I M L M I c x B C N B V 7 3 M L L M G D e 7 N B C Z S A A C C V N 8 6 = & +.+.+.+.+.",
"+.6 x } c T L L L t P 3 7 8 B N 8 B C V V N N 8 6 G M M b b b D 8 B C C B B B 8 6 & & & & 6 6 6 +.+.+.+.+.",
"+.8 N I ) b c B 8 6 6 7 8 N N B V V V V N N N 8 6 D b G b G G w 8 N 8 7 q a q q a - & < < # % & +.+.+.+.+.",
"+.7 6 3 ; 7 6 7 7 7 8 8 8 N N V V V V N 8 N N 8 6 D G G G F b 3 8 & X s E k d k W n s n a < < 6 7 +.+.+.+.",
"+.% 6 6 7 7 7 7 8 7 8 8 N N N V V V V 8 N N N 8 6 D G F G G c f 8 * 2 k W k j j k k j m a 2 j a * +.+.+.+.",
"+.& % 7 7 6 7 8 8 7 8 8 N 8 N B V V N V N B N 8 & g c D F c c D 8 & 2 k W Q W W Q ! Q E s 2 m s 6 +.+.+.+.",
"+.% . 6 7 7 7 8 7 8 8 8 8 8 N N B V V V C V V 8 & C G D c c c D N 6 < j W ! ! W W ! ~ W j q k s , +.+.+.+.",
"+.+.o + 7 7 7 7 8 8 8 8 0 0 w t f f V C A C C 7 & C X.D D D h h 0 7 - d m W E E m W Q E k a k a +.+.+.+.+.",
"+.+.+.  & 7 7 8 8 a d d i i i p p i g Z A C V 6 & Z S S A A t w N 8 6 a k E m m k m E m k q d 4 +.+.+.+.+.",
"+.+.+.+.X 7 7 8 d u i i u j i j i j Z Z C V 8 & 6 Z A A D h f w 9 9 - 1 d k E W E W W m j s s 2 +.+.+.+.+.",
"+.+.+.+.% 8 8 y u u d y a g p j n k k C V N 6 % 8 Z A h v h h r 9 8 8 * j ~ / ^ ! ! ! W k a j a a +.+.+.+.",
"+.+.+.+.+.& < u u u 4 s i d j V V V j w 7 6 & 6 N C Z h t v f f 0 - & X k Q ^ ~ Q W Q ! W s a d d d +.+.+.",
"+.+.+.+.+.+., < 4 4 u s d B s a 8 8 8 6 6 6 8 N A Z Z C Z f f f w 9 & + a m ! ~ ~ E m ! ^ ! a s k j a +.+.",
"+.+.+.+.+.+.+.  O , & < - 6 6 $ & & 6 6 8 N N V C C Z C C C C C t w $ + + s E Q ~ ! n E W Q E d d j j 4 +.",
"+.+.+.+.+.+.+.+.X % X % %           X X % % & & 7 8 N V C C B N N 8 & % +.2 d E Q ~ ! m k E Q W j j s a 2 ",
"+.+.+.+.+.+.+.+.X % % X   X % X   X & & X X X X X X O & & & & & & & + & +.+.2 j E Q ! Q m k m E E s 2 s 2 ",
"+.+.+.+.+.+.+.+.O   X % % & 6 % %                   % % % % %     X % 7 +.o # a k E W ! E n k j j j a s < ",
"+.+.+.+.+.+.+.+.+.X % % & 6 6 6 6 6 6 & % % 6 6 6 6 6 6 6 6 6 6     X @ $ O o # a k m E W E k j s s s a 2 ",
"+.+.+.+.+.+.+.+.+.X % & 6 7 7 7 7 6 6 6 & & 6 6 6 6 6 6 6 6 7 7 & . O 2 2 2 . o < s j m E m j s s s s a 2 ",
"+.+.+.+.+.+.+.+.+.X % & 6 8 8 8 7 7 6 6 & 6 6 6 6 6 6 6 6 6 8 7 & * + - 2 q 2 . < # 2 s j d s s s s s 2 < ",
"+.+.+.+.+.+.+.+.+.X % 6 6 8 N 8 8 8 6 6 6 6 6 6 7 7 8 7 6 8 N 7 6 6 %   + 2 2 # # @ # $ - 2 a a a 2 < a 4 ",
"+.+.+.+.+.+.+.+.X X % 6 7 8 N N 8 7 6 6 6 6 6 7 7 8 8 8 7 N N 7 % 6 6     O # , + O $ 9 + < s s d a a 4 +.",
"+.+.+.+.+.+.+.X % X % 6 7 8 N N 8 7 6 6 & 6 6 8 8 N B N 8 8 7 6 X 6 6 %     +.+.+.: + - # O 2 2 2 2 4 +.+.",
"+.+.+.+.+.+.+.X % X % & 7 8 N 8 8 7 6 6 & 6 6 8 N B B N 8 7 6 6 X % & % %   +.+.+.@ + - $ O +.+.+.+.+.+.+.",
"+.+.+.+.+.+.X % & X % & 6 8 8 8 8 6 6 & % & 6 8 8 N N 8 8 6 6 6 X   & % %     +.+.% - 0 t * +.+.+.+.+.+.+.",
"+.+.+.+.+.+.X % & % X % & 6 6 7 6 6 & % X % & 6 8 8 8 7 7 7 6 6 %   & & %     +.+.6 1 h t - +.+.+.+.+.+.+.",
"+.+.+.+.+.X % & & % % X & 6 6 6 & & % % X % & 6 6 7 7 6 6 7 6 & %   & & % %   o +.+.+.+.+.+.+.+.+.+.+.+.+.",
"+.+.+.+.+.X % & & & & % % 6 6 & % % X X X X % & & 6 6 6 8 7 7 7 6 6 & & % 6 %     +.+.+.+.+.+.+.+.+.+.+.+.",
"+.+.+.+.+.X % & & 6 6 6 6 6 & % X X X X +.+.X X % & 6 6 7 6 6 7 6 & % & % 6       o +.+.+.+.+.+.+.+.+.+.+.",
"+.+.+.+.+.X % % & & 6 6 7 6 6 & % % X X +.+.+.+.X % & & 6 6 6 7 6 6 % % % 6         o +.+.+.+.+.+.+.+.+.+.",
"+.+.+.+.+.X X % & & & 6 7 6 6 6 & % X +.+.+.+.+.+.X % % & & 6 6 & % % 6 % %         X . +.+.+.+.+.+.+.+.+.",
"+.+.+.+.+.X X % % & % 6 6 6 6 6 & % X +.+.+.+.+.+.+.X X % % & & % % 6 7 %   % %     , +.+.+.+.+.+.+.+.+.+.",
"+.+.+.+.X X X X o . o . & 6 6 & % X +.+.+.+.+.+.+.+.+.+.X X % & & 6 6 %   %       # < +.+.+.+.+.+.+.+.+.+.",
"+.+.+.+.X     . .     . . & & & % X +.+.+.+.+.+.+.+.+.+.+.+.X X           % O < a a 2 +.+.+.+.+.+.+.+.+.+.",
"+.+.+.X     o o o o       O & % X   +.+.+.+.+.+.+.+.+.+.+.+.+.+.+.X # # O O # < < < < +.+.+.+.+.+.+.+.+.+.",
"+.+.+.        . o     o     X % X +.+.+.+.+.+.+.+.+.+.+.+.+.+.+.+.X # . .   .           +.+.+.+.+.+.+.+.+.",
"+.+.X   o o   o   o o o       X o +.+.+.+.+.+.+.+.+.+.+.+.+.+.+.X     o   o o     . o   +.+.+.+.+.+.+.+.+.",
"+.+.  . . . o   o       o   o X +.+.+.+.+.+.+.+.+.+.+.+.+.+.+.+.  o   o . o . . o       +.+.+.+.+.+.+.+.+.",
"+.+.. O . . . . .       o     +.+.+.+.+.+.+.+.+.+.+.+.+.+.+.+.+.  o     o . . .       X +.+.+.+.+.+.+.+.+.",
"+.X . O . O + .           o   +.+.+.+.+.+.+.+.+.+.+.+.+.+.+.+.+.X       o . o o       X +.+.+.+.+.+.+.+.+.",
"+.  . . . . O O   .         o +.+.+.+.+.+.+.+.+.+.+.+.+.+.+.+.+.+.    o o . O . . o   +.+.+.+.+.+.+.+.+.+.",
"+.. O   O . o . . .       o O +.+.+.+.+.+.+.+.+.+.+.+.+.+.+.+.+.+.X     . . o     o   +.+.+.+.+.+.+.+.+.+.",
"X . . . . + O O .         +.+.+.+.+.+.+.+.+.+.+.+.+.+.+.+.+.+.+.+.+.      o . . o o   +.+.+.+.+.+.+.+.+.+.",
"o . . . O O . . .         +.+.+.+.+.+.+.+.+.+.+.+.+.+.+.+.+.+.+.+.+.X   . . . o o     +.+.+.+.+.+.+.+.+.+.",
"O O O . o + O . .         X +.+.+.+.+.+.+.+.+.+.+.+.+.+.+.+.+.+.+.+.+.  o . . . o .   +.+.+.+.+.+.+.+.+.+.",
"o   . . . . O .     +.o     +.+.+.+.+.+.+.+.+.+.+.+.+.+.+.+.+.+.+.+.+.o   o . O o .   +.+.+.+.+.+.+.+.+.+.",
". O . . . . . O O   +.+.+.+.+.+.+.+.+.+.+.+.+.+.+.+.+.+.+.+.+.+.+.+.+.+.  o o . .   +.+.+.+.+.+.+.+.+.+.+.",
"% O O O O . O + . o +.+.+.+.+.+.+.+.+.+.+.+.+.+.+.+.+.+.+.+.+.+.+.+.+.+.. o + . O . @ +.+.+.+.+.+.+.+.+.+.",
". O . . . . . O . X +.+.+.+.+.+.+.+.+.+.+.+.+.+.+.+.+.+.+.+.+.+.+.+.+.+.  o . o O O   o +.+.+.+.+.+.+.+.+.",
". . . o o . . O . X X +.+.+.+.+.+.+.+.+.+.+.+.+.+.+.+.+.+.+.+.+.+.+.+.X     o . . . .     X +.+.+.+.+.+.+.",
"X   . O . . O   . X X X +.+.+.+.+.+.+.+.+.+.+.+.+.+.+.+.+.+.+.+.+.+.+.X   O . O o . O o o   o +.+.+.+.+.+.",
"X . . O O o # O . X X X +.+.+.+.+.+.+.+.+.+.+.+.+.+.+.+.+.+.+.+.+.+.+.X   . . .   . .       o +.+.+.+.+.+.",
"+.X o . . . . . . X X X +.+.+.+.+.+.+.+.+.+.+.+.+.+.+.+.+.+.+.+.+.+.+.X X X X X X X X X X X X +.+.+.+.+.+."
};
