/* XPM */
static char *_9726_1ade6e970be41c3bc2c88c047954625d91adcd73e285bd018f4bde85d2da54d3[] = {
/* columns rows colors chars-per-pixel */
"75 75 106 2 ",
"   c black",
".  c #040000",
"X  c #040402",
"o  c #070402",
"O  c #000207",
"+  c #070407",
"@  c #0C0707",
"#  c #100000",
"$  c #100400",
"%  c #1A0702",
"&  c #100C04",
"*  c #160C0C",
"=  c #040410",
"-  c #070C1A",
";  c #101010",
":  c #1A1610",
">  c #1F1A1A",
",  c #240000",
"<  c #240C04",
"1  c #310200",
"2  c #2D1607",
"3  c #391A0C",
"4  c #241A16",
"5  c #2D1F1A",
"6  c #242410",
"7  c #2D2D16",
"8  c #39351F",
"9  c #0C1028",
"0  c #101A31",
"q  c #1A243F",
"w  c #282428",
"e  c #312824",
"r  c #392D28",
"t  c #3F312D",
"y  c #353131",
"u  c #3F3939",
"i  c #430400",
"p  c #540700",
"a  c #580000",
"s  c #431F10",
"d  c #4C2810",
"f  c #542D16",
"g  c #61311A",
"h  c #69391F",
"j  c #433F24",
"k  c #473931",
"l  c #4C3F35",
"z  c #713F24",
"x  c #695000",
"c  c #755800",
"v  c #654310",
"b  c #4C4C28",
"n  c #54433F",
"m  c #545431",
"M  c #794328",
"N  c #615C35",
"B  c #69653F",
"V  c #1F2847",
"C  c #243150",
"Z  c #28355C",
"A  c #313F65",
"S  c #35436D",
"D  c #394C79",
"F  c #4C4747",
"G  c #5C4C43",
"H  c #585050",
"J  c #65544C",
"K  c #6D5C50",
"L  c #61585C",
"P  c #797547",
"I  c #6D6165",
"U  c #756D71",
"Y  c #AF0000",
"T  c #836500",
"R  c #8F6D02",
"E  c #977902",
"W  c #874C2D",
"Q  c #8F5435",
"!  c #935C39",
"~  c #9B6543",
"^  c #A36D47",
"/  c #AB7550",
"(  c #AF7E58",
")  c #836D61",
"_  c #8F7569",
"`  c #837579",
"'  c #977E71",
"]  c #A38302",
"[  c #AF8F02",
"{  c #B49707",
"}  c #BFA307",
"|  c #CCAF08",
" . c #9F8779",
".. c #3F5083",
"X. c #47588F",
"o. c #506197",
"O. c #8B7E83",
"+. c #978B8F",
"@. c #9B8F93",
"#. c #AF9787",
"$. c #A3979B",
"%. c #AFA7AB",
"&. c #B4AFAF",
"*. c #C4BCBC",
"=. c #CCC0C5",
"-. c None",
/* pixels */
"-.-.-.-.-.-.-.-.-.-.-.-.-.-.-.-.-.-.-.-.-.-.-.-.-.-.-.-.-.-.-.-.-.-.-.-.-.-.-.-.-.-.-.-.-.-.-.-.-.-.-.-.-.% 2 < 2 < s d s s s 3 2 < -.-.-.-.-.-.-.-.-.",
"-.-.-.-.-.-.-.-.-.-.-.-.-.-.-.-.-.-.-.-.-.-.-.-.-.-.-.-.-.-.-.-.-.-.-.-.-.-.-.-.-.-.-.-.-.-.-.-.-.-.-.< 2 3 s $ < s 3 3 3 3 s s 3 s s 3 -.-.-.-.-.-.-.",
"-.-.-.-.-.-.-.-.-.-.-.-.-.-.-.-.-.-.-.-.-.-.-.-.-.-.-.-.-.-.-.-.-.-.-.-.-.-.-.-.-.-.-.-.-.-.-.-.-.< 2 3 d s < 3 z W f 3 d s s 3 3 d s -.-.-.-.-.-.-.-.",
"-.-.-.-.-.-.-.-.-.-.-.-.-.-.-.-.-.-.-.-.-.-.-.-.-.-.-.-.-.-.-.-.-.-.-.-.-.-.-.-.-.-.-.-.-.-.-.< d s 3 d s s d / ! s 3 s 3 s s d d s -.-.-.-.-.-.-.-.-.",
"-.-.-.-.-.-.-.-.-.-.-.-.-.-.-.-.-.-.-.-.-.-.-.-.-.-.-.-.-.-.-.-.-.-.-.-.-.-.-.-.-.-.-.-.-.-.% s 3 s d 3 s 3 W / f 3 s f 3 s d g s -.-.-.-.-.-.-.-.-.-.",
"-.-.-.-.-.-.-.-.-.-.-.-.-.-.-.-.-.-.-.-.-.-.-.-.-.-.-.-.-.-.-.-.-.-.-.-.-.-.-.-.-.-.-.-.-.$ $ < s g d 2 < < ! ^ < < < 3 < < % 3 -.-.-.-.-.-.-.-.-.-.-.",
"-.-.-.-.-.-.-.-.-.-.-.-.-.-.-.-.-.-.-.-.-.-.-.-.-.-.-.-.-.-.-.-.-.-.-.-.-.-.-.-.-.-.-.-.$ % < % f s < % < % d W < % % % % % $ -.-.-.-.-.-.-.-.-.-.-.-.",
"-.-.-.-.-.-.-.-.-.-.-.-.-.-.-.-.-.-.-.-.-.-.-.-.-.-.-.-.-.-.-.-.-.-.-.-.-.-.-.-.-.-.$ % % % % < 3 < % < 2 s s d s d d h M Q Q h -.-.-.-.-.-.-.-.-.-.-.",
"-.-.-.-.-.-.-.-.-.-.-.-.-.-.-.-.-.-.-.-.-.-.-.-.-.-.-.-.-.-.-.-.-.-.-.-.-.-.-.-.-.$ % < < < < < % $ s h g g h d s g W Q ^ ( ^ Q M -.-.-.-.-.-.-.-.-.-.",
"-.-.-.-.-.-.-.-.-.-.-.-.-.-.-.-.-.-.-.-.-.-.-.-.-.-.-.-.-.-.-.-.-.-.-.-.-.-.-.-.< < < < % < < < 2 d z Q W g g d f g M h Q g < 3 f g -.-.-.-.-.-.-.-.-.",
"-.-.-.-.-.-.-.-.-.-.-.-.-.-.-.-.-.-.-.-.-.-.-.-.-.-.-.-.-.-.-.-.-.-.-.-.-.-.-.& < < < < < < 3 s g M z W ^ W M M M M ! ! M s a a < 3 -.-.-.-.-.-.-.-.-.",
"-.-.-.-.-.-.-.-.-.-.-.-.-.-.-.-.-.-.-.-.-.-.-.-.-.-.-.-.-.-.-.-.-.-.-.-.-.9 2 < s 3 < < 3 d g h Q M g g ! / / ^ ^ z W M f s a Y a -.-.-.-.-.-.-.-.-.-.",
"-.-.-.-.-.-.-.-.-.-.-.-.-.-.-.-.-.-.-.-.-.-.-.-.-.-.-.-.-.-.-.-.-.-.-.-.0 V C V w s d 3 g f h h h h d 2 3 h W ! W h d g g s s Y a 2 -.-.-.-.-.-.-.-.-.",
"-.-.-.-.-.-.-.-.-.-.-.-.-.-.-.-.-.-.-.-.-.-.-.-.-.-.-.-.-.-.-.-.-.-.-.9 q C Z Z V V t d h W d s 2 2 s 3 s s d h g g g g M d z g 2 < d d -.-.-.-.-.-.-.",
"-.-.-.-.-.-.-.-.-.-.-.-.-.-.-.-.-.-.-.-.-.-.-.-.-.-.-.-.-.-.-.-.-.q 8 y 0 0 V V C V V V t h d s d d d z g g g M z g z W Q g W Q g h h g g f f -.-.-.-.",
"-.-.-.-.-.-.-.-.-.-.-.-.-.-.-.-.-.-.-.-.-.-.-.-.-.-.-.-.-.-.9 q r 8 j j j u y 0 q q q q q q r g h d 2 d s s g / W h ! ~ M s ! M Q W Q ! W M h g f s -.",
"-.-.-.-.-.-.-.-.-.-.-.-.-.-.-.-.-.-.-.-.-.-.-.-.-.-.-.-.-.6 6 8 8 j j y 7 0 9 - 9 q q V q w 5 r n d < s M g M ~ z z Q ^ Q g ~ M ~ M W ^ W ! M Q Q g -.",
"-.-.-.-.-.-.-.-.-.-.-.-.-.-.-.-.-.-.-.-.-.-.-.-.-.-.- 9 6 8 8 8 7 6 9 9 9 - 0 V C Z A Z C > < r L H s s Q ^ ~ ~ Q M ! ! ^ Q ^ ^ M g ~ W Q ~ M ^ W s -.",
"-.-.-.-.-.-.-.-.-.-.-.-.-.-.-.-.-.-.-.-.-.-.- 0 @ - - - - ; : - - 9 9 - 0 q Z D F A u A A y + . = & 6 s g Q ! ^ ~ g M K +.Q _ +.h W Q h ^ Q ! ~ Q 3 -.",
"-.-.-.-.-.-.-.-.-.-.-.-.-.-.-.-.-.-.-.- 9 = O - - - - - - - - 9 9 - = 9 u l F F b H b A y Z q & + * . s s d g ! Q / g H &.1 k %.3 d f z W W Q U +.-.-.",
"-.-.-.-.-.-.-.-.-.-.-.-.-.-.-.-.-.-.- X X = = - O - - - = - 9 0 9 9 V u k t k k k F H H F y w w V V V V 0 d h g M ^ ! K ` , : ` , . , 3 f l ` &.` -.-.",
"-.-.-.-.-.-.-.-.-.-.-.-.-.-.-.-.-.-.1 # + 6 ; = v 9 - 6 8 - 0 0 0 9 C u k l l F F F H F t w V V y u F u F y f W z W ! ! -.z ` -.-.-.-.3 s d $.+.L -.-.",
"-.-.-.-.-.-.-.-.-.-.-.-.-.-.-.-.-.- g < 8 E ; 8 E 9 O b m - q 0 9 9 Z u k l l l F F F e q V Z Z V u F F F F 7 f Q W Q ~ ! W M h -.-.-.-.-.U *.` -.-.-.",
"-.-.-.-.-.-.-.-.-.-.-.-.-.-.-.-.-.< g s x v O E N - 9 N 0 0 0 0 9 0 A A A A u u F F y w V q Z Z y Z y u b F y d M Q Q ~ ~ z M M M g -.-.U @.@.-.-.-.-.",
"-.-.-.-.-.-.-.-.-.-.-.-.-.-.-.-.-.7 p g x 6 7 P y 9 7 N 0 q 0 0 0 y A A A A A A D Z q Z A Z A D A A Z u F H F y f z Q ! ~ Q h f g M h U @.*.O.-.-.-.-.",
"-.-.-.-.-.-.-.-.-.-.-.-.-.-.-.-.- 8 1 N N 9 B E V - P N 0 C 0 0 7 A A A A A D D D Z V Z A D D A A A A F ..L b Z q g h W ^ ~ M g g h h ' =.%.-.-.-.-.-.",
"-.-.-.-.-.-.-.-.-.-.-.-.-.-.-.-.9 v 7 c v v B E B } | j V C 0 q k F A A A D D D A Z A Z A D Z Z A D ..X.X.L H A V q f g W W M M Q ! W Q #.O.z -.-.-.-.",
"-.-.-.-.-.-.-.-.-.-.-.-.-.-.-.-.0 N v 7 7 b v N B E P q C C 0 V G H F D D D S D D Z A A A A A S D ..X.o.X.X...A u y 7 -.s f g h ! ^ ^ / ^ M g -.-.-.-.",
"-.-.-.-.-.-.-.-.-.-.-.-.-.-.-.-.= - - O - 9 9 0 0 0 0 V C q 0 t F F F u D Z A S D A A Z Z Z Z A A ..X.o.L ..D F F u 7 & -.-.s f W W Q ! z d -.-.-.-.-.",
"-.-.-.-.-.-.-.-.-.-.-.-.-.-.-.-.# O = - 9 0 0 0 q V q C C 0 9 r A t l G H H F u A V V A Z Z Z Z D X.X...H H H F u 8 : w : -.-.f g z M z f -.-.-.-.-.-.",
"-.-.-.-.-.-.-.-.-.-.-.-.-.-.-.9 = X = - - 9 0 0 0 0 0 C C q 0 y A y F D n G G k k t y A y C A A A D A F H n F k e 6 w r 0 -.-.-.-.-.-.-.-.-.-.-.-.-.-.",
"-.-.-.-.-.-.-.-.-.-.-.-.-.-.0 q 0 X = - - 9 0 0 0 q q C C 0 0 t y u Z F H H H F b j u y w q y Z V Z A u F l e : : : q V 0 = 4 -.-.-.-.-.-.-.-.-.-.-.-.",
"-.-.-.-.-.-.-.-.-.-.-.-.-.-.- 0 9 O = - - 9 9 0 0 0 0 C q 0 q y y y Z y F N m m b j 8 e : 9 q V V r y e e w * 0 9 - q V 0 C q 9 -.-.-.-.-.-.I k 6 I -.",
"-.-.-.-.-.-.-.-.-.-.-.-.-.-.-.& = O = - - 9 9 9 0 0 0 q q 0 q u y y y Z A H m m m n e y 7 - 0 q w V e e w w e q 0 V Z w r e w : X X X X     X # % F U ",
"-.-.-.-.-.-.-.-.-.-.-.-.-.-.f z d = = - & - * : 9 9 0 0 0 9 q u y y y y y y F m m m j 7 7 & 9 w e e e e e y V q Z A Z V r e w * t F I K H n J K J ` I ",
"-.-.-.-.-.-.-.-.-.-.-.-.-.s h M g X = 1 < < < < < 9 0 0 0 9 e u Z Z Z y y y u b b m b 7 6 O = 9 w e r e e V q V Z Z Z V e > * . 4 J ) ) I I G H H L G ",
"-.-.-.-.-.-.-.-.-.-.-.-.3 f z Q h * = % < < < < < < 0 0 9 9 u u Z Z Z A Z y y y u b m 7 - 0 O 9 9 w e e q q Z A Z Z V r : X 2 $   * < > ` O.e w y u ` ",
"-.-.-.-.-.-.-.-.-.-.-.-.d z Q Q M 5   $ < % < < < < < 2 < 0 u F Z Z Z Z Z Z u Z y y j e - - O = 9 9 q w V A A A Z Z V * $ 2 g 2   1 -.0 L ) r -.-.-.-.",
"-.-.-.-.-.-.-.-.-.-.-.d M Q ! Q h g - X = + < < % < < i < s A Z S Z A Z A A A Z Z y e 0 9 =   O = - 9 V Z Z Z Z A q > 2 < 2 d d < $ # < U ` w < F O.` ",
"-.-.-.-.-.-.-.-.-.-.g z Q ! ! ! M h d <     X o O = + % < V Z Z Z Z A Z A A A A A Z q 9 =   X X O = - 0 e V V V > 2 h h 2 2 d 2 s 2 U )  ._ l U k L U ",
"-.-.-.-.-.-.-.-.-.d h Q ! Q W M g s 2 2 < $ .       = 0 q C q V C S Z S A A A A A Z q 9 O & ; - = - = - 0 w 5 5 d s d h h d < < f 3 r t l e w y u F -.",
"-.-.-.-.-.-.-.-.-.g W Q Q M v g d 2 2 2 2 s *         . X & - 0 q Z S S S A Z A Z Z q - . o - - 9 -.  * r d 2 d h h h M M g 2 3 s s < -.-.-.-.-.-.-.-.",
"-.-.-.-.-.-.-.-.-.d g d g h g d 2 2 2 2 2 * + O O - 9 = X X X $ & - q C V V V q q > 9 O o < < & -.-.  # $ s d d f h W Q W h d < s ! z -.-.-.-.-.-.-.-.",
"-.-.-.-.-.-.-.-.-.-.3 < d g g d s 2 2 * O - 9 0 0 q q q q - X X X     = 0 = 0 0 0 - - . < < < -.-.-.& $   . d h g f h W W M g 2 s ! s -.-.-.-.-.-.-.-.",
"-.-.-.-.-.-.-.-.-.-.2 & < s g d $ $ * O - 0 q 0 q q q q 0 - - 0 e 9 - O O = O * * - O O $ < -.-.-.-.< * $ $ < g h d f h h h d d < g -.-.-.-.-.-.-.-.-.",
"-.-.-.-.-.-.-.-.-.-.-.& < 2 d d < . $ - - - 0 9 q 0 0 9 - - w T j 9 9 - O O O X     = -.-.-.-.-.-.-.-.$ 2 s $ d h M h g f d g g < -.-.-.-.-.-.-.-.-.-.",
"-.-.-.-.-.-.-.-.-.-.-.-.. < 2 s < $ < - - - - 9 0 0 9 - - - N x q 9 9 - O   - O     -.-.-.-.-.-.-.-.-.-.2 3 < s W ! g d f s f 3 -.-.-.-.-.-.-.-.-.-.-.",
"-.-.-.-.-.-.-.-.-.-.-.-.-.$ % < < $ * O - 9 9 0 0 0 9 9 - q x e 9 9 9 - .   - O   O     -.-.-.-.-.-.-.-.-.% & < s d s g d 2 3 -.-.-.-.-.-.-.-.-.-.-.-.",
"-.-.-.-.-.-.-.-.-.-.-.-.-.-.-.X % $ $ O - 9 9 9 0 9 - 9 - e v u - 9 9 - - O - O O   O O   -.-.-.-.-.-.-.-.-.-.% < 2 3 3 3 < -.-.-.-.-.-.-.-.-.-.-.-.-.",
"-.-.-.-.-.-.-.-.-.-.-.-.-.-.-.-.-.$ $   - - 9 9 - - - 0 0 e R V 0 - - - - O O O O O O O O   . -.-.-.-.-.-.-.-.-.-.-.-.-.-.-.-.-.-.-.-.-.-.-.-.-.-.-.-.",
"-.-.-.-.-.-.-.-.-.-.-.-.-.-.-.-.-.-.-.-.O - 9 9 - - 9 0 q E [ y q - - - O O O = - = = = O .     -.-.-.-.-.-.-.-.-.-.-.-.-.-.-.-.-.-.-.-.-.-.-.-.-.-.-.",
"-.-.-.-.-.-.-.-.-.-.-.-.-.-.-.-.-.-.-.-.O - - - - 9 0 0 q [ ] Z q - - - O O = - - = = O - - =       -.-.-.-.-.-.-.-.-.-.-.-.-.-.-.-.-.-.-.-.-.-.-.-.-.",
"-.-.-.-.-.-.-.-.-.-.-.-.-.-.-.-.-.-.-.-.-.O - - - - 0 0 q { B q q 9 - - O   - = = - = - 9 - - O O O   -.-.-.-.-.-.-.-.-.-.-.-.-.-.-.-.-.-.-.-.-.-.-.-.",
"-.-.-.-.-.-.-.-.-.-.-.-.-.-.-.-.-.-.-.-.-.O O - - 9 0 0 Z [ B 0 0 - - O   O - - - - - - 9 - - - O O O O -.-.-.-.-.-.-.-.-.-.-.-.-.-.-.-.-.-.-.-.-.-.-.",
"-.-.-.-.-.-.-.-.-.-.-.-.-.-.-.-.-.-.-.-.-.O O - - 9 0 0 F R m q 0 9 - O O O = - - - - - - - - 9 - O O O   -.-.-.-.-.-.-.-.-.-.-.-.-.-.-.-.-.-.-.-.-.-.",
"-.-.-.-.-.-.-.-.-.-.-.-.-.-.-.-.-.-.-.-.-.-.O - - - 0 - G E t 0 9 9 = O     O = - - - - - - - = O s 2 -.O O -.-.-.-.-.-.-.-.-.-.-.-.-.-.-.-.-.-.-.-.-.",
"-.-.-.-.-.-.-.-.-.-.-.-.-.-.-.-.-.-.-.-.-.-.  - - - 0 - N ] V 0 9 + O O       O = - - - - - - - 9 * < -.-.-.-.-.-.-.-.-.-.-.-.-.-.-.-.-.-.-.-.-.-.-.-.",
"-.-.-.-.-.-.-.-.-.-.-.-.-.-.-.-.-.-.#   -.-.  - - - 9 0 E P 0 0 9 =     -.-.      O O - 5 d z Q r - + -.-.-.-.-.-.-.-.-.-.-.-.-.-.-.-.-.-.-.-.-.-.-.-.",
"-.-.-.-.-.-.-.-.-.-.-.-.-.-.-.-.        2 d s - - - - t E k - 9 - .   -.-.-.-.  2 g M ! ^ ^ ~ ! h 9 9 -.-.-.-.-.-.-.-.-.-.-.-.-.-.-.-.-.-.-.-.-.-.-.-.",
"-.-.-.-.-.-.-.-.-.-.-.-.-..       .     $ Q ^ M d - - T c q 9 - O O   -.-.-.-.  . $ s f M W M W M s . -.-.-.-.-.-.-.-.-.-.-.-.-.-.-.-.-.-.-.-.-.-.-.-.",
"-.-.-.-.-.-.-.-.-.-.-..     . .   .       W ^ ^ Q M n E 8 - 9 - O   -.-.-.-..   .         .   . .     . -.-.-.-.-.-.-.-.-.-.-.-.-.-.-.-.-.-.-.-.-.-.-.",
"-.          -.-..     . . .         X     f ! ^ ^ Q W T 0 - - - O   -.-.-.-.    .   .   X         .   .   -.-.-.-.-.-.-.-.-.-.-.-.-.-.-.-.-.-.-.-.-.-.",
"                            .           . . W ! ~ w e x - k > - O -.-.-.-.-.    .         . .     . .   .   .     . . -.-.-.-.-.-.-.-.-.-.-.-.-.-.-.-.",
"          . . .   X   .             X     . h ! ! s : w f M d + O -.-.-.-.-.    . . .         .               -.-.-.-.-.-.-.-.-.-.-.-.-.-.-.-.-.-.-.-.",
"    . . . .     . .   . .       .   X       * h Q k > s h 3 d *   -.-.-.-.-.    . .       . .         . -.-.-.-.-.-.-.-.-.-.-.-.-.-.-.-.-.-.-.-.-.-.-.",
"    . .       .       X   .       .       X   d z h d 3 s -.% O -.-.-.-.-.-.    .     .         .   -.-.-.-.-.-.-.-.-.-.-.-.-.-.-.-.-.-.-.-.-.-.-.-.-.",
"-.                                . . .   .   2 f s 3 -.-.-.+ = -.-.-.-.-.-.    .         .       -.-.-.-.-.-.-.-.-.-.-.-.-.-.-.-.-.-.-.-.-.-.-.-.-.-.",
"-.      .             .               .       # -.-.-.-.-.-.9 -.-.-.-.-.-.-.-.  .       .       -.-.-.-.-.-.-.-.-.-.-.-.-.-.-.-.-.-.-.-.-.-.-.-.-.-.-.",
"-.    X         .   -.-.-.      .   . . .   -.-.-.-.-.-.-.-.-.0 -.-.-.-.-.-.-.. .   .     .   -.-.-.-.-.-.-.-.-.-.-.-.-.-.-.-.-.-.-.-.-.-.-.-.-.-.-.-.",
"-.      .         -.-.-.-.-.-.              -.-.-.-.-.-.-.-.-.-.-.-.-.-.-.-.-.#             .   -.-.-.-.-.-.-.-.-.-.-.-.-.-.-.-.-.-.-.-.-.-.-.-.-.-.-.",
"-.-.    .   .   -.-.-.-.-.-.-.-.-..   . -.-.-.-.-.-.-.-.-.-.-.-.-.-.-.-.-.-.    .         .       -.-.-.-.-.-.-.-.-.-.-.-.-.-.-.-.-.-.-.-.-.-.-.-.-.-.",
"-.-.        .       -.-.-.-.-.-.-.-.  #   -.-.-.-.-.-.-.-.-.-.-.-.-.-.-.-.-.    .   .                         -.-.-.-.-.-.-.-.-.-.-.-.-.-.-.-.-.-.-.-.",
"-.-.      .       .   -.-.-.-.-.-.-.-.    -.-.-.-.-.-.-.-.-.-.-.-.-.-.-.-.-.  .   .       X . . .   .   . .   . -.-.-.-.-.-.-.-.-.-.-.-.-.-.-.-.-.-.-.",
"-.-.-.    $ .   .     -.-.-.-.-.-.-.-.-.    -.-.-.-.-.-.-.-.-.-.-.-.-.-.-.-.  . . . .     $   . $   . . .   . . -.-.-.-.-.-.-.-.-.-.-.-.-.-.-.-.-.-.-.",
"-.-.-.-.              -.-.-.-.-.-.-.-.-.-.-.-.-.-.-.-.-.-.-.-.-.-.-.-.-.-.-.                                    -.-.-.-.-.-.-.-.-.-.-.-.-.-.-.-.-.-.-."
};
