/* XPM */
static char *_3101_d37816448f1bd97e32671583151d42c82817a3176fa6b536b46a339a5d28360e[] = {
/* columns rows colors chars-per-pixel */
"64 74 110 2 ",
"   c black",
".  c #040000",
"X  c #040402",
"o  c #000207",
"O  c #070407",
"+  c #0C0707",
"@  c #100000",
"#  c #100400",
"$  c #1A0702",
"%  c #100C04",
"&  c #160C0C",
"*  c #1A1A07",
"=  c #040410",
"-  c #070C1A",
";  c #101010",
":  c #1A1610",
">  c #1F1A1A",
",  c #240C04",
"<  c #310200",
"1  c #2D1607",
"2  c #391A0C",
"3  c #241A16",
"4  c #2D1F1A",
"5  c #242410",
"6  c #2D2D16",
"7  c #39351F",
"8  c #0C1028",
"9  c #101A31",
"0  c #1A243F",
"q  c #282428",
"w  c #312824",
"e  c #392D28",
"r  c #3F312D",
"t  c #353131",
"y  c #3F3939",
"u  c #430400",
"i  c #540700",
"p  c #431F10",
"a  c #610C00",
"s  c #711002",
"d  c #4C2810",
"f  c #542D16",
"g  c #61311A",
"h  c #69391F",
"j  c #433F24",
"k  c #473931",
"l  c #4C3F35",
"z  c #713F24",
"x  c #695000",
"c  c #755800",
"v  c #654310",
"b  c #4C4C28",
"n  c #54433F",
"m  c #545431",
"M  c #794328",
"N  c #615C35",
"B  c #69653F",
"V  c #1F2847",
"C  c #243150",
"Z  c #28355C",
"A  c #313F65",
"S  c #35436D",
"D  c #394C79",
"F  c #4C4747",
"G  c #585050",
"H  c #65544C",
"J  c #6D5C50",
"K  c #61585C",
"L  c #716D43",
"P  c #797547",
"I  c #6D6165",
"U  c #756D71",
"Y  c #831602",
"T  c #8F1A04",
"R  c #8F6D02",
"E  c #874C2D",
"W  c #8F5435",
"Q  c #935C39",
"!  c #9B6543",
"~  c #A36D47",
"^  c #AB7550",
"/  c #AF7E58",
"(  c #837579",
")  c #977E71",
"_  c #A38302",
"`  c #AF8F02",
"'  c #B49707",
"]  c #BFA307",
"[  c #CCAF08",
"{  c #D8B80C",
"}  c #EC873F",
"|  c #DCC50C",
" . c #E8CC0C",
".. c #F3DC0C",
"X. c #FFE410",
"o. c #878350",
"O. c #8F8B54",
"+. c #979754",
"@. c #B48761",
"#. c #BF9B71",
"$. c #ABBC65",
"%. c #C8A379",
"&. c #3F5083",
"*. c #47588F",
"=. c #8B7E83",
"-. c #9B8F93",
";. c #AF9787",
":. c #AB9FA3",
">. c #BCB4B8",
",. c None",
/* pixels */
",.,.,.,.,.,.,.,.,.,.,.,.,.,.,.,.,.,.,.,.,.,.,.,.,.,.,.,.,.,.,.,.,.,.,.,.,.,.,.,.,.,.,.$ # $ $ $ # $ $ $ ,.,.,.,.,.,.,.,.,.,.,.,.",
",.,.,.,.,.,.,.,.,.,.,.,.,.,.,.,.,.,.,.,.,.,.,.,.,.,.,.,.,.,.,.,.,.,.,.,.,.,.,.,.,., , # # # # $ # # # $ $ ,.,.,.,.,.,.,.,.,.,.,.",
",.,.,.,.,.,.,.,.,.,.,.,.,.,.,.,.,.,.,.,.,.,.,.,.,.,.,.,.,.,.,.,.,.,.,.,.,.,.,.,.# , $ $ # $ $ , # $ $ 2 ,.,.,.,.,.,.,.,.,.,.,.,.",
",.,.,.,.,.,.,.,.,.,.,.,.,.,.,.,.,.,.,.,.,.,.,.,.,.,.,.,.,.,.,.,.,.,.,.,.,.,.,.X $ $ , # $ $ # , , g h ,.,.,.,.,.,.,.,.,.,.,.,.,.",
",.,.,.,.,.,.,.,.,.,.,.,.,.,.,.,.,.,.,.,.,.,.,.,.,.,.,.,.,.,.,.,.,.,.,.,.,.,.$ # # $ , $ $ $ # $ g h g ,.,.,.,.,.,.,.,.,.,.,.,.,.",
",.,.,.,.,.,.,.,.,.,.,.,.,.,.,.,.,.,.,.,.,.,.,.,.,.,.,.,.,.,.,.,.,.,.,.,.,.# , $ $ $ , , $ , # # h f ,.,.,.,.,.,.,.,.,.,.,.,.,.,.",
",.,.,.,.,.,.,.,.,.,.,.,.,.,.,.,.,.,.,.,.,.,.,.,.,.,.,.,.,.,.,.,.,.,.,.,.@ $ # , , , , $ $ $ $ , 1 2 ,.,.,.,.,.,.,.,.,.,.,.,.,.,.",
",.,.,.,.,.,.,.,.,.,.,.,.,.,.,.,.,.,.,.,.,.,.,.,.,.,.,.,.,.,.,.,.,.,.,.X # , # $ , , , 1 2 p p d p 2 1 ,.,.,.,.,.,.,.,.,.,.,.,.,.",
",.,.,.,.,.,.,.,.,.,.,.,.,.,.,.,.,.,.,.,.,.,.,.,.,.,.,.,.,.,.,.,.,.,.8 - 9 0 9 , $ $ 1 2 d p d g f p d p 2 2 ,.,.,.,.,.,.,.,.,.,.",
",.,.,.,.,.,.,.,.,.,.,.,.,.,.,.,.,.,.,.,.,.,.,.,.,.,.,.,.,.,.,.,.= 8 9 ; 8 9 9 0 > , 2 2 p p d g h p , # 1 p ,.,.,.,.,.,.,.,.,.,.",
",.,.,.,.,.,.,.,.,.,.,.,.,.,.,.,.,.,.,.,.,.,.,.,.,.,.,.,.,.,.,.= 8 9 ; 8 9 9 0 6 5 9 9 & 4 e g f d d p 1 p 1 ,.,.,.,.,.,.,.,.,.,.",
",.,.,.,.,.,.,.,.,.,.,.,.,.,.,.,.,.,.,.,.,.,.,.,.,.,.,.,.,.,.- 8 : ; 5 5 6 6 6 5 9 9 = = - = q 4 1 p d d 2 , ,.,.,.,.,.,.,.,.,.,.",
",.,.,.,.,.,.,.,.,.,.,.,.,.,.,.,.,.,.,.,.,.,.,.8 O = 8 : > > q V y b b b b b b m m b b F 0 9 9 9 & & & 1 1 ,.,.,.,.,.,.,.,.,.,.,.",
",.,.,.,.,.,.,.,.,.,.,.,.,.,.,.,.,.,.,.,.,.9 - 8 - 9 9 9 9 9 9 q t 7 7 j j b b b n n b 6 9 9 8 9 & & 1   O & ,.,.,.,.,.,.,.,.,.,.",
",.,.,.,.,.,.,.,.,.,.,.,.,.,.,.,.,.,.,., a 2 2 q 9 9 8 8 9 8 8 8 8 8 8 8 9 9 9 9 6 C 9 - - - X = 9 0   = X O $ : 2 1 ,.,.,.,.,.,.",
",.,.,.,.,.,.,.,.,.,.,.,.,.,.,.,.,.. < Y a i i - 9 9 9 8 8 8 8 9 8 9 9 9 9 9 9 9 9 9 9 9 9 = - V Z V V 0 O $ = , 1 p 2 ,.,.,.,.,.",
",.,.,.,.,.,.,.,.,.,.,.,.,.,.,.,.= o 2 Y T Q c g 2 1 8 V V V 9 9 8 8 - 8 9 9 0 9 9 9 9 9 9 8 t y k y y V 0 = , 1 1 d g p ,.,.,.,.",
",.,.,.,.,.,.,.,.,.,.,.,.,.,.o - 3 0 9 g @.#.%.Q , 8 ] |  .+.- 9 8 L _ m 8 9 9 0 V N V 9 9 - r r r y y y t > %   d d f g ,.,.,.,.",
",.,.,.,.,.,.,.,.,.,.,.,.,.= 9 0 0 V 8 R ~ Y / z 8 c [ v [ c - 8 9 ] X.O.8 V 0 9 0 ..o.8 0 - r k r r y y 7 w V q & f g ,.,.,.,.,.",
",.,.,.,.,.,.,.,.,.,.,.o 9 0 C Z V 0 9 ' N h } T i ~ ! 2 ] 6 9 8 m [  .O.8 C 0 9 C  .P 8 9   r k y k k y y y V w 0 0 F ,.,.,.,.,.",
",.,.,.,.,.,.,.,.,.,.8 9 V C Z C 0 8 6 { 8 B ] a < B ..] [ 0 - 8 [ [ | +.9 C C 9 L ..C 9 8 = y y y y y F F F r w V V y ,.,.,.,.,.",
",.,.,.,.,.,.,.,.,.- 9 V V Z C V V - b  .] [ B m R ` ] P ' 7 N b  . .X.+.C D A C O...C 0 - - Z A A A F G G F r r Z A Z 9 ,.,.,.,.",
",.,.,.,.,.,.,.,.o 8 0 V C Z C C V = 8 L [ ] b N o._ m P B L ' +...b ..| ] | | X.X. .V 9 - w A A A A F D D D S Z Z A Z 0 9 ,.,.,.",
",.,.,.,.,.,.,.o O 9 0 Z Z Z Z Z 0 = 8 8 8 8 8 8 8 8 8 9 9 7 6 v 7 0 b m P o.] $.$.B 8 9 - Z A A A A A A D A A A A A Z V C 0 ,.,.",
",.,.,.,.,.,.o - 9 9 0 V C A A Z 0 8 8 9 9 9 9 9 9 9 9 9 9 9 0 9 9 C C Z Z Z C 0 0 V 0 8 w G &.D D D A A A A S S A A Z C Z V C ,.",
",.,.,.,.,.9 0 V V C Z Z V V A Z V 9 8 9 9 8 8 9 9 9 9 9 9 0 V C C Z Z Z Z A A Z C C V - t F F D S A A Z Z D D S A A A A Z C V ,.",
",.,.,.,.8 0 V C C S S S S V V V 0 9 - 9 9 9 8 9 9 9 9 9 0 0 V C C C C Z C C C C C C 9 9 y G G G F A A V Z Z A D D D S S A Z 0 8 ",
",.,.,.- o . - q q 9 V A D Z 0 9 0 9 - 9 9 9 8 8 8 9 9 9 0 0 V C C C C Z Z Z Z C C C 8 0 D I H H N l r Z A A y D D A A A Z 0 9 + ",
",.,.,.=   , f ~ Q H w 9 V Z 0 9 9 9   8 9 8 8 8 8 8 9 0 0 V V C C C C C C Z Z C C 0 - Z D *.I N N F r 0 V A A &.D D A V 0 & - $ ",
",.,.,.= , d W ^ ^ / ~ W 9 9 0 9 8 = X 8 9 8 9 9 9 8 9 9 0 0 C C C C C C C C C V C 8 : t F K I J H F k 5 0 A A D &.Z V 9 & & - ,.",
",.,.,.$ p h ^ ^ ~ ~ ~ ~ E - 8 9 8 = X - 9 9 9 8 9 q q p f f f d w r C C C C C V 0 - w y G G N N H m y 5 0 Z A A F Z q 9 & - - ,.",
",.,.,.2 f Q ^ / ^ ^ ~ Q E d & - 8 = = - 8 9 9 9 u i i i i a s a a s a g w C C C - 9 t A F F &.K N m j 6 V Z Z A A V q > O     ,.",
",.,.1 d h ~ ~ / ^ ~ ~ W h g p O - - = o 8 9 9 9 > u p i i f p i i i i i a e C 9 - w t F F F F F m b j 5 0 Z Z A r w q & = .   ,.",
",.,.p g E ! ^ ^ ~ Q E h g d 2 , = - o . = 9 9 9 u u f 4 a p p a 2 u i i a a p o q w Z F F F F A y y 7 % 0 Z Z r r w > - = o   ,.",
",., g z E W Q ~ Q E h d d 2 1 1 & o   . O - - : u 0 9 9 u p q i f f i q a i , 3 t V A A F A y t t t 5 8 0 V V w w q & = = = @ ,.",
",.2 z E Q Q W Q E h d d p 1 1 1 #     . - O = = - - - - , : 8 9 2 9 2 - , , , V 0 Z A A A y t V q : 8 9 9 0 0 0 0 0 0 0 q - ,.,.",
"$ d M Q Q W E M f p d d 1 1 , , X   X   = 8 8 8 8 = o               = - 9 > 0 0 C A A A A t V q - 8 9 0 C Z A y y y Z V 9 o ,.,.",
", f W W E E E h p p g p 1 , , 3 5 5 -   o o =           .     . . .   o 8 8 9 0 0 A A A Z V 0 9 . 8 9 0 V C Z t t w q 9 - ,.,.,.",
"1 g E W M h M g 1 g p 1 , # & , & % &       =             X = = = = o     . % %   9 S Z V 0 9 - . . - 9 0 0 0 V q 9 & % ,.,.,.,.",
"2 h E E h h E E d 1 & , p # @ , 1 4 $ @   o             o - - - - - 8 8 - - # X X   8 9 0 8 8 X . . # 4 p p e 4 & , * ,.,.,.,.,.",
"1 h M E h h M M p # 1 & 5 1 , , 1 & o = - - - - o - - - - 8 9 8 9 9 9 9 8 8 = = o   .   = =   . # 4 1 4 d g g p , 1 , ,.,.,.,.,.",
", g M M g h M g , 1 p : n l p # . o = - - - 9 9 - 8 8 8 9 0 0 9 9 8 8 8 8 8 - - q %     .   . , 1 p , 4 d f g d 4 , ,.,.,.,.,.,.",
",.1 p f g g g 4 1 p , n / h g ,   = - - - 8 9 8 8 9 8 9 V V V 0 9 9 - 8 8 - - - 9 7   . # , 1 1 4 p # 1 g h h d 1 1 ,.,.,.,.,.,.",
",., 2 p f d d 1 1 d , ) ~ g h 1   = - - - 8 9 8 8 9 9 0 V Z Z V V 0 8 - - - - - - 6 = , 1 p p p d p # 1 g h h g 2 ,.,.,.,.,.,.,.",
",.,., 1 2 p d p d p 4 #.W h g g O o - 8 8 8 9 0 - o 9 0 C Z Z Z C 0 9 8 - - - - 9 7 = , p p p d g g d d M h f p ,.,.,.,.,.,.,.,.",
",.,.,.,.1 2 p d d , G ;.M h h f   o - - - 9 9 9 8   9 0 V V Z C Z V 9 8 8 - - - - 5 & = 2 p d d g g g h g d 1 ,.,.,.,.,.,.,.,.,.",
",.,.,.,.,.$ , % 1 , ( ( n h h p , o - - - - - 8 9   o 9 0 V V V V 0 9 8 - - - - - 8 6 . ,.2 p p 6 4 * * 1 , ,.,.,.,.,.,.,.,.,.,.",
",.,.,.,.,.,.,.,.,.5 :.I F y r e 1 o = - - - 8 - - o   o 9 0 0 0 0 0 9 8 - - - - - 8 b O ,.,.,.,.,.,.,.,.,.,.,.,.,.,.,.,.,.,.,.,.",
",.,.,.,.,.,.,.,.,.I =.G t t w : X o o - - - - - - =     o 8 9 9 9 9 8 8 - 8 8 - - 8 x ; ,.,.,.,.,.,.,.,.,.,.,.,.,.,.,.,.,.,.,.,.",
",.,.,.,.,.,.,.,.,.K :.:.U y t 5 - X o = - - - - o         = - 8 - 8 8 - 8 8 8 8 - 8 c * ,.,.,.,.,.,.,.,.,.,.,.,.,.,.,.,.,.,.,.,.",
",.,.,.,.,.,.,.,.,.( -.>.I w q > ; .   o = = o o           o = - - - - 8 8 8 - 8 - - x * ,.,.,.,.,.,.,.,.,.,.,.,.,.,.,.,.,.,.,.,.",
",.,.,.,.,.,.,.,.,.,.,.,.,.,.,.,.,.,.  o .     .             o = - - - - 8 8 9 8 - - j ; ,.,.,.,.,.,.,.,.,.,.,.,.,.,.,.,.,.,.,.,.",
",.,.,.,.,.,.,.,.,.,.,.,.,.,.,.,.,.,.,.        o   . .         o = - - 8 8 8 8 - - 8 v % ,.,.,.,.,.,.,.,.,.,.,.,.,.,.,.,.,.,.,.,.",
",.,.,.,.,.,.,.,.,.,.,.,.,.,.,.,.,.,.,.,.,.,.          o         o = - - - 8 - 8 - - v , ,.,.,.,.,.,.,.,.,.,.,.,.,.,.,.,.,.,.,.,.",
",.,.,.,.,.,.,.,.,.,.,.,.,.,.,.,.,.,.,.,.,.,.,.,.,.,..       .       p > - - - - - - 7 . ,.,.,.,.,.,.,.,.,.,.,.,.,.,.,.,.,.,.,.,.",
",.,.,.,.,.,.,.,.,.,.,.,.,.,.,.,.,.,.,.,.,.,.,.,.,.,..   .           # 2 h > - - - q v = ,.,.,.,.,.,.,.,.,.,.,.,.,.,.,.,.,.,.,.,.",
",.,.,.,.,.,.,.,.,.,.,.,.,.,.,.,.,.,.,.,.,.,.,.,.,.,.  . .   .           , M f - - r 5 o ,.,.,.,.,.,.,.,.,.,.,.,.,.,.,.,.,.,.,.,.",
",.,.,.,.,.,.,.,.,.,.,.,.,.,.,.,.,.,.,.,.,.,.,.,.@       .   . .           , W h 9 x -   ,.,.,.,.,.,.,.,.,.,.,.,.,.,.,.,.,.,.,.,.",
",.,.,.,.,.,.,.,.,.,.,.,.,.,.,.,.,.,.,.,.,.,.,.    . .           .         . h E p v   ,.,.,.,.,.,.,.,.,.,.,.,.,.,.,.,.,.,.,.,.,.",
",.,.,.,.,.,.,.,.,.,.,.,.,.,.,.,.,.,..         .   .     .       .           1 g d 7 % ,.,.,.,.,.,.,.,.,.,.,.,.,.,.,.,.,.,.,.,.,.",
",.,.,.,.,.,.,.,.,.,.,.,.,.,.,.,.,.      .     .       .         .     X   . X p p = 5 ,.,.,.,.,.,.,.,.,.,.,.,.,.,.,.,.,.,.,.,.,.",
",.,.,.,.,.,.,.,.,.,.,.,.,.,.,.,.,.  .           .   .     .   . .     .       . , , - ,.,.,.,.,.,.,.,.,.,.,.,.,.,.,.,.,.,.,.,.,.",
",.,.,.,.,.,.,.,.,.,.,.,.,.,.,.,.,.  .     .               .     . .   .         O - @ ,.,.,.,.,.,.,.,.,.,.,.,.,.,.,.,.,.,.,.,.,.",
",.,.,.,.,.,.,.,.,.,.,.,.,.,.,.,.,..   .       X                       .   .   .   = - ,.,.,.,.,.,.,.,.,.,.,.,.,.,.,.,.,.,.,.,.,.",
",.,.,.,.,.,.,.,.,.,.,.,.,.,.,.,.,.,.  .       . .         . . .                   o + ,.,.,.,.,.,.,.,.,.,.,.,.,.,.,.,.,.,.,.,.,.",
",.,.,.,.,.,.,.,.,.,.,.,.,.,.,.,.,.,.  .                     .     . @   . @ @   ,.  - ,.,.,.,.,.,.,.,.,.,.,.,.,.,.,.,.,.,.,.,.,.",
",.,.,.,.,.,.,.,.,.,.,.,.,.,.,.,.,.,.,.  .         .                 ,.,.,.,.,.,.,.,.- ,.,.,.,.,.,.,.,.,.,.,.,.,.,.,.,.,.,.,.,.,.",
",.,.,.,.,.,.,.,.,.,.,.,.,.,.,.,.,.,.,.  .     . .                 .   ,.,.,.,.,.,.,.,.9 ,.,.,.,.,.,.,.,.,.,.,.,.,.,.,.,.,.,.,.,.",
",.,.,.,.,.,.,.,.,.,.,.,.,.,.,.,.,.,.,..       . .                       ,.,.,.,.,.,.,.,.,.,.,.,.,.,.,.,.,.,.,.,.,.,.,.,.,.,.,.,.",
",.,.,.,.,.,.,.,.,.,.,.,.,.,.,.,.,.,.,..   .       .           .     . .   ,.,.,.,.,.,.,.,.,.,.,.,.,.,.,.,.,.,.,.,.,.,.,.,.,.,.,.",
",.,.,.,.,.,.,.,.,.,.,.,.,.,.,.,.,.,.,.                          . .   . .   ,.,.,.,.,.,.,.,.,.,.,.,.,.,.,.,.,.,.,.,.,.,.,.,.,.,.",
",.,.,.,.,.,.,.,.,.,.,.,.,.,.,.,.,.,.,.    .               .         .   .     ,.,.,.,.,.,.,.,.,.,.,.,.,.,.,.,.,.,.,.,.,.,.,.,.,.",
",.,.,.,.,.,.,.,.,.,.,.,.,.,.,.,.,.,.,.,.    . . . . . .                 .     ,.,.,.,.,.,.,.,.,.,.,.,.,.,.,.,.,.,.,.,.,.,.,.,.,.",
",.,.,.,.,.,.,.,.,.,.,.,.,.,.,.,.,.,.,.,.,.              . . ,.,.              ,.,.,.,.,.,.,.,.,.,.,.,.,.,.,.,.,.,.,.,.,.,.,.,.,."
};
