/* XPM */
static char *_1019_b5631701a20c2e09be8c2cc49f0460a54b7b473f5be2f4d69b78657c40a995a8[] = {
/* columns rows colors chars-per-pixel */
"82 79 98 2 ",
"   c black",
".  c #040000",
"X  c #040402",
"o  c #000207",
"O  c #070407",
"+  c #100000",
"@  c #100400",
"#  c #1A0702",
"$  c #100C04",
"%  c #160C0C",
"&  c #1A1A07",
"*  c #040410",
"=  c #070C1A",
"-  c #101010",
";  c #1A1610",
":  c #1F1A1A",
">  c #240000",
",  c #240C04",
"<  c #310200",
"1  c #2D1607",
"2  c #391A0C",
"3  c #241A16",
"4  c #2D1F1A",
"5  c #242410",
"6  c #2D2D16",
"7  c #39351F",
"8  c #0C1028",
"9  c #101A31",
"0  c #1A243F",
"q  c #282428",
"w  c #312824",
"e  c #392D28",
"r  c #3F312D",
"t  c #353131",
"y  c #3F3939",
"u  c #580000",
"i  c #431F10",
"p  c #4C2810",
"a  c #542D16",
"s  c #61311A",
"d  c #69391F",
"f  c #433F24",
"g  c #473931",
"h  c #4C3F35",
"j  c #713F24",
"k  c #695000",
"l  c #755800",
"z  c #654310",
"x  c #4C4C28",
"c  c #54433F",
"v  c #545431",
"b  c #794328",
"n  c #615C35",
"m  c #69653F",
"M  c #1F2847",
"N  c #243150",
"B  c #28355C",
"V  c #313F65",
"C  c #35436D",
"Z  c #394C79",
"A  c #4C4747",
"S  c #5C4C43",
"D  c #585050",
"F  c #65544C",
"G  c #6D5C50",
"H  c #61585C",
"J  c #716D43",
"K  c #796558",
"L  c #6D6165",
"P  c #756D71",
"I  c #AF0000",
"U  c #874C2D",
"Y  c #8F5435",
"T  c #935C39",
"R  c #9B6543",
"E  c #A36D47",
"W  c #AB7550",
"Q  c #AF7E58",
"!  c #8F7569",
"~  c #837579",
"^  c #B48761",
"/  c #3F5083",
"(  c #47588F",
")  c #506197",
"_  c #8B7E83",
"`  c #7993C0",
"'  c #978B8F",
"]  c #9B8F93",
"[  c #B89F8F",
"{  c #A3979B",
"}  c #AB9FA3",
"|  c #AFA7AB",
" . c #B4AFAF",
".. c #BCB4B8",
"X. c #C4BCBC",
"o. c #D0C8CC",
"O. c #D8D0D4",
"+. c None",
/* pixels */
"+.+.+.+.+.+.+.+.+.+.+.+.+.+.+.+.+.+.+.+.+.+.+.+.+.+.+.+.+.+.+.+.+.+.+.+.+.+.+.+.+.+.+.+.+.+.+.+.+.+.+.+.+., , , , , , +.+.+.+.+.+.+.+.+.+.+.+.+.+.+.+.+.+.+.+.+.+.+.",
"+.+.+.+.+.+.+.+.+.+.+.+.+.+.+.+.+.+.+.+.+.+.+.+.+.+.+.+.+.+.+.+.+.+.+.+.+.+.+.+.+.+.+.+.+.+.+.+.+.+., , 1 2 i 2 1 , , , , +.+.+.+.+.+.+.+.+.+.+.+.+.+.+.+.+.+.+.+.+.",
"+.+.+.+.+.+.+.+.+.+.+.+.+.+.+.+.+.+.+.+.+.+.+.+.+.+.+.+.+.+.+.+.+.+.+.+.+.+.+.+.+.+.+.+.+.+.+.+., 1 , , , , , 2 i 2 i @ +.+.+.+.+.+.+.+.+.+.+.+.+.+.+.+.+.+.+.+.+.+.",
"+.+.+.+.+.+.+.+.+.+.+.+.+.+.+.+.+.+.+.+.+.+.+.+.+.+.+.+.+.+.+.+.+.+.+.+.+.+.+.+.+.+.+.+.+.+.+., , , @ , , , 2 2 , 1 2 +.+.+.+.+.+.+.+.+.+.+.+.+.+.+.+.+.+.+.+.+.+.+.",
"+.+.+.+.+.+.+.+.+.+.+.+.+.+.+.+.+.+.+.+.+.+.+.+.+.+.+.+.+.+.+.+.+.+.+.+.+.+.+.+.+.+.+.+.d +., , $ # # @ , i a 2 , i +.+.+.+.+.+.+.+.+.+.+.+.+.+.+.+.+.+.+.+.+.+.+.+.",
"+.+.+.+.+.+.+.+.+.+.+.+.+.+.+.+.+.+.+.+.+.+.+.+.+.+.+.+.+.+.+.+.+.+.+.+.+.+.+.+.+.+.+.+.U d , , @ @ , , # 2 a p 2 , +.+.+.+.+.+.+.+.+.+.+.+.+.+.+.+.+.+.+.+.+.+.+.+.",
"+.+.+.+.+.+.+.+.+.+.+.+.+.+.+.+.+.+.+.+.+.+.+.+.+.+.+.+.+.+.+.+.+.+.+.+.+.+.+.+.+.+.+.i Y Y # @ # , # # # # 2 i , 2 +.+.+.+.+.+.+.+.+.+.+.+.+.+.+.+.+.+.+.+.+.+.+.+.",
"+.+.+.+.+.+.+.+.+.+.+.+.+.+.+.+.+.+.+.+.+.+.+.+.+.+.+.+.+.+.+.+.+.+.+.+.+.+.+.+.+.+., p Y E i @ # # 2 2 i 1 # , i +.+.+.+.+.+.+.+.+.+.+.+.+.+.+.+.+.+.+.+.+.+.+.+.+.",
"+.+.+.+.+.+.+.+.+.+.+.+.+.+.+.+.+.+.+.+.+.+.+.+.+.+.+.+.+.+.+.+.+.+.+.+.+.+.+.+.+., , , U Y d # 2 U Y R Q E U a i +.+.+.+.+.+.+.+.+.+.+.+.+.+.+.+.+.+.+.+.+.+.+.+.+.",
"+.+.+.+.+.+.+.+.+.+.+.+.+.+.+.+.+.+.+.+.+.+.+.+.+.+.+.+.+.+.+.+.+.+.+.+.+.+.+.+., , , + # s d p Y Y R d 1 1 a j p p s +.+.+.+.+.+.+.+.+.+.+.+.+.+.+.+.+.+.+.+.+.+.+.",
"+.+.+.+.+.+.+.+.+.+.+.+.+.+.+.+.+.+.+.+.+.+.+.+.+.+.+.+.+.+.+.+.+.+.+.+.+.+.+., , , # , 1 i p s U T U 1 u u , 2 s d p 2 +.+.+.+.+.+.+.+.+.+.+.+.+.+.+.+.+.+.+.+.+.+.",
"+.+.+.+.+.+.+.+.+.+.+.+.+.+.+.+.+.+.+.+.+.+.+.+.+.+.+.+.+.+.+.+.+.+.+.+.+.+.+.# # @ 1 i 1 p d b T W Y 2 u I u , 1 a 1 , +.+.+.+.+.+.+.+.+.+.+.+.+.+.+.+.+.+.+.+.+.+.",
"+.+.+.+.+.+.+.+.+.+.+.+.+.+.+.+.+.+.+.+.+.+.+.+.+.+.+.+.+.+.+.+.+.+.+.+.+.+.@ , # , i 1 , d Y Y E W W s 2 I u I , # , u +.s j Y U j s +.+.+.+.+.+.+.+.+.+.+.+.+.+.+.",
"+.+.+.+.+.+.+.+.+.+.+.+.+.+.+.+.+.+.+.+.+.+.+.+.+.+.+.+.+.+.+.+.+.+.+.+.+.+., # 1 s p d b b U U T E W Y s s s a p 2 s Y s U W Y T Y b d +.+.+.+.+.+.+.+.+.+.+.+.+.+.",
"+.+.+.+.+.+.+.+.+.+.+.+.+.+.+.+.+.+.+.+.+.+.+.+.+.+.+.+.+.+.+.+.+.+.+.+.+., # # i U U Y Y b b b T R W Y d Y b b U s Y b s T U R Y b Y d +.+.+.+.+.+.+.+.+.+.+.+.+.+.",
"+.+.+.+.+.+.+.+.+.+.+.+.+.+.+.+.+.+.+.+.+.+.+.+.+.+.+.+.+.+.+.+.+.+.+.+., , # 1 i s d U U j b T T E W U b W b Y b T U b U U Y Q p s T s +.+.+.+.+.+.+.+.+.+.+.+.+.+.",
"+.+.+.+.+.+.+.+.+.+.+.+.+.+.+.+.+.+.+.+.+.+.+.+.+.+.+.+.+.+.+.+.+.+.= : 0 e i p p 1 1 i d d d U T T E d T U Y Y b T Y b U Y ^ E 1 d R a i +.+.+.+.+.+.+.+.+.+.+.+.+.",
"+.+.+.+.+.+.+.+.+.+.+.+.+.+.+.+.+.+.+.+.+.+.+.+.+.+.+.+.+.+.+.+.= 8 9 9 : 7 4 4 1 p s d d Y Y U T U T s T T d b U Y Y s F { ^ R i Y Y i 2 +.+.+.+.+.+.+.+.+.+.+.+.+.",
"+.+.+.+.+.+.+.+.+.+.+.+.+.+.+.+.+.+.+.+.+.+.+.+.+.+.+.+.+.+.* = - = 9 9 0 q , 1 s b b a d R E U Y d U T T U G F b U d s ]  .Q T U E d p i +.+.+.+.+.+.+.+.+.+.+.+.+.",
"+.+.+.+.+.+.+.+.+.+.+.+.+.+.+.+.+.+.+.+.+.+.+.+.+.+.+.+.* 8 9 0 * = = 8 9 0 9 1 U U d d d T T T W Y b b U j { ' i 2 # L o.} E T R W d a S +.+.+.+.+.+.+.+.+.+.+.+.+.",
"+.+.+.+.+.+.+.+.+.+.+.+.+.+.+.+.+.+.+.+.+.+.+.+.+.+.o o = 9 q i e 3 : ; = = 0 q a U U T R R E Q ^ Y s P | ~ { 3 . . # { o.H s U b T d i } +.+.+.+.+.+.+.+.+.+.+.+.+.",
"+.+.+.+.+.+.+.+.+.+.+.+.+.+.+.+.+.+.+.+.+.+.+.+.o o = o 8 q 4 1 S F F c e = = 9 M z T T Q R U E Q U b | L c > + +.> L X...A +.+.+.s a S X.+.+.+.+.+.+.+.+.+.+.+.+.+.",
"+.+.+.+.+.+.+.+.+.+.+.+.+.+.+.+.+.+.+.+.+.+.+.o = o o 8 0 9 8 8 = : r D D h 8 = 9 q b E T a d U Y T G S , 2 s s +.~ | o.] +.+.+.+.+.+.H o.+.+.+.+.+.+.+.+.+.+.+.+.+.",
"+.+.+.+.+.+.+.+.+.+.+.+.+.+.+.+.+.+.+.+.+.+.8 9 <   9 q 0 M B B M 0 = % % w D y = * 4 T U z Y Y d b p b T T Y d r ~ X.o._ +.+.+.+.+.+.P | +.+.+.+.+.+.+.+.+.+.+.+.+.",
"+.+.+.+.+.+.+.+.+.+.+.+.+.+.+.+.+.+.+.= = 8 o > + - q w t B V V B M A A 7 @ $ ;   = = e d b T Y Y U U b Y E Y s F | O.| ~ +.~ +.+.+.+.~ | +.+.+.+.+.+.+.+.+.+.+.+.+.",
"+.+.+.+.+.+.+.+.+.+.+.+.+.+.+.+.+.+.* 9 9 8     = : 5 w M B V B t D x A A g 5   X = * = % a U T T T T d b Y b i K [ X.P L H ` { L +.H ' { +.+.+.+.+.+.+.+.+.+.+.+.+.",
"+.+.+.+.+.+.+.+.+.+.+.+.+.+.+.+.+.8 9 9 9 X   * ; : 0 M B V Z t v n v A y t 9 9 M 0 8 = 9 % p b U T T d p d j j s T W Y b L _ ' } ~ ] { { +.+.+.+.+.+.+.+.+.+.+.+.+.",
"+.+.+.+.+.+.+.+.+.+.+.+.+.+.+.+.* 9 9 9 8     = ; 0 0 M V / V D m H D B V M 0 M 0 t w w = 8 % , 1 1 p p p i p Y Y U T W R U a L L ] |  .U +.+.+.+.+.+.+.+.+.+.+.+.+.",
"+.+.+.+.+.+.+.+.+.+.+.+.+.+.+.+.o 9 9 9 & & * 8 9 9 0 B Z V A m L L / / / C V y M t y w 5 6 * *   o o o   +.+.s d j U U Y T U s D L D n +.+.+.+.+.+.+.+.+.+.+.+.+.+.",
"+.+.+.+.+.+.+.+.+.+.+.+.+.+.+.+.* 9 9 8 , $ * 9 : 9 M B V M D P ) ) ( ( H D D A y y t 3 ; ; 4 * .       * o +.+.+.s d j U Y Y U b j d s +.+.+.+.+.+.+.+.+.+.+.+.+.+.",
"+.+.+.+.+.+.+.+.+.+.+.+.+.+.+.+.= 9 9 9 $ @ = 9 y B M M B M / ( ( P ) L J n D y y t 5 9 9 = o * *       o o +.+.+.+.+.s d z s a p i +.+.+.+.+.+.+.+.+.+.+.+.+.+.+.+.",
"+.+.+.+.+.+.+.+.+.+.+.+.+.+.+.+.8 9 9 = & @ 9 9 r A B M 0 0 Z / L m L P m n A y y A t 0 0 * * = = = * * # = o +.+.+.+.+.+.+.+.+.+.+.+.+.+.+.+.+.+.+.+.+.+.+.+.+.+.+.",
"+.+.+.+.+.+.+.+.+.+.+.+.+.+.+.+.= 9 9 & X & 3 9 0 B V M 9 9 B A / H H L L D A D Z V M M 9 * % : 0 9 = = = = * +.+.+.+.+.+.+.+.+.+.+.+.+.+.+.+.+.+.+.+.+.+.+.+.+.+.+.",
"+.+.+.+.+.+.+.+.+.+.+.+.+.+.+.+.8 9 9 8   * ; q 0 9 0 M 8 8 e r A Z y D H D Z Z Z V M 0 9 : : : : ; 9 = = = * o +.+.+.+.+.+.+.+.+.+.+.+.+.+.+.+.+.+.+.+.+.+.+.+.+.+.",
"+.+.+.+.+.+.+.+.+.+.+.+.+.+.+.+.= 9 9 =     = 5 6 5 w 9 * 9 w w r w 5 y B t B Z C N M B r w q ; ; : ;         o +.+.+.+.+.+.+.+.+.+.+.+.+.+.+.+.+.+.+.+.+.+.+.+.+.+.",
"+.+.+.+.+.+.+.+.+.+.+.+.+.+.+.+.= 9 9 9   . = 9 5 7 v q o % : q ; = q 0 8 8 B V B e e t h t w 0 ; O           * +.+.+.+.+.+.+.+.+.+.+.+.+.+.+.+.. - x t w h A 5 A +.",
"+.+.+.+.+.+.+.+.+.+.+.+.+.+.+.+.* 8 9 9   . = 8 5 f x y $ * % % % ; 0 9 8 M V B B e w y y r q $ . + 1         , X o o o X = = = - 5 5 5 5 5 t - X t A w y ~ H   X L ",
"+.+.+.+.+.+.+.+.+.+.+.+.+.+.+.+.o = 9 9 *   = = ; t A f 6 X = : % q 0 8 0 B B M t r h h w p p , 1 , p %     $ r ; % 5 q w y A g y g g g r A c % X y A w g H D     D ",
"+.+.+.+.+.+.+.+.+.+.+.+.+.+.+.+.  * 9 9 =   = = 9 5 f f f 5 @ = % : 9 9 0 M M 0 e r : : d Y p a p 1 1 1     w D ; % 5 0 ; t t w 5 5 w t w w q X   y A 5 w 5 A 5 A +.",
"+.+.+.+.+.+.+.+.+.+.+.+.+.+.+.+.  O 8 8 8   = ; ; 8 6 7 f f 9 O $ = * 9 M B M B M % . i T T d d b p 1 1   $ y D ; X                   @ @ @ @ X . q D e # +.L ! +.+.",
"+.+.+.+.+.+.+.+.+.+.+.+.+.+.+.+.+.o 8 8 8 X $ 9 9 9 5 6 7 f 0 w = * 8 M M M B M % % 1 p U R R T b b i 1   ; r A : , + . + @ @ + @ # @ , i p 2 @ X r G g c j ~ +.+.+.",
"+.+.+.+.+.+.+.+.+.+.+.+.+.+.+.+.+.* = 8 9 = $ ; 9 0 q q 6 7 w w q * 8 0 M M 0 % 1 p 4 p s U R E Y b p 1 X $ D y $ @ + + + # , # # , , 2 2 a p O . q D A L L X   +.+.",
"+.+.+.+.+.+.+.+.+.+.+.+.+.+.+.+.+.+.* = 8 = $ = 8 9 0 M q q M 0 0 8 * 9 9 : 1 , p Y U d a d Y Y U j p 4 = 3 H t $ X . + + @ , , , , 2 2 2 i 2 ; . : A : > #     +.+.",
"+.+.+.+.+.+.+.+.+.+.+.+.+.+.+.+.+.+.+.o = 9 = = 9 9 0 M 0 0 M M M 9 O = 8 i 4 , 1 s U U d p d Y U b d a p p r 4 , + + + + + @ , , , 2 2 2 p i , X X 6 5 # < > +.+.+.",
"+.+.+.+.+.+.+.+.+.+.+.+.+.+.+.+.+.+.+.+.  $ O = 8 9 0 M 0 M M 0 M M 0 O * @ , 1 p p d U Y Y j b d d s a d U d s p 1 @ . . . . + # i i 2 2 p a , 2 +.~ A y +.+.+.+.+.",
"+.+.+.+.+.+.+.+.+.+.+.+.+.+.+.+.+.+.+.+.+.+.  o 8 9 9 0 M M M e M 0 0 9 * o X , 1 p d b Y T R T U U T E R Y Y b d d i , , p s a s a a s d Y b 2 +.+.+.+.+.+.+.+.+.+.",
"+.+.+.+.+.+.+.+.+.+.+.+.+.+.+.+.+.+.+.+.+.o   X * 8 0 0 0 0 q M 0 0 0 9 % % ; # # 1 i a z U T T T T T T T U b b b d a i s U Y Y U U s Y T b 2 +.+.+.+.+.+.+.+.+.+.+.",
"+.+.+.+.+.+.+.+.+.+.+.+.+.+.+.+.+.+.+.+.* 8   X X X X * % : : : : : : : : : 9 * O @ % 1 i d U U U T U d p i , p b d s p i U T E T Y E T j i +.+.+.+.+.+.+.+.+.+.+.+.",
"+.+.+.+.+.+.+.+.+.+.+.+.+.+.+.+.+.+.+.  = =   * $ * X X X = = % : : 5 3 5 : ; = X X   @ i p b U j U T T U d i d b s a i i b T E E E Y d s +.+.+.+.+.+.+.+.+.+.+.+.+.",
"+.+.+.+.+.+.+.+.+.+.+.+.+.+.+.+.+.+.+.* = o * 7 9 8 8 * o o = o = ; ; ; % 8 = % X       i s d b d d d U T Y d d s p i p i b Y T Y s p +.+.+.+.+.+.+.+.+.+.+.+.+.+.+.",
"+.+.+.+.+.+.+.+.+.+.+.+.+.+.+.+.+.+.  * * o 6 4 8 9 9 9 8 o o o o o * * = o o   o o o   i d s d a s p s d b d s p i 2 1 i s d s i 2 +.+.+.+.+.+.+.+.+.+.+.+.+.+.+.+.",
"+.+.+.+.+.+.+.+.+.+.+.+.+.+.+.+.+.+.o = o 5 6 = 8 9 9 9 9 8 = o o o o = * . o o o o o o   % @ , i p p i p 2 2 2 i 1 1 2 2 p i 2 +.+.+.+.+.+.+.+.+.+.+.+.+.+.+.+.+.+.",
"+.+.+.+.+.+.+.+.+.+.+.+.+.+.+.+.+.+.  = $ ; = 8 9 9 9 9 9 8 8 *   o o o * = o o o o = o o           . @ +.+.+.+.+.+.+.+.+.+.+.+.+.+.+.+.+.+.+.+.+.+.+.+.+.+.+.+.+.+.",
"+.+.+.+.+.+.+.+.+.+.+.+.+.+.+.+.+.+.  o 5 = 8 9 9 9 0 0 9 9 8 = o   o o = o   o * * * = * * * o o o     . +.+.+.+.+.+.+.+.+.+.+.+.+.+.+.+.+.+.+.+.+.+.+.+.+.+.+.+.+.",
"+.+.+.+.+.+.+.+.+.+.+.+.+.+.+.+.+.+.  5 7 = 8 9 9 9 0 0 0 8 8 = *     o o   o * * * * * o * * * o o o o       . +.+.+.+.+.+.+.+.+.+.+.+.+.+.+.+.+.+.+.+.+.+.+.+.+.+.",
"+.+.+.+.+.+.+.+.+.+.+.+.+.+.+.+.+.+.  k 5 8 8 9 9 9 0 9 9 0 8 8 *   o       o * = = * = = * * * o o o o o = O X * +.+.+.+.+.+.+.+.+.+.+.+.+.+.+.+.+.+.+.+.+.+.+.+.+.",
"+.+.+.+.+.+.+.+.+.+.+.+.+.+.+.+.+.8 5 z 8 9 9 9 9 9 9 8 9 9 8 8   o       o o * * = * = = = = = = o o = = . i = 8 o +.+.+.+.+.+.+.+.+.+.+.+.+.+.+.+.+.+.+.+.+.+.+.+.",
"+.+.+.+.+.+.+.+.+.+.+.+.+.+.+.+.+.= z z = 9 9 9 9 9 9 9 9 9 8 * o         o * * o * = = = = * * = = = =     * 1 @ = = +.+.+.+.+.+.+.+.+.+.+.+.+.+.+.+.+.+.+.+.+.+.+.",
"+.+.+.+.+.+.+.+.+.+.+.+.+.+.+.+.+.o z q 9 8 9 0 0 0 9 0 9 8 = o o     o o o o o o o * * * = = * = = = O O # o . , +.+.+.+.+.+.+.+.+.+.+.+.+.+.+.+.+.+.+.+.+.+.+.+.+.",
"+.+.+.+.+.+.+.+.+.+.+.+.+.+.+.+.+.  p 8 8 9 0 M q 0 0 0 8 = o o           o   o o o o o * * * = = = o d b b s i # +.+.+.+.+.+.+.+.+.+.+.+.+.+.+.+.+.+.+.+.+.+.+.+.+.",
"+.+.+.+.+.+.+.+.+.+.+.+.+.+.+.+.+.- l : 9 q M M 0 M 0 0 9 = * .       .               o o o * * * = * O d d d a , +.+.+.+.+.+.+.+.+.+.+.+.+.+.+.+.+.+.+.+.+.+.+.+.+.",
"+.+.+.+.+.+.+.+.+.+.+.+.+.+.+.+.8 6 x 9 0 M M 0 q 0 0 9 8 * o   +.+.+.+.+.+.+.+.+.+.+.        , i p d   ; b d s 1 +.+.+.+.+.+.+.+.+.+.+.+.+.+.+.+.+.+.+.+.+.+.+.+.+.",
"+.+.+.+.+.+.+.+.+.+.+.+.+.+., p o z f 8 0 0 0 0 9 9 9 8 = *   +.+.+.+.+.+.+.+.+.+.+.+.+.+.+., s d d b p 4 d p s 1 +.+.+.+.+.+.+.+.+.+.+.+.+.+.+.+.+.+.+.+.+.+.+.+.+.",
"+.+.+.+.+.+.+.+.+.+.+.+.. # a s $ z 0 9 0 9 9 9 9 8 8 * o   +.+.+.+.+.+.+.+.+.+.+.+.+.+.+.+.  # 1 i a d s , 1 p 1           +.+.+.+.+.+.+.+.+.+.+.+.+.+.+.+.+.+.+.+.",
"+.+.+.+.+.+.+.+.+.+.+.    p d d 5 z 9 9 0 9 9 9 9 8 = * o +.+.+.+.+.+.+.+.+.+.+.+.+.+.+.+.+.                @ p @   . . . + +.+.+.+.+.+.+.+.+.+.+.+.+.+.+.+.+.+.+.+.",
"+.+.+.+.+.+.+.+.+.    .   s d Y l 6 = 9 9 8 8 9 8 = * o +.+.+.+.+.+.+.+.+.+.+.+.+.+.+.+.+.+..   .       .     1 .         +.+.+.+.+.+.+.+.+.+.+.+.+.+.+.+.+.+.+.+.+.",
"+.+.+.+.+.+.+.    . . .   s b p f 8 : 9 = 8 = = = * o o +.+.+.+.+.+.+.+.+.+.+.+.+.+.+.+.+.+..       . . .     @     .   o         +.+.+.+.+.+.+.+.+.+.+.+.+.+.+.+.+.",
"+..           . .   .     d p & q i U s 8 8 = = 8 O   +.+.+.+.+.+.+.+.+.+.+.+.+.+.+.+.+.+.+.+.  .             .   .       +.+.+.+.+.+.+.+.+.+.+.+.+.+.+.+.+.+.+.+.+.",
"    . . . . .   .   . .   1 e ; s b d s 8 = 3 3 = * . +.+.+.+.+.+.+.+.+.+.+.+.+.+.+.+.+.+.+.+.            .         . +.+.+.+.+.+.+.+.+.+.+.+.+.+.+.+.+.+.+.+.+.+.+.",
".     .     .             % i p d d d a 8 : p i O * o +.+.+.+.+.+.+.+.+.+.+.+.+.+.+.+.+.+.+.+.    .       . . .     +.+.+.+.+.+.+.+.+.+.+.+.+.+.+.+.+.+.+.+.+.+.+.+.",
"  .             .     .   , s p a s s p i i +.+.= = +.+.+.+.+.+.+.+.+.+.+.+.+.+.+.+.+.+.+.+.+..   .     .   . .   +.+.+.+.+.+.+.+.+.+.+.+.+.+.+.+.+.+.+.+.+.+.+.+.+.",
". . .               . .   @ 2 i a i 2 @ +.+.+.+.9 * +.+.+.+.+.+.+.+.+.+.+.+.+.+.+.+.+.+.+.+.+..   . .     .     +.+.+.+.+.+.+.+.+.+.+.+.+.+.+.+.+.+.+.+.+.+.+.+.+.+.",
"+       .     . . .         # , , #   . +.+.+.+.+.+.+.+.+.+.+.+.+.+.+.+.+.+.+.+.+.+.+.+.+.+.+.            .   +.+.+.+.+.+.+.+.+.+.+.+.+.+.+.+.+.+.+.+.+.+.+.+.+.+.+.",
"+     .   .     +.+.+.                    +.+.+.+.+.+.+.+.+.+.+.+.+.+.+.+.+.+.+.+.+.+.+.+.+.+.      .   . .     +.+.+.+.+.+.+.+.+.+.+.+.+.+.+.+.+.+.+.+.+.+.+.+.+.+.",
".     .   .   +.+.+.+..     .     +.+.. + +.+.+.+.+.+.+.+.+.+.+.+.+.+.+.+.+.+.+.+.+.+.+.+.+.+..   .                 +.+.+.+.+.+.+.+.+.+.+.+.+.+.+.+.+.+.+.+.+.+.+.+.",
".   .   X .   +.+.+.+.+.  .     O +.+.+.+.+.+.+.+.+.+.+.+.+.+.+.+.+.+.+.+.+.+.+.+.+.+.+.+.+.  .   . .       .         .           +.+.+.+.+.+.+.+.+.+.+.+.+.+.+.+.+.",
".   .           +.+.+.+.  . .   . +.+.+.+.+.+.+.+.+.+.+.+.+.+.+.+.+.+.+.+.+.+.+.+.+.+.+.+.+.    .   . X X         . .     . @ .     +.+.+.+.+.+.+.+.+.+.+.+.+.+.+.+.",
"    .   .     .   . +.+.+   .   . +.+.+.+.+.+.+.+.+.+.+.+.+.+.+.+.+.+.+.+.+.+.+.+.+.+.+.+.+.            . . .   .     .   . . .     +.+.+.+.+.+.+.+.+.+.+.+.+.+.+.+.",
"+.              .   +.+.+.  .   . +.+.+.+.+.+.+.+.+.+.+.+.+.+.+.+.+.+.+.+.+.+.+.+.+.+.+.+.+.                                        +.+.+.+.+.+.+.+.+.+.+.+.+.+.+.+."
};
