/* XPM */
static char *_663_e74edb5c3433bf81f740c6fc4ce2bad3bf527b7c20109392afd7e0d7a635c397[] = {
/* columns rows colors chars-per-pixel */
"82 79 101 2 ",
"   c black",
".  c #040400",
"X  c #040404",
"o  c #0C0000",
"O  c #0C0404",
"+  c #0C0C08",
"@  c #180400",
"#  c #180C04",
"$  c #18140C",
"%  c #040810",
"&  c #0C0C18",
"*  c #100C10",
"=  c #1C1414",
"-  c #181818",
";  c #280400",
":  c #340804",
">  c #201008",
",  c #28140C",
"<  c #201C18",
"1  c #301C10",
"2  c #202010",
"3  c #28201C",
"4  c #282818",
"5  c #3C2014",
"6  c #30301C",
"7  c #101420",
"8  c #14182C",
"9  c #182034",
"0  c #242020",
"q  c #2C282C",
"w  c #302420",
"e  c #342C28",
"r  c #3C3824",
"t  c #3C302C",
"y  c #383434",
"u  c #590000",
"i  c #452418",
"p  c #4D2C18",
"a  c #55301C",
"s  c #413430",
"d  c #493C34",
"f  c #413C3C",
"g  c #613420",
"h  c #693C24",
"j  c #695104",
"k  c #755904",
"l  c #654518",
"z  c #454128",
"x  c #4D4D2C",
"c  c #4D4138",
"v  c #555534",
"b  c #714128",
"n  c #79452C",
"m  c #615D38",
"M  c #202841",
"N  c #242C49",
"B  c #283451",
"V  c #2C385D",
"C  c #344165",
"Z  c #38456D",
"A  c #3C4D79",
"S  c #4D4949",
"D  c #554541",
"F  c #5D4D45",
"G  c #595151",
"H  c #65554D",
"J  c #6D5D51",
"K  c #61595D",
"L  c #696541",
"P  c #716D45",
"I  c #796559",
"U  c #6D6165",
"Y  c #756D71",
"T  c #AE0000",
"R  c #864D30",
"E  c #8E5538",
"W  c #925D3C",
"Q  c #9A6545",
"!  c #A26D49",
"~  c #AA7551",
"^  c #AE7D59",
"/  c #8E7569",
"(  c #827579",
")  c #B28661",
"_  c #415182",
"`  c #49598E",
"'  c #516196",
"]  c #8A7D82",
"[  c #7992BE",
"{  c #968A8E",
"}  c #9A8E92",
"|  c #B69E8E",
" . c #A2969A",
".. c #AA9EA2",
"X. c #AEA6AA",
"o. c #B2AEAE",
"O. c #BAB2B6",
"+. c #C3BABA",
"@. c #CFC7CB",
"#. c #D7CFD3",
"$. c None",
/* pixels */
"$.$.$.$.$.$.$.$.$.$.$.$.$.$.$.$.$.$.$.$.$.$.$., , , , , , $.$.$.$.$.$.$.$.$.$.$.$.$.$.$.$.$.$.$.$.$.$.$.$.$.$.$.$.$.$.$.$.$.$.$.$.$.$.$.$.$.$.$.$.$.$.$.$.$.$.$.$.$.",
"$.$.$.$.$.$.$.$.$.$.$.$.$.$.$.$.$.$.$.$.$., , , , 1 5 i 5 1 , , $.$.$.$.$.$.$.$.$.$.$.$.$.$.$.$.$.$.$.$.$.$.$.$.$.$.$.$.$.$.$.$.$.$.$.$.$.$.$.$.$.$.$.$.$.$.$.$.$.$.",
"$.$.$.$.$.$.$.$.$.$.$.$.$.$.$.$.$.$.$.$.$.$.# i 5 i 5 , , , , , 1 , $.$.$.$.$.$.$.$.$.$.$.$.$.$.$.$.$.$.$.$.$.$.$.$.$.$.$.$.$.$.$.$.$.$.$.$.$.$.$.$.$.$.$.$.$.$.$.$.",
"$.$.$.$.$.$.$.$.$.$.$.$.$.$.$.$.$.$.$.$.$.$.$.5 1 , 5 5 , , , # , , , $.$.$.$.$.$.$.$.$.$.$.$.$.$.$.$.$.$.$.$.$.$.$.$.$.$.$.$.$.$.$.$.$.$.$.$.$.$.$.$.$.$.$.$.$.$.$.",
"$.$.$.$.$.$.$.$.$.$.$.$.$.$.$.$.$.$.$.$.$.$.$.$.i , 5 a i , # > > $ , , $.h $.$.$.$.$.$.$.$.$.$.$.$.$.$.$.$.$.$.$.$.$.$.$.$.$.$.$.$.$.$.$.$.$.$.$.$.$.$.$.$.$.$.$.$.",
"$.$.$.$.$.$.$.$.$.$.$.$.$.$.$.$.$.$.$.$.$.$.$.$., 5 p a 5 > , , # # , , h R $.$.$.$.$.$.$.$.$.$.$.$.$.$.$.$.$.$.$.$.$.$.$.$.$.$.$.$.$.$.$.$.$.$.$.$.$.$.$.$.$.$.$.$.",
"$.$.$.$.$.$.$.$.$.$.$.$.$.$.$.$.$.$.$.$.$.$.$.$.5 , i 5 > > > > , > # > E E i $.$.$.$.$.$.$.$.$.$.$.$.$.$.$.$.$.$.$.$.$.$.$.$.$.$.$.$.$.$.$.$.$.$.$.$.$.$.$.$.$.$.$.",
"$.$.$.$.$.$.$.$.$.$.$.$.$.$.$.$.$.$.$.$.$.$.$.$.$.i , > 1 i 5 5 > > # i ! E p , $.$.$.$.$.$.$.$.$.$.$.$.$.$.$.$.$.$.$.$.$.$.$.$.$.$.$.$.$.$.$.$.$.$.$.$.$.$.$.$.$.$.",
"$.$.$.$.$.$.$.$.$.$.$.$.$.$.$.$.$.$.$.$.$.$.$.$.$.i a R ! ^ Q E R 5 > h E R , , , $.$.$.$.$.$.$.$.$.$.$.$.$.$.$.$.$.$.$.$.$.$.$.$.$.$.$.$.$.$.$.$.$.$.$.$.$.$.$.$.$.",
"$.$.$.$.$.$.$.$.$.$.$.$.$.$.$.$.$.$.$.$.$.$.$.g p p b a 1 1 h Q E E p h g > @ , , , $.$.$.$.$.$.$.$.$.$.$.$.$.$.$.$.$.$.$.$.$.$.$.$.$.$.$.$.$.$.$.$.$.$.$.$.$.$.$.$.",
"$.$.$.$.$.$.$.$.$.$.$.$.$.$.$.$.$.$.$.$.$.$.5 p h g 5 , u u 1 R W R g p i 1 , > , , , $.$.$.$.$.$.$.$.$.$.$.$.$.$.$.$.$.$.$.$.$.$.$.$.$.$.$.$.$.$.$.$.$.$.$.$.$.$.$.",
"$.$.$.$.$.$.$.$.$.$.$.$.$.$.$.$.$.$.$.$.$.$., 1 a 1 , u T u 5 E ~ W n h p 1 i 1 # > > $.$.$.$.$.$.$.$.$.$.$.$.$.$.$.$.$.$.$.$.$.$.$.$.$.$.$.$.$.$.$.$.$.$.$.$.$.$.$.",
"$.$.$.$.$.$.$.$.$.$.$.$.$.$.$.g b R E b g $.u , > , T u T 5 g ~ ~ ! E E h , 1 i , > , # $.$.$.$.$.$.$.$.$.$.$.$.$.$.$.$.$.$.$.$.$.$.$.$.$.$.$.$.$.$.$.$.$.$.$.$.$.$.",
"$.$.$.$.$.$.$.$.$.$.$.$.$.$.h n E W E ~ R g E g 5 p a g g g E ~ ! W R R n n h p g 1 > , $.$.$.$.$.$.$.$.$.$.$.$.$.$.$.$.$.$.$.$.$.$.$.$.$.$.$.$.$.$.$.$.$.$.$.$.$.$.",
"$.$.$.$.$.$.$.$.$.$.$.$.$.$.h E n E Q R W g n E g R n n E h E ~ Q W n n n E E R R i > > , $.$.$.$.$.$.$.$.$.$.$.$.$.$.$.$.$.$.$.$.$.$.$.$.$.$.$.$.$.$.$.$.$.$.$.$.$.",
"$.$.$.$.$.$.$.$.$.$.$.$.$.$.g W g p ^ E R R n R W n E n ~ n R ~ ! W W n b R R h g i 1 > , , $.$.$.$.$.$.$.$.$.$.$.$.$.$.$.$.$.$.$.$.$.$.$.$.$.$.$.$.$.$.$.$.$.$.$.$.",
"$.$.$.$.$.$.$.$.$.$.$.$.$.i a Q h 1 ! ) E R n E W n E E R W h ! W W R h h h i 1 1 p p i t M 0 7 $.$.$.$.$.$.$.$.$.$.$.$.$.$.$.$.$.$.$.$.$.$.$.$.$.$.$.$.$.$.$.$.$.$.",
"$.$.$.$.$.$.$.$.$.$.$.$.$.5 i E E i Q )  .H g E E R n h W W g W R W R E E h h g p 1 w w r 0 9 9 8 7 $.$.$.$.$.$.$.$.$.$.$.$.$.$.$.$.$.$.$.$.$.$.$.$.$.$.$.$.$.$.$.$.",
"$.$.$.$.$.$.$.$.$.$.$.$.$.i p h ! R W ^ o.} g h R n H J R W W R h E R ! Q h a n n g 1 , q M 9 9 7 - 7 & $.$.$.$.$.$.$.$.$.$.$.$.$.$.$.$.$.$.$.$.$.$.$.$.$.$.$.$.$.$.",
"$.$.$.$.$.$.$.$.$.$.$.$.$.F a h ~ Q W ! ..@.U > 5 i {  .b R n n E ~ W W W h h h R R 1 9 M 9 8 7 7 & M 9 8 & $.$.$.$.$.$.$.$.$.$.$.$.$.$.$.$.$.$.$.$.$.$.$.$.$.$.$.$.",
"$.$.$.$.$.$.$.$.$.$.$.$.$...i h W n R g K @. .> o o 3  .( X.Y g E ) ^ ! Q Q W R R a q M 7 7 < 0 3 t i q 9 7 % % $.$.$.$.$.$.$.$.$.$.$.$.$.$.$.$.$.$.$.$.$.$.$.$.$.$.",
"$.$.$.$.$.$.$.$.$.$.$.$.$.+.F a g $.$.$.S O.+.U ; $.@ ; D U X.n R ^ ! R Q ^ W W l N 9 7 7 t D H H F 1 w q 8 % 7 % % $.$.$.$.$.$.$.$.$.$.$.$.$.$.$.$.$.$.$.$.$.$.$.$.",
"$.$.$.$.$.$.$.$.$.$.$.$.$.@.K $.$.$.$.$.$.} @.X.( $.g g 5 , F J W E R h a W ! n q 9 7 8 c G G s 0 7 8 8 9 M 8 % % 7 % $.$.$.$.$.$.$.$.$.$.$.$.$.$.$.$.$.$.$.$.$.$.$.",
"$.$.$.$.$.$.$.$.$.$.$.$.$.X.Y $.$.$.$.$.$.] @.+.( s h E W W n p n h E E l R W w & 7 f G e = = 7 M N V V N M q 9 X : 9 8 $.$.$.$.$.$.$.$.$.$.$.$.$.$.$.$.$.$.$.$.$.$.",
"$.$.$.$.$.$.$.$.$.$.$.$.$.X.( $.$.$.$.( $.( X.#.X.H g E ! E n R R E E W n h t 7 7 X < $ # r S S N V C C V y e q - @ ; % 8 7 7 $.$.$.$.$.$.$.$.$.$.$.$.$.$.$.$.$.$.$.",
"$.$.$.$.$.$.$.$.$.$.$.$.$. .{ K $.U  .[ K U Y +.| I i n E n h W W W W R a = 7 & 7 + X 4 d S S x G y V C V N e 4 0 7   X 8 9 9 & $.$.$.$.$.$.$.$.$.$.$.$.$.$.$.$.$.$.",
"$.$.$.$.$.$.$.$.$.$.$.$.$. . .} ( ..{ ] U n E ~ W g b b h p h W W R n p = 9 7 8 M N 9 9 y f S v m v y A C V N M 0 < &   + 9 9 9 8 $.$.$.$.$.$.$.$.$.$.$.$.$.$.$.$.$.",
"$.$.$.$.$.$.$.$.$.$.$.$.$.R o.X.} U U a R Q ~ W R E E p i p p p 1 1 , = 8 7 e e y M N M N C V G K L G C _ C N M M < 7 X X 8 9 9 9 & $.$.$.$.$.$.$.$.$.$.$.$.$.$.$.$.",
"$.$.$.$.$.$.$.$.$.$.$.$.$.$.m G U G g R W E R R b h g $.$.X % % %   & & 6 4 e f y N f C Z _ _ _ U U L S C A V M 9 9 8 & 2 2 9 9 9 % $.$.$.$.$.$.$.$.$.$.$.$.$.$.$.$.",
"$.$.$.$.$.$.$.$.$.$.$.$.$.$.g h b n R E E R b h g $.$.$.% & X X X O & w < < 3 y f f S G G K ` ` ' ' Y G N C V N 9 0 9 & $ , 8 9 9 & $.$.$.$.$.$.$.$.$.$.$.$.$.$.$.$.",
"$.$.$.$.$.$.$.$.$.$.$.$.$.$.$.$.i p a g l h g $.$.$.$.$.% %   X X & & % 7 9 9 4 y f f G m P U ' Y ` ` _ N V N N V f 9 7 # $ 9 9 9 7 $.$.$.$.$.$.$.$.$.$.$.$.$.$.$.$.",
"$.$.$.$.$.$.$.$.$.$.$.$.$.$.$.$.$.$.$.$.$.$.$.$.$.$.$.% 7 > & & 7 7 7 & & M M y S f f S m L Y U L U _ A M M N V S s 9 9 # 2 7 9 9 8 $.$.$.$.$.$.$.$.$.$.$.$.$.$.$.$.",
"$.$.$.$.$.$.$.$.$.$.$.$.$.$.$.$.$.$.$.$.$.$.$.$.$.$.$.& 7 7 7 7 9 M 0 = & 9 N N C A G S G U U K K _ S V 9 9 N C V M 9 3 2 + 2 9 9 7 $.$.$.$.$.$.$.$.$.$.$.$.$.$.$.$.",
"$.$.$.$.$.$.$.$.$.$.$.$.$.$.$.$.$.$.$.$.$.$.$.$.$.$.% & 7 7 7 9 < 0 0 0 0 9 M N C A A A G K G f A S s t 8 8 N M 9 M q < & . 8 9 9 8 $.$.$.$.$.$.$.$.$.$.$.$.$.$.$.$.",
"$.$.$.$.$.$.$.$.$.$.$.$.$.$.$.$.$.$.$.$.$.$.$.$.$.$.% . X X X < 0 < < q e s V N B Z A V y V f 4 e s e e 9 & 9 e 4 6 4 7 X   7 9 9 7 $.$.$.$.$.$.$.$.$.$.$.$.$.$.$.$.",
"$.S 4 S c e y x - O $.$.$.$.$.$.$.$.$.$.$.$.$.$.$.$.&   X X X X * < M e y c y t t V C V 8 8 M q 7 < q 0 = % q v r 4 9 7 O X 9 9 9 7 $.$.$.$.$.$.$.$.$.$.$.$.$.$.$.$.",
"U +   K ( f e S y + - y 4 4 4 4 4 - 7 7 7 + % % % + , X     X 1 @ O $ q s f f e t V V C N 8 9 M < = = = & $ f x z 4 8 7 O X 9 9 8 & $.$.$.$.$.$.$.$.$.$.$.$.$.$.$.$.",
"G X   G K d e S f + = D S s d d d f d S f e q 4 = < s $     = p , 1 , p p e c c s y N V V M 8 M q = 0 7 + 6 z S y < 7 7 X & 9 9 7 % $.$.$.$.$.$.$.$.$.$.$.$.$.$.$.$.",
"$.S 4 S 4 e 4 S f X + q e e y e 4 4 e y y < M 4 = < G e X   1 1 1 p a p E h 0 0 s t M N N M 9 9 0 = 7 # 4 z z z 4 9 7 7 X 7 9 9 & X $.$.$.$.$.$.$.$.$.$.$.$.$.$.$.$.",
"$.$./ U $.> t G q O + # # # # X X X X X . . X X + < G f $   1 1 p n h h W W i O = N V N V N 9 & 7 $ * 9 z z r 6 8 < < 7 X 8 8 8 * X $.$.$.$.$.$.$.$.$.$.$.$.$.$.$.$.",
"$.$.$.( b D d J s + # 5 p i , # > # @ # # @ O @ , 0 S s < X 1 i n n W Q Q R p 1 = = N V N N N 8 & 7 e M z r 6 4 9 9 9 $ + 8 8 8 % $.$.$.$.$.$.$.$.$.$.$.$.$.$.$.$.$.",
"$.$.  + U U S G q O * p a 5 5 , , > > , > @ @ @ # $ f G $ + 1 p n E ! Q R g p w p 1 = M N N M 8 & q e e r 6 q q M 9 < $ 7 9 8 7 & $.$.$.$.$.$.$.$.$.$.$.$.$.$.$.$.$.",
"$.$.    > ; 0 S 0 O < 5 i 5 5 5 , , , , # @ @ O + $ y K 3 7 w p b R E E h a h R E p , 1 0 9 9 & 8 M M N q q N M 9 8 7 $ 7 8 7 & $.$.$.$.$.$.$.$.$.$.$.$.$.$.$.$.$.$.",
"$.$.$.; : > 4 6 + + , i p 5 5 5 , , , # @ @ @ @ @ , w s p p a h n R E h p h R R g 1 , w i 8 7 * 9 N N N M M N M 9 9 7 7 9 7 % $.$.$.$.$.$.$.$.$.$.$.$.$.$.$.$.$.$.$.",
"$.$.$.$.$.f S ( $.5 , a p 5 5 i i > @ O O O O # 1 p g h R h a g h h n b E E R h p p 1 , # & * M N N M N N M N M 9 8 7 * $ X $.$.$.$.$.$.$.$.$.$.$.$.$.$.$.$.$.$.$.$.",
"$.$.$.$.$.$.$.$.$.$.5 n E h g a a g a g p , , i h h n E E Q ! W R R W Q W E n h p 1 , + % & 9 M M N t N N N M 9 9 8 % X $.$.$.$.$.$.$.$.$.$.$.$.$.$.$.$.$.$.$.$.$.$.",
"$.$.$.$.$.$.$.$.$.$.$.5 n W E g R R E E R g i a h n n n R W W W W W W W R l a i 1 > > < = = 9 M M M N q M M M M 8 & +   % $.$.$.$.$.$.$.$.$.$.$.$.$.$.$.$.$.$.$.$.$.",
"$.$.$.$.$.$.$.$.$.$.$.$.i b W ! E W ! W R i p g h n p , i p h R W R R R h i 1 = # * & 9 0 0 0 0 0 0 0 0 0 = & + + + + . 8 & $.$.$.$.$.$.$.$.$.$.$.$.$.$.$.$.$.$.$.$.",
"$.$.$.$.$.$.$.$.$.$.$.$.$.g h E ! ! ! W n i i a g n h i h R W W R b R n p i # X + + 7 < 0 4 3 4 0 0 = 7 7 + + + & $ &   7 7 X $.$.$.$.$.$.$.$.$.$.$.$.$.$.$.$.$.$.$.",
"$.$.$.$.$.$.$.$.$.$.$.$.$.$.$.p g E W E n i p i p g h h E W R h h h n h g i       + = 7 8 = < < < 7 % 7 % % & 8 8 9 r & % 7 & $.$.$.$.$.$.$.$.$.$.$.$.$.$.$.$.$.$.$.",
"$.$.$.$.$.$.$.$.$.$.$.$.$.$.$.$.5 i g h g i 1 5 i p g h n h g p g a h g h i   % % % X % % 7 & & % % % % % 8 9 9 9 8 w 6 % & & X $.$.$.$.$.$.$.$.$.$.$.$.$.$.$.$.$.$.",
"$.$.$.$.$.$.$.$.$.$.$.$.$.$.$.$.$.$.5 i p 5 5 1 1 i 5 5 5 p i p p i , # = X % % % % % % O & 7 % % % % 7 8 9 9 9 9 8 7 6 4 % 7 % $.$.$.$.$.$.$.$.$.$.$.$.$.$.$.$.$.$.",
"$.$.$.$.$.$.$.$.$.$.$.$.$.$.$.$.$.$.$.$.$.$.$.$.$.$.$.$.$.$.# O .         % % 7 % % % % 7 & % % % X & 8 8 9 9 9 9 9 8 7 < $ 7 X $.$.$.$.$.$.$.$.$.$.$.$.$.$.$.$.$.$.",
"$.$.$.$.$.$.$.$.$.$.$.$.$.$.$.$.$.$.$.$.$.$.$.$.$.$.$.$.$.o     % % % & & & 7 & & & %   % 7 % %   % 7 8 9 9 M M 9 9 9 8 7 4 % X $.$.$.$.$.$.$.$.$.$.$.$.$.$.$.$.$.$.",
"$.$.$.$.$.$.$.$.$.$.$.$.$.$.$.$.$.$.$.$.$.$.$.$.$.$.o       % % % % & & & % & & & & & %   % %     & 7 8 8 M M M 9 9 9 8 7 r 4   $.$.$.$.$.$.$.$.$.$.$.$.$.$.$.$.$.$.",
"$.$.$.$.$.$.$.$.$.$.$.$.$.$.$.$.$.$.$.$.$.$.$.$.$.& + * 7 % % % % % & & & 7 7 & 7 7 & %       %   & 8 8 M 9 9 M 9 9 9 8 8 4 j X $.$.$.$.$.$.$.$.$.$.$.$.$.$.$.$.$.$.",
"$.$.$.$.$.$.$.$.$.$.$.$.$.$.$.$.$.$.$.$.$.$.$.$.% 8 7 i O 7 7 % % 7 7 7 7 7 7 & 7 & & % %     X % X 8 8 9 9 8 9 9 9 9 9 9 8 l 4 8 $.$.$.$.$.$.$.$.$.$.$.$.$.$.$.$.$.",
"$.$.$.$.$.$.$.$.$.$.$.$.$.$.$.$.$.$.$.$.$.$.$.7 7 # 1 &     7 7 7 7 & & 7 7 7 7 & % & & %       X % & 8 9 9 9 9 9 9 9 9 9 7 l l 7 $.$.$.$.$.$.$.$.$.$.$.$.$.$.$.$.$.",
"$.$.$.$.$.$.$.$.$.$.$.$.$.$.$.$.$.$.$.$.$.$.$.$.$., O % > * * 7 7 7 & 7 7 & & & % % % % % % %   X % % 7 8 9 M 9 M M M 9 8 9 q l % $.$.$.$.$.$.$.$.$.$.$.$.$.$.$.$.$.",
"$.$.$.$.$.$.$.$.$.$.$.$.$.$.$.$.$.$.$.$.$.$.$.$.$.> i g n n h % 7 7 7 & & & % % % % % X % X X X   X % % 7 8 M M M q N M 9 8 8 p X $.$.$.$.$.$.$.$.$.$.$.$.$.$.$.$.$.",
"$.$.$.$.$.$.$.$.$.$.$.$.$.$.$.$.$.$.$.$.$.$.$.$.$., a h h h * & 7 & & & % % % X X X X X X X o X X X O & 7 9 M M N M N N q 9 0 k - $.$.$.$.$.$.$.$.$.$.$.$.$.$.$.$.$.",
"$.$.$.$.$.$.$.$.$.$.$.$.$.$.$.$.$.$.$.$.$.$.$.$.$.1 g h n <   h p i , X X X X $.$.$.$.$.$.$.$.$.$.$.X % & 8 9 M M q M N N M 9 x 6 8 $.$.$.$.$.$.$.$.$.$.$.$.$.$.$.$.",
"$.$.$.$.$.$.$.$.$.$.$.$.$.$.$.$.$.$.$.$.$.$.$.$.$.1 g p h w p n h h g , $.$.$.$.$.$.$.$.$.$.$.$.$.$.$.X & 7 8 9 9 9 M M M M 8 z l % p , $.$.$.$.$.$.$.$.$.$.$.$.$.$.",
"$.$.$.$.$.$.$.$.$.$.$.$.$.$.$.$.$.$.$.$..         1 p 1 , g h a i 1 > . $.$.$.$.$.$.$.$.$.$.$.$.$.$.$.$.X % & 8 8 9 9 9 9 M 9 M l $ g a > o $.$.$.$.$.$.$.$.$.$.$.$.",
"$.$.$.$.$.$.$.$.$.$.$.$.$.$.$.$.$.$.$.$.@ o o o   # p #   . .           $.$.$.$.$.$.$.$.$.$.$.$.$.$.$.$.$.% & 7 8 9 9 9 9 M 9 9 l 4 h h p .   $.$.$.$.$.$.$.$.$.$.$.",
"$.$.$.$.$.$.$.$.$.$.$.$.$.$.$.$.$.$.$.$.$.        o 1 . . o   . . o . o $.$.$.$.$.$.$.$.$.$.$.$.$.$.$.$.$.$.% & 7 8 9 8 8 9 9 7 6 k E h g . o   . $.$.$.$.$.$.$.$.$.",
"$.$.$.$.$.$.$.$.$.$.$.$.$.$.$.$.$.      . % . o     # .   o O o . .   o $.$.$.$.$.$.$.$.$.$.$.$.$.$.$.$.$.$.% % & 7 7 7 8 7 9 0 8 z p n g . o o o     $.$.$.$.$.$.$.",
"$.$.$.$.$.$.$.$.$.$.$.$.$.$.$.$.$.$.$.$.$.X X   o . O       .     o   $.$.$.$.$.$.$.$.$.$.$.$.$.$.$.$.$.$.$.$.X * 8 7 7 8 8 g R i q 2 p h . . o . o o       .   o $.",
"$.$.$.$.$.$.$.$.$.$.$.$.$.$.$.$.$.$.$.$.$.$.$.o   . .   o . . . . .   $.$.$.$.$.$.$.$.$.$.$.$.$.$.$.$.$.$.$.$.O & 7 3 3 7 8 g h n g < t 1   O o   o . o o o o O   X ",
"$.$.$.$.$.$.$.$.$.$.$.$.$.$.$.$.$.$.$.$.$.$.$.$.    o o o . . . o .   $.$.$.$.$.$.$.$.$.$.$.$.$.$.$.$.$.$.$.$.% & * i p 0 8 a h h h p i =   .       . o .   o .   o ",
"$.$.$.$.$.$.$.$.$.$.$.$.$.$.$.$.$.$.$.$.$.$.$.$.$.  o o   O . . o . o $.$.$.$.$.$.$.$.$.$.$.$.$.$.$.$.$.$.$.$.$.7 7 $.$.i i p g g a p g , . o     o     .   . . O   ",
"$.$.$.$.$.$.$.$.$.$.$.$.$.$.$.$.$.$.$.$.$.$.$.$.$.$.  . o . . O o   o $.$.$.$.$.$.$.$.$.$.$.$.$.$.$.$.$.$.$.$.$.& 9 $.$.$.$.# 5 i a i 5 #   o o           . . o O o ",
"$.$.$.$.$.$.$.$.$.$.$.$.$.$.$.$.$.$.$.$.$.$.$.$.$.$.$.  o . . . .   X $.$.$.$.$.$.$.$.$.$.$.$.$.$.$.$.$.$.$.$.$.$.$.$.$.$.$.o   > , , >         o o o . . o . . . @ ",
"$.$.$.$.$.$.$.$.$.$.$.$.$.$.$.$.$.$.$.$.$.$.$.$.$.$.X . o O   o .   X $.$.$.$.$.$.$.$.$.$.$.$.$.$.$.$.$.$.$.$.$.$.$.$.$.$.X                   $.$.$.X   o   O . . @ ",
"$.$.$.$.$.$.$.$.$.$.$.$.$.$.$.$.$.$.$.$.$.$.$.$.X X X   . .     O   o $.$.$.$.$.$.$.$.$.$.$.$.$.$.$.$.$.$.$.$.$.$.$.$.$.$.@ o $.$.X   o     o $.$.$.$.  o . O . . o ",
"$.$.$.$.$.$.$.$.$.$.$.$.$.$.$.$.$.X         o     . . o . . . o O . O X $.$.$.$.$.$.$.$.$.$.$.$.$.$.$.$.$.$.$.$.$.$.$.$.$.$.$.$.$.*     o   $.$.$.$.$.  o + . O . o ",
"$.$.$.$.$.$.$.$.$.$.$.$.$.$.$.$.X   o # O . . o o . . .   + + O . o . X $.$.$.$.$.$.$.$.$.$.$.$.$.$.$.$.$.$.$.$.$.$.$.$.$.$.$.$.$.o   o o   $.$.$.$.  . .     o . o ",
"$.$.$.$.$.$.$.$.$.$.$.$.$.$.$.$.X   o O o . o .   o . o O O . . . . . X $.$.$.$.$.$.$.$.$.$.$.$.$.$.$.$.$.$.$.$.$.$.$.$.$.$.$.$.$.o   o . @ $.$.o . o . . o . O   X ",
"$.$.$.$.$.$.$.$.$.$.$.$.$.$.$.$.X X X X X X X X X X X X X X X X X X X X $.$.$.$.$.$.$.$.$.$.$.$.$.$.$.$.$.$.$.$.$.$.$.$.$.$.$.$.$.o   O . $.$.$.  o . . .   . . X $."
};
