/* XPM */
static char *_620_2ee504a273f5462ac2f671fe5f5debba9a1797aaae120bcd1f10e255d5d9e366[] = {
/* columns rows colors chars-per-pixel */
"75 75 109 2 ",
"   c black",
".  c #040400",
"X  c #040404",
"o  c #0C0000",
"O  c #0C0404",
"+  c #0C0C08",
"@  c #180400",
"#  c #180C04",
"$  c #100C08",
"%  c #18140C",
"&  c #040810",
"*  c #0C0C18",
"=  c #100C10",
"-  c #141010",
";  c #1C1414",
":  c #181818",
">  c #280400",
",  c #340804",
"<  c #201008",
"1  c #28140C",
"2  c #201C18",
"3  c #301C10",
"4  c #28201C",
"5  c #282818",
"6  c #3C2014",
"7  c #30301C",
"8  c #101420",
"9  c #14182C",
"0  c #182034",
"q  c #242020",
"w  c #2C282C",
"e  c #302420",
"r  c #342C28",
"t  c #3C3824",
"y  c #3C302C",
"u  c #383434",
"i  c #450C04",
"p  c #590000",
"a  c #551004",
"s  c #452418",
"d  c #4D2C18",
"f  c #55301C",
"g  c #413430",
"h  c #493C34",
"j  c #413C3C",
"k  c #613420",
"l  c #693C24",
"z  c #695104",
"x  c #755904",
"c  c #654518",
"v  c #454128",
"b  c #4D4D2C",
"n  c #4D4138",
"m  c #555534",
"M  c #714128",
"N  c #79452C",
"B  c #615D38",
"V  c #202841",
"C  c #242C49",
"Z  c #283451",
"A  c #2C385D",
"S  c #344165",
"D  c #38456D",
"F  c #3C4D79",
"G  c #4D4949",
"H  c #554541",
"J  c #5D4D45",
"K  c #595151",
"L  c #65554D",
"P  c #6D5D51",
"I  c #61595D",
"U  c #696541",
"Y  c #797549",
"T  c #6D6165",
"R  c #756D71",
"E  c #AE0000",
"W  c #826504",
"Q  c #8E6D08",
"!  c #967908",
"~  c #864D30",
"^  c #8E5538",
"/  c #925D3C",
"(  c #9A6545",
")  c #A26D49",
"_  c #AA7551",
"`  c #AE7D59",
"'  c #826D61",
"]  c #8E7569",
"[  c #827579",
"{  c #967D71",
"}  c #A28208",
"|  c #AE8E08",
" . c #B29610",
".. c #BEA210",
"X. c #CBAE10",
"o. c #9E8679",
"O. c #415182",
"+. c #49598E",
"@. c #516196",
"#. c #8A7D82",
"$. c #968A8E",
"%. c #9A8E92",
"&. c #AE9686",
"*. c #A2969A",
"=. c #AEA6AA",
"-. c #B2AEAE",
";. c #C3BABA",
":. c #CBBEC3",
">. c None",
/* pixels */
">.>.>.>.>.>.>.>.>.1 3 6 s s s d s 1 3 1 3 < >.>.>.>.>.>.>.>.>.>.>.>.>.>.>.>.>.>.>.>.>.>.>.>.>.>.>.>.>.>.>.>.>.>.>.>.>.>.>.>.>.>.>.>.>.>.>.>.>.>.>.>.>.",
">.>.>.>.>.>.>.6 s s 6 s s 6 6 6 6 s 1 # s 6 3 1 >.>.>.>.>.>.>.>.>.>.>.>.>.>.>.>.>.>.>.>.>.>.>.>.>.>.>.>.>.>.>.>.>.>.>.>.>.>.>.>.>.>.>.>.>.>.>.>.>.>.>.",
">.>.>.>.>.>.>.>.s d 6 6 s s d 6 f ~ M 6 1 s d 6 3 1 >.>.>.>.>.>.>.>.>.>.>.>.>.>.>.>.>.>.>.>.>.>.>.>.>.>.>.>.>.>.>.>.>.>.>.>.>.>.>.>.>.>.>.>.>.>.>.>.>.",
">.>.>.>.>.>.>.>.>.s d d s s 6 s 6 s / _ d s s d 6 s d 1 >.>.>.>.>.>.>.>.>.>.>.>.>.>.>.>.>.>.>.>.>.>.>.>.>.>.>.>.>.>.>.>.>.>.>.>.>.>.>.>.>.>.>.>.>.>.>.",
">.>.>.>.>.>.>.>.>.>.s k d s 6 f s 6 f _ ~ 6 s 6 d s 6 s < >.>.>.>.>.>.>.>.>.>.>.>.>.>.>.>.>.>.>.>.>.>.>.>.>.>.>.>.>.>.>.>.>.>.>.>.>.>.>.>.>.>.>.>.>.>.",
">.>.>.>.>.>.>.>.>.>.>.6 < 1 1 6 1 1 1 ) / 1 1 3 d k s 1 # # >.>.>.>.>.>.>.>.>.>.>.>.>.>.>.>.>.>.>.>.>.>.>.>.>.>.>.>.>.>.>.>.>.>.>.>.>.>.>.>.>.>.>.>.>.",
">.>.>.>.>.>.>.>.>.>.>.>.# < < < < < 1 ~ d < 1 < 1 s f < 1 < # >.>.>.>.>.>.>.>.>.>.>.>.>.>.>.>.>.>.>.>.>.>.>.>.>.>.>.>.>.>.>.>.>.>.>.>.>.>.>.>.>.>.>.>.",
">.>.>.>.>.>.>.>.>.>.>.l ^ ^ N l d d s d s s 3 1 < 1 6 1 < < < < # >.>.>.>.>.>.>.>.>.>.>.>.>.>.>.>.>.>.>.>.>.>.>.>.>.>.>.>.>.>.>.>.>.>.>.>.>.>.>.>.>.>.",
">.>.>.>.>.>.>.>.>.>.N ^ ) ` ) ^ ~ k s d l k k l s # < 1 1 1 1 1 < # >.>.>.>.>.>.>.>.>.>.>.>.>.>.>.>.>.>.>.>.>.>.>.>.>.>.>.>.>.>.>.>.>.>.>.>.>.>.>.>.>.",
">.>.>.>.>.>.>.>.>.k f 6 1 k ^ l N k f d k k ~ ^ M d 3 1 1 1 < 1 1 1 1 >.>.>.>.>.>.>.>.>.>.>.>.>.>.>.>.>.>.>.>.>.>.>.>.>.>.>.>.>.>.>.>.>.>.>.>.>.>.>.>.",
">.>.>.>.>.>.>.>.>.6 1 p p s N / / N N N N ~ ) ~ M N k s 6 1 1 1 1 1 1 % >.>.>.>.>.>.>.>.>.>.>.>.>.>.>.>.>.>.>.>.>.>.>.>.>.>.>.>.>.>.>.>.>.>.>.>.>.>.>.",
">.>.>.>.>.>.>.>.>.>.p E p s f N ~ M ) ) _ _ / k k N ^ l k d 6 1 1 6 s 1 3 9 >.>.>.>.>.>.>.>.>.>.>.>.>.>.>.>.>.>.>.>.>.>.>.>.>.>.>.>.>.>.>.>.>.>.>.>.>.",
">.>.>.>.>.>.>.>.>.3 p E s s k k d l ~ / ~ l 6 3 d l l l l f k 6 d s w C Z C 0 >.>.>.>.>.>.>.>.>.>.>.>.>.>.>.>.>.>.>.>.>.>.>.>.>.>.>.>.>.>.>.>.>.>.>.>.",
">.>.>.>.>.>.>.d d 1 3 k M d N k k k k l d s s 6 s 3 3 s d ~ l d g C C A A Z V 9 >.>.>.>.>.>.>.>.>.>.>.>.>.>.>.>.>.>.>.>.>.>.>.>.>.>.>.>.>.>.>.>.>.>.>.",
">.>.>.>.f f k k l l k ^ ~ k ^ ~ M k M N k k k M d d d s d l g C C C Z C C 0 0 u t V >.>.>.>.>.>.>.>.>.>.>.>.>.>.>.>.>.>.>.>.>.>.>.>.>.>.>.>.>.>.>.>.>.",
">.s f k l N ~ / ^ ~ ^ N / s N ( / l ~ _ k s s d 3 d l k y V V V V V V 0 u j v v v t y V 9 >.>.>.>.>.>.>.>.>.>.>.>.>.>.>.>.>.>.>.>.>.>.>.>.>.>.>.>.>.>.",
">.k ^ ^ N / ~ ) ~ N ( N ( k ^ ) ^ M M ( N k N s 1 d H y e w V C V V 9 8 9 0 7 u v v t t 5 5 >.>.>.>.>.>.>.>.>.>.>.>.>.>.>.>.>.>.>.>.>.>.>.>.>.>.>.>.>.",
">.s ~ ) N ( ^ ~ ( k N ) ) ^ ) / / N ^ ( ( ) ^ s s K I y 1 q Z A S A Z C 0 8 9 9 9 5 7 t t t 5 9 8 >.>.>.>.>.>.>.>.>.>.>.>.>.>.>.>.>.>.>.>.>.>.>.>.>.>.",
">.6 ^ ( / ^ ) l ^ ~ l $.] ^ $.P N k ( ) / ^ k s 5 % * O = u S S j S G F A V 0 8 9 9 8 8 2 : 8 8 8 8 - 0 8 >.>.>.>.>.>.>.>.>.>.>.>.>.>.>.>.>.>.>.>.>.>.",
">.>.$.R ^ ~ ~ M f d 6 =.h , -.K k _ ^ / k d s s O ; = % V A u S b K b G G n j 9 * 8 9 9 8 8 8 8 8 8 8 8 & * 9 8 >.>.>.>.>.>.>.>.>.>.>.>.>.>.>.>.>.>.>.",
">.>.[ -.[ n f 6 > o > [ 2 > [ P / ) N k l d 0 C C C C w w u G K K G h h h g h j C 9 9 0 9 8 * 8 8 8 & 8 * * + + 8 >.>.>.>.>.>.>.>.>.>.>.>.>.>.>.>.>.>.",
">.>.I $.*.d s 6 >.>.>.>.[ M >./ / ~ M ~ f u G j G j u C C w g G K G G G n n h j Z 9 0 0 0 8 t 5 8 9 c * : 5 = @ , >.>.>.>.>.>.>.>.>.>.>.>.>.>.>.>.>.>.",
">.>.>.[ ;.R >.>.>.>.>.l N ~ / ( ^ ~ ^ f 7 G G G G j C A A C V r G G G n n n h j A 9 9 0 V 8 m b & 9 ! t : ! t 1 k 8 >.>.>.>.>.>.>.>.>.>.>.>.>.>.>.>.>.",
">.>.>.>.%.%.R >.>.k N N N M ( ( ^ ^ N d u G b j u A u A A V C w u G G j j S S S S 0 9 0 0 0 0 B 9 8 B ! & c z s k 1 >.>.>.>.>.>.>.>.>.>.>.>.>.>.>.>.>.",
">.>.>.>.#.;.%.R l N k f l ^ ( / ^ M f u G K G j A S S F S A S A V A F S S S S S S u 0 0 0 V 0 B 7 9 u Y 7 5 z k a 7 >.>.>.>.>.>.>.>.>.>.>.>.>.>.>.>.>.",
">.>.>.>.>.=.:.{ l l k k N ( ) ~ l k V A b I O.G S S S S F F S A C A F F F S S S S S 7 0 0 Z 0 B Y 8 C ! U 9 B B , t 8 >.>.>.>.>.>.>.>.>.>.>.>.>.>.>.>.",
">.>.>.>.M #.&.^ ~ / ^ N N ~ ~ k f V C S K I +.+.O.F S A A F S A S A S F F F S S S G h V 0 Z C v X...U ! U c c x 7 c 9 >.>.>.>.>.>.>.>.>.>.>.>.>.>.>.>.",
">.>.>.>.k N ) _ ) ) / l k f s >.7 u j S O.+.+.@.+.O.F D S S S S S A F F D F F F G K J C 0 Z Z V Y ! U B c b 7 7 c B 0 >.>.>.>.>.>.>.>.>.>.>.>.>.>.>.>.",
">.>.>.>.>.d M / ^ ~ ~ f s >.>.% 7 j G G F O.I @.+.O.S S A A A A S S F D S A F j G G G g 0 V Z C 0 0 0 0 9 9 8 & 8 8 * >.>.>.>.>.>.>.>.>.>.>.>.>.>.>.>.",
">.>.>.>.>.>.f M N M k f >.>.2 w 2 t j G K K K O.+.+.F A A A A S C C S j G K K J n g S y 9 0 Z Z V C V 0 0 0 9 8 * & @ >.>.>.>.>.>.>.>.>.>.>.>.>.>.>.>.",
">.>.>.>.>.>.>.>.>.>.>.>.>.>.0 y w 5 r h G H K G S F S S S Z u S u g h h J J H F G u S u 0 V Z Z 0 0 0 0 0 9 8 8 * + * 9 >.>.>.>.>.>.>.>.>.>.>.>.>.>.>.",
">.>.>.>.>.>.>.>.>.>.>.>.4 * 0 C V 2 2 2 r n G j S A C A u V w u j v b G K K K G A j u g 0 0 Z Z V V 0 0 0 9 8 8 * + 0 V 0 >.>.>.>.>.>.>.>.>.>.>.>.>.>.",
">.T 5 h T >.>.>.>.>.>.9 V Z 0 C V 8 9 0 ; w r r u y C C V 9 2 r t v b m m B G u A u u u V 0 V Z 0 0 0 0 9 9 8 8 * & 9 0 8 >.>.>.>.>.>.>.>.>.>.>.>.>.>.",
"R G < @ + X . + + + + 2 w r y w A C 0 V r w w r r C w V 0 8 7 u r H m m m K S A u u u j V 0 V V 0 0 0 9 9 9 8 8 * & * % >.>.>.>.>.>.>.>.>.>.>.>.>.>.>.",
"T [ L P L H K P T G g ; w r y C A S A V C u r r r r r w 9 % 7 7 v m m m G u u u u u u j V 9 0 0 0 9 9 2 ; 8 % 8 * * d M f >.>.>.>.>.>.>.>.>.>.>.>.>.>.",
"J I K K J T T ' ' L 4 O ; q r C A A A C V C r r y r w 9 * & 5 7 b m b b j u u u A A A j r 9 0 0 0 9 1 1 1 1 1 , * + k N l s >.>.>.>.>.>.>.>.>.>.>.>.>.",
"[ j u w r #.[ q 1 ; X # 3 + 2 y C A A S A V V r r w 9 9 & 0 8 7 m b j u u u A S A A A j j 9 9 0 0 1 1 1 1 1 1 < * ; l ^ M f 6 >.>.>.>.>.>.>.>.>.>.>.>.",
">.>.>.>.y ' I 0 >., . 3 k 3 # ; C A A S S S C w V 9 9 * & 8 8 r v u u A j A A A A A A G j 0 1 3 1 1 1 1 1 < 1 # X e N ^ ^ M d >.>.>.>.>.>.>.>.>.>.>.>.",
"[ #.G 1 w [ R 1 @ # 1 d d 3 1 3 q V S A A A A C 9 8 * & X * 9 0 r u A A S S S A S A D A S s 1 i 1 1 < 1 1 = * + 8 k l ^ / ^ N d >.>.>.>.>.>.>.>.>.>.>.",
"R I h R n ] o.' R 3 s 3 d 3 3 l l 3 q C C C r 0 8 * & + + X * 9 V A S S S S S A S A A A A C 1 < = * & $ + X X 1 d l N / / / ^ M k >.>.>.>.>.>.>.>.>.>.",
">.G j u w r n g y 6 f 1 1 d l l d s d e e w 0 8 * 8 * 8 : % & 9 V A S S S S S D A D Z C V Z V 0 *       o # 1 3 3 s k N ~ ^ / ^ l d >.>.>.>.>.>.>.>.>.",
">.>.>.>.>.>.>.>.1 s s 6 3 k N N l l l d 3 d y ; X >.9 8 8 $ O 8 V A A S A S D D D A V 0 8 % + o   X X   ; s 3 3 3 3 d k c N ^ ^ ~ k >.>.>.>.>.>.>.>.>.",
">.>.>.>.>.>.>.>.M / s 1 d l ~ ^ ~ l f d d s # @   >.>.% 1 1 $ & 9 q V V C C C Z V 8 % # + + + * 9 8 & & = ; 3 3 3 3 3 d k l k d k d >.>.>.>.>.>.>.>.>.",
">.>.>.>.>.>.>.>.s / s 3 k N ~ ~ l f k l d O   # % >.>.>.1 1 1 O 8 8 0 0 0 * 0 * . . + + + 8 V V V V 0 0 9 8 & ; 3 3 s d k k d 1 6 >.>.>.>.>.>.>.>.>.>.",
">.>.>.>.>.>.>.>.>.k 1 d d l l l f d l k 1 # # ; 1 >.>.>.>.1 # & & 8 ; ; & * & & 8 9 r 0 8 8 0 V V V V 0 V 0 8 & ; # # d k s 1 % 3 >.>.>.>.>.>.>.>.>.>.",
">.>.>.>.>.>.>.>.>.>.1 k k d f k l N l d # s 3 # >.>.>.>.>.>.>.>.* X X + & & & 8 9 9 v W w 8 8 9 0 0 V 9 0 8 8 8 # O 1 d d 3 1 % >.>.>.>.>.>.>.>.>.>.>.",
">.>.>.>.>.>.>.>.>.>.>.6 f s f d k / ~ s 1 6 3 >.>.>.>.>.>.>.>.>.>.    & 8   & 8 9 9 V z B 8 8 8 9 0 0 9 8 8 8 8 1 # 1 s 3 1 O >.>.>.>.>.>.>.>.>.>.>.>.",
">.>.>.>.>.>.>.>.>.>.>.>.6 3 d k s d s 1 % < >.>.>.>.>.>.>.>.>.  X &   & 8   O 8 9 9 9 r z V 8 9 9 0 0 0 9 9 8 & ; # 1 1 < # >.>.>.>.>.>.>.>.>.>.>.>.>.",
">.>.>.>.>.>.>.>.>.>.>.>.>.1 6 6 6 3 1 < >.>.>.>.>.>.>.>.>.>.  & &   & & 8 & 8 8 9 9 8 j c r 8 9 8 9 0 9 9 9 8 & # # < + >.>.>.>.>.>.>.>.>.>.>.>.>.>.>.",
">.>.>.>.>.>.>.>.>.>.>.>.>.>.>.>.>.>.>.>.>.>.>.>.>.>.>.>.o . & & & & & & & & 8 8 8 8 0 C Q r 0 0 8 8 8 9 9 8 8 X # # >.>.>.>.>.>.>.>.>.>.>.>.>.>.>.>.>.",
">.>.>.>.>.>.>.>.>.>.>.>.>.>.>.>.>.>.>.>.>.>.>.>.>.>.>.  X O & * * * 8 * & & & 8 8 8 V u | ! V 0 9 8 8 9 9 8 & >.>.>.>.>.>.>.>.>.>.>.>.>.>.>.>.>.>.>.>.",
">.>.>.>.>.>.>.>.>.>.>.>.>.>.>.>.>.>.>.>.>.>.>.>.>.      * 8 8 & * * 8 8 * & & 8 8 8 V A } | V 0 0 9 8 8 8 8 & >.>.>.>.>.>.>.>.>.>.>.>.>.>.>.>.>.>.>.>.",
">.>.>.>.>.>.>.>.>.>.>.>.>.>.>.>.>.>.>.>.>.>.>.>.X & & & 8 8 9 8 * 8 * * 8   & 8 8 9 V V U  .V 0 0 8 8 8 8 & >.>.>.>.>.>.>.>.>.>.>.>.>.>.>.>.>.>.>.>.>.",
">.>.>.>.>.>.>.>.>.>.>.>.>.>.>.>.>.>.>.>.>.>.>.& & & & 8 8 8 9 8 8 8 8 8 8 &   & 8 8 0 0 U | A 0 0 9 8 8 & & >.>.>.>.>.>.>.>.>.>.>.>.>.>.>.>.>.>.>.>.>.",
">.>.>.>.>.>.>.>.>.>.>.>.>.>.>.>.>.>.>.>.>.>.X & & & 8 9 8 8 8 8 8 8 8 8 * & & & 8 9 0 V m Q G 0 0 9 8 8 & & >.>.>.>.>.>.>.>.>.>.>.>.>.>.>.>.>.>.>.>.>.",
">.>.>.>.>.>.>.>.>.>.>.>.>.>.>.>.>.>.>.>.>.& & >.3 s & * 8 8 8 8 8 8 8 * & X   & * 9 9 0 g ! J 8 0 8 8 8 & >.>.>.>.>.>.>.>.>.>.>.>.>.>.>.>.>.>.>.>.>.>.",
">.>.>.>.>.>.>.>.>.>.>.>.>.>.>.>.>.>.>.>.>.>.>.>.1 ; 9 8 8 8 8 8 8 8 * & X   X & & = 9 0 C } B 8 0 8 8 8 X >.>.>.>.>.>.>.>.>.>.>.>.>.>.>.>.>.>.>.>.>.>.",
">.>.>.>.>.>.>.>.>.>.>.>.>.>.>.>.>.>.>.>.>.>.>.>.= 8 y ^ M d e 8 & & X X   >.>.  X * 9 0 0 Y ! 0 9 8 8 8   >.>.. @ >.>.>.>.>.>.>.>.>.>.>.>.>.>.>.>.>.>.",
">.>.>.>.>.>.>.>.>.>.>.>.>.>.>.>.>.>.>.>.>.>.>.>.9 9 l / ( ) ) / N k 3 . >.>.>.>.X O 8 9 8 h ! g 8 8 8 8 s d 3   .     >.>.>.>.>.>.>.>.>.>.>.>.>.>.>.>.",
">.>.>.>.>.>.>.>.>.>.>.>.>.>.>.>.>.>.>.>.>.>.>.>.o s N ~ N ~ N f s # O   >.>.>.>.X & & 8 9 V x W 8 8 d N ) ^ #   . o       o >.>.>.>.>.>.>.>.>.>.>.>.>.",
">.>.>.>.>.>.>.>.>.>.>.>.>.>.>.>.>.>.>.>.>.>.>.o . . O O . O .   .   o . o >.>.>.>.X & 8 9 8 t ! H N ^ ) ) ~ .   . O . o o . . o >.>.>.>.>.>.>.>.>.>.>.",
">.>.>.>.>.>.>.>.>.>.>.>.>.>.>.>.>.>.>.>.>.>.. O . o . .   . + . O . o . X >.>.>.>.X & 8 8 8 0 W ~ ^ ) ) / f   . + . . . . o o O . . o >.>.X X X X X >.",
">.>.>.>.>.>.>.>.>.>.>.>.>.>.>.>.o o     o X O . o o . . o O .       o   X >.>.>.>.>.& 8 q h 8 z r w ( / ~ O o . . . .   O . . . . . .       X X X X X ",
">.>.>.>.>.>.>.>.>.>.>.>.>.>.>.>.>.>.>.>.        . . . o   . . . o o o   X >.>.>.>.>.& = d N f w 2 s / / l O . . + . . .       o . + . o O O .       . ",
">.>.>.>.>.>.>.>.>.>.>.>.>.>.>.>.>.>.>.>.>.>.>.o   . . . o o . . . o o   X >.>.>.>.>.X ; d 6 l s q h ^ l ; . .   + . O . .   O O . O o . . O O o O . X ",
">.>.>.>.>.>.>.>.>.>.>.>.>.>.>.>.>.>.>.>.>.>.>.>.>.  o . . . . O .   O   X >.>.>.>.>.>.& < >.s 6 d l M d . + . . . O . . . O . + . . . O . . . O O . X ",
">.>.>.>.>.>.>.>.>.>.>.>.>.>.>.>.>.>.>.>.>.>.>.>.>.>.  . . o   . . . o   X >.>.>.>.>.>.* = >.>.>.6 s f 3 . O . O o o . . . . . . . . . . . . . .   X >.",
">.>.>.>.>.>.>.>.>.>.>.>.>.>.>.>.>.>.>.>.>.>.>.>.>.>.>.  . . o . . . o   >.>.>.>.>.>.>.>.9 >.>.>.>.>.>.@   . . O . . . . . . . o . .   . .   O .   X >.",
">.>.>.>.>.>.>.>.>.>.>.>.>.>.>.>.>.>.>.>.>.>.>.>.>.>.>.>.  o . . O . o o >.>.>.>.>.>.>.0 >.>.>.>.>.>.>.>.>.  o o o   o       >.>.>.X o   . . . + . X >.",
">.>.>.>.>.>.>.>.>.>.>.>.>.>.>.>.>.>.>.>.>.>.>.>.>.>.>.X o . . .   .   @ >.>.>.>.>.>.>.>.>.>.>.>.>.>.>.>.>.              >.>.>.>.>.>.X   . . O . X X >.",
">.>.>.>.>.>.>.>.>.>.>.>.>.>.>.>.>.>.>.>.>.>.>.>.>.>.X X   o . . . . O . X >.>.>.>.>.>.>.>.>.>.>.>.>.>.>.>.>.>.o   o >.>.>.>.>.>.>.>.>.. O . O . X >.>.",
">.>.>.>.>.>.>.>.>.>.>.>.>.>.>.>.>.>.>.>.X                 . . . O . O . X >.>.>.>.>.>.>.>.>.>.>.>.>.>.>.>.>.X @ X >.>.>.>.>.>.>.>.X X . o . . X X >.>.",
">.>.>.>.>.>.>.>.>.>.>.>.>.>.>.>.>.>.>.o . O O . o . O O O + . . . O . O X >.>.>.>.>.>.>.>.>.>.>.>.>.>.>.>.>.X   >.>.>.>.>.>.>.>.X o   . . o . X X >.>.",
">.>.>.>.>.>.>.>.>.>.>.>.>.>.>.>.>.>.>.o o . O O O . # O . # . . O O o O X >.>.>.>.>.>.>.>.>.>.>.>.>.>.>.>.X   >.>.>.>.>.>.>.>.>..   O . o #   X >.>.>.",
">.>.>.>.>.>.>.>.>.>.>.>.>.>.>.>.>.>.>.      . . .   .                   X >.>.>.>.>.>.>.>.>.>.>.>.>.>.>.>.>.>.>.>.>.>.>.>.>.>.>.. . . . . . X >.>.>.>."
};
