/* XPM */
static char *_1607_fb59d9e422c882ff893ac1cdb6d2c564370ebaa029c3570bee54adafc6782395[] = {
/* columns rows colors chars-per-pixel */
"28 34 157 2 ",
"   c black",
".  c #020301",
"X  c #040503",
"o  c #040204",
"O  c #040604",
"+  c #060606",
"@  c #070A06",
"#  c #080B07",
"$  c #0A0D07",
"%  c gray3",
"&  c #090909",
"*  c #090C08",
"=  c #0A0E09",
"-  c #0B0F0A",
";  c #0C0A0C",
":  c gray5",
">  c #0E0E0E",
",  c #0E1600",
"<  c #0D110B",
"1  c #0E120B",
"2  c #0E120C",
"3  c #0F130D",
"4  c #0F140D",
"5  c #10160C",
"6  c #10140E",
"7  c #111111",
"8  c gray7",
"9  c #151313",
"0  c #141214",
"q  c #151515",
"w  c gray9",
"e  c #131911",
"r  c #151B13",
"t  c #171D15",
"y  c #181E16",
"u  c gray10",
"i  c #1B1B1B",
"p  c #1D1D1D",
"a  c #1E1E1E",
"s  c gray12",
"d  c #210101",
"f  c #241D00",
"g  c #261A06",
"h  c #351111",
"j  c #361010",
"k  c #3B1313",
"l  c #3F1616",
"z  c #1E2315",
"x  c #1A2018",
"c  c #1D241A",
"v  c #2F250A",
"b  c #3E3300",
"n  c #222919",
"m  c #272E1E",
"M  c #3B2C16",
"N  c #393211",
"B  c gray13",
"V  c #232323",
"C  c gray14",
"Z  c #242624",
"A  c #272727",
"S  c #292727",
"D  c #232A20",
"F  c #242B21",
"G  c #262D23",
"H  c #272E24",
"J  c #292828",
"K  c gray16",
"L  c #2C2A2A",
"P  c #2D2B2B",
"I  c #2F2F2F",
"U  c #293026",
"Y  c #2A3127",
"T  c #2F3624",
"R  c #2B3228",
"E  c #2C3329",
"W  c #2D342A",
"Q  c #2E352B",
"!  c #2F362B",
"~  c #2F362C",
"^  c #353C2A",
"/  c #30382C",
"(  c #31392D",
")  c #31382E",
"_  c #32392F",
"`  c #323A2E",
"'  c #313131",
"]  c #353535",
"[  c #333C30",
"{  c #343D31",
"}  c #353E32",
"|  c #363F33",
" . c #383F35",
".. c gray22",
"X. c gray23",
"o. c #510404",
"O. c #401616",
"+. c #732B00",
"@. c #733C06",
"#. c #592727",
"$. c #5C2828",
"%. c #5E2A2A",
"&. c #733E3E",
"*. c #3A4136",
"=. c #3A4337",
"-. c #3D4438",
";. c #3E453B",
":. c #3E473B",
">. c #2C6224",
",. c #714F14",
"<. c #786300",
"1. c #7E651E",
"2. c #594021",
"3. c #5F4323",
"4. c #41493E",
"5. c #424B3F",
"6. c #444242",
"7. c #464F42",
"8. c #474E44",
"9. c #474F44",
"0. c gray30",
"q. c #485045",
"w. c #4C5548",
"e. c #4F584B",
"r. c #535C4F",
"t. c #5D5A5A",
"y. c #5D5D5D",
"u. c #5F5C5C",
"i. c #7C4646",
"p. c gray39",
"a. c #676565",
"s. c #686565",
"d. c #646D60",
"f. c #666F62",
"g. c #6B7467",
"h. c #737C6F",
"j. c #874307",
"k. c #935612",
"l. c #9B5B13",
"z. c #AF7B1F",
"x. c #8B5555",
"c. c #A27070",
"v. c #788174",
"b. c #7B8477",
"n. c #7E877B",
"m. c #998530",
"M. c #B28122",
"N. c #C39B2F",
"B. c #D7BB43",
"V. c #FFFF6B",
"C. c #868383",
"Z. c #8B9488",
"A. c #91988D",
"S. c #969393",
"D. c #9CA398",
"F. c #A3AAA0",
"G. c None",
/* pixels */
"G.G.G.G.G.G.| | G.G.G.G.G.G.G.G.G.G.G.G.| | G.G.G.G.G.G.",
"G.G.G.G.G.        G.G.G.G.G.j G.G.G.j         G.G.G.G.G.",
"G.G.G.G.G.r | | r G.G.G.G.O.$.l G.O.$.l | | r G.G.G.G.G.",
"G.G.G.G.h.d.v.D.f.f.f.b.Z.#.x.%.n.#.x.%.A.F.g.5.G.G.G.G.",
"G.G.G.z 6 { =.w.` F G H h &.c.i.h &.c.i.k h.e.x z G.G.G.",
"G.G.G.  O 3 3 < - = * = L s.S.a.L s.S.a.P c x @   G.G.G.",
"G.G.G.  . = s u w w g v N u.C.t.J u.C.t.S # = X   G.G.G.",
"G.G.G.z       y.0.I ' ,.1.m.6.K 9 P 6.K q       z G.G.G.",
"G.G.G.z U Y E , , B ....M 2.k.;.-. .} [ ~ R U U z G.G.G.",
"G.G.G.z U W ) _ z.X.    V 3.+.4.9.8.q.4.*.! U U z G.G.G.",
"G.G.G.z U U U U V.p.X.i V z.N.R R E E E Q R ( U z G.G.G.",
"G.^ ^ z U r r < z.X.A     3.l.< < < < 1 2 t y 4 z ^ ^ G.",
"T T m o ; r c c B.p.X.i V z.N.c c c c c c c r ; o m T T ",
"] A z Z 0 r U r z.X.A     3.l.r 7.D # :./ r r 0 Z z A ] ",
"A B m Z 0 r U | V.p.X.A V j.z.U | | | | | U r 0 Z m B A ",
"T m m o ; r r r r r r r r   r r r r r r r r r ; o m m T ",
"z z z o ; r.b.f.r.5.5.| U     r.b.f.r.5.| | | ; o z z z ",
"n n z o 0 c | 5.| | U U r   r c | 5.| | U U c 0 o z n n ",
"      o ; r.r r <.b r r |   r r.r r <.b r r | ; o       ",
"G.G.G.o 0 5.| U b f U U |   r 5.| U b f U U | 0 o G.G.G.",
"G.G.G.o ; 5.5.| | U U U |   r 5.5.| | c U U | ; o G.G.G.",
"G.^ ^ o >.r d o.d o.d o.U   r r d o.d o.d o.U >.o ^ ^ G.",
"T T m o ;   & C & p > :   <   < & C & p > :   ; o m T T ",
"] A z o >.# % a + u 8 7 r r r < % a + u 8 7 # >.o z A ] ",
"A B m o ; c @.M.@.M.@.M.c c c c @.M.@.M.@.M.c ; o m B A ",
"T m m o ; | | | | | | | | | | | | | | | | | | ; o m m T ",
"z z z o 0 e c c c c c c c c c c c c c c c c e 0 o z z z ",
"n n z o ; ^ T m A B m m T   z ^ T m A B m m T ; o z n n ",
"      o ; ^ ^ T T m m m T   z ^ ^ T T n m m T ; o       ",
"G.G.G.z m z z z z z z z m   z z z z z z z z m   z G.G.G.",
"G.G.G.z z   5 z n n z 5   5   5 z n n n z 5   $ z G.G.G.",
"G.G.G.z $ $           5 z z z 5             $ $ z G.G.G.",
"G.G.G.$ $ $ $ $ $ $ $ $ $ $ $ $ $ $ $ $ $ $ $ $ $ G.G.G.",
"G.G.G.G.$ n n n n n n n n n n n n n n n n n n $ G.G.G.G."
};
