/* XPM */
static char *_5180_1fa6ef3cd7d3a4ee83d61e72d5cb025c3d41da811f3d9e3a0eb22c3f6ef1fea2[] = {
/* columns rows colors chars-per-pixel */
"25 25 34 1 ",
"  c #320000",
". c #420000",
"X c #480000",
"o c #4C0000",
"O c #500000",
"+ c #5C0000",
"@ c #600000",
"# c #680000",
"$ c #6C0000",
"% c #720000",
"& c #740000",
"* c #7C0000",
"= c #820000",
"- c #8C0000",
"; c #920000",
": c #960000",
"> c #A40000",
", c #AC0000",
"< c #AE0000",
"1 c #B40000",
"2 c #B60000",
"3 c #BE0000",
"4 c #C60000",
"5 c #CA0000",
"6 c #D60000",
"7 c #DC0000",
"8 c #EA0000",
"9 c #F20000",
"0 c #FF0101",
"q c #FF2323",
"w c #976907",
"e c #AD7405",
"r c #FF4D4D",
"t c None",
/* pixels */
"ttttttttt.......ttttttttt",
"ttttttt..##+++##..ttttttt",
"ttttt..OOO*-*-**#...ttttt",
"tttt..%%%%,,2,,:-#...tttt",
"ttt.O%qrr>O4442,:-+...ttt",
"tt..%>rrq=O68642,:#+...tt",
"tt..%1rq;%:484:2,2-#....t",
"t...%%%%O63:2:3633-+....t",
"t....+#:793<*<397:#+....t",
".....@#ooo:#*#:ooo#@.....",
".....+*@weX*8*Xew@*+...O.",
"....X+2+X+*2X2*+X+2+X..O.",
".... :24:-,+++,-:42: .O%.",
"....X23--#: : :#--32X.O%.",
"....X#47:* X:X *:74#XO%=.",
"....XX&+<,4:::4,<+&XX%=O.",
"t....+X &:9-4-9:& X+.=%.t",
"t.....+X+<34043<+X+.%=%.t",
"tt.....@-$+#+#+$-@.=;%.tt",
"tt.....++32#+#23++=;>..tt",
"ttt....X+3455543O%>>=.ttt",
"tttt...X+:700OO%=;%..tttt",
"ttttt...$+++O%%==%.tttttt",
"ttttttt..OOO%%=OO.ttttttt",
"ttttttttt.......ttttttttt"
};
