/* XPM */
static char *_901_a7cba0cde08e9e6d3b5c186f3ef405c89613f2e77122005a4e20a826c6e5fe4d[] = {
/* columns rows colors chars-per-pixel */
"25 25 31 1 ",
"  c #300000",
". c #420000",
"X c #4C0000",
"o c #500000",
"O c #620000",
"+ c #680000",
"@ c #700000",
"# c #720000",
"$ c #760000",
"% c #800000",
"& c #820000",
"* c #880000",
"= c #920000",
"- c #9C0000",
"; c #A40000",
": c #A80000",
"> c #B40000",
", c #C00000",
"< c #C40000",
"1 c #CC0000",
"2 c #D60000",
"3 c #E00000",
"4 c #E40000",
"5 c #F20000",
"6 c #FA0000",
"7 c #FF0101",
"8 c #FF2323",
"9 c #FF4D4D",
"0 c #C18B09",
"q c #CF9B0F",
"w c None",
/* pixels */
"wwwwwwwww.......wwwwwwwww",
"wwwwwww..@@OOO@@..wwwwwww",
"wwwww..ooo*-*-**@...wwwww",
"wwww..####,,1,,:-@...wwww",
"www.o#899;o3331,:-O...www",
"ww..#;998&o57531,:@O...ww",
"ww..#>98=#:373:1,1-@....w",
"w...####o52:1:2522-O....w",
"w....O@:672<*<276:@O....w",
".....+@ooo:@*@:ooo@+.....",
".....O*+0qX*7*Xq0+*O...o.",
"....XO1OXO*1X1*OXO1OX..o.",
".... :13:-,OOO,-:31: .o#.",
"....X12--@: : :@--21X.o#.",
"....X@36:* X:X *:63@Xo#&.",
"....XX%O<,3:::3,<O%XX#&o.",
"w....OX %:7-3-7:% XO.&#.w",
"w.....OXO<23732<OXO.#&#.w",
"ww.....+-$O@O@O$-+.&=#.ww",
"ww.....OO21@O@12OO&=;..ww",
"www....XO2344432o#;;&.www",
"wwww...XO:677oo#&=#..wwww",
"wwwww...$OOOo##&&#.wwwwww",
"wwwwwww..ooo##&oo.wwwwwww",
"wwwwwwwww.......wwwwwwwww"
};
