/* XPM */
static char *_8145_9ac43bc277f1f49fc9fd57c6a55564cd84223104c60e37b05249f60721cc30ab[] = {
/* columns rows colors chars-per-pixel */
"25 25 34 1 ",
"  c #320000",
". c #420000",
"X c #460000",
"o c #4A0000",
"O c #500000",
"+ c #580000",
"@ c #5A0000",
"# c #600000",
"$ c #640000",
"% c #6C0000",
"& c #720000",
"* c #6E4600",
"= c #800000",
"- c #820000",
"; c #880000",
": c #920000",
"> c #9A0000",
", c #9C0000",
"< c #A20000",
"1 c #A40000",
"2 c #AA0000",
"3 c #B00000",
"4 c #B40000",
"5 c #BE0000",
"6 c #C40000",
"7 c #CE0000",
"8 c #D60000",
"9 c #E60000",
"0 c #F60000",
"q c #FF0101",
"w c #FF2323",
"e c #835703",
"r c #FF4D4D",
"t c None",
/* pixels */
"ttttttttt.......ttttttttt",
"ttttttt..##+++##..ttttttt",
"ttttt..OOO&=&=&&#...ttttt",
"tttt..&&&&>><>>;=#...tttt",
"ttt.O&wrr1O333<>;=+...ttt",
"tt..&1rrw-O5753<>;#+...tt",
"tt..&4rw:&;373;<><=#....t",
"t...&&&&O52;<;2522=+....t",
"t....+#;682,&,286;#+....t",
".....@#ooo;#&#;ooo#@.....",
".....+&@*eX&7&Xe*@&+...O.",
"....X+<+X+&<X<&+X+<+X..O.",
".... ;<3;=>+++>=;3<; .O&.",
"....X<2==#; ; ;#==2<X.O&.",
"....X#36;& X;X &;63#XO&-.",
"....XX%+,>3;;;3>,+%XX&-O.",
"t....+X %;8=3=8;% X+.-&.t",
"t.....+X+,23932,+X+.&-&.t",
"tt.....@=$+#+#+$=@.-:&.tt",
"tt.....++2<#+#<2++-:1..tt",
"ttt....X+2344432O&11-.ttt",
"tttt...X+;60qOO&-:&..tttt",
"ttttt...$+++O&&--&.tttttt",
"ttttttt..OOO&&-OO.ttttttt",
"ttttttttt.......ttttttttt"
};
