/* XPM */
static char *_2379_4c2e659243c5a16baa549db07486a0b34804e25ca6b97b692c90123da7c24943[] = {
/* columns rows colors chars-per-pixel */
"25 25 35 1 ",
"  c #340000",
". c #420000",
"X c #440000",
"o c #480000",
"O c #500000",
"+ c #520000",
"@ c #560000",
"# c #5A0000",
"$ c #5E0000",
"% c #640000",
"& c #680000",
"* c #720000",
"= c #740000",
"- c #7C0000",
"; c #422A00",
": c #593B01",
"> c #820000",
", c #8A0000",
"< c #8E0000",
"1 c #920000",
"2 c #980000",
"3 c #9E0000",
"4 c #A00000",
"5 c #A40000",
"6 c #AA0000",
"7 c #AE0000",
"8 c #B40000",
"9 c #B80000",
"0 c #BE0000",
"q c #CC0000",
"w c #DA0000",
"e c #E40000",
"r c #FF2323",
"t c #FF4D4D",
"y c None",
/* pixels */
"yyyyyyyyy.......yyyyyyyyy",
"yyyyyyy..##+++##..yyyyyyy",
"yyyyy..OOO&=&=&&#...yyyyy",
"yyyy..****,,1,,-=#...yyyy",
"yyy.O*rtt5O3331,-=+...yyy",
"yy..*5ttr>O69631,-#+...yy",
"yy..*8tr1*-393-1,1=#....y",
"y...****O62-1-2622=+....y",
"y....+#-702<&<207-#+....y",
".....@#ooo-#&#-ooo#@.....",
".....+&@;:.&9&X:;@&+...O.",
"....X+1+X+&1X1&+X+1+X..O.",
".... -13-=,+++,=-31- .O*.",
"....X12==#- - -#==21X.O*.",
"....X#37-& X-X &-73#XO*>.",
"....XX%+<,3---3,<+%XX*>O.",
"y....+X %-0=3=0-% X+.>*.y",
"y.....+X+<23q32<+X+.*>*.y",
"yy.....@=$+#+#+$=@.>1*.yy",
"yy.....++21#+#12++>15..yy",
"yyy....X+2344432O*55>.yyy",
"yyyy...X+-7weOO*>1*..yyyy",
"yyyyy...$+++O**>>*.yyyyyy",
"yyyyyyy..OOO**>OO.yyyyyyy",
"yyyyyyyyy.......yyyyyyyyy"
};
