/* XPM */
static char *bf024202f5db4f7da1fac7d4714f552a[] = {
/* columns rows colors chars-per-pixel */
"78 77 60 1 ",
"  c None",
". c #0B0B0B",
"X c #170F07",
"o c #0B1707",
"O c #1F170B",
"+ c #131313",
"@ c #1B1B1B",
"# c #2F1B0B",
"$ c #2B230F",
"% c #372313",
"& c #332B13",
"* c #3F2F17",
"= c #3F2B1B",
"- c #232323",
"; c #2F2F2F",
": c #373737",
"> c gray23",
", c #432F1B",
"< c #43331B",
"1 c #4B371B",
"2 c #533F1F",
"3 c #473323",
"4 c #4F3B23",
"5 c #533F2F",
"6 c #5F4323",
"7 c #5B472B",
"8 c #5F4B37",
"9 c #6B4727",
"0 c #774F2B",
"q c #7F532F",
"w c #434343",
"e c #4B4B4B",
"r c gray34",
"t c #5B5B5B",
"y c gray39",
"u c gray42",
"i c #777777",
"p c gray50",
"a c #875733",
"s c #8F5F37",
"d c #9B633B",
"f c #A36B3F",
"g c #AB6F43",
"h c #B37347",
"j c #BF7B4B",
"k c #CB7F4F",
"l c #CF8353",
"z c #D78B5B",
"x c #DF9363",
"c c #E79B6B",
"v c #EFA373",
"b c #F7AB7B",
"n c #838383",
"m c #8B8B8B",
"M c #939393",
"N c #A7A7A7",
"B c gray67",
"V c gray75",
"C c gray78",
"Z c LightGray",
/* pixels */
"                                             ye                               ",
"                                             p;                               ",
"                                             y-                               ",
"                                          >e>e@@-;                            ",
"                                         epuee;-:>-                           ",
"                                        epmye>;-:>:-                          ",
"                                       eyMww::-@-:>;@                         ",
"                                       >w-puyw>w;@.--                         ",
"                                      e:-tNuyw>e>;--++                        ",
"                                      >twiBytewew:;@-@                        ",
"                                     >t>ypVtteww>:;+;-+                       ",
"                                    @reei;;tteew>@@+--@.                      ",
"                                    :e;u;uVtrew>>;--+-@+                      ",
"                                   +>:e;enBrree>>:;@-++@+                     ",
"                                   -:->e-:;rrew>>;:-@-++@                     ",
"                                   ;;@w-@@@rrww>>@..-@++@                     ",
"                                  +--;-@>Nieeww>>>;-.-@+@@                    ",
"                                  +@-:@e:Nueew>>>>;@-.-+@-                    ",
"                                **-;-:w>-:;eew>>:;:-@-@+--$$                  ",
"                                06;-:>>-@@@ew>>::@..-@@++@#O                  ",
"                               ,,,:-:>-@>ntew>:;::;-.-@@.+O$O                 ",
"                          %%%  6a2>;>-@e:urww>:;;:;@-.-@++O$O                 ",
"                         %696% 00-@;>we:;:;ww>;;;;:;@--@+++$O                 ",
"                         6a091,,,;-;:>>-@@@w>:;;;@..-@-@@++#OO                ",
"                        10dd01,21:-;:>-@>uw>>:;;;:;@.-@-@++O$O$$              ",
"                        6sdda1%,,>-:>-@weyw>:;;;;::@@.-@@++O$O**&$            ",
"                       16dfd0%,%@:-:-@e:ey>>;;;;;::@@-@-@+++$O*6*$            ",
"                       6aggd9<26;+-:@e::etwww>>::>w;@--@@+++#$*29&$           ",
"                      1qgjfa6293:@;>w>:>tw---------:w---@+++O$$%29$           ",
"                     10gjhd0%,,=>@:>::>t;-@@@@@@@@@-;w---+.+O%O$***$          ",
"                    19gkjfs6%66@+;>>:>t-+++++++++++++;:--@+.+$$O%*6<&         ",
"                   *9gkkfda4*64-@:>:>t:++@@@@@+++@@-++-:-@+.+O$O%6da1$        ",
"                  &2gllsfa9$16<:->:>e;++@-----@+++@@-++-:-+.+O%O%%0aa&        ",
"                  *sxxkjs02%%,%>-:>e-@+@-weewww>>::-@-+@-;@.+O%O%%16a&        ",
"                 $0lclkg091%41@:;>w;@+@;rputeewwwww>-@@+@--+++$OO$%<6$        ",
"                 *0jxlhfs0O=4<-@:w-@+@-rMntew>>>>>>w>-@@+@-@++O&O&%%%$        ",
"                 *6dkkhfs9$<1&:-w-@+@-niVirww>>>>>>>w;-@@+@-@+O$$%*61$$       ",
"                <*6dkjgdq6%%%%>--@+@-nyeZyew>>>>>>>>w:;-@++@-@O%&%*q9$&       ",
"                *$4sggdd9O&%=@:+-+@-ir>>Crew>>>>>>>>>;@;-@++@-+$&O%6a*&       ",
"                %$6sddds6O=,=-;@-+-re>:>Nre>>>>>>>>>w;@@;-@++-+$&$%*9<&       ",
"               *$<0sssds2#*=%:;-@+re>>:wMrw>>>>>>>:>w;@@@;-@+-@O$$%%*%$       ",
"               %%40qasda$$%%$>--@www>>:rpew>>>>>>:::w;@@@-;@++@$O$O*$&        ",
"               &1600qsd9$##O@:--ww>>>::tie>>>>>::::;w;@@@--;++@.OOO**$&       ",
"               *116699q6$#OO--@>w>>>>::uuw>>>>::::;:w;@@@---;+++$OO*2&$       ",
"               *160ssqq6##O@@@;>>>>>>:;iyw>>>>::::;;w;@@----@;.+.$O26*$       ",
"              %<6qfggfda#OO...:>w>;weyypy>>>>::::;;;w;>ew>;--+..+OO*2*$       ",
"              &6qfghgds0#OO+@-:ww;we::eny>>>::::;;;->:e:;w>;-+..++X*1&$       ",
"              4qdda99096#O@;:;wew;e:py:ny>>>::::;;-->:;py;>--@.@@+OX<$$       ",
"             *0sq90dgfs6O->ee;ew>@;>ww>nt>>>:::;;--->:->;--@--++-@+X*$        ",
"             2a99qsffs2%$eytw-w>>-@@@@@pt>>:::;;----:w++++@@--@+--@O&$        ",
"             69qqasds1$%-yte:-:>>>--;--irw>:::;-----:w+++@----@.@;-+%$        ",
"            16a969as1@;;:rw>;-:>>>:---:ur;>;:--@-@@+:w++@------.@-;+$$        ",
"           *90226qa4-ww:;>:;@;:>>>;--;>ye;:-;-@@-@--:w+@-@-----++@-++         ",
"          *66&*60043wyt>-;--@;>>>:---;>ye---;@-+-+++;w--@@-----@.+@@-+        ",
"          12*&199678>e>;@-@@-:>>>;--;;wyw>:;---------w-@@@--;-;@.++@;-        ",
"         &<*&19qffds+@@@+@;@;::>>--;;;ti>:::;;;-----:--@@@--;--@.+++;-        ",
"         <&&46aghkhf.+++.@;+;::>>;--;i@@@@@@@@@@@@@@..-@@---;--@.@@+@+        ",
"         %%,6addddq96....@:+;::>>:--e@@;---@@@@@@@@@...-----;--@.@@++         ",
"         %*6addq91&%&%@-@@:@;::>>>:t@@-e>>>;;;;;----@@..---;---@+@..++        ",
"        &<6asa9122662-w>:@:@;:>>>>e@@-;>>>;;;;----@@@@@..;-;---@+.+...+       ",
"       &<6qq6<69qss6:rw:;@:@;:::>w@@-;>ytee>>>;;-----;@@..;----@+.+...-@      ",
"       &190<46shzkf+wuw:--;+;:::w@@-;>ye:;----@@@@@@@-;@@..--@@@+.....@;+     ",
"       *29*69fzcxj0-ey>:--;+-;:w@@-;>;ye:;---@@@@@@@@---@@..-@@@+.X@+.+:+     ",
"      $*6*6aflvvzf4;ur>;@-;@+-:e@--e;:ye:----@@@@@@@@-;@;@@.;@@+;-.@+..;-     ",
"      $1<20gkcbcja+>ie:;@---@@;t--e:;:ye:---@@@@@@@@@-;+-;@@;@@@:>.+@..+;+    ",
"      $*19fkxbvxh9@wi>:;+;--@@;e-t:;;>tw:---@@@@@@@@@-;+--;@-@@-:r.+@+..-@    ",
"      &16shzvbczf3-ey:;-+;-@+@;:w>:;;>tw;--@@@@@@@@@@-;+-@@-+@@->u-.@+..@-    ",
"      &4qgzxvxxja+;rr:;-+;-@+-;:>>:;;wt>;--@@@@@@@@@--;+@@@+++@-eie.+@..+-+   ",
"      29dzxcvvzh5+:tw:;@+;@@+-::>>:;;wrw;--@@@@@@@@@--;+@@@+++@-eir.+@+..-@   ",
"     29akcxvvxkf.@:tw:;@+:@@+-::>>:;;er>;--@@@@@@@@---;+@@+++++-wuy..@@..@-+  ",
"     6qhccxvvzh0.@:t>;;@@;@++-;:>::;;er>;--@@@@@@@----;+@@+++++@>ty+.+@X..-+  ",
"    29dccccxxkd3+->t:;-@@;++@;::>::;;ti::;;------;;;;;-+@@+++++@:ty-.+@+..@@  ",
"   16qkvxccczhq.@-we:;-+@-++@;;::::;i@@@@@@@@@@@@@@@@..-@@+oo++@-tt-..@@..+-+ ",
"  12qgvvxccxlg7.@;ew:;-+-;++-;;:>:;e@@----@@@@@@@@@@@...-@...+++:rt-..+@+..@@ ",
"  29flbxxcxljs<+@;e>:;@+-;++-;;:>:t@@-;>>>;;;;;;;----@@..@...++.-wt:+..@+..@@ ",
" 16slvccxxzkf9.@-;e>;;@+--+@;;::>e@@-;e>>;;;;;;;---@@@@@..@.....@>t:-+.@@..+@+",
"160fxccxxxzjs,+@-:e>;;@@-@@@;;::w@@-;iyeeee>>>>>;;;;;;;@@..@....+;yw:+.+@+..@@"
};
