/* XPM */
static char *_468_891dd40e7df00d8bf4a3e109f44661d9baea9bfd4b94c22229e9ab91275ae80f[] = {
/* columns rows colors chars-per-pixel */
"47 64 256 2 ",
"   c #001000",
".  c #001000",
"X  c #0C180C",
"o  c #142414",
"O  c #1C2C1C",
"+  c #243024",
"@  c #303C2C",
"#  c #384434",
"$  c #404C3C",
"%  c #4C5444",
"&  c #545C50",
"*  c #5C6454",
"=  c #646C60",
"-  c #707468",
";  c #747C70",
":  c #808478",
">  c #84887C",
",  c #8C9084",
"<  c #90988C",
"1  c #949C90",
"2  c #98A494",
"3  c #A0A89C",
"4  c #A8B0A0",
"5  c #ACB4A8",
"6  c #B0B8AC",
"7  c #B8C0B4",
"8  c #BCC8BC",
"9  c #C4CCC0",
"0  c #C4D4C4",
"q  c #CCD8CC",
"w  c #D4E0D4",
"e  c #DCECDC",
"r  c #001000",
"t  c #001000",
"y  c #081000",
"u  c #141800",
"i  c #1C1C04",
"p  c #202008",
"a  c #28280C",
"s  c #342C10",
"d  c #382C14",
"f  c #403414",
"g  c #483818",
"h  c #543C1C",
"j  c #58441C",
"k  c #604820",
"l  c #684824",
"z  c #705028",
"x  c #785830",
"c  c #7C6034",
"v  c #846438",
"b  c #8C6C3C",
"n  c #907444",
"m  c #947C4C",
"M  c #988054",
"N  c #A08C58",
"B  c #A49460",
"V  c #A89C68",
"C  c #B0A470",
"Z  c #B8A878",
"A  c #BCB080",
"S  c #C0B888",
"D  c #C4C090",
"F  c #CCCC98",
"G  c #446480",
"H  c #486884",
"J  c #50708C",
"K  c #547890",
"L  c #588094",
"P  c #60849C",
"I  c #688CA4",
"U  c #6C94A8",
"Y  c #709CB0",
"T  c #78A4B4",
"R  c #80A8BC",
"E  c #88B0C0",
"W  c #8CB8C4",
"Q  c #94C0CC",
"!  c #9CC8D4",
"~  c #A4D0DC",
"^  c #001000",
"/  c #001000",
"(  c #00140C",
")  c #081814",
"_  c #0C201C",
"`  c #102424",
"'  c #142C2C",
"]  c #1C3038",
"[  c #1C343C",
"{  c #203C44",
"}  c #244050",
"|  c #2C4854",
" . c #30485C",
".. c #345068",
"X. c #385470",
"o. c #3C5C78",
"O. c #001000",
"+. c #001000",
"@. c #081804",
"#. c #142008",
"$. c #1C2C0C",
"%. c #203014",
"&. c #283818",
"*. c #34401C",
"=. c #384820",
"-. c #405024",
";. c #48582C",
":. c #546030",
">. c #586438",
",. c #606C38",
"<. c #68743C",
"1. c #708044",
"2. c #788448",
"3. c #809048",
"4. c #84984C",
"5. c #889C50",
"6. c #8CA454",
"7. c #8CA854",
"8. c #90B054",
"9. c #94B858",
"0. c #94BC58",
"q. c #94C45C",
"w. c #98CC5C",
"e. c #98D060",
"r. c #98D460",
"t. c #98DC64",
"y. c #98E464",
"u. c #98EC68",
"i. c #001000",
"p. c #081000",
"a. c #141000",
"s. c #201000",
"d. c #2C1400",
"f. c #381800",
"g. c #481C00",
"h. c #542000",
"j. c #602404",
"k. c #702804",
"l. c #782C08",
"z. c #882C08",
"x. c #943008",
"c. c #A0340C",
"v. c #AC380C",
"b. c #BC3C10",
"n. c #544814",
"m. c #585400",
"M. c #645C00",
"N. c #706400",
"B. c #786C04",
"V. c #807804",
"C. c #8C8004",
"Z. c #948804",
"A. c #98900C",
"S. c #A49C0C",
"D. c #ACA40C",
"F. c #B8AC10",
"G. c #BCB810",
"H. c #C4BC10",
"J. c #D0CC10",
"K. c #DCD414",
"L. c #001000",
"P. c #001000",
"I. c #041400",
"U. c #0C1804",
"Y. c #101C0C",
"T. c #182010",
"R. c #1C2814",
"E. c #202C18",
"W. c #282C1C",
"Q. c #2C3420",
"!. c #343824",
"~. c #383C28",
"^. c #3C442C",
"/. c #404830",
"(. c #484838",
"). c #505038",
"_. c #545840",
"`. c #5C6044",
"'. c #68644C",
"]. c #706C54",
"[. c #787458",
"{. c #807C60",
"}. c #888068",
"|. c #90886C",
" X c #949070",
".X c #9C9878",
"XX c #A89C80",
"oX c #ACA488",
"OX c #B8A88C",
"+X c #BCB094",
"@X c #C4B898",
"#X c #CCC0A0",
"$X c #2C2800",
"%X c #383000",
"&X c #4C3800",
"*X c #5C4000",
"=X c #704800",
"-X c #7C4C00",
";X c #8C5400",
":X c #9C5800",
">X c #AC6000",
",X c #B06814",
"<X c #B87428",
"1X c #BC8038",
"2X c #C08C4C",
"3X c #C49C60",
"4X c #CCA474",
"5X c #D4B88C",
"6X c #BC4814",
"7X c #BC5018",
"8X c #C06020",
"9X c #C46828",
"0X c #C47830",
"qX c #C88038",
"wX c #CC8C3C",
"eX c #D09C44",
"rX c #D0A450",
"tX c #D0B054",
"yX c #D4B864",
"uX c #D4C46C",
"iX c #D8CC78",
"pX c #D8D480",
"aX c #D8D88C",
"sX c #DCE094",
"dX c #041C2C",
"fX c #041438",
"gX c #101440",
"hX c #18144C",
"jX c #281450",
"kX c #381C54",
"lX c #482058",
"zX c #582460",
"xX c #6C2468",
"cX c #742C64",
"vX c #842C5C",
"bX c #8C2454",
"nX c #983040",
"mX c #A43430",
"MX c #B03814",
"NX c #BC3C10",
"BX c #384800",
"VX c #8C9C00",
"CX c #DCEC00",
"ZX c #381038",
"AX c #8C108C",
"SX c #DC10DC",
"DX c #4C1000",
"FX c #941000",
"GX c #DC1000",
"HX c #004800",
"JX c #009C00",
"KX c #00EC00",
"LX c #001038",
"PX c #00108C",
"IX c #0010DC",
"UX c #001000",
/* pixels */
"UXUXUXUXUXUXUXUXUXUXUXUXUXUXUXUXUXUXUX$X%X%XUXUX=X<X=X%XUXUXUXUXUXUXUXUXUXUXUXUXUXUXUXUXUXUXUX",
"UXUXUXUXUXUXUXUXUXUXUXUXUX%X:X,X-XUX%X&X&X&X&X;X<X;X-X*X%XUXUXUXUXUXUXUXUXUXUXUXUXUXUXUXUXUXUX",
"UXUXUXUXUXUXUXUXUXUXUXUXUX=X;X:X<X>X*X*X*X=X;X1X:X:X-X=X&XUXUXUXUXUXUXUXUXUXUXUXUXUXUXUXUXUXUX",
"UXUXUXUXUXUXUXUXUXUXUXUXUX*X-X;X:X,X1X,X2X5X2X<X>X:X;X-X*X%XUXUXUXUXUXUXUXUXUXUXUXUXUXUXUXUXUX",
"UXUXUXUXUXUXUXUXUXUXUXUXUX*X-X;X:X>X,X1X1X2X<X,X>X:X;X-X%XUXUXUXUXUXUXUXUXUXUXUXUXUXUXUXUXUXUX",
"UXUXUXUXUXUXUXUXUXUXUXUXUX&X-X;X:X>X,X,X<X1X<X,X>X:X;X*XUXUXUXUXUXUXUXUXUXUXUXUXUXUXUXUXUXUXUX",
"UXUXUXUXUXUXUXUXUXUXUXUXUX%X-X;X:X>X>X,X<X2X<X,X>X-X%X$XUXUXUXUXUXUXUXUXUXUXUXUXUXUXUXUXUXUXUX",
"UXUXUXUXUXUXUXUXUXUXUXUXUX$X=X;X:X>X,X,X<X2X<X,X:X$ + $ + UXUXUXUXUXUXUXUXUXUXUXUXUXUXUXUXUXUX",
"UXUXUXUXUXUXUXUXUXUXUXUXUX$X=X-X:X>X>X,X<X1X<X,X;X$ = + UXUXUXUXUXUXUXUXUXUXUXUXUXUXUXUXUXUXUX",
"UXUXUXUXUXUXUXUXUXUXUXUXUXUX=X-X:X>X,X,X,X1X1X,X:X*X@ * UXUXUXUXUXUXUXUXUXUXUXUXUXUXUXUXUXUXUX",
"UXUXUXUXUXUXUXUXUXUXUXUXUXUX*X-X:X>X>X,X<X<X1X<X,X;X*X&X-X%XUXUXUXUXUXUXUXUXUXUXUXUXUXUXUXUXUX",
"UXUXUXUXUXUXUXUXUXUXUXUXUXUX*X-X:X:X>X,X,X<X1X<X,X>X<X;X,X;X&XUXUXUXUXUXUXUXUXUXUXUXUXUXUXUXUX",
"UXUXUXUXUXUXUXUXUXUXUXUXUXUX&X-X:X:X>X>X,X<X1X<X,X>X:X,X:X=X*XUXUXUXUXUXUXUXUXUXUXUXUXUXUXUXUX",
"UXUXUXUXUXUXUXUXUXUXUXUXUXUX&X-X;X:X>X,X,X<X1X<X,X>X:X:X;X-X=X%XUXUXUXUXUXUXUXUXUXUXUXUXUXUXUX",
"UXUXUXUXUXUXUXUXUXUXUXUXUXUX&X-X;X:X>X,X,X<X2X<X,X:X;X-X-X;X>X:X:X;X-X&XUXUXUXUXUXUXUXUXUXUXUX",
"UXUXUXUXUXUXUXUXUXUXUXUXUX*X-X-X;X:X:X:X:X:X;X:X;X;X;X:X-X;X:X>X>X:X:X*X$XUXUXUXUXUXUXUXUXUXUX",
"UXUXUXUXUXUXUXUXUXUXUXUX*X>X<X1X,X>X:X:X>X>X,X>X>X:X>X;X;X-X;X:X:X:X-XO T.UXUXUXUXUXUXUXUXUXUX",
"UXUXUXUXUXUXUXUXUXUXUX-X:X1X3X2X<X,X<X,X>X,X>X,X>X,X>X:X:X;X;X;X-X!.+ E.T.UXUXUXUXUXUXUXUXUXUX",
"UXUXUXUXUXUXUXUXUXUX*X:X,X1X4X3X1X<X<X,X<X1X2X1X<X<X,X>X;X-Xn.# # ~.!.W.E.o UXUXUXUXUXUXUXUXUX",
"UXUXUXUXUXUXUXUXUX$X*X;X>X,X,X>X>X,X<X,X>XV.V.= * B.N.% k.x.j.# n.~.@ %X$X$XUXUXUXUXUXUXUXUXUX",
"UXUXUXUXUXUXUXUXUXo W.!.*X!.n.$ $ M.M.& B.V.= = V.B.;Xz.6X8X6Xx.k.&X%Xa.p.i.UXUXUXUXUXUXUXUXUX",
"UXUXUXUXUXUXUXUXUXT.W.O + n.# $ m.M.% & B.* = V.>X>X6X8X0XwXqX8Xc.k.d.s.E.o UXUXUXUXUXUXUXUXUX",
"UXUXUXUXUXUXUXUXUXT.O O Q.# # n.m.% =X-X:X,X7X8X7X8X7X9X0XyX9Xb.g.&X%X%X$X$XUXUXUXUXUXUXUXUXUX",
"UXUXUXUXUXUXUXUXUX$X$X%X&X;X-X-X=X=X=X-X;X:X,X9X0X0X0X9XwX9X8Xv.;X:X*X&X%X$XUXUXUXUXUXUXUXUXUX",
"UXUXUXUXUXUXUXUXUX$X%X&X*X:X-X;X:X;X:X>X,X>X,X<X,X,X>X<X8Xv.b.7Xx.;X-X&X%X$XUXUXUXUXUXUXUXUXUX",
"UXUXUXUXUXUXUXUXUX$X%X&X*X-X<X;X;X:X;X>X>X,X<X,X<X>X:X;X:X;X-X;Xb.z.=X&X$X$XUXUXUXUXUXUXUXUXUX",
"UXUXUXUXUXUXUXUXUX$X%X&X*X=X;X,X<X<X<X,X,X>X,X<X,X<X<X1X1X1X1X<Xz.8X*Xg.l.p.UXUXUXUXUXUXUXUXUX",
"UXUXUXUXUXUXUXUX$X$X%X&X*X=X-X-X:X>X<X1X1X2X3X3X3X2X2X1X<X,X;X-X=X6X8Xf.h.h.i.%X&X&X%XUXUXUXUX",
"UXUXUXUXUXUXUXi.$X$X%X&X*X-X=X-X;X;X>X<X>X,X<X,X<X,X:X,X1X;X;X-X=X;XqXc.l.h.s.*X&X&X&X*XUXUXUX",
"UXUXUXUXUXUXp.g.$X$X%X&X*X=X=X-X-X;X;X2X:X,X,X<X,X1X1X1X:X-X:X-X;X-Xl.7Xk.f.*X&X&X*X*X=XUXUXUX",
"UXUXUXUXUXp.g.x.%X$X%X&X*X=X-X=X;X-X;X>X2X1X1X1X1X:X=X=X=X;X,X:X;X-Xc.k.f.h.l.&X  %X=X-XUXUXUX",
"UXUXUXUXUXd.6Xk.%X$X%X&X*X=X=X-X;X;X:X;X>X:X;X-X*X*X=X-X;X:X;X:X;Xk.g.g.d.l.g.i.    -X*XUXUXUX",
"UXUXUXUXa.j.l.f.%X$X%X&X*X=X-X-X-X;X;X=X*X=X-X-X;X:X:X>X>X:X>X<Xg.-Xg.j.h.d.s.    &X=XUXUXUXUX",
"UXUXUXUXd.x.z.d.%X$X%X&X*X=X=X-X;Xc.b.:X-X;X:X>X>X<X>Xx.8Xx.,Xv.;X=X*Xg.c.g.s.i.  *XUXUXUXUXUX",
"UXUXUXUXh.6Xj.a.&X$X%X&X*X=X-X7X9X7Xc.;X:X>X,X,X1X>X9XqXuX0Xx.:X=X*X*X%Xs.s.i.f.i.UXUXUXUXUXUX",
"UXUXUXi.d.d.h.s.i.a.%X&X;X9XqX0X0XqX8X:X:X>X>X1X>XqX7X8XqX9X<X-X=X*X=X&Xi.f.g.g.s.UXUXUXUXUXUX",
"UXUXi.h.a.j.&Xa.a.*X&X6X8X9X8Xg.x.9X0Xv.:X>X<X>X8Xx.v.v.9XeX-X=X=X=X;X%Xi.s.z.s.UXUXUXUXUXUXUX",
"UXi.d.d.p.*X>Xd.s.7Xb.c.7X7Xj.g.g.j.7X8Xx.:X7X0Xl.l.k.x.c.9X,X-X=X-X*X%Xp.p.h.i.s.s.UXUXUXUXUX",
"UXp.a.a.*X;X=Xd.s.h.z.c.6X7Xf.g.g.v.9X9X9Xz.wXx.f.j.h.k.k.h.7X,X-X*X&X%Xp.i.p.s.i.g.s.UXUXUXUX",
"i.p.i.&X-X-Xg.s.f.a.h.z.7Xk.f.f.l.8X0X0XwXqX6Xf.j.k.h.h.f.f.k.7Xc.=X&X%Xi.p.i.f.s.s.a.i.UXUXUX",
"UXi.%X*X=X=Xg.s.l.a.z.8Xc.d.f.d.f.6X0XwXtXwXl.f.f.j.f.f.j.b.7X*X-Xc.&X%Xi.i.p.v.k.a.i.i.UXUXUX",
"UXUX&X*X*X*Xf.d.c.g.6X8Xk.s.s.d.f.j.8X0XqXeXqXj.f.f.h.b.8Xv.*X=X;X:Xj.%Xa.a.h.0Xc.h.a.UXUXUXUX",
"UX%X&X&X*Xf.d.j.j.k.8Xd.g.s.s.d.d.d.7X9X9XqXwXrX9X6XwX0X8Xc.*X=X-X;X>Xd.k.g.c.6X7Xg.d.i.UX-XUX",
"i.%X%X&X&Xd.d.h.f.g.v.l.s.j.6Xl.d.v.eXqXh.h.9XuXtXeX0X>X*X*X6X-X-X;X:X,Xh.b.z.x.6Xa.f.i.=X-XUX",
"i.a.%X%X&Xd.i.f.s.$Xk.8Xx.9X9X6X7XqX9XqX6Xh.z.wXiXsXeX*X*X-X=X8X-X:X;Xh.k.i.g.l.j.d.j.*X-X;X&X",
"UXi.a.%X%Xh.i.a.j.$X%X6X6X7XqX7X9Xb.=X<XtX7Xh.9XsXtXqX0X8X6X0XeX9X,Xk.s.i.i.i.6Xf.k.i.UX=X=X*X",
"UXp.d.s.%Xl.g.s.qX8X7Xz.h.*X*Xx.c.*X*X=X0XtXqX8XiX0X:X8X0XqX0X7Xh.d.s.a.i.i.p.l.d.i.UXUXUXUX*X",
"p.s.a.f.l.b.c.8Xi.7X%X&X*X*X*X*X*X*X=X=X6XwXyXrXyX0X;X8XwX0X6X=X*X&X%X%Xp.i.a.s.h.i.UXUXUXUXUX",
"a.f.s.d.k.0X9Xl.s.f.k.h.*X=X*X*X*X*X*X=Xc.7X0XyXpXeX8X;XeX6X=X=X=X*X&X%X$Xi.s.f.g.s.i.UXUXUXUX",
"a.g.d.a.f.c.rX6Xd.$Xd.z.v.j.=X=X7X:X=Xc.;X:X:X8XyXiXyXeXqX6X-X=X*X=X*X&X$Xi.h.p.d.f.s.i.UXUXUX",
"i.d.j.d.d.f.6X7Xf.$X%X&Xk.7Xv.z.9XwXc.;X;X;X:X<X0XpXtXqX:X&X=X=X=X*X*X%X%Xi.d.  a.h.f.p.UXUXUX",
"UXa.f.h.f.h.l.c.j.d.k.v.g.l.v.8Xb.-X;X-X;X;X,X9X0XwX,X*X&X&X%X=X*X*X&X&X$Xi.h.  p.h.h.p.UXUXUX",
"UXUXp.f.g.l.j.v.z.c.k.d.*X=X=Xc.9X6X-X-X;X:X8XeXwX0X=X*X&X&X&X&X=X*X*X%X$Xi.d.  a.k.s.p.UXUXUX",
"UXUXUXs.g.d.s.h.b.g.a.&X*X*X=X=Xv.0X9X;X-X9XeX9XqXeX8X*X*X-X7X=X*X=X&X$X$Xi.f.i.d.d.i.UXUXUXUX",
"UXUXUXp.s.i.a.f.h.a.%X&X*X=X*X=X=X0XeXqX0XtX8X;X8XtXqXv.6Xb.8Xx.=X*X&X%X$Xi.h.s.a.UXUXUXUXUXUX",
"UXUXUXi.d.p.d.k.f.p.%X&X*X*X=X=Xb.8XqXyXrX9X0X0XeX8Xh.f.h.c.6Xz.h.s.*X$X$Xp.d.a.UXUXUXUXUXUXUX",
"UXUXUXUXi.p.a.f.g.a.%X&X*X*X=Xx.9X6X-X8XeXc.l.b.b.f.f.h.h.h.l.g.z.h.f.$X$Xd.d.UXUXUXUXUXUXUXUX",
"UXUXUXUXUXUXi.a.d.s.%X&X*Xz.z.=X=X-X=X-X0X7Xj.j.j.f.h.=X*X*X=Xz.z.j.l.d.f.i.p.UXUXUXUXUXUXUXUX",
"UXUXUXUXUXUXUXUXi.p.a.f.l.z.=X*X=X=X-X-X-X9Xb.j.=X*X*X*X*X*X*X*Xc.6X8Xg.i.O i.UXUXUXUXUXUXUXUX",
"UXUXUXUXUXUXUXUXUXa.a.d.+ *X*X=X*X=X=X-X;X-X8X:X*X=X*X*X*X=X*X=Xd.b.h.a.O Q.UXUXUXUXUXUXUXUXUX",
"UXUXUXUXUXUXUXUXUXY.R.O O !.W.+ n.-X=X=X-X;X6X8X:X-X=X*X=X*X# @ + m.!.O Q.R.UXUXUXUXUXUXUXUXUX",
"UXUXUXUXUXUXUXUXUXo Y.W.W.!.+ @ -Xm.@ # M.N.& & V.B.% $ M.m.# @ + m.n.O Q.R.UXUXUXUXUXUXUXUXUX",
"UXUXUXUXUXUXUXUXUXUXR.O ~.+ + n.m.@ # m.M.% & V.B.% % M.M.@ @ + m.n.+ O O UXUXUXUXUXUXUXUXUXUX",
"UXUXUXUXUXUXUXUXUXUXUXUXo O + n.@ + !.n.@ # n.n.# @ n.!.+ O + N.n.O o UXUXUXUXUXUXUXUXUXUXUXUX"
};
