/* XPM */
static char *_3777_b9fc60635577e59d9ebc423982d16fccbd90d7da470acd41db36c3d136e97999[] = {
/* columns rows colors chars-per-pixel */
"64 64 72 1 ",
"  c black",
". c #040404",
"X c #100C10",
"o c #181818",
"O c #242020",
"+ c #2C282C",
"@ c #383434",
"# c #413C3C",
"$ c #4D4949",
"% c #595151",
"& c #61595D",
"* c #6D6165",
"= c #756D71",
"- c #827579",
"; c #8A7D82",
": c #968A8E",
"> c #9A8E92",
", c #A2969A",
"< c #AA9EA2",
"1 c #BAB2B6",
"2 c #C3BABA",
"3 c #CBBEC3",
"4 c #CFC7CB",
"5 c #D7CFD3",
"6 c #DBD7DB",
"7 c #E3DBDF",
"8 c #201008",
"9 c #28140C",
"0 c #301C10",
"q c #3C2014",
"w c #452418",
"e c #4D2C18",
"r c #55301C",
"t c #613420",
"y c #693C24",
"u c #714128",
"i c #79452C",
"p c #864D30",
"a c #8E5538",
"s c #925D3C",
"d c #9A6545",
"f c #AA7551",
"g c #516196",
"h c #55699A",
"j c #5D71A2",
"k c #718AB6",
"l c #9EBADF",
"z c #18140C",
"x c #202010",
"c c #282818",
"v c #716D45",
"b c #611404",
"n c #711808",
"m c #821C08",
"M c #8E200C",
"N c #9E240C",
"B c #AE280C",
"V c #BA2C10",
"C c #CB3010",
"Z c #342C28",
"A c #3C302C",
"S c #413430",
"D c #493C34",
"F c #4D4138",
"G c #554541",
"H c #5D4D45",
"J c #65554D",
"K c #6D5D51",
"L c #796559",
"P c #826D61",
"I c #8E7569",
"U c #967D71",
/* pixels */
"OOOOOOOOOOOOOOOOOOOOOOOOOOOOOOOOOOOOOOOOOOOOOOOOOOOOOOOOOOOOOOOO",
"O#$$%$##@#@@@@@@@@@#@@##@#####@####@#@@@@@@@@#@####@#@@@@@@@@@@O",
"O@++O++O++++++++++++++++++++++++++++++++++++++++++++++++O++O+++O",
"O@++O++O++++++++++++++++++++++++++++++++++++++++++++++++O++O+++O",
"O+++@@+@+++++++++++++++++++++++++++++++++++++++++++++@+@@@@+@++O",
"O@++OOOOOOOOOOOOOOOOOOOOOOOOOOOOOOOOOOOOOOOOOOOOOOOOOOOOOOOO+++O",
"O+++O%$#@@#@##$%$###@#@####@#@@#@@@#@@#@#@##@#$%$##@##@#@@@O+++O",
"O+++O$OOOOOOOOOOOOOOOOOOOOOOOOOOOOOOOOOOOOOOOOOOOOOOOOOOOO#O+++O",
"O@++O#OllllIGllllllllllllAPJIIIIIIIIIIIIIIIIIIIIIIIIIIIIIO$O+++O",
"O+++O#OllllIGllll767777llSPJIIIIIIIIIIIIIIIIIIIIIIIIIIIIIO#O+++O",
"O+++O@O55llIFl7777555777lFPJIIIIIIIIIIIIIIIIIIIIIIIIIIIIIO@O+++O",
"O+++O#O5555ISl77422211177FPJIIIIIIIIIIIIIIIIIIIIIIIIIIIIIO#O+++O",
"O+++O@OllllIAll5555555555GPJIIIIIIIIIIIIIIIIIIIIIIIIIIIIIO@O+++O",
"O+++O#OllllIAllllllllllllHPJIIIIIIIIIIIIIIIIIIIIIIIIIIIIIO@O+++O",
"O+++O@OPPPPIASSDDFGGHJKLPKPJIIIIIIIIIIIIIIIIIIIIIIIIIIIIIO#O+++O",
"O+++O@OGGGGGASDFFFFGGGHHHGPJIIIIIIIIIIIIIIIIIIIIIIIIIIIIIO@O+++O",
"O+++O#OllllIAllMMVMllllllGPJIIIIIIIIIIIIIIIIIIIIIIIIIIIIIO#O+++O",
"O+++O@Oll35IS7MM4766V664lGPJIIIIIIIIIIIIIIIIIIIIIIIIIIIIIO#O+++O",
"O+++O@O7667ISCM44433MM666HmJIIIIIIIIIIIIIIiiiIIIIIIIIIIIIO@O+++O",
"O+++O@OllllIAMlllllllMMllJPJIIIIIIIIIIIIIuteiaIIIIIippIIIO#O+++O",
"O+++O@OllllIAllllllllllMmJPJIIIIIIIIIIIIIueqeaIIIiiwwwiiIO@O+++O",
"O+++O@OllllIZllllllllllMMKPJIIIIIIIIIIIIIIyt44ppuu00098yIO@O+++O",
"O+++O@OllllIZlCllllllllMMKPJIIIIIIIIIIIIIIII.4i44t0009tyIO@O+++O",
"O+++O@OllllIAllllllllllVMLPJIIIIIIIII%Odddsappi.4yeeerrIIO@O+++O",
"O+++O@OvvvvIAvvvvvvvvvvMMPPJIIIIIIIIIOOasssaaiuuuyeeeIIIIO@O+++O",
"O+++O@OvvvvIDvvvvvvvvvMMMIPJIIIIIMIIIIyiaaaapppuuyeqIIIIIO@O+++O",
"O+++O@OLLPPIGGH$&&&&qqMMIILJIIMMMICIIIIIyyyy....wqewIIIIIO#O+++O",
"O+++O@OUUUUIIII%%=*==qMMqqqqqMMIIIIIIIIIIIIIeyyyytrrIIIIIO@O+++O",
"O+++O@OSSMMZZZZ%%*=%=qMqqqqMqqqqqqIIIIIIIIIIIiuyutyrIIIIIO#O+++O",
"O+++O@OIMImMMIII%==&MMMMIMMMqqqqqqqqqIIIIIIIttwwIyytIIIIIO$O+++O",
"O+++O@OMIIbbMMI&&%==MMnMCMMIIIIIIIqqqqqqq000rrtttuuttIIIIO#O+++O",
"O+++O@OIIIIImMM*--=--CMnnnIo++**IIIIIIIiiiuu000wiittreIIIO#O+++O",
"O+++O@OIIIIIbmM*-*Mm$CMnMno@@#=*IIIIIIIwwiiiiiiiitttreIIIO@O+++O",
"O+++O@OI*+IIMm%===nnMMMMn+@@#*>@IIIIIIIIwwirrrrmMttwtuIIIO#O+++O",
"O+++O@OI*OOX<=,---MCnMnMn#+$*>@IIIIIIIIIIIwwwwwwwwwerrIIIO@O+++O",
"O+++O@OII$%@+MMMnMMMMMMMMM%@>@IIIIIIIIIIIIIIIyunMeruuyIIIO@O+++O",
"O+++O@OIII#@@M+@@M+nMB>X@MNNM@IIIIIIIIIIIIIIIpMMBrryyiIIIO@O+++O",
"O+++O@OIII#@M++@@@n@MMB>X@$$$MIMIIIIIIIIIIIIIssppwtyypIIIO@O+++O",
"O+++O@OIIIMM@@@.333n>VMMM#$$$O+>MIIIIIIIIIIIIMawryppptIIIO@O+++O",
"O+++O@OIIIM$@@X333.X.333M#$$@oO@IIIIIIIIIIIIIwetMpiuttuIIO@O+++O",
"O+++O@OIIMI##+X3333X333.@$M$$.XXIIMIIIIIIIIIweuuyytMtetutO@O+++O",
"O+++O@OIIMI@@OO333.@...$&%%M%%ooIIIIIIIIIIIIiuu>>wwr>>>>uO@O+++O",
"O+++O@OIIIII+OOXXX@@f@%&*=*BM%o@IIIIIIkkkkkkuukkkkrwrkkkkO#O+++O",
"O+++O@OIIMII+Oo$$$@pp&&**==**%X@IIIMIkkttiiiukkuuuurwrkkkO@O+++O",
"O+++O@OIIIIII..&%%%@....&&**M%X@IIIIkkuttyuuukuuwwwwwrkkkO#O+++O",
"O+++O@OIIIIII@#***@>>---..&&%%@@#@IkkkkhhhhhhkkhhhhhhhkkuO#O+++O",
"O+++O@OIIIIII@+**@>.....-....@OOookkkkkkkkkhhhhhhhhhkkuukO#O+++O",
"O+++O@OIIIIIII.@@.........%%@OOB++ooooXkkkkkkkhhhhkuuukkkO#O+++O",
"O+++O#OIIIIXXX@..@>;>;>;>+@@OOO++++ooooXX@kkkuuuuuukkkkkkO@O+++O",
"O+++O@OIISXXoo@OO.@@@@@@@@+OO++++@++OoooXOO@kkkkkkkkkkkkkO#O+++O",
"O+++O#OIXOooO@#&&+...O...o====+.............OOgggggggggggO@O+++O",
"O+++O#OX@oO++$&&&--====*-;:;>@...oXXXooOOOOOOOOOohhhhhhhhO@O+++O",
"O+++O$Ooo+##@#&&---->>>;->;;..oO++XXooO+++++@@@@oXjjjjjjjO@O+++O",
"O+++O%OO#$$$%&&;;::>::;;;,,..Xoo+ +#@@$%%%&&$$$$$XIIIIIIIO@O+++O",
"O+++O$O@##$%%&&=-;;:>>>:;;@.ooO. O@@$$%&&&&*&&&&%XIIIIIIIO@O+++O",
"O+++O$OOOOOOOOOOOOOOOOOOOOOOOOOOOOOOOOOOOOOOOOOOOOOOOOOOOO@O+++O",
"O+++O##$#@#@@@##@####$#$$$$%$%%&*=*&%%$%$$$$#$$#$##@###@#@@O+++O",
"O@OOOOOOOOOOOOOOOOOOOOOOOOOOOOOOOOOOOOOOOOOOOOOOOOOOOOOOOOOOOO@O",
"O#OoOoOoOoOoOoO++++++++O@++O@++O+++++@oxooczxo@++OoOoOoOoOoOoO#O",
"O#oOoOoOoOoOoOoO+++++++O++@O++@O++++++oocooczo++OoOoOoOoOoOoOo#O",
"O$ooooooooooooooOOOOOOOOOOOOOOOOOOOOOOOOOOOOOOOOoooooooooooooo$O",
"O$+ooooooooooooO+@######$#$$#$$$$$$$$$$#$$#$##@+Ooooooooooooo+$O",
"O+##$####$##$###$#@++++++++++++++++++++++++++@#$###$##$####$##OO",
"OoooooooooooooooooOOOOOOOOOOOOOOOOOOOOOOOOOOOOoooooooooooooooooO"
};
