/* XPM */
static char *cec24776cb7544cb9af5b238a8d4d633[] = {
/* columns rows colors chars-per-pixel */
"5 16 14 1 ",
"  c None",
". c #4F0000",
"X c #670000",
"o c #730000",
"O c #7F0000",
"+ c #434343",
"@ c #4B4B4B",
"# c gray34",
"$ c gray39",
"% c gray42",
"& c #777777",
"* c #9B0000",
"= c #8B8B8B",
"- c #9F9F9F",
/* pixels */
"   -=",
"  -.$",
" -oo$",
"-XXX$",
"O**O$",
"XOOX$",
"O**O$",
"XOOX$",
"O**O$",
"XOOX#",
"O**O#",
"XOOX&",
"O**O%",
"XOOX@",
"XOOX+",
"+++++"
};
