/* XPM */
static char *d5d9bdbd258a41f7bf3f81968c30196d[] = {
/* columns rows colors chars-per-pixel */
"18 16 20 1 ",
"  c None",
". c #4F0000",
"X c #5B0000",
"o c #670000",
"O c #730000",
"+ c #7F0000",
"@ c #434343",
"# c #4B4B4B",
"$ c gray31",
"% c gray34",
"& c gray39",
"* c gray42",
"= c #777777",
"- c gray50",
"; c #8B0000",
": c #9B0000",
"> c #A70000",
", c #8B8B8B",
"< c #939393",
"1 c #9F9F9F",
/* pixels */
"    <,       <<<<,",
"   1.&      1ooo.&",
"  1OO*1    1+:::+&",
" 1ooo*.*  1o+;:+o&",
"<+:::*++*1;:>>>:+&",
"<o+++=OO+++;:::+o&",
"<+:::=::::::::>:+&",
"<o+++&o+;;++&+;+o&",
",+::;&&+::+&,:::+&",
"-o++o% %XX% -o++o%",
"=+::+$  $$  =+::+$",
"=o++o#      =o++o$",
"*+::+#      &+::+#",
"%o++o#      %o++o#",
"$o++o@      $o++o@",
"$@@@@@      $@@@@@"
};
