/* XPM */
static char *cb6e2c9e417d492ca272f2de87ccdd91[] = {
/* columns rows colors chars-per-pixel */
"15 16 19 1 ",
"  c None",
". c #4F0000",
"X c #5B0000",
"o c #670000",
"O c #730000",
"+ c #7F0000",
"@ c #434343",
"# c #4B4B4B",
"$ c gray34",
"% c gray39",
"& c gray42",
"* c #777777",
"= c gray50",
"- c #8B0000",
"; c #9B0000",
": c #A70000",
"> c #8B8B8B",
", c #939393",
"< c #9F9F9F",
/* pixels */
"   <<<<<<<<>   ",
"  <.&Xoooooo&  ",
" <O+&+-;;;;;+% ",
"<ooo%oooo++++o&",
"+;;-%%%%%%-;;;+",
"o++o%     %+-+o",
"+;;+%     >-;;+",
"o++o%     ,o++o",
"+;;-%     >-;;+",
"o+-+$     =+-+o",
"+;:;-$****-;:;+",
"o+--++ooo++--+o",
"#+;;::;;;::;;+#",
" #o+++++++++o# ",
"  @+++++++++@  ",
"   @@@@@@@@@   "
};
