/* XPM */
static char *_0755_b087c505a5c4fc236c545382a315906dacb182f485b7f6fae2d9f4edb18e7058[] = {
/* columns rows colors chars-per-pixel */
"42 65 22 1 ",
"  c black",
". c #020405",
"X c #05080B",
"o c #070910",
"O c #0D1013",
"+ c #0A1117",
"@ c #0C111C",
"# c #111627",
"$ c #141A2D",
"% c #171F33",
"& c #1C243E",
"* c #23304F",
"= c #334372",
"- c #B00007",
"; c #BA0007",
": c #C40008",
"> c #CE0008",
", c #D70009",
"< c #E10009",
"1 c #EB0009",
"2 c #F5000A",
"3 c None",
/* pixels */
"333333333333333333333333333333333333333333",
"333333333333333333333333333333333333333333",
"333333333333333333333333333333333333333333",
"333333333333333333333333333333333333333333",
"333333333333333333333333333333333333333333",
"333333333333323333333333333333333333333333",
"333333333333333333333333333333333333333333",
"333333333333333333332333333333333333333333",
"33333333333333333333>133333333333333333333",
"333333333333333333233:33333333333333333333",
"333333233333333333>33333333333333333333333",
"333333333323333333333333333333333333333333",
"333333333333333332333323333333333333333333",
"33333333333333233>333333332223333333333333",
"33333333333333>33333333333:333333333333333",
"333333333333333131322333313333333333333333",
"333333333333333>333::13333<322233333333333",
"333333323233333:131;3:1333><:3:13333333333",
"333333333333331;:3:333:333;;;33:1333333333",
"33333321233331OO;3:333:331OO;333:333333333",
"333333:3:1331O++:3:333:33>++O133:333333333",
"333331:33:11O+@133:333:3331@+O13:333323333",
"33333:333;;X++1333:321:13331++X<:1331>3333",
"33331X<33;;O@+>331:<:;-:133>+@O:3:31X;3333",
"3333>X.11;O++O:11XXXXXXXX11:O++O,:<.X:3333",
"3333:XX.;;O#+ XXXXXXXXXXXXXX +#O:-.XX:3333",
"333331XXX.+#+XXXXXO++++OXXXXX+#+.XXX133333",
"33333>XXXXO+OXOO2222222222OOXO+OXXXX333333",
"3333331XXXOOOX213;3;;;;33312XOOOXXX2333333",
"333333>XXXO+#X::3:3;XX;333::X#+OXXX3333333",
"33333331XXXO#O..<:3:OO:321..O#OXXX23333333",
"333333<>XXOOO+oX.;<:OO:<:.Xo+OOOXX>3333333",
"333333:ooXX++XO+oX.OOOO.Xo+OX++XXoo1333333",
"333331oooXX+@OO+++XX++XX+++OO@+XXooo333333",
"33333>ooo2XO+O+O@@@++++@@@O+O+OX2ooo233333",
"33333:ooX>XXO+#O+#$++++$#+O#+OXX>Xoo>33333",
"33333:oo13XXX@#O+#$@++@$#+O#@XXX:1oo:33333",
"33333ooo>32X.#$.+%*++++*%+.$#.X1;:ooo33333",
"33332ooo:33XXO++OOOO++OOOO++OXX:3;ooo23333",
"3333>o+o:312oXO#%@.+@@+.@%#OXo1:3:o+o>3333",
"3331:o++:<.Xo#O$*=$O##O$=*$O#oX.<:++o:3233",
"331:;1++;.o$ooOO&==#%%#==&OOoo$o.;++133>33",
"33:33:@+X+$%oo --%==%%==%-- oo%$+X+@><3:33",
"33:3<.Xo@$$%&oO-22*=&&=*22-Oo&%$$@oX.:<:33",
"33:<XXo#$$%&&oo    $##$    oo&&%$$#oXX;;33",
"33XX++++@##$$%o@&$$#**#$$&@o%$$##@++++XX33",
"33XXXXXo+@.....X%O#*$$*#O%X.....@+oXXXXX33",
"33333222$%$2222.@$+ ## +$@.2222$%$22333333",
"333333331%%&;;:1X--+OO+--X1:;;&%%133333333",
"333333333%%&&--:#--#&&#--#:--&&%%333333333",
"3333333333$&&*-;#&-&22&-&#;-*&&$3333333333",
"333333333332&**&#$-1::1-$#&**&223333333333",
"3333333333333**&@# &--& #@&**1:33333333333",
"333333333333332&++      ++&213333333333333",
"3333333333333333++& && &++3333333333333333",
"33333333333333333+##$$##+33333333333333333",
"333333333333333333o+&&+o333333333333333333",
"3333333333333333333.&&.3333333333333333333",
"3333333333333333333X++X3333333333333333333",
"33333333333333333333++33333333333333333333",
"33333333333333333333XX33333333333333333333",
"333333333333333333333333333333333333333333",
"333333333333333333333333333333333333333333",
"333333333333333333333333333333333333333333",
"333333333333333333333333333333333333333333"
};
