/* XPM */
static char *_1120_1aa9046c111a1ad23b4bb9302736b3829a984d35e3dfbbf43b440a851478762a[] = {
/* columns rows colors chars-per-pixel */
"42 65 22 1 ",
"  c black",
". c #020405",
"X c #05080B",
"o c #070910",
"O c #0D1013",
"+ c #0A1117",
"@ c #0C111C",
"# c #111627",
"$ c #141A2D",
"% c #171F33",
"& c #1C243E",
"* c #23304F",
"= c #334372",
"- c #B00007",
"; c #BA0007",
": c #C40008",
"> c #CE0008",
", c #D70009",
"< c #E10009",
"1 c #EB0009",
"2 c #F5000A",
"3 c None",
/* pixels */
"333333333333333333333333333333333333333333",
"333333333333333333333333333333333333333333",
"333333333333333333333333333333333333333333",
"333333333333333333333333333333333333333333",
"333333333333323333333333333333333333333333",
"3333333333333>3333332333333333333333333333",
"3333333333333:333333>333333333333333333333",
"3333333333333:3333333133333333333333333333",
"333333333333333332233>33333333333333333333",
"33333333333333333::13333332333333333333333",
"33333333333333333;3:133333>333333333333333",
"33333333333333233:33:33333:333333333333333",
"33333333333333>33:33:13333:333323333333333",
"33333332333333:33:333:3331:3333>3333333333",
"3333333>323333:33:3333133:;1333:3333333333",
"3333233:3>3333:13:3333>31;-3123:3333333333",
"3333>33:3:1333;:3:3331:3:3;33:3:1333333333",
"3333:33:3;:333;;3:333:33:3:13:<;:333333333",
"3333:33:<33333;;3:133:31:3;:33;-;333333333",
"3333:31;:33331OO33:33:3:33OO13;-;333333333",
"3333:3:-;3331O++33:31:<:33++O<;-;133233333",
"3333:<;3;131O+@333:3:-;3332@+O-3-:33>33333",
"3333;;33;:<X++2333:<;-;<33>1++X3;;31:33333",
"3333;X<33-:O@+>121;;---:11;:+@O1;;3:X33333",
"3333:X.13;O++O;;;XXXXXXXX;-;O++O-;<.X33333",
"3333:XX.<:O#+ XXXXXXXXXXXXXX +#O;-.XX33333",
"3333:1XXX.+#+XXXXXO++++OXXXXX+#+.XXX333333",
"33333:XXXXO+OXOO2222222222OOXO+OXXXX333333",
"3333331XXXOOOX21:;;;;333;:12XOOOXXX3333333",
"333333>XXXO+#X:;3333XX333-;:X#+OXXX3333333",
"333333:1XXXO#O..<333OO333;..O#OXXX23333333",
"333333;:XXOOO+oX.122OO221.Xo+OOOXX>3333333",
"333333;ooXX++XO+oX.OOOO.Xo+OX++XXoo3333333",
"333333oooXX+@OO+++XX++XX+++OO@+XXooo333333",
"333333ooo2XO+O+O@@@++++@@@O+O+OX2ooo333333",
"333333ooX>XXO+#O+#$++++$#+O#+OXX>Xoo333333",
"333233oo1:XXX@#O+#$@++@$#+O#@XXX31oo233333",
"333>3ooo:;1X.#$.+%*++++*%+.$#.X23>ooo33333",
"333:3ooo;3:XXO++OOOO++OOOO++OXX>3:ooo23233",
"333:3o+o:3:1oXO#%@.+@@+.@%#OXo1:3:o+o>3>33",
"333:3o++:<.Xo#O$*=$O##O$=*$O#oX.<:++o:3:33",
"333:12++;.o$ooOO&==#%%#==&OOoo$o.;++1:3:33",
"331;;:@+X+$%oo --%==%%==%-- oo%$+X+@:;<:33",
"33:3-.Xo@$$%&oO-22*=&&=*22-Oo&%$$@oX.-;;33",
"33:,XXo#$$%&&oo    $##$    oo&&%$$#oXX-;33",
"33XX++++@##$$%o@&$$#**#$$&@o%$$##@++++XX33",
"33XXXXXo+@.....X%O#*$$*#O%X.....@+oXXXXX33",
"33333222$%$2222.@$+ ## +$@.2222$%$22223333",
"333333331%%&;3:1X--+OO+--X1:;;&%%1:;;33333",
"33333333>%%&&,3:#--#&&#--#:--&&%%:-3333333",
"3333333331$&&*,:#&-&22&-&#;-*&&$1333333333",
"333333333312&**&#$-1::1-$#&**&213333333333",
"3333333333331**&@# &--& #@&**1333333333333",
"333333333333312&++      ++&213333333333333",
"3333333333333333++& && &++1333333333333333",
"33333333333333333+##$$##+33333333333333333",
"333333333333333333o+&&+o333333333333333333",
"3333333333333333333.&&.3333333333333333333",
"3333333333333333333X++X3333333333333333333",
"33333333333333333333++33333333333333333333",
"33333333333333333333XX33333333333333333333",
"333333333333333333333333333333333333333333",
"333333333333333333333333333333333333333333",
"333333333333333333333333333333333333333333",
"333333333333333333333333333333333333333333"
};
