/* XPM */
static char *_1963_2a18aa4c75b04c625ec8f531266b89128ea852c1d0102b4e3a45bc0266929a2e[] = {
/* columns rows colors chars-per-pixel */
"42 65 22 1 ",
"  c black",
". c #020304",
"X c #040609",
"o c #06070D",
"O c #0A0D0F",
"+ c #080E12",
"@ c #0A0E16",
"# c #0E121F",
"$ c #101524",
"% c #121929",
"& c #161D32",
"* c #1C263F",
"= c #29365B",
"- c #B00007",
"; c #BA0007",
": c #C40008",
"> c #CE0008",
", c #D70009",
"< c #E10009",
"1 c #EB0009",
"2 c #F5000A",
"3 c None",
/* pixels */
"333333333333333333333333333333333333333333",
"333333333333333333333333333333333333333333",
"333333333333333333333333333333333333333333",
"333333333333333333333333333333333333333333",
"333333333333333333333333333333333333333333",
"333333333333333333333333333333333333333333",
"333333333333333333333333333333333333333333",
"333333333333333333332233333333333333333333",
"333333333333333333333333333323333333333333",
"3333333333333323332333223333>3333333333333",
"33333332333333>333>333::3333:3333333333333",
"33333333333333:333:333;;3333:3333333333333",
"333333333332333331:333;;3333:3323333333333",
"33333333333>33333:33333;3333:3333333333333",
"33333333233313333:33333:3333:3333333333333",
"33333233333333323333333:333133333333333333",
"33333>333333333>33333333331>33332333333333",
"333333333323333:3333333333:33323>333333333",
"3333333323>3331:33333333333333>33333333333",
"3333333333:333:;33323333321233333333233333",
"3333333333:131OO333>33323:OO12133233333333",
"3333323333;:<O++3333333>3:++O;:33>33333333",
"33333>3333;-O+@23333331:331@+O;33:33233333",
"33333:3333;X++13333321:;33>1++X13:33>33333",
"33333X1333:O@+>33221:;-;133:+@O>3:31X33333",
"33333X.131O++O:11XXXXXXXX1<:O++O<:<.X33333",
"33333XX.<>O#+ XXXXXXXXXXXXXX +#O:-.XX33333",
"333333XXX.+#+XXXXXO++++OXXXXX+#+.XXX233333",
"333333XXXXO+OXOO2222222222OOXO+OXXXX333333",
"3333332XXXOOOX21:33;;;;;;:12XOOOXXX2333333",
"3333333XXXO+#X:;333;XX-333;:X#+OXXX>333333",
"33333332XXXO#O..<33:OO:33<..O#OXXX13333333",
"3333333>XXOOO+oX.11:OO:11.Xo+OOOXX>3333333",
"3333331ooXX++XO+oX.OOOO.Xo+OX++XXoo1333333",
"333333oooXX+@OO+++XX++XX+++OO@+XXooo333333",
"333333ooo2XO+O+O@@@++++@@@O+O+OX2ooo333333",
"333233ooX>XXO+#O+#$++++$#+O#+OXX>Xoo233333",
"333>33oo13XXX@#O+#$@++@$#+O#@XXX:1oo>33333",
"333:3ooo>32X.#$.+%*++++*%+.$#.X13:ooo32333",
"333:3ooo:3>XXO++OOOO++OOOO++OXX>3:ooo33133",
"33333o+o:3:1oXO#%@.+@@+.@%#OXo1:3:o+o33>33",
"33233o++:<.Xo#O$*=$O##O$=*$O#oX.<:++o23:33",
"33>332++;.o$ooOO&==#%%#==&OOoo$o.;++1>3333",
"33333>@+X+$%oo  -%==%%==%-  oo%$+X+@:;3333",
"33331.Xo@$$%&oO-2-*=&&=*-2-Oo&%$$@oX.;3233",
"3321XXo#$$%&&oo    $##$    oo&&%$$#oXX<>33",
"33XX++++@##$$%o@&$$#**#$$&@o%$$##@++++XX33",
"33XXXXXo+@.....X%O#*$$*#O%X.....@+oXXXXX33",
"33332222$%$2222.@$+ ## +$@.2222$%$22323333",
"333333331%%&;3:1X--+OO+--X1:33&%%1:3333333",
"333333333%%&&,;:#&-#&&#-&#:3<&&%%:33333333",
"3333333332$&&*-;#$-&22&-$#:,*&&$1333333333",
"333333333312&**&@# &::& #@&**&233333333333",
"33333333333:1**&++      ++&**1333333333333",
"333333333333312&++& && &++&233333333333333",
"33333333333333332+##$$##+21333333333333333",
"333333333333333333o+&&+o333333333333333333",
"3333333333333333333.&&.3333333333333333333",
"3333333333333333333X++X3333333333333333333",
"33333333333333333333++33333333333333333333",
"33333333333333333333XX33333333333333333333",
"333333333333333333333333333333333333333333",
"333333333333333333333333333333333333333333",
"333333333333333333333333333333333333333333",
"333333333333333333333333333333333333333333"
};
