/* XPM */
static char *_1447_3d5f361913bd210ecf09e3b3a48cf01b659e6ee17201e7fde701e882f5cbd264[] = {
/* columns rows colors chars-per-pixel */
"32 32 213 2 ",
"   c #4B3D38",
".  c #4D3F39",
"X  c #4F413B",
"o  c #53443D",
"O  c #53453F",
"+  c #5E4E46",
"@  c #5F4E49",
"#  c #5F5048",
"$  c #68574D",
"%  c #68574E",
"&  c #6A594F",
"*  c #6A5A51",
"=  c #6C5B51",
"-  c #6C5C50",
";  c #6D5D51",
":  c #6E5D51",
">  c #6D5C53",
",  c #6E5D54",
"<  c #715F54",
"1  c #705F55",
"2  c #726057",
"3  c #756258",
"4  c #766258",
"5  c #776358",
"6  c #756458",
"7  c #776458",
"8  c #776559",
"9  c #786458",
"0  c #786559",
"q  c #79675B",
"w  c #7A665A",
"e  c #7C685C",
"r  c #7E6A5E",
"t  c #7E6B5F",
"y  c #816E61",
"u  c #816E62",
"i  c #826E62",
"p  c #836E64",
"a  c #857063",
"s  c #867163",
"d  c #877265",
"f  c #877266",
"g  c #887266",
"h  c #897266",
"j  c #897366",
"k  c #897367",
"l  c #897467",
"z  c #8B7467",
"x  c #8D7567",
"c  c #8C7468",
"v  c #8D7569",
"b  c #8D7668",
"n  c #8E7769",
"m  c #8F776A",
"M  c #8F796C",
"N  c #90776B",
"B  c #91786C",
"V  c #92796D",
"C  c #937A6D",
"Z  c #937A6E",
"A  c #947B6F",
"S  c #907C6F",
"D  c #937D70",
"F  c #967D71",
"G  c #977E71",
"H  c #977E72",
"J  c #987F72",
"K  c #968073",
"L  c #998073",
"P  c #988274",
"I  c #9A8276",
"U  c #9C8377",
"Y  c #9A8476",
"T  c #9D8578",
"R  c #9D8778",
"E  c #9E8678",
"W  c #9E8679",
"Q  c #9E8779",
"!  c #9F8779",
"~  c #9F877A",
"^  c #A0877A",
"/  c #A0887A",
"(  c #A0897A",
")  c #A58A7A",
"_  c #A78B7B",
"`  c #A2897C",
"'  c #A18B7C",
"]  c #A38A7C",
"[  c #A38D7E",
"{  c #A78C7D",
"}  c #A78D7D",
"|  c #A58C7E",
" . c #A58E7F",
".. c #A88D7C",
"X. c #A88D7D",
"o. c #A98E7D",
"O. c #AA8E7D",
"+. c #A98E7E",
"@. c #AB8F7E",
"#. c #AA8F7F",
"$. c #AB907F",
"%. c #A68D80",
"&. c #A89081",
"*. c #A89181",
"=. c #AA9080",
"-. c #AB9180",
";. c #A99182",
":. c #AA9082",
">. c #AA9182",
",. c #AA9283",
"<. c #AB9283",
"1. c #AB9383",
"2. c #AC9180",
"3. c #AC9181",
"4. c #AC9281",
"5. c #AC9383",
"6. c #AD9483",
"7. c #AE9483",
"8. c #AC9484",
"9. c #AD9484",
"0. c #AD9584",
"q. c #AC9485",
"w. c #AD9585",
"e. c #AE9484",
"r. c #AE9585",
"t. c #AE9685",
"y. c #AD9586",
"u. c #AF9486",
"i. c #AE9586",
"p. c #AD9686",
"a. c #AE9686",
"s. c #AF9786",
"d. c #AF9787",
"f. c #B09786",
"g. c #B09787",
"h. c #B09888",
"j. c #B09989",
"k. c #B19989",
"l. c #B39889",
"z. c #B39A89",
"x. c #B19A8A",
"c. c #B29A8A",
"v. c #B39A8A",
"b. c #B29A8B",
"n. c #B39B8B",
"m. c #B49A8A",
"M. c #B49B8B",
"N. c #B59B8B",
"B. c #B49C8C",
"V. c #B59D8D",
"C. c #B69D8C",
"Z. c #B69E8D",
"A. c #B59E8E",
"S. c #B69E8E",
"D. c #B79E8E",
"F. c #B79F8F",
"G. c #B99C8C",
"H. c #B89F8F",
"J. c #B99F8F",
"K. c #BBA08F",
"L. c #B9A090",
"P. c #BAA090",
"I. c #BAA191",
"U. c #BCA090",
"Y. c #BDA191",
"T. c #BCA292",
"R. c #BCA393",
"E. c #BEA292",
"W. c #BFA393",
"Q. c #BFA494",
"!. c #C0A493",
"~. c #C0A494",
"^. c #C1A495",
"/. c #C1A595",
"(. c #C2A595",
"). c #C2A696",
"_. c #C3A696",
"`. c #C3A797",
"'. c #C4A898",
"]. c #C5A999",
"[. c #C6A998",
"{. c #C6A999",
"}. c #C8AB9B",
"|. c #C9AB9B",
" X c #C9AA9C",
".X c #CAAA9C",
"XX c #CAAA9D",
"oX c #C9AC9C",
"OX c #C9AD9D",
"+X c #CAAD9C",
"@X c #CAAD9D",
"#X c #CEAD9F",
"$X c #CFAD9F",
"%X c #CCAF9E",
"&X c #CDAE9F",
"*X c #CCAF9F",
"=X c #CFADA0",
"-X c #CFAEA0",
";X c #D0AFA1",
":X c #CEB3A1",
">X c #D2B1A3",
",X c #D4B0A4",
"<X c #D5B1A5",
"1X c #D6B2A5",
"2X c #D7B2A6",
"3X c #D7B3A6",
"4X c #D8B3A7",
"5X c #D9BCA9",
"6X c #E2C3B0",
"7X c #E1C5B0",
"8X c #E3C6B2",
"9X c #E5C6B2",
"0X c #E7C8B4",
/* pixels */
"8X5X%XOX&X,X<X<X<X;X@X@X@X@X@X@X@X@X@X@X@X@X{._.(.{.}.R.n.a.#._ ",
"3X>XoXR.S.F.F.F.F.F.D.D.D.D.D.D.D.D.D.S.I./._.~.H.S.D.S.z.+.n w ",
"*XoX(.N.a.a.a.a.a.a.a.a.a.a.a.a.a.a.a.a.d.d.d.d.d.a.a.d.1.~ i ; ",
"2X=X(.M.p.a.a.a.a.a.a.a.a.a.a.a.a.a.a.a.a.a.a.a.a.a.a.a.e...s - ",
"2X=X(.M.p.a.a.a.a.a.d.n.n.d.a.a.a.a.a.a.a.a.a.a.a.a.a.a.e...s - ",
"2X=X(.M.p.a.a.a.a.a.a.a.a.a.d.a.8.w.a.a.a.a.a.a.a.a.a.a.,.! i ; ",
"2X=X(.M.p.a.a.a.a.a.a.a.a.a.J.l.M P B.k.a.a.a.a.a.a.a.a.,.Q d 7 ",
"2X=X(.M.p.a.a.a.a.a.a.a.d.w.P h v / B.k.a.a.a.a.a.a.a.a.,.W u ; ",
"2X=X(.M.p.a.a.a.a.a.a.a.a.a.w.8.8.w.a.d.a.a.c.B.d.a.a.a.,.W y - ",
"2X=X(.M.p.a.a.a.a.a.a.a.a.a.a.a.a.a.d.n.n.d.a.a.a.a.a.a.,.W u ; ",
"2X=X(.M.a.a.a.a.a.a.a.a.a.a.a.a.a.a.a.a.a.a.a.a.a.a.a.s.,.Q d 7 ",
"*X|.(.P.n.d.a.a.a.a.a.a.w.1.;.&.&.*.,.i.d.a.a.0.$.3.a.a.,.W i : ",
"1X#X).P.n.d.a.a.a.k.V.n.R 8 + X . o & | E.g.w.9.@.3.r.3.} W f 7 ",
"*X|.(.P.n.d.a.a.a.k.S.Q.u.C Y.0X9X;.> K f.@.O.O.O.3.r.a.,.W u ; ",
"2X=X(.M.a.a.a.a.a.a.d.Z. .l K.6X+Xp . S C.$.O.O.O.O.$.9.,.W y - ",
"2X=X(.M.p.a.a.a.a.a.d.Z.' 6 $ % * O   I ~.g.-.O.O.4.r.s.,.W u ; ",
"2X=X(.M.p.a.a.a.a.a.d.V.[ r 5 7 < # @ ` ~.h.w.t.t.a.a.s.,.Q d 7 ",
"2X=X(.M.p.a.a.a.a.a.a.h.( a k V c 4 , %.!.h.p.a.a.a.a.a.,.W i : ",
"2X=X(.M.a.a.a.a.a.a.a.h.Y 2 3 e 1 = q <.W.h.p.a.a.a.a.a.>.W d 7 ",
"2X=X).L.n.d.a.a.a.a.d.n.B.b.T.].'.'.'.`.U.g.p.a.a.x.B.7.) J t ; ",
"2X=X).P.n.d.a.a.a.a.a.a.a.a.d.g.g.g.g.d.d.a.a.a.a.a.a.2.{ T y - ",
"2X$X(.P.n.d.a.a.a.a.a.a.a.a.a.a.a.a.a.a.a.a.a.a.a.a.a.a.,.W y - ",
"2X.XH.A.n.d.a.a.a.a.a.a.a.a.a.a.a.a.a.a.a.a.a.a.a.a.a.a.,.W y - ",
"2X XS.h.a.a.a.a.a.a.a.a.a.a.d.r.o.=.a.a.a.a.a.a.a.a.a.a.,.W y - ",
"2X XS.h.a.a.a.a.a.k.B.j.5.$.G.l.j D n.k.a.a.a.a.a.a.a.a.,.W u ; ",
"2X.XD.h.a.a.a.a.a.a.a.a.a.w.] L F / a.d.a.a.a.a.a.a.a.a.,.Q g 9 ",
"2X=X^.m.p.a.a.a.a.a.a.a.a.a.w.w.w.w.d.n.n.d.a.a.a.a.a.a.,.Q g 9 ",
"2X=X^.m.p.a.a.a.a.a.a.a.a.a.a.a.a.a.a.a.a.a.a.a.a.a.a.a.,.W u ; ",
"2XXXF.h.a.a.a.a.a.a.a.a.a.a.a.a.a.a.a.a.a.a.a.a.a.a.a.a.,.! i ; ",
"4X-X~.v.w.a.c.B.d.a.a.a.a.a.a.a.a.a.a.a.a.a.a.a.a.a.a.a.e.X.x 9 ",
"7X:XB.a.8.8.q.w.8.q.w.q.8.8.q.w.8.q.w.w.w.w.w.w.w.w.w.y.6.X.b 9 ",
"[.:.g z N N N N N Z G V m N A F B Z H J H J U ~ ~ ~ ~ ~ ^ E j 0 "
};
