/* XPM */
static char *_8659_d9d3223c768f8d21d3ed12e70bd41324be7f13f899dece06001aee4dcf6d1f7a[] = {
/* columns rows colors chars-per-pixel */
"32 32 212 2 ",
"   c #402C20",
".  c #452F22",
"X  c #52362A",
"o  c #453833",
"O  c #473A34",
"+  c #473A35",
"@  c #4A3C36",
"#  c #4E3F3B",
"$  c #50423A",
"%  c #55473E",
"&  c #584539",
"*  c #584A41",
"=  c #594A42",
"-  c #5B4D43",
";  c #5C4D44",
":  c #5C4D45",
">  c #5C4E44",
",  c #5E4E45",
"<  c #5F4E49",
"1  c #604F49",
"2  c #605048",
"3  c #62514B",
"4  c #65544C",
"5  c #67564D",
"6  c #6C5C50",
"7  c #6D5D51",
"8  c #6E5D51",
"9  c #6E5D53",
"0  c #6E5E52",
"q  c #725D55",
"w  c #7F6657",
"e  c #776458",
"r  c #786458",
"t  c #786559",
"y  c #7A655A",
"u  c #7A665A",
"i  c #7E6B5F",
"p  c #816E61",
"a  c #816E62",
"s  c #826E62",
"d  c #846E62",
"f  c #856F63",
"g  c #867163",
"h  c #877265",
"j  c #877266",
"k  c #887266",
"l  c #897266",
"z  c #897366",
"x  c #8B7367",
"c  c #8B7467",
"v  c #8D7567",
"b  c #8D7569",
"n  c #8D7668",
"m  c #8E7769",
"M  c #8F776A",
"N  c #8F796C",
"B  c #927867",
"V  c #90776B",
"C  c #91786C",
"Z  c #91796C",
"A  c #92796D",
"S  c #907B6D",
"D  c #937A6E",
"F  c #947B6F",
"G  c #977C6E",
"H  c #937D70",
"J  c #967D71",
"K  c #977E71",
"L  c #977E72",
"P  c #987F72",
"I  c #958072",
"U  c #968073",
"Y  c #978173",
"T  c #998073",
"R  c #988274",
"E  c #9A8275",
"W  c #988376",
"Q  c #998377",
"!  c #9C8377",
"~  c #9A8577",
"^  c #9D8578",
"/  c #9E8678",
"(  c #9E8679",
")  c #9E8779",
"_  c #9F8779",
"`  c #9F877A",
"'  c #A18175",
"]  c #A08375",
"[  c #A08779",
"{  c #A0877A",
"}  c #A0887A",
"|  c #A1897B",
" . c #A58A7A",
".. c #A78B7B",
"X. c #A38A7C",
"o. c #A38A7D",
"O. c #A78C7D",
"+. c #A78D7D",
"@. c #A88D7C",
"#. c #A98D7C",
"$. c #A88D7D",
"%. c #A98E7D",
"&. c #AA8E7D",
"*. c #A98E7E",
"=. c #AB8F7E",
"-. c #AA8F7F",
";. c #AB907F",
":. c #A89081",
">. c #A89181",
",. c #AA9080",
"<. c #AB9180",
"1. c #A89182",
"2. c #AA9082",
"3. c #AA9182",
"4. c #A99282",
"5. c #AB9282",
"6. c #AA9283",
"7. c #AB9383",
"8. c #AC9180",
"9. c #AD9180",
"0. c #AC9181",
"q. c #AC9281",
"w. c #AC9383",
"e. c #AD9483",
"r. c #AE9483",
"t. c #AC9484",
"y. c #AD9484",
"u. c #AD9584",
"i. c #AC9485",
"p. c #AD9585",
"a. c #AE9484",
"s. c #AE9585",
"d. c #AE9685",
"f. c #AD9586",
"g. c #AD9686",
"h. c #AE9686",
"j. c #AF9786",
"k. c #AF9787",
"l. c #AF9888",
"z. c #B09787",
"x. c #B09888",
"c. c #B19888",
"v. c #B09989",
"b. c #B19989",
"n. c #B39889",
"m. c #B29989",
"M. c #B39A89",
"N. c #B19A8A",
"B. c #B29A8A",
"V. c #B39A8A",
"C. c #B39B8B",
"Z. c #B49A8A",
"A. c #B49B8B",
"S. c #B59B8B",
"D. c #B49C8C",
"F. c #B49C8D",
"G. c #B59D8D",
"H. c #B59E8E",
"J. c #B69E8E",
"K. c #B79E8E",
"L. c #B79F8E",
"P. c #B79F8F",
"I. c #B99C8C",
"U. c #B89F8F",
"Y. c #B99F8F",
"T. c #B9A090",
"R. c #BAA090",
"E. c #BAA191",
"W. c #BDA191",
"Q. c #BCA393",
"!. c #BEA292",
"~. c #BFA292",
"^. c #BFA393",
"/. c #C0A494",
"(. c #C1A495",
"). c #C1A595",
"_. c #C2A595",
"`. c #C2A696",
"'. c #C3A696",
"]. c #C6A998",
"[. c #C6A999",
"{. c #C7AB9B",
"}. c #C8AB9B",
"|. c #C9AB9B",
" X c #C9AA9C",
".X c #CAAA9C",
"XX c #CAAA9D",
"oX c #C8AC9C",
"OX c #C9AC9C",
"+X c #C9AD9D",
"@X c #CAAD9D",
"#X c #CEAD9F",
"$X c #CFAD9F",
"%X c #CCAF9E",
"&X c #CDAE9F",
"*X c #CCAF9F",
"=X c #CFADA0",
"-X c #CFAEA0",
";X c #D0AFA1",
":X c #CEB3A1",
">X c #D2B1A3",
",X c #D4B0A4",
"<X c #D5B1A5",
"1X c #D6B2A5",
"2X c #D7B2A6",
"3X c #D7B3A6",
"4X c #D8B3A7",
"5X c #D9BCA9",
"6X c #E1C5B0",
"7X c #E3C6B2",
"8X c #E9CAB5",
"9X c #EACBB6",
/* pixels */
"7X5X%X+X&X,X<X<X<X;X@X@X@X@X@X@X@X@X@X@X@X@X[.'._.[.}.Q.C.h.-...",
"3X>XOXQ.J.P.P.P.P.P.K.K.K.K.K.K.K.K.K.J.E.).'./.U.J.K.J.M.*.m u ",
"*XOX_.S.h.h.h.h.h.h.h.h.h.h.h.h.h.h.h.h.k.k.k.k.k.h.h.k.7.` s 7 ",
"2X=X_.A.g.h.h.h.h.h.h.h.h.h.h.h.h.h.h.h.h.h.h.h.h.h.h.h.a.@.g 6 ",
"2X=X_.A.g.h.h.h.h.h.k.C.C.k.h.h.h.h.h.h.h.h.h.h.h.h.h.h.a.@.g 6 ",
"2X=X_.A.g.h.h.h.h.h.h.h.h.h.k.h.t.p.h.h.h.h.h.h.h.h.h.h.6._ s 7 ",
"2X=X_.A.g.h.h.h.h.h.h.h.h.h.Y.n.N R D.b.h.h.h.h.h.h.h.h.6.) h e ",
"2X=X_.A.g.h.h.h.h.h.h.h.k.p.R l b } D.b.h.h.h.h.h.h.h.h.6.( a 7 ",
"2X=X_.A.g.h.h.h.h.h.h.h.h.h.p.t.t.p.h.k.h.h.B.D.k.h.h.h.6.( p 6 ",
"2X=X_.A.g.h.h.h.h.h.h.h.h.h.h.h.h.h.k.C.C.k.h.h.h.h.h.h.6.( a 7 ",
"2X=X_.A.h.h.h.h.h.h.h.h.h.h.h.h.h.h.h.h.h.h.h.h.h.h.h.j.6.) h e ",
"*X|._.R.C.k.h.h.h.h.h.h.p.4.1.:.:.>.4.p.k.h.h.u.;.0.h.h.6.( s 8 ",
"1X#X`.R.C.k.h.h.h.b.G.A.U 3 # + o O > | ^.z.p.y.=.0.s.0.+.( j e ",
"*X|._.R.C.k.h.h.h.b.K.).o.4 = : ; $ % _ ~.9.%.&.&.0.s.h.6.( a 7 ",
"2X=X_.A.h.h.h.h.h.h.k.L.Q < 2 0 0 - * ` ~.9.#.&.&.&.;.y.6.( p 6 ",
"2X=X_.A.g.h.h.h.h.h.k.K.W 1 q x d , @ E ).z.<.&.&.q.s.j.6.( a 7 ",
"2X=X_.A.g.h.h.h.h.h.k.J.~ 5 y Z f &   G `.x.p.d.d.h.h.j.6.) h e ",
"2X=X_.A.g.h.h.h.h.h.h.c.I 9 i.9X8XB . ' -Xm.p.h.h.h.h.h.6.( s 8 ",
"2X=X_.A.h.h.h.h.h.h.h.b.S ; H oXQ.w X ] {.c.p.h.h.h.h.h.3.( h e ",
"2X=X`.T.C.k.h.h.h.h.k.C.F.l.[ V z Y k.!.W.z.g.h.h.N.D.r. .P i 7 ",
"2X=X`.R.C.k.h.h.h.h.h.h.k.h.<.*.5.p.h.k.k.h.h.h.h.h.h.8.O.^ p 6 ",
"2X$X_.R.C.k.h.h.h.h.h.h.h.h.h.h.h.h.h.h.h.h.h.h.h.h.h.h.6.( p 6 ",
"2X.XU.H.C.k.h.h.h.h.h.h.h.h.h.h.h.h.h.h.h.h.h.h.h.h.h.h.6.( p 6 ",
"2X XJ.x.h.h.h.h.h.h.h.h.h.h.k.s.%.,.h.h.h.h.h.h.h.h.h.h.6.( p 6 ",
"2X XJ.x.h.h.h.h.h.b.D.v.w.;.I.n.z H C.b.h.h.h.h.h.h.h.h.6.( a 7 ",
"2X.XK.x.h.h.h.h.h.h.h.h.h.p.X.T J } h.k.h.h.h.h.h.h.h.h.6.) k r ",
"2X=X(.Z.g.h.h.h.h.h.h.h.h.h.p.p.p.p.k.C.C.k.h.h.h.h.h.h.6.) k r ",
"2X=X(.Z.g.h.h.h.h.h.h.h.h.h.h.h.h.h.h.h.h.h.h.h.h.h.h.h.6.( a 7 ",
"2XXXP.x.h.h.h.h.h.h.h.h.h.h.h.h.h.h.h.h.h.h.h.h.h.h.h.h.6._ s 7 ",
"4X-X/.V.p.h.B.D.k.h.h.h.h.h.h.h.h.h.h.h.h.h.h.h.h.h.h.h.a.$.v r ",
"6X:XD.h.t.t.i.p.t.i.p.i.t.t.i.p.t.i.p.p.p.p.p.p.p.p.p.f.e.$.n r ",
"].2.k c V V V V V D K A M V F J C D L P L P ! ` ` ` ` ` { / z t "
};
