/* XPM */
static char *_2770_7628a8d68c50cecc3dc28ccbf35ab600e0e13672aec273af2311585517907af6[] = {
/* columns rows colors chars-per-pixel */
"64 64 50 1 ",
"  c #181818",
". c #242020",
"X c #2C282C",
"o c #383434",
"O c #413C3C",
"+ c #4D4949",
"@ c #595151",
"# c #61595D",
"$ c #6D6165",
"% c #756D71",
"& c #827579",
"* c #8A7D82",
"= c #968A8E",
"- c #040404",
"; c #0C0C08",
": c #18140C",
"> c #202010",
", c #282818",
"< c #30301C",
"1 c #3C3824",
"2 c #454128",
"3 c #4D4D2C",
"4 c #555534",
"5 c #615D38",
"6 c #696541",
"7 c #716D45",
"8 c #797549",
"9 c #868251",
"0 c #8E8A55",
"q c #969655",
"w c #695104",
"e c #826504",
"r c #967908",
"t c #1C1414",
"y c #201C18",
"u c #28201C",
"i c #302420",
"p c #342C28",
"a c #3C302C",
"s c #413430",
"d c #493C34",
"f c #4D4138",
"g c #341C00",
"h c #452800",
"j c #593000",
"k c #6D3800",
"l c #824100",
"z c #590000",
"x c #AE0000",
"c c red",
/* pixels */
"yyyyyuuuyyuuyyyuuuuuuuuuu...XXoOOOOOOOopuuuuuuuiiiiiiiiiiiiiiiii",
"yiiuipiiuuipuipppppppi..iXghhjkkkkjhhgk++OOsapaaaaaaaaaaaaaaaaai",
"yuippppappaaaaaaaaaii..iXXggghljjlhgggk@@@@++dssdssddddddddddssp",
"yuiaiuiiuiiiiiiiiii...iXXXghhhjjjjhhhgl@@@@##@+oapaaaaaaaaaadssp",
"yuipuuuuippipppi...i..XXXXXXXXXXXXXXXXXoO+@@#@#@+daaaaaaaaapdssp",
"yuipiupiiippppi.iXpoO+++OO121223233433OooXoOO+@@@@sasssaasspdssp",
"yuipiiiippiiii.ipOO++O11125699qqqqq9976553oXXXoO+@@@dassssspdssp",
"yuipuipipipi.ipoO++O<1<59q8655233435679q0754OXXoOO+@@Ossssspdssp",
"yuipuipiipiiXpO+++<<16q7412222333344445579q974o.XoO+@@Osssspdssp",
"yuipuipiii.XpO++O<<606<112122323343434454558q96OXXoO+@@Ossspdssp",
"yuipuuiiiiXoO+O,,306<<111122223333444455555569q75OXoOO+@Osspdssp",
"yuipiuii.XoO+O>,591<<1<112122323343445455656677095OXooO@@dapdssp",
"yuipuui.ipO+O><86<<<<<11112222333344445555666677906O.XoO@@dpdssp",
"tuipuu.ipO+O><84,<<<<1211212232334344545455656676806OXoO+@Opdssp",
"tuipu.ipO+O><83,,,<<<28211222233334444555566666677806O.oO+@odssp",
"yyuiu.po++:>83>,,<,<<121121223233434454556566767677906.XoO@@fssp",
"yyui..XO+o>56>,,,,<<<<11112222333344445555666677777709.XoO@@fssp",
"yuui.XO+O>28,,,<,<,<<1<11212232334343445455656676778703.XoO+@dsp",
"yui.io++>,0<>>,,,,<<<<111122223333434444555566667777620;.XoO@Osp",
"yuiipO+O:55>>,>,,<,<<1<11212232334343445455656676762,;44.XoO+@dp",
"tu.Xo++:,0,>>>,,,,<<<<11112233444444444455556666641;--;0:.Xo+@Op",
"ty.pO+O:55:>>,>,,<,<<1<1<134333323344445455656541<;;-;-35.XoO@@a",
"yyio+@:>q>>>>>,,,,<<<<1113312222333344445555555<:;;;;--;q;.Xo+@a",
"ty.o+@;35>:>>,>,,<,<<1<242121223233434444545651:;:;;-;-;52.Xo+@a",
"yyioO+:81:>>>>,,,,<<<<14211122223333334444543<::;;;;;-;-<8.XoO@a",
"yypo@o:q:>:>>>>,>,,<,<32<1121223233434344541>:;:;:;;-;-;-qX.oO++",
".ioO@;17::>>>>,>,,,,<23<1111222232333344543<:::::;;;;;;--7<.XoO@",
".Xo+@:34:>:>:>>,>,,<,4<1<1121212232334341<>4::::;:;;;;-;-33.Xo+@",
"..oO@;71::>>>>>>,,,,13<<<<11112222333432,>>2<::::;:;;;;--<7.XoO@",
".ioO@;8<;::>:>>,>,,<21<1<1<112122223421,:>:<1:::;:;:;;-;-<8.XoO@",
".XoO@;q;::::>>>>,,,,31<<<<11112122342<>>>>>>3::::;;;;;;-;-q.Xo+@",
".XoO@;q:;::>:>>,>,>,4<,<<1<112121332<,>,>>:>4>::;:;:;;-;-;q.XoO@",
".oO+#;q;::::::>>>>,,4,<<<<11111121<,,>,>>>>>4::::;:;;;;;--q.oO+#",
". .XO;q:;::>:>>,>,>,4<,<,<<1<11<,<,,>,>,>>:>4>::;:;:;;;;-;q  .XO",
"..Xo+;q;::::::>>>>,,3<,,<<<<1<<<<,,,,,,>>>>>3::::::;;;;-;-q..Xo+",
".XoO@;8<;:;::>:>>,>,21,<,<<1,<,<,<,,>,>,>>:<1>::;:;:;;-;-<8.XoO@",
".XoO@-7<;;::::>>>>,>13,,<,<,<,<,,,,,,>,>>>>2<::::;:;;;;;-<7.XoO@",
".XoO@;33;:;:;::>:>>,>4<<,,,<,<,<,,,,>,>,>>>4:>::;:;:;;-;-33.XoO@",
"..pO@O<7;;:;::::>>>>,12,,,,,,,,,,,,,,>>>>>2<>::::;;;;;;-;7dXoO+@",
"tyXoO+;q;:;:;::>:>>>>,31>,,,,<,,,,>,>,>>><3>:>::;:;:;;-;-qXXoO@d",
"ty.p+@;8<;;;::::::>>>><3<,,,,,,,,,,,>>>>,3>::::::;:;;;;-<8.XoO@a",
"tyio+@-25;;:;::>:>:>>>><31>,>,,,>,>,>>><3,:>::::;:;:-;-;52.XoO@a",
"ty.oO+O;q:;;;;::::>>>>>><32>,,,>,>>>>>23>::::::::;;;;;;;qXXXo+@p",
"ty.Xo+@;53-;;:;::>:>:>>,>,1421<,>,<<24<>:>:>::;:;:;;-;-35.XoO@fi",
"ty.XoO+O:0:;;;::::>>>>>>>>>><2344432<>>>>::::::;;;;;;-:0pXooO@di",
"ty..Xo+@-54;-::::>:>:>>>:>>,>>>,>>>>:>:>:>::;:;:;;;;-;45.XoO+fai",
"tyu.XoO++;0>::::::::>:>>>>>>>>>>>>>>>:>::::::::;;;;;;>0X.ooO@dai",
"tyuu.ioO+O<8::;::::>:>:>:>:>:>:>:>:>:>:>::;:;:;:;;-;;8dXoOO@faai",
"tyuu.ioO+@;55;::::::::>:>:>>>:>>>:>::::::::::;:;;;;;54.XXo+@Oaai",
"tyuuu.ioO+@;82;:;::::::>:>:>:>:>:>:>::::;:;:;:;:-;-18..oo+@Ooaai",
"tyuuu..XoO@@:81;:::::::::::::::::::::::::::;;;;;;;18XXooO@faaaai",
"tyuuuu..pO+@+:82;:;:;::::::::>::::::::;:;:;:;;;;-18XXooO+@dpaaai",
"tyuuuu..XoO++@:85::;:;:::::::::::::::;:;;;;;;;;:58XXXoO@@fapaaai",
"tyuuuuuu.XoO+++;58,:;:;:;:;:;:;:;:;:;:;:;;;;-;>84.XoOO@@faapaaai",
"tyuuuuuu..iXOO++O<05:;;;:;:;:::;:;:;:;;;;;;;:50dXooOO+@OaXXX.Xai",
"tyuuuzzzu...XOO+@+:504::;:;:r:;r;:;:r:;;;;;305X.XOOO@@fapO+++Oai",
"tyuuuxcxuu...XoO++@O>5q5<;;;rerwre;re;r;<5q5p.XoOO+@@Oaap$*%$#ai",
"tyuuuzxzuuuu.XXXOO++@O:28q74<<;:;;;<<37q82X..oOOO+@@Oapaaaapaaai",
"tyuuuuuuuuuuuu..XpoOOO@+OO<378qqqqq873dX.XooOO++@@Ooaaapapapaaai",
"tyuuuXX.uuuuuu....XXXXXXXooooooOOOO++++@@@@@@@@##OppapaaaXXX.Xai",
"tyuuu+++uuuuuuu........XXXooooXX.XXXoO++@#@@@@#OopippippiO+++Oai",
"tyuii*%$uuuuiiipiip...iXXXXooo+@@##$$O+@@####+Oaaaaaaaaaa$*%$#ai",
"tyuuuuuuuuuuiuiuuiuuu.....Xooo@%&=*%%+@@@##Ooapaaappaaaapaaaaaai",
"ttttttttttttytytyyytyyyyyy.iXXooOO++@@@oiXpiuuuuiuuuuuuiuuuuiuuu"
};
