/* XPM */
static char *_8058_1984110c6fc4d22977005cf7405f289172df7ebfc25f94aa88c5abb7ad99518b[] = {
/* columns rows colors chars-per-pixel */
"64 64 50 1 ",
"  c #181818",
". c #242020",
"X c #2C282C",
"o c #383434",
"O c #413C3C",
"+ c #4D4949",
"@ c #595151",
"# c #61595D",
"$ c #6D6165",
"% c #756D71",
"& c #827579",
"* c #8A7D82",
"= c #968A8E",
"- c #040404",
"; c #0C0C08",
": c #18140C",
"> c #202010",
", c #282818",
"< c #30301C",
"1 c #3C3824",
"2 c #454128",
"3 c #4D4D2C",
"4 c #555534",
"5 c #615D38",
"6 c #696541",
"7 c #716D45",
"8 c #797549",
"9 c #868251",
"0 c #8E8A55",
"q c #969655",
"w c #695104",
"e c #826504",
"r c #967908",
"t c #1C1414",
"y c #201C18",
"u c #28201C",
"i c #302420",
"p c #342C28",
"a c #3C302C",
"s c #413430",
"d c #493C34",
"f c #4D4138",
"g c #341C00",
"h c #452800",
"j c #593000",
"k c #6D3800",
"l c #824100",
"z c #590000",
"x c #AE0000",
"c c red",
/* pixels */
"yyyyyuuuyyuuyyyuuuuuuuuuu...XXoOOOOOOOopuuuuuuuiiiiiiiiiiiiiiiii",
"yiiuipiiuuipuipppppppi..iXghhjkkkkjhhgk++OOsapaaaaaaaaaaaaaaaaai",
"yuippppappaaaaaaaaaii..iXXggghljjlhgggk@@@@++dssdssddddddddddssp",
"yuiaiuiiuiiiiiiiiii...iXXXghhhjjjjhhhgl@@@@##@+oapaaaaaaaaaadssp",
"yuipuuuuippipppi...i..XXXXXXXXXXXXXXXXXoO+@@#@#@+daaaaaaaaapdssp",
"yuipiupiiippppi.iXpoO++OoX-;-;-;-;-;-;...XoOO+@@@@sasssaasspdssp",
"yuipiiiippiiii.ipOO@+o--;;<388qqqqq884<:;;..XXoO+@@@dassssspdssp",
"yuipuipipipi.ipoO++O-;;28q84<,-;-;;,<38q82:-..XoOO+@@Ossssspdssp",
"yuipuipiipiiXpO++O--:5q5<;;;;;;;;;-;-;-;<5q5:;..XoO+@@Osssspdssp",
"yuipuipiii.XpO+OX;;504;;-;;;;;;:;;;;;;;;;;:405:..XoO+@@Ossspdssp",
"yuipuuiiiiXoO+O-;<04:;;;;;;;;;;;;:;:;:;:;;;::50<-.XoOO+@Osspdssp",
"yuipiuii.Xo+@O-;48>;;;;;;:;:;:;:;;:;:;:;:;:;;;,85;.XooO@@dapdssp",
"yuipuui.ip++O-:85;;;;;;;;;:::;::::;:;:;:;:;:;:;>58:..XoO@@dpdssp",
"tuipuu.ipO+o-:81-;;:;:,:;:;:;:::;::::::::::::;:::18:.XoO+@Opdssp",
"tuipu.ipO+O-:81;;;;;;,3<:::::::::>:>:>:>:::>::::;:18:..oO+@odssp",
"yyuiu.po++-;81-;;:;:;>,>;::::>:>::>:>:>:>::::::::::28;.XoO@@fssp",
"yyui..XO+o-45-;;;;:;:;::::::::>::>:>:>:>:>:>:>:>:>::65.XoO@@fssp",
"yuui.XO+O;<8;;;:;:;:;::>:>:>:>:>:>>>>>>>>>>>>:>:::>:>81.XoO+@dsp",
"yui.io++-;0>;;;;:;::::::::>:>>>>>>>,>>>,>>>>:>>>:>:>:<0,.XoO@Osp",
"yuiipO+o-54;;;;:;:;::>:>:>:>:>:>,>,>,>>>>>>>>>>>>>>>>:55.XoO+@dp",
"tu.Xo++-:0:;;;;;:;::::>:>:>><2344432<,>,>,>,>,>,>>>>:>>0,.Xo+@Op",
"ty.pO+o;54-;;;;:;::>:>:>:>142<<,>,<1341,,,,,,>,>>>>>>>>56.XoO@@a",
"yyio+@-;q:;;;;:;::::>:>>>32>>>>>,>,<,<23<,,,>,>,>,>,>>>,q,.Xo+@a",
"ty.o+@-25;-;;:;:;::>:>:,31>,>,>,,,,,<,,13<,,,,,,,,,>,>>>64.Xo+@a",
"yyioO+-8<;;;;;::::::>:>3,>,>,>,,,<,<,<,<<3<<,<,,,,>,>,>,29.XoO@a",
"yypo@O;q-;;:;:;::::>:>31>,>,>,,,,<<<<<<<<13<<,<,,,,,,,,>>qX.oO++",
".ioO@-<8;;;;;;::::::>12>,>,,,,,,<<<1<<<<,<32,<,<,<,<,,,,>82.XoO@",
".Xo+@;34-;;:;:;::>:>:4>,>,>,,,,<<<<<<<<<<<<4<<<<<,<,,,,,,55.Xo+@",
"..oO@-8<;;;;;;::::>><2>>,>,,,,<<<1<1<1<1<1<311<<<<,<,<,,,38.XoO@",
".ioO@;8,-;;:;::::>:>1<>,>,,,,<,<<11111111<112<<<<<<<<,<,,29.XoO@",
".XoO@-q-;;;;::::::>>3<>>,>,,,,<<<1111111<1<231<1<1<<,<,<,<q.Xo+@",
".XoO@;q;-;;:;:;::>:>4>>,>,,,,<,<<11111111111411<1<<<<<<<<,q.XoO@",
".oO+#-q;;;;;;---::>>4>>>,,,,,,<<4212121212114111<1<1<1<<,<q.oO+#",
". .XO-q;-;;:;::::>:>4>>,>,,,,<,<522221222121411111111<<<<<q. .XO",
"..Xo+-q-;;;;:;::::>:3<>>,,,,,,,,62221222121332121111<1<1<<q..Xo+",
".XoO@;8,-;;:;:;::>:>1<>,>,>,,,,<62222222222332212111111<<39.XoO@",
".XoO@-8<;;;;;;::::>><2>>>>,,,,,,7323232323233212121211<1<48.XoO@",
".XoO@-34-;;:;:;::::>:4>,>,>,>,,,723332333234222221211111166.XoO@",
"..pO@O<8;;;;;;::::::>12>>>>>,,,,733323332334232322121212<94XoO+@",
"tyXoO+;q-;-;;:;:;::>:>3<>,>,>,>,7333333333433232222221111qaXoO@d",
"ty.p+@-8<-;;;;::::::::>3,>>>>>,>74343434343323232322121249pXoO@a",
"tyio+@-25;-;;;;:;::>:>:,3<>>>>>,83444343433333333232222286pXoO@a",
"ty.oO+O;q;;;;;;;::::::::>32>>>>>844434443434333323232222qaXXo+@p",
"ty.Xo+@-54-;;;;:;:;::>:>:><42<>>8444444444434333333232268pXoO@fi",
"ty.XoO+O:0:;;;;;;;::::::::>><134444445444434343433232320sXooO@di",
"ty..Xo+@-54;-;;:;:;:;::>:>:>:>:>945454544444434333333287aXoO+fai",
"tyu.XoO++;0>;;;;;;;;::::::::::::95454545454544443433250aaooO@dai",
"tyuu.ioO+O<8;;-;;:;:;:;:;::::>:>95555555555444444333494XoOO@faai",
"tyuu.ioO+@-45-;;;;;;;;::::::::::9656565555454544443487aXoo+@Oaai",
"tyuuu.ioO+@;81-;-;;:;:;:;:;:;:::956555655555545444469paoo+@Ooaai",
"tyuuu..XoO@@;81-;;;;;;;;:;:;:;::06565656565545454479sXooO@faaaai",
"tyuuuu..pO+@+:81-;-;;;;;;:;:;:;:0666666565555554579sXooO+@dpaaai",
"tyuuuu..XoO++@;85;;;;;;;;;;;;;;;076766665656554590fXXoO@@fapaaai",
"tyuuuuuu.XoO+++;48>;-;-;-;;;;;;:06766666666555608sXoOO@@faapaaai",
"tyuuuuuu..iXOO++O<04:-;-;;;;;;;;q7676767666659q5OooOO+@OaXXX.Xai",
"tyuuuzzzu...XOO+@+;504;;-;-;r;-rq777r7767669q8faoOOO@@fapO+++Oai",
"tyuuuxcxuu...XoO++@O:5q5<-;-rerwre7re7r789q95dooOO+@@Oaap$*%$#ai",
"tyuuuzxzuuuu.XXXOO++@O;28q84<,-;q788990q095dooOOO+@@Oapaaaapaaai",
"tyuuuuuuuuuuuu..XpoOOO@+OO<388qqqqq0097554ooOO++@@Ooaaapapapaaai",
"tyuuuXX.uuuuuu....XXXXXXXooooooOOOO++++@@@@@@@@##OppapaaaXXX.Xai",
"tyuuu+++uuuuuuu........XXXooooXX.XXXoO++@#@@@@#OopippippiO+++Oai",
"tyuii*%$uuuuiiipiip...iXXXXooo+@@##$$O+@@####+Oaaaaaaaaaa$*%$#ai",
"tyuuuuuuuuuuiuiuuiuuu.....Xooo@%&=*%%+@@@##Ooapaaappaaaapaaaaaai",
"ttttttttttttytytyyytyyyyyy.iXXooOO++@@@oiXpiuuuuiuuuuuuiuuuuiuuu"
};
