/* XPM */
static char *_3008_bb0e706d891e1c25915f811bf4c017009bf135b46c7b06a24f81e093e0c07f5e[] = {
/* columns rows colors chars-per-pixel */
"64 64 50 1 ",
"  c #181818",
". c #242020",
"X c #2C282C",
"o c #383434",
"O c #413C3C",
"+ c #4D4949",
"@ c #595151",
"# c #61595D",
"$ c #6D6165",
"% c #756D71",
"& c #827579",
"* c #8A7D82",
"= c #968A8E",
"- c #040404",
"; c #0C0C08",
": c #18140C",
"> c #202010",
", c #282818",
"< c #30301C",
"1 c #3C3824",
"2 c #454128",
"3 c #4D4D2C",
"4 c #555534",
"5 c #615D38",
"6 c #696541",
"7 c #716D45",
"8 c #797549",
"9 c #868251",
"0 c #8E8A55",
"q c #969655",
"w c #340804",
"e c #450C04",
"r c #711808",
"t c #695104",
"y c #826504",
"u c #967908",
"i c #1C1414",
"p c #201C18",
"a c #28201C",
"s c #302420",
"d c #342C28",
"f c #3C302C",
"g c #413430",
"h c #493C34",
"j c #4D4138",
"k c #341C00",
"l c #452800",
"z c #593000",
"x c #6D3800",
"c c #824100",
/* pixels */
"pppppaaappaapppaaaaaaaaaa...XXoOOOOOOOodaaaaaaasssssssssssssssss",
"pssasdssaasdasddddddds..sXkllzxxxxzllkx++OOgfdfffffffffffffffffs",
"pasddddfddfffffffffss..sXXkkklczzclkkkx@@@@++hgghgghhhhhhhhhhggd",
"pasfsassassssssssss...sXXXklllzzzzlllkc@@@@##@+ofdffffffffffhggd",
"pasdaaaasddsddds...s..XXXXXXXXXXXXXXXXXoO+@@#@#@+hfffffffffdhggd",
"pasdsadsssdddds.sXdoO++OoX;::::>:>>>>,...XoOO+@@@@gfgggffggdhggd",
"pasdssssddssss.sdOO@+o;;:>1478qqqqq8753<,,..XXoO+@@@hfgggggdhggd",
"pasdasdsdsds.sdoO++O;::38q7511:>>,>2257q85<<..XoOO+@@Ogggggdhggd",
"pasdasdssdssXdO++O;;>5q51:::>:>>>>,,,,,,36q61<..XoO+@@Oggggdhggd",
"pasdasdsss.XdO+OX;:504:::>:>:>>,>,>,>,,<,<<506<..XoO+@@Ogggdhggd",
"pasdaassssXoO+O-;<05>:::::>>>>>>,,,,,,,,<<<<<6031dXoOO+@Oggdhggd",
"pasdsass.Xo+@O-;58,:;::>:>:>>,>,>,,,,<,<<<<1<12961dXooO@@hfdhggd",
"pasdaas.sd++O-:85:::::::>:>>>>,,,,,,<,<<<<<<1<1279fd.XoO@@hdhggd",
"iasdaa.sdO+o-:81;:;:;><>:>>,>,>,,,,<,<<1<1<1<111159fdXoO+@Odhggd",
"iasda.sdO+O-:81;;;:::<4<>>>>,,,,,,<<<<<<1<11111111592d.oO+@ohggd",
"ppasa.do++-;81;:;:;::>,>>,>,>,,<,<,<<1<1<1<11212121592dXoO@@jggd",
"ppas..XO+o;55;;;::::::>>>>,,,,,,<<<<<<1111111122222277dXoO@@jggd",
"paas.XO+O;<8;;;:;::>:>>,>,>,,,,<,<<1<1<1111212122223295dXoO+@hgd",
"pas.so++-;0,;;:;::::>>>>,,,,,,<<<<<<1111112122222222340h.XoO@Ogd",
"passdO+o;54;;:;::>:>:>>,>,>,,<,<<1<1<1121212222323232377dXoO+@hd",
"ia.Xo++;>0>;;;::::>>>>>>,,,,12344433211121222232323333303.Xo+@Od",
"ip.dO+o;54;:;:;::>:>>>>,>,143111<112343212232323233434378fXoO@@f",
"ppso+@;:q::;::::::>>>>,,<32<<<<<111111342222333333334343q2.Xo+@f",
"ip.o+@-25:;::::>:>:>>,><31,<,<<1<1121213432323333434343487.Xo+@f",
"ppsoO+;8<;::::::>>>>>><3<,<<<<1111111122243333333344444460fXoO@f",
"ppdo@O:q;:;:;::>:>>,>,31,<,<<1<1<112122323433334344444454q2.oO++",
".soO@;<7:;::::::>>>>>12,<,<<<<11111122223344334444444454595fXoO@",
".Xo+@;34;:;::>:>:>>,>4>,,<,<<1<1121222232334343445454545588fXo+@",
"..oO@;7<;;::::>>>>>><2,,,,<<<<11112222333334434444555555579fXoO@",
".soO@;8<;:;::>:>:>>,21>,,<,<,112121223232334444545454556570gXoO@",
".XoO@;q;:;::::>:>>>>3<,,,,<<<<<122222233334444445555555565q2Xo+@",
".XoO@;q:;:;::>:>:>>,4,>,,<,<,<,<12232323343445454556565656q2XoO@",
".oO+#;q;;;::::>>>>>>4>,,,,<,<,<<44223233334444555555556666q2oO+#",
". .XO;q:;:;::::>:>>,4,>,,,,<,<,<<1442334344445455556566767qh .XO",
"..Xo+;q;:;::::::>>>>3<,,,,,,,,,,,,<14433444444555565666676qj.Xo+",
".XoO@;8<;:;::>:>:>:>21>,>,,,,<,,,,>,<1443445455556566767680hXoO@",
".XoO@;7<;;::::::>:>><2,,,,,,,,,,,,,,>><<4444555555666677780.XoO@",
".XoO@;33;:;:;::>:>:>>4>,>,>,>,>,>,>,>>>>,<44455656676767798.XoO@",
"..dO@O<7;;:;::::>:>>>12>,>,>,,,>,>>>>>>>>:22455566667777705XoO+@",
"ipXoO+;q;:;:;::::>:>:>3<>,>,>,>,>,>>>>:>:<3:,<44666767787qhXoO@h",
"ip.d+@;8<;:;::::::>>>>>3,>>>>>,>>>>>>>>>,3>:::,,<466777790.XoO@f",
"ipso+@-25;;:;::::>:>:>>,3<>,>>>,>>>>:>:<3,::;:;:;><4677897.XoO@f",
"ip.oO+O:q:;;:;::::::>:>>>32>>>>>>>>>>>23>::::;:;;;;><467qjXXo+@d",
"ip.Xo+@;53;:;:;::::>:>:>:><42<>>:>><24<>::;:;:;:;;-;-><79.XoO@js",
"ip.XoO+O>0:;;;::::::::>:::>><1344431<::::::::;;;;;;;--;0dXooO@hs",
"ip..Xo+@-55;;:;:;::::::>:>:>:>:>:>:>::::;:;:;:;;-;-;--44.XoO+jfs",
"ipa.XoO++:0,;;;;:;:::::::::::::::::::::::;:;;;;;;;;-->0X.ooO@hfs",
"ipaa.soO+O<8:;;:;:;:;:;:::::::::::::::;:;:;:;;-;-;-;;8hXoOO@jffs",
"ipaa.soO+@;55;;;;;:;:;:::::::::::::::;:;;;;;;;;;;---54.XXo+@Offs",
"ipaaa.soO+@;81;;;;;:;:;:;:;:;:;:;:;:;:;:;;;;-;-;-;-18..oo+@Ooffs",
"ipaaa..XoO@@:81;;;;;;;;;:;:;:;:;:;:;;;;;;;;;;-;---18XXooO@jffffs",
"ipaaaa..dO+@+:81-;;;;:;:;:;:;:;:;:;:;:;;;;-;-;-;-18XXooO+@hdfffs",
"ipaaaa..XoO++@:85;;;;;;;;;;;;;;;;;;;;;;;;-;;---;58XXXoO@@jfdfffs",
"ipaaaaaa.XoO+++;48>;-;;;-;;:;;;;;;;;-;-;-;-;-->83.XoOO@@jffdfffs",
"ipaaaaaa..sXOO++O<04:;;;;;;;;;;;;;;;;;;-;---;40hXooOO+@OfXXX.Xfs",
"ipaaawewa...XOO+@+;503;;-;-;u;-u-;-;u;-;-;;304X.XOOO@@jfdO+++Ofs",
"ipaaaereaa...XoO++@O:5q5<-;-uyutuy;uy-u-<5q5d.XoOO+@@Offd$*%$#fs",
"ipaaawewaaaa.XXXOO++@O;28q73<<-;-;-<<37q82X..oOOO+@@Ofdffffdfffs",
"ipaaaaaaaaaaaa..XdoOOO@+OO<378qqqqq873hX.XooOO++@@Oofffdfdfdfffs",
"ipaaaXX.aaaaaa....XXXXXXXooooooOOOO++++@@@@@@@@##OddfdfffXXX.Xfs",
"ipaaa+++aaaaaaa........XXXooooXX.XXXoO++@#@@@@#OodsddsddsO+++Ofs",
"ipass*%$aaaasssdssd...sXXXXooo+@@##$$O+@@####+Offffffffff$*%$#fs",
"ipaaaaaaaaaasasaasaaa.....Xooo@%&=*%%+@@@##Oofdfffddffffdffffffs",
"iiiiiiiiiiiipipipppipppppp.sXXooOO++@@@osXdsaaaasaaaaaasaaaasaaa"
};
