/* XPM */
static char *_0281_48be7f44022b988a56a5bd0bd1c97a4a8d2e57c90789db3b3dd968699e816929[] = {
/* columns rows colors chars-per-pixel */
"64 64 51 1 ",
"  c #181818",
". c #242020",
"X c #2C282C",
"o c #383434",
"O c #413C3C",
"+ c #4D4949",
"@ c #595151",
"# c #61595D",
"$ c #6D6165",
"% c #756D71",
"& c #827579",
"* c #8A7D82",
"= c #968A8E",
"- c black",
"; c #040404",
": c #0C0C08",
"> c #18140C",
", c #202010",
"< c #282818",
"1 c #30301C",
"2 c #3C3824",
"3 c #454128",
"4 c #4D4D2C",
"5 c #555534",
"6 c #615D38",
"7 c #696541",
"8 c #716D45",
"9 c #797549",
"0 c #868251",
"q c #8E8A55",
"w c #969655",
"e c #695104",
"r c #826504",
"t c #967908",
"y c #1C1414",
"u c #201C18",
"i c #28201C",
"p c #302420",
"a c #342C28",
"s c #3C302C",
"d c #413430",
"f c #493C34",
"g c #4D4138",
"h c #341C00",
"j c #452800",
"k c #593000",
"l c #6D3800",
"z c #824100",
"x c #590000",
"c c #AE0000",
"v c red",
/* pixels */
"uuuuuiiiuuiiuuuiiiiiiiiii...XXoOOOOOOOoaiiiiiiippppppppppppppppp",
"uppipappiipaipaaaaaaap..pXhjjkllllkjjhl++OOdsasssssssssssssssssp",
"uipaaaasaassssssssspp..pXXhhhjzkkzjhhhl@@@@++fddfddffffffffffdda",
"uipspippipppppppppp...pXXXhjjjkkkkjjjhz@@@@##@+osassssssssssfdda",
"uipaiiiipaapaaap...p..XXXXXXXXXXXXXXXXXoO+@@#@#@+fsssssssssafdda",
"uipapiapppaaaap.pXaoO++OoX;:;;;:;:;:;:...XoOO+@@@@dsdddssddafdda",
"uipappppaapppp.paOO@+o;;;:1499wwwww9941::;..XXoO+@@@fsdddddafdda",
"uipaipapapap.paoO++O;;:39w951<;:;:;<159w93::..XoOO+@@Odddddafdda",
"uipaipappappXaO++O;;>6w61;:::;::::::::::16w6,;..XoO+@@Oddddafdda",
"uipaipappp.XaO+OX;:6q5::;:;:;:::::::;:::;::5q6:..XoO+@@Odddafdda",
"uipaiippppXoO+O;;1q5>;::::::::::::::::::::::>6q1:.XoOO+@Oddafdda",
"uipapipp.Xo+@O;;59,:;:;::::::>:>:>:>:>:>:>::::,95:.XooO@@fsafdda",
"uipaiip.pa++O;:96:::::::::::::>:::>:>:>:::>::::>69>..XoO@@fafdda",
"yipaii.paO+o-:92;:;:;;>;:>:>:>:>:>:>:>:>:>:>:>:>:29>.XoO+@Oafdda",
"yipai.paO+O;:92;:::::>2,::>:>>>>>>>>>>>>>>>:>:::::29>..oO+@ofdda",
"uuipi.ao++-;92;:;:;:::>::>:>:>:>>>>>>>>>>>:>:>:>:>:29:.XoO@@gdda",
"uuip..XO+o;56;::::::::>>>:>>>>>>>>>>>>>>>>>>>:>>::::66.XoO@@gdda",
"uiip.XO+O;19::;:;::>:>:>:>>>>>>,>,>,>,>,>>>>:>:>:>:>>91.XoO+@fda",
"uip.po+@;:q,:;::::::>:>>>>>>>>>>,>,>,>,>,>>>>>>>>:>::<q>.XoO@Oda",
"uippaO+@<65:;:;::>:>:>:>>,>,>,>,>,>,>,>,>,>,>>>>:>:>:>66.XoO+@fa",
"yi.Xo+@98w1,::::::>>>>>>>>,>124555431,,,,>,>>>>>>>>>::>q,.Xo+@Oa",
"yu.aO+@900751,:>:>:>:>>,>,15311,>,11352,>,>,>,>,>>>>:>:56.XoO@@s",
"uupo+@98w888751,::>>>>>>,43,,,,,,,,,,,34,,,,,>>>>>>>>::>w>.Xo+@s",
"yu.o+@80098878751,:>>,><41>,,,,<,<,<,<,24<,,>,>,>,>>:>:>63.Xo+@s",
"uupoO@9q08887777751<>>,4<,,,,,<,,,<,,,<,<4,,,>,>>>>>>:>:19.XoO@s",
"uuao@@8w8878777767751<41>,,<,<,<,<,<,<,<,24<>,>,>,>>:>:>:wX.oO++",
".poO@80q888777767666654<,,,,,,<<<<<<<<<<<,32,,,,,>>>>>>::91.XoO@",
".Xo+@800787777676656556511,<,<,<<<<<<<,<,<,5,,,,>,>>>>:>:55.Xo+@",
"..oO@7q977777676666655555521<,<<<<<<<<<<<,<31,,,,>,>>>>>:19.XoO@",
".poO@8q97777676756565555445511<1<1<1<1<1,<,23,,,>,>,>>:>:19.XoO@",
".XoO@7w7777676666665555444445421<<1<1<<<<<<14,,,,>,>>>>:>:w.Xo+@",
".XoO@7w767676766565555454434344421<1<1<1<<,<5<,,>,>,>>:>:>w.XoO@",
".oO+#6w77666666665555454444333343<111<1<<<<<5,,,,>,>>>>>>:w.oO+#",
". .XO7w76666565655555545343433232111<1<1<<<<5<,,>,>,>>>>:>w. .XO",
"..Xo+6w66666656555545444433333322221111<<<<14,,,,,,>>>>>>:w..Xo+",
".XoO@6q7565656555545554434332323221211<1<<,23<,,>,>,>>:>:19.XoO@",
".XoO@6086565555554544544333332322221111<<<<41,,,,>,>>>>>:19.XoO@",
".XoO@699565655554545453433332322121211<1<<,5,,,,>,>,>>:>:55.XoO@",
"..aO@@705555555454444553333232222111111<<<32,,,,,>>>>>>:>9fXoO+@",
"yuXoO@6w5545454544443454332323221211<1<<<24<,,>,>,>>>>:>:wXXoO@f",
"yu.a+@5q74544444444433353232222211111<<<141,,,,,,>>>>>>:19.XoO@s",
"yupo+@499545444434343333542312121111<1<241,<>,>,>,>>:>:>63.XoO@s",
"yu.oO++5w54444444333333234422221111<<1341,,,,>>>>>>>>>>>wXXXo+@a",
"yu.Xo+@49934343434332323234543221112452<,<,,>,>>>>:>:>:56.XoO@gp",
"yu.XoO++5q544343333332322222334555432<<,,,,,,>>>>:>::;>qaXooO@fp",
"yu..Xo+@398433332323232312121111<1<1,<,<,,,,>>>>:>::;:56.XoO+gsp",
"yui.XoO+@3q53333333222222121111<1<<<<<,,,,,>>>>>>::::,qX.ooO@fsp",
"yuii.poO++60332323232212121111<1<1<<,<,,,,>,>>:>:>:::9fXoOO@gssp",
"yuii.poO+@3892322222212111111<1<<<<<,,,,,>,>>>>:::::65.XXo+@Ossp",
"yuiii.poO++30623222212121111<1<1<<,<,,,,>,>>:>:>::;29..oo+@Oossp",
"yuiii..XoO@+306222212111111<1<<<<<<,,,,>,>>>>:::::29XXooO@gssssp",
"yuiiii..aO+@+30612121211<1<1<<<<,<,,,,>,>,>>:>:::29XXooO+@fasssp",
"yuiiii..XoO++@30711111111<1<<<<<,,,,,>,>>>>>:::>69XXXoO@@gsasssp",
"yuiiiiii.XoO+++27031<1<1<1<<,<,<,,,,>,>,:>:>::<95.XoOO@@gssasssp",
"yuiiiiii..pXOO++O4q71<<<<<<<<,,,,,,>,>>>>>>:>6qfXooOO+@OsXXX.Xsp",
"yuiiixxxi...XOO+@+<7q7<<<<,<t<,t,,>,t,>>:>>5q6X.XOOO@@gsaO+++Osp",
"yuiiicvcii...XoO++@O17w74,<,trtetr,tr>t>26w6a.XoOO+@@Ossa$*%$#sp",
"yuiiixcxiiii.XXXOO++@O159w9632,,>,>2159w93X..oOOO+@@Osassssasssp",
"yuiiiiiiiiiiii..XaoOO+@+OO3699wwwww995fX.XooOO++@@Oosssasasasssp",
"yuiiiXX.iiiiii....XXXXXXXooooooOOOO++++@@@@@@@@##OaasasssXXX.Xsp",
"yuiii+++iiiiiii........XXXooooXX.XXXoO++@#@@@@#OoapaapaapO+++Osp",
"yuipp*%$iiiipppappa...pXXXXooo+@@##$$O+@@####+Ossssssssss$*%$#sp",
"yuiiiiiiiiiipipiipiii.....Xooo@%&=*%%+@@@##Oosasssaassssassssssp",
"yyyyyyyyyyyyuyuyuuuyuuuuuu.pXXooOO++@@@opXapiiiipiiiiiipiiiipiii"
};
