/* XPM */
static char *_7889_8bd5e032e5ca131a9e13f54f1ae751d2ae54495a3206009e05e67541352dea91[] = {
/* columns rows colors chars-per-pixel */
"64 64 52 1 ",
"  c #181818",
". c #242020",
"X c #2C282C",
"o c #383434",
"O c #413C3C",
"+ c #4D4949",
"@ c #595151",
"# c #61595D",
"$ c #6D6165",
"% c #756D71",
"& c #827579",
"* c #8A7D82",
"= c #968A8E",
"- c black",
"; c #040404",
": c #0C0C08",
"> c #18140C",
", c #202010",
"< c #282818",
"1 c #30301C",
"2 c #3C3824",
"3 c #454128",
"4 c #4D4D2C",
"5 c #555534",
"6 c #615D38",
"7 c #696541",
"8 c #716D45",
"9 c #797549",
"0 c #868251",
"q c #8E8A55",
"w c #969655",
"e c #B2E771",
"r c #695104",
"t c #826504",
"y c #967908",
"u c #1C1414",
"i c #201C18",
"p c #28201C",
"a c #302420",
"s c #342C28",
"d c #3C302C",
"f c #413430",
"g c #493C34",
"h c #4D4138",
"j c #341C00",
"k c #452800",
"l c #593000",
"z c #6D3800",
"x c #824100",
"c c #590000",
"v c #AE0000",
"b c red",
/* pixels */
"iiiiipppiippiiipppppppppp...XXoOOOOOOOospppppppaaaaaaaaaaaaaaaaa",
"iaapasaappaspasssssssa..aXjkklzzzzlkkjz++OOfdsddddddddddddddddda",
"ipassssdssdddddddddaa..aXXjjjkxllxkjjjz@@@@++gffgffggggggggggffs",
"ipadapaapaaaaaaaaaa...aXXXjkkkllllkkkjx@@@@##@+odsddddddddddgffs",
"ipasppppassasssa...a..XXXXXXXXXXXXXXXXXoO+@@#@#@+gdddddddddsgffs",
"ipasapsaaassssa.aXsoO+++@#898999w;;;-;...XoOO+@@@@fdfffddffsgffs",
"ipasaaaassaaaa.asOO@@#878890qqwwwww9841:;;..XXoO+@@@gdfffffsgffs",
"ipaspasasasa.asoO+@#7879qwq09989w:;1148w93:;..XoOO+@@Offfffsgffs",
"ipaspasaasaaXsO+@#7780w097888888w;:;;;:;16w6>;..XoO+@@Offffsgffs",
"ipaspasaaa.XsO+@@660w97878787888w:;:;:;:;::4q5:..XoO+@@Offfsgffs",
"ipasppaaaaXoO+@568w9777777778787w::::::;:;;;:5q1;.XoOO+@Offsgffs",
"ipasapaa.Xo+@@569q76676777787878q:;:;:;:;:;:;:,95;.XooO@@gdsgffs",
"ipasppa.as++#56q9666667777777777q::::::::::::;::69:..XoO@@gsgffs",
"upaspp.asO+#46q85656568767676777q>:>:::>::::;:;:;29>.XoO+@Osgffs",
"upasp.asO+#46q85556568e866767777q:>:>::::::::::;:;29:..oO+@ogffs",
"iipap.so+#34084556565686676767670>:>:>:>:>::::;:;:;29;.XoO@@hffs",
"iipa..XO+#48945555555566666666660>>>>:>>>:>::::::;:;65.XoO@@hffs",
"ippa.XO+@460344545565656565656660>>>:>>>:>:>:::>;:;::91.XoO+@gfs",
"ipa.ao+@33q5444455555555656566660>>>>>>>>>>:>::::::;:,q:.XoO@Ofs",
"ipaasO+@3884344445454555565656560,>,>,>>>>:>:>:>::;:;:56.XoO+@gs",
"up.Xo+@34q333344445454555555555555421>>>>>>>>:>::::::;>q>.Xo+@Os",
"ui.sO+@38734343434454545455555559,,1351,>>>>:>:>:>::;:;46.XoO@@d",
"iiao+@23w333333344444444555555559,,,,,34,>>>>>>:>:::::::w:.Xo+@d",
"ui.o+@268323333434344445554545459,,,,,>14<>,>>:>:>:>::;:63.Xo+@d",
"iiaoO@205233333333444445444444548,,,,,,,<4,>>>>>>:>:::::19.XoO@d",
"iiso@@1w1223233334343454344444458<,<,,,,>14,>>>>:>:>::::;wX.oO++",
".aoO@1592222223333333453444444448,<,,,,,,,31,>>>>>>::::::81.XoO@",
".Xo+@1671212232323233534343434348<,<,<,<,,,5>,>>>>:>:>::;44.Xo+@",
"..oO@1941122222222334433333333438<<<<,<,,,,31>,>>>>>:::::18.XoO@",
".aoO@1051212122323234433233433347<<<,<,<,,,12,>,>>>>:>::;19.XoO@",
".XoO@<w11111222222225332333333337<<<<<<,<,,14,,>>>>>>:::::w.Xo+@",
".XoO@1w1<1121212122253232323232361<<<<,<,<,,5,>,>>:>:>::::w.XoO@",
".oO+#<w<1111112122225222223222325<1<<<<<<,,,5>,>>>>>>:::::w.oO+#",
". .XO<w1<1<1<1121212522222232223,1<1<<<<,<,<5,>,>>>>:>:>;:w  .XO",
"..Xo+<w<<<1<11111111422222222222111<<<<<<,,14,,>>>>>>:::::w..Xo+",
".XoO@<93<1<1<1<1111233121212121211<1<1<<,<,13,>,>,>>:>:::19.XoO@",
".XoO@,94<<<<<<111111241111211121111<<<<<<,<31,,>>>>>>::::18.XoO@",
".XoO@<66,<<<<1<1<1<1<51111121112<1<1<<<<,<,5>,>,>>>>:>:>;44.XoO@",
"..sO@o38<,<<<<<<<<1<1341111111111<<<<<<<<,32,,,>>>>>>::::8gXoO+@",
"uiXoO+<w,<,<,<,<<1<1<142<1<1<1<1<1<<<<,<,24,,,>,>>:>:>:::wXXoO@g",
"ui.s+@,93,,,,,<<<<<<<<141<1<<<1<<<<<<<<<<4,,,>,>>>>>>:::19.XoO@d",
"uiao+@>46,,<,<,<,<,<,<<142<1<1<1<<<<,<,24<,,>,>,>>:>:>::63.XoO@d",
"ui.oO++,w<,,,,,,<,<,<<<<1431<<<<<<<<<,34,,,,,>>>>>>:>::>wXXXo+@s",
"ui.Xo+@,66>,>,,,,<,<,<,<,<25321<,<12352<,,>,>,>>>>:>:>:46.XoO@ha",
"ui.XoO++<q<>,,,,,,,,,,<,,,<,234555431,,,,,,,>>>>>>>:::>qsXooO@ga",
"ui..Xo+@>66,>,>,>,,,,,,<,,,<,<,<,<,<,,,,>,>,>>>>:>:>::66.XoO+hda",
"uip.XoO+@,q1>>>>,>,,,,,,,,,,,,,,,,,,,,,,,>,>>>>>>:>::<qX.ooO@gda",
"uipp.aoO+O19,>>,>,>,>,>,>,>,>,>,,,,,,,>,>,>,>>:>:>:>>9gXoOO@hdda",
"uipp.aoO+@>66>>>>>>>>>,>,>,,,>,,,,,,,>,>>>>>>>>>>:::66.XXo+@Odda",
"uippp.aoO++>93:>:>>>>>>,>,>,>,>,>,>,>,>,>>>>:>:>:>:29..oo+@Oodda",
"uippp..XoO@@>93:>>>>>>>>>>>>>>>>,>>>>>>>>>>>>>>:::29XXooO@hdddda",
"uipppp..sO+@+,93:>:>:>:>:>:>>>>>>,>,>,>>>>:>:>:>:29XXooO+@gsddda",
"uipppp..XoO++@>96>>:::>:>:>>>:>>>>>>>>>>>>>>>::>69XXXoO@@hdsddda",
"uipppppp.XoO+++:59<>:::>:>:>:>:>:>>>:>:>:>:>:><95.XoOO@@hddsddda",
"uipppppp..aXOO++O1q6>:::::::::::>>>>>>>:>:::>6qgXooOO+@OdXXX.Xda",
"uipppcccp...XOO+@+:6q4::;:;:y::y:>:>y>:>:>>4q6X.XOOO@@hdsO+++Oda",
"uipppvbvpp...XoO++@O<6w61;::ytyryt>yt:y:16w6s.XoOO+@@Odds$*%$#da",
"uipppcvcpppp.XXXOO++@O,39w8411;::>:1148w93X..oOOO+@@Odsddddsddda",
"uipppppppppppp..XsoOOO@+OO1489wwwww984gX.XooOO++@@Oodddsdsdsddda",
"uipppXX.pppppp....XXXXXXXooooooOOOO++++@@@@@@@@##OssdsdddXXX.Xda",
"uippp+++ppppppp........XXXooooXX.XXXoO++@#@@@@#OosassassaO+++Oda",
"uipaa*%$ppppaaasaas...aXXXXooo+@@##$$O+@@####+Odddddddddd$*%$#da",
"uippppppppppapappappp.....Xooo@%&=*%%+@@@##Oodsdddssddddsdddddda",
"uuuuuuuuuuuuiuiuiiiuiiiiii.aXXooOO++@@@oaXsappppappppppappppappp"
};
