/* XPM */
static char *_687_962fe9f67457286e45256419af0667e1f1a194b32fef1342af517e31c708312f[] = {
/* columns rows colors chars-per-pixel */
"64 64 51 1 ",
"  c #181818",
". c #242020",
"X c #2C282C",
"o c #383434",
"O c #413C3C",
"+ c #4D4949",
"@ c #595151",
"# c #61595D",
"$ c #6D6165",
"% c #756D71",
"& c #827579",
"* c #8A7D82",
"= c #968A8E",
"- c black",
"; c #040404",
": c #0C0C08",
"> c #18140C",
", c #202010",
"< c #282818",
"1 c #30301C",
"2 c #3C3824",
"3 c #454128",
"4 c #4D4D2C",
"5 c #555534",
"6 c #615D38",
"7 c #696541",
"8 c #716D45",
"9 c #797549",
"0 c #868251",
"q c #8E8A55",
"w c #969655",
"e c #695104",
"r c #826504",
"t c #967908",
"y c #1C1414",
"u c #201C18",
"i c #28201C",
"p c #302420",
"a c #342C28",
"s c #3C302C",
"d c #413430",
"f c #493C34",
"g c #4D4138",
"h c #341C00",
"j c #452800",
"k c #593000",
"l c #6D3800",
"z c #824100",
"x c #590000",
"c c #AE0000",
"v c red",
/* pixels */
"uuuuuiiiuuiiuuuiiiiiiiiii...XXoOOOOOOOoaiiiiiiippppppppppppppppp",
"uppipappiipaipaaaaaaap..pXhjjkllllkjjhl++OOdsasssssssssssssssssp",
"uipaaaasaassssssssspp..pXXhhhjzkkzjhhhl@@@@++fddfddffffffffffdda",
"uipspippipppppppppp...pXXXhjjjkkkkjjjhz@@@@##@+osassssssssssfdda",
"uipaiiiipaapaaap...p..XXXXXXXXXXXXXXXXXoO+@@#@#@+fsssssssssafdda",
"uipapiapppaaaap.pXaoO++OoX;:;:;:;:;:;:...XoOO+@@@@dsdddssddafdda",
"uipappppaapppp.paOO@+o;;::1499wwwww9951>::..XXoO+@@@fsdddddafdda",
"uipaipapapap.paoO++O;::39w951<;::::<159w93::..XoOO+@@Odddddafdda",
"uipaipappappXaO++O;;>6w61:::::::::::::::16w6,:..XoO+@@Oddddafdda",
"uipaipappp.XaO+OX::6q5::;::::::>:>:>:>:>::>5q6>..XoO+@@Odddafdda",
"uipaiippppXoO+O;;1q5>:::::::::::>:>:>:>:>:::>6q1:.XoOO+@Oddafdda",
"uipapipp.Xo+@O;:59,:;::::>:>:>:>:>:>:>:>:>:>:><96:.XooO@@fsafdda",
"uipaiip.pa++O;:96:::::::::>:>:>>>>>>>>>>>:>::::>69>..XoO@@fafdda",
"yipaii.paO+o;:92;:::::,::>:>:>>>:>>>:>>>:>:>:>:>:29>.XoO+@Oafdda",
"yipai.paO+O;:92;:::::,3<>>>>>>>>>>>>>>>>>>>>>>>:>:29>..oO+@ofdda",
"uuipi.ao++;;92;:;::>:>,>:>:>>,>,>,>,>,>,>,>>>>:>:>:39:.XoO@@gdda",
"uuip..XO+o;56;::::::::>>>>>>>>,>>>,>>>,>>>>>>>>>>:>:66.XoO@@gdda",
"uiip.XO+O;19::;::::>:>>>>>>,>,>,>,>,>,>,>,>,>>>>:>:>>91.XoO+@fda",
"uip.po++;:q,::::::::>>>>>>>>,>,,,,,,,,,,,,,>>>>>>>>:><q>.XoO@Oda",
"uippaO+o;65:;::::>:>:>>>>,>,>,>,,,,,,,,,>,>,>,>>>>:>:>66.XoO+@fa",
"yi.Xo++;>q>:::::::>>>>>>>>,,134555431,,,,,,,,>,>>>>>>:>q,.Xo+@Oa",
"yu.aO+o;65;:;::>:>:>:>>,>,15311<,<12352<,,,,>,>,>>>>:>:56.XoO@@s",
"uupo+@;:w:::::::>:>>>>>>,43,,,,,<,<,<,34,,,,,,,>>>>>>>>:w:.Xo+@s",
"yu.o+@-36:;::::>:>:>>,><41,,,<,<,<,<,<,241,,,,>,>,>>:>;:63.Xo+@s",
"uupoO+;91;::::::>>>>>>,4<,,,,,<<<<<<<<<<141,,,,,,>>>::::19.XoO@s",
"uuao@O:w;:;:;::>:>>,>,41>,,<,<,<,<<<,<<<,24<,,,,>>>>:>::;wX.oO++",
".poO@;19:;::::::>>>>>13,,,,,<<<<<<<<<<<<<<32,,,,,>>>>::::91.XoO@",
".Xo+@;45;:;::>:>:>>,>5,,,<,<,<<<<1<1<1<<<<,5,<,,>,>>:>::;54.Xo+@",
"..oO@;91;;::::>>>>>>13,,,,<<<<<<<<1<1<<<<<<42,,,,>>>>:>::19.XoO@",
".poO@;9<;:;::>:>:>>,21>,,<,<,<<1<1<1<1<1<1<23<,,>,>,:>:>;<9.XoO@",
".XoO@;w;:;::::>:>>>>41,,,,<,<<<<111111111<<14,,,,>>>>>>:::w.Xo+@",
".XoO@;w:;:;::>:>:>>,5,>,,<,<,<<221111211<1<<5<,,,,>,>>:>::w.XoO@",
".oO+#;w;;;::::>>>>>>5>,,,,<<<125322221111<<<5,<,,,,>>>>:::w.oO+#",
". .XO;w:;:;::>:>:>>,5,,,,<,1255333221212<1<15<,<,,>,>>:>::w. .XO",
"..Xo+;w;::::::>:>>>>4,,,,11553333222211111114<<,,,,>>>>:::w..Xo+",
".XoO@;9<;:;::>:>:>>,21<1155434332322121211<23<,<,,>,>>:>:19.XoO@",
".XoO@;91;;::::>:>>>>2456644443333232212111142<<,,,,>>>>>:19.XoO@",
".XoO@;45;:;::::>:><1555545443434232322121115<<,<,,,,>>>>:55.XoO@",
"..aO@O19;;::::::<157655554444433333222211142<<<,,,,>,>>:>9fXoO+@",
"yuXoO+:w;:;:::,15766565545444434332322121241<<,<,,>,>,>>:wXXoO@f",
"yu.a+@;91;:,<157766665655454444333322221141<<<<<,,,,>>>>29.XoO@s",
"yupo+@;36,15777767675656554544343323221341<1<<<<,,,,>>>>64.XoO@s",
"yu.oO+O<w6788777776666655554444333322244111<<<<<<,,,,>>,wXXXo+@a",
"yu.Xo+@50088787777676656555554443334453211<1<1<<,<,,>,>56.XoO@gp",
"yu.XoO+@0w9887877676666555544555555432221111<<<<,,,,,>,qaXooO@fp",
"yu..Xo+@800978786767665655454434332322121111<<<<,,,,>,66.XoO+gsp",
"yui.XoO+#8w98877777666655554444333322221111<1<<<<,,,,<qX.ooO@fsp",
"yuii.poO+#0q887877676656554544343323221211<1<1,<,<,,,9fXoOO@gssp",
"yuii.poO+@8007877676666555544443333222221111<<<<,,,,76.Xoo+@Ossp",
"yuiii.poO+@8q0786767565655454434332322121111<<<<,,,49..oo+@Oossp",
"yuiii..XoO@#8q97776666655554444333322221111<<<<<<,49XXooO@gssssp",
"yuiiii..aO+@@8q967665656554544343323221211<1<<,<,59XXooO+@fasssp",
"yuiiii..XoO++#7q066665655454444333322221111<<<<<79XXXoO@@gsasssp",
"yuiiiiii.XoO++@79q765655454534343323221211<1<<106.XoOO@@gssasssp",
"yuiiiiii..pXOO++@8w965555444443333322221111<<7qf.XoOO+@OsXXX.Xsp",
"yuiiixxxi...XOO+@#69w9654544t43t3323t21211<7q7X.XOOO@@gsaO+++Osp",
"yuiiicvcii...XoO++@#60w07444trtetr3tr1t147w7a.XoOO+@@Ossa$*%$#sp",
"yuiiixcxiiii.XXXOO++@@690w0966332325479w06a..oOOO+@@Osassssasssp",
"yuiiiiiiiiiiii..XaoOOO+@@+7900wwwww0075OXXooOO++@@Oosssasasasssp",
"yuiiiXX.iiiiii....XXXXXXXooooooOOOO++++@@@@@@@@##OaasasssXXX.Xsp",
"yuiii+++iiiiiii........XXXooooXX.XXXoO++@#@@@@#OoapaapaapO+++Osp",
"yuipp*%$iiiipppappa...pXXXXooo+@@##$$O+@@####+Ossssssssss$*%$#sp",
"yuiiiiiiiiiipipiipiii.....Xooo@%&=*%%+@@@##Oosasssaassssassssssp",
"yyyyyyyyyyyyuyuyuuuyuuuuuu.pXXooOO++@@@opXapiiiipiiiiiipiiiipiii"
};
