/* XPM */
static char *_5310_beec21814a080880501e7c94487f94a3f38255638895ab52e8265a5ec15565ed[] = {
/* columns rows colors chars-per-pixel */
"39 34 60 1 ",
"  c #450C04",
". c #551004",
"X c #611404",
"o c #711808",
"O c #613420",
"+ c #693C24",
"@ c #714128",
"# c #79452C",
"$ c #344165",
"% c #38456D",
"& c #3C4D79",
"* c #6D5D51",
"= c #796559",
"- c #756D71",
"; c #821C08",
": c #8E200C",
"> c #9E240C",
", c #AE280C",
"< c #BA2C10",
"1 c #864D30",
"2 c #8E5538",
"3 c #9A6545",
"4 c #A26D49",
"5 c #AA7551",
"6 c #AE7D59",
"7 c #826D61",
"8 c #8E7569",
"9 c #827579",
"0 c #967D71",
"q c #9E8679",
"w c #B28661",
"e c #AA8E7D",
"r c #415182",
"t c #49598E",
"y c #516196",
"u c #55699A",
"i c #5D71A2",
"p c #6179AA",
"a c #8A7D82",
"s c #6982AE",
"d c #968A8E",
"f c #9A8E92",
"g c #AE9686",
"h c #B69E8E",
"j c #A2969A",
"k c #AEA6AA",
"l c #B2AEAE",
"z c #BAB2B6",
"x c #C3A696",
"c c #DBBA96",
"v c #D7B2A6",
"b c #C3BABA",
"n c #CBBEC3",
"m c #CFC7CB",
"M c #D7CFD3",
"N c #DBD7DB",
"B c #E3DBDF",
"V c #E7E3E7",
"C c #EFEBEF",
"Z c None",
/* pixels */
"ZZ&&%%&ZZZZZZZZZZZZZZZZZZZZZZZZZZZZZZZZ",
"$%ri%%&&&%%ZZZZZZZZZZZZZZZZZZZZZZZZZZZZ",
"%%ip%rrtt%r%%&%ZZZZZZZZZZZZZZZZZZZZZZZZ",
"%%yt%tupuruyrrt&%,ZZZZZZZZZZZZZZZZZZZZZ",
"%%&%%iuuuyyirruy&<,,,ZZZZZZZZZZZZZZZZZZ",
"$&yrruutupyyuyyt&c<,,>ZZZZZZZZZZZZZo;oo",
"$&irttuuuyuyiirtyCcxx,>>ZZZZZZZZ.Xo;;;o",
"%&t%tiyiytyiytiiuwCCCx>,>>ZZZZ. .Xo0q00",
"%&r%rpuyupyurtiut,wwwVhx>>::oX. *=7lbzz",
"$&i%uyytuittiptr&v<>,wVBhh>:oX=*afj2332",
"%%y%yrusuyiyuyrtpCxxx,66BBhh07fa+#1;;;o",
"%%&&yiyuyryprrspuwCVVx>,66NNlj@O.Xo0q00",
"$%r&yuyryituttuyr<wwwBhx>>562#. *=7lbzl",
"%%&rrttttyrrpptrtx<,>6BBhh>:oX=*afj2322",
"%%djlzzttrrryyrrrCxxx>66BNhh07fa+#1;;oo",
"-9lmCCCzzllrrr&rrwVVVx>,66NNlj@O.Xo0000",
"dj35wwwCCVCllllrr>wwwBxx>>652#. *=7lzzl",
"#2:>,<<wwwwVVVVllx,,>6BBhh>>oX=*afj2322",
"o;0exxx,><,6w6wVVVxxx,66BNhh07fa+#1;;oo",
"=7lmBVVxhxx>,,,w6wVBVx>,65NMlj@O.Xo0000",
"dj356w6BNBBhxhx>>,666Bhh>:652#. *=7lzll",
"#2:>,,>6666BNNBhhh>>>6BBhh::oX=*afj2322",
"o;0ehhh>>,>6666NNNhhh>66NMhg07fa+#1;;o;",
"=7lmNNNhhhh>>>>666NMNh>:65NMlj@O.Xo0000",
"dj35665MMMMghhh>>:655Mhg>:552#. *=7llll",
"#2:>>>>5555mmmMeeg>::5Mmhe:;oX=*afj2222",
"o;ZZZZZ:>::5445nmmeee:54mmee07fa+#1;;;o",
"ZZZZZZZZZZZ::::443nnne:;34nnlj@O.Xo0008",
"ZZZZZZZZZZZZZZZ:::444bee::432#. *=7lllk",
"ZZZZZZZZZZZZZZZZZZ:::4nbqq;:oX=*afj2222",
"ZZZZZZZZZZZZZZZZZZZZZ:33bzqq07fa+#1;;;o",
"ZZZZZZZZZZZZZZZZZZZZZZ;;23zzlj@O.XoZZZZ",
"ZZZZZZZZZZZZZZZZZZZZZZZZo;332#. ZZZZZZZ",
"ZZZZZZZZZZZZZZZZZZZZZZZZZZ;;oXZZZZZZZZZ"
};
