/* XPM */
static char *_6797_badb864c404c38fad6582070b91c43375b0954a2a2f9f250732dbd5f091c50f7[] = {
/* columns rows colors chars-per-pixel */
"40 31 60 1 ",
"  c #551004",
". c #611404",
"X c #711808",
"o c #693C24",
"O c #79452C",
"+ c #242C49",
"@ c #283451",
"# c #2C385D",
"$ c #344165",
"% c #38456D",
"& c #3C4D79",
"* c #6D5D51",
"= c #756D71",
"- c #821C08",
"; c #8E200C",
": c #9E240C",
"> c #AE280C",
", c #BA2C10",
"< c #864D30",
"1 c #8E5538",
"2 c #9A6545",
"3 c #A26D49",
"4 c #AA7551",
"5 c #AE7D59",
"6 c #826D61",
"7 c #8E7569",
"8 c #967D71",
"9 c #9E8679",
"0 c #B28661",
"q c #BA9269",
"w c #AA8E7D",
"e c #415182",
"r c #49598E",
"t c #516196",
"y c #55699A",
"u c #5D71A2",
"i c #6179AA",
"p c #8A7D82",
"a c #718AB6",
"s c #968A8E",
"d c #B69E8E",
"f c #A2969A",
"g c #AA9EA2",
"h c #AEA6AA",
"j c #B2AEAE",
"k c #BAB2B6",
"l c #D7B28E",
"z c #C3A696",
"x c #DBBA96",
"c c #D7B2A6",
"v c #C3BABA",
"b c #CBBEC3",
"n c #CFC7CB",
"m c #D7CFD3",
"M c #DBD7DB",
"N c #E3DBDF",
"B c #EFEBEF",
"V c #F7F3F7",
"C c white",
"Z c None",
/* pixels */
"##$#$ZZZZZZZZZZZZZZZZZZZZZZZZZZZZZZZZZZZ",
"@u%t##%ZZZZZZZZZZZZZ>>,>,ZZZZZZZZZZZZZZZ",
"#a&y#%&##ZZZZZZZZZX-,,,,,>:ZZZZZZZZZZZZZ",
"#e%&#et&%%%%%ZZZ .X-ccccc,:;-:ZZZZZZZZZZ",
"@##%&&ye&ee&&%e. .89CCCCVcw;-::>,:ZZZZZZ",
"+e&&t&&ttyy&ete.*6jvqqqqqCb979:>,>::::;-",
"@teeee&turr&eue6pf12,,,,,q4khkwddd>;:;;;",
"@&$%$eter&&trtefoOX-ccccc,:213bNMmdww997",
"@@#%yre&&tutreeO .89CVCCVcw;-:4555mnbvkf",
"#tt%te%tyuyerye.*6jvqqqqqVb979:>::443321",
"@tr%$eerye&&eu&6pf12,,,,,q4khkwddd::;;;-",
"@$$##%ye&&%iurefoOX-xxxxx,:213bMMmdww996",
"=ps&&e&&%uiyteeO .89BBBBBlw;-:4554nbvvkf",
"fkkffe$tyyt&ey&.*6jv00000Bb979:>>:443321",
"<22vbffee&%eere6pf12>,>,,04khkwddd>:;-;;",
"---33nnf%%&ut&efoOX-dzddz,:213bMMmww9887",
"689;;33mfg&er&&O .89NNNNNzw;-:4554nbvkjf",
"fkk9w;;4mMhh&&&.*6jv55555Mb979:>::443211",
"122vvww;45MMhfs6pf12>,:,:54khkwddw::;;;;",
"---22bnw;:55mvjfoOX-ddddd::213bMmnww9987",
"688--33nwd::421O .89mmmmmdw;-:4544bbvkjf",
"fjk99;;3nnww:-X.*6jv45544nb979::::333221",
"<11kv9w:33nnw986pf12>::;;44khkwwww;;;;;-",
"XX-22bbw;;44bvjfoOX-wwww9::213bnbbw98886",
"ZZZ--23v99;;421O .89vvvvvww;-:4433bvvjhf",
"ZZZZZ--2vk99:-X.*6jv33333vb979:;::333211",
"ZZZZZZZ;32kk9986pf12;;;;-34khkw999;;;;;-",
"ZZZZZZZZ;;22jvjfoOX-ZZZZZ-:213bkjj999886",
"ZZZZZZZZZZ-;221O .ZZZZZZZZZ;-:4221jjjjjf",
"ZZZZZZZZZZZZ--X.ZZZZZZZZZZZZZZ:---122111",
"ZZZZZZZZZZZZZZZZZZZZZZZZZZZZZZZZZZ;--;;-"
};
