/* XPM */
static char *_0940_972ae2466bec6a1c442725be5109b9add906135f248bbdade8340896bdcd2601[] = {
/* columns rows colors chars-per-pixel */
"12 16 22 1 ",
"  c #100C10",
". c #242020",
"X c #2C282C",
"o c #4D4138",
"O c #5D4D45",
"+ c #595151",
"@ c #65554D",
"# c #6D5D51",
"$ c #61595D",
"% c #796559",
"& c #6D6165",
"* c #756D71",
"= c #826D61",
"- c #8E7569",
"; c #827579",
": c #8A7D82",
"> c #968A8E",
", c #9A8E92",
"< c #A2969A",
"1 c #AA9EA2",
"2 c #AEA6AA",
"3 c None",
/* pixels */
"333*&#$*#&33",
"33>%%*;%&%:3",
"3*@#:. X*#$;",
" *&#*33 %;**",
" **;:33 %;:-",
"  $;<33.*:13",
"3  *:2>>,233",
"33;-:>;><:13",
"3;;>;. .>*;;",
" :,,:33 :;%;",
" =;-:33 -*#;",
" ;%**33 **##",
" ##@$33.&;%#",
"  $oO%&%;*%3",
"3  +@&#*$#33",
"33       333"
};
