/* XPM */
static char *_3494_223e3be3225bab9c25cc6a2cc1adf6c9cace4fd436397d1a89e4b383611a431a[] = {
/* columns rows colors chars-per-pixel */
"12 16 20 1 ",
"  c #100C10",
". c #4D4138",
"X c #5D4D45",
"o c #595151",
"O c #65554D",
"+ c #6D5D51",
"@ c #61595D",
"# c #796559",
"$ c #6D6165",
"% c #756D71",
"& c #826D61",
"* c #8E7569",
"= c #827579",
"- c #8A7D82",
"; c #968A8E",
": c #9A8E92",
"> c #A2969A",
", c #AA9EA2",
"< c #AEA6AA",
"1 c None",
/* pixels */
"1%=%$+@%+$O@",
" O###%=#$#@=",
" #O+#      1",
" %$+=1111111",
" =%=>1111111",
" ;@=-1111111",
" =&-;,;:->11",
" >=*-;=;>-<1",
"        ;;=;",
"1111111 -=#=",
"1111111 *%+=",
"1111111 -%+1",
"1++O$11;$=11",
" #@.X$$#=111",
" $@oO$+%1111",
"       11111"
};
