/* XPM */
static char *_8528_40f035316a666dbb296d47a66f7f46da936727029100fdb7c5b5b4e015caad7d[] = {
/* columns rows colors chars-per-pixel */
"12 16 15 1 ",
"  c #100C10",
". c #65554D",
"X c #6D5D51",
"o c #61595D",
"O c #796559",
"+ c #6D6165",
"@ c #756D71",
"# c #8E7569",
"$ c #827579",
"% c #8A7D82",
"& c #968A8E",
"* c #9A8E92",
"= c #A2969A",
"- c #AA9EA2",
"; c None",
/* pixels */
";@$@+;;;X+@+",
" .OO$;; +O+$",
" O.X%;; @Xo$",
" @+X$;; O$$@",
"  @$&;; O$&#",
";  $O=; @&%*",
";;  .@&#*%--",
";;;  &$&=&*%",
";;;;    &@%*",
";;;;;;; %$O$",
";;;;;;; #@@$",
";;;;;;; @@XX",
";;;;;;; +$OX",
";;;;;;; $@OO",
";;;;;;; oX+@",
";;;;;;;    ;"
};
