/* XPM */
static char *_1692_517d51b91fb20b7241ed4d17f8c65503707d192de6c6d2c723048f848b2514f6[] = {
/* columns rows colors chars-per-pixel */
"12 16 18 1 ",
"  c #100C10",
". c #5D4D45",
"X c #65554D",
"o c #6D5D51",
"O c #61595D",
"+ c #796559",
"@ c #6D6165",
"# c #756D71",
"$ c #826D61",
"% c #8E7569",
"& c #827579",
"* c #8A7D82",
"= c #968A8E",
"- c #9A8E92",
"; c #A2969A",
": c #B2AEAE",
"> c #BAB2B6",
", c None",
/* pixels */
",,,,,=#&&-&#",
",,,,:&+@+.@#",
",,,*&*  &OXo",
",,=o*,, &##+",
",#&o=,, &*%&",
" &&+=,, ;*--",
"  -X&;--*&=>",
",  *=&=**=*=",
",,      #X#$",
",,,,,,, &+&O",
",,,,,,, #o&#",
",,,,,,, #oo@",
",,,,,,, &+oX",
",,,,,,, #+++",
",,,,,,, o@#&",
",,,,,,,    ,"
};
