/* XPM */
static char *_0180_a3e4b3258274ebaf7d2f88b6f596b7becdce30ebcfdb84773a229f2360d0a63c[] = {
/* columns rows colors chars-per-pixel */
"6 16 18 1 ",
"  c #100C10",
". c #4D4138",
"X c #5D4D45",
"o c #595151",
"O c #65554D",
"+ c #6D5D51",
"@ c #61595D",
"# c #796559",
"$ c #6D6165",
"% c #756D71",
"& c #8E7569",
"* c #827579",
"= c #8A7D82",
"- c #968A8E",
"; c #9A8E92",
": c #A2969A",
"> c #AEA6AA",
", c None",
/* pixels */
",,$+*;",
",##%*%",
" %#*$=",
"  +%%*",
", +%&=",
", %*=:",
", =%-=",
", >---",
", ;**&",
", %=%-",
", =*#%",
", %*##",
",O@+%+",
" .X#$#",
" oO$+%",
"     ,"
};
