/* XPM */
static char *_4094_26c6cba5bb811c4ad5616981663df410621db22138c6fb69234070f364f51d16[] = {
/* columns rows colors chars-per-pixel */
"20 25 10 1 ",
"  c #540000",
". c #9A0000",
"X c #B30000",
"o c #C80000",
"O c #D30000",
"+ c #DD0000",
"@ c #E70000",
"# c #F20000",
"$ c red",
"% c None",
/* pixels */
"%%%%%%%%%%%%%%%%%%%%",
"%%%%%%%%%%%%%%%%%%%%",
"%%%%%%%%%%%%%%%%%%%%",
"%%%%%%%%%%%%%%%%%%%%",
"%%%%%%%%%%%%%%%%%%%%",
"%%%%%%        %%%%%%",
"%%%%%%        %%%%%%",
"%%%%%%  ooXX  %%%%%%",
"%%%%%%  ooXX  %%%%%%",
"%%%%%%  ++oo  %%%%%%",
"%%%%%%  ++oo  %%%%%%",
"        $$++        ",
"        $$++        ",
"  XXOO@@$$##@@OOXX  ",
"  XXOO@@$$##@@OOXX  ",
"  ..ooOOOOOOOOoo..  ",
"  ..ooOOOOOOOOoo..  ",
"        OOoo        ",
"        OOoo        ",
"%%%%%%  ooXX  %%%%%%",
"%%%%%%  ooXX  %%%%%%",
"%%%%%%  XX..  %%%%%%",
"%%%%%%  XX..  %%%%%%",
"%%%%%%        %%%%%%",
"%%%%%%        %%%%%%"
};
