/* XPM */
static char *_052_b677fc8e155a9b10f51dd6cfe01b83b19e0bde401d90187fddf0cdf47dff1d5e[] = {
/* columns rows colors chars-per-pixel */
"12 16 18 1 ",
"  c #100C10",
". c #4D4138",
"X c #5D4D45",
"o c #595151",
"O c #65554D",
"+ c #6D5D51",
"@ c #61595D",
"# c #796559",
"$ c #6D6165",
"% c #756D71",
"& c #8E7569",
"* c #827579",
"= c #8A7D82",
"- c #968A8E",
"; c #9A8E92",
": c #A2969A",
"> c #AEA6AA",
", c None",
/* pixels */
",*%$+@%+$Oo@",
" ###%*#$#X.o",
" O+#=   +@O*",
"    ,,, *%%-",
",,,,,,,#*=&,",
",,,,,,;%==,,",
",,,,,>&*:,,,",
",,,,-;-:,,,,",
",,,*=:&,,,,,",
",,;==%,,,,,,",
",*&=*,,,,,,,",
" #%%*,,,,,,,",
" +O@+,,,,,,,",
" @.X#,,,,,,,",
" @oO$,,,,,,,",
"  ,,,,,,,,,,"
};
