/* XPM */
static char *_0654_67b5d29e777e7d6c5603b66371530dc96b669e68f890a4a28ec3d895e0d415c5[] = {
/* columns rows colors chars-per-pixel */
"12 16 18 1 ",
"  c #100C10",
". c #5D4D45",
"X c #65554D",
"o c #6D5D51",
"O c #61595D",
"+ c #796559",
"@ c #6D6165",
"# c #756D71",
"$ c #826D61",
"% c #8E7569",
"& c #827579",
"* c #8A7D82",
"= c #968A8E",
"- c #9A8E92",
"; c #A2969A",
": c #AA9EA2",
"> c #AEA6AA",
", c None",
/* pixels */
",,,&@oO,,,,,",
",,;++#&,,,,,",
",&#o& ,,,,,,",
" #@oo,,,,,,,",
" ##&o,,,,,,,",
" oO&+,,,,,,,",
" &$#X#=%&=,,",
" ;&%*=&=:*:,",
" =*=-   =##*",
" *-->,, *&+&",
" $&%-,, %#&-",
"  +#&,, ##o#",
",  XO#, @&+o",
",,  .+*+&#+,",
",,,  @o#Oo,,",
",,,,     ,,,"
};
