/* XPM */
static char *_0237_5f1880ab73f90aeac539dc306271c315060735472038e21dcceccf930b551915[] = {
/* columns rows colors chars-per-pixel */
"14 15 10 1 ",
"  c white",
". c #322D33",
"X c #0E0C0E",
"o c #5F5761",
"O c #564F58",
"+ c #4D464F",
"@ c #29252A",
"# c #443E45",
"$ c #39333A",
"% c #1F1D20",
/* pixels */
"        .....X",
"       .ooOO+X",
"       .O.@@#X",
"      .O#.@$X ",
"     .+#..@X  ",
"     .+@..$X  ",
"    .O$@@$X   ",
"   .o#@@$X    ",
"  .O#@@#X     ",
"  .$%%.$X     ",
" .#.@%$X      ",
"...%%#X       ",
".O+#++X       ",
"XXXXXX        ",
"              "
};
