/* XPM */
static char *_4864_b9a22b5d75a13f1f19d2bf05ba558a793de3a179f0f8b5745cdf0cd06f500d9c[] = {
/* columns rows colors chars-per-pixel */
"12 16 20 1 ",
"  c #100C10",
". c #4D4138",
"X c #5D4D45",
"o c #595151",
"O c #65554D",
"+ c #6D5D51",
"@ c #61595D",
"# c #796559",
"$ c #6D6165",
"% c #756D71",
"& c #826D61",
"* c #8E7569",
"= c #827579",
"- c #8A7D82",
"; c #968A8E",
": c #9A8E92",
"> c #A2969A",
", c #AEA6AA",
"< c #B2AEAE",
"1 c None",
/* pixels */
"11%=%$+$%+11",
"1%O###%=#$#1",
" =#O+   +%+%",
"    111 ##=%",
"1111111 %#=-",
"1111111--%-1",
"111111>;*;11",
"11111:,:<111",
"1111>:;>1111",
"111::--11111",
"11&=*-111111",
"1+=#%111=>==",
" #++O11 +$=#",
" ##@.X#$#=%#",
" $$@oO$+%@+$",
"           1"
};
