/* XPM */
static char *_2653_76eb7b885c4f78c68cfd08884378c04bf15671723b9c21999f9c0258137b4f76[] = {
/* columns rows colors chars-per-pixel */
"12 16 18 1 ",
"  c #100C10",
". c #4D4138",
"X c #595151",
"o c #65554D",
"O c #6D5D51",
"+ c #61595D",
"@ c #796559",
"# c #6D6165",
"$ c #756D71",
"% c #826D61",
"& c #8E7569",
"* c #827579",
"= c #8A7D82",
"- c #968A8E",
"; c #9A8E92",
": c #A2969A",
"> c #C3BABA",
", c None",
/* pixels */
",,,$#O+$O$,,",
",,@@@$*@#@*,",
",@oO@   $O+=",
" $#O*,, @*$=",
" $$*;,, **=:",
" O+*$,,-$;=;",
" *%$=,-=*=;>",
" :*&=-*-:=$=",
" -=-*=* -$=$",
" =;;==, =*@*",
" %*&-,, &$O$",
" *@$-,, $$O$",
" OOo=,, #*@O",
"  +.#*:=*$@,",
",  Xo#O$+O,,",
",,       ,,,"
};
