/* XPM */
static char *_76e5bdbe6f748b3a3208f54432d797c[] = {
/* columns rows colors chars-per-pixel */
"50 50 2 1 ",
"  c None",
". c black",
/* pixels */
"                                                  ",
"                                                  ",
"                                                  ",
"                                                  ",
"                                                  ",
"                                                  ",
"            .                                     ",
"          .....                                   ",
"          .......                                 ",
"          ........                                ",
"          ..........                              ",
"          ............                            ",
"          ..............                          ",
"          ...............                         ",
"          .................                       ",
"          ...................                     ",
"          .....................                   ",
"          ......................                  ",
"          ........................                ",
"          ..........................              ",
"          ............................            ",
"          .............................           ",
"          ...............................         ",
"          .................................       ",
"          ..................................      ",
"          ..................................      ",
"          ..................................      ",
"          .................................       ",
"          ...............................         ",
"          .............................           ",
"          ............................            ",
"          ..........................              ",
"          ........................                ",
"          ......................                  ",
"          .....................                   ",
"          ...................                     ",
"          .................                       ",
"          ...............                         ",
"          ..............                          ",
"          ............                            ",
"          ..........                              ",
"          ........                                ",
"          .......                                 ",
"           ....                                   ",
"                                                  ",
"                                                  ",
"                                                  ",
"                                                  ",
"                                                  ",
"                                                  "
};
