/* XPM */
static char *_fbf0c391535491fa460fc240067bdae[] = {
/* columns rows colors chars-per-pixel */
"50 50 2 1 ",
"  c None",
". c black",
/* pixels */
"                                                  ",
"                                                  ",
"                                                  ",
"                                                  ",
"                                                  ",
"                                                  ",
"                                     .            ",
"                                   .....          ",
"                                 .......          ",
"                                ........          ",
"                              ..........          ",
"                            ............          ",
"                          ..............          ",
"                         ...............          ",
"                       .................          ",
"                     ...................          ",
"                   .....................          ",
"                  ......................          ",
"                ........................          ",
"              ..........................          ",
"            ............................          ",
"           .............................          ",
"         ...............................          ",
"       .................................          ",
"      ..................................          ",
"      ..................................          ",
"      ..................................          ",
"       .................................          ",
"         ...............................          ",
"           .............................          ",
"            ............................          ",
"              ..........................          ",
"                ........................          ",
"                  ......................          ",
"                   .....................          ",
"                     ...................          ",
"                       .................          ",
"                         ...............          ",
"                          ..............          ",
"                            ............          ",
"                              ..........          ",
"                                ........          ",
"                                 .......          ",
"                                   ....           ",
"                                                  ",
"                                                  ",
"                                                  ",
"                                                  ",
"                                                  ",
"                                                  "
};
