/* XPM */
static char *_a00c3b1d41a47d7fa2146c914a1a380[] = {
/* columns rows colors chars-per-pixel */
"50 50 87 1 ",
"  c black",
". c #0B0B0B",
"X c gray7",
"o c #131313",
"O c #1E1E1E",
"+ c #353535",
"@ c gray21",
"# c #373737",
"$ c #383837",
"% c gray22",
"& c #393938",
"* c #393939",
"= c #3A3A3A",
"- c #3B3B3A",
"; c gray23",
": c #3C3C3B",
"> c #3C3C3C",
", c #3D3D3C",
"< c gray24",
"1 c #3E3E3D",
"2 c #3E3E3E",
"3 c gray33",
"4 c #555555",
"5 c #5A5A59",
"6 c #5B5B5A",
"7 c #5C5C5B",
"8 c #5D5D5D",
"9 c #5F5F5F",
"0 c #60605F",
"q c #616160",
"w c gray38",
"e c #6A6A6A",
"r c #777777",
"t c #7D7D7C",
"y c #7E7E7D",
"u c #808080",
"i c #888888",
"p c #898988",
"a c #898989",
"s c gray56",
"d c #909090",
"f c #939392",
"g c gray59",
"h c #979796",
"j c gray60",
"k c #9B9B9A",
"l c #9C9C9B",
"z c gray62",
"x c #9F9F9F",
"c c gray63",
"v c #A2A2A1",
"b c #A2A2A2",
"n c gray64",
"m c #A8A8A7",
"M c #A9A9A7",
"N c #A9A9A8",
"B c #A9A9A9",
"V c #AAAAA9",
"C c #ABABAA",
"Z c #ADADAC",
"A c #B1B1B1",
"S c #B2B2B2",
"D c #B6B6B6",
"F c #B9B9B7",
"G c #BABAB8",
"H c gray73",
"J c #BBBBBB",
"K c #BEBEBC",
"L c #BFBFBD",
"P c #C0C0C0",
"I c #C1C1C0",
"U c #C3C3C2",
"Y c #C4C4C3",
"T c #C5C5C4",
"R c #C9C9C7",
"E c gray79",
"W c #CACAC8",
"Q c #D3D3D2",
"! c #D4D4D3",
"~ c #D6D6D4",
"^ c #D7D7D5",
"/ c #DDDDDB",
"( c #E0E0DE",
") c #EDEDEC",
"_ c #EEEEED",
"` c #F0F0EE",
"' c None",
/* pixels */
"                                                  ",
"                                                  ",
"  .>*@2@&:@>#@,@-=@1@%;@:%@<@=-@1@#:@>*@1@*;@<%o  ",
"  ;''''''''''''''''''''''''''''''''''''''''''''w  ",
"  %''''''''''''''''''''''''''''''''''''''''''''8  ",
"  +''''''''''''''''''''''''''''''''''''''''''''Cre",
"  ,'''''''''''''''''''''''''''''''''''''''''''''''",
"  +'''''''''''''''''''''''''''''''''''''''''''''''",
"  #'''''''''''''''''''''''''''''''''''''''''''''''",
"  -'''''''''''''''''''''''''''''''''''''''''''')P(",
"  +''''''''''''''''''''''''''''''''''''''''''''3  ",
"  ;''''''''''''''''''''''''''''''''''''''''''''0  ",
"  @''''''''''''''''''''''''''''''''''''''''''''Bpy",
"  +'''''''''''''''''''''''''''''''''''''''''''''''",
"  :'''''''''''''''''''''''''''''''''''''''''''''''",
"  +'''''''''''''''''''''''''''''''''''''''''''''''",
"  *''''''''''''''''''''''''''''''''''''''''''''`TD",
"  *''''''''''''''''''''''''''''''''''''''''''''7  ",
"  +''''''''''''''''''''''''''''''''''''''''''''4  ",
"  ,''''''''''''''''''''''''''''''''''''''''''''Iuf",
"  +'''''''''''''''''''''''''''''''''''''''''''''''",
"  #'''''''''''''''''''''''''''''''''''''''''''''''",
"  ;'''''''''''''''''''''''''''''''''''''''''''''''",
"  +''''''''''''''''''''''''''''''''''''''''''''ERA",
"  ;''''''''''''''''''''''''''''''''''''''''''''8  ",
"  #''''''''''''''''''''''''''''''''''''''''''''5  ",
"  +''''''''''''''''''''''''''''''''''''''''''''Yha",
"  >'''''''''''''''''''''''''''''''''''''''''''''''",
"  +'''''''''''''''''''''''''''''''''''''''''''''''",
"  *'''''''''''''''''''''''''''''''''''''''''''''''",
"  *''''''''''''''''''''''''''''''''''''''''''''QcK",
"  +''''''''''''''''''''''''''''''''''''''''''''3  ",
"  ,''''''''''''''''''''''''''''''''''''''''''''q  ",
"  +''''''''''''''''''''''''''''''''''''''''''''JZl",
"  @'''''''''''''''''''''''''''''''''''''''''''''''",
"  -'''''''''''''''''''''''''''''''''''''''''''''''",
"  +'''''''''''''''''''''''''''''''''''''''''''''''",
"  -''''''''''''''''''''''''''''''''''''''''''''/bj",
"  $''''''''''''''''''''''''''''''''''''''''''''6  ",
"  +''''''''''''''''''''''''''''''''''''''''''''3  ",
"  ,''''''''''''''''''''''''''''''''''''''''''''^xG",
"  +'''''''''''''''''''''''''''''''''''''''''''''''",
"  %'''''''''''''''''''''''''''''''''''''''''''''''",
"  ='''''''''''''''''''''''''''''''''''''''''''''''",
"  +''''''''''''''''''''''''''''''''''''''''''''Dms",
"  :''''''''''''''''''''''''''''''''''''''''''''q  ",
"  #''''''''''''''''''''''''''''''''''''''''''''8  ",
"  Xw8V'''_39N'''`74I'''E85U'''!3qH'''/63~'''D08O  ",
"     r'''P  p'''T  u'''W  g'''n  Z'''v  z'''M     ",
"     e'''(  t'''D  f'''S  i'''L  k'''j  F'''d     "
};
