/* XPM */
static char *_61804aa85b34050c4c58643547357bc[] = {
/* columns rows colors chars-per-pixel */
"50 257 59 1 ",
"  c #000000",
". c #0B0B0B",
"X c #111111",
"o c #1A1616",
"O c #1B1718",
"+ c #1C1C1C",
"@ c #211D1E",
"# c #231F20",
"$ c #252323",
"% c #282525",
"& c #2B2728",
"* c #2C2C2C",
"= c #343434",
"- c #3B3A3A",
"; c #413D3E",
": c #454444",
"> c #494646",
", c #4A4748",
"< c #4B4A4A",
"1 c #514E4E",
"2 c #535151",
"3 c #5E5C5D",
"4 c #605E5E",
"5 c #625F60",
"6 c #656464",
"7 c #696667",
"8 c #6E6D6D",
"9 c #706E6E",
"0 c #727272",
"q c #7A7778",
"w c #7B7A7A",
"e c #807E7E",
"r c #858585",
"t c #888687",
"y c #8C8B8B",
"u c #959494",
"i c #989696",
"p c #9B9B9B",
"a c #A0A09F",
"s c #A3A3A3",
"d c #A9A7A7",
"f c #A8A8A7",
"g c #AAAAAA",
"h c #B0AFAE",
"j c #B5B4B4",
"k c #B8B6B6",
"l c #BBBABA",
"z c #C0BFBF",
"x c #C5C4C4",
"c c #CDCDCD",
"v c #D4D4D4",
"b c #D8D8D8",
"n c #E0DFDF",
"m c #E0E0DF",
"M c #E4E4E4",
"N c #EBEBEB",
"B c #F0EFEF",
"V c #F5F5F5",
"C c #FFFFFF",
/* pixels */
"CCCCCCCCCCCCCCCCCCCCCCCCCCCCCCCCCCCCCCCCCCCCCCCCCC",
"CCCCCCCCCCCCCCCCCCCCCCCCCCCCCCCCCCCCCCCCCCCCCCCCCC",
"CCCCCCCCCCCCCCCCCCCCCCCCCCCCCCCCCCCCCCCCCCCCCCCCCC",
"CCCCCCCCCCCCCCCCCCCCCCCCCCCCCCCCCCCCCCCCCCCCCCCCCC",
"CCCCCCCCCCCCCCCCCCCCCCCCCCCCCCCCCCCCy.XXX.X.X*CCCC",
"CCCCCCCCCCCCCCCCCCCCCCCCCCCCCCCCCCCCy+fssfsf7XCCCC",
"CCCCCCCCCCCCCCCCCCCCCCCCCCCCCCCCCCCCr*CCCCCCsXCCCC",
"CCCCCCCCCCCCCCCCCCCCCCCCCCCCCCCCCCCCr*CCCCCCaXCCCC",
"CCCCCCCCCCCCCCCCCCCCCCCCCCCCCCCCCCCCr*CCCCCCsXCCCC",
"CCCCCCCCCCCCCCCCCCCCCCCCCCCCCCCCCCCCr*CCCCCCsXCCCC",
"CCCCCCCCCCCCCCCCCCCCCCCCCCCCCCCCCCCCy*CCCCCCpXCCCC",
"CCCCCCCCCCCCCCCCCCCCCCCCCCCCCCCCCCCB$=CCCCCCfXCCCC",
"CCCCCCCCCCCCCCCCCCCCCCCCCCCCCCCCCCN$ .*&*%&&oXCCCC",
"CCCCCCCCCCCCCCCCCCCCCCCCCCCCCCCCCB$   *yyyyyyiCCCC",
"CCCCCCCCCCCCCCCCCCCCCCCCCCCCCCCCN$   *VCCCCCCCCCCC",
"CCCCCCCCCCCCCCCCCCCCCCCCCCCCCCCN$   *VCCCCCCCCCCCC",
"CCCCCCCCCCCCCCCCCCCCCCCCCCCCCCN$   *VCCCCCCCCCCCCC",
"CCCCCCCCCCCCCCCCCCCCCCCCCCCCCN$   *VCCCCCCCCCCCCCC",
"CCCCCCCCCCCCCCCCCCCCCCCCCCCCN$   =VCCCCCCCCCCCCCCC",
"CCCCCCCCCCCCCCCCCCCCCCCCCCCN$   *VCCCCCCCCCCCCCCCC",
"CCCCCCCCCCCCCCCCCCCCCCCCCCN$   *VCCCCCCCCCCCCCCCCC",
"CCCCCCCCCCCCCCCCCCCCCCCCCN#   =VCCCCCCCCCCCCCCCCCC",
"CCCCCCCCCCCCCCCCCCCCCCCCN#   =VCCCCCCCCCCCCCCCCCCC",
"CCCCCCCCCCCCCCCCCCCCCCCN#   *VCCCCCCCCCCCCCCCCCCCC",
"CCCCCCCCCCCCCCCCCCCCCCN$   =VCCCCCCCCCCCCCCCCCCCCC",
"CCCCCCCCCCCCCCCCCCCCCN+   =VCCCCCCCCCCCCCCCCCCCCCC",
"CCCCCCCCCCCCCCCCCCCCN+   =VCCCCCCCCCCCCCCCCCCCCCCC",
"CCCCCCCCCCCCCCCCCCCN+   =VCCCCCCCCCCCCCCCCCCCCCCCC",
"CCCCCCCCCCCCCCCCCCN+   =VCCCCCCCCCCCCCCCCCCCCCCCCC",
"CCCCCCCCCCCCCCCCCN+   =VCCCCCCCCCCCCCCCCCCCCCCCCCC",
"CCCCCCCCCCCCCCCCN+   =VCCCCCCCCCCCCCCCCCCCCCCCCCCC",
"CCCCCCCCCCCCCCCN+   =VCCCCCCCCCCCCCCCCCCCCCCCCCCCC",
"CCCCCCCCCCCCCCN+   =VCCCCCCCCCCCCCCCCCCCCCCCCCCCCC",
"CCCCCCCCCCCCCM+   =VCCCCCCCCCCCCCCCCCCCCCCCCCCCCCC",
"CCCCCCCCCCCCN+   =VCCCCCCCCCCCCCCCCCCCCCCCCCCCCCCC",
"CCCCCCCCCCCN+   -VCCCCCCCCCCCCCCCCCCCCCCCCCCCCCCCC",
"CCCCw008080+   =VCCCCCCCCCCCCCCCCCCCCCCCCCCCCCCCCC",
"CCCCX*:::::<. -VCCCCCCCCCCCCCCCCCCCCCCCCCCCCCCCCCC",
"CCCCXsCCCCCC==VCCCCCCCCCCCCCCCCCCCCCCCCCCCCCCCCCCC",
"CCCCXsCCCCCC*tCCCCCCCCCCCCCCCCCCCCCCCCCCCCCCCCCCCC",
"CCCCXaCCCCCC*rCCCCCCCCCCCCCCCCCCCCCCCCCCCCCCCCCCCC",
"CCCCXaCCCCCC*tCCCCCCCCCCCCCCCCCCCCCCCCCCCCCCCCCCCC",
"CCCCXsCCCCCC*rCCCCCCCCCCCCCCCCCCCCCCCCCCCCCCCCCCCC",
"CCCCXsCCCCCC*rCCCCCCCCCCCCCCCCCCCCCCCCCCCCCCCCCCCC",
"CCCCX2ytryryorCCCCCCCCCCCCCCCCCCCCCCCCCCCCCCCCCCCC",
"CCCC:********aCCCCCCCCCCCCCCCCCCCCCCCCCCCCCCCCCCCC",
"CCCCCCCCCCCCCCCCCCCCCCCCCCCCCCCCCCCCCCCCCCCCCCCCCC",
"CCCCCCCCCCCCCCCCCCCCCCCCCCCCCCCCCCCCCCCCCCCCCCCCCC",
"CCCCCCCCCCCCCCCCCCCCCCCCCCCCCCCCCCCCCCCCCCCCCCCCCC",
"CCCCCCCCCCCCCCCCCCCCCCCCCCCCCCCCCCCCCCCCCCCCCCCCCC",
"CCCCCCCCCCCCCCCCCCCCCCCCCCCCCCCCCCCCCCCCCCCCCCCCCC",
"vbbbbbbbbbbbbbvbbbbbbvbbvbbbbbbbbbbbbvbbbbbbbbvbbv",
"CCCCCCCCCCCCCCCCCCCCCCCCCCCCCCCCCCCCCCCCCCCCCCCCCC",
"CCCCCCCCCCCCCCCCCCCCCCCCCCCCCCCCCCCCCCCCCCCCCCCCCC",
"CCCCCCCCCCCCCCCCCCCCCCCCCCCCCCCCCCCCCCCCCCCCCCCCCC",
"CCCCCCCCCCCCCCCCCCCCCCCCCCCCCCxfxCCCCCCCCCCCCCCCCC",
"CCCCCCCCCCCCCCCCCCCCCCCCCCCCl+   +xCCCCCCCCCCCCCCC",
"CCCCCCCCCCCCCCCCCCCCCCCCCCCf       lCCCCCCCCCCCCCC",
"CCCCCCCCCCCCCCCCCCCCCCCCCCf         lCCCCCCCCCCCCC",
"CCCCCCCCCCCCCCCCCCCCCCCCCf           kCCCCCCCCCCCC",
"CCCCCCCCCCCCCCCCCCCCCCCCf             lCCCCCCCCCCC",
"CCCCCCCCCCCCCCCCCCCCCCCf               lCCCCCCCCCC",
"CCCCCCCCCCCCCCCCCCCCCCf                 jCCCCCCCCC",
"CCCCCCCCCCCCCCCCCCCCCf                   jCCCCCCCC",
"CCCCCCCCCCCCCCCCCCCCf                     cCCCCCCC",
"CCCCCCCCCCCCCCCCCCCf                      =CCCCCCC",
"CCCCCCCCCCCCCCCCCCf           .       .    VCCCCCC",
"CCCCCCCCCCCCCCCCCs                         MCCCCCC",
"CCCCCCCCCCCCCCCCs                         .CCCCCCC",
"CCCCCCCCCCCCCCCs  j8                      8CCCCCCC",
"CCCCCCCCCCCCCCs  jCC8              .     =CCCCCCCC",
"CCCCCCCCCCCCCs  jCCCC8   .              *VCCCCCCCC",
"CCCCCCCCCCCCp  jCCCCCC8                =VCCCCCCCCC",
"CCCCCCCCCCCs  jCCCCCCCC8              =CCCCCCCCCCC",
"CCCCCCCCCCs  jCCCCCCCCCC8            =VCCCCCCCCCCC",
"CCCCCCCCCp  lCCCCCCCCCCCC0          =VCCCCCCCCCCCC",
"CCCCCCCCa  jCCCCCCCCCCCCCC0        =VCCCCCCCCCCCCC",
"CCCCCCCl  lCCCCCCCCCCCCCCCC8      =VCCCCCCCCCCCCCC",
"CCCCCCC* gCCCCCCCCCCCCCCCCCC0    =VCCCCCCCCCCCCCCC",
"CCCCCCB %CCCCCCCCCCCCCCCCCCCC0  -VCCCCCCCCCCCCCCCC",
"CCCCCCM -CCCCCCCCCCCCCCCCCCCV- -VCCCCCCCCCCCCCCCCC",
"CCCCCCCX NCCCCCCCCCCCCCCCCCV- -VCCCCCCCCCCCCCCCCCC",
"CCCCCCCw *VCCCCCCCCCCCCCCCV- =VCCCCCCCCCCCCCCCCCCC",
"CCCCCCCC: %VCCCCCCCCCCCCCV- -VCCCCCCCCCCCCCCCCCCCC",
"CCCCCCCCC: *VCCCCCCCCCCCV- -VCCCCCCCCCCCCCCCCCCCCC",
"CCCCCCCCCC: %VCCCCCCCCCV= -VCCCCCCCCCCCCCCCCCCCCCC",
"CCCCCCCCCCC: *BCCCCCCCV- -VCCCCCCCCCCCCCCCCCCCCCCC",
"CCCCCCCCCCCC: &BCCCCCV= -VCCCCCCCCCCCCCCCCCCCCCCCC",
"CCCCCCCCCCCCC: &BCCCV= -VCCCCCCCCCCCCCCCCCCCCCCCCC",
"CCCCCCCCCCCCCC: %xVc* -VCCCCCCCCCCCCCCCCCCCCCCCCCC",
"CCCCCCCCCCCCCCC<     -CCCCCCCCCCCCCCCCCCCCCCCCCCCC",
"CCCCCCCCCCCCCCCCs,*:aCCCCCCCCCCCCCCCCCCCCCCCCCCCCC",
"CCCCCCCCCCCCCCCCCCCCCCCCCCCCCCCCCCCCCCCCCCCCCCCCCC",
"CCCCCCCCCCCCCCCCCCCCCCCCCCCCCCCCCCCCCCCCCCCCCCCCCC",
"CCCCCCCCCCCCCCCCCCCCCCCCCCCCCCCCCCCCCCCCCCCCCCCCCC",
"CCx++++++++++++++++++++++++++++++++++++++++++++xCC",
"CCw                                            wCC",
"CClXXXXXXXXXXXX.XXXXXXX.XXXXXXXXXXXXXXX.XXXXXXXlCC",
"CCCCCCCCCCCCCCCCCCCCCCCCCCCCCCCCCCCCCCCCCCCCCCCCCC",
"CCCCCCCCCCCCCCCCCCCCCCCCCCCCCCCCCCCCCCCCCCCCCCCCCC",
"CCCCCCCCCCCCCCCCCCCCCCCCCCCCCCCCCCCCCCCCCCCCCCCCCC",
"CCCCCCCCCCCCCCCCCCCCCCCCCCCCCCCCCCCCCCCCCCCCCCCCCC",
"CCCCCCCCCCCCCCCCCCCCCCCCCCCCCCCCCCCCCCCCCCCCCCCCCC",
"vbbvbbbbbbbbvbbvvbbbbbbbbbbbbbbvbbvbbbbbvbbbbbbbbv",
"CCCCCCCCCCCCCCCCCCCCCCCCCCCCCCCCCCCCCCCCCCCCCCCCCC",
"CCCCCCCCCCCCCCCCCCCCCCCCCCCCCCCCCCCCCCCCCCCCCCCCCC",
"CCCCCCCCCCCCCCCCCCCCCCCCCCCCCCCCCCCCCCCCCCCCCCCCCC",
"CCCCCCCCCCCCCCCCCp34dCCCCCCCCCCCCCCCCCCCCCCCCCCCCC",
"CCCCCCCCCCCCCCCC1O<>o7CCCCCCCCCCCCCCCCCCCCCCCCCCCC",
"CCCCCCCCCCCCCCCy+xCChosCCCCCCCCCCCCCCCCCCCCCCCCCCC",
"CCCCCCCCCCCCCCC=6CCCC<1CCCCCCCCCCCCCCCCCCCCCCCCCCC",
"CCCCCCCCCCCCCCC$qCCCC4;CCCCCCCCCCCCCCCCCCCCCCCCCCC",
"CCCCCCCCCCCCCCC%qCCCC4;CCCCCCCCCCCCCCCCCCCCCCCCCCC",
"CCCCCCCCCCCCCCC#qCCCC4;CCCCCCCCCCCCCCCCCCCCCCCCCCC",
"CCCCCCCCCCCCCCC%qCCCC4;CCCCCCCCCCCCCCCCCCCCCCCCCCC",
"CCCCCCCCCCCCCCC$qCCCC4;CCCCCCCCCCCCCCCCCCCCCCCCCCC",
"CCCCCCCCCCCCCCC$qCCCC4;CCCCCCCCCCCCCCCCCCCCCCCCCCC",
"CCCCCCCCCCCCCCC$qCCCC4;CCCCCCCCCCCCCCCCCCCCCCCCCCC",
"CCCCCCCCCCCCCCC%qCCCC5$===;eVCCCCCCCCCCCCCCCCCCCCC",
"CCCCCCCCCCCCCCC$qCCCC4&8776#>kjjzVCCCCCCCCCCCCCCCC",
"CCCCCCCCCCCCCCC$qCCCC4-CCCCi++oOo=nCCCCCCCCCCCCCCC",
"CCCCCCCCCCCCCCC$qCCCC4;CCCCpOzcvx;=CCCCCCCCCCCCCCC",
"CCCCCCCCCCCCCCC%qCCCC4;CCCCioNCCCx+@o&9MCCCCCCCCCC",
"CCCCCCCCCCCCCCC$qCCCC4;CCCCpONCCCv@4e0*@jCCCCCCCCC",
"CCCCCCCCCCCCCCC%qCCCC4-CCCCpoNCCCcOjCCV6@bCCCCCCCC",
"CCCCCCCCCCCCCCC$qCCCCy9CCCCz:VCCCvOjCCCV@rCCCCCCCC",
"CCCCCCCCCCCCCCC$qCCCCCCCCCCCCCCCCvXjCCCC%qCCCCCCCC",
"CCCCCCCCBxbCCCC$qCCCCCCCCCCCCCCCCVtNCCCC$qCCCCCCCC",
"CCCCCCCp@oo8CCC$qCCCCCCCCCCCCCCCCCCCCCCC%qCCCCCCCC",
"CCCCCCNO4bto6CC#qCCCCCCCCCCCCCCCCCCCCCCC$qCCCCCCCC",
"CCCCCCxOvCCio6C$qCCCCCCCCCCCCCCCCCCCCCCC%qCCCCCCCC",
"CCCCCCMOyCCCuo7%qCCCCCCCCCCCCCCCCCCCCCCC$qCCCCCCCC",
"CCCCCCC6#NCCCuO@qCCCCCCCCCCCCCCCCCCCCCCC%qCCCCCCCC",
"CCCCCCCb+wCCCCiOqCCCCCCCCCCCCCCCCCCCCCCC$wCCCCCCCC",
"CCCCCCCC9@MCCCCjbCCCCCCCCCCCCCCCCCCCCCCV+tCCCCCCCC",
"CCCCCCCCM@9CCCCCCCCCCCCCCCCCCCCCCCCCCCCMosCCCCCCCC",
"CCCCCCCCCe@bCCCCCCCCCCCCCCCCCCCCCCCCCCClOxCCCCCCCC",
"CCCCCCCCCV$4CCCCCCCCCCCCCCCCCCCCCCCCCCCtOVCCCCCCCC",
"CCCCCCCCCCyOcCCCCCCCCCCCCCCCCCCCCCCCCCC:<CCCCCCCCC",
"CCCCCCCCCCV*<CCCCCCCCCCCCCCCCCCCCCCCCCnouCCCCCCCCC",
"CCCCCCCCCCCaokCCCCCCCCCCCCCCCCCCCCCCCCuoMCCCCCCCCC",
"CCCCCCCCCCCC--CCCCCCCCCCCCCCCCCCCCCCCC:>CCCCCCCCCC",
"CCCCCCCCCCCClOpCCCCCCCCCCCCCCCCCCCCCCb+iCCCCCCCCCC",
"CCCCCCCCCCCCC1%VCCCCCCCCCCCCCCCCCCCCCuOMCCCCCCCCCC",
"CCCCCCCCCCCCCvOeCCCCCCCCCCCCCCCCCCCCC:>CCCCCCCCCCC",
"CCCCCCCCCCCCCC0+bCCCCCCCCCCCCCCCCCCCboiCCCCCCCCCCC",
"CCCCCCCCCCCCCCB&2CCCCCCCCCCCCCCCCCCCuOMCCCCCCCCCCC",
"CCCCCCCCCCCCCCCpohCCCCCCCCCCCCCCCCCC:,CCCCCCCCCCCC",
"CCCCCCCCCCCCCCCC>&VCCCCCCCCCCCCCCCCnOiCCCCCCCCCCCC",
"CCCCCCCCCCCCCCCCv+;4343434343434344>OMCCCCCCCCCCCC",
"CCCCCCCCCCCCCCCCCs;;;;;;;;;;;;;;;;;;9CCCCCCCCCCCCC",
"CCCCCCCCCCCCCCCCCCCCCCCCCCCCCCCCCCCCCCCCCCCCCCCCCC",
"CCCCCCCCCCCCCCCCCCCCCCCCCCCCCCCCCCCCCCCCCCCCCCCCCC",
"CCCCCCCCCCCCCCCCCCCCCCCCCCCCCCCCCCCCCCCCCCCCCCCCCC",
"CCCCCCCCCCCCCCCCCCCCCCCCCCCCCCCCCCCCCCCCCCCCCCCCCC",
"vbbbbbbbbvbbbbbbbbbvbbbbbvbbbbbbbbbbbvbbbbbbbbvbbv",
"CCCCCCCCCCCCCCCCCCCCCCCCCCCCCCCCCCCCCCCCCCCCCCCCCC",
"CCCCCCCCCCCCCCCCCCCCCCCCCCCCCCCCCCCCCCCCCCCCCCCCCC",
"CCCCCCCCCCCCCCCCCCCCCCCCCCCCCCCCCCCCCCCCCCCCCCCCCC",
"CCCCCCCCCCCCCCCCCCCCCCCCCCCCCCCCCCCCCCCCCCCCCCCCCC",
"CCCCCCCCCCCCCCCCCCCCCCCCCCCCCCCCCCCCCCCCCCCCCCCCCC",
"CCCCCCCCCCCCCCCCCCCCCCCCCCCCCCCCCCCCCCCCCCCCCCCCCC",
"CCCCCCCCc3<pCCCCCCCCCCCCCCCCCCCCCCCCCCCCCCCCCCCCCC",
"CCCCCCCx    qCCCCCCCCCCCCCCCCCCCCCCCCCCCCCCCCCCCCC",
"CCCCCCC:     0cCCCCCCCCCCCCCCCCCCCCCCCCCCCCCCCCCCC",
"CCCCCCC-       +0cCCCCCCCCCCCCCCCCCCCCCCCCCCCCCCCC",
"CCCCCCCq    %f<   +0cCCCCCCCCCCCCCCCCCCCCCCCCCCCCC",
"CCCCCCCC<  +vCCVf<   +0cCCCCCCCCCCCCCCCCCCCCCCCCCC",
"CCCCCCCCC; MCCCCCCVs:   $0cCCCCCCCCCCCCCCCCCCCCCCC",
"CCCCCCCCC7 hCCCCCCCCCVs<   $0cCCCCCCCCCCCCCCCCCCCC",
"CCCCCCCCCp rCCCCCCCCCCCCVp:   #wvCCCCCCcujCCCCCCCC",
"CCCCCCCCCv :CCCCCCCCCCCCCCCVg1   +8cCCq   =CCCCCCC",
"CCCCCCCCCN %CCCCCCCCCCCCCCCCCCVf<   +6     yCCCCCC",
"CCCCCCCCCC+ CCCCCCCCCCCCCCCCCCCCCVf<       0CCCCCC",
"CCCCCCCCCC< cCCCCCCCCCCCCCCCCCCCCCCCVi     yCCCCCC",
"CCCCCCCCCCq fCCCCCCCCCCCCCCCCCCCCCCCCC0   *CCCCCCC",
"CCCCCCCCCCp rCCCCCCCCCCCCCCCCCCCCCCCCCCu <CCCCCCCC",
"CCCCCCCCCCc 2CCCCCCCCCCCCCCCCCCCCCCCCCCl 6CCCCCCCC",
"CCCCCCCCCCV $CCCCCCCCCCCCCCCCCCCCCCCCCCl 6CCCCCCCC",
"CCCCCCCCCCC+ VCCCCCCCCCCCCCCCCCCCCCCCCCl 6CCCCCCCC",
"CCCCCCCCCCC- bCCCCCCCCCCCCCCCCCCCCCCCCCl 6CCCCCCCC",
"CCCCCCCCCCC0 gCCCCCCCCCCCCCCCCCCCCCCCCCl 6CCCCCCCC",
"CCCCCCCCCCCf 8CCCCCCCCCCCCCCCCCCCCCCCCCl 6CCCCCCCC",
"CCCCCCCCCCCv 2CCCCCCCCCCCCCCCCCCCCCCCCCl 6CCCCCCCC",
"CCCCCCCCCCCV %CCCCCCCCCCCCCCCCCCCCCCCCCl 6CCCCCCCC",
"CCCCCCCCCCCC# VCCCCCCCCCCCCCCCCCCCCCCCCl 6CCCCCCCC",
"CCCCCCCCCCCC2 cCCCCCCCCCCCCCCCCCCCCCCCCk 6CCCCCCCC",
"CCCCCCCCCCCC0 fCCCCCCCCCCCCCCCCCCCCCCCCl 6CCCCCCCC",
"CCCCCCCCCCCCp wCCCCCCCCCCCCCCCCCCCCCCCC0 -NCCCCCCC",
"CCCCCCCCCCCCc <CCCCCCCCCCCCCCCCCCCCCCC:   XVCCCCCC",
"CCCCCCCCCCCCC +CCCCCCCCCCCCCCCCCCCCvs3     wCCCCCC",
"CCCCCCCCCCCCC+ CCCCCCCCCCCCCCVcp6=         8CCCCCC",
"CCCCCCCCCCCCV* fCCCCCCCCCci6*     X<wf     fCCCCCC",
"CCCCCCCCCCCV+   wCCCcp6*     X<wjMCCCCf   6CCCCCCC",
"CCCCCCCCCCC0     7=     X<wjMCCCCCCCCCCVzmCCCCCCCC",
"CCCCCCCCCCC:       X,wjMCCCCCCCCCCCCCCCCCCCCCCCCCC",
"CCCCCCCCCCCt     jMCCCCCCCCCCCCCCCCCCCCCCCCCCCCCCC",
"CCCCCCCCCCCV*   pCCCCCCCCCCCCCCCCCCCCCCCCCCCCCCCCC",
"CCCCCCCCCCCCCjpmCCCCCCCCCCCCCCCCCCCCCCCCCCCCCCCCCC",
"CCCCCCCCCCCCCCCCCCCCCCCCCCCCCCCCCCCCCCCCCCCCCCCCCC",
"CCCCCCCCCCCCCCCCCCCCCCCCCCCCCCCCCCCCCCCCCCCCCCCCCC",
"CCCCCCCCCCCCCCCCCCCCCCCCCCCCCCCCCCCCCCCCCCCCCCCCCC",
"CCCCCCCCCCCCCCCCCCCCCCCCCCCCCCCCCCCCCCCCCCCCCCCCCC",
"CCCCCCCCCCCCCCCCCCCCCCCCCCCCCCCCCCCCCCCCCCCCCCCCCC",
"CCCCCCCCCCCCCCCCCCCCCCCCCCCCCCCCCCCCCCCCCCCCCCCCCC",
"CCCCCCCCCCCCCCCCCCCCCCCCCCCCCCCCCCCCCCCCCCCCCCCCCC"
"vbbbbbbbbvbbbbbbbbbvbbbbbvbbbbbbbbbbbvbbbbbbbbvbbv",
"CCCCCCCCCCCCCCCCCCCCCCCCCCCCCCCCCCCCCCCCCCCCCCCCCC",
"CCCCCCCCCCCCCCCCCCCCCCCCCCCCCCCCCCCCCCCCCCCCCCCCCC",
"CCCCCCCCCCCCCCCCCCCCCCCCCCCCCCCCCCCCCCCCCCCCCCCCCC",
"CCCCCCCCCCCCCCCCCCCCCCCCCCCCCCCCCCCCCCCCCCCCCCCCCC",
"CCCCCCCCCCCCCCCCCCCCCCCCCCCCCCCCCCCCCCCCCCCCCCCCCC",
"CCCCCCCCCCCCCCCCCCCCCCCCCCCCCCCCCCCCCCCCCCCCCCCCCC",
"CCCCCCCCc3<pCCCCCCCCCCCCCCCCCCCCCCCCCCCCCCCCCCCCCC",
"CCCCCCCx    qCCCCCCCCCCCCCCCCCCCCCCCCCCCCCCCCCCCCC",
"CCCCCCC:     0cCCCCCCCCCCCCCCCCCCCCCCCCCCCCCCCCCCC",
"CCCCCCC-       +0cCCCCCCCCCCCCCCCCCCCCCCCCCCCCCCCC",
"CCCCCCCq    %f<   +0cCCCCCCCCCCCCCCCCCCCCCCCCCCCCC",
"CCCCCCCC<  +vCCVf<   +0cCCCCCCCCCCCCCCCCCCCCCCCCCC",
"CCCCCCCCC; MCCCCCCVs:   $0cCCCCCCCCCCCCCCCCCCCCCCC",
"CCCCCCCCC7 hCCCCCCCCCVs<   $0cCCCCCCCCCCCCCCCCCCCC",
"CCCCCCCCCp rCCCCCCCCCCCCVp:   #wvCCCCCCcujCCCCCCCC",
"CCCCCCCCCv :CCCCCCCCCCCCCCCVg1   +8cCCq   =CCCCCCC",
"CCCCCCCCCN %CCCCCCCCCCCCCCCCCCVf<   +6     yCCCCCC",
"CCCCCCCCCC+ CCCCCCCCCCCCCCCCCCCCCVf<       0CCCCCC",
"CCCCCCCCCC< cCCCCCCCCCCCCCCCCCCCCCCCVi     yCCCCCC",
"CCCCCCCCCCq fCCCCCCCCCCCCCCCCCCCCCCCCC0   *CCCCCCC",
"CCCCCCCCCCp rCCCCCCCCCCCCCCCCCCCCCCCCCCu <CCCCCCCC",
"CCCCCCCCCCc 2CCCCCCCCCCCCCCCCCCCCCCCCCCl 6CCCCCCCC",
"CCCCCCCCCCV $CCCCCCCCCCCCCCCCCCCCCCCCCCl 6CCCCCCCC",
"CCCCCCCCCCC+ VCCCCCCCCCCCCCCCCCCCCCCCCCl 6CCCCCCCC",
"CCCCCCCCCCC- bCCCCCCCCCCCCCCCCCCCCCCCCCl 6CCCCCCCC",
"CCCCCCCCCCC0 gCCCCCCCCCCCCCCCCCCCCCCCCCl 6CCCCCCCC",
"CCCCCCCCCCCf 8CCCCCCCCCCCCCCCCCCCCCCCCCl 6CCCCCCCC",
"CCCCCCCCCCCv 2CCCCCCCCCCCCCCCCCCCCCCCCCl 6CCCCCCCC",
"CCCCCCCCCCCV %CCCCCCCCCCCCCCCCCCCCCCCCCl 6CCCCCCCC",
"CCCCCCCCCCCC# VCCCCCCCCCCCCCCCCCCCCCCCCl 6CCCCCCCC",
"CCCCCCCCCCCC2 cCCCCCCCCCCCCCCCCCCCCCCCCk 6CCCCCCCC",
"CCCCCCCCCCCC0 fCCCCCCCCCCCCCCCCCCCCCCCCl 6CCCCCCCC",
"CCCCCCCCCCCCp wCCCCCCCCCCCCCCCCCCCCCCCC0 -NCCCCCCC",
"CCCCCCCCCCCCc <CCCCCCCCCCCCCCCCCCCCCCC:   XVCCCCCC",
"CCCCCCCCCCCCC +CCCCCCCCCCCCCCCCCCCCvs3     wCCCCCC",
"CCCCCCCCCCCCC+ CCCCCCCCCCCCCCVcp6=         8CCCCCC",
"CCCCCCCCCCCCV* fCCCCCCCCCci6*     X<wf     fCCCCCC",
"CCCCCCCCCCCV+   wCCCcp6*     X<wjMCCCCf   6CCCCCCC",
"CCCCCCCCCCC0     7=     X<wjMCCCCCCCCCCVzmCCCCCCCC",
"CCCCCCCCCCC:       X,wjMCCCCCCCCCCCCCCCCCCCCCCCCCC",
"CCCCCCCCCCCt     jMCCCCCCCCCCCCCCCCCCCCCCCCCCCCCCC",
"CCCCCCCCCCCV*   pCCCCCCCCCCCCCCCCCCCCCCCCCCCCCCCCC",
"CCCCCCCCCCCCCjpmCCCCCCCCCCCCCCCCCCCCCCCCCCCCCCCCCC",
"CCCCCCCCCCCCCCCCCCCCCCCCCCCCCCCCCCCCCCCCCCCCCCCCCC",
"CCCCCCCCCCCCCCCCCCCCCCCCCCCCCCCCCCCCCCCCCCCCCCCCCC",
"CCCCCCCCCCCCCCCCCCCCCCCCCCCCCCCCCCCCCCCCCCCCCCCCCC",
"CCCCCCCCCCCCCCCCCCCCCCCCCCCCCCCCCCCCCCCCCCCCCCCCCC",
"CCCCCCCCCCCCCCCCCCCCCCCCCCCCCCCCCCCCCCCCCCCCCCCCCC",
"CCCCCCCCCCCCCCCCCCCCCCCCCCCCCCCCCCCCCCCCCCCCCCCCCC",
"CCCCCCCCCCCCCCCCCCCCCCCCCCCCCCCCCCCCCCCCCCCCCCCCCC"
};
