/* XPM */
static char *_010_bfb563de197b2dcac96ef63c80c403c71e5fed8917cc511c1eda4e1d99231d8f[] = {
/* columns rows colors chars-per-pixel */
"89 71 21 1 ",
"  c #824100",
". c #924900",
"X c #A65100",
"o c #B65504",
"O c #CB5D04",
"+ c #E36930",
"@ c #E77938",
"# c #DB8645",
"$ c #DF9259",
"% c #EB8641",
"& c #EF9249",
"* c #F3A251",
"= c #F3AE5D",
"- c #F3BA65",
"; c #F7C775",
": c #F7D37D",
"> c #FBDB8E",
", c #FBE396",
"< c #FBEBA6",
"1 c #FFF3AE",
"2 c None",
/* pixels */
"2222222222222222222222222222222222222222222222222222222222222222222222222222222222222+222",
"222222222222222222222222222222222222222222222222.2.222222222222222222222222  22222222%o22",
"2222222222222222222222222222222222222222222222222=.222222222222222222222222XO222222O**+22",
"2222222222222222222222222222222222222222222222222o=o22222222222222222222222 X2222222@=O22",
"22222222222222222222222222222222222222222222222222oo222222222222222222222222 2222222==@22",
"222222222222222222222222222222222222222222222222222222222222222222222222222222222222==+22",
"22222222222222222222222222222222222222222222222222222222222222222222222222222222222222222",
"222222222222222222222222222222222222222222222222222222222222222222222222222222.2222222222",
"22222222222222222222222222222222222222222222222222222222222222222222222222222OO2222222222",
"2222222222222222222222222222222222222222222222222222222222X@%&&*=@ 222222222.@ 22222222. ",
"222222222222222222222222222222222222222222222222222222OX.OO%*=-=-;-@. 222222 X22222222222",
"22222222222222222222222222@X222222222222222222222222@@O@@@%&&*====@@%OoX   2 X . 22222222",
"22222222222222222222222 Xo@&o.222222222222222222222@&2.O%=&oO&*&&@2 X.OO@@o2 O. 222. 2222",
"22222222222222222222222X@OO*=&@ 2222222222222222222&&%--%o .&&&OX.2&=*&*=*o22222 22 22222",
"222222222222222222222222oXO==*==@222222222222222222%*=-@  22o*%o222X%O&==&@ 2222 222 2222",
"2222222222222222222222222O*==**=-o22222222222222222.@&&Oo222X=%.2222..o%&&O  222...OO2222",
"2222222222222222222222222*==-==&%& 222222222222222222o222222 @& 22222222  2222222O@O22222",
"222222222222222222222222o===;-;-@@O2222222222222222222222@O. @*@. .2222222222222222222222",
"2222222222222222. XOXOOO*=*---->-%@o222222222222222222222 %OX&*&OXXo . 222222222222222222",
"222222222222222O==*=====----===-;;=o2222222222222222222222  X=&OOOoOO 2222222222222222222",
"2222222222222X*;----------;:---;-;:*X 2222222222222..222222.X&&OOoO%.22222222222222222222",
"22222222222.@=-----------;:::;;--;;;=%.22222222222X. . 22X%&o@=*% X@222222222222222222222",
"2222222222o&-------;;;---;>:>:----;;;&o 2222222222XX22 XXX*&&&=@@Oo%oXX22222.%&@.22222222",
"222222222X*;;;:;;--;:;----;::>;===-;--*X 22222222 Ooo..OXO&*&@@O22O-*O X.2.&-=**&22222222",
"222222222o=:;;;;;;;;---;;;--;:>-=--;::;=@X2222222O@OOOXO@O %&&%X22.-=&@@%%=:=&*=&22222222",
"22222222.&-:;-;;-;;----;-;;--;>>;:;;::>,>;*@.2222.o@OX.o%@O%==%  o@*=--==-;;&&--= 2222222",
"22222222O&=:;-;--------;-;;;;;;-==-;:>::,,>;=@ 222X@@OX.O======O&*&&=----;;=&*;;@22222222",
"22222222@*&-;>:;:;;;;:;;;;;;;;;-==-:,,>:>,>:==%22OO@@Xo@&&&&*=-=%Oo@&==*-;-=&=--X22222222",
"22222222O&==-;:>>::::>;;:;;;:::--;;:>>>>::,,;=*oO&@O222.O*=*&*-&O%&&*--&=-====-;&22222222",
"22222222X@=-;-->,>>>>:;:;:;;>,>:;;;---:;--::,>-&%@@.22222*-=*=-&====-:;===---==--@2222222",
"222222222@=-;--><,,>>:,>::;;>,>>:;-==-;-----:,<-&&@.X 2X&=-==--=&%&-=-;===-:-===-&2222222",
"222222222%@@@%->><,>>,<,,>>,,,>>::::--:;:;---;>,:-==-*O&*-;-=---&O@-==--==-;--=-=@2222222",
"222222222oX..%,:,<<,,,,,,,,<,,,,,:::;-;:>;;;---:::;::;;-=;;;-----==----;-=*=---=*X2222222",
"22XX@%%&&&%&&:>>,,<<,,,,>>,,,,,,,>:>:;--;:;;;;;;;;:;;:>::;;---=----;;;;-&@%=--=*O.2222222",
"22.*-=&&&%*&&=:,>,1<,>,,>>>>,,,,,,>:,:---;--;;;;;;--::;;:;---=@O*==->:;*@%==-*&@XooX22222",
"2XX&&XXOooO=;;>111<<<,,<,,>:>,,,<,>-==;;-----------=-;----=*-;&Xo%-::;-&&*=*&@O@OO.222222",
"XXO&O22222O-1,<11<<1<,>,<,:;;>>,,;*@&=-:;--====---===-;-==&&&=---;>:;-=&&==&OXo@Oo2222222",
"22222222222;1,<<1111<<,,<,>::;:>=@@O-:->;=====&=--===-;-=&=%@@-:>:;---&&&--&OOOO. 2222222",
"22222222222,<,<<111111111<,>;-:-Oo@O&;;;-===**==----;---*&=*=->>;---=%@==-;-*%@X222222222",
"222222222222>>11<111111<11<>-=*@oO@Oo@*===%@%&==----=&==&=--->,;--==&@*==;--&%*@222222222",
"222222222222&-,<<11111<<111>:;==&O@OXXoO@%@%@&==*&*&&*&=----::-=*=-=*=-==;;-Oo*-o22222222",
"222222222222O==;>1<<111111<>,,,>-&OOXXXO@O@OoO&%O@&&===-;-=;>-=&&&---;;--;;-&o.O222222222",
"2222222222222oo=><<<<,<1<>>:::>,;-OOoXXXOOoooOoO&==-=-=*---;;=*===---:;;;::-@.22222222222",
"2222222222222.X&>>,,<<<11,:;,,,,<-OoooX..ooX...&====-=**-=-;;--=-;;:;;--;>:;*@ 2222222222",
"22222222222222.o@%:>,11<<,>,<><<<;@oXXXXXXOoX X@&&&*=-==---;;;:;;::::;;;>>>:=*%2222222222",
"222222222222222..X=>,<11<>,<<;><<>%ooXXoXXoXX. O&**===--::>:::::,,>::>>>,>,>;=%2222222222",
"2222222222222222XX&:1<<1<,,<,:>:<<%@OoXXX XXXXXO&==--;:>>::>>::,,,,::>,,,>,,:=&2222222222",
"2222222222222222.X%;1<,<,,,,,>::><&%&&@@oXXO@@@O@&=-::;>>;;:::>:>,>:>,,,,,>,:-$%222222222",
"2222222222222222.@-=:,><<<,<<,>;-=*****&%&%%&&%%%%=;>>;>;-;;;:>:>,>:>,,><<,<,;=%222222222",
"2222222222222222X&:-=:<<11<<,,,;***====*&****&&&&&;:>>>,;-;;;;::::>>>,,,,,<<,>=#@22222222",
"222222222222222XO;>:-:<,,11,>,,:=**=-=========**&*-;>,,,>>:-;;;;;;:,>>>,>,,,,:=&@22222222",
"22222222222222oO=;:>:>,,><1<,,<>;==--------====*&*&*-<,,>>,>;::--=->>::>,,,>>;=&@22222222",
"2222222222222o@=-;:>,>>,,<<,,,<>::-------===========-,,,>>>>;:>;;--:>::>,,>,>;=*%22222222",
"2222222222222O*;::>,<,,,,<>>,>,,::;-------=-========-:>>>::>:>,>>:-;>;-;><,,:-=&#22222222",
"2222222222222@-;>><<,,<,:,>:>>,<,>:;-------=========->:-;:;>>:,>>:-;>;=-:,,>:-=&%22222222",
"222222222222+$-><<<,>>>:;:>>>>,,,>>:;--;---===-=====>:--;>:;>;>,>>::;::>>,>:;-=&#22222222",
"222222222222#$;,<<<:>>:::;:,,,,,:::>>:::;;-=======*=::;:,---::;:>:;;;:,>:,:;;-=&%22222222",
"222222222222%->,,,>;;;;:>>:>,<,,::;::>>:;-===*===----:,>>*-;;;:;:---;:>>:>>:;-=&%22222222",
"22222222222+=;>>>>>:>-;>>>;->,,>::;--------=====------>>>=->:-:>::::>>:>::>:;-=&%22222222",
"22222222222%;>>>>>>>>:;>;--;>>>;;:;;--=-;>-==**====--=:>:=-,:->>>>>-;>>;:>>:;-*@@22222222",
"22222222222=;>:>,>>>,>;:;--;;-;>;;:;--=--;-==*&&*=*-;-;>>=&,:;>:::>-;>;;>:>>;-*@@22222222",
"22222222222=:::,>,,>,,>;;;;;-=->>:;---===;==*&&&&&*-:-;,,-=,-;,;-;-;:::>::>>--=%222222222",
"22222222222=:>>>,<>>,>>>:;;----;>>:---;--:=&&*&@%&=-:-:;:*&,;;,>;:-=-;:--::>;-*@222222222",
"22222222222=:,,>>,>>,,>>::;---;::>:--:>-;>;=&---%O%*--=O=*&<>;:>>:-----=--:,;=&%222222222",
"22222222222=:>>>>>>,>:;;:::;;->>::::-;:;;-;-&&*:=@@*@OoXo%;,>:;;::-;;-=*;-;:;=&%222222222",
"22222222222=;:>>>>>>,:----;;;-:::;::;;;-=--;-=-:--*@OoXo%=>>>>;;;;----&*:::;;=%&222222222",
"22222222222%*;:>:>:>,>;-==-;;-;;---;:;-----:>;;:=&@@@@@&=->,>>:;;;-===&;>:;-=&&2222222222",
"222222222222%*;,>:::>,::;-;;;;------:;-=-==-----&&&&&%&-;;,,,>::;;;==*=;:;==*&&2222222222",
"222222222222@@=;:--;:>>:;;;------=--;;-=====;-;=%&&=-&=:::>,::::;---**-*===*&%22222222222",
"2222222222222@@*--*=;;:;--===-=======-=***&=;---*=--==-;-;:;;-;:;===&&&&&=*&%222222222222",
"2222222222222222+@%&*=-==***=-*=*&*====&&%&&=-=====**--==;-====--==&&=*&%@+22222222222222"
};
