/* XPM */
static char *_2585_e0085d24981f7fda1000948ff9a2a689cce416d322ddcbd3caedd65ae68dd1e3[] = {
/* columns rows colors chars-per-pixel */
"90 70 22 1 ",
"  c #824100",
". c #924900",
"X c #A65100",
"o c #B65504",
"O c #CB5D04",
"+ c #CF6918",
"@ c #E36930",
"# c #E77938",
"$ c #DF9259",
"% c #EB8641",
"& c #EF9249",
"* c #F3A251",
"= c #F3AE5D",
"- c #F3BA65",
"; c #F7C775",
": c #F7D37D",
"> c #EFAE8A",
", c #FBDB8E",
"< c #FBE396",
"1 c #FBEBA6",
"2 c #FFF3AE",
"3 c None",
/* pixels */
"33333333333 X33333333333333333333333333333333333333333333333333333333333333333333333333333",
"33333333333.&.3333333333333333333333333333333333333333333333333333333333333333333333333333",
"33333333333 &X33333 333333333333333333333333333333333333X.33333333333333333333333333333333",
"33333333333## 33. 3##333333333333333333333333333333333333333333333333333333333333333333333",
"33333333333oOX o&&X&=o33333333333333333333333333333333333333333333333333333333333333333333",
"333333333333 O&&*=O#*=#.333333333333333333333333333333333333333333333333333333333333333333",
"3333333333333o=*&=&#*--*.33333333333333333333333333333333333333333333333333333333333333333",
"33333333333333 o&*=**=-*#X3333333333333333333333333333333333333333333333333333333333333333",
"3333333333333333#*--=-;=&&o3333333333333333333333333 .333333333333333333333333333333333333",
"3333333333333333o#==;::;==-*O.3333333333333333 X333O**o33333333333333333333333333333333333",
"33333333333333.o&=--,:;;=*=---=#X33333333333333 333X&==o# 33333333333333333  33#%333333333",
"3333333333 X#&=-;------=====*=--=#33333333333333333O=-=&#.33o### O# 33333 O#OO#&o 33333333",
"3333333 .#=-;-===*==-;----;-===---#3333333333333 X&-=*&o333o##O.X&.33333X&&%%#OX..X.333333",
"33333.#&*-===**====*==---=-;--==--=O33333333333X#=--#oO3333oX.33 O3333.oO#&**&%#o.XX333333",
"3333o&==--========&*==----=====*---;=o333333333X#==*O333333333 .3O.3 .XO.o##%&*=&O 333X333",
"333#*&=-;;;--------=----===&---=;;;-=-O3333333333X%* 333333333 O. Xo.3X. OOOOO%%*=&O33. 33",
"33O*****-;;;----;;:-===---=&--;-;:;-=;*333333333333.33333333 .X.3.3333333 X%&&&%&&**O33333",
"3X&%#==&;,;;,:::;;;:;---;:---=--::;::-O3333333.333333333333333. o*O33333333%*&&==OOoX 3333",
".O%#%*&=;,:::,,,:::,,,,:;,;--=;;;,::<,* 333333 3333333333333333.&*&o3333333o&=&=-%#O o#%=O",
"X#%&=&&-,,;;:,,<<<<<<1,;-;;**===-<,,<<;%.3333 OX3 3333333 33333...o3333333 o.X*===&%oXO%# ",
"X#*&&==-,:::;:,,,<<<111:;;;;;;==-,,,,,:;* 333.%O.o 3  333 33333X3333XX3 .  333 &-*%%OXOX33",
"X&=**-*;<:,,,:,,;:,,<11<,,:,:,:;;,:;,,:-=*o33 ##ooo33333333333.X3333&# ..X 33333O.3Xoo.333",
".==&-;;;:,<,<<,<,,,,,<,<,;-:,,,:;,,--;-=-;&OX3Oo33333333o333.XOOo 3X*O  .Oo333333333333333",
".&&&:<,-,1<<<<<11<,:,<:;,-=-:---:1-=-;:;;;=*#O%33333333.#.3O.3 OooO&%OX.O#o333333333333 33",
"3#&o&,:;<1,11<<<1,:-;:==-;--;:<<<-O=:-::-;-----#333333oO&##O  ##o%*%OOoo%#X333333333333333",
"3#*oo-<<<1<<<1<<<,;===*-==;::,,;# .*;=&;;-:-----X3333O&&===%#&=O%*&&#%O#&#.333333333333333",
"333O&,,:,<<,<1<,,,;=--*==*&&##X3333.O==-:;;;=#O&& 3o%==--***&&#%&**=*&O&&# 333333333333333",
"3333#:=#=,,<<<11,<:--;=*=&OOOo333X#oX&&=--;;-%oO&%%%#=--=*=-&##%O===-***&#3333333333333333",
"3333X#XO=,<11111<1<::,:;=###o.33.#&O.&*=**=-=-=#&*&#&=---;;-=**%%-----;==*O333333333333333",
"333333X=:<111111<<1<,<1<:-;&333 #*&OX%*=**=====*=====---;:;---=%%----::;&&3333333333333333",
"3.333. X&:,<1121<,<<<<11<:;& 33X&==%XO===-==--*&*==&=;-;:,:-=;-O&---;<:-*#3333333333333333",
"3333..  O=*,2111<<<<<<<11:=*#33O*%&OO--=-;----====*-;;;,,:-=--%.O--;:<:==&3333333333333333",
"33333.. XXo&:11,<<<11<:,1;Oo 33X=%#XO-;;-=====*=;;::,;:::-=-;=XX#--:<:-=-=&333333333333333",
"3333.  XO3 .%,,=;<<<<,:-*-% 33 X#==%&==*&&*&%=-:1,::,:,:-;;;-=OO=-;,,:---;-333333333333333",
"33.X.. XO. X*-;--;<,<;;:-*&X3 XX O&*#O####*=&=--<,,<<<<:----=*#%=-:::::;;:;-33333333333333",
"33XX.... . X-;;:,-:,<,-;,;#33XX. .X..XXXoO&====*-,<<1<,,;-=&*-==--:;;;:,,::*33333333333333",
"33X##XXXX. .=,:::;;<:1:-,:#X#OX. .XooX33 #-,-=&=;,<,<,<<,-*#%-;-=-:;--;,<:-*33333333333333",
"33&-#X&#.. o-;:;:,-,:1<:,1:-;#XX.  XX.  3X=::=&-,<,:,,<<1<:---;:--<,:-:,<:;=%3333333333333",
"3#=&X#-%X. O--;-,::<,1<<;,1,;OX.X....  OX.#-:,,<11<<<<,<<<<<::,<,:<1,;:,,:;;*3333333333333",
"3#-#O-:OOO X=-;;<,,21<1<==--&#oXXXXX.. Xoo%;<1211<<<<<1111<<<<<<<,<<<,<,,:;-=&333333333333",
"##=O#:,**=OX#-;<1112212:*=-=%%#oXooXXXXX#-,12211<,::,,<<<<<,11<<<,:,<<<<<<:--=%33333333333",
"33#O#;<,,--=O-:21<<1<11<*=-*&&&#OOoOO#O#:111;:1,:,,:,,,<1,,,<<<<,::,1<,<<<,;-=&33333333333",
"33#&-:<;;:=-&=,2<<<<<<<2;-=%&*-=%#O#%##=<,<:=<<--,<,,<,<<,:,,<<,:;,<<<,,<<,:-*&33333333333",
"3#%=;;,:--=%*:<211,<1<<11,=*=-:;-*%%&#&;<1,-:<<:;,<<<<<,<,::;;;;,,,:,,,:<1:,;=$%3333333333",
"33%%-;-&=-:=:<121<,:<1<,<1<<<<,:;;-*;==:,<=&,<1<,:,,<<:;,,;;--::,<,::,,:,<,,:-*%3333333333",
"33@-;--OO#%-,,12<-::,1<:,<,,,,,,,<<<,;-;::;-,,<<<<<<<1,:1<;;:,,;,<,,,<,<;:<<:-&#3333333333",
"3@@%;-:**=-,,<11<--<<1<,,<<,,,,,1211<:;,,::,<,::-<1111122,;;;,,,<<<<,<1<:,1<;=%33333333333",
"33&&;-:,1<<<1<<<1,-,<1<<<,<<<<,<<1111,:<,::;::--;:,<<,<,,:;-;,:,1<<<<1<<<<<:-&&33333333333",
"33&&;:,,<,,<<:,,<,:,<111<::<<,,::,<<<,;;:;=&==&*---;,,:::,::,,;:1<<<1,,<<<,;&&%33333333333",
"33@%;,,;:::,,<<,,1<,,<11::,<,::;;,,::;==;-*&&&&&&=--::--:,<<,:;;,,<1,:<<<,;=&#333333333333",
"333%-::<,<,:,<<,<<<,==:<,;<<:::::,::,-=---==***&&&-=;,-=-;,<,::,,,1,:<11<;=&33333333333333",
"333%-:11,,1<<1,,1,:,=*--:;<<,:::,,,::;-----=====&%&&-,:----,:::,,<<,<<11:=&333333333333333",
"333%>:<1<1111<;:<:-:;===;;<<::::,,,,,,;--=======*&*=-::----;;:<<<<<,<,<,;&%333333333333333",
"333#*-:1<1<11<;;,;-,<,:;,:1<,:::,,;;---=--=====*&&*--::;-;;=-:<11<<,<<,;*%3333333333333333",
"3333%=-,,<<<11,:<;-<1,--:,1<,:;:,,-----=------=*&&&=-;::-;-=-:<<<<<<<<:*%%3333333333333333",
"33333%-:,<<111<,,;:,,:--:11<,,,:::----------===&&&%*--::-;-=::::<1<<<<:=&#3333333333333333",
"33333@*;,<<1211<::;;::;;<11<<<;;;;---==;:-==***&&&%&==;:-;=-,,;-:,,<<<:=&33333333333333333",
"33333#*;<,,<11<<,,;:<;:<<21<<:-::--=--;:;=:-**&**&%%#*:---*-,,;-;;;,<<:=%33333333333333333",
"33333%*;,,:,,<<1<,:<<::<1111,;:,:--=;:::--,=***&%OoXo=;-;=*;::-;;-;:<<:&333333333333333333",
"33333%*;::::,,,,<1<<<::<1<,<,:,,,---;:;,::;&&&&=-%oX&;::-=-:;;=-==:,,,-%333333333333333333",
"33333#=::;::,<,:<1<<<,:,<<,<,;;:,,,<,:,;-;=&&&-:<<-=-:,;==--;-&-=-;,,:=#333333333333333333",
"33333#-::;::,,,<,,,<1<,,,<<<:--;:--;----*-=%#*1,:,,::<:-=--;;=*-=;;,,:=+333333333333333333",
"33333&-;:;::,,,,,,<<<<,,,,,::-;;;;=--=--==;-=;,<<:<:,,,;;;;;;=--&-,,,:=&333333333333333333",
"33333%*-:;:,,,<,,,,,<<<::::::;:---==----=--;;,;;<<,,,,:;::::----&-<,,:=&333333333333333333",
"33333%*-;;:<,;1<:::::,,:;,,:,;;---==----==;--;-::,<<,:;;::,,;--;;-;::;&&%33333333333333333",
"333333%*-;:;;-<,:::,,,,:;-:::;;;--==-==-**=-;-=::,<,,,,::;:,;;::-*-;;-&%%33333333333333333",
"333333%%*-;;-;,;;:,:,,::;--;:-;;;----===&*=;;;;:;,<,,,,,;;:<:;;:===---=&%33333333333333333",
"3333333%%*--;;,;-:,;;;;:----;------;-===**=---;--,,;;::;--:,,:;,;==--=*#333333333333333333",
"33333333%%&&=-::-;;;-------==-=====--**=&&&==---;;,;---;-=;:;-::;---*&%3333333333333333333",
"33333333333@#%&*=---=-----=&*=*&&&%==&&&%%%&=-==-=;;-==----;=*--=*&%#@33333333333333333333"
};
