/* XPM */
static char *_8655_ff3df51cce9fdd583739f98968fe7ec0069f77fd24005edf5320d906334c6ea9[] = {
/* columns rows colors chars-per-pixel */
"91 77 23 1 ",
"  c #824100",
". c #924900",
"X c #A65100",
"o c #B65504",
"O c #CB5D04",
"+ c #CF6918",
"@ c #E36930",
"# c #E77938",
"$ c #DF9259",
"% c #EB8641",
"& c #EF9249",
"* c #F3A251",
"= c #F3AE5D",
"- c #F3BA65",
"; c #E7A271",
": c #F7C775",
"> c #F7D37D",
", c #EFAE8A",
"< c #FBDB8E",
"1 c #FBE396",
"2 c #FBEBA6",
"3 c #FFF3AE",
"4 c None",
/* pixels */
"4444444444444444444444444.X&#O.444444444444444444444444444444444444444444444444444444444444",
"444444444444444444444444O#&*%%O444444444444444444444444444444444444444444444444444444444444",
"44444444444444444444444XOO%#OOX444444444444444444444444444444444444444444444444444444444444",
"4444444444444444444444o#OooOX..444444444444444444444444444444444444444444444444444444444444",
"444444444444444444444o#&#X4oX O444444444444444444444444444444444444444444444444444444444444",
"4444444444444444444 O#O*&o 4 X# 444444oO.44444444444444444444444444444444444444444444444444",
"4444444444444444444XOOoO%#o4 ##44444 OO%&o4444444444444444444444444444444444444444444444444",
"4444444444444444444.44XO#%%##&#. .OO#X4o%#o444444444444444444444444444444444444444444444444",
"444444444444444.......OOO%##&*#.  XXX44 ###OoOX....4444444444444444444444444444444444444444",
"444444444444O&####&&*=*#.XO4 . 44444O.4o#%%%#%##&#OOo44444444444444444444444444444444444444",
"44444444O#X.O=&*=====*==#Xo4444444X&# 4.%#OO%#O%&###O 4444444444444444444444444444444444444",
"44444 O&--*&&*=-:::-*&*&&&Oo444444X&&#44#&#XO#Xo###OO 4444444444444444444444444444444444444",
"444 O=-->----==--=*===*##=%OO4444444 oX &**&&o XOXOOo44444444444444444444444444444444444444",
"44 &--*--=-=%OO#%&O#=%%O#&&O#o44444444O==-=&%#O.4.##44444444444444444444444444...   44444.4",
"44#-*&==#o##. o&=-Oo%OoXXO%##=O4444444*----=X444 O*%444444444444444444X4444444.OOXXOO 444 .",
"4.=&%&&%.4X*XO&=-:#.OX.X. XOO%-#44444X&=::-:= 4.o#=*444444444444444444OO444444.%OoO##OOoX .",
"4o=&#%##oXX%*%##&*&XXXo##%oo##==.444.###-<>-<-OO*---.44444444444444444O=%4 OOO&%OXO##%OOo.4",
"4o*&&%&&&*&&-=#O .%&O*&###&&&&&&=X44.XoO*<:==>-=-==#44444444444444444 O&=&#&=*&%#O#O%O ..44",
".O*=&##*=-:-=-&XX.o-===&#O&&#&*#%&44444X==*O #=&=-=4444444444444444.4o%#O%===%##X#&## 44444",
"o#=*#%&**=--=*&==&%*=**=&&*&&=*%OO 4444O==o444o->>=44444444444o444O###&&O#==*o44 &*%O444444",
"OO&**=&##%&=**==%##&&&*=%%&##&OX##.4444&=&.4444o--=%4444444444&X4 %%#%=%&-=&=#X4 &#.44444 4",
"OO#==**#&&&*&&&&&&#&%#&*%%&%## o*&.4444444444XoO%===o44444444O&O X&=O4XO--&&==*##OO44444444",
"O%O&*&==**&%OO#&&%&&&Oo#&&==**XX=&4444444444#&#O*====oX..X444&##Xo*-=44&:=%*=-==**&44444444",
"XOO&#O&=*%OOO%&%%#&&&#oO#%OO%&%O==X44444 4X%*&%%=-=. #-*# 44#=&&O#==-#o=-***&==*==*X4444444",
"4.o&OOO#%OOO&*%&&%%%&&##%O.X#%&=&*X4444.o#%%&*&==**#4.*O444#-=*&&==*=&*----==--=*==o4444444",
"44O%OOOooO#%=*&==%###&#XOOO#O%*=*%.4444.#&##%=--===*&&==#o&=-=&=::&&=%&**=--:-=-===.4444444",
"44X&OO####%&*%#&OOOOO%O.o%#Oo#=*&O.4444X#O#O#==---==---:>>::>:=:-&%%%&&=:==--==--==44444444",
"44.#OX.. .O#&%o#O#OoO#oO#OOoX.##oXXoO.4oOXOOO*=-:>--::><<<<<<::-Oo%#&*=><=&====:--&44444444",
"444#&O 444.#%&#OO#OXoOoOoOOo .OX XO#.44 o. .O=--=-=-:>>>>>>>:-%.4X%&--->:-=--::>--%44444444",
"444X%#X4  o&*XoO#%#OX. .XOo. .. XO##444 #.44o--*&--<>><>--:>-% 44O-:>::>>><<<<<>:-* 4444444",
"4444  4 XOO=*444 OOoXX.XOo .. .XXO&%44O=:=. =::--::>---:>>:=O  ..&:-<<><<11111<:--=O4444444",
"4444X 4 #&#-&4444OOoOOXOOo.. 4   o%O44&::-##:>>>---:-*&:<>:% .X.O==-<>><121<11>>--=&.444444",
"4444#  X&=%=-#X 4O#%#XoooX.. XO. X 444.=:-::--=-::-=&&=>--:O .X.&=#-<<>1111<11<<<-#X4444444",
"4444444&*=%&--=&.X#O..XXXo. .#=O4444444#->--===:<>-#O=:--<:&Oo..OXo><1111121111>1:o44444444",
"44444444&%%##=-&..XX..oooO 4#=-:O4444444X*-&&*&&->---1>:<1:--%.  4O111111221111<<1*.4444444",
"4444444444OX4X#O 4 .. XoOOX#&=->-444444   #*#o.4O--:><1<11<-:=O. X=2<<<21222121<<<<:-:&4 44",
"44444444444.44.&o4 XXoXXOoO*O#==%. 444 O*#o&o...X&=:<11<1<<<<1= .=1<>><112322211<>-=*-#4.44",
"44444444444.  O>O4  4Xo..XX#X4%-=-& 4.&&--##O  O*---:1<>11>1<2-.X-&#<<1123123321<:--*#.4444",
"44444444444OX#=<*OX 44 4.#  X&*--:-X4X=&-=oX.44.#%*-=>1<121122>==-#X--1221<12321>>>:-&#oO44",
"44444444444X.&=-*&%#o..4.#O.#><::>>=oXX#-o4444444 #=-:321232221-<1-*==:<1><2222111<>%#44444",
"44444444444  X&===*&&&O..XO%=->><11>:=X#*..o.4444.&-::232223212:->:=-::11<1123322<<:O444444",
"44444444444. O*->-===*X.=*&*---:<<2<>:*&%O*=&.4444#-:-1323322<<1>---><111221233221<=O444444",
"44444444444  &#=:>:--=o&2>-->:-:>>12<><-O&=&&X4444O-:->12322<:--><<>>1112222223333<*O444444",
"444444444444 O.&>>>-==o*3<1<:>>>>:-1211<*-=&&o 444 #-->:>221<<:->11<11122222223322>*O444444",
"444444444444  .*:::--=O-21><><::>::13322<>-&%O 4 44 #::-<122122211122<<12333323221:&O444444",
"444444444444OO%=:---:=&<21>><<---:<22211<>=&OO.4444 .=*&1<11<11121122<<233332<<<11:*O444444",
"44444444444%#&=->>---&=12>>>=->::>12221<::-#XX 444   XX#1>1<=-:--=:11><222332<<1<1>&O444444",
"44444444444@*-*-<<<--*-<<=-=&*--->11<21:-==#. 44444    #<>1-&&&&*&-1<<11<<13311<<>-#o444444",
"444444444@&*---:><---:--&O#===--=-1:*=<>=%%Oo.444444 Xo%>>1=O#X#--:1<111>>1211>::-*#o444444",
"44444444@*&-:::>:>12-:<%XoX*-:--=:2>&&=1-##oX. XO#&##&%=<><*OO#*:>:<<<:>-><1>:==*=&#O444444",
"44444444@*-><<:>--1---1:X#X#:<:-=>21-*&=&##X..o:3331>>->><>=&#=--><<<:---:>:=&#&*&&#O444444",
"44444444*-:<>><<>>:-:::<.XXO:<>:-<2<:*&==*--=::13321<-><><<-:&=-=::><>>::::&%#+#%&#44444444",
"44444444&-><>>:<<>1<-<1>.XXX=-:<<13>=*=:222233<>1<===-11::::>-=-==-><21>:-%++#4444444444444",
"4444444@%-<<1<1>><11<1<:.XXO=:<1<121-=-:13211-&=-*&&%-1<------=--*-<22<>:*o4444444444444444",
"4444444%=:>1<<<>1<21<<<>XXX&-:1<><<2<-<<2221>-***&=*&-<>-------=:->11<::=O44444444444444444",
"4444444@-:<211221112:>1<oXX&::<><>>2>-:<111<>--:-=**&-<:------:=:<<1<>>-&444444444444444444",
"4444444@&=:2112>1122<-->#XO&>1<><<>1<-=-:>><>-:<<>-==->:------>><1211><-%444444444444444444",
"44444444%&:2121>211<:->:&%&*-<1<<11<1>>:->>::::><:::--:>:-----:><11<1>>:&O44444444444444444",
"44444444*;:1213132>:-:==*%***:1<1111<<21:>:>::>><:->--->:-:->>><1>><<>>:=%+4444444444444444",
"444444444%,<222<221---:=**===:1<<<<11<<:-<:>>>>>>>::->::-::-:>1>>:-<<>><:**#444444444444444",
"4444444444&<221222<>:==>-====>1<><-:>:--->><<11<<<--<1:--::--:1:>>-12>11<:=#444444444444444",
"4444444444*:1322221->-=-:=-==>><<<:--------:112111::2>----::-><11<:>11211<:&#44444444444444",
"4444444444&-<33121>1->---=-==-:><11:------==<1<1<<<<2>>:--:><<<111>:111221>=&44444444444444",
"4444444444&=:<3121-:>:--==-=->><<<11:---====<<-:1><111<>:><11>-:>:<<11<221>=%44444444444444",
"444444444*&&:>3<21->>:::--->1<<11<<<<---====:--=><<<22<><11<<>->:-<<<<>121>=&#4444444444444",
"444444444*&-><322>-:<>--::><>>>>121<<:-======:-*>1<1112<><<>><1<:<>>>:>122>=&#4444444444444",
"44444444%*->12<21<:>>>--<>::-:<-<22<::--=====:<>><<1<11>><<>:>1221<<<>><12>=&%4444444444444",
"44444444%-:::--:>><>><<>1<:::>>:<111-::::-==&=:><11<12<<<>>::>12211221<<<1:=&#4444444444444",
"44444444%=::--:<<><<><>><>><<--:>><<>:--->-=*%#=111111<1>><>-:><11211<<<:-:=&%4444444444444",
"444444444;:>::>:><<1>>>:><<1<--:::::::----:-*&##:<<<1>>1>>><>>-:><1<<>11>-:-*%4444444444444",
"444444444%-:-:>>>><<>:::<1>::--->:---:-----=**%#:2<:<<:1<<><<<>>>>:><1<>>>::*&4444444444444",
"444444444%*---<<>:>>>>>><>>>>-:::----::----====-<1:>>::<1<<1<><<<<--<111<>:=%#4444444444444",
"444444444%&-:-><<>>-:<<<<><>1>>>----:>::-====:>:<>:>--><1111><<<<>-:<><11:=*#44444444444444",
"4444444444%$-::>>:--><:>:>>>:>>:---:>>:--=--:>::><>-=-<<1111<<<<:---:>>>:-&%%44444444444444",
"44444444444%$->:-=->>-=-->--:>:---::>:-==-----=>1-&==:<><<<<<<<>==--:<>-=*##444444444444444",
"444444444444%*====::-=*-->=-:>-==-==:-**==-===-<=%##=>:-::>1>:>-=&*----*%##4444444444444444",
"44444444444444@#%&*==&*-------=&==&&-=&&&&====*-&O##--**--:>--:-=&#=*&%#@444444444444444444"
};
