/* XPM */
static char *_4797_6c782003b29a337959519ea296ae2ab9849e1e0d5813452e643c0f6f6f9c1bb4[] = {
/* columns rows colors chars-per-pixel */
"94 73 24 1 ",
"  c #824100",
". c #924900",
"X c #A65100",
"o c #B65504",
"O c #CB5D04",
"+ c #CF6918",
"@ c #D77530",
"# c #E36930",
"$ c #E77938",
"% c #DB8645",
"& c #DF9259",
"* c #EB8641",
"= c #EF9249",
"- c #F3A251",
"; c #F3AE5D",
": c #F3BA65",
"> c #E7A271",
", c #F7C775",
"< c #F7D37D",
"1 c #FBDB8E",
"2 c #FBE396",
"3 c #FBEBA6",
"4 c #FFF3AE",
"5 c None",
/* pixels */
"55555555555555555555555555 X555555555555555555555555555555555555555555555555555555555555555555",
"5555555555555555555555555XO$555555555555555555555555555555555555555555555555555555555555555555",
"555555555555555555555555o*-OO.55555555555555555555555555555555555555555555555555555555o5555555",
"55555555555555555555555X$==o=X55555555555555555555555555555555555555555555555555555555##o55555",
"55555555555555555555555XO$Oo=o555555555555555555555555555555555555555555555555555555o$==*#5555",
"5555555555555555555555555555oX555555555555555555555555555555555555555555555555555555#**==o5555",
"55555XX55555555555555555555555555555555555555555555555555555555555555555555555555o===-=$X#5555",
"5555.=$555555555555555555555555555555555555555Xo.*o 5555555555555555555555555555o=;;---=*O5555",
"55555**.55555555555555555555555555555555555555X=;=O55 5555555555555555555.555555O*;-=;-=*#X555",
"55555O OO.55 5555555555555555555555555555555555*.55O$5555555555555555555 o...55 O.=;;-;-O55555",
"55555OX$$X.Xoo555555X$5555555555555555555555555O=OO-.5555555555555555555555X$o o$ *;;-;;55 555",
"5555555$$$OXOO55555X*= 555555555555555555555555oX$O5555555555555555555555555OO$$$ #;;;;-5 .555",
"5555555--*XX. 55555 O$5555555555555555555555555 .O5555555555555555555555..55o$$$$.-$;-;--O.555",
"5555555555oo 55555555555555555555555555555555555.oO5 55555555555555555X**o .oOOOO - ;;;;;oXX.5",
"5555555555oX5555555555555555555555555555555555555555555555555555555555$*X5. Xo.oX*;;;;;;-$5..5",
"55555555555.55555.5555555555 5555555555555555555555555555555   Xoo.555  5555555X.==;;;;  -5...",
"55555555555.5555555555555..5.55555555555555555555555555XO*-;;::,,:;=o5555555555$5=;..OOo.=....",
"555555555555555555555555OoX..5555555555555555555555555.=;;;:::::,,;;;;-=$.5oO. o5=;O$=*O XO 55",
"55555555555555555 . . XoXXo.5 5.555555555555555555555 *=;;::;==::,,;=-=;:Oo-$.555= $=OoX.$o555",
"55555555555555555 .+O XX.XX...5 555555555555555555555o-=;::;$$=::::<::;::-;-*X5555XoOXXXOO. 55",
"55555555555555555O.+XOOX.XO$$.X5 55555555555555555555X;*;=O..=-;:::,,,:::,,;--X555XoX$OooOoo.5",
"55555555555555555X. .o. .XoOXXXX5555555555555555555555X55 55$;=;,::,,,,:,::;=X.5555X.XX. ...o5",
"55555555555555555XO. oX.. .O.  *O.555555555555555555555555 OO*;::;;;-=-;-$=-=oX 55 55 555 X5X5",
"5555555555555555XX==Oo.X.5O$o;;*:- 5555555555555555555555.*$$**=;;;$OXO=$$*O*-=OoO 5555555X...",
"5555555555555555O==---==OX;::,:;;;o555555555555 555555555$$=-=$$$;:=X5ooo-=O-,<=O.55. 55555555",
"555555555555555 =;;:;;;::;;;;,:::;-O 5555555555=$  .oX.55OO-;;-*$-;X55ooO***:::-=5555.55555555",
"555555555555.$=;;;;;;;;;:,,;-;;:,<=OX555555555 Xo=;OoO$X.*-;;::-$oO55o=OXX.XoX XOX555555555555",
"55555555555o,<::::::::,,,<11:;:;:,:OX 55555555555$;=-*$*=-;;;::* 55$*==O555555555o.55555555555",
"5555555555.:<::,:,:,,,<<11<11:;;,:<:=OX 555555555O;-;$O$==$$;:=X555O-o$O.X.5555555555555555555",
"5555555555o1,:::,,,,,,,<<,<<2,;;:,<1;-*X 55555555.=;-$$--*oO:;=.5555o5O$o-=o  5555555555555555",
"555555555.=1<<,<<111<,,<<::<22::::<2<,:-$X5555 5  O=O.o=*==;:;*XOOo 55O$O=*OX5. 55555555555555",
"555555555$:<,:11<111<1111::<<<::,,,<122<,-o 55555  X$XXo.o*;:;oX==$O55O=--=O.55  5555555555555",
"55555555.-:<:,1<11<<<1111<<2,:::,,:,,121<<-oOO X=$$.5O=O.X$=;;=O====o*:,<,:;$555.oX 5555555555",
"555555X5O;,:;,<<1<,,,,,11<122,:::<21<<,:,1,==-=;;-= 55XOO*-$;;;=$*==-<::,:::;..OXO= 5555555555",
"555555 X=:,::1<11<<<<,,111<1221,:1221<,::,21:==;;$o555555 -=-:;;-;;-;<:,,::,:$o;-:*55555555555",
"555555 X$,,,,,221<11111<111122311221<<,,,<<22,::,*O*X.. 55=;=:;;,:::,1111::,,Oo:;$ 55555555555",
"55555$Xo.=:;:<121<21121<,<1223221221,,,111,,<11<<,;;=*--==:;*-:;:;;,1111:::<:o*,$5555555555555",
"5XO*;*OOX==$;<<32111211<<212332211111<<12211<11111:;;,,:,1<;-=-;=;,<1<1<::;::=;:.5555555555555",
"XOXO-=O*;,:;:132221222112212332221111<<111<<1<,<<,:,:,,::::;===;=;,<<::<<;=;,,:- 5X 55$.555555",
"55.X=;12322212213322233332222332,<2211<1<<<<<1<<<,,<<<:;;;:;==--*;:<<;:<,:-;,<,;=;:=.555555555",
"555X*:1<<111:,11333223321232233,;<<,<1<<<<<<:<1<,::::;-;:::==;;==:,,<::,:::;,<,::-=%%$55555555",
"5555=$O=:=;:==:13322332<<222333<-:<:<<,,<,:::,<<<<,:--;;::;;;-;=:<:<<:::;::;:1,;$*@X+*.5555555",
"5555OX.$,*XXXO:33223222<13222113;=<<,,::,:,:<<<<,,:;::::;;;;-;;:1,:,,::;;;::;,,;*%*O5555555555",
"55555XXX*-oX=:233<23233223322::,=*::::;;;;:,<<,,,::,::::;;--;:;<,::::::;::,,:::-$5555555555555",
"55555555oO=,<123223234423433<,,OX=:$O$==---;;;::::,:::,,;-;;:::::,;;::;;<<1<,:;=55555555555555",
"555555555;>:143123323432343312-..*=OXXO===**=;:-=:::;;<,;;::::::<<;;::;:111:,;-555555555555555",
"5555555555&-;,3<23333321233321;oXOooXX X-;;;;;$O$$=;=;<:;;;:::,<<<:::,::121,:;*555555555555555",
"5555555555*OX%<33333321122321<;$.XXo$$X.o=-=O. Xo$;;;,,;::::::::::::,,,,<22,:;=555555555555555",
"55555555555XXo:43333422323321,;;OXXo$==oXoOoX  o=:::;:<::::::::::;,<<,<<<21,;-%555555555555555",
"555555555555Xo;13334333343322<::=oooXXoXXXooX.X*=;::;:,::,::::,,,<1<<11<131,;=$555555555555555",
"5555555555555O:,123443324333232,;$ooooXXXXoooXoo$=-;:::;:<<,<,<,,11<11<<222,;=$555555555555555",
"5555555555555oO=:12444224321<121:-$$$$O$*$$$$$OO$==-;::,<11<<<,,,<<12<<<2111;=$555555555555555",
"55555555555555X$$:134423332,::<1,;*==-====**=======-;::<,,1<<<<<111121112211:-$555555555555555",
"55555555555555ooX$:14422432,::,,<,-;;;;;;;;;;;;-===-:,<,:<111,:,,11221122222<;&555555555555555",
"55555555555555oXXO:<4421332<:,<,<,;;;;::;;;;;;;;-;-:11<<<1<<<<<<<22211<12222<,;=55555555555555",
"55555555555555Xo$:<<4432331,,:<,<:;:::::::;;;;;;;;;,211<<<<<<121211222<12211<,==55555555555555",
"55555555555555*-;,<1343333<:::,<1<:::::::;;;;;;:;:,,121<<,<<<,1<11<12211231<1,;;55555555555555",
"55555555555555;,<1223333221,::,<1<::::::::;;;;;:;:,1122<,::,<<12221,222232122<:;=5555555555555",
"5555555555555=:<22233123321<,,<<<<:::::::::;;;;:::;::,1,,:;,1212222<111331122<;*=5555555555555",
"5555555555555=,2333211232121<,<<<1,::::::;;;;;;;;;;:::1,,:;;<1<<1111<<1221111,;*$5555555555555",
"5555555555555-<223212232<<11<<,,<<1,::;;:;;;;--------==:<,:;11,:,,<,::211<<<<,-*$5555555555555",
"555555555555;;1132123221,:11<1,,<,<1<,::::,:;---=====*=:<<::221<::<<,,<<<<,,<,;*$5555555555555",
"555555555555;,2332221121,:<111,<1<,,<<,,,:,<;---====*;1,<1:,12132<<,<1<,,:;<<,;==5555555555555",
"555555555555;<2321121221::,<11,<<<<,,:::;;;;;;;-;;--;:,:,,,,<21222<:<2<,:;:,,:;=*5555555555555",
"55555555555511223332<<::<,,,<<1<,<,::;::;;---;-;;;:12<;,2<::<111,;,<,2,,<<::;;;-*5555555555555",
"555555555555;1222221<1,:,::<::,<<<<,:;:,;;;;;;---$-222,11,:,<111:=:<<<,,,<::;;--$5555555555555",
"555555555555;,1,,2<11<,,,,11::,<111<,,<1<:;;:::1<,2322<<1::<111<:;:,,:<::<,:;-==55555555555555",
"555555555555*:,::1<<1<,,,,<,:,:,<1121,<,<:---;:1,::<22<,2;,2111<:::<,<:-;<,,;-==55555555555555",
"555555555555#-:,,1<,<1,:,,:::::,<<<<,,,,::;;;;=;:;::1<;:,=,22<1<<:;:,<;;,1<,:;&*55555555555555",
"555555555555#*-:<1<<<1,::,::::::,,<<:,<:::---::;,,:::-$-;=<12<<1<:;=:;;-:<<,:;&555555555555555",
"5555555555555$=;<<:,<,:::,,::;:;:,,,,,<,::;==:<1,,:;=*=-;:1<<<,<,:::;::;;:::;**555555555555555",
"5555555555555#%=::;;,::;:::;;;;;;:::;;:;;;;;;:,:::;*$$*-:,<<,:::::;;=-;;:;:-=$5555555555555555",
"5555555555555555#$*=-;:;=-;---=--;-;-=-=**=;;;:-;;=$$$$=:,:::;;;:;==*;-=*$#5555555555555555555"
};
