/* XPM */
static char *_9465_93f76ca4a50b2b6df851725e0a1fcc68e598cf130e2576d4ec5546378a506ab5[] = {
/* columns rows colors chars-per-pixel */
"85 70 24 1 ",
"  c #824100",
". c #924900",
"X c #A65100",
"o c #B65504",
"O c #CB5D04",
"+ c #CF6918",
"@ c #DF5D28",
"# c #E36930",
"$ c #E77938",
"% c #B28661",
"& c #DF9259",
"* c #EB8641",
"= c #EF9249",
"- c #F3A251",
"; c #F3AE5D",
": c #F3BA65",
"> c #E7A271",
", c #F7C775",
"< c #F7D37D",
"1 c #FBDB8E",
"2 c #FBE396",
"3 c #FBEBA6",
"4 c #FFF3AE",
"5 c None",
/* pixels */
"55555555555555555555555555555555555555555555555555555555555555555555555555555555555O.",
"555555555555555555555555555555555555555555555. 5XX55555555555555555555555555555555.$5",
"5555555555555555555555555555555555555555555555555555555555555555555555555555555555 55",
"5555555555555555555555555555555555555555555555555555555555555555555555555555555555555",
"55555555555555555555555555555555555555555555555555555555555555555555555555555X5555555",
"5555555555555555555555555555555555555555555555555555555555555555555555555555555555555",
"555555555555555555555555 555555555555555555555555555555555  XOo.X 5555 55555555555555",
"5555555555555555555555.OX5555555555555555555555555555555 $-::;;;=$.555 55555555555555",
"55555555555555555555.XOOOXX5555555555555555555555555555OOO$=-=-=O X.55555555555555555",
"5555555555555555555 OOO$OO$.555555555555555555555X5555o 5X=*$oXX 555 5555555555555555",
"5555555555555555555.X55O*$-= 5555555555555555555 555 X.555 X$5555 5555OO5555555555555",
"55555555555555555555555o=:,;OX555555555555555555*XXOX555555XO55555555$=O5555555555555",
"55555555555555555555555=:,<;$OO55555555555555555=$*O5555555OO55555555O$$O 55555555555",
"5555555555555555555555 ;:,<:;O$O5555555555555555 $O$ 55X555$* 555555555.X 55555555555",
"5555555555555555555555o;;:,::,*o 55555555555555555Oo555  55O$X55555555555555555555555",
"5555555555555555X55 .X$=:,::;::$X.5555555555555555555555555$$  5555555555555555555555",
"55555555555555O=-=----;;,,;;::,,:* 555555555555555555555OOX$=X....5555555555555555555",
"55555555555 X=,:::::;;::<<:::,<,,:$ 55555555555555555555OOOO=O.X...5555555555.5555555",
"555555555 o*;,::;;;;:::::<<:::,<<,:=.555555555555555555 o=O.*O.XXOo555555555$=$X55555",
"55555555O*=;:::::::::::::,<<:;::,::,-X55555555555   55 . o-*=o 5O:O5555555 *;*$*O 555",
"5555555o;;::::,:::,,,,,::,<1<::;::::<$55555555555.55 .XXo$-:-.55 ;=$*OoOOO-,-**==$555",
"5555555*:,:::::,,,:::::::,<<<<;;,::<<=X 55555555Xo. .Xo=-:::=55 O$===;==-;:;==;-=O555",
"5555555=,::::::::::::::::::,,1:;::,<11,=X 555555OOOOXO*;=;:,$5O=$=*=;;;-=;;=*-;;=.555",
"555555X:,:::;::::,,:::::,,,:::<:::,<<122<;=$.555*$OoX$;-=-;,= *.X==-:;==;;===;-=.5555",
"555555X;;::,,,,,,<<,,,<,<,,:::,;;:,111<<121;=$55oOOOO=;-*=-;=5.O-;;;::=-;::--;--o5555",
"555555X=;::,<1,,<1<,,<1<,,,,;:::::,11<<1122;=-$.X. OO$;====-;XO;-;;:::;;;;-=::;;;O555",
"555555O:::,:,<1<<11,,1<<<<<<::,<<<::<,<<123<;=$oX5555 =;:;-=-$=OXO-,:;;=-==;<:;::;.55",
"555555.=::;=:<2311<<<11<<111111,,1<,:,,,,<231:=O.55555$:,,;-;=OXX $:;;;-;==;:=*=;=555",
"5555555.$=$=112212111111111121<:::;;:,::,,:12<,=oOo.O*;:::;;;=$o5.=;--:::==-=$o*=O555",
"5555555XOX O111<1322221<12122321,=*$;,,::;:,<11,==;;::,:=::;;;-O.X===;<:;===$X X 5555",
"55555..XXXX*211<2323231<222311111<:;;,1<:::::,<,,:::,<,,:;;;;==O.O;-=::$=$$$$o.555555",
"o$$$O****O=12122233312211222211122<-;:;,::,:;;;::<<<,,,,:;::-=*. $-;,:=$-O$$*o5555555",
"*;=OX$;:;=,3333444433332112<,<2222:=;$=,::::;;:;:,,::,:;:;=-;-OX=;;:,:=--oO*O55555555",
"5555.$:::,13444444444443221<::,:;::;=O;::;;:-;:::;;;;;;:;$OO=;;<<<,::;=;-oO=.55555555",
"55555;::::1144334444334432<;;:;=$=$-;$-:::;;-;;:;;;;:;:;$$$$$;21<:;;;*$:;$$$555555555",
"55555;;;=;2<3433444433342::-=-$XoO*::*-,::::;==;;;;;::;==--;,21,:;-=*O*:;-;$555555555",
"55555O$XX-<<3322344433342,<1<;$XX$*-,<,:::-=*$=;;;:::;-;;::121,:;:;=*=;::;=OX$ 555555",
"555555...XO-2222123333344332222=o$O$=;:;-*$$*=;::;-=*$:,:;<1:;--;::::::,:;=o5.5555555",
"5555555555.X;<1<<<<3444343222<11=OXXOOOOOooO$=--=$*==:1:;:1<:==--;:,,,,:<:=+555555555",
"55555555555XO:<<21<3444233333222:$oXXXXXXXO$$=;;;;:::,<:;:1<;;;;--::,,<<1,-$o55555555",
"55555555555XX;<,,<13233232342343,$OoXXooXX.$*-;=*$O=;<:::,<,:::-;;;:,,:<<,;-555555555",
"555555555555Xo$==;22133331233442,$$oXXXXXX X$*==oXX$;::<221,,:;;,,::,::<<,;=555555555",
"555555555555X. o$:311431223224321*oXXXX... .OXO;:;;,<:,1332,:-=:<11,,,<11<:=555555555",
"5555555555555X.O=<4214322242<2321*XXXXXXXXX .XO=:,<11<<<1111<<,1<,1<1222<<,:*55555555",
"55555555555555X$-,2214332332<:12-$$OoXXXOoXXXo$$*;1<11,,,:,12222<,1<222211<:-55555555",
"55555555555555.O;<:133333333<;<:*==*$OX.XOO$Oo$=;:,<<,,:,,,<11121111223211<:==5555555",
"55555555555555o=,1<<332433332:;--==-=**$O$*$$$O;,,,<<<11<<1<,<<<<<122221111,;=5555555",
"55555555555555=:<211232432224<;-;;;;;==-=====*;<<<122221111221<<,<121121131,;=5555555",
"5555555555555;;,12212323312232,-;;;;;---;--===;,:,:<121,111231,<<<221111122,;**555555",
"555555555555$:,<133234221133222,;;:::;;;;;;;--====;<11,,11223,,1<1321<<1112<;=*555555",
"55555555555@*,<12222332<<1322222<,::::::::;;;;--==-,:;:111223,:<1232<<<2222<;-=555555",
"55555555555$:,121122211:,12123121<<,:,,:::;;;;;;;-:,,:11<<112<<11<11<,11231,;;&555555",
"5555555555*-<1122231<1,::12121<11<<,,,<,:;;;;;;;;;<<,111<<<,,,,<,:<<,,11<::::&%555555",
"5555555555=:<122222112,::2222<,<<1<<1<<<,:;;;;;;;:1<,2,,1<1,,,,<<,11<,<1,:,,:=5555555",
"5555555555;,13232222221,,22211<<,<1111<,,,;;:::;::,113<;<11<1<<1<<11,:<21111:=5555555",
"555555555#:13323222211<<<121<1<<,,<<<<<:::;;;;:::,,:<22::21<,<1<<,,,,,<12321;$5555555",
"555555555*:133321221<11<<,11<11<<,,:,::::;;;--;;;,,;:22<<1,,::<,<,:<<<11131:=$5555555",
"555555555*:233222221<11,::,<<<1,,,,:::;;;;;;--;;;,:::<1,11:::;;:,,<1122111,;*55555555",
"555555555*:1332222221,:,,,,,,11,:<<,::;;;;;---;--:::,<1:<1,,,:::;;,1121<<<;$555555555",
"555555555;,122232332,:,,<,,::11<<<,<<:::;;;--====::;;:1,;2<,,<<::;:,<1:,<,-O555555555",
"555555555*,222223211,:,:,:,::11<<<,<1::1,;;-;:-*-:<-$OO=-2<<,<<::::,,<:<<,;$555555555",
"555555555*,11121221<<,::,,<,,<1<,<<<1<<<,,;=;1:--$-=X  .;1<1,,::<,,::,:1<,>5555555555",
"555555555*:<1<11122<,:::<,<,<<<<,<<<<<1,:,,:,<:==OXo.X**,:<11,::,::;:::1<,=5555555555",
"555555555*-,<<,<2321,:::,,<<,<<,<<<,,,,:,11<,:=$$$OoXo;,<,112,:,::;;::<1,:=5555555555",
"555555555@*:<1<<1222,,::<,<<,<<::<1,:::::<1<,;$$OoO$O$,112121,,::;;:::1,,;*5555555555",
"555555555#*;,11<<<1211<<<,<<,,,::,<<:::::::;,,=$$$;:;-<21121<,,::;;;,::,:;*5555555555",
"5555555555$;,<1,,,<111<<<:,,,,,::,,1:::;::,:<1,--:,::,11121,,:,:;-;;;:;:;=$5555555555",
"55555555555-:,,;;,,<1<:,:::,,::::::,:::;-;,:<<1<,:;:,,,<1<<<,:,:;;--==;;-$55555555555",
"55555555555*&;;-;::,,::;;:;::::;;::::;;;-=;:::;::;;::::<,:,::,<,:;==$=;;$555555555555",
"5555555555555#$*=-;;;;;;;;;::;;-=;;;;;-=====--==;:;;::,:;;:;;;:::;;-=*$#5555555555555"
};
