/* XPM */
static char *_705_68eec85a90588fb370c1ae7c5d09ffeda238de26a8e01290318ee23d39279c1a[] = {
/* columns rows colors chars-per-pixel */
"83 68 20 1 ",
"  c #824100",
". c #924900",
"X c #A65100",
"o c #B65504",
"O c #CB5D04",
"+ c #E36930",
"@ c #E77938",
"# c #EB8641",
"$ c #EF9249",
"% c #F3A251",
"& c #F3AE5D",
"* c #F3BA65",
"= c #E7A271",
"- c #F7C775",
"; c #F7D37D",
": c #FBDB8E",
"> c #FBE396",
", c #FBEBA6",
"< c #FFF3AE",
"1 c None",
/* pixels */
"11111111111111111111 11111111111111111111111111111111111111111111111111111111111111",
"1111111111111111111  11111111111111111111111111111111111111111111111111111111111111",
"111111111111111111 ..11111111111111111111111111111111111111111111111111111111111111",
"111111111111111.XXXoOX111111111111111111111111111111111X$$$.11111111111111111111111",
"11111111111111OO@OO@OX11111111111111111111111111111111O$@@#@11111111111111111111111",
"1111111111111 X.O@#OX 1111111111111111111111111111111 .1111OX1111111111111111111111",
"1111111111111111O#%@Xo%O11111111111111111111111111111111111111111111111111111111111",
"1111111111111111O%&&%**@1111111111111111111111111111111 11111111111.111111111111111",
"1111111111111111 $*-*--$.X11111111111111111111111111111X111111111111111111111111111",
"11111111111111111@&***-&$#O1111111111111111Oo1111111111O11111111111111 111111111111",
"11111111111 11111O%&***&%&%o1111111111111111oOoo1111111.111111111111111111111111111",
"11111111111.11111O$&-*&****$o 111111111111111.O111111111111111111111111111111111111",
"1111111111 @@@O@@$&&-*&&**-:;&o1111111111111111111111111111111111111111111111111111",
"11111111.O%****&**-;-***----:;*@111111111111111111111.  1.   11111111111 OO@O.11111",
"11111 X@&***&&&%&*&&*-***---*--;%X111111111111111111OOoO#&o  ..111111111X%@#$$o1111",
"1111X$%&*********&&&**-*&***&&**:-o1111111111111111@&&&&*$X .oO 111XXXXX#&$O@%$O111",
"111X$%&&*****&&*******-**%&&&***-;$1111111111. 111X$****O111X##Oo@@#$$$$%&$OO$&$o.1",
"111$&&********&*-******-*-&&***--;@1111111111.11 O$&**&& 111o%%$%%$$$#$&&%#@$#@@$#.",
"11@*&&&***&*-*****-******;*$&*&-;;&O.11111111O. @&*&&%o$.1.1X&&&&&$@@@#*&$#$%$$O.11",
"11$&%&&&***-;--*****---**--**-*-;:::-@X111111OOo#*&&%# OOX 1@&%&&&&$@@@&&$#&&&$1111",
"11$%&***--*-:;;--;--;::-&&*&***-;;:::,-&%#O11@OoO%&%$%OX1...%*&%&&&$OoO&*%%***& 111",
"11$&&&*;;;**;;-;:>>:;:::&&&&**-;:;;:-***&$%#oXoooO$$$%@ 11 OoX@$**$@@@@@#$%-&&*$ 11",
"11%*&&*-*-:::;;;:>>>::::*&**--;;--*;:-**$@$$O 11 .@@@%$oXOoOO. .$&$$&*%@o.$&$&$&O11",
"1O*%O%-**;,>>:::::::::::;*-*;**;***-;::;$$%#@ 111111O#$#@@##O.1 @@#$*&&%OoOOoXOO111",
"1o@@##&;;>:;:>::>::::;;;:;;;:-*&;--;*;;>:::*@1111111oOO@O@$@ 11.X11X&$$OOOoO1111111",
"11XXXO;:;:;:>>>>:;;::>:;;;;>>:*O%*--**-->:-;&X111 @@1o@O$&&$O  X111$*OX.OoOX1111111",
"1.@@o@&*;;:,,,,>>::>:::::::;;***&**&****-:;-;%O@&&$%@$&@%&$$@O$O1.$;$O 1XOO11111111",
"11#**%O*,:><<,,,,,,>>:>>;***&&-*&*&&&&**--;-****&&*---**&###@$%XX&-&@O. O@111111111",
"11o%&&*>,,<<<<,,,>>:>>:>*&&&&***-**&*&***&*&&&&**--;***%OO$#$&@#**&#@@O@X1111111111",
"Oo.$$%*,<,,<<<<<,::::::>-$@$$*;-&%@@****&&&&&&*-;*&&%$@oXO%&&$&-*&oO###o11111111111",
"11##o@-,,,,,<<,<<>>:;:>:**#oXO$#@o O**&&*&&&&&&&&&%$##@O#**&*-;&$oX$&&%X11111111111",
"111...%:>,>,>,,,,,,>::>:&&*O XO%*o1O***&**&$&&%$$&&%%&&*;-**;-&$#@$&**&X11111111111",
"111.. O$*,:::>>,,<<<>,>::-*@.Xo#-$O$***&*&$%%%&&&%$%***;;-*--;**%&&**-&.11111111111",
"111...Xo&,::>>,,<<<<,,<:>,>&O@@o&;*--*&%$@$$$%&&$$&---;-;-&$$$%&&&&**-*o11111111111",
"11111..X&>:;>,,>,,<,,,,,<>:>%OOOO$&&&%@XoO#%%%%$%->-*;;**-&##@@@&%&*--&$o1111111111",
"111111..@&&&*>>:;:>,,,>>,,:;%OXXOXo@@OoXO@$&&&&&*-;-;::--*%@@%@@&&&-:;*%@1111111111",
"111111...XXo@:>:-;;,,,>>>>>;-#XXXXXXX.XXo$&%%$O#&*-;>,>:-&@.O*$%*&&;:>;&#1111111111",
"1111111... .$>,>:::><,,,>>>>>%OXXXXXX.11.$&o .o$-;;:,,,;&&$$&&&-***;;>:-$#111111111",
"11111111X. .%>,::>,,,,,>;>:>*@oXXXXXXX 1 O&*%&-:>::>>>>>-**;;&-;-;:>::>;%$111111111",
"11111111XX.X&;::>>,<,,,>:>-&&@OXXXXXXX.   o$-:>>:;;::::>>:::;-:;;:::>>>:-%$11111111",
"11111111XX.O*:;:>>,,,,,>>:;*-%OoXXXXXX. XXXo@*:>;---**;::::::;;;::>:::>>;&$11111111",
"1111111XXXX$*,>>,>><,,,,>;&*&#@@ooXoooXXXoO@&->>;;;---::;;;:::::;:>>;;:>;*%#1111111",
"111oXO@@$@O%*,>>,>><,>>,>-%$#$$$@OXX@@@OXo%*:>>>>,:;::>,,:;;>>>:::::-;>>:-&%1111111",
"11oO%@$;*&&&-<>>>,><>>,>,-$$$$$$#@@OO@@@O$---;:,>>;;>>>>,:;-;;>>>:;:-:,:;;*&#111111",
"11o%>;;;*-;*:,,,,,>,<><,>>&%&%%%$$$###@@#*--;-&-:;;;:>,>>>;-**>>>::>:::::;*&#111111",
"11O&>:&$&;::<,,,<,>>,<,,>,:*&&&&%$$$%$$$$*;-;*%*;>:;:>>>::--;:>>>:::>::>:;*&$111111",
"111&;*O@&:,<,,,>>>,,>,>,,>>:;--;-&&&&%%%$%*%$$&-->;-;:::;;;;:>,,:;;;:>>>:;*$&111111",
"111&:%@*;,<<,,,>>::::>,,,>>>:::;:;;-*&&&&%$$#%-::>;;;::---;:::,,:;---::;-;*%@111111",
"111&;**:>,>>,,,,>;--:,,,,::>:;;;;:::-*&&&&%%%*::::>:;;;-;::;;;>:;--;::-**;*%&111111",
"111&-:;>>>>,>>,,,:-::>,<>:;::;;:::::;-*&&&&%&->,>*-;-;;;;;:;--:;**-:>-*---*$@111111",
"111#*-->::,,>>>>,,*-;:>>;::;;::::::;;--*&&&&&*-:>>-;;:;*****-*&*-*;:>::>:-&@@111111",
"1111%--::>,,>,>>>,;-::-:;;>:;::::;:;-***&&*****&&:::>--**&&*--*-;;:>::>>:-&@@111111",
"1111%=;:>,,>>>>:;:>-**;>::>:;;-***;;&&&&&&&*****%-:;:-****&&***;;:>>::>>;*&#@111111",
"11111=-,>><,,,>;-;>;***>::>:;;***--**&&&&&&&&&**&*;;:-**-******>-;>>:>>:;&&@1111111",
"11111&->:>,,,,>:;:;;;*-;;;>:---;:;*&&&&&%%%%%*&**$%&-;----*---*:;-:::>:-*&#@1111111",
"11111%->>>>>>,>:;:;;>:--;;>:---*-***&&&&%%%%%*&&%#$$*-;;----*--:;-;:;>;*%&@11111111",
"11111&*;>>>:>>>;--**:;-;;:>;-;****--*&&%%**%%**$@@&$$*;;--**-;;;-**:::-%$@111111111",
"11111%&;>:::>>>;*&**-;;:;:::;-;;*&*-;-&*-;*$$*&#O.@#O*;;;-&*-:-****;:;&@o1111111111",
"11111#&;>:::>,>-*&&*--;:-:::;-;;-&*&*;**:*%$$#$@o.@&&-;;;-&*:;&&&*-;;&&@11111111111",
"11111#%-::::>,>;--*---;;-::--;;-;--&->;;-&##@ooXX.X&-:>:;**;;-&&&--:-&%111111111111",
"11111#%-;;::>>>:*----;;-;::;-;:;--;;>,,;&;&@oooOoXX$;>>>;**;-****;-;*$@111111111111",
"11111+%**;::::>>****;;-*::;---:------;---:&@@O$-&%%*>>>>***--*&&*-;-&#@111111111111",
"11111+$*-;::;;:>-*-;;--*--*-**;;---****-;;%@O@-;*-:>>:>;***--&&&*&--%@@111111111111",
"11111+%*--;*;-;:;;:;--;--*-***--**--*&*----$&;-*-;;;:::--;*;-%&&$%**&@$111111111111",
"111111$%*--&-;-;:;;;--;;-*-**---*&*-*%&&**-;::--;;;;:;;;;:;:-&*%@%*&&&#$11111111111",
"111111@$&*&$*;-*--***--;---**----&&**&&%&****-:---;:--;-*;::;-*$#&*%$%$$11111111111",
"1111111@%*$%***&&******-****&*****&&&&&&$%&%&-;**---**-**&*--*&$&*-*$$@111111111111",
"111111111+@#$%&&%&**&&***&&&%&%%%&&&$$%$#@%%&--&&***%&*&&%&&&$$&&%$#@+1111111111111"
};
