/* XPM */
static char *_3848_3ce7cd6efa30620db7983c6c24dd315f399be6eaae21e858edd44914424b5a65[] = {
/* columns rows colors chars-per-pixel */
"90 71 25 1 ",
"  c #824100",
". c #924900",
"X c #A65100",
"o c #B65504",
"O c #CB5D04",
"+ c #CF6918",
"@ c #DF5D28",
"# c #E36930",
"$ c #E77938",
"% c #DB8645",
"& c #DF9259",
"* c #EB8641",
"= c #EF9249",
"- c #F3A251",
"; c #F3AE5D",
": c #F3BA65",
"> c #E7A271",
", c #F7C775",
"< c #F7D37D",
"1 c #EFAE8A",
"2 c #FBDB8E",
"3 c #FBE396",
"4 c #FBEBA6",
"5 c #FFF3AE",
"6 c None",
/* pixels */
"6666666666666.6666666666666666666666666666666666666666666666666666666666666666666666666666",
"666666666666..66666oo666666666666666666666666666666666666666666666666666666666666666666666",
"66666666666 . 66666O=.66666666666666666666666666666666666666666666666666666666666666666666",
"6666666666 66OX 666.** 6666666666666666666666666666666666666666666666666666666666666666666",
"666666666666O*==.66 $==X666666666666666666666666666666666666666666666666666666666666666666",
"666666666666$=$=;O.X=---O66666666666666666666666666666666666666666666666666666666666666666",
"666666666666X$66O;;---;;=$o66666666666666666666666666  66666666666666666666666666666666666",
"6666666666666 666$:;::,<:;;$ 66666666666666666666666$$*O6666666666666666666666666666666666",
"66666666666666666.=-=;:,,;-::=X6666666666666666666666X==666666X.66666666666666666666666666",
"66666666666666.O$=:::::,:;-;:::;-*X66666666666666666 $XO66666$..666666666666666666X.666666",
"66666666666.X$*:,,:---*;:-;,::;;:::*66666666666666. X 6o6666Oo66666666666666 $$OOooO666666",
"6666666666O-::::;;;-;;--:,:::::;;::;*666666666666 ..666.666  66666666666666 $**=OOO 666666",
"66666666.=:::;;---;-=-;;;::;-;::::,:;O6666666666666O.66666666666666666666XO*==-=$O=$XXO666",
"66666.XO;,:::;;;-;;;==;;;;;-*;,::;::::O666666666666OO666666666666666666666oOO;;-=$$oo.6666",
"6666O*=:,,:,,:;;;:::;-;;;;;-=;,:;;::::;=* 6666666666X6666666666666666666666oXOOoO--.  6666",
"666X=-=;<,,,,::;:,:,<:;:::;;;;:::::<,;;;,$66666666666666666666666666X666666X$$.. XoXO$=X66",
"66X=;=*;<<<<<<,:<<<,:,:;;:::=*;::,<<<<<,,-66666666666666666666. 666O$66666666$$OOo 6X=::O6",
"6X*=**-;,,,<222<2222,,<,:::,;;::;<<<2232:*66666666666666666666 .66.Oo66666666.---=**$*=*= ",
"6O$$O*-:<,,<<<3<,<2332<,:::,:;;;::,32233,O666666 666666666666666666666.666 6.o$$*===;=.666",
"XOO**$=:2<,<,<<<,<<22443:::,:;;::;,3<<32<=$66666Oo 6666666666666666666o.6666oooXX$;:;X6666",
"XO$=**=;22,:,<,<22<,:<443<<2<::::<<2<<22<:;$6666ooo 6666666X666666666 $.666.$O.O$OO;-$6666",
".$==**$=,2<,<2<<22<,:,<2232<,:,,:;:<32<<::;$ 6666oOo6666666O 666666.O*$X66.O$O66=*OOX66666",
"6$;==$XO,,322222232<,,<,::;::,,,;O$:32::::::-o666666666666X$X666666$-=$OOoO**O 66O*$OX.666",
"6O-=*;=:-;222333233<,<<:-;;;;;;:=66*2,;::::<:-oXOX666666 OO=OoO 66O=--=*-$$==$66666XO$-666",
"6O-Oo*:2,,<,2344333:;,2:-====-;;X66X$-:,<::,;;$$=:O6666$*==-=-=$O.O=-;-;;=;--X66666666o666",
"6.$$..o:2:=:3333233,:,<::-**=-::$6666$:;;::::;X6X-*66 $=;:;;;;*o .*==;:;-::-X666666OOOO666",
"66X=$=:;=Xo<33333<22,<<,2:=*==$=O6666 O;*:::;;= 66 6.$OO;,:::;=XX=:;;:<:::;O666666O;*==666",
"666X.=,$ .-232233<<3<22<<,,;;=X666 6666-;;;;:;;$6 XO$Oo=:::,::;$*:,,::<<::*$o66 $=;*OO6666",
"666666OX6X:2332432242223,;-=*Oo66Xo 66 ==;-=:::;==--$O-<,::;;:;;;:::;;<,=;;*:$O===OXO$6666",
"6666666666o:243433343222,-X66XO66X$O666=;;==--;;;;;;-;<<:::;;,:-::;:::,:-;,:;===$O o666666",
"66666666666O<42422<32,22:=.6 $O6 O=$XXo;;;=;;;;;---:,<,<,,<,<2;;,;;,,:::::::;==$oo 6666666",
"..6.6.66666 =,2432<32:,2<:o66  66X**$$;:;;:::;::,:,<32<<,:<<,::,-=:2,,,:::<:=;=o6666666666",
"6.XXX.66666.o=;333<<<,<::,*666666X*$O$---;;;;:,<222<<<<2<:,,,<,;-:,,:,,:,:,<=**X6666666666",
"666...X66XX.$:$;32<:2,2;*-;.6666 $$o  XOO*-==:::2322443332,;;=$*;::::,::,::<:-;O66O6666666",
"66$Xo$O6X$.X:2:,2,2;:<2<=*;o6666XOOX 6 XoO=:;;=;;<3344322<:*  X=::::,:;:<:,,:;;;*=:6666666",
"$6$=;=X.=$ o:<,<::4=*<<<<:=OX66 .. 666 . X:<-*$-:<222333333,*..=:<,<2,,,,,<:,-=;;::6666666",
"6$$;:$o--X..O;<:;:3-*;<,<<;$X6 .. 6 6 .66.,,=O=:22<2<2333443<:-:<2233<2<<<<,:;*-;::6666666",
"6$$;:*$2-.   =<<2222,-<::<<;O.XX   XXX 66 =::,<3322333333433222222343233322,:;$-;;*6666666",
"66$*=O=2,$   *2<44343,,:;:=;;oXX.   . .. X=,2443322233234433332222343333333<,;=-;-$6666666",
"66$*$*:<2-O  O32<4443:;,;=.X$oOXX.  ...Xo=:,3333322<33234444,<32233<23322333<:;;;-*6666666",
"6$$;=;;<:$O..O23,4344,;2;$X$-=:-$oX.XXXO;<,,2223<<22332243342233322<332222332,::;;=$666666",
"6$$:;:;<;XX.o-23<:,244<2:**-*=<22;*OoXo;354<2222,<22332,23244<232,2333<2223332<,:-*$666666",
"66$:;;;,$XXOOO<5<;;=:43<,,,:;;,342:;=$$:,3;:3343322323<:::<32,,232333322<233332<:-$$666666",
"66$-;:;:*XX==$243;=O$<3<,22<<<343<,,::,<:,$$,22<33233222,;:,:::<224443322233232<:&$6666666",
"66@-=;=::oXO-,344,==O;4<:<<,,,2333432,23:,=X=2<:,222223443,:;:<<,34444334323222,;$66666666",
"66@@=;-::O*:34453<;-*=2<<<22<222343244333<=X$,2:22<,<22354<:,2<,<3344345322332<:;$66666666",
"666$=*;:::2433333,-$=;,<<,<234433322322232:;;<:=:3,;,22322<33<:;;:332343223332,-=666666666",
"666$==;:,,23<,<333;X$::,,;:2332233344<2<233<::===;;=;<<,,<<33,::;;<3343234433<:==666666666",
"666$*1,,<<32::,2425:;::;;;<22<23323343<-;,,<:=*====*-,,::<<2<<<<<:,3442354432,-*6666666666",
"6666&;,<2332:<<<4::2,:**=-:23233223343:;---=*$*==**;:,,,,<<<<<<23<,24444543<,;=$6666666666",
"6666%;:,<322223332=$O=$o=-;<4333233332<::;;-=*===*$-:,<:,<<<<<,<332<354443<:>&$66666666666",
"6666%#;,<224434333;$O=;=:,:<43333333<:,,,:;;--====**;,,:,,,<,<22432,24332,;;=6666666666666",
"6666#%-,223444432<;;;<2::2,24432<<32:::::;;;;;;;==*$-::::::::,333<:,333<:;;666666666666666",
"66666#*:23444443<;:<<3<;:<<33332<<2<:::;;;;;;;;;--=*=;;-::;::,2232:2343:-=6666666666666666",
"66666#*,244444333,<2<<;;:,233332223,::::::;;;;;;-=====-;:,:,:,2<<33333<;=*6666666666666666",
"666666*,244344332,<<3<:;:<3332<23<<,:::;;;;:,:;;-=====-:,,<:;,<,,33232,-=$6666666666666666",
"666666#:24433323<;;,2<,:<2243,,<<:::::::,,:<3:;-======:,,,:-;,,,,<:,2<:=$+6666666666666666",
"666666#;<33332<<<:;,<<<<33342<<,:,,::,<<22,2,-;-===*$-,,,:--:,<:::;,2<:;$66666666666666666",
"666666-:<232322<,<:22<<2332332<2,,::;<<:,<<<:---;;=$*:<,,-=:,<<:;,:,<2,;*66666666666666666",
"666666=:,<222222,22<23<<32224322<,,:<22<<,<:;-;<2<<==:<::--,,<,-;2,,23,;-o6666666666666666",
"666666-:,,,<2<2<,,22232<2<223<,<,<223<:,:;:;==:3333,:,,:,;;,,<:$;32<23<,=O6666666666666666",
"666666-:,:,<2<<:,22322<<,2322:,<,,,:::;;:;;,;;<22<<23<,<<::,<,;-,322223,=+6666666666666666",
"666666-:,,,2222<2332<:,<<,23<::,::,:;::;::;;::<,:;:<22<:,<2<2,::<2<,2<2,=$6666666666666666",
"666666--:,,22<322<<,:::<<,22<<,,:::;;;:;:;,,,::$=;:332<,,<322,:,<,,,2<,,;=6666666666666666",
"666666#-:,<2<,23<<,<::,,<,:,<2<,:::;;;:;:;;::<,==;2333<,<22<<<:<3<,<<<<<;$*666666666666666",
"666666#--,2:::34<<<<<,,,,:::,<<,:::;;:;;:;--,<,,<<23332<<,,<3,::<2<;,22<;**666666666666666",
"6666666#-,<,:<2,,<<,<2<<<:,::,<,,,,:::;;;--;:,,<:,<33222,,,23<,::<,;,<2<;=$666666666666666",
"6666666#;:,,:,<,:<2,,<,<,:,,::,,,::,,,;;;-;-;;,,:<,22<<<<,,23322<,,::,<,;$$666666666666666",
"66666666*-;:::23<<<,:;;::::,:::::::::,:;;;-;;-:,:,,22,::,<<<3222<2<,,::;-$6666666666666666",
"6666666666$*=-:<<,:::;;:;:::;::;;;--;:;-;;-;-=:,,:,<<:::,::,2<:::<<,:::-=66666666666666666",
"666666666666#$*=-;:::;;;;;;;-;;-=====;;==--=*:::;::::;;:,:;;,,;:::;-=*$#666666666666666666"
};
