/* XPM */
static char *_8642_f8152055c04946f23c87e287aecde92d24781377a17561f7ae718f53cfb0bdac[] = {
/* columns rows colors chars-per-pixel */
"87 68 22 1 ",
"  c #824100",
". c #924900",
"X c #A65100",
"o c #B65504",
"O c #CB5D04",
"+ c #CF6918",
"@ c #E36930",
"# c #E77938",
"$ c #DB8645",
"% c #DF9259",
"& c #EB8641",
"* c #EF9249",
"= c #F3A251",
"- c #F3AE5D",
"; c #F3BA65",
": c #F7C775",
"> c #F7D37D",
", c #FBDB8E",
"< c #FBE396",
"1 c #FBEBA6",
"2 c #FFF3AE",
"3 c None",
/* pixels */
"33333333333333 333333333333333333333333333333333333333333333333333333333333333333333333",
"3333333333333&*X3333333333333333333333333333333333333333.OO3333333333333333333333333333",
"333333333333 #=*o33333333333333333333333333333333333333.XXX3333333333333333333333333333",
"333333333333 #&#o333 33333333333333333333333333333333333333.333333333333333333333333333",
"3333333333333#*&.3X#*&3333333333333333333333333333333333333 333333333333333333333333333",
"3333333333333X**O &:--*X333333333333333333333333333333333333333333333333333333333333333",
"33333333333333OoX&-::;>=X 3333333333333333333333333333333333333333333333333333333333333",
"33333333333333  3#----:-#oo333333333333333333333333333333333333333333333333333333333333",
"33333333333333333#----;;=*X33333333333333333 .3 333333333333333333333333333333333333333",
"33333333333.33333#*-;-;;---#X3333333333333333.o.333333333333333333333333333333333333333",
"33333333333.X. Xo*-;:;;;--;::-&X33333333333333..3333XX33 3333333333333333 XoO## 3333333",
"333333333.O*;--;;;;::--;>:;;:>>;O333333333333333333.-=&#*& 3333333333333 o*****#3333333",
"333333 o&-;:;-------;;--;:>:;;::;o33333333333333333X----&OO 3.XX. X.33.##&**&*XXO.33333",
"3333 O*=--;;----;;---;;-=-::---;;-O 33333333333333X=;;-#o33.O#####O33.*=****&*X...33333",
"333 &=**--;------;-;;;;;;=*;-*-;;:;-o33333333333o*;;--#3333.**#&#&O .o#&**=*##&&o333333",
"333&=*=;:;:;;;--;;;--;;;;;*-;-;:::;:*333333333 o;;;--*333333X**&#***#OXo&===*&*-=#33333",
"33O=**-;-;:;;;;;:>:;;-;;;;;--;;;>::;o33333333  X=---*&3333333O-&##=-&o3 o==#*==;:;-=&&o",
"3X**&*-;-;:>>::;:>>::;:;::;;-;::>>>:=#.333333 . X#O###3333333X-=&X.OO 3OoO*##--==***&O.",
"3#**=-=;;:>>:>>:>>>,,,,>:;;;;;;:>>>,<1- 333 33X  X.3 X33333333*--*o.3XO&Oo*=*--=*O33333",
"3#*==-::;>>>::,,<<<,<<>,:;;;;--;,,,>>>:#XXX#&OOo.OX33 3333 .  XO&--. *&O###O&-;*OO33333",
"3O=-=;>;:,>,>:>,<<,,<1<:;;---;-:,,:>,:;-;#33&*#oXoo ..3.OOo##&o33. 3.X.#=*X33=-#.XO3333",
"3o---:>>,,,<<,,<<<<,,<1<>:;;;;;::,>>>:;;;*3 &*X333333333...O##333333oo.oo333333 3333333",
"3#-&*,>>,,<1<<,,,,,<,,<<,,>::::,;-:>>>>,># #=# 333333333333#*&X3333X-&o.333333333333333",
".&-&=><,,<<1111<,>,,<<,>;:>>>,<,=#;,,,>;>;-::*3333333O.3 X#&&#&&OXo--OXo.33333333333333",
"3.OO*:<,,<<12111<,,,,,<>:;:>>>;;-*=;:>,:;,,:::&3333O#&&#*-&ooO-#XO==*ooOO33333333333333",
"333o-<,,<<<22111<,>>>>>>;;-&*XXO#=----;>;;>:;;;#.X&**-;;;-#.o-=oo=*&*OO#o33333333333333",
"3X.XO:-:21111121<,>:;;;:=#OoX333X***-==-;:::;-=---**-;;;=#oo=;#.*-=**###.33333333333333",
"33O .O#:21<<21111,,>;;:;-O   33O*-**---=-;;;;;**=-=;;;-#O#*-;-O#--=--**& 33333333333333",
"33X  X=,11<12<<<1<<,>>;:;#333.O*-;;=*------;-*=-;;;-=-=**;;--=*;;-=---=*333333333333333",
"33X .X-><11121<11<1<,<,>;*O333O*=-*XO---;;--;----=&&=-;;::;;;;;;;**=;--*333333333333333",
"3 o.  .=,,<1<11<1121111,>>;X33 #-&. #:--;;:;---=*##*;::::::>;=;:-O=;:;:;X 3333333333333",
"33333  O;;:1111,<<11111<<<>O33X#;*O#=;;;;--=**=*&*-:>>:::;;;&###O#=::>:;&O3333333333333",
"333333  O*-<1<,>><<1111111:*.XoX*>:--::-*#******-><,,>:>>;;;*#OX#;-:,,:;=O3333333333333",
"33333.  X*-#;<>:><<12111,1,-Xoo.X&-;-*#Oo#==**-;,,>>,>,>;;-=&*&#=;;:<1,;-#O333333333333",
"3333333.XX..-<<;;,<1111,*-1;oooXX..oOoX&##*--=--:,>,,<<:-;=--=*=;;;>,1,:;&#333333333333",
"33333333X.  #:<;;>1<<1<>=-,<;#XXX..XX. o-=&**===:<><1<<>:-;;;-=;;;>,>,,>;=*333333333333",
"33333333X   #:,;;,21,11,>>;12-XXXXXX   3X--*>,;;,<<<<,<<>:;;::;:;;<,><<,:-;333333333333",
"33333333X   *,>::,<<<1<<<,>1>&XXXXXX..33X*-;>,>,<,,,,,<<,>;;::::;><>,<<,:-*333333333333",
"3333333OX . &,>,>:<<,1,<><,;*#oXXXXoXX 3.OoX-<,<<<1<,,,,<,>:;:>>>,<,>>,,:-*333333333333",
"33333#oOXX. #>>><:<1<<<<:>,-*&#XXXXXXXX.XXo*;<<121<,>,,,<,>>:,<,>,<<>:,,>-*333333333333",
"3333@=#X#-#o;,,<<>122<<1>::=*&&#OoXXoooXo#;>,1111,>,,,<<1<<<,<1,,,,,,>,,>;*&33333333333",
"3333#---;,:-:,<1<><221<1,;;*****&#O####X#;:,1>><1,>,,,<<<<>>:><>,,>,<,<<,:-*&3333333333",
"333O&;:;;:,:-<1111<122111>**==**&&###&##;:><:-:<<::>,,>:::::;>,,,,>,1<,<<>:-=#333333333",
"333#-;:;;>,:,112<<<>,2221<;-==;;*&&#O##&::;,--,<>;>,,,>;::,,,,<<,,,<<,,<1,>;=*333333333",
"333*;,>::,<<2112<>,,>122<<1,>:>,:-*-*#&*:::>>;,,::,,,>,,,,,,,><1<>>>>:,<,>>;=&333333333",
"333*:,:;;:,<1<122,:>121<<<<,,,>,,<>,:-**;>:;,<,,>,<>,<<<,,>:;>1<,;::>>,>>>>:=$&33333333",
"33**:,,-;:,<,<<12<-=<2<,,><<>>>><<1<>;;-=;-*;1<<,,<>,11<,>::::,,,>>><1,>:,,:-*#33333333",
"33#&;>,<,><,:<<<22;&:11<,,<<<,,<<,,<,>>:-==*-1:><,,,,<,>:;;:>>>,,,,,11,>><<:=##33333333",
"33#*;,,,<,<<,11<12;&;,,<,,,,,,,>>>,,,,::;-==-;==:,<<<,>;;;;;;:::,,>,<<,<<<>-##333333333",
"33&%:<<>,,1211<,<2,;;,<1<,,<,,>:::,>,,;:;------**=->,>:>:;-=-;-;<>;,1<,<1<:=#3333333333",
"333%:,1<<<1111<,,1<::>,2<,,<,>>::;>,:;;;;;;;--;-=*&;:>:::;;;;;;;1,><<<<<<,;%33333333333",
"333&;><>,11<<<1>>1<>--;<<,,,,>::;::,>;;-------;-=**;;>>:;;:>,>:><<,,:,11<>=&33333333333",
"333&-:>,,<<1<<,:,<,<,;;,<<<,>>>:::::;----;---;--***;;:,>;-:>>>>>,1,;;,2<>-*333333333333",
"3333&-:,,<<<1<>,<,><1,,1<11,:>>>>;;;-------=-;-*&&*=-:,>-=;::,,,<,::>,1<;**333333333333",
"33333&;>,,<11<,<<::<1<,,<11,;>,,>;;;;;--=----;=**&*--:,>--;-:<<,::>>>,<>&*3333333333333",
"33333&=:,,<<1<,,:-><<,>><<<,>,>>>;;;;:;;;:;-=--**&*-;>,>;;;-><>:;:>,,,>=+33333333333333",
"33333&&;,<<<11,,,><,>,>>,<<,<;;>:;;--;-:>;-==-**&#O*;:,>:;=;,,>;::>,,<:*.33333333333333",
"33333&&;>,,,11<,<<<>,,>,,<<<>;:>:;---:::-;;****&o. O-:,,>;-:,,:;;;>,,,:*+33333333333333",
"33333&=;:,,,,11,,<<,,>>,<<,,>>>>>;;-;,>,;:;**&#&oX.X=,,:>-->,:::;;>,,,:=&33333333333333",
"33333&=;:>:,,<1<>>>>>::>,<,,,<>>:>>>>>><,>;*#o#;;*#=:,::;-;>,;;;--:<,<:=&33333333333333",
"33333&=;>::,,,<<>>>,,:::,>,,:>::::>>:;>>:>;#OO-,>,::;,,>;->:>;;-&-:<,<:*&33333333333333",
"33333@*;::;>,,<,,,<<,>::>::>:;;:;;-;:;;;;;;&#;,;>,>:>,>:;;>:>---*->,>,>-*33333333333333",
"33333@@=::;>>><<,,<,>,>>>:::::;:;;-;:;--;;;::<<<<,,,,>:>>:::>-=--;>>,>>-*33333333333333",
"333333@*;::>,:><,,,>,<,>>>>:>::;;--;;-;--;:>>,<1,:><,>>,>>>,>;;:-;:>>:;-*33333333333333",
"333333@@=;::>>:>:,,>>,,>:>>:>:::;;--;;;;--;-;><<>>>,>>>>>>,1>;:;;;>:;;-**33333333333333",
"3333333@#=;:;:::;>>:::>>;;::;::;;;;-;;--**;--:>;>:>>:>>>::>,>;;;:;::;-=*&33333333333333",
"33333333@@&-;;;;-;>:;;::;;;;;;;---;;-=--***--:;=::>;;;;--;:>:;;:;-;;-*&&333333333333333",
"33333333333@#&*=--;;-;;;-;-=*---=*--=&**&&**=;-=::;--;;==-;;--;;-=*&#@33333333333333333"
};
