/* XPM */
static char *_1314_591669e5fbdebd9fdc3f4f15f11952d27ab052f194fa25fae9c3428afa37a7f0[] = {
/* columns rows colors chars-per-pixel */
"88 76 21 1 ",
"  c #824100",
". c #924900",
"X c #A65100",
"o c #B65504",
"O c #CB5D04",
"+ c #CF6918",
"@ c #DF5D28",
"# c #E36930",
"$ c #E77938",
"% c #EB8641",
"& c #EF9249",
"* c #F3A251",
"= c #F3AE5D",
"- c #F3BA65",
"; c #F7C775",
": c #F7D37D",
"> c #FBDB8E",
", c #FBE396",
"< c #FBEBA6",
"1 c #FFF3AE",
"2 c None",
/* pixels */
"222222222222222222X222222222222222222222222222222222222222222222222222222222222222222222",
"222222222222222222Oo22222222222222222222222222222222222222222222222222222222222222222222",
"222222222222222222 .22222222222222222222222222222222222222222222222222222222222222222222",
"22222222222 .222222222222222222222222222222222222222222222222222222222222222222222222222",
"222222222222 22222. 22222222222222222222222222222222222222222222222222222222222222222222",
"22222222222222222OOX.2XX2222222222222222222222222222222222222222222222222222222222222222",
"2222222222222222.&$$$$$$o 22222222222222222222222222222222222222222222222222222222222222",
"2222222222222222.O$%$$%%*&=*$22222222222222222222222222222222222222222222222222222222222",
"222222222222222222O$O*&*---=-=$.2222222222222222222222X222222222222222222222222222222222",
"222222222222222222X*&**=&%==&=--&.22222222222222222222 222222222222222222222222222222222",
"22222222222222.%$X&-&$&$&$&=*&&*==%$o222222222222222222222222222222222222222222222222222",
"22222222222o$$%-===*&OXo&&%&**&&*===*&o2222222222222222222222222222222222222222222222222",
"2222222222$-;--==-==-&o&&&&&=$X%===&&==O 2222222222222222222222222222222222222222222222X",
"222222222O==--;---===&&&=&=*% 2X&=-=&&$oOo222222222222222222222222222222222222222222222 ",
"2222222.$=-::;--=&&==&%&&&&=&OOo&-=;-*&OXO 222222222222222222222222222222222222222222222",
"22222o&*=-;;;-=***====*&&=***$XO&*-----*%$o 22222222222222222222222222222222222222222222",
"2222 &==;:;;::-*=-;*%&=--*===.2. .=-==---==%o2222222222222222222222222222222222222222222",
"2222$=*-::>,;-;--::;-=---==-*X 22.$=;-=---*&$O.222222222222222222222222222222222 XOX2222",
"22.O$&=-;>>>:--;;-;>;-;;;;;;;& 2.$$;>;;--==*O*&222222222222222222222222222222222.O. XoX2",
"22O$$*=;::::>,>>,:::==-==---;-OO&-=-:::-**-;X$&2222222222222222222222222  222222222O$O.2",
"2X$$&==>>;--;>>>,>>,;-;;=---;;-&=---,>:>;-:,o X22222222222222222222222222222222OOO&&$$O.",
"2o%$*-=;:;-=-::>>>>,>::>-------&*;;;>;=;>::>& 22222222222222222222222222.o 222o*--=$oXX.",
"2$$O&-----==-::;;:>,,>>>;-=----&$=--:-%%;::-&$X222222222222222. 2222222.&*$$&%&&==&X X 2",
"O$$$%-;:;---;:;--;:>>>>:--==&==&o. X$%OO=;;$$OX.X222222222222222OO.. 2O*===*&$$$&*&O 222",
"$O$&&$*--=-;::;;::;;::;;-;;=O$=& 2222X.X%=-&OXX$$22222222222 XoO$OOOO&==*==&$o222X222222",
"X$&&$O$%&&*-:,::>>;;:::;--=&%$**oXO2.o.o&&*&&*==&O.2222222.oO==*&$O&&&&=-=*=&$ 222222222",
"2O&$$O. XOO&;,>::;-::::-==*$$%&&&&&..X.$&%&&==--&&& 2 222 . O;=*=&O$$&==;===&$$$O2222222",
"2X%OO.  2   &>,:;-=-;;---=-*%***%%$222X&*=--==*$OX 2.2222. 2o;*&%$OO&;--;-=&$$$$O2222222",
"22ooXXOX O.2$;;,>-=**==&----&&&&&&O2222O&*==*$$OX  2222 XXXo=;--&%%*----;-=$O$O 22222222",
"222XXXXXOo2.--=::-==%%&&-===*%%*=&o222222o=%*&$*X2X2O*%O$$*;::;;&=-;;---;:-$O%O222222X22",
"2222222.. 2 *:--:;*-=&&=-==&$O%&%$o222222X=&=*&%O$%&-;-=;:>>>;;=$=;:;:;:;:-$$&O222222.22",
"222222222222o:-->>*=;-=====OoOOOXOX2222.O&-=-----;-=-;:>::>>--:=%-:>:::;;:*%&&$222222222",
"222222. 22  O:;;>>&$--*&=*$OOoX222222 O$*===;;---;--::::>,,:==---:>>:;;--;*===*.22222222",
"222X$O&o22Oo.&:,>-%oO$$&&$OOOOX2222222.X%&*%&--==:>;>,>><<<>&&----:::----;--==-$o.222222",
"222$%&=%.2$o2.&:-=&&&$O&&&O .oX 2222222  .%%&*-==;>:>,,,<<<,-=-==---;-;-;;-===-&oo222222",
"222oXOO$X2$$22 O&>:;>;*&=%X22X22222 222 2X%--*&==;>>,<<,,<<,:----==-::::>>:;-;;$2$=22222",
"222.o$oO$O*=.222&<:>,;=&*$ 22222222X.. XO$*-:-=--:>>><,>,<<>:;==&%&>:::>>,,:::;*$=--=222",
"222 X$%&&*-* 222%:&$=&=&X22222222222o.XO&*==---::>,>><,>,>>>-----*=>::>>>,>>:>>-=---===2",
"222  o%===&o22222X.XXX=$2222222222 222.X$&$&-;>,>>,>>,::,>,<--;-;-:,,,,::,,,>>>;-==;;--&",
"222 ..$=-&.  222222X..-&222 X2222 .    2X&%-><<,>>>;;>;:<>><;&*--->,,<,>:>,>,>>>-**----=",
"2222XX&=-*.  222o$$.2O-=.222X 2.  .   2X&--;<<,,>,>;;:;:<:-:,&&=-;,>,,,,>>,,,:,,:==-==--",
"2222$**&*-O  222o=-oX&O$$X.XoO&-=o.  2 =;;;,,>,::<<>::>,>>>;=O&-:>,,>>>,>,,,,:>>:;;---=-",
"2222-;-=%-=O 222$;=XOO2o-&&---::;-==*oO==-:>;:>;::>,,,,>:;-*oXO*->>>,>><,<<,,,>;;-=*-=%O",
"222=;;:=&*--$X$*>>&XX 2X;;---;::-;>;-&%-:=;,,,>:-$=;>><,>:=***&*&&:,,>,<<11,,,,:-==$*&.2",
"222=-;;=&%==$&*;>&O 2222$;---::>:--;&$=>:&&*=>::&.$*-::,>>>:>;-;=&-::;,1<11,,>,,;-$O+O22",
"222&----=&-=&=Oo$OX22222 $$%=-:>>,,,-*-,,:$22O&%.2X&-::,,>>>>;====--;-&-<11,,,,,;&+22222",
"222#&=*==--;-$ 2 o  . 222 X&;>,,><,><==::>-.2  ..2 O=>,>,<,::----=--==O&<111<<,,-$+22222",
"222#%=----=>;OXO$$%&&%.22 &-;>>>,,>>,*%;;::O  2 .  .O=>,<,:>:;;--;--===-11111<<>-&$22222",
"222#%-::>-=:;%=====&%$.22 %-;;;>>>:,,:-;;-;&.   .  X$%*><,:>:::>>>:;;::>11111<<,;*$22222",
"2222%-;>:;*=*&;-;-$.2X$.o%&%;>;>>>>>,<<,>-;-%$oXXX.o$%&=:,,::::>,,>;;:><11111<<>;&%22222",
"2222%=;:>>:=&->,>*$$XX&=:>:&;,::,>>:>><,>>;-=&oX Xo$%%&**=>:>>>>,,,;;;>,,<<<<<,:=$222222",
"2222%%;:,>:;;,<<:=*=*$&;<>>;>,,>:>>>>,,&&--*&%oXXoO$$$&*==->,,,,<,,>::,,><,><,>;&$222222",
"22222%-:,,;;:,1,:>;&$O*-:,>;;:>,;->>>,;%$%*&$OoO%&$$$$%*-;-><<,,<>>,,1<,<<,,,>;-$$222222",
"22222%=:,,>,<1<>,<,-oX%-=<,:::>,;-::;--&&&%%%%$$&&&%%%%=;;:::>,,,;;;:,,<1<<,>;=&$2222222",
"22222#=;><<<<1,>,<,-OO&;-:1,,>,,:;>;---====*&&%%%&%%%%$*--::-;:,,:;;:,,,,<,>;=&$$2222222",
"22222#%-:,<1<,>><<,=*-=&&;1,,><,>::;--=====-=*-=&%%$$%%==->---->,:-;;,<<<,>;*%$$22222222",
"222222#=;>:<>:>><<>,,,*O&>>,::,,>:;;;-=---;;--::-&&%$$&--;>===-:,;--;,,<,:;=$$2222222222",
"222222#%-:>,,,,,<<==>>=&=,::;:>:;;-:---;::::;:-:==**&%=;-:;==--;>>;:>>:>:-*$$22222222222",
"222222%%-;><,,,,<>=&-:;==,,:>>-;:-;:-=;>>::>>::;===**&=--;-==-=-;,<,>;::;*%$222222222222",
"2222222$-;:,,<,,<>;;--;::<,,>-;::-;;;-><,>,,:::-=-;-*&----==-==-;,<<>;,>;=+2222222222222",
"2222222$=;;:><,,,:-:;=-;>,:>,;:::-;:::><,>>:;,,;;:;--&-;--==-==-->,<,:,:;=O2222222222222",
"22222222--;:><,,:;--::--;>=:1<,>;;;:;;:,,;;;-,:-;>>:==-;------;;;,<,,>>:;&O2222222222222",
"22222222&-;;,<,>>;-:>;---;=;<,,:;-;;;-;::;-:::;=->:-=---:;--;:>,,<<,:>,:-&+2222222222222",
"22222222-;;:,:::,:;>:-=---=;,,>;;::;:;;:;;;>>>>,,>-*->--;::::::>,<,,,,,>;%+2222222222222",
"2222222@&-;;>-;>,>,::---;--;>>>:;:>:>:=::;::>,;:,>:-:>;-;;;>,,>::<,,<1,,;=$2222222222222",
"2222222@*-;-::::>:::::-;----:>>>:;;---=;:;;->>:>-;:>::;:>;-;>,>:-><,,,,>:=&$222222222222",
"2222222#*-;;:;;:,,:;:>::;-=;;:>,>;-=====-;=->::;==::;>:-::;-:>:>:><,,,,,:-&$222222222222",
"2222222@*-;::--;>>>>::>:>;-:--:>;;-======;=*&-:-=-:::,>;;>>:>:-;;>,,,<<>:;=%222222222222",
"2222222@*-;;--;--:>>--;;>;--;-;:;;;-=====;;=&=---;>>::::::-;>>:-:,>::<1>:-=*222222222222",
"2222222#%=----,>>>,:-;;;:;;-;;;:>;-;;-==*--=&=*=;:>:;>>:>>-:>>>;>,>;:,<:;-*&222222222222",
"22222222**----,<,,>>;;:::;;;;:;-;:;-;;--*=-===**;:::>,>>:;;:>>,,,,>;:,>--=%&222222222222",
"22222222#*---->>>:;::::;::--:;;--;;-----==-=-*=;;:,>>>>,>:::>,>,,,>;>,>;=%%$222222222222",
"22222222#%=---;:::;;::;;;>-;;-;;-;;------====*;>;:>,>>,,>>>>:,,>,>>:>::-*$$$222222222222",
"222222222#&*==------>:;;;:---=;-=--====---=*==>;::::>,,>>>>:-:>>;:;::;;=%$$2222222222222",
"2222222222##==--=-==;:;--====--=====****===&=;;-:;=-->>:;>::--;-------=*&$22222222222222",
"222222222222#$%&*===---=**&===-*&**&&&&&&&&=-----&$&*-:-----=======*&%$#2222222222222222"
};
