/* XPM */
static char *_084_62c4331bafafa760a05c468e4c18583d30ec9f14dfbfcb64710ad982861a84e4[] = {
/* columns rows colors chars-per-pixel */
"93 80 26 1 ",
"  c #824100",
". c #924900",
"X c #A65100",
"o c #B65504",
"O c #CB5D04",
"+ c #CF6918",
"@ c #DF5D28",
"# c #D77530",
"$ c #E36930",
"% c #E77938",
"& c #DB8645",
"* c #DF9259",
"= c #EB8641",
"- c #EF9249",
"; c #F3A251",
": c #F3AE5D",
"> c #F3BA65",
", c #E7A271",
"< c #F7C775",
"1 c #F7D37D",
"2 c #EFAE8A",
"3 c #FBDB8E",
"4 c #FBE396",
"5 c #FBEBA6",
"6 c #FFF3AE",
"7 c None",
/* pixels */
"7777777777777777777777777 .777777777777777777777777777777777777777777777777777777777777777777",
"77777777777777777777777777.777777777777777777777777777777777777777777777777777777777777777777",
"77777777777777777777777777.777777777777777777777777777777777777777777777777777777777777777777",
"77777777777777777777777777X.77777777777777777777777777777777777777777777777777777777777777777",
"777777777777777777777XX7 77o77777777777777777777777777777777777777777777777777777777777777777",
"777777777777777777777XOo 77 o7777777777777777777777777777777777777777777777777777777777777777",
"777777777777777O-.777ooO.777XO777777777777777777XO%%%o777777777777777777777777777777777777777",
"777777777777 O-;;=o..OooX 77O=7777777777777777 OXO%O%ooX7777777777777777777777777777777777777",
"7777777777 %-%oO==OO%==X7 7.O.777777777777777.OOOo.X77.X7777777777777777777777777777777777777",
"7777777XOXO-..OO%%%-::;O777777777777777777OX%:;O777777.77777777777777777777777777777777777777",
"777777.-X77.7oOO%---%%%Oo.777777777777777X%%-%X777777 777777777777777777777777777  .X.7777777",
"777777=%7777XX. oOXXoo..oOO.7777777777777777%O77777777 o777777777777777777777777X%OOOX7. 7777",
"777 . O 77777X.. 7 Xo 7 XO%OX777777777777777X 77777777X- 777777777777777777777Xo%%ooOO%=OOX77",
"77X=%777777  77777 Xo . .oOoX 77777777777777777777777o--O7777777777777777777.77...oOX o-%=%o7",
"7%;-O777777.O.777 77.  77.Oo.X7777777777  77777777777::--.7777777777777Oo777= 7. 7 XOOOOXO%%X",
" -;-O.777777%O..7X77777777.oo. 77777777O-;%77 7777777O::%777777777777777777XO7  =X77 X.77O 7X",
"X-;--o7. 777X..oX7777777777.OoX7777777.77%:=-:;%O77777X.7777777777777777777 77.=;%O.77777 777",
"O==%.77.X777. XOo7777777777XOOO.777777.77O>>>:%X= 7777777777.%% 77X77777777777%:;=--o. 777777",
"O%Oo..XXX 77.XOO 7777777777777.X7777777777::-%%7 % 77777777777O=7 %.777777777 ::;-;;%OX 7777.",
"%=OO%=OO. .XO%o  7777777777777. 7777777777%-O7777%X777777777777OX X.777777777%;:;:>:-Oo.77777",
"o-%%=-OoXO-%-=oX.7777777777777777777777777%- 7777O%o.-X77777777.   77777777.%-;::::;;%o777777",
"OO%%%=%O-=%-;-O7777777777Xo. .O77777777777Oo7X 7O=-= ;>-777777777XX7777777X==-:>:>:;;X7777777",
"ooo%;-=-%OOo%O..777.o.77O%oooOo.7  777777 XXo=-->;=%X->;%77777.7  o7777777%%-;;;:>;:=.7777777",
"Xoo->;%OoOo XOO.X. X 7 OOoOoX.X  .X.77777OooOo-::-oXo%-%=%777o%O7777.O%===--:>::;;=OoO7777777",
".oo::-%XooXX %= XOoOXo%oXo.XoXoOOX.o 7777XXX%O%;;;o777 7 OO X%=O777X-:><<>>:><>::-O O% 777777",
"7oX---%Oooo 7o=%OOO%%%OOXXXOooO-%O. 777777 oOO%--;=o.7.o..;-=;%777X=:<11<<<<<<>>>:-%=%.777777",
"7.O-%oOOXXO. %-OoOOOO%%OXXoooXO=%Oo.77777777XoO%oXXo-X ;OO:=->-O.X=:<133<1<<<<1<>::;;O7777777",
"77.%O.XOOOo.O-OooXoO%%OXXoXo%==%%Oo.777777777 oO 777%o7.%--;;;:>:O%;>1431<>><1<<>>:;-%X 77777",
"777o%oXXXOO.X=o.XX.oOO. .XXooO%%OOO77 O777777..O%.77%o77X;;>::>1: 7%>>33131<<<<<>>>=.X%o77777",
"777XoXX 7.O77%o.Xo .ooX   .X.77.OX.  %o7O-%oO--::=7 O77 :>133<-O.7 O::<44441<<131<=o77 777777",
"777%OOX77  77O=ooX.XXoX.... Oo.ooooO:;X=;:;%:::<>- 7777X:33<1:X 7 7%-:>34441<11441%.777777777",
"777=O..777 77.%%Oo%%Oo.X. . o-ooOX.O;>::;:-=-<:;::=-:--<33<<>:<%777o-;>343431<<141o7777777777",
"77777.7777   7  7 OOOo X. .7 %%... OoO>>-XoX-1;:>>>:>133331<<1<o777 O-344433311<3> 7777777777",
"777777o 7    777 .OX.X ooX 77.%O ..o77->:-;>1>->:;=%;>14553111>X777XO%<3531343<13<o7777777777",
"7777777OX. 7777.===Oo..Oo.XO%%%;:-OX77X:;--%%.%-o7 %><3453>:<1O777X>1::31>>11><33<>o oo.77777",
"77777777%XX    O>;:-%oX.X.O:>;=:>>--OOO-O77777XO 7%3443343<>1<%.77-33<>4>->31<333<<<;O..77777",
"7777777777O 77 ->::::-%oo 7%<:-;:>>:;;:%.77777.->><113313331<11- 7:311>1>%<44441>><>>% X77777",
"77777777777  7 --%--;:::=o.;>>:;;::;::>-O777o=-;:>:;%:411::>::;>:=-;:<>:>>144553>><1<;X777777",
"77777777777X 7X%. %%--:>:-:>:>::>:>>><1:.77o><:;-==OX>:-1%%>;;o:33>=:1<;>33355443333<%7777777",
"77777777777O    7 %%%--:<<>>>>>11<11>>3>X %-:::;:oOX7XXo:-O:::X -<4<:<<<113155444431>X7777777",
"7777777777%o.  77.%=%=->3<><<<133331:-<3:-:--O%::= 7777XO.7o=>=77.;<>33343445544443<>O7777777",
"77777777 oo.  7 XO-:--:11><13<<3343<% O>33>--%X:;;X7X-%o77 oo>:.OoX;11>144444544443<:-O777777",
"77777777.X. XOXO=;><>;:<11144333331<;X7.:3:%-O7%-:O7X:-o77=::<:%><;;>>-<554443443133>:- 77777",
"77777777XX. o%OO:>><1>:-:1>34343<>3>;O77;3:O%X77=:-7.:-=.7-:>>>>><>:>>:34433444411443<-777777",
"777777777X. .ooX:1>>1<:;-:->1<13<<>-X   ;<>%o777 %;%O----.XOO->:><>><<143311333313441>:777777",
"777777777XX     :4<>>>>::=O>>><<<3:XX.. X;>o77777777.o-;:-%X. o->><><354443>>1333331<:=777777",
"777777777XX    .>><><3>1>>:<<:>>><<;>%OOX%:.77777777 ->>:::-o7o->>>><44141>>11331<>>;=%777777",
"777777777*>>>>>><<33>>><>><11:>>><1::=->:%O 77777777o>31;::-Xo%->>>>>>>31><411<<>;--%%%777777",
"77777777*>><<<<<11114>;<1=:31>>:<3411==<=XXX 77 7777-334>>>:%;;;>><>>:<4>>14<:;;=%+%=%7777777",
"7777777O=><1331<11>14>>>11<<<>><4451>=-;%oOO:=X7 o..:43551>:::;:>>13<<341<1>==#++O77777777777",
"777777O%=>3331133314<>><><311143453;==;-=%=-341-77 O<331111>;--=->333441>><%%%+O+777777777777",
"777777O=;<131<<<33344>>14113313361-;>><>::<3434>.77O31<>><<<>>=->34341<<:;&+7+777777777777777",
"777777O=;<43133313334534411451<311;;:>>>13651:>>:%7X1>>>>>>><3><34<<4<11>*O777777777777777777",
"777777O%-13314341<3444444<<36411:>3>=-=-:%-=-<441>OX<>>>>>>>><4433<15541>=7777777777777777777",
"777777O-;1544344343454433313541<1>><:-;=oXXO>4133>:-<<>>>>>>>><433335631>%%777777777777777777",
"777777&=><45544555444541433444335541>:<:O%=:<1>1<<>><>>1>>>>>>>11333561<:;+777777777777777777",
"777777@$;<355545435445<11133534466553>11>>><13141<1<>><1>>>><<<33333553>:-+777777777777777777",
"7777777@=>>544441344435%1<<:6344555664343<><11143>1<><<1>>>>><1333315544<-%777777777777777777",
"7777777@=>35144544544><%>>>O<44344445543>><111><1>>>3311>>>>>>11344454353:%O77777777777777777",
"77777777*,1455564555345>oXO%;333333<1<<>>:>><3311<<<433<>>>>>>33134554334>-%77777777777777777",
"777777777;,1555534554141==-:;<3331><<>:::::::<43<><341<>><>>>3411<45543131:-77777777777777777",
"7777777777-255645454334>--;:;>334333<>>>::::::><>>>33<<1><1145433144344343>=%7777777777777777",
"7777777777=,155556544>>:;::::>4444443>>>>:::::>>>>><1131331134344313135443<;%7777777777777777",
"7777777777=%>4664643143<:::::<54454341>>>:::::><>><3334341>><3133433334531<:%%777777777777777",
"77777777777;:<66554<>133<>>:><34544443>>:::::::13<<3541331>>>11134433333<1<:%%777777777777777",
"77777777777-;<663541>1<<<>>>>>>4655531<>:::::;;11><4431331<<<11134344433111:%%777777777777777",
"77777777777;-166453<<1<>1>><<><5<134311>:::::-->114433331<<>>13354344544444>-%777777777777777",
"7777777777;;<455543<><11>>><1<14<<13113<<>::;:::>331343311>>>>1454444443443<;%777777777777777",
"777777777;;<34535531<111>>>11<134431<>1<>>>::>:;>1<>143433>>>:<144443331111<:%777777777777777",
"777777777;>13313334431<11311><11431<<<1<>>>>:-->1>><313543<>>>><3443<>><<<<>=%777777777777777",
"77777777==<3333334544313333<<11<<>><>>>>>::>>=:1><<<334554111<<1333311111<1>=%777777777777777",
"77777777=;11<113443331353333331<>>>1>>><>>>>>-;<<1<<3454443113333331<>13131:-=777777777777777",
"77777777=><1><3443333354133441><<<><>><<<<>>:--<13<<5434333<1443431>:>1111<:%=777777777777777",
"77777777=>13<3433334331313343<<1<>><111<><:;;:<><11<<<1313111543453<><1<11<:%7777777777777777",
"77777777=:<333111111<1331<131311>>><11><>:::<1>>>><:->31>444333>3311133431<;%7777777777777777",
"77777777==<11><1>>1<<111>><<13<>>><<<1><>:<<>>>>>>-->33<>343314<11>>><331<:%%7777777777777777",
"777777777=:<1<<<>>1111131<1>11<>>><<<>>>:><<>>><<:-:><3>:<3113441>>::<<<<:-%%7777777777777777",
"777777777%-:>>>>>>13><111<>>11>>>>>:>:::::<<1<<11<<<><3;:<333333>>>:>><<:-%%77777777777777777",
"77777777777%;:>:>:><<111<<>><>>>:;::::;;;:<>>>>>>:::>1>:>11<<11>:>>>:-><-%%777777777777777777",
"7777777777777$%=-;::<1><<<:>>::;---;--;--;::>>>;-;:::>::>>>>:>>:;-;:;-=%$77777777777777777777"
};
