/* XPM */
static char *_0578_b49136ca9249fd95774c3532f1fc2a9a97c418bf23bb6af3645aa124178202a5[] = {
/* columns rows colors chars-per-pixel */
"90 73 23 1 ",
"  c #824100",
". c #924900",
"X c #A65100",
"o c #B65504",
"O c #CB5D04",
"+ c #CF6918",
"@ c #E36930",
"# c #E77938",
"$ c #DB8645",
"% c #DF9259",
"& c #EB8641",
"* c #EF9249",
"= c #F3A251",
"- c #F3AE5D",
"; c #F3BA65",
": c #F7C775",
"> c #F7D37D",
", c #EFAE8A",
"< c #FBDB8E",
"1 c #FBE396",
"2 c #FBEBA6",
"3 c #FFF3AE",
"4 c None",
/* pixels */
"4444444444444444444O 444444444444444444444444444444444444444444444444444444444444444444444",
"4444444444444444444OO444444444444444444444444444444444444444444444444444444444444444444444",
"4444444444444444444.oX44444444444444444444444444444444444444444444444444444444444444444444",
"444444444444X#o4444..XX4444444444444444444444444444444444444444444444444444444444444444444",
"444444444444OOOO44 oOXOX444444444444444444444444444444444444444444444444444444444444444444",
"444444444444X 4.X.#O#O#*O44444444444444444444444444444444444444444444444444444444444444444",
"44444444444444444#*=-*=--*&O4444444444444444444444444444X.44444444444444444444444444444444",
"44444444444444444XOO&&-::;-;-#.444444444444444444444444#..44444444444444444444444444444444",
"444444444444444444.#**-;;;-=-;;#.444444444444444444444Oo4444444444444444444444444444444444",
"44444444444444.O&O*;-=*;-=----;:;*## 4444444444444444  44444444444444444444444444444. 4444",
"444444444444XOO=;;:=#O.&;---;;--;:;;=X4444444444444444444444444444444444444444.X.4 XXO4444",
"4444444444 &;;;;;;;;--*#=;:-*O#=-;;--=O4444444444444444444444444444444444444 OX.X#*O.OO444",
"444444444.->::;;----=*--=---O4 *--;--&O#44444444444444444444444444444444444 #O44 .O 4 .44 ",
"4444444.o=;:::;-=*=--*&*==-;*Oo*;--;;=Ooo44444444444444444444444444444444444 4444444444444",
"444444O-;;:::;-----;;;--==--===-;;--;:-*# 444444444444444444444444444444444444 4 444444444",
"4444 O--;>>>;;;;;;:--;:;----***X#;--;;:;-&OX4444444444444444444444444444444444 O*.44444444",
"444 #**-:>><<<>><<1:-;;;;;:;-OO.o-;;:;::;;-;O444444444444444444444444 X444444. o#X.X444444",
"444O=&*;>>><<11><<<1<:-;>;;;:*&&&;;>>><>:>-;-444444444444444444  444444444444.#-#o*.444444",
"44X**&-->:;>><1<>::>>>:;;--:::-----:>1<><1*&*44444444444444444. 4 444444 .44444O=**o444444",
"4X#&&*-;<>;::><<>>:>:>1<;-;:;:;;;-;:<>>>>1>& 44444. 4444444444.44444444oO.44444X-***444444",
".#O##&=:><;;:::>><<<::><>::;;;;;>>::<:;:>>>-#O4444   444444444.4444444OO 444..o*-=&*444444",
"X#X#&&#;<::::;::><1<>>>>;;------=*-;;;>>:-;;&# 4444  4444444.Xo444444 *O 44#=*=--*Oo444444",
".O#&###*::>>::<>><1>:::>::;=&--OoO#*##>2<:--*o.4444 X 44444 ooO 4.444.=*&&*------#o4444444",
"4X&##OOXo*;::<<<<11<>>:>:;-=*--=-=OOOo#>:;=--;;# 44444444XO.OO##OOX44 *----;;---#444444444",
"4.##O..Xo*;=;1<<1<<<><>:;=*&*-;;--X   o-----;;--=X.OO444 *#O&#--*#OO##*;;--;-&O44444444444",
"44o#O..X#&#o-3<<1<><<<>::-=**=---=.444O=-::;--#O#.4#=44 &**;--;-&O&==*-;;=*&OX444444444444",
"44X#OX. O#O.-3<11<:<2<>>:;-*#=*-;O.4444#-;;;=&##O444444&#X&::;;-*#**---;:-*##.444444444444",
"44.oOOO#-&XX;1111>;<1>:;::;*&-==#X.44444O-&==##&#.44 X#OXX*::;-=**-;;--;>;*** 444444444444",
"4444.oO*#44&<:111>::>>;*-;-*O##Ooo 4.4444-***=**=& .O&Oo#->>:--=---;;--;>;=--X444444444444",
"44#44444444X*;;<1;;:;-*#;;-=#O ..4444444 --;------*#=---:<<:;;--;;;::;-;>;;-*O444444444444",
"44#444444444 &::>::;:-=-:--*OoXX 4444444#=---=-----;;:>><<:;>:;:<>>>:;;;:>;;-*oX 444444444",
"44#444444444X-:;<<;;<:-::-&.44.#.44.44.*---=---;;:::><<<1>;;:>><<:>:--;;;>--;-** 444444444",
"4444#4444444*<:<1<-*;:;:;=*.4444444O44#-**=--;;;><<>11<<11:;;-:>>::--;;;;:-;;;-* 444444444",
"444###o44444=:;>>;=**-;;:-OX4444444#oX.XXO***=;--;1<<<<121<:--::;-;:;::;;:-;;;-- 444444444",
"444#--=..*X4.#:>:;;;=&--***o.44444.X#o .XO*-*--*&-1111112122>=O===;>:>>;::;;:;--*O*4444444",
"444#---Oo;O44.;<<>><:;*#XX*## 444Xo  4 Xo=;=-;:--:<<>1111111<;#*--;>><>><<>:>--*-;*4444444",
"44###O*OO:&  .;:>2222<&#..oO&.444       O-;*--;<<<<<11<11111;:::>;;><<>1111>>--##---444444",
"#4##*OO#=:-.  -*#<112:O=. #Oo4444 .444444X----;>121111111<11>>>><>:<1<<111<<<;-O*---444444",
"44##-=**=:-.  X.4*:>:**;.4.&O 4      4444X=;:>><12<<><<<21<<1;:>>:>1121<<<<12<:-;--;-44444",
"4###*-=--;O  44 .O*->>1:X 4 .O*oX   .   o-;;<<111>:<<<>>22<>1:;:::<1<11<><<121<:;--;-&4444",
"4###==-;;=.  4 *-&XO;<1<O.X 4O;*oX.   .X=:<<<<12>>>11<<>11<1>-;>><1<<<1<<<<111<<:;;:*44444",
"44##---=:*.    #::&&-*;<:&OOO#*;-;;*#oo#:1<:<<11><<1<<<<><>>;oO-121<1<111>><11<<>>:;#44444",
"44##:;-*-;O  X..-<-;O &-:<;::::::<1>::=;2<&*<22>->111<<1>::::**-<12211221<1<<<1<>>;;#44444",
"44##>>-**;-X&;-;<>:-.4&-=;::>::::::>-=::<:#oO:2:-::-><><1<:;><<<>>:<2332222<<<<<>:;#444444",
"444#;:-==;-o-<<32>;O44&-=--;>:>:::11;#=<<1-. &<<><=O-<;:<11>:;::;;-;<232231<<<<<>-$+444444",
"444@;;---:;**;::1:X 44&=#-**:111><1<<;;>>1:#..*-:;&O=>:;<11<;;;;--;=;12232<<<1<1>=O4444444",
"444@=;;---:;&#&-1;oOX X#OOO*>121221<<--<>::#XOOO##O#*;>><11>;-===;:-=<2322222111>=+4444444",
"4444=:;--;>:;-;;---*...X#O&;<<<<11122:=;<;:=&*#X oO#*-:>::>>;;---;:;*;322333222<:-#4444444",
"4444@-::>>:;;>>;;;&#o .X#&=;>>:><<<<232:;:::-=#Xo##&*=:>>>>:::>>>><>;-122323221>;&44444444",
"4444@,:><1<111<>:;&oXXOo***=>1::><<<2221>:;;-=##**&##*-:;>1<>><<<11<::123332231;&444444444",
"44444&;><1<<<1<<>;;-#O-*;:;-:2><<>>122<:<;==*&#&***&&&*;-;<<<>:>123<;>2222211<:-#444444444",
"44444&-:<<<:<3121>=*##;;;2<>>11<>:;>22;---=**&#&&&&#***-*->;:1<<112<><1<11<::--##444444444",
"44444@-:<<<<23222<;=#=<>;<1><<1<>:;>1<;-----=**&&&&##**&#=:;>112<<23321<>;;&**##4444444444",
"44444&-:<123322111;*-<<;;>>>><<><::<<:;;-----==****&&&**=;:;:><2<<13321>;*&###444444444444",
"444444-;<223211112;*-;**-<><111<<:><>;;----------=**#&*=;:>:;;>2112311<:=&4444444444444444",
"444444@=>221<<1<11;;<>-*-<<21<1<::<<;;;--;;;;::---=****->::;;;>11232<<>;=44444444444444444",
"4444444=:<1<<1<<<<:-><:--<11111:::>>;;;;;;:;:<<---=***=;>:;=-;>1<122<<:=&44444444444444444",
"4444444=->2<12<<1<>-;<>:;<1>21>>>:::;-;>>:<<<>:--=****-:::-*-;><1211<:**#44444444444444444",
"4444444,;:<<<1112:;-;>>::11<1<<>>;;:;;<<>1111:;--;;=**-;;;=*;::<11<1<:-&#44444444444444444",
"4444444&;<>:<<<11;:>>>>:>1>>111<<:;::>>121><<<;-:>:;-*;;;;--;;><1<1<>>:-#44444444444444444",
"4444444@;:::1111<;;>1>:;>1;><11>>::::<<<<;;;;--;<121>-;;:;;;::<1><11<<>-##4444444444444444",
"4444444=;::<111>>--:<>;;::;>1<::;;:::>>;;;-;;;-:<::;>:;;<:;::><>:<11<1<:=#+444444444444444",
"4444444=-;:<1<>>::><>;;;:;;<1<:;;::>:;:;;;;;;:>>>;*#;1:::::>>><::><211<>;=&+44444444444444",
"4444444&=;::<>>>>><<::;;:;;>>>::;;;::-;;;;;><:<:;--->1<:;;;><<>;::<111<<<;*#44444444444444",
"4444444@=;::<:>1<<>>:>;:>:;;;><<:-;;---::;--<:<>:::<<11<>>;;<><:;><1<<<<<:=#44444444444444",
"4444444&=;:>:::2<<>:;:;;>:--;:><>;;---;>:-=*-:>;;>><<1<1<><:><:;:<111111<>-&44444444444444",
"4444444@&-:>::>311<:;;:;>:-;;;:>::;--;:::;=**;:;:-><<1<<>:;:<<;;:>:>1111<>-*44444444444444",
"44444444@=;:;;>1<1<:>:;;>>;;:;;>>:::;;;-;;-=*---:;:>><><<;;>11<<<<::<<1<1:==44444444444444",
"44444444@*;;;;>>:<>:>>:::::;:::;:>;;:;;--::--:=*><><<<<1>;:><1111<:><><1<:-&44444444444444",
"44444444@&;;;;><<>>>::>:;::;::;:::;;;;;;-;:-::=-<<>><1<<>>>><<<11<:<>::<:-**44444444444444",
"444444444#=;;;>>>:;;:;;;;;;::;;:;;;---;;------->:<>><<<><>>>><>>>>>>>:>:;-*444444444444444",
"4444444444#%--;----;::;-;;-;;->;-;--==-;---=*;:-;::>:><>>>:;;>>:;::>::>;=#4444444444444444",
"444444444444@#&*=-*-;;;----**-;=*=*****----*-:-*:;*-:>>;;:;--;:-;;;-=*&#@44444444444444444"
};
