/* XPM */
static char *_0492_882c7495117d0e478a18fe98b6dfe5b39f798e2abb080cc8415890bafc9ec9fa[] = {
/* columns rows colors chars-per-pixel */
"93 79 24 1 ",
"  c #824100",
". c #924900",
"X c #A65100",
"o c #B65504",
"O c #CB5D04",
"+ c #CF6918",
"@ c #D77530",
"# c #E36930",
"$ c #E77938",
"% c #DB8645",
"& c #DF9259",
"* c #EB8641",
"= c #EF9249",
"- c #F3A251",
"; c #F3AE5D",
": c #F3BA65",
"> c #F7C775",
", c #F7D37D",
"< c #EFAE8A",
"1 c #FBDB8E",
"2 c #FBE396",
"3 c #FBEBA6",
"4 c #FFF3AE",
"5 c None",
/* pixels */
"5555555555555555555555555555.5555555555555555555555555555555555555555555555555555555555555555",
"555555555555555555555555555.O.555555555555555555555555555555555555555555555555555555555555555",
"555555555555555555555555555oO$55 555555555555555555555555555555555555555555555555555555555555",
"55555555555555555555555555 oOO5  555555555555555555555555555555555555555555555555555555555555",
"555555555555555555555555555555555555555555555555555555555555555555555555555555555555555555555",
"555555555555555555555555555555555555555555555555555555555555555555555555555555555555555555555",
"555555555555555555555555555555555555555555555555555555555555555555555555555555555555555555555",
"555555555555555555555555555555555555555555555555555555555555555555555555555555555555555555555",
"555555555555555555555555555555555555555555555555555555555555555555555555555555555555555555555",
"555555555555555555555555555555555555555555555555555555555555555555555555555555555555555#55555",
"555555555X555555555555555555555555555555555555555555555555555555555555555555555555555o$=#5555",
"55555555.=5555555555555O.555555555555555555555555.$5..5555555555555555555 55 555555o.=-$#5555",
"555555555OO.5 55555555.$55555555555555555555555555X==55 55555555555555555555X. 55  .X=;=#5555",
"555555555*$OOO55555555 5555555555555555555555555555=O;.555555555555555555555.o..  5X;;-;55555",
"5555555555-*X.5555555555555555555555555555555555555o$.555555555555555555555 *$ 5 55o;;;-55555",
"555555555555X555555555555555555555555555555555555555o.o55555555555555555555$*o55555*=;;=*5555",
"555555555555.5555555555555555555555555555555555555555555555555555555555555.$$555555*;;;;$5555",
"55555555555555555555555555555555555555555555555555555555555555555555555555.O.555555=;=;;=5555",
"5555555555555555555555555555555555555555555555555555555555555555 Xoo.5555555555 555=;;XX55555",
"55555555555555555555555555555555555555555555555555555555555 O=-;:>>:-$55555555$O5555 oo.Xo. X",
"5555555555555555555555555555555555555555555555555555555 *-;;;;;;:::>;-=$.5555o*O5555OO.55.XOo",
"5555555555555555555555555555 X5555555555555555555555555=-;;=;;=*;;;:::;-==oX$-$ 555.O555 .X 5",
"55555555555555555555555555555oO55555555555555555555555o=-;:;=O.$:;;;;>:-=--;==O5555X 55...X 5",
"55555555555555555555555555555O$$X555555555555555555555$=;:;$.55X=:;-=;>>::;;=$oX.5555 OX 55..",
"5555555555555555555555555555*=O*;* 5555555555555555555X=--$o55 o*-;-$=>;::;;-=*$$.555 .555555",
"55555555555555555. 55X.5555.;-O==;=.5555555555555555555.5555 O$==$==XO==--=**-=O$$X   5555555",
"55555555555555555  5.Oo 55 $;;=--;;;.55555555555555555555555$==;=$$$O55.Oo55..XO*;;$X55555555",
"5555555555555555555 .$$XXoo=;;::::*=O5555555555555555555555.--=-=OO$$X5.O.555555X=;O.55555555",
"555555555555555555o$$=;--;;;;-;:,>;=-O 555555555 .555555555$-*$$=$O**O5XO55555555555555555555",
"555555555555555 O-;;-;-=;;:>::;;::>>-o 55555555555555O$O555XO.O*-=O$== .X 5555555555555555555",
"55555555555555o:,::::::::::>,,:::::>>$X 555555555555O=OXo55XOO$;;=O55.5 .XOo55555555555555555",
"5555555555555X:,:::>:>>::>>,,11>:;:>,,-O 5555555555o=*o5 oOO--;;;*$. XO$O oX55555555555555555",
"555555555555X;>:::>>>,>>:>>,,,1,>:-:,1:*o 555555555**OOX.OOO-;:;;-=$$Oo.555555555555555555555",
"55555555555 -,>>>>,,>,,,>>,>:>,1>:--:1,:-OX 5555555.OOOOoO$$O;;-;O O=$X555555.OO 555555555555",
"55555555555O;>,>,11>>,,>>>,>>>>11:::>,111>:=X555555 XOOXXoOO=;;;-.5X:;$.$=$O=;:;=.5oXX5555555",
"5555555555.=:>>,11,>,,>>>,>>,::::;:>,>>,121,;X55 X5$O.$o. .$*;::;*$=;;=*--;>::;;;O $=;X555555",
"5555555555X-;::,1,,>>::>>,,>,>::;;;:,11>,111,;O55XX=O5 oOooOO*:;;--;;::;;->,>::>:X $=O5555555",
"5555555555o-;::,,,,,::>::>1,,11,>:::,2211>:,2,:OXo$;X5555 X*-;:;;-;==;:>>,1,:::>-.o*O 5555555",
"5555555555O-:;:,>>,,,,,,>>>,,1211,>>,211:;:>122:$*-*.55555X=>;-=-=*O$-:>>,,:;-;>-=*$.55555555",
"5555555555X;:;:>:>21,1111,>>>,2211,>,,,,::::>,,3>:;$*$.55.-;>=*=*;-=;:>>;:>:;*->>;O 555555555",
"55555555.5.===:,>132112211,>,22322,>,,:>>>>,,:::11>>,:$XO=;;>==;;:>;;:,,;;::;==:,;.5555555555",
"5555555.X..OXO=;:133222222212222222221,>>>22,,,,:,,,,1>;:>:::=*;>1>;;;:>::>>:::;:; 5555555555",
"55555 X$$*=-;--;>,2322233332222222221,,,>>,111111,,>,,,:;:>::;;;:::=:;;:>>>>>>>::;$O555555555",
"55.oX.=,::>1,:=:,:14323332222211222>>1211,,1,>>,>>>>>>:::>:::::;;:::,::>:::;:::>:=;;-=5555555",
"X.X*OO;:O$:;:>*O:12422222112332212:$::>22,,,,>>,>>>>>:;:::::>>;:;:>11>>:-;;-;:>>>==*O*OX55555",
".X*=X.OOXo$$o=$$>433222222232332,1:$=:;>1:;;;;:::::::::::;::::;:;=;,1>>;---;:>>,:;-*o55X.5555",
"XO;*555555$oXO13233242232232222222,=*::>:;;;;::::>>:::::>:::;-::::>,>::;;-;>>:::;-;==55555555",
"Xo=55555555Xo>32223443343242121121;$==:>:::::;;:>>:>:::;,>::==;>>>>>>,;=;-:,,>;;O=--%.5555555",
"5XO55555555=:32333443333213312111:-$$O$*------;:::::::;;:::;-:>>>>,>>:=-;;:,,::=X===;55555555",
"55555555555-:>,13333443222223312:*=$OOXXo$*=--=--;;;;;;-;::;::;:,,>::;=;;;:,1:;-$=*O=55555555",
"55555555555O-%%->4344443333343,,;$$$OoXXXo*$$OO$==OO$---:::;;;:>>:;:;;;::::,1;-===$O555555555",
"555555555555XX.X;44444443344342,::=$oXXX. O*$$$$OXo=;;;;:::::>:::;-;::>>>>>22:-====5555555555",
"555555555555555X;4444444434444321>:$XXXooXX$=*O  o-::;==:::::,:::;;:,11,,,,21>;=*$=5555555555",
"555555555555555X=>1444443332442232,$XXoo$$XXoXX X$$=;==;;;:::>>>:::>,>,,,,,21>;=O 55555555555",
"555555555555555XoO=,33343321241,112;ooXXXoX.XooX.Xo$--;;;;:>,,,,>:,11,,,,,121>-=o555555555555",
"5555555555555555XXX$:1343332131>>,1,$OOOXooXXOoXXo$=;;;;:::>,>,,,,1,,121,1231>=*+555555555555",
"555555555555555555.O;>34223223>>,,22-===*$$$$$$$*$$=;;:>>>,1111>,11,,11111232>;=*555555555555",
"555555555555555555XXO;43212232:>,11:-=---======-====;>11,,11,,,>1111111211232>;==555555555555",
"555555555555555555Xo$;22222331:,,1>=-;;;;;;;;;;;-=-=->11112,,,,>,1,1122121132>;-=555555555555",
"55555555555555555@%::,23332331:,12>;;;;;::;;;;;;;;:;=;22121:>>,>>,11121112232>;-*555555555555",
"55555555555555555%;,1221233331>>12::::::::;;;;;;;::;-;1212,>::,>>:>>21,,11333,:-&555555555555",
"5555555555555555$O:2,>>1133331>>11>::::::::;;;;;;:;;;;>3211>:>,>>:;:,2111,222,:-&555555555555",
"5555555555555555O->2>>12223222,,11,::::::::::;;;::::::,1,11>>1,:::::>1,,11111>:;=$55555555555",
"555555555555555#-:21,2222221,2111,1,>::::::;;;;;::;;-:>::>>>>,1,>>>::>::,2211>:;-*55555555555",
"555555555555555**>2,,32221,1122211,11>:::::;;;;;;;;;-;-;:,,2,,21111>>:::>,11,>>:;*$5555555555",
"555555555555555&<132111221,12211111,,,>>::::::;-==-=-=;1,>121,1,112>>,::,11,::>:;*$5555555555",
"55555555555555#<,322211211,>12,1111,,>,,,:::;;:;---==;:>;:11,>11,11>>1::111>:>>:;=*5555555555",
"55555555555555#:12222,,1,1,,,>,1111,>::,>;;;;;;-;;:::::::>2>::,2111::>>,11>,,>::;=$5555555555",
"55555555555555*>1222,,1>::>,>:,11111::::;:;;;;-;;;::>>:>>,1>;;:>,1,:;:11,,>,,:::;=*5555555555",
"55555555555555;>,,22111>:>>::,,>1,11:::;;>::;----=;;::,11,1>:>>:,2>::>11>>>>,>:;-=$5555555555",
"55555555555555*>>>222,,,>:>>:,>:>,1,>>>::,1,-====*==;,212,2::21>22>::>1:>1::1>::=*$5555555555",
"55555555555555;:,,11,>,1,>:>>,:::>,1>:::;:,,;=-;=;,223322,:==11,11>::>,>1,;:1>:;-*$5555555555",
"55555555555555-:>,,21,11,,>>:::;:>,11,::::>,;--;**;>>,232>;$=1,121,>;;>1>::,1>:;-*55555555555",
"55555555555555-:>>,21121>>>,>::::>111,>,>::>:-;:>;$*;>>;=;:=;211111>;;::*;::11>;-*55555555555",
"55555555555555#->>>,,12>>>>,,>:::>,,1,>,,::::;-;:1-*::*OO=;;,2,11,1,:::=*::;11>:-$55555555555",
"55555555555555#*:>>1>,2>>>>,,>>::::,>>>>>:::::;-:,:::=***==>111,,,,,:>:=;:;:,1,::=55555555555",
"555555555555555*-:>>>,,,,>>:>:::::::::::;;;;;:>:>::;===***->11,>>:>>:;-=;-::>,>:;555555555555",
"5555555555555555$;-::>>>>>:::;;;;;;;;;:;;--==---;;;*$*-;;;:,1,:::::>;===*=;;:>:=5555555555555",
"555555555555555555#$*=-;:;;;-=-;=;-----;-=====*====O$==;::;:>::;;;:;**$;-=*$#5555555555555555"
};
