/* XPM */
static char *d428d23c2d734992cede2107a86ffc03[] = {
/* columns rows colors chars-per-pixel */
"50 67 41 1 ",
"  c None",
". c #493C34",
"X c #4D4138",
"o c #2C385D",
"O c #3C4D79",
"+ c #554541",
"@ c #5D4D45",
"# c #65554D",
"$ c #6D5D51",
"% c #796559",
"& c #9A6545",
"* c #826D61",
"= c #8E7569",
"- c #967D71",
"; c #8E8A55",
": c #9E8679",
"> c #AA8E7D",
", c #A2AE61",
"< c #415182",
"1 c #49598E",
"2 c #516196",
"3 c #55699A",
"4 c #5D71A2",
"5 c #6179AA",
"6 c #6982AE",
"7 c #718AB6",
"8 c #7992BE",
"9 c #7D9AC7",
"0 c #AE9686",
"q c #B69E8E",
"w c #AEA6AA",
"e c #B2AEAE",
"r c #C3A696",
"t c #CBAE9E",
"y c #D7B2A6",
"u c #DBBAAE",
"i c #C3BABA",
"p c #86A6CF",
"a c #96B2DB",
"s c #9EBADF",
"d c #CFC7CB",
/* pixels */
"  e,i&                                      *dur  ",
"  95556347899999p9999988888888888889ppppp8545555  ",
"  p556432345555555555554444444445555677776444559  ",
"  p55522112122222222222222221211233345544532255p  ",
"  p55521<1222222221<<<<<<<111122222224444432255p  ",
"  p55421<1222222211<<<<<<1122334444444444452255p  ",
"  p55521<123221111<<<11112222223444444432222247p  ",
"  p65421<12211<<<<<<112222222222344444321111247a  ",
"  a65421<<<<<<<O<<<11222222122222222222111<1258s  ",
"   86421<<<<<<<<<<<12222222212222222222111<1259   ",
"   9631<<<<<<11111111122222222222111111111<<25p   ",
"   964211<1<<11111111111112222211<<<<<111<OO25p   ",
"   p54211<<<<<<<<<<<<<<11<111122222221<OO<12559   ",
"   9554222222222222223332222233566665433224455p   ",
"   w5555777888877789998899899p999ppp8889855655w   ",
"uuu*XXX+                                  +@XX*uuu",
"****X@#+                                  +XX+****",
"XXXX+##+                                  ++++++XX",
"    +##                                    +#*    ",
"    +$#                                    $#=    ",
"    @%$                                    %=u    ",
"    @*%                                    %-u    ",
"    #*%                                    *:u    ",
"    $=%                                    =:u    ",
"    $=*                                    -:u    ",
"    u-*uuu                              uuu->u    ",
"    u:$%-r578899999ppppppppppppppppp9887=*%%-u    ",
"    u:##::122344445555555555444444444322>-%%-u    ",
"    u>###:OOOO11112222222222222222222OOO>##+-u    ",
"    u>#+##   OOOOOOOOOOOOOOOOOOOOOOOO   ##-:u-    ",
"    u0#.%                               %+-:u-    ",
"    uq#+%                               %+-:u-    ",
"    uq#+%                               %+-:u-    ",
"    uu#+%                               %+%:u-    ",
"    uu:+%                               -+%:uq    ",
"   quu-+%                               -+%:uq    ",
"   quu-+%                               -++-uq    ",
"   quu;+%%                             %+o+-uq    ",
"   quy-++%                             %++ -uq    ",
"   quy-%*=-:>>0qrrtttttttttttttttrq00>>:--==uuq   ",
"   quq-@@@@$$%*==--:>>>>>>>>>:::--==**%%$##-uuq   ",
"   quq-++%                             -++ -uuq   ",
"   quq-++%                             -++ -uuq   ",
"   yuq- +%                             -++ -uuq   ",
"  quuq- +%                             %++ -uuq   ",
"  quuq- +%                             %++ -quq   ",
"  quy-  +%                             %+  -quq   ",
"  quq-  +-                             %+  -quq   ",
"  quq-  +-                             %+  -quq   ",
"  quq-  +-                            -%+   -uq   ",
"  quq-  +-                            -%+   -uq   ",
"  quq-  +-%                           -++   -uu   ",
"  quq-  ++%                           -++   -uu   ",
"  quq-  ++%                           %++   -uu   ",
"  quq-  ++%                           %+    -uu   ",
"  quq-   +%                           %+    -uu   ",
"  quq-   +-                           %+    -uuq  ",
"  quq-   +-                           %+    -uuq  ",
"  quq-   +--                         -%+    -uuq  ",
"  yuq-   +--                         -%+    -quq  ",
"  yuq-   +%-                         %%+    -quq  ",
" quuq-   +%%                         %%+    -quq  ",
" quy-    +++                         +++    -quq  ",
" quq-                                        -uu  ",
" quq-                                        -uuq ",
" ----                                        -uuq ",
"                                             ---- "
};
