/* XPM */
static char *e891c5bc97fb4909d6f9ab24c7b4448c[] = {
/* columns rows colors chars-per-pixel */
"45 67 50 1 ",
"  c None",
". c #0C0C18",
"X c #340804",
"o c #14182C",
"O c #182034",
"+ c #3C302C",
"@ c #450C04",
"# c #551004",
"$ c #413430",
"% c #493C34",
"& c #4D4138",
"* c #202841",
"= c #242C49",
"- c #2C385D",
"; c #38456D",
": c #3C4D79",
"> c #554541",
", c #5D4D45",
"< c #65554D",
"1 c #6D5D51",
"2 c #796559",
"3 c #9A6545",
"4 c #826D61",
"5 c #8E7569",
"6 c #967D71",
"7 c #9E8679",
"8 c #B28661",
"9 c #AA8E7D",
"0 c #415182",
"q c #49598E",
"w c #516196",
"e c #55699A",
"r c #5D71A2",
"t c #6179AA",
"y c #6982AE",
"u c #968A8E",
"i c #AE9686",
"p c #B69E8E",
"a c #AA9EA2",
"s c #C3A696",
"d c #CBAE9E",
"f c #D7B2A6",
"g c #DBBAAE",
"h c #E3C7B2",
"j c #EFCFBA",
"k c #86A6CF",
"l c #96B2DB",
"z c #9EBADF",
"x c #D7CFD3",
"c c #E3DBDF",
/* pixels */
"                                          cx4",
"                                         wwyl",
"                                         wykk",
"                                        wykk ",
"                                      c::kkk ",
"                                     t*:yzk  ",
"                                     w::kzk  ",
"                                    t-:yzz   ",
"                                    t-:kzk   ",
"                                   w;::zzk   ",
"                                  tw-:kzk    ",
"                                  lw-:kzk    ",
"                                  tw:kzk     ",
"                                 tw::kzk     ",
"                                 tw:kzk      ",
"                                t:::kkk      ",
"         45679ppssssdddddddssi99:::kkkk      ",
"        77ipsfghhjjjjjjhhhhhffdddsspp9975    ",
"        ,,,444555566677776666555444444445    ",
"            ,,,,                %++,,&       ",
"            7<<,,              g<<><>        ",
"             7s<,              g7<j<,        ",
"             7s5f5            gg72g1         ",
"              7s55            g75g42         ",
"              7s5f5          gg76g5          ",
"               7s555         g75gg6          ",
"        99iippp7s5sfddffgghhjjj6g97          ",
"       qqqqqq==q7s5qqqqqqqqqqqq6giq          ",
"     ggggggggg$-7s5ggggffddssp6gd6pp         ",
"     999ipssppoo$7s5pii99776666gs555         ",
"     ++%%%&&&>,,+7gs5<<11224<<gd6<>+         ",
"               <<<<g5Xo    oX6gi             ",
"               <<<&gs5.$  oo4g79             ",
"               sd3&7g5@o  Oo4g6              ",
"              asd4  gs5.@$.4gd5              ",
"              sd7&  7g5$ooo6g24              ",
"             8sd7    gs5.o4gd1               ",
"             sd7&    7g5$.6g4<               ",
"             sd7      gs5.gd>                ",
"            sd74      7g5#44%                ",
"            sd7&       7g5u&                 ",
"           sd74        7gs55&                ",
"           sd7&         7g52&                ",
"           sd4          7gs52&               ",
"          sd7&           7g52&               ",
"          sd7            7gs52&              ",
"         sd7&00wwwr0     07g52&              ",
"         sd7&      ;;eeww;7gs52&             ",
"        sd74               7g52&             ",
"        sd7&                gs52&            ",
"       sd;:0qwertyr0        7gs5&            ",
"       sd7&        ;rrytrewwww;;2&           ",
"       sd4                   7gs5&           ",
"      sd7&                    7g52&          ",
"      sd7                     7gs5&          ",
"     sd7&                      7g52&         ",
"     sd7&                      7gs5&         ",
"    sd74                        7g5&&        ",
"    sd7&                        7gs5&        ",
"   sd74                          7gs&&       ",
"   sd7&                          5gs5&       ",
"   sd7                            5gs&&      ",
"  sd74                            5gs5&      ",
"  sd7&                             5gs5&     ",
" sd74                              5gs5&     ",
" sd7&                               &gs5&    ",
"&&&&                                &&&&&    "
};
