/* XPM */
static char *_71a157f105e4518bc6d8ce4a35dde71[] = {
/* columns rows colors chars-per-pixel */
"52 68 53 1 ",
"  c None",
". c #040410",
"X c #39351F",
"o c #0C1028",
"O c #101A31",
"+ c #1A243F",
"@ c #3F312D",
"# c #433F24",
"$ c #473931",
"% c #4C3F35",
"& c #4C4C28",
"* c #54433F",
"= c #545431",
"- c #35436D",
"; c #394C79",
": c #5C4C43",
"> c #65544C",
", c #6D5C50",
"< c #716D43",
"1 c #796558",
"2 c #836D61",
"3 c #8F7569",
"4 c #837579",
"5 c #977E71",
"6 c #878350",
"7 c #9B9F58",
"8 c #9F8779",
"9 c #BC9369",
"0 c #AB8F7E",
"q c #C8A379",
"w c #3F5083",
"e c #47588F",
"r c #506197",
"t c #54699B",
"y c #5C71A3",
"u c #6179AB",
"i c #6983AF",
"p c #718BB8",
"a c #7993C0",
"s c #7E9BC8",
"d c #AF9787",
"f c #B89F8F",
"g c #C4A797",
"h c #CCAF9F",
"j c #DCBC97",
"k c #D8B4A7",
"l c #DCBCB0",
"z c #E4C8B4",
"x c #F0D0BC",
"c c #87A7D0",
"v c #8FAFD4",
"b c #97B4DC",
"n c #CCC0C5",
/* pixels */
"                        %2lh                        ",
"                      ppiyuuu                       ",
"               iiscapytewtuuia                      ",
"       ssssapyrrreerttretryucp                      ",
"%hrrcspiiiiuyeewwwwerttrttyuii                      ",
"urwetyyttttyrewwwwwertytttuuibs                     ",
" cretytrrtttrewwwwertyyttttyusa                     ",
" crertyyttttreeeeertyyyyttrryib                     ",
" caeruuuyyyytretrtyyyyuytteryia                     ",
"  arrtuuuyyyytttyyuuuttytttryuis                    ",
"  arrtuuuuuyyyytyyuuytrrrttryuib                    ",
"  arrtuuuuuyyytttyuuytttttttyuis                    ",
"  ciretyuuuuuytttyuuuyyyyyttryua                    ",
"   uewtyyyyyyyyyyyyyyyyyyytttuusa                   ",
"   urrrtttttttttttttttttttttyuuav                   ",
"   uuuuuuuuuuuuuuuuuuuuuuuuuuuuyi                   ",
"    ,dx                      %%%%                   ",
"  ,,,dx50fghklkgfd85211      ,33500dfhkkkhggfdd00853",
"  ,,,,x,,23550fgd085321      >,12335558008883221,,>:",
"     ,gx          %%%         >>>              ,%%% ",
"     ,gx          %hf         ,2z              ,,1% ",
"      ,zx         1ff         ,dz              101  ",
"      ,hx        %hf          ,gdz             g1:  ",
"      ,hx        1ff           ,gz            8h1   ",
"       ,zx      %5f            ,gz            dl1   ",
"       ,hx      %hf            ,fzh           l1:   ",
"       ,kll    88888f           ,dz          8h1    ",
"        ,lldd288uuuuuuuuuuuuuuuu,dzuuuuuuu  ,8l1h   ",
"        ,dddyytttttttttttttttttt,0zlrrrrrhh8>l1:8   ",
"      dddd;;@-----wwwww-w-------,5zxhhhhh88,8l1<=   ",
"      3033;;;;;;;;;;;;;;;;;-80ffh,0z822355218l1,    ",
"      ,,,,%% %**%%o++       ,2558,0z,,,    8l1:     ",
"         %%% %%* %Ooo       ,,,,,,0z       8l1      ",
"          %%%%>*  %o.            ,,8z      8l1      ",
"          %%%2,   %ooo            ,8z     8l1:      ",
"           %%31   %Ooo            ,8z     8l12      ",
"           %%5     %o.            ,5zz    8l12g     ",
"           %30     %ook            ,dz   8l1$#g     ",
"           ,gf     %ogk            ,3z   8l1&Xg     ",
"          %hg       13k            ,2z   8l1&28g    ",
"          1h        %3gk            1zz 8l1$&:8g    ",
"         %h80fghklllhhhhl           ,>z88l1 :25g    ",
"         1h>,12355444444hhhhhlkhgfd83,z8ll1  &,g    ",
"        %1g         r%3g44444455532,>>>8lh1  &,8    ",
"        %h5     rirrri1gk            ,>8l1   &,8g   ",
"        1h5rriiir     %3k            >8jl1   :55g   ",
"       %hgrr          %3gk           >8l41    22g   ",
"       %h5             1gk            8l1     &-g   ",
"       1g5             %3k           8hl1   -ir28   ",
"      %hg              %3k           8l51-ii- &35g  ",
"      1h5               1gk          8l--r     25g  ",
"     %hg                %3k         8h-1       &2g  ",
"     %h5                %3k         8l51       &2g  ",
"     %h5                 %3k        8l1        &28g ",
"    %gg                  %3k       8hl1         25g ",
"    %h5                  %%3k      8l51         &2g ",
"    %h5                   %3k     8hl1          &2g ",
"   %h5                    %1gk    8nl1          &28 ",
"   %h5                     %hk    8l51          &25g",
"  %h5                      %3kk  8hl1            22g",
"  %h5                       %3k  8h61            &2g",
" %1h5                       %%%  hh51            &2g",
" %hh5                           8h91             &25",
" 1h5                            0h51             &%%",
" %%%                            hq51                ",
"                               8h71                 ",
"                               8h51                 ",
"                               8%%%                 "
};
