/* XPM */
static char *f2518f31e12e458cb4432cf367d0aa1b[] = {
/* columns rows colors chars-per-pixel */
"55 67 50 1 ",
"  c None",
". c #0C0C18",
"X c #340804",
"o c #28140C",
"O c #101420",
"+ c #14182C",
"@ c #182034",
"# c #302420",
"$ c #342C28",
"% c #3C302C",
"& c #413430",
"* c #493C34",
"= c #4D4D2C",
"- c #4D4138",
"; c #38456D",
": c #554541",
"> c #5D4D45",
", c #65554D",
"< c #6D5D51",
"1 c #796559",
"2 c #A26D49",
"3 c #826D61",
"4 c #8E7569",
"5 c #827579",
"6 c #967D71",
"7 c #9E8679",
"8 c #AA8E7D",
"9 c #415182",
"0 c #516196",
"q c #55699A",
"w c #5D71A2",
"e c #6179AA",
"r c #6982AE",
"t c #718AB6",
"y c #7992BE",
"u c #7D9AC7",
"i c #AE9686",
"p c #B69E8E",
"a c #BAB2B6",
"s c #C3A696",
"d c #CBAE9E",
"f c #DBBA96",
"g c #D7B2A6",
"h c #DBBAAE",
"j c #C3BABA",
"k c #86A6CF",
"l c #8EAED3",
"z c #96B2DB",
"x c #9EBADF",
"c c #DBD7DB",
/* pixels */
"                                                    3dc",
"                          32j             yyyyytrereyzy",
"                          eweyulllzxxxxxxlytttrrewwryzy",
"                         ztewertyyuuuuuuuytrrreewwweyzy",
"                         ktwwweerrrttttttttrreewwwwruy ",
"                         urqqqwweerrrttttttrreewwqwtzy ",
"                         yeq0qwwwweerrrtttreeewwwqwyxy ",
"                        yrwq0qwweeerrrrttrreeewwwqwuuy ",
"                        yew00wweeeerrrrrreewwwwqwqrly  ",
"                        yeq0qwweeeeeeeeewwwqqqqqw0tly  ",
"                       yteq0qwweeeeeeeewwwqq000q00tzy  ",
"                       krw00wwweerrrrreewwqq00000wtuy  ",
"                       krw0weeerrrrrrrreewwwqqq00eyy   ",
"                       yrw0rtttttrrrrrrrrrreewqw0ruy   ",
"                      arwrukllllutyttyyyyyttttttrtuy   ",
"     388sddddsspi87663,111       fdp8hhhhhhddddssp88764",
"     788ppppppii887431,33        fsi8ggggggggggdspi8764",
"       >>>            744            -7d       1113    ",
"       >31            876            -7d       63d3    ",
"        36i           i7              <7d      73d     ",
"        44i          ps8              -7d      id3     ",
"         6i          ss7              -7d      id3     ",
"         766         di7              -7d      id3     ",
"          84        gd8                <7d    iid      ",
"          83        gs6                -7d    id7      ",
"     1346ipsssddssppii88877            -7d    id3      ",
"     <3660weeeeeeeerrrrrttttyyyuuuusssd-iduuu3id3      ",
"     >>>100wwwwwwwwwwwwwqw><36psdddssh8<<7d663d7       ",
"          0000000000000000>34667631ssh<<-7d,,id3       ",
"          ,,,#&    5&&-   >>>1<,,,,shs<,-7dd,id3       ",
"          633#+    ;.-             sh8   <7d,id3       ",
"         hsi3*#X  &++-             sh<   -7d3d7        ",
"         hsi3&#+  ++-              hs<   -7d3d3        ",
"         hsi3 *#@ @+-             hhs<   -8di33        ",
"         hg3   #+++$              hs8     <7d73        ",
"        hhp<   #+@$$              hs<     -7d3         ",
"        hhp<   &%%=,,,<1346       hs<     -7d3         ",
"        hp3     %%%%----=:>78pp77hhs<      -d7         ",
"       hhp<     &#o=      ,<13433hh87641<  -73         ",
"       hhp<      #O=             hh<<<<<<,,&7d7        ",
"       hh3       #@=             hs<    <,:&<d3        ",
"       hp<        #=            hhs<        -d3        ",
"      hhp<        #==           hs8         -7d3       ",
"      hh6<ewq0;   &<=           hs<          -d3       ",
"      hp3    09were#==         hhs<          -d3       ",
"     hh6<          #*=         hhs<          -7d3      ",
"     hh6<           #==        h;;weewq0;     -d3      ",
"     hh3            #*=       hhs4     09werew;;3      ",
"    hhp<             #=       hh7<            -737     ",
"    hhp<             #*=      h87<             -d3     ",
"    hh3              #*=      h83<             -d3     ",
"    hi<               #==    hh88              -d37    ",
"   hhi<               #*=    hh8<              -dd3    ",
"   hh6<                #==   hs8<               -d3    ",
"   hi3                 #*=  hhs8<               -d37   ",
"  hhi<                 #*== hhs8                -8d7   ",
"  hhi<                  #*= hss<                 -d3   ",
"  hhi<                  #*==hss<                 -d37  ",
"  hh3                    #*hhs8<                 -d37  ",
" hhi>                    #*hss8                   7d3  ",
" hhi>                     #hss<                   -d37 ",
" hh>>                     #hs8<                   -d33 ",
"hhh>                       hs8<                    7d3 ",
"hh6>                      hhs8<                    -d37",
"****                      hhs<                     -7d3",
"                          hs8<                      ---",
"                          >>><                         "
};
