/* XPM */
static char *_087de9b3667443ce11a6e4aeca2697f[] = {
/* columns rows colors chars-per-pixel */
"45 67 50 1 ",
"  c None",
". c #040410",
"X c #310200",
"o c #0C1028",
"O c #101A31",
"+ c #1A243F",
"@ c #392D28",
"# c #3F312D",
"$ c #430400",
"% c #540700",
"& c #473931",
"* c #4C3F35",
"= c #54433F",
"- c #1F2847",
"; c #28355C",
": c #35436D",
"> c #394C79",
", c #5C4C43",
"< c #65544C",
"1 c #6D5C50",
"2 c #796558",
"3 c #9B6543",
"4 c #836D61",
"5 c #8F7569",
"6 c #977E71",
"7 c #9F8779",
"8 c #B48761",
"9 c #AB8F7E",
"0 c #3F5083",
"q c #47588F",
"w c #506197",
"e c #54699B",
"r c #5C71A3",
"t c #6179AB",
"y c #6983AF",
"u c #978B8F",
"i c #AF9787",
"p c #B89F8F",
"a c #AB9FA3",
"s c #C4A797",
"d c #CCAF9F",
"f c #D8B4A7",
"g c #DCBCB0",
"h c #E4C8B4",
"j c #F0D0BC",
"k c #87A7D0",
"l c #97B4DC",
"z c #9FBCE0",
"x c #D8D0D4",
"c c #E4DCE0",
/* pixels */
"4xc                                          ",
"lyww                                         ",
"kkyw                                         ",
" kkyw                                        ",
" kkk>>c                                      ",
"  kzy>+t                                     ",
"  kzk>>w                                     ",
"   zzy>;t                                    ",
"   kzk>;t                                    ",
"   kzz>>:w                                   ",
"    kzk>;wt                                  ",
"    kzk>;wl                                  ",
"     kzk>wt                                  ",
"     kzk>>wt                                 ",
"      kzk>wt                                 ",
"      kkk>>>t                                ",
"      kkkk>>>99issdddddddsssspp97654         ",
"    5799ppssdddffhhhhhjjjjjjhhgfspi77        ",
"    544444444555666677776665555444,,,        ",
"       *,,@@&                ,,,,            ",
"        =<=<<g              ,,<<7            ",
"        ,<j<7g              ,<s7             ",
"         1g27gg            5f5s7             ",
"         24g57g            55s7              ",
"          5g67gg          5f5s7              ",
"          6gg57g         555s7               ",
"          79g6jjjhhggffddfs5s7pppii99        ",
"          qig6qqqqqqqqqqqq5s7q--qqqqqq       ",
"         pp6dg6pssddffgggg5s7;#ggggggggg     ",
"         555sg66667799iip5s7#ooppsspi999     ",
"         @=<6dg<<42211<<5sg7@,,=***&&&@@     ",
"             ig6Xo    oX5g<<<<               ",
"             97g4oo  #.5sg*<<<               ",
"              6g4oO  o$5g7*3ds               ",
"              5dg4.#$.5sg  4dsa              ",
"              42g6ooo#5g7  *7ds              ",
"               1dg4o.5sg    7ds8             ",
"               <4g6.#5g7    *7ds             ",
"                =dg.5sg      7ds             ",
"                &44%5g7      47ds            ",
"                 *u5g7       *7ds            ",
"                *55sg7        47ds           ",
"                *25g7         *7ds           ",
"               *25sg7          4ds           ",
"               *25g7           *7ds          ",
"              *25sg7            7ds          ",
"              *25g70     0rwww00*7ds         ",
"             *25sg7:wwee::      *7ds         ",
"             *25g7               47ds        ",
"            *25sg                *7ds        ",
"            *5sg7        0rytrewq0>:ds       ",
"           *2::wwwwertyrr:        *7ds       ",
"           *5sg7                   4ds       ",
"          *25g7                    *7ds      ",
"          *5sg7                     7ds      ",
"         *25g7                      *7ds     ",
"         *5sg7                      *7ds     ",
"        **5g7                        47ds    ",
"        *5sg7                        *7ds    ",
"       **sg7                          47ds   ",
"       *5sg5                          *7ds   ",
"      **sg5                            7ds   ",
"      *5sg5                            47ds  ",
"     *5sg5                             *7ds  ",
"     *5sg5                              47ds ",
"    *5sg*                               *7ds ",
"    *****                                ****"
};
