/* XPM */
static char *f2af75e9bf544850d4ca5d226a6b60fb[] = {
/* columns rows colors chars-per-pixel */
"55 67 50 1 ",
"  c None",
". c #040410",
"X c #070C1A",
"o c #240C04",
"O c #310200",
"+ c #2D1F1A",
"@ c #0C1028",
"# c #101A31",
"$ c #312824",
"% c #392D28",
"& c #3F312D",
"* c #473931",
"= c #4C3F35",
"- c #4C4C28",
"; c #54433F",
": c #35436D",
"> c #5C4C43",
", c #65544C",
"< c #6D5C50",
"1 c #796558",
"2 c #A36D47",
"3 c #836D61",
"4 c #8F7569",
"5 c #837579",
"6 c #977E71",
"7 c #9F8779",
"8 c #AB8F7E",
"9 c #3F5083",
"0 c #506197",
"q c #54699B",
"w c #5C71A3",
"e c #6179AB",
"r c #6983AF",
"t c #718BB8",
"y c #7993C0",
"u c #7E9BC8",
"i c #AF9787",
"p c #B89F8F",
"a c #BCB4B8",
"s c #C4A797",
"d c #CCAF9F",
"f c #DCBC97",
"g c #D8B4A7",
"h c #C4BCBC",
"j c #DCBCB0",
"k c #87A7D0",
"l c #8FAFD4",
"z c #97B4DC",
"x c #9FBCE0",
"c c #DCD8DC",
/* pixels */
"cd3                                                    ",
"yzyerertyyyyy             h23                          ",
"yzyrwwerrtttylxxxxxxzllluyewe                          ",
"yzyewwweerrrtyuuuuuuuyytrewetz                         ",
" yurwwwweerrttttttttrrreewwwtk                         ",
" yztwqwweerrttttttrrreewwqqqru                         ",
" yxywqwwweeertttrrreewwwwq0qey                         ",
" yuuwqwwweeerrttrrrreeewwq0qwry                        ",
"  ylrqwqwwwweerrrrrreeeeww00wey                        ",
"  ylt0wqqqqqwwweeeeeeeeewwq0qey                        ",
"  yzt00q000qqwwweeeeeeeewwq0qety                       ",
"  yutw00000qqwweerrrrreewww00wrk                       ",
"   yye00qqqwwweerrrrrrrreeew0wrk                       ",
"   yur0wqweerrrrrrrrrrtttttr0wry                       ",
"   yutrttttttyyyyyttytullllkurwra                      ",
"46788pssddddjjjjjj8pdf       111,36678ipssdddds883     ",
"4678ipsdgggggggggg8isf        33,134788iipppppp887     ",
"    3111       d7=            447            >>>       ",
"    3d36       d7=            678            13>       ",
"     d37      d7<              7i           i63        ",
"     3di      d7=              8sp          i44        ",
"     3di      d7=              7ss          i6         ",
"     3di      d7=              7id         667         ",
"      dii    d7<                8dg        48          ",
"      7di    d7=                6sg        38          ",
"      3di    d7=            77888iippssddssspi6431     ",
"      3di3uuudi=dsssuuuuyyyttttrrrrreeeeeeeew0663<     ",
"       7d366d7<<8jssdddsp63<>wqwwwwwwwwwwwww001>>>     ",
"       3di,,d7=<<jss13676643>0000000000000000          ",
"       3di,dd7=,<sjs,,,,<1>>>   =&&5    &+,,,          ",
"       3di,d7<   8js             =.:    @+336          ",
"        7d3d7=   <js             =@@&  O+*3isj         ",
"        3d3d7=   <sj              =@@  @+&3isj         ",
"        33id8=   <sjj             =@# #+* 3isj         ",
"        37d7<     8sj              $@@@+   3gj         ",
"         3d7=     <sj              $$#@+   <pjj        ",
"         3d7=     <sj       6431<,,,-%%&   <pjj        ",
"         7d=      <sjj77pp87>;-====%%%%     3pj        ",
"         37=  <14678jj33431<,      -o+&     <pjj       ",
"        7d7&,,<<<<<<jj             -X+      <pjj       ",
"        3d<&;,<    <sj             -#+       3jj       ",
"        3d=        <sjj            -+        <pj       ",
"       3d7=         8sj           --+        <pjj      ",
"       3d=          <sj           -<&   :0qwe<6jj      ",
"       3d=          <sjj         --+erew90    3pj      ",
"      3d7=          <sjj         -*+          <6jj     ",
"      3d=     :0qweew::j        --+           <6jj     ",
"      3::werew90     4sjj       -*+            3jj     ",
"     737=            <7jj       -+             <pjj    ",
"     3d=             <78j      -*+             <pjj    ",
"     3d=             <38j      -*+              3jj    ",
"    73d=              88jj    --+               <ij    ",
"    3dd=              <8jj    -*+               <ijj   ",
"    3d=               <8sj   --+                <6jj   ",
"   73d=               <8sjj  -*+                 3ij   ",
"   7d8=                8sjj --*+                 <ijj  ",
"   3d=                 <ssj -*+                  <ijj  ",
"  73d=                 <ssj--*+                  <ijj  ",
"  73d=                 <8sjj*+                    3jj  ",
"  3d7                   8ssj*+                    >ijj ",
" 73d=                   <ssj+                     >ijj ",
" 33d=                   <8sj+                     >>jj ",
" 3d7                    <8sj                       >jjj",
"73d=                    <8sjj                      >6jj",
"3d7=                     <sjj                      ****",
"===                      <8sj                          ",
"                         <>>>                          "
};
