/* XPM */
static char *_16ca149ffcc41baa04b69fab912555f[] = {
/* columns rows colors chars-per-pixel */
"46 67 51 1 ",
"  c None",
". c #4D4138",
"X c #2C385D",
"o c #344165",
"O c #38456D",
"+ c #3C4D79",
"@ c #554541",
"# c #5D4D45",
"$ c #65554D",
"% c #6D5D51",
"& c #796559",
"* c #9A6545",
"= c #A26D49",
"- c #826D61",
"; c #8E7569",
": c #827579",
"> c #967D71",
", c #9E8679",
"< c #AA8E7D",
"1 c #415182",
"2 c #49598E",
"3 c #516196",
"4 c #55699A",
"5 c #5D71A2",
"6 c #6179AA",
"7 c #8A7D82",
"8 c #6982AE",
"9 c #718AB6",
"0 c #7992BE",
"q c #7D9AC7",
"w c #AE9686",
"e c #B69E8E",
"r c #AA9EA2",
"t c #CFAE82",
"y c #C3A696",
"u c #CBAE9E",
"i c #DBBA96",
"p c #D7B2A6",
"a c #DBBAAE",
"s c #DFC79E",
"d c #E7CFAA",
"f c #E3C7B2",
"g c #EFCFBA",
"h c #86A6CF",
"j c #8EAED3",
"k c #96B2DB",
"l c #CBBEC3",
"z c #CFC7CB",
"x c #D7CFD3",
"c c #DBD7DB",
"v c #E7E3E7",
/* pixels */
"      cu=                            *uc      ",
"      k042jjkkkkkkkkkkkkkkkkkkkkkkkj97rl      ",
"      k93369000000qqq000000000000009660j      ",
"      j84246688899000009999999999998669k      ",
"      j94245888899999999999999999998558j      ",
"      j84234556688888888888888886654558j      ",
"      j83223444556666666666666655443458j      ",
"      j83223444444444444444444444433468j      ",
"      h64223444444444444444444444433468j      ",
"      q5+123344444555556665544555554458j      ",
"      q6+123444555666666666555556665458j      ",
"      q6+234555666666666665555555554468j      ",
"      q6+3568888888888888866555555543560      ",
"      0826000000000000099999999999995313      ",
"fcx-=yvu@                            #uvy=-=cf",
"e,;&;evu#                            $uve;&;,e",
" ###  ve$                            %ev  ##& ",
" ;&&  vw%                            &wv  &&; ",
" <;&  g<&                            -<g  &;> ",
" a<&  f,-                            ;,f  &<, ",
" ue&  a>;                            >>a  &e< ",
" ye&  p;>                            ,;p  &ew ",
" we&  u-,                            <-u  &ey ",
" <e&w;&&<                            w&&;w&ep ",
"  f&w;.:7                            e,&;w&fp ",
"  a&w>.eee80000000000000000000000000eee&>w&a  ",
"  u&w,.eee33334566666666665433335553eee&,w.u  ",
"  u&w,.---13334455668999865544334321;;;&,w.u  ",
"  e&y<.%%%o+oXo+12345688888888886543%%%&<y.e  ",
"  w-t<.                                &<t.w  ",
"   ;u<.                                &<u.w  ",
"   ,u<.                                &<u.   ",
"   <pw.                                &wp.   ",
"   wuw.                                &wu.   ",
"   eiw.                                &wi.   ",
"   ylw.                                &wl.   ",
"   uae.                                &ea.   ",
"   pzy.&-;>,,,,,,,,,,,,,,,,,,,,,,>;-&%$&yz.   ",
"   asu.@#$%&-;>,wwwwwwwwwwwww<,>;-&%$#@&us.   ",
"   fgp.                                &pg.   ",
"   gga.                                &ag.   ",
"   ggf.                                &fg.   ",
"   ggg.                                &gg.   ",
"  Oggg.                                &gg.O  ",
"  Ogdg.                                &gd.O  ",
"  Ogdg.                                &gd.O  ",
"   gdg.                                &gd.   ",
"   gdg.                                &gd.   ",
"   gdg.                                &gd.   ",
"   ggf.                                &fg.   ",
"   gcf.                                &fc.   ",
"   ggf.                                &fg.   ",
"   ggf.                                &fg.   ",
"   ggf.                                &fg.   ",
"   fgf.                                &fg.   ",
"   agf.                                &fg.   ",
"   pgg.                                &gg.   ",
"   ugf.                                &fg.   ",
"   yfa.                                &af.   ",
"   efp.                                &pf.   ",
"   wfu.                                &uf.   ",
"   <gy.                                &yg.   ",
"   ,ge.                                &eg.   ",
"   >aw.                                &wa.   ",
"   ;u<.                                &<u.   ",
"   -e,.                                &,e.   ",
"   &&&.                                &&&.   "
};
