/* XPM */
static char *fd516fe93d5a4b56ec1fadb93dd4a11e[] = {
/* columns rows colors chars-per-pixel */
"52 68 53 1 ",
"  c None",
". c #0C0C18",
"X c #14182C",
"o c #182034",
"O c #3C3824",
"+ c #413430",
"@ c #493C34",
"# c #454128",
"$ c #4D4D2C",
"% c #4D4138",
"& c #555534",
"* c #202841",
"= c #38456D",
"- c #3C4D79",
"; c #554541",
": c #5D4D45",
"> c #65554D",
", c #6D5D51",
"< c #716D45",
"1 c #796559",
"2 c #826D61",
"3 c #8E7569",
"4 c #827579",
"5 c #967D71",
"6 c #868251",
"7 c #9A9E59",
"8 c #9E8679",
"9 c #BA9269",
"0 c #AA8E7D",
"q c #C7A279",
"w c #415182",
"e c #49598E",
"r c #516196",
"t c #55699A",
"y c #5D71A2",
"u c #6179AA",
"i c #6982AE",
"p c #718AB6",
"a c #7992BE",
"s c #7D9AC7",
"d c #AE9686",
"f c #B69E8E",
"g c #C3A696",
"h c #CBAE9E",
"j c #DBBA96",
"k c #D7B2A6",
"l c #DBBAAE",
"z c #E3C7B2",
"x c #EFCFBA",
"c c #86A6CF",
"v c #8EAED3",
"b c #96B2DB",
"n c #CBBEC3",
/* pixels */
"                        hl2%                        ",
"                       uuuyipp                      ",
"                      aiuutwetypacsii               ",
"                      pcuyrterttreerrrypassss       ",
"                      iiuyttrttrewwwweeyuiiiipscrrh%",
"                     sbiuutttytrewwwwweryttttyytewru",
"                     asuyttttyytrewwwwertttrrtyterc ",
"                     biyrrttyyyytreeeeerttttyytrerc ",
"                     aiyrettyuyyyytrtertyyyyuuureac ",
"                    siuyrtttyttuuuyytttyyyyuuutrra  ",
"                    biuyrttrrrtyuuyytyyyyuuuuutrra  ",
"                    siuytttttttyuuytttyyyuuuuutrra  ",
"                    auyrttyyyyyuuuytttyuuuuuyteric  ",
"                   asuutttyyyyyyyyyyyyyyyyyyytweu   ",
"                   vauuytttttttttttttttttttttrrru   ",
"                   iyuuuuuuuuuuuuuuuuuuuuuuuuuuuu   ",
"                   %%%%                      xd,    ",
"35800ddfgghkkkhfd00533,      11258dfgklkhgf05xd,,,  ",
":>,,12238880085553321,>      123580dgf05532,,x,,,,  ",
" %%%,              >>>         %%%          xg,     ",
" %1,,              z2,         fh%          xg,     ",
"  101              zd,         ff1         xz,      ",
"  :1g             zdg,          fh%        xh,      ",
"   1h8            zg,           ff1        xh,      ",
"   1ld            zg,            f5%      xz,       ",
"   :1l           hzf,            fh%      xh,       ",
"    1h8          zd,           f88888    llk,       ",
"   h1l8,  uuuuuuuzd,uuuuuuuuuuuuuuuu882ddll,        ",
"   8:1l>8hhrrrrrlz0,ttttttttttttttttttyyddd,        ",
"   &<1l8,88hhhhhxz5,=======w=wwwww=====+--dddd      ",
"    ,1l812553228z0,hff08=-----------------3303      ",
"     :1l8    ,,,z0,8552,       **X%%;;% %%,,,,      ",
"      1l8       z0,,,,,,       XXo% ;%% %%%         ",
"      1l8      z8,,            .X%  ;>%%%%          ",
"      :1l8     z8,            XXX%   ,2%%%          ",
"      21l8     z8,            XXo%   13%%           ",
"     g21l8    zz5,            .X%     5%%           ",
"     g#@1l8   zd,            kXX%     03%           ",
"     gO$1l8   z3,            kgX%     fg,           ",
"    g82$1l8   z2,            k31       gh%          ",
"    g8:$@1l8 zz1            kg3%        h1          ",
"    g52: 1l88z>,           lhhhhlllkhgf08h%         ",
"    g,$  1ll8z,38dfghklhhhhh44444455321,>h1         ",
"    8,$  1hl8>>>,23555444444g3%r         g1%        ",
"   g8,$   1l8>,            kg1irrrir     5h%        ",
"   g55:   1lj8>            k3%     riiirr5h1        ",
"   g22    14l8>           kg3%          rrgh%       ",
"   g=$     1l8            kg1             5h%       ",
"   82ri=   1lh8           k3%             5g1       ",
"  g53$ =ii=15l8           k3%              gh%      ",
"  g52     r==l8          kg1               5h1      ",
"  g2$       1=h8         k3%                gh%     ",
"  g2$       15l8         k3%                5h%     ",
" g82$        1l8        k3%                 5h%     ",
" g52         1lh8       k3%                  gg%    ",
" g2$         15l8      k3%%                  5h%    ",
" g2$          1lh8     k3%                   5h%    ",
" 82$          1ln8    kg1%                    5h%   ",
"g52$          15l8    kh%                     5h%   ",
"g22            1lh8  kk3%                      5h%  ",
"g2$            16h8  k3%                       5h%  ",
"g2$            15hh  %%%                       5h1% ",
"52$             19h8                           5hh% ",
"%%$             15h0                            5h1 ",
"                15qh                            %%% ",
"                 17h8                               ",
"                 15h8                               ",
"                 %%%8                               "
};
