/* XPM */
static char *_0759_06115b0e87310646d95a9e6e378c5ecc30f029f9fef63dcadf84c4602a0091bb[] = {
/* columns rows colors chars-per-pixel */
"70 60 120 2 ",
"   c #090707",
".  c #0E0D0D",
"X  c #120609",
"o  c #120C0C",
"O  c #15100F",
"+  c #1D0F11",
"@  c #141414",
"#  c #1B1513",
"$  c #1F1916",
"%  c #1C1C1C",
"&  c #221616",
"*  c #201816",
"=  c #221618",
"-  c #28141A",
";  c #241D1B",
":  c #2A1C1E",
">  c #24201F",
",  c #29211F",
"<  c #2D1C20",
"1  c #301A21",
"2  c #391F2B",
"3  c #232323",
"4  c #2C2523",
"5  c #2E2827",
"6  c #2B2B2B",
"7  c #332425",
"8  c #322A26",
"9  c #352529",
"0  c #3B242C",
"q  c #342C2A",
"w  c #392D2C",
"e  c #37312E",
"r  c #3A322E",
"t  c #3C2D31",
"y  c #333232",
"u  c #3D3532",
"i  c #3D3836",
"p  c #3B3738",
"a  c #3C3A3A",
"s  c #402632",
"d  c #432C35",
"f  c #413634",
"g  c #423936",
"h  c #46363A",
"j  c #48333B",
"k  c #453C3A",
"l  c #4A3D3D",
"z  c #47413E",
"x  c #4A413E",
"c  c #4D3540",
"v  c #463F40",
"b  c #4B3E41",
"n  c #543C4C",
"m  c #444242",
"M  c #4C4342",
"N  c #4F4946",
"B  c #4F4748",
"V  c #4C4A4A",
"C  c #514645",
"Z  c #524947",
"A  c #54454A",
"S  c #544C4B",
"D  c #594D4E",
"F  c #57514F",
"G  c #59514E",
"H  c #534F50",
"J  c #5C4D52",
"K  c #555252",
"L  c #5C5453",
"P  c #5E5956",
"I  c #5B575D",
"U  c #5D5B5A",
"Y  c #644C58",
"T  c #615855",
"R  c #65535A",
"E  c #635B5B",
"W  c #685C5E",
"Q  c #65605F",
"!  c #6B5E61",
"~  c #646363",
"^  c #6A6464",
"/  c #6C6867",
"(  c #6D6768",
")  c #6C6B6A",
"_  c #716867",
"`  c #716669",
"'  c #726C6C",
"]  c #74706F",
"[  c #757473",
"{  c #7A7473",
"}  c #7D7977",
"|  c #7B7779",
" . c #7C7B7B",
".. c #827E7D",
"X. c #84807F",
"o. c #858384",
"O. c #8A8584",
"+. c #878789",
"@. c #898789",
"#. c #8B8B8B",
"$. c #928E8D",
"%. c #8E8F92",
"&. c #949393",
"*. c #999697",
"=. c #969799",
"-. c #9A9699",
";. c #9C9C9C",
":. c #A29D9D",
">. c #A4A4A4",
",. c #AAA6A5",
"<. c #ABA8A7",
"1. c #ACACAB",
"2. c #B1AFB1",
"3. c #B5B5B5",
"4. c #BCBBBB",
"5. c #C0BEBE",
"6. c #C1C1C1",
"7. c #C7C7C9",
"8. c gray80",
"9. c None",
/* pixels */
"9.9.9.9.9.9.9.9.9.9.9.9.9.9.9.9.9.9.9.9.9.9.9.9.9.9.9.9.T C u r g : 9.9.9.9.9.9.9.9.9.9.9.9.9.9.9.9.9.9.9.9.9.9.9.9.9.9.9.9.9.9.9.9.9.9.9.9.",
"9.9.9.9.9.9.9.9.9.9.9.9.9.9.9.9.9.9.9.9.9.9.9.9.9.9.9.9.T C r r r ; 9.9.9.9.9.9.9.9.9.9.9.9.9.9.9.9.9.9.9.9.9.9.9.9.9.9.9.9.9.9.9.9.9.9.9.9.",
"9.9.9.9.9.9.9.9.d 7 & & & & 1 - 9.9.9.9.9.9.9.9.9.9.9.9.W C e 8 , & & 9.9.9.< X X X 9.9.9.9.9.9.9.9.9.9.9.9.9.9.9.9.9.9.9.9.9.9.9.9.9.9.9.9.",
"9.9.9.9.9.9.9.9.A x u q q 8 f : 9.9.9.9.9.9.9.9.9.9.9.9.` Z u e 8 , ; 4 9.9.A f f : 9.9.9.9.9.9.9.9.9.9.9.9.9.9.9.9.9.9.9.9.9.9.9.9.9.9.9.9.",
"9.9.9.9.9.9.d s 8 8 r r 8 , q q : - 9.9.9.9.9.9.9.9.j u j 7 ; = 4 7 w w 9.9.! x f : 9.9.9.9.9.9.9.9.9.9.9.9.9.9.9.9.9.9.9.9.9.9.9.9.9.9.9.9.",
"9.9.9.9.9.9.` ~ m i r r q r g k f 7 9.9.9.9.9.9.9.9.J w w 5 = @ , 4 g w 9.9.W x g : 9.9.9.9.9.9.9.9.9.9.9.9.9.9.9.9.9.9.9.9.9.9.9.9.9.9.9.9.",
"9.9.9.9.9.9.9.9.^ D g g k x 9.Z b w 9.9.9.9.9.9.9.b R f g w y 3 , 4 g 7 9.9.D l w & 9.9.9.9.9.9.9.: 4 r & # & # 9.9.9.9.9.9.9.9.9.9.9.9.9.9.",
"9.9.9.9.9.9.9.9.L S Z x l 9.9.9.C l 9.9.9.9.9.9.9.q f w i u k k r q g f w s f r 8 & 4 q w t 9.9.t 7 w l w 8 q # 9.9.9.9.9.9.9.9.9.9.9.9.9.9.",
"7 1 7 - 9.9.s 9 k K 9.9.9.k 9.9.9.9.9.9.9.9.9.9.9.x k r e e r y F L C l M Z g g r 8 g g w 7 f l f q e u r q 4 & : - 9.9.9.9.9.9.9.9.9.9.9.9.",
"l k k : 9.9.D x w y 4 9.u k x 9.9.9.9.9.9.9.9.9.9.S z q r e u F -.9.9.9.9.T C g k u g f e ; 7 f f u r r q w q 8 T h 9.9.9.9.9.9.9.9.9.9.9.9.",
"f f f 8 : 0 C D i i 4 9.z k k M 9.9.9.9.9.9.9.9.9.L Z g q g U Q ^ [ 9.9.9.9.x q f z g x g 8 8 4 * $ # $ ; 8 D b 9.9.9.9.9.9.9.9.9.9.9.9.9.9.",
"G G G T x C x C i g 8 L P i k M 9.9.9.9.9.9.9.9.9.9.T S i i ~ / ) X.9.9.9.g M r r g Z Z M i o . o . O O , > x s 9.9.9.9.9.9.9.9.9.9.9.9.9.9.",
"9.9.9.9.T b C C z z x Z M z z x 9.9.9.9.9.9.9.9.9.9.9.9.z K o.$. .,.] P M g u u q f x S G S a 6 $ O O . # * l 0 9.9.9.9.9.9.9.9.9.9.9.9.9.9.",
"9.9.9.9.` T C C Z Z x f r k g Z 9.9.9.9.9.9.9.9.9.9.9.9.K ] [ +.&.+.M y i g g 8 8 q i z L Q S m 8 % O O # > h d 9.9.9.9.9.9.9.9.9.9.9.9.9.9.",
"9.9.9.9.9.9.T Z Z 9.G z g g r Z 9.9.9.9.9.9.9.9.9.9.9.*.] V i a y 6 > > e i z V G K a r t 9.E k q 6 6 e p b 9.9.9.9.9.9.9.9.9.9.9.9.9.9.9.9.",
"9.9.9.9.9.9.W 9.9.9.G x g f g G 9.9.9.9.9.9.9.9.9.9.9.B y p y y a 6 @ % 3 3 3 6 z Q P / q 8 h P k p i z k 9.9.9.9.9.9.9.9.9.9.9.9.9.9.9.9.9.",
"9.9.9.9.9.9.9.9.9.9.E C D { X...X.:.9.X.[ { } 9.9.9.y 5 y a 5 3 3 6 3 @ . @ % 3 6 m ~ #.P q > N N M M M S 9.9.9.9.9.9.9.9.9.9.9.9.9.9.9.9.9.",
"9.9.9.9.9.9.9.9.9.9.J x x e z Q O.$.} / ] } ' P m p 6 % ; > % > 6 6 % @ @ @ @ @ % % y U +./ N 8 S P K 9.9.9.9.9.9.9.9.9.9.9.9.9.9.9.9.9.9.9.",
"9.9.9.9.9.9.9.l l l l h g 8 8 x ..O.^ G [  .~ z a y 3 3 3 3 % % % 3 3 % % % % % > 3 3 y F m ] z ' 9.9.9.9.9.9.9.9.9.9.9.u 0 9.9.9.9.9.9.9.9.",
"9.9.9.9.9.9.9.A C l l l x q 4 g Z Q X.} o.[ i r a % @ % 3 > % > % % % % % 3 % 3 3 3 3 % , 6 F z C 9.9.9.9.9.9.9.9.9.9.l c 1 9.9.9.9.9.9.9.9.",
"9.9.9.9.9.9.9.9.! A l C Z Z r f z z X.+.) p 3 5 % @ 3 3 3 % % % % % % % 3 % % 3 3 % % % @ % y U f 9.9.9.9.9.9.4 ; = 8 h k 0 9.9.9.9.9.9.9.9.",
"9.9.9.9.9.9.9.9.! l f w 9.G f f z e ) >.m 3 % @ @ 3 3 3 3 3 3 3 3 3 3 3 % 3 % % % % % % % @ 3 z q 9.9.9.9.h w 4 ; ; 5 t J c 9.9.9.9.9.9.9.9.",
"9.9.9.9.9.9.j d l g w 8 r G x x i 5 ~ U % 3 % % 3 3 6 3 3 % 3 3 3 6 3 3 % % % % % @ % % % % % 3 u > k ( k u q , < 5 8 ! 9.9.9.9.9.9.9.9.9.9.",
"9.9.9.9.9.9.{ W Z g r r r l x x i i K m 3 3 % % 3 3 3 3 6 3 3 6 6 6 6 3 3 % % % % % @ % % 3 3 3 q k 4 i u u 5 5 > p 8 n 9.9.9.9.9.9.9.9.9.9.",
"9.9.9.9.9.9.9.9.{ l f x x x C x x F V a 3 % % 3 3 3 6 6 6 6 y y y 6 6 6 3 3 % % % @ % % % % % % 6 ] ] L u g e i i 9.9.9.9.9.9.9.9.9.9.9.9.9.",
"9.9.9.9.9.9.9.9.9.L Z x x C x D Z F m y @ % % 3 6 6 6 y y y y y y y 6 6 6 3 3 % % % % @ % % % @ 3 [ *.,.U u S M h 9.9.9.9.9.9.9.9.9.9.9.9.9.",
"9.9.9.9.9.9.9.9.9.9.E S x x x C S V y 3 @ % % 3 6 6 6 y y 6 6 y y 6 6 6 6 6 3 3 % % % % % % % @ . V &.;. .u 9.9.9.9.9.9.9.9.9.9.9.9.9.9.9.9.",
"9.9.9.9.9.9.9.9.9.9.A x l l C f g r 6 3 @ % 3 6 y 6 y y 6 6 6 6 6 y y 6 6 6 6 3 % % % % % % 3 % . m #.#.$./ 9.9.9.9.9.9.9.9.9.9.9.9.9.9.9.9.",
"9.9.9.9.9.9.Y w l l f u u f x g k k y 3 @ % 3 6 6 y y y 6 % 3 6 6 y 6 6 6 6 6 3 % @ % % % % 6 3 % m +.=.*.9.9.9.9.9.9.9.9.9.9.9.9.9.9.9.9.9.",
"9.9.9.9.9.9.9.E T g u q 8 f S T F / m % % 3 3 3 6 6 y 6 3 % % 3 3 6 6 6 6 3 3 3 3 @ @ @ @ % % y y p | #.$.9.9.9.9.9.9.9.9.9.9.9.9.9.9.9.9.9.",
"9.9.9.9.9.9.9.9.9.M x u w g G / / $.U 6 3 3 > % 6 6 6 6 3 % @ @ 3 3 6 6 6 6 3 3 % % @ @ @ @ % 6 y U ~ ) [ 9.9.9.9.9.9.9.9.9.9.9.9.9.9.9.9.9.",
"9.9.9.9.9.9.9.9.9.T P M g k L } &.O...a y 3 % % 3 6 6 6 3 @ @ @ % 3 6 6 6 3 3 % % @ . . @ @ @ % 6 ~ ] z Q 9.9.9.9.9.9.9.9.9.9.9.9.9.9.9.9.9.",
"9.9.9.9.9.9.9.9.9.9.9.! S B K o.1.>.%.K a 3 % % % 3 6 6 % @ . @ % % 3 6 6 3 3 3 % @ @ . . @ @ % y ) [ 6 ] [ 9.9.9.9.9.9.9.9.d t 9.9.h 2 1 7 ",
"9.9.9.9.9.9.9.9.9.9.9.9.( L L | >.3.;.~ 6 y % @ % % 6 3 3 @ @ @ % % 3 6 6 3 3 % % @ @ . . @ @ % a +.] 6 P o.P g w 9.9.9.b l f < 9.9.D M x x ",
"9.9.9.9.9.9.9.9.9.9.9.9.9.' U ! +.>.>.[ y y 3 % @ % 3 6 3 % % @ @ % % 6 3 6 3 3 % @ @ . @ . @ 3 N #.X.) { o.S z g u u f h l f 7 : 7 l M x x ",
"9.9.9.9.9.9.9.9.9.9.9.9.9.9.^ M ~ %.1.%.K m y % @ % 3 3 6 3 % 3 % 3 3 3 3 3 3 % % @ @ @ @ % % y ) %.;.>.{ Q P P F x f g k k k M D D T E W W ",
"9.9.9.9.9.9.9.9.9.9.9.9.9.9.9.M a [ 1.;.[ K a 3 3 % % 3 6 3 3 3 6 3 3 3 3 3 3 % % % % 3 6 3 y ) &.>.+.=.;.;.] G S g w g Z C x l 9.9.9.9.9.9.",
"9.9.9.9.9.9.9.9.9.9.9.9.9.9.9.L V o.=.1.%.~ V 6 3 % % 3 3 % 3 3 3 3 6 3 6 3 3 % @ % 6 y y a ) *.2.3.>.>.1.>.X.P u r f E ^ _ W g 9.9.9.9.9.9.",
"9.9.9.9.9.9.9.9.9.9.9.9.9.9.9.L  .9.6.4.=.+.~ m 6 3 % 3 3 % % % % 3 6 6 6 6 3 % @ % 6 6 a ) $.1.6.6.1.%.;.1.$.P i r r J 9.9.9.9.9.9.9.9.9.9.",
"9.9.9.9.9.9.9.9.9.9.9.9.q 5 8 w Q 9.7.4.>.%.o.) K 6 6 6 3 3 3 % 3 3 6 6 y 6 6 3 % % 3 y K +.;.3.4.+.[ a X.:.O.G u e w 7 9.9.9.9.9.9.9.9.9.9.",
"9.9.9.9.9.9.9.9.9.9.9.M k u 5 5 x X.3.>.>.%. . . .~ m a y 6 6 3 3 3 6 y y a y 3 3 3 V [ #.=.>.%.( U S P L  .[ S r q g 8 8 d 9.9.9.9.9.9.9.9.",
"9.9.9.9.9.9.9.9.9.9.9.{ ( v u ; i 9.&...) ..a ~ [ #.] U V a y 6 3 3 y a a a a y 6 K  .=.>.O.K U K M S L ^ ) Q S g q r r 8 0 9.9.9.9.9.9.9.9.",
"9.9.9.9.9.9.9.9.9.9.9.9.9.k M , z Q } Q F i y Q #.=.#.[ ) ~ I V y 6 6 y a V U U ~  .=.1.6.&.O.] S S S 9.9.9.E M z f r r w w 9.9.9.9.9.9.9.9.",
"9.9.9.9.9.9.9.9.9.9.9.C Y w k m V U Q F z r z z +.$.#.+. . . .+. .) ~ U ~ [  .+.%.>.1.4.4.4.9.9.9.9.9.9.9.9.9.9.9.{ _ T g f 9 9.9.9.9.9.9.9.",
"9.9.9.9.9.9.9.9.d 1 4 , 8 q q f k L P G z x x V K / +.[ @.#.=.>.;.=.+.+.+.+.o.=.3.8.6.3.,.,.9.9.9.9.9.9.9.9.9.9.9.9.9.9.L h w : 9.9.9.9.9.9.",
"9.9.9.9.9.9.9.9.` ~ C g k u g x l C 9.9.9.N x Z F B ~ +.@.%.;.>.1.1.=.=.=.%.P =.>.3.9.X.{ { 9.9.9.9.9.9.9.9.9.9.9.9.9.9.` E R h 9.9.9.9.9.9.",
"9.9.9.9.9.9.9.9.9.9.E z g g f C A 9.9.9.9.9.D Z M J F K ~ | +.=.>.1.2.;.o.~ K U ) [ ~ K G Q 9.9.9.9.9.9.9.9.9.9.9.9.9.9.9.9.9.9.9.9.9.9.9.9.",
"9.9.9.9.9.9.9.9.9.9._ ^ ^ ] ' 9.9.9.9.9.9.9.9.G S L M a m H ~ [ U K [ [ ~ H N m V K K m z } 9.9.9.9.9.9.9.9.9.9.9.9.9.9.9.9.9.9.9.9.9.9.9.9.",
"9.9.9.9.9.9.9.9.9.9.9.9.9.9.9.9.9.9.9.9.9.9.9.9.L A x y e a V V P S G P Z k g g i b 9.9.T ( O.9.9.9.9.9.9.9.9.9.9.9.9.9.9.9.9.9.9.9.9.9.9.9.",
"9.9.9.9.9.9.9.9.9.9.9.9.9.9.9.9.9.9.9.9.9.9.9.9.9.l i r u a v k 9.9.S x k g u e 7 w 9.9.9.9.9.9.9.9.9.9.9.9.9.9.9.9.9.9.9.9.9.9.9.9.9.9.9.9.",
"9.9.9.9.9.9.9.9.9.9.9.9.9.9.9.9.9.9.9.9.9.9.9.9.9.u 8 8 M H 9.9.9.9.9.l g u e 8 5 4 l 9.9.9.9.9.9.9.9.9.9.9.9.9.9.9.9.9.9.9.9.9.9.9.9.9.9.9.",
"9.9.9.9.9.9.9.9.9.9.9.9.9.9.9.9.9.9.9.9.9.9.9.9.9.8 < 5 A 9.9.9.9.9.x x r e 4 ; + O : w f g t 9 9.9.9.9.9.9.9.9.9.9.9.9.9.9.9.9.9.9.9.9.9.9.",
"9.9.9.9.9.9.9.9.9.9.9.9.9.9.9.9.9.9.9.9.9.9.9.9.9.e 4 4 A 9.9.9.9.9.S M k r q 5 # O ; 8 u g h 0 9.9.9.9.9.9.9.9.9.9.9.9.9.9.9.9.9.9.9.9.9.9.",
"9.9.9.9.9.9.9.9.9.9.9.9.9.9.9.9.9.9.9.9.9.9.9.9.~ h v M 9.9.9.9.9.9.T S M k i y   . , r f M 9.9.9.9.9.9.9.9.9.9.9.9.9.9.9.9.9.9.9.9.9.9.9.9.",
"9.9.9.9.9.9.9.9.9.9.9.9.9.9.9.9.9.9.9.9.9.9.9.9.! e u h 9.9.9.9.9.9.` L S M V M @   8 q x d 9.9.9.9.9.9.9.9.9.9.9.9.9.9.9.9.9.9.9.9.9.9.9.9.",
"9.9.9.9.9.9.9.9.9.9.9.9.9.9.9.9.9.9.9.9.9.9.9.9.( B 9.9.9.9.9.9.9.9.9.9.D S 9.9.U y u h 9.9.9.9.9.9.9.9.9.9.9.9.9.9.9.9.9.9.9.9.9.9.9.9.9.9.",
"9.9.9.9.9.9.9.9.9.9.9.9.9.9.9.9.9.9.9.9.9.9.9.9.' f 9.9.9.9.9.9.9.9.9.9.T w 9.9.S 8 u : 9.9.9.9.9.9.9.9.9.9.9.9.9.9.9.9.9.9.9.9.9.9.9.9.9.9.",
"9.9.9.9.9.9.9.9.9.9.9.9.9.9.9.9.9.9.9.9.9.9.9.9.O.J 9.9.9.9.9.9.9.9.9.9.9.9.9.9.9.' C : J 9.9.9.9.9.9.9.9.9.9.9.9.9.9.9.9.9.9.9.9.9.9.9.9.9.",
"9.9.9.9.9.9.9.9.9.9.9.9.9.9.9.9.9.9.9.9.9.9.9.9.9.9.9.9.9.9.9.9.9.9.9.9.9.9.9.9.9.9.E g < w 9.9.9.9.9.9.9.9.9.9.9.9.9.9.9.9.9.9.9.9.9.9.9.9.",
"9.9.9.9.9.9.9.9.9.9.9.9.9.9.9.9.9.9.9.9.9.9.9.9.9.9.9.9.9.9.9.9.9.9.9.9.9.9.9.9.9.9.T C M 7 9.9.9.9.9.9.9.9.9.9.9.9.9.9.9.9.9.9.9.9.9.9.9.9."
};
