/* XPM */
static char *fe196cd21d364cfdf54d8efcb546145c[] = {
/* columns rows colors chars-per-pixel */
"64 64 64 1 ",
"  c #9E8679",
". c #967D71",
"X c #8E7569",
"o c #826D61",
"O c #796559",
"+ c #6D5D51",
"@ c #65554D",
"# c #5D4D45",
"$ c #554541",
"% c #4D4138",
"& c #493C34",
"* c #413430",
"= c #3C302C",
"- c #342C28",
"; c #302420",
": c #28201C",
"> c #716D45",
", c #696541",
"< c #615D38",
"1 c #555534",
"2 c #4D4D2C",
"3 c #454128",
"4 c #3C3824",
"5 c #30301C",
"6 c #282818",
"7 c #202010",
"8 c #D7B28E",
"9 c #CFAE82",
"0 c #C7A279",
"q c #BE9A71",
"w c #BA9269",
"e c #B28661",
"r c #AE7D59",
"t c #AA7551",
"y c #A26D49",
"u c #9A6545",
"i c #925D3C",
"p c #8E5538",
"a c #864D30",
"s c #79452C",
"d c #714128",
"f c #693C24",
"g c #613420",
"h c #55301C",
"j c #4D2C18",
"k c #452418",
"l c #3C2014",
"z c #301C10",
"x c #28140C",
"c c #201008",
"v c #180C04",
"b c #AEA6AA",
"n c #AA9EA2",
"m c #968A8E",
"M c #8A7D82",
"N c #827579",
"B c #756D71",
"V c #6D6165",
"C c #61595D",
"Z c #595151",
"A c #4D4949",
"S c #413C3C",
"D c #383434",
"F c #2C282C",
/* pixels */
"hhhgggggggggggggfffffffffffgggggghhhhhhhhhhhhhgggfffdddddffggghk",
"gkhhjjkkkkkkkkjjjjhhhhhhhhjjjjjjjjkkkkkkllllllllllzzzzzzzzzzzzzz",
"gkcccccccccccccccccccccccccccccccccccccccccccccccccccccccccxxxxz",
"fkc==;;;--;;:;;----;;----;;--DS%&$D&DDSSSS$SSASDDDSDSSSDSDSSDjxz",
"fkcF*DDD==---D*=**DD--***==&&*&##$S***SSSSSSSSSSSSSSSD&D&DDDDhxx",
"fkcD*D****---F**&DD*DFDSS*Diy*%pu#&D%SD%DDSSSSSSSSSSDDDD%DSDDhxx",
"fkcFDFDDDS*==******SSD*D&$ettitttwtwtwC&DSSSSSSSSSSSSSDDDSSSSgxx",
"fkcS*DSD&***SSSS*D&&DDF*aipipuuuuyttqteCSSSASSSDSS%S$SDDDDDDSgxx",
"fkcF**SSS*DSSSSSSDDDS**pissapuyppiueerstSDDDSDSSSDSSSSS%SSDDSgxc",
"gkcDDSSSSSDSSSSSSS*SAS#tigfsiuuusssyqwpiD%DSDDSSSSSSSSSAASSSSgxc",
"gkcDF&S*F*****DS*DD*DDCiasffspypsspuetpfg&D&&&=*&*DSSSDDSDDSDgxc",
"gkcSSDF***SDD&D*D**&FD%ypgdffptpgspttttgDA%DDS%DDDSDSSSASSSASfxv",
"hkcASSSSDSAZZ&DSSD*DDDDiiusssutid;iuttsd$SSSASSSDDDDSSDSDSDSSfxv",
"hkcSSSSAAAAZVS$DDD%AD&%%putpitttagyeet:gSDSS%$SASSSSSAASSSASSfxv",
"hkcZZBVZSASSASDFSSAZVBZeuatiirrrrytteyssD$DSSSDSSSSSDSSASDSSSfxv",
"hkcMBMVZASSSSSSSSDZVZA$#tappp09qqrryyts#DDAD$A%D%&D&DDSSSSSDDfxc",
"hkcmVCCAAAAASSSSAACCA$*itgspa988tteeytusS$%SSSSSDDDD&DDSSSSSAfxc",
"hkcBVVBVASDASZBVZSCSSS$etipppjueqtteyitgSSAADDSDDS&DDDSD*&SDDfxc",
"hkcMBMMMVAACBBMVZAZAZAZteyuyif=e9q0etfdd$$$S$DDSSD&DSSDDSSSSSfxc",
"hkcVCVCVMMMmBVCCAAAAZAueyureue$pq0tegf::$D%D%SD$DSS$DDDDD*DDDfxc",
"hkcZZZZVBBBVZVVBVA$D$$tqtyeeqes&urtuh-;;$SD&D$ASSSSDFDDDSDDSSfxx",
"hkcBBVBBCZZZCVBMMVZZAA#eetrqepef=jfjjjsASADS$DDDAASSSSDSAZZASfxx",
"jkcA$%AAASZC@CVCNMBV+oitettrturts*e#fgCVVZAAASS$ASSSSAAAAZVZZfxx",
"jkcAD%$SAZCVBBZBMMMOo99yspuyuppiij$u$$ZCZA$$$$SSSZZBVZSASSAAZgxx",
"jkcVASDSAZVVBNVVBNM+$ttydsiiiiaaap*uprA#VVZZZZ$CMMBMVZASSSSAAgxc",
"kkcVVBVZASSSZCCZAO+Xtttt0eaputsaigh=dACVVBBMmbmnnmVCCAAAAASACgxc",
"kkcZZZCZZZASS##ACOXqtttttttiipssjghj%VMMMMMMmnmbnBVVBVASDASAChxc",
"kkc$AZAZZAAASA#CVVb000qyuiteipaasfhj%nbnnnnbbmMMmMBMMMVAACBVChxx",
"kkcZZZAAAASASVBBMBn9990ruuutypiidgss$mMnmmmmVZVVVVCVCVMMMmMmBhxx",
"lkcZAAAASAZAZZVBMZq9990etiuuuipipd$a##Z#AZZZZZAZCZZZZVBMBVZVBhxx",
"lkcCZZZZZZZZZAZCZZ 9990wruppiiutyisap$$$#A$AACCBVBBVBBVZAASSDhxx",
"lkcMmMVVVVCZASAAS&.00q0ewrpiuyytytppp$#A$$S$ACBC#A$%ASSS&DSASgxx",
"lkcVMBVCMVA$A$$%%@0te9ww00yyttttetips$g&*$S$SD$$ZAD%$S%%&S&DDgxc",
"lkcZZZZCCAA&F&%DD+qtttytrwiuuuiytpaa$gffS&D%DSDACVASDDDDF=*&Fgxc",
"lkc$$$$$$DSSSSSAS+ettuuuyyuuipptiaapgg%$BZZZZZZCCVVBVZASDSSSSgxc",
"kkc&D%$*%D&D%SDZZ@eteuuyrquiptpiipsfsfddnmVVVCCAZZZZCZZZASSAAgxc",
"kkc%%SDS%DAZZAAZA#eqteti98uaiuiyuppsggfsnnnVZZS$$$AZAZZAAASAAgxc",
"kkcSAZAZCVBMC%$AAiwerweuuesayttriiasddgg#mA$AZZZAZZZAAAASASAAgxc",
"jkcmnbmZA$$%3&&SAuwuyeeyprsiupiytpssgfhghnCAAAZAZZAAAASAZAZAVfxc",
"jkc,$*&**$=3s=%A#>witryiiupiipaaiisffd$g$ammCCCCZCZZZZZZZZZAVfxc",
"jkcr*&=*&*D%a*&$#>9teuiiuypiiuppipdgsghgghmmmBBBVMmMVVVVCZASAfxc",
"jkci3*3%&%22<1D&#y0rtiaiipdaaiuiyp#fgdgggggCA$AZVVMBVCMVA$A$Afxc",
"jkc3u<2232,,sp2==yqtpaspaaddssaeepagdfdfggh##ZZAAZZZZCCAA&F&Sdxc",
"hkc313-43<ay2a1g3w0tasgssaaadgiteusfdssshghhjD$$A$$$$$$DSSSSSfxc",
"hkc45*g*=-33333aietuyafappyiagt9wegddadsggjfs#&D&&D%$*%D&D%$Dfxc",
"hkcp&<<=31322f1sitepyifyypeyipe9wtsdsdfdfjjhh&%&&%%SDS%DAZZAAfxc",
"hkc1ss22213si<1<iweiuaa9eieetrwqeyhfsgggffggh&DAZSAZAZCVBMC%%fxc",
"jkc3<as31fg34==*tqrtppyeetwtewqeeahddgdggssgg#mbbmnbmZA$$%3&&fxc",
"jkc==42=13sppsgfr0ytsyuuireeew8qrsjdhgggjspsaa#*i,$*&**$=3s==fxc",
"jkc==54=33saa$f2e0itgtiispiirt8qtsdgdfkjjspapg3t2r*&=*&*D%a*&gxc",
"jkc545-6==53h3sfewiispaidddasi8eiggsjfgjkgaapa21&i3*3%&%22<1Dfxc",
"kkcs3434=5jj3sfgwrassssypddggu8rigggjggjghisips2-3u<2232,,sp2fxc",
"kkci5=14p414daauwiagffsiadsgjeqtiggjjjgjkfphap$21313-43<ay2a1gxc",
"kkc2s&<aa12ssasttyffggdsipafjqetakjffjkjjgsgsa-=345*g*=-33333gxc",
"kkcj11is44sp,sstttffdddaapadg8tygkkjjkhkfgfgdd7*;:=-=6--6-6=*fxx",
"kkc21i3333222iattpfgfirsspsdf0tpfgkkjf$hffggdd::;:77;647-66==fxx",
"lkc33424i33223eerifytuyui3=j-qtifijggsghhg&hf=-=-=e6-:7s7-=:=fxx",
"lkc<es11sh221smeifsaip3p2es-ftei&:f6grahg&*j-77t-a:77;h=77:-:fxx",
"lkc2<12322m21eyssmesmie$*su3pttye#-assgf&-#*;77;76;-:-;7g:==7gxx",
"lkc1<12pt&$141233s114m2iib<Crepmi2se1eg$prh--=6-553s37377-:6:gxx",
"zkc22i<32=31-224=3112t1<33peArrje3ss4%29=3hg&=--234=e--s$7:-:fxx",
"zkgggggggggghhgggggggggggggffggggfffggggggggggggggghhhhghhhhgfxx",
"zjjjhhhhhjjjkkkkklllllllllllkkkkkkkkjjjjjhhhhhhhhhhjjjjjkkkkkkxc",
"zzzzlllllllzzzzzzzzzzzzzzxxxxxxxxxxxcccccccccccccccccccxxxxxcccc"
};
