/* XPM */
static char *_85b7fb000be421ebcd066bdabef38e6[] = {
/* columns rows colors chars-per-pixel */
"32 32 68 1 ",
"  c #242020",
". c #413C3C",
"X c #4D4949",
"o c #595151",
"O c #61595D",
"+ c #6D6165",
"@ c #756D71",
"# c #827579",
"$ c #8A7D82",
"% c #968A8E",
"& c #9A8E92",
"* c #0C0404",
"= c #201008",
"- c #301C10",
"; c #3C2014",
": c #452418",
"> c #4D2C18",
", c #55301C",
"< c #613420",
"1 c #693C24",
"2 c #714128",
"3 c #79452C",
"4 c #864D30",
"5 c #8E5538",
"6 c #925D3C",
"7 c #9A6545",
"8 c #A26D49",
"9 c #AA7551",
"0 c #AE7D59",
"q c #B28661",
"w c #BA9269",
"e c #BE9A71",
"r c #C7A279",
"t c #CFAE82",
"y c #9EBADF",
"u c #040810",
"i c #696541",
"p c #797549",
"a c #654518",
"s c black",
"d c #080804",
"f c #100C08",
"g c #141010",
"h c #1C1414",
"j c #201C18",
"k c #28201C",
"l c #302420",
"z c #342C28",
"x c #3C302C",
"c c #413430",
"v c #493C34",
"b c #4D4138",
"n c #554541",
"m c #5D4D45",
"M c #65554D",
"N c #6D5D51",
"B c #796559",
"V c #826D61",
"C c #8E7569",
"Z c #967D71",
"A c #9E8679",
"S c #AA8E7D",
"D c #AE9686",
"F c #B69E8E",
"G c #C3A696",
"H c #CBAE9E",
"J c #341C00",
"K c #452800",
/* pixels */
"AAAAZZCCCVVVVBBBBVVVBBBNNNMMMMMb",
"ZnmnnnnmmmmMMMMmmmmmmmnnnnnnnnnv",
"Znlkkkkllllzzzxxzzzllllllzzzzxnc",
"ZnlGewqqwZ&&&D&%%&&&&&%G&HFHFVnz",
"Znlrwqqqp&&&&%$@$%&&&&HFHGFHHVnz",
"Znlwq0Z8D&&&$C###%%&&%GHHGFFGVmz",
"Cblp96pF&+%&+#ZCZCCD&%@AHGFHFVmz",
"CbziVCDGcn+%DrDVNMVZH%+BFFDGGVnx",
"CbzMCZFNhbX$qeDBbb59SF@o@AFGGVnx",
"CbzBCFC;=cOGrrq7<b680A@.nCDqeVnx",
"Cnz:eA4>=OHF48q6,>6080AX;<AFAVbx",
"Vnz=NpNJkGF<>,23,>6Np6qAk<CHGVbx",
"Vnzghn:Jx7N**hc1>>BN2<Cq;6VHDBbz",
"Vnx**-J;$m-=**;1<1BV=dh<;N1GHBbz",
"Bmxfsg=xSCxhf-b123M;kjoGl<3FHBbz",
"Bmxus==;<q11=<8N2321kzCF;><GGBbz",
"Bmxsddh--387480rw76CCCZF;1<&HBbz",
"Bmxs**h:=Z6579Ztwq90CCD;;<b&GVbz",
"Vmlssgk>=N7N88Zteww00DF*;b;%&Vbl",
"Vmlss*=;-99NAAGttwwqqD:s;b>NHVbl",
"Vmlsu*h;>=A7qq#tttw&qFss;<><8Vnk",
"Vml*s*f;c=FqZnhbObX#qF*s;1:<7Cnk",
"Bml=**f->*906mhggjx%Zq;*;<:>6Cnk",
"BMl>J=*>>*G007;gfhX&&&k*;<:<ZCnk",
"BMl1<-=;h=@C0Nb=*j%&y&ff>>bpaCnk",
"BMl77KK>*==<CNb12b@&y& j:1NCJZnk",
"NMl>>===l=lmmN8628Z&&-c,>37qJZnk",
"NMl14JJ>aa64DD4N<>>Jaa66J244KZnl",
"Nnl,1;K17ZqADDAA634668qC><>4KAnl",
"MnlVVVVVCCCZZZZAAAAASSSSSSAAAAnl",
"MmMMMMMMMMMmmmmmmmmmmnnnnnnnnmml",
"xxzzzzzlllllkkkkkkkkkllllzzzzzzz"
};
