/* XPM */
static char *_8567_5439070b207ac741e556d89486b9cf696429c9f729e2215f55141c3c72593d02[] = {
/* columns rows colors chars-per-pixel */
"80 107 28 1 ",
"  c #101420",
". c #14182C",
"X c #182034",
"o c #202841",
"O c #242C49",
"+ c #283451",
"@ c #2C385D",
"# c #344165",
"$ c #38456D",
"% c #3C4D79",
"& c #415182",
"* c #49598E",
"= c #516196",
"- c #55699A",
"; c #5D71A2",
": c #6179AA",
"> c #6982AE",
", c #718AB6",
"< c #7992BE",
"1 c #7D9AC7",
"2 c #86A6CF",
"3 c #8EAED3",
"4 c #96B2DB",
"5 c #9EBADF",
"6 c #A6C7E7",
"7 c #AECFEF",
"8 c #B6D7F7",
"9 c None",
/* pixels */
"999999999999999999999999999999999999*9999999999999999999999999999999999999999999",
"99999999999999999999999999999999999;99999999999999999999999999999999999999999999",
"9999999999999999999999999999999,999219;99&>9999999999999999999999999999999999999",
"9999999999999999999999999999-999&99:,<9&9999999999999999999999999999999999999999",
"999999999999999999999999999994:=99993:-999&>999999999999999999999999999999999999",
"99999999999999999999999999996<3<19999>9%99-9999999999999999999999999999999999999",
"9999999999999999999999999999%5&9%:999&;*,&99&99999999999999999999999999999999999",
"99999999999999999999999999999999994*99%<;=9-@-2<>=999999999999999999999999999999",
"9999999999999999999999999999;999-1:;91>->;<,>:,&99999999999999999999999999999999",
"999999999999999999999999999-&999<25;%*<>33;3&99999999999999999999999999999999999",
"99999999999999999999999999999991;1,$&::12*&999999*;&9999999999999999999999999999",
"999999999999999999999999999&99:19%&+#-,:*99&1*9999&<9999999999999999999999999999",
"99999999999999999999999999*&9912;%+#*,3;9-*9;99-99999999999999999999999999999999",
"999999999999999999999999*:;;=;,>5;%&->2=#%,;999999999999999999999999999999999999",
"999999999999999999999999>%9*::82*@$%;6>%*&:>:<&9;999$999999999999999999999999999",
"9999999999999999999999&=19999><O@@&=,1=+&-:*2;3=99*99999999999999999999999999999",
"9999999999999999999999:<=99992#O+&==:=+o#<%$@&1>9*99@999999999999999999999999999",
"999999999999999999999*5<9-&9=9#&9-:*-#O@#*+*-*#$*;-*99@-999999999999999999999999",
"999999999999999999999<*91&999&-&@>;:$+@%%&*:;;*$#*;<;*99999999999999999999999999",
"9999999999999999999999999999&:-&$&,<*%$&=&-,-*%9&9&>9**9999999999999999999999999",
"999999999999999999999&%99999*-:*%#&*%&;:%*>1:&#999&$*9-9999999999999999999999999",
"9999999999999999999999999&99;:>-&%$&*-<-&-54>*+#+9*9=*>%999999999999999999999999",
"99999999999999999&999>:&99&&;>=&$&=-;=;**;47;$9OO99*-=<=999999999999999999999999",
"999999999999999999999=,99&9=&&%&*-,;;:=:-*2>&#9%O+99:9-*999999999999999999999999",
"99999999999999999999*%*999@:;-*=-:,<31,*-*&**&*%#9+9,>-;999999999999999999999999",
"99999999999999999999:99999&--=;<4414,*$@=,=&$$;99999&1;9999999999999999999999999",
"9999999999999999999:&9999=*&-;-:>>=&%@&*%=*;&#%,#X999=-9999999999999999999999999",
"999999999999999999999999:91:&*=*%$%&*-=**$%=>%@=+O999*>*999999999999999999999999",
"9999999999999999999&99999$#%&-&==&*=-:-*&;#%=&@9X999*9;9999999999999999999999999",
"999999999999999999999999&9*>::%*;*:;;-*#%@&$-=#99:99->99999999999999999999999999",
"999999999999999&9999%*:-&*-,;=#%::;:<;$&;#o#;;$#:3,9>999999999999999999999999999",
"99999999999999;999%99;9=9*&*=&$#=13,=&#=<$O$->%+o*>-=999&@9999999999999999999999",
"9999999999999999999&9999&;9=-*##%*-&O#*=-&+@=,&o9&9%-9999=9999999999999999999999",
"999999999999999999=99%99>:&=*=%#$=;@O%;*:=#+%4=O9999999999<999999999999999999999",
"999999999999999999*:&999-:=>&;&#&;-+$=>=,-$O+:$@9999%999999999999999999999999999",
"99999999999999&999%-9999o&=%*:*#*>-@*:;;2;%XX$%%oO@$=@99999999999999999999999999",
"99999999999999:%9&:-99999O@#=,-#%>*#-1-,5:%9#+#=@$$&&+99999999999999999999999999",
"9999999999999999%-&;9999+#-%-1;#=,-$&;*-,*$*&#@:&@&:+o99999999999999999999999999",
"99999999999999999,<:9999O:%%*;*#;1>$@*$+99&%*%$-:%$$+o99$99999999999999999999999",
"9999999999999999*2,,99%9#$*$&$%->2;@%=$@o9$*-&#-4=9%#999999999999999999999999999",
"99999999999999999<4&9999#&=#%$*;2:$o&=&OX9+=>=@*:&99$999999999999999999999999999",
"99999999999999999%:999999=*#+#=;-&+ *;*o999$=+o$=#9@*999999999999999999999999999",
"99999999999999&9999999**%-&###*%&+.X:-=&999@#OO*&@@%*:*99-9999999999999999999999",
"99999999999999&9999999%*=;>$@+%*+XXO;;-:+99&%#@%-&#&=%,9999999999999999999999999",
"9999999999999999999-&-*;:-=$&+o&$$+&2<,<%99$%=#&>%O#;**9999999999999999999999999",
"9999999999999999&9-19**-->:%&Oo O@#;<42>&>%9-9#-&&@O*>99999999999999999999999999",
"99999999999999999;3-&9&-,1<=$.X X@%#=,7=99&999#$#9$99*99999999999999999999999999",
"99999999999999999:9;99&,11:@XX9 X@&-=&>O@9999&%O+9999999999999999999999999999999",
"999999999999999&9%99&9&,1*$9999X@$&-=$*+999%99%@+@%+9999999999999999999999999999",
"99999999999999999999&=*&*+999999@$%=*%*O99999&99-=;*9999999999999999999999999999",
"999999999999999999999-$*O9999999#*&==@-++9@&9$99=,,<9999999999999999999999999999",
"999999999999999%99999&;@9*999999@&=,=+-#99>99-%9&;399999999999999999999999999999",
"999999999999999*999999$,:&99&999+&-<*%=$+9999:99%,999999999999999999999999999999",
"99999999999999*:999999&5>2&99999O%;<=&>@99&999999&999999999999999999999999999999",
"99999999999999&-9*99&91:<3*99999+%:2-%;#999999&&&999&999999999999999999999999999",
"999999999999999>-**9#&>:5>999+99#&>>*-;%99-999&;,&9**999999999999999999999999999",
"9999999999999&93<;,-*>&9,4999999@&<,-&=&99999;9&;9%99999999999999999999999999999",
"9999999999999:&-1,&9999*9&999999@->3=&*%99999&,9<2999999999999999999999999999999",
"99999999999999<9;99999>*;999999O%-1<=*&$9999*><,,>9&&9&9999999999999999999999999",
"9999999999999999*<&999319999999+&-<,*#*%99999=>>99&&9999999999999999999999999999",
"9999999999999999#93&99:999&9999@%;2,-&&#+9999*=9&99$99999*9999999999999999999999",
"999999999999999#999999999999999#+%1>%%*@+9999-*:<&$99999999999999999999999999999",
"999999999999999*99&99999999999&#O@>;&-=+9999999>*9&99999999999999999999999999999",
"99999999999999999***99&99999999%+%,-=-=#999999999&9-*%99999999999999999999999999",
"9999999999999999;=>*99>9999999@*#=2:=;-$O99999999999;<=9999999999999999999999999",
"9999999999999999::999999999999=:#;2<;>;$99999999$9999<99999999999999999999999999",
"9999999999999999:9*999999999999&#-1>-,-%99999%9999999999999999999999999999999999",
"9999999999999999*999999999999999+=<;-1=&O99999:9999&9$%9&99999999999999999999999",
"9999999999999999999*999999999999O->-=,*&99999399,9=9&999999999999999999999999999",
"99999999999999999999999999999999o->=*:&%999999999999;-999%&999999999999999999999",
"99999999999999999999999999999999o*,-*>*%99999999&&999>9;99-999999999999999999999",
"99999999999999999999999999999999+-,;=,=#99999999&,,&&919&;:&99999999999999999999",
"999999999999999999999%9999999999@>1>;<&#+999999%9,9$-&999<9=99999999999999999999",
"9999999999999999999&99<999999999$:2,:,*#+99999999&99>999999999999999999999999999",
"99999999999999999999999999999999$-<>>>=+999999999999>9-#999999999999999999999999",
"999999999999999999999&9999999999%*,:,:-+@9999999&99&%99:%%9999999999999999999999",
"999999999999999999999=999999999O$&>><--999999999-99>;%->999999999999999999999999",
"999999999999999999999:999999999+#*:,5=-$99999999-9::;%*:9%9999999999999999999999",
"999999999999999999999,%999999999#=-12*;+99999%99*9%%;;%9999999999999999999999999",
"999999999999999999999*999999999O#=-4<&;O9999999%:@99&;>&9%9999999999999999999999",
"99999999999999999999999999999999$*;>;$:@999999#9;+++<<,&@=%999999999999999999999",
"99999999999999999999%%%999999999#&&--&=$9999999#&---=;-;;=#999999999999999999999",
"999999999999999999999%=999999999#%*:=*>%*99999999&=:1$#=-:$999999999999999999999",
"999999999999999999999==999999999+%*<=;<&$%999999&9;<*#o#-:&999999999999999999999",
"99999999999999999999**=99999999O+$=,*-,*99999999$*,:@@%99#9999999999999999999999",
"999999999999999999999-%99999999OO$;,*=>*9*-*9999$;;&@&+9999999999999999999999999",
"9999999999999999;999%-99$&999999OX=:&&:%9-*,-999&>2@%-$o9%9999999999999999999999",
"999999999999999999999-99&999999O@o#-$*;+9O=$;*99=21@*>::-*=-99999999999999999999",
"99999999999999999&=99-99$99&,<9o$9 O%$-%99$9=;=9-:*%&;&::-;9999&-%99999999999999",
"999999999999999&999%+=@999%>>9&9&+o$@+-$9999#:=&%*9*==-:==:%99999*-;%99999999999",
"99999%99999999:>-&99*$O99X@9999999#++@*@99999#;%$$$*-,>=*<==$999999-,>&999999999",
"99999999999999=$:>&9=$&99@%99&999.%,..*@%99999@-*9&*:**---$%9&999%::;>,-%9999999",
"99999999999999999&-%&#%$%+99999&X&,*@o=-&999999+$%9&*9&9999999999999&99999999999",
"99&&&&%99999%99999&->:#@$%*=9#%@=-*@:$&->&9999999**9#9%#9999999999&*:=-&99999999",
"9&&%999999999999999$*;*@$=;99999=:>>#:@-$,&999999999999#99999999999999999999$999",
"&&9999999999999999#@%*&$##9+9999%+>*$#+;&#=&999999999999999999999999999999$-**&#",
"&&999999999999999999++%o99999999+@--*-X#&99999999999*999999999999999999999999999",
"&999%%99%99:99999999999999999999%&---*#9999999999999##=9999999999999999999999999",
"99999999999999999999999999&;9999>>*-;$999-,;999999999:99999999999999999999999999",
"99999999999999999999999999=:>999&>*;#$9&>2<<999999999999999999999999999999999999",
"999999999999999999999999999:&<99&%&>%%>;;&99999999999999999999999999999999999999",
"99999999999999999999999999999&&;>$%&&;:&9999999999999999999999999999999999999999",
"999999999999999999999999999999*<*-&*&9999999999999999999999999999999999999999999",
"999999999999999999999999999999;-<:-**&&%&999999999999999999999999999999999999999",
"9999999999999999999999999999999-:-*-&99&$&99999999999999999999999999999999999999",
"99999999999999999999999999999999%$#%99999999999999999999999999999999999999999999",
"99999999999999999999999999999999999999999999999999&&9999999999999999999999999999"
};
