/* XPM */
static char *_7175_7474b89b00e00e18517284c06d248a24d72056c8ccbd3661070078e6c9d267d8[] = {
/* columns rows colors chars-per-pixel */
"82 105 28 1 ",
"  c #14182C",
". c #182034",
"X c #202841",
"o c #242C49",
"O c #283451",
"+ c #2C385D",
"@ c #344165",
"# c #38456D",
"$ c #3C4D79",
"% c #415182",
"& c #49598E",
"* c #516196",
"= c #55699A",
"- c #5D71A2",
"; c #6179AA",
": c #6982AE",
"> c #718AB6",
", c #7992BE",
"< c #7D9AC7",
"1 c #86A6CF",
"2 c #8EAED3",
"3 c #96B2DB",
"4 c #9EBADF",
"5 c #A6C7E7",
"6 c #AECFEF",
"7 c #B6D7F7",
"8 c #BEDFFF",
"9 c None",
/* pixels */
"999999999999999999999999999999999999%999999999999999999999999999999999999999999999",
"99999999999999999999999999999999999%99&&999&-%9999$9999999999999999999999999999999",
"999999999999999999999999999999999999:2,;&9$,%&9999%9999999999999999999999999999999",
"9999999999999999999999999999999%%99%,32,;=%$$9999999999999999999999999999999999999",
"9999999999999999999999999999999%999*9=>,:-=*%*$&9999999999999999999999999999999999",
"9999999999999999999999999999%999999*&9&-&&*=;=-%9999999999999999999999999999999999",
"999999999999999999999999999%999%$99*>##%*=;:>:--999%:999$9999999999999999999999999",
"999999999999999999999999999999999*%%=;=*:=->:1-%9999999999999999999999999999999999",
"9999999999999999999999999999999$9,;&&*>:;>,<,<*99&99999999999999999999999999999999",
"9999999999999999999999999999&%9%=--=$%;431523;%%9-&9999999999999999999999999999999",
"9999999999999999999999999999&:%9=;$*=%$>386<:&999$;@999999999999999999999999999999",
"99999999999999999999999999999*-99:=%%&%$:>;*;*$99&<@999999999999999999999999999999",
"99999999999999999999999999&%$&#$***-=&*=:=$&;==%%+@%9$@999999999999999999999999999",
"99999999999999999999999999%=-$#&-><:=>;--:%;=%**$$-=%*@&99999999999999999999999999",
"99999999999999999999999999%=%#*;34,*>,*=:-*>-*--$-&$=:=&*999$999999999999999999999",
"9999999999999999999999999%9&$&:->13*2-&->&-,**%#+&%;%*-,-9999999999999999999999999",
"99999999999999999999999999$%%=>*<>:#=$&&:*&=&#++#&%#=;:1-%999999999999999999999999",
"9999999999999999999999999999$%;==>>=%%$%;=%@@#%*%&**O*<2:9999999999999999999999999",
"9999999999999999999999999999+%=**,>=@#*%-**##%*;:>%@9=5,:9999999999999999999999999",
"999999999999999999999999999$9=%-&>-*@O@&=&=%$%&:,-+9%9%>9&999999999999999999999999",
"999999999999999999999999999999-,=;*$+Oo*;&-*&$*;2*+O999%9&999999999999999999999999",
"99999999999999999999999999$99*>=&@#$OO%;;&;*%#%=:&$9999999999999999999999999999999",
"9999999999999999999999999999%;;%#$&&O@*<=&;=&@#*-=$@9$$999999999999999999999999999",
"999999999999999999999999%%99#&%-$=-%O+#-&*--&$O@*=&#@&*$99999999999999999999999999",
"999999999999999999999999$99$$$-=%<=@@O@$$=>=%&@X+#&=%$<$99999999999999999999999999",
"99999999999999999999999999999;:&%%@%@o@%$;:*%%*OX$o%;&;&$9999999999999999999999999",
"999999999999999999999999999@9$=%$##&#O$&=,;=&#;$.999-:=&&9999999999999999999999999",
"99999999999999999999999O999$**&%$#%&@&%%;->;*O&O999%&>;=%$999999999999999999999999",
"9999999999999999999999$999$%&*&$#&=*$%&;>=,<-$@$99999*-99*$99999999999999999999999",
"9999999999999999999999999&9*;$&$%=-:*&*,,*:2>*#&999999%9--999999999999999999999999",
"9999999999999999999999999$->&&;&%=:==>;2:%*><=$$&99%9999$9$:$999999999999999999999",
"999999999999999999999999&=,-$>=%$;<&%$&;*$#-=;%+%9%*999%99=+9999999999999999999999",
"999999999999999999999999=*=#-2-%+&$O9oO@$@*@$@OO$%9>9%9999999999999999999999999999",
"9999999999999999999999999%@%>:&+o#999.+#&$-&OOXo+$99&$9@99999999999999999999999999",
"99999999999999999999999999%&=*-#9%9999@$%**$$OO.o&$9#>@#99999999999999999999999999",
"99999999999999999999999%9*-$=-:*=*$999##&&-%=%+oo&&#;9o$99999999999999999999999999",
"99999999999999999999999$-:%9=$*;%1*99o+#*$&%;*&O@##*#O*X99999999999999999999999999",
"999999999999999999999999;;9%:&$-9*9@&X@$=&%O%>%&$&;=$@o9@9999999999999999999999999",
"999999999999999999999999999-1=+%999#OoO$&*#@O$%*&%*;-999@O999999999999999999999999",
"999999999999999999999999999*<:9&9999#+$+%:%+Xo+#-*$,%999O*999999999999999999999999",
"99999999999999999999999$O9%$;*$=9999#o@%%=#$X o+&<*%#9999-999999999999999999999999",
"999999999999999999999999*$99+%&-o9999XO&**#%.999$-%*&$9$9;9%9999999999999999999999",
"999999999999999999999999$&9o+O*>#99999+*-*##X9999#o-9=$#9%*99999999999999999999999",
"999999999999999999999$$9=$O@$$=2%9999.+*>:%@o9999o#%$9:&999$9999999999999999999999",
"9999999999999999999999=@>-*&+9$;+999O.#&:<*OX99999o=-%#999999999999999999999999999",
"99999999999999999999999%&+9@%+9999999X+%=1-+o99999+$-9$999%99999999999999999999999",
"99999999999999999999999-%$999@$99999Oo@$:2;O+99999+=999999$99999999999999999999999",
"999999999999999999999%9=#+999@&99999OO##:1*+O99999$>%99999999999999999999999999999",
"9999999999999999999999%-&$O99#$999999@%#;1%@o99$999<;$9999$99999999999999999999999",
"99999999999999999999999%>;$99&@999999@-%-,$$.O:9999>>9999=999999999999999999999999",
"999999999999999999999999*2=99=O999999O:&-:@%X%O9999%>9999#-9$999999999999999999999",
"9999999999999999999999&%&-999%99%99999;*%:$&o9999+99*o9999->$999999999999999999999",
"99999999999999999999999-$99999%+*%999o=%&;%*+9999*9-$9@9$*&99999999999999999999999",
"99999999999999999999999;=$&9999*1;%99o:$*=&-#9999999$99#99;*#999999999999999999999",
"99999999999999999999999>&9$9999o*9%99+>*&==:+99999999999&#9;*#99999999999999999999",
"99999999999999999999999&9$99999999999#<--;**O99999999999#*&;<%99999999999999999999",
"9999999999999999999999999999999999999%2-::;%O99$99999$999%,14999999999999999999999",
"9999999999999999999999999$9999999999o$>=:>:=+9999999$9999@&7>999999999999999999999",
"999999999999999999999999999999999999o@=&->>*$99$&999O$&$9o$,&999999999999999999999",
"9999999999999999999999999-99999999999O&*-,,=%99+*=999O9*%@o#9999999999999999999999",
"99999999999999999999999999@9999999999o%=;2>-&999;9999X-:==9oX999999999999999999999",
"99999999999999999999999999$999999@99.X#->3<;=9$$99999O%>-&=#9@99999999999999999999",
"99999999999999999999999999=999999@@9.o$;<3<;%99*9$$99+*9%&##++99999999999999999999",
"99999999999999999999999999$9999999999o$>34<;$9999&999%-99&$%9999999999999999999999",
"9999999999999999999999999&-*=99999999O%-15:;#o999$$99$&99+&-#999999999999999999999",
"99999999999999999999999999=>999999999O%:26,;@o9999%9$$X@99+&,$99999999999999999999",
"99999999999999999999999999>,99999999Xo&>23,=@o999&9&999+@9+*$9@9999999999999999999",
"999999999999999999999999999;99999999oO%<<3>;@O999&+$999&+99#$+@+999999999999999999",
"9999999999999999999999999999#9999999o+&><1:-#O99O$&99#=-%9++$999999999999999999999",
"9999999999999999999$9999$9%999999999o@&;,1:*$o9$;-9%$#,>#99&9#99999999999999999999",
"999999999999999999999999$99;99999999X@%-1,;&#o9->99#9==$99$#*99#999999999999999999",
"999999999999999999999999-%99999999999@%=>,;&#99$9O99*&999999-9=9999999999999999999",
"999999999999999999999999$9-9-+9999999#$*;:--@9999+#9+99999#999#9999999999999999999",
"9999999999999999999999999&<=;=9999999+&%->-;@99999*%99$99999%+99999999999999999999",
"99999999999999999999999999>-%99999999O*#=>-;$99999@-$99$999#,%99999999999999999999",
"99999999999999999999$99999**9$9999999O%&*:=:%o9999$%3#9$99#9&-9#999999999999999999",
"99999999999999999999-999999*999999999o$%*:*>*o99999%:99999X$#9-#999999999999999999",
"99999999999999999999999999$-9=99999*@O$*=;&3%O99999999$$999O%##&#99999999999999999",
"99999999999999999999$99999-<*9999999-+@-*;=;$O99999999999999#;*$#99999999999999999",
"99999999999999999999&999%%;:*99999999@*<*;-&#o9999999&999999O#>9#99999999999999999",
"99999999999999999999=9999=:,-%999%999$&;&$*%@X9999%9&-&99999OO99999999999999999999",
"99999999999999999999-9999<;3,99999999@&-$%&#o99999-&9:9999999##9999999999999999999",
"99999999999999999999=99995,8499999999+*-%&-@X99999,9-9$999999999999999999999999999",
"9999999999999999999%:&999;18,9999999oO&-*%-@o%&-999999&%9999999++@9999999999999999",
"99999999999999999999<@999947299999%9O+%-*&*#@=,&$$9999&999999#999&*;*%999999999999",
"99999999999999999999;99999,299999%%##@$=&%&$$99999%99o%@99@*9999999-,2;99999999999",
"9999999999999999999@*%99999999999%;%&$$*&@%$O99999999&=%%$99999999999-199999999999",
"9999999999999999999%:@$99999999$%=$-&$%-&o@%O999999#-&;>*9999999999999999999999999",
"99999999999999999999=@999%999$$$,$9:=+&*$&o&+999#=*:*=>6,%=-*$999999999999$O+#9999",
"9999999999+*$O99999+&@9$@&9999&%999$@+%&&&#%@999999$%@9;*#999999999999999999999999",
"99999999999;99O@=%9#%999%&99$99999%9O@$&#O$=#9999>%99999999999999999999999#O#*,-&*",
"99999999999999@*9=%$@%9-*99999999999O@#%#$+:@99999#9999999999999999999999999#;#999",
"999999999999999$:$=:-=:;-%9999999999+@&@&$$*+99999999999999999999999999999999=9999",
"9999999999999999999$=;-99999999999999$=O@%#$o9999999999999999999999999999999999999",
"$9;$+99999$**&%9999999999999999999999#%O#=#+O9999999999999999999999999999999999999",
"999999999$:=$999999999999999999999999$@o@*@$$9999999999999999999999999999999999999",
"99999999999999999999999999999999999999++#%$@99999999999999999999999999999999999999",
"9999999999999999999999999999999999999999999999999999999999999999999999999999999999",
"9999999999999999999999999999999999999999999999999999999999999999999999999999999999",
"9999999999999999999999999999999999999999999999999999999999999999999999999999999999",
"9999999999999999999999999999999999999999999999999999999999999999999999999999999999",
"9999999999999999999999999999999999999999+99999999999999999999999999999999999999999",
"999999999999999999999999+=$9+99999999o%@,&9$99999999999999999999999999999999999999",
"9999999999999999999999999999999999999999999999999999999999999999999999999999999999",
"9999999999999999999999999999999999999999999999999999999%9%%99999999999999999999999"
};
