/* XPM */
static char *_3974_8af87682b94c86a4e149548675b0e9a6539fcbf9d666ef5234f6a524da99a7f1[] = {
/* columns rows colors chars-per-pixel */
"79 106 28 1 ",
"  c #14182C",
". c #182034",
"X c #202841",
"o c #242C49",
"O c #283451",
"+ c #2C385D",
"@ c #344165",
"# c #38456D",
"$ c #3C4D79",
"% c #415182",
"& c #49598E",
"* c #516196",
"= c #55699A",
"- c #5D71A2",
"; c #6179AA",
": c #6982AE",
"> c #718AB6",
", c #7992BE",
"< c #7D9AC7",
"1 c #86A6CF",
"2 c #8EAED3",
"3 c #96B2DB",
"4 c #9EBADF",
"5 c #A6C7E7",
"6 c #AECFEF",
"7 c #B6D7F7",
"8 c #BEDFFF",
"9 c None",
/* pixels */
"9999999999999999999999999999999999>+9999999999999999999999999999999999999999999",
"9999999999999999999999999999999999&-9999999999999999999999999999999999999999999",
"999999999999999999999999999999999999$999999999999<99999999999999999999999999999",
"999999999999999999999999999999999999%9999%%9999&=;99999999999999999999999999999",
"99999999999999999999999999999999999999999%%999999999999999999999999999999999999",
"99999999999999999999999999999999999%9999999999999999999999999999999999999999999",
"9999999999999999999999999999999999$9999999%%99999999999999999999999999999999999",
"9999999999999999999999999999999999$>:$999%%999999999999999999999999999999999999",
"99999999999999999999999999999999999%;,999%-$99$99999999999999999999999999999999",
"9999999999999999999999999999999999$9%-<912,;&9999999999999999999999999999999999",
"9999999999999999999999999999999$99999-,11446<999999$999999999999999999999999999",
"999999999999999999999999999%99999%+*:,,>-><3:$999999999999999999999999999999999",
"99999999999999999999999999999999%:2>&%=-&$=84*999&*9999999999999999999999999999",
"9999999999999999999999999999999999>%=&$++99=6-$9992,999999999999999999999999999",
"99999999999999999999999999999999$%=>%@@@&#%+>:$9999%999999999999999999999999999",
"99999999999999999999999999999%%$9;1=$$$&;&&O%=999999999999999999999999999999999",
"9999999999999999999999999999$@$-=%;&&*;,=%;o@&999999999999999999999999999999999",
"9999999999999999999999999999999%$::=--13<*%#O$9$9999999999999999999999999999999",
"9999999999999999999999999999999O#=:*#>;1:=&*$:#9=999999999999999999999999999999",
"999999999999999999999999999%=&-+&%%###=>&:*&:&=#9999999999999999999999999999999",
"99999999999999999999999999+<>$9%&$%+$%#&=,*%*=#;*o99999999999999999999999999999",
"9999999999999999999999999999999###%&#;$$>2=$$*#&,*O9999999999999999999999999999",
"999999999999999999999999999%%99+@%$$->:&-,&#-=&O=&o99@9999999999999999999999999",
"999999999999999999999999999;9999%&#%*$&@$=#@,;*$9+9999;=99999999999999999999999",
"99999999999999999999999999$%99+@+&%-&$;$+@#+&;:*&%99999,-9999999999999999999999",
"9999999999999999999999999999+99O+$;*$@*&+#$o$<>;+;99999999999999999999999999999",
"9999999999999999999999999+-$99@O@&:&#%*-+@&++>71X#$99$9999999999999999999999999",
"9999999999999999999999999*:99$*@#;-@@$&=#@=#o%<%X+&9999999999999999999999999999",
"9999999999999999999999999&,O9*&#=>&X+&&$++%$++@.X.$9+99999999999999999999999999",
"99999999999999999999999999+**<<%,1$X@*&$%O$&#+O  9@$=99999999999999999999999999",
"9999999999999999999999999$-@#;:=4>@X%-:%+.#&&#OX Xo%>#9999999999999999999999999",
"999999999999999999999999%:-$=-=:3:O#**&+o#$;%#O@X9=9@99999999999999999999999999",
"999999999999999999999999<3=%-$%*:$O$=$%O#&&-=$@&o9<$&99999999999999999999999999",
"9999999999999999999999999*%99o$&#O+#=$#+%-%=>=$;O+:<%$9999999999999999999999999",
"9999999999999999999999999$*9$9X+o@#%:%$&$-$&=1+&%O-=&&9999999999999999999999999",
"99999999999999999999999%%9-99%9+$&#*,*#$;>%:>=$=>#*;99*999999999999999999999999",
"999999999999999999999999%;%999$#&-%:1:%**4<:&&&1:%&<&9=-$9999999999999999999999",
"99999999999999999999999&:*99$9+%;*&-4=%=-2:*-=<=9&%>-99-:9999999999999999999999",
"9999999999999999999999:1=>&9999-2&%%;&%,1;%+9$9O%=#&&99>#9999999999999999999999",
"999999999999999999999%5-#9%&%99$-**$%%;-=%$O99%@&>&$9&999&999999999999999999999",
"9999999999999999999999-:*%99#9.o@#&@=$%=*$+X#99$199$999#9;999999999999999999999",
"99999999999999999999999*<9999oO%OX@=;#+#%&OXO99@*@99&$&9*1%99999999999999999999",
"999999999999999999999999>#999@=O+@+O<&o$+$oX9#%99999%&9$==#99999999999999999999",
"99999999999999999999999-%&999#%$=#@*-@OX+oX.999$999999$*-+=@9999999999999999999",
"999999999999999999999999999+$-=-<*$-=$o  XXo99999$9#%&&;>9>%9999999999999999999",
"99999999999999999999999&99=%9=>,:#@&%+Xo  o$9%9999%%=#=2*9<:@999999999999999999",
"9999999999999999999999999999#9-*99o#+.o@XOO=o@9$99$-O=+%99%99999999999999999999",
"9999999999999999999999999%9*$+999+99.OO$o#X$o9999$:$$-99&%*+9999999999999999999",
"9999999999999999999999999999:+999%99O+@&O@o+X9999==99$999=-99999999999999999999",
"99999999999999999999999999999999999#O@O$+OX#o9999999999%*;$9#99+999999999999999",
"9999999999999999999999999999999999@-9O@=@oO%+999999+999;9&9$999%999999999999999",
"999999999999999999999999999%999999O%@o#:$@@=@$99999&%99$9-*%$999999999999999999",
"999999999999999999999999999-999999999O%3*#$%@9999999:9999%;>%%99999999999999999",
"999999999999999999999999999999999%999+=<>%&=#9%999%*99999$-<--$9999999999999999",
"999999999999999999999999999&99999%@9%@&<=%%-%9O;99@&9#=#99>=,-99999999999999999",
"99999999999999999999999999=,9$99999@9@#--&#&+999999*=99=-$999999999999999999999",
"9999999999999999999999999;99:99$99999+@&;&@$O999999&-99>9--99999999999999999999",
"9999999999999999999999999&*999$99999XO@&;*+#o999999-%->999999999999999999999999",
"9999999999999999999999999999&9-99&@9O$#*,=+OX9999999O>-999999999999999999999999",
"9999999999999999999999999999>:%9-9+99*+-,=+%X99999$O%99%99999#99999999999999999",
"99999999999999999999999999$99>;999999-+-<-#&o99999+*:$9#99999+%#999999999999999",
"9999999999999999999999999999=3:99999%;+=2;#=+99999*999**99999&O999+999999999999",
"999999999999999999999999&+9999$99999@:#*,>$&+X999999$=-$9999%=&#999999999999999",
"9999999999999999999999999999&=99999+*=#&>;&&Oo999999&<-9$%99&,;O999999999999999",
"99999999999999999999999999&-=$#9%999&##*>=&%#O99999999$$&9999:9&+99999999999999",
"999999999999999999999999999--#99999999#-<$%$@o9999999$&>999999%*$99999999999999",
"99999999999999999999999999$9,$99999+99*;1%$@@o99999999=9$99999&;;99999999999999",
"999999999999999999999999$99*,99=999O@$&:2&#++X999999999999999%%<&99999999999999",
"99999999999999999999999999-:19$9999+9$%;<*@%+9999999999999999;;1999999999999999",
"9999999999999999999999999@91,9%999999O$*>=#&#99999999999999@9%,=9+9999999999999",
"999999999999999999999999999<99&9999999#&-&$=#@+9999999*99999=99#%*9999999999999",
"9999999999999999999999999&$9%9%999999O#%*%%-#9%999999999999#9#%9-99999999999999",
"999999999999999999999999%9@&=9=99999OO$@%%&:+9999o99999$99999*99999999999999999",
"99999999999999999999999>@*=>-&-99999O+%$*$=<#999%:99999999999>99999999999999999",
"9999999999999999999999=9;9;9>9-999999$*%&$;1%9999999999999999999999999999999999",
"9999999999999999999999,*99,&;=:999999&,$*$=,*$99999999$999999999999999999999999",
"99999999999999999999999999$9&->999999#*#=%&-%%999999999:99999999999999999999999",
"999999999999999999999$9999999,-99O999+=$-&=;$999999999$9$9999999999999999999999",
"999999999999999999999=999$&99<,999999@%=:*%=#999999999=999999999999999999999999",
"99999999999999999999%,$999$99:9999999@&=>==&@9$9999999@,&%999999999999999999999",
"999999999999999999999-;9999999&999999#=-<;&$#+%99999999%19999999999999999999999",
"99999999999999999999=99#99999&9999999%;:2=&@$>9999999999:%999999999999999999999",
"9999999999999999999999-%999999999999o*:,1%$O%9999999999&>9999999:99999999999999",
"999999999999999999999:-9$99999999999o&,5:&#o$$99999999&;<399;9=9999999999999999",
"99999999999999999999%1<<999999999999o&;2-*%+&$9%9999999-2>999-299%9999999999999",
"9999999999999999999991232999999999999%*;*=*#*$+;*@9999&22999&:2,999999999999999",
"9999999999999999999999>%9999999999999#%=%&-$;*>>$-&99999929&:<-1*$9999999999999",
"999999999999999999-9%,-9999$999999999+#*$=;&&$;$9#%;-&99&=3<%$99999#99999999999",
"999999999999999-,99999:=>999999%;9999o@=&=,&$99%99@&-:*,;34%999$99#,&*#99999999",
"9999999999999999-,9999>>%9999%991999.oO=-=,&$999999@=,2225-999-99#99;&<-#999999",
"99999999999999999::9-&,;999$::9$9999.o#;-;:;%9999$*;:=:;<>;;99999999999**:$9$=*",
"9999999999999%99&%*%9;;9&9$-=9999999.+%;=:3-&9999999999999999999999999999999999",
"999999999999999%&9%%&&--9999999999999+*%=,4>=99999999999999999&999=999999999999",
"9999999999999999&99%---%*%9$$9999-999@%*;,<=-99%=9999999999--,-:,3:9999999999%;",
"99999999999999$&$999%&,-=*%999999%=99$&:;,:-&99999999999999999999999999999999;9",
"999-999999999$*99999;%%:%999999999999%&,->*;-9999999999999999999999999999999999",
"$&=:=$9999&&-&&$999999999999999999999%$*=;*-;9999999999999999999999999999999999",
"999999999$&&-$99999999999999999999999$-=;%**$9999999999999999999999999999999999",
"99999999999999999999999999999999999999#*-&&$99999999999999999999999999999999999",
"9999999999999999999999999999999999999999999999999999999999999999999999999999999",
"9999999999999999999999999999999999999999999999999999999999999999999999999999999",
"9999999999999999999999999999999999999999999999999999999999999999999999999999999",
"9999999999999999999999999999999999999999999999999999999999999999999999999999999",
"99999999999999999999999999*9999999999%99%-%99999999$999999999999999999999999999",
"99999999999999999999999%=**-&999999#%:=*:<-@O99999999%=$99999999999999999999999",
"9999999999999999999999999999999999999999999999999999999=,;999999999999999999999"
};
