/* XPM */
static char *_2442_037a32367f244552a6b1698c89020da0dd37113324bc10d5806c1ff64f0010db[] = {
/* columns rows colors chars-per-pixel */
"85 103 27 1 ",
"  c #14182C",
". c #182034",
"X c #202841",
"o c #242C49",
"O c #283451",
"+ c #2C385D",
"@ c #344165",
"# c #38456D",
"$ c #3C4D79",
"% c #415182",
"& c #49598E",
"* c #516196",
"= c #55699A",
"- c #5D71A2",
"; c #6179AA",
": c #6982AE",
"> c #718AB6",
", c #7992BE",
"< c #7D9AC7",
"1 c #86A6CF",
"2 c #8EAED3",
"3 c #96B2DB",
"4 c #9EBADF",
"5 c #A6C7E7",
"6 c #AECFEF",
"7 c #B6D7F7",
"8 c None",
/* pixels */
"888888888888888888888888888888888o%88+88%&8888888888888888888888888888888888888888888",
"88888888888888888888888888888888+%-&88888&&888888888888888888888888888888888888888888",
"88888888888888888888888888888888++*-8O%@$88888888888888888888888888888888888888888888",
"8888888888888888888888888888888++8%-&&&=@=$$8@=>$888888888888888888888888888888888888",
"8888888888888888888888888888888$&$8%$$-*-<=%-,<-#888888888888888888888888888888888888",
"888888888888888888888888888888&>=888%+-:*@%;$;,+8888888888888888888888888888888888888",
"888888888888888888888888888888,:88%8&;;=,#O@&=@88888888888888888888888888888888888888",
"88888888888888888888888888888888%#:=1%>11:$%-<88$$88888888888888888888888888888888888",
"888888888888888888888888888888$$8<<1*-::,5:*<5&888$8888888888888888888888888888888888",
"88888888888888888888888888888888%1-%-:>45,:151;8888888%%88888888888888888888888888888",
"88888888888888888888888888888-;888%>::1226<,=<*$88$888%888888888888888888888888888888",
"8888888888888888888888888888%>1>$8@;*:,<5123:==%8888888888888888888888888888888888888",
"88888888888888888888888888888%8*%&=;-%:3;=&-1:*;88$8888888888888888888888888888888888",
"8888888888888888888888888888888o;;:*$=<&+XX+#*:&-8$8888888888888888888888888888888888",
"88888888888888888888888888888888:<%**>*@X$o+.$;31=&$%88888888888888888888888888888888",
"888888888888888888888888888++@@*;:*&:;$oo+%%@O#,->;*888888888888888888888888888888888",
"8888888888888888888888888888#&$&%*;*<=#o+##=>*O8&:,#888888888888888888888888888888888",
"888888888888888888888888888#=@%&*&#;2&++#@%&>2*O&++8888888888888888888888888888888888",
"88888888888888888888888888@;&@&==%&:,%+@%@=%=2;$;888.88$88888888888888888888888888888",
"88888888888888888888888888%#+#=<&$=<:&@#*$>$%=$O$$8o@O8888888888888888888888888888888",
"8888888888888888888888888#8++$%*O@*,;&#%-%-&#++$+888o=$888888888888888888888888888888",
"8888888888888888888888888##88@#O.$&-&$$&:&%-@&$&+@$$&-;888888888888888888888888888888",
"888888888888888888888888&8&888@.o&%%@&%=<*&%+$*=%8888$8$88888888888888888888888888888",
"888888888888888888888888&88:%O@X#*$&$=%*;**=#@*>&%@8+88888888888888888888888888888888",
"88888888888888888888888&&&=:*@+@*%#&%:&&=&=;%#&=#8-++o88%8$88888888888888888888888888",
"888888888888888888888888&88888+&=##%**=-%*;,*%#@+@1*o88=&8888888888888888888888888888",
"888888888888888888888888888888$=%+@$-%=:$%>1=$Oo++&-O88$-%888888888888888888888888888",
"88888888888888888888888%8888$&##+O+#;$%=%@=;%#@oO@8888$#::888888888888888888888888888",
"88888888888888888888888888$8#%@oXoO%>%$;&$$%###@O+888@8%<>;88888888888888888888888888",
"8888888888888888888888888&88@&@OoOo+*#%=*&@#@$&@#%%88888---%8888888888888888888888888",
"8888888888888888888888888$8@@%+Oo+X+%$&;:*@#+@O$+%##+8O8&<%88888888888888888888888888",
"8888888888888888888888888888#&O+O@o#&$*-,%+oO$@O#+&O8888&,,88888888888888888888888888",
"888888888888888888888888888@#&+O@$+$=%=<<+OXo@&$@*$@o8o%%3<$8888888888888888888888888",
"888888888888888888888888888@$%@+#%@&;*:2-+XOXo$&$*%*#o++%2118888888888888888888888888",
"8888888888888888888888888$$#%&###*$*:-,>&oX +o+&&=**$@%o+8188888888888888888888888888",
"8888888888888888888888888%@$%*%%%=%;:*-*oXXo#+O%**;&*$+*o8$$8888888888888888888888888",
"88888888888888888888888888$$&=%&&:*=,-*$oO o$#@@$&--*#o@-#8&8888888888888888888888888",
"88888888888888888888@888@8*%&;&*==,;:-%$@o +&=+#&=&:-%88-:88$888888888888888888888888",
"88888888888888888888%888@#=&*>*&:-2-*:#$+XX#>>$@&*#;,;8@@=%88888888888888888888888888",
"888888888888888888888888%&-%=>=$>->>:&@&%.X%=&%O$-**1;@8$8888888888888888888888888888",
"88888888888888888888888@$==$-1-=*:5<*%@%%X@ O@@+@->%;*$888888888888888888888888888888",
"888888888888888888888888%;*%=,;%&,:&+@$&#O%#88@88$,=8*%+8%888*88888888888888888888888",
"888888888888888888888888@*%=>=%@$-&#O+$*+Xo##888@8%=*=&#88888888888888888888888888888",
"8888888888888888888888888$&$*$8O+##O@+&*#XO8&&8888&8,*&#8%888888888888888888888888888",
"888888888888888888888888@&&XO+#8XoXX+#*-$o+88%88%+&%$-%8--8#8888888888888888888888888",
"8888888888888888888888888#%888O8888XO#=-%O@+8+88%@+88;$8=&8;8888888888888888888888888",
"88888888888888888888888888#88888888oO@=:*++$888%8888%>8@18888$*-888888888888888888888",
"888888888888888888888888@8&+8%88888O+%->=@#O888888$8;<&8888888:8888888888888888888888",
"888888888888888888888888#8+$8&88888X+%*<-$@X8888888813:8%8%88888888888888888888888888",
"888888888888888888888%8@:$#:#8&88888$=&:*&@O888888@8:3*&#=8$*888888888888888888888888",
"88888888888888888888:88&@8=888888888$;#-$&#+o88888%88%888%-@$>=8888888888888888888888",
"88888888888888888888888,8$:&88888888%&%-#$@%+8888$*888888$+=##<8888888888888888888888",
"8888888888888888888888=-8;;:8888888@*$$-@%@$+888&:888#888$%-28%%888888888888888888888",
"88888888888888888888888881&:&8888888%#%=#&$&8+8%;-888%8%88%$2>88888888888888888888888",
"88888888888888888888888&84>*&$888@88&$&-$&;%O88-1%8$8,88;888;1:8888888888888888888888",
"8888888888888888888888888;3=8%&888%8%%=-%&:%888<:8888*8&8%%$%888888888888888888888888",
"888888888888888888888888&%8%8888&88O%&-;&%>&888%88888*88888%8888888888888888888888888",
"888888888888888888888888888888888888$&>;*;-%888888888-888$8%88%8888888888888888888888",
"8888888888888888888888888888,#88888@$*1:=-*%88888888888888888888888888888888888888888",
"888888888888888888888888888*:8888888%;3;=>;$88888888$88888888888888888888888888888888",
"888888888888888888888888888=88888888%>7>;,:%888888888$8&88888888888888888888888888888",
"88888888888888888888@88888&8%888888@*,61-2:%O8888888&=8888888888888888888888888888888",
"88888888888888888888%8888-8%8888888#*:<,;>;&#8888888$-$888888888888888888888888888888",
"888888888888888888888888$;8>8888888#&=:<>:-*@888888&&1;8&$888888888888888888888888888",
"888888888888888888888888888*88888%8%@&<:<-;&@88888888;&88;888888888888888888888888888",
"888888888888888888888*88888888888888+*,-2-;&+888%88$&=8888888888888888888888888888888",
"88888888888888888888&*#888%888888888#-<&<*-%O888-&888;&8&8888888888888888888888888888",
"888888888888888888888:88888888888888#=:$;$=$O88888888%;&8:888888888888888888888888888",
"888888888888888888888>88888888888888+%-@=$&++88888888$:-88888888888888888888888888888",
"88888888888888888888&=+88888888$%%88+%***$%+#8888888888&88888888888888888888888888888",
"888888888888888888888;888888888@%888O$-*:%$+@8888888&8:888888888888888888888888888888",
"888888888888888888888$88%%8888@88%88O%-=-&$@88888888:&8888888888888888888888888888888",
"88888888888888888888888888888888%%88o$*->=%#88888888818&88888888888888888888888888888",
"88888888888888888888&&8&888888@88888o#-;>-&$888888888&:88%888888888888888888888888888",
"8888888888888888888&8%*8888888$88888X#&:,-**88888888888888888888888888888888888888888",
"888888888888888888888$=8888888888888o#*:<-&*888888888&8888888888888888888888888888888",
"888888888888888888888&;&8888%88$8888XO;,,*$*@88888888-8888888888888888888888888888888",
"8888888888888888888$88>-888&&$888888.@;;;*@&@88888888>$888888888888888888888888888888",
"8888888888888888888888;88888&8888888Xo%:-*+%@8888888888888888888888888888888888888888",
"88888888888888888*&8&888&888888%8888o+$:-&+$@88O8888888888888888888888888888888888888",
"8888888888888888>$8#+888-=8888888888O@O;>%+$@88%88&888888&888888888888888888888888888",
"8888888888888888&8&#+888;88888@$8888+##;;*+%@8888&&%888&%8888888888888888888888888888",
"8888888888888888888;##88888888@o8888+#&;<&$&@88888@8$%%88&888888888888888888888888888",
"8888888888888888888%>=8888888$o88888O@**,-%*@88888&;;88888888888888888888888888888888",
"88888888888888888888;1&888888$888888++=%;=&=@8888%,*$88*$88*8888888888888888888888888",
"88888888888888888888888888888&8$8888O&%#**=-8888&,=88888=&88=$88888888888888888$88888",
"888888888888888888888888$8888;&88888@$*&O&;=88883<@88888&-&8=,*888888%888888888888888",
"88888888888888888888888*8888-2;88888+$-$#%:*8888<@-88888*:,8:1388%%8*88888$*888888888",
"888888888888888888888888%8888-,88888+&:=O-:=88888%888888;;&$-7;%*8&;888$8$=*<;$888888",
"88888888888888%;%8888%88-88888888%8OO&:>$*-#$8%8888888%%&,8$;*%**88888888888888888888",
"8888888888888$:-=%$8888$-%888888;$88X%>2&*&%%$%%8888%%;>;:$88$;%888888888888888888888",
"888888888888%<8#>=88$8&@%;%$8&888888X+:6>**$888888888888&-,<=;&$888888888888888888888",
"8888$%$$8888-%8888888$8oo;&-&&&&8888X@-1;==%88888888888888888%>-&8888888888888888#&:=",
"888$=$888888888888888888888888888888O#$==&=%88888%=8888888888888%=:;88888888888#88888",
"@*+@@&$88888888888888888888888888888$#%$&&$@8888%,-&88888888888888:,88888888888888888",
"8888888888888888$88888888888888888888+&&&##888888888888888888888888888888888888888888",
"8888888888888888$$8888888888888888888888888888888888888888888888888888888888888888888",
"8888888888888888888888888888888%888888888888&&$88888888888888888888888888888888888888",
"88888888888888888888888888%8-%88O$&$888888888>1>&888888888888888888888888888888888888",
"88888888888888888888888888><*,2>%@=888888888;2=%88&8888888888888888888888888888888888",
"8888888888888888888888888818&#88@:<+88++888@-%8888,&888888888888888888888888888888888",
"88888888888888888888888888%888888&#;$OooO$**888888=2888888888888888888888888888888888",
"88888888888888888888888888888888$88#=&%###8888888888888888888888888888888888888888888"
};
