/* XPM */
static char *_2386_18305068e8cd8930be13cdd32e373f841d75b36e8dab071c61519235ceabc4f4[] = {
/* columns rows colors chars-per-pixel */
"62 15 21 1 ",
"  c #131313",
". c #1B1B1B",
"X c #2B230F",
"o c #332B13",
"O c #232323",
"+ c #272727",
"@ c #2F2F2F",
"# c #373737",
"$ c gray23",
"% c #432F1B",
"& c #4B371B",
"* c #533F1F",
"= c #5F4323",
"- c #6B4727",
"; c #774F2B",
": c gray28",
"> c gray31",
", c gray34",
"< c #8F5F37",
"1 c #9B633B",
"2 c None",
/* pixels */
"22222222222222222222222222222222222222222222222222222222222>+2",
"222222222222222222222222222$.::::::::$$2+@.$$::+>>>,+,,,+>@$+2",
"222222222222222222222222.$.@.@$,,$OO+@+.+@.@$$$.$$$$.$$$.$@++.",
"22222222222222*--;;;---@.O.OOOOO++++@#. .++O@@@@@@@@@@@@@@+...",
"%&&22222%&*--;;;---==--@OO+@@@@@@@@@##.+.+...    ...   ...   2",
"&*---;;;;;;----====****.+OO+##@@@@##$$+,+@+,%=*-;*<1*11*11*;-,",
"2*=--------===***&%%X%&+.......+.......+..+$*=%**%*=%=-%==%*=$",
"2&*========***&&%X2222.#++ +22..+:$#OOOOOO @%-%**%&&%&&%&*%*=2",
"2&**********&&&%X2222.#++O2 2O.+ 222222222222Xo%%o%%%%&%&&%*=2",
"2&*****&&&&&%X&&%222.#++O OOO   222222222222222222XXooo%%%o%%2",
"2%****&&&&%X22X%&%2.O++O.2222222222222222222222222222222222222",
"%o&**&&%XX22222X&&.O++. 22222222222222222222222222222222222222",
"o&&&&oX222222222X%&.OO 222222222222222222222222222222222222222",
"X%%oX222222222222X%&..2222222222222222222222222222222222222222",
"222222222222222222XX222222222222222222222222222222222222222222"
};
